<svg viewBox="-16 -32 880 192" width="880" height="192" xmlns="http://www.w3.org/2000/svg"><desc>Generated with https://github.com/Platane/snk</desc><style>:root{--cb:#1b1f230a;--cs:white;--ce:#0a0e12;--c0:#0a0e12;--c1:#1445a2;--c2:#1d65ee;--c3:#1f4eff;--c4:#466dff}.c{shape-rendering:geometricPrecision;fill:var(--ce);stroke-width:1px;stroke:var(--cb);animation:none 31900ms linear infinite;width:12px;height:12px}@keyframes c0{97.17%{fill:var(--c4)}97.19%,100%{fill:var(--ce)}}.c.c0{fill:var(--c4);animation-name:c0}@keyframes c1{3.12%{fill:var(--c1)}3.14%,100%{fill:var(--ce)}}.c.c1{fill:var(--c1);animation-name:c1}@keyframes c2{68.02%{fill:var(--c2)}68.04%,100%{fill:var(--ce)}}.c.c2{fill:var(--c2);animation-name:c2}@keyframes c3{4.38%{fill:var(--c1)}4.4%,100%{fill:var(--ce)}}.c.c3{fill:var(--c1);animation-name:c3}@keyframes c4{74.28%{fill:var(--c3)}74.3%,100%{fill:var(--ce)}}.c.c4{fill:var(--c3);animation-name:c4}@keyframes c5{67.39%{fill:var(--c2)}67.41%,100%{fill:var(--ce)}}.c.c5{fill:var(--c2);animation-name:c5}@keyframes c6{94.35%{fill:var(--c4)}94.37%,100%{fill:var(--ce)}}.c.c6{fill:var(--c4);animation-name:c6}@keyframes c7{1.56%{fill:var(--c1)}1.58%,100%{fill:var(--ce)}}.c.c7{fill:var(--c1);animation-name:c7}@keyframes c8{65.82%{fill:var(--c2)}65.84%,100%{fill:var(--ce)}}.c.c8{fill:var(--c2);animation-name:c8}@keyframes c9{95.6%{fill:var(--c4)}95.62%,100%{fill:var(--ce)}}.c.c9{fill:var(--c4);animation-name:c9}@keyframes ca{6.89%{fill:var(--c1)}6.91%,100%{fill:var(--ce)}}.c.ca{fill:var(--c1);animation-name:ca}@keyframes cb{6.57%{fill:var(--c1)}6.59%,100%{fill:var(--ce)}}.c.cb{fill:var(--c1);animation-name:cb}@keyframes cc{68.96%{fill:var(--c3)}68.98%,100%{fill:var(--ce)}}.c.cc{fill:var(--c3);animation-name:cc}@keyframes cd{73.03%{fill:var(--c3)}73.05%,100%{fill:var(--ce)}}.c.cd{fill:var(--c3);animation-name:cd}@keyframes ce{65.19%{fill:var(--c2)}65.21%,100%{fill:var(--ce)}}.c.ce{fill:var(--c2);animation-name:ce}@keyframes cf{5.95%{fill:var(--c1)}5.97%,100%{fill:var(--ce)}}.c.cf{fill:var(--c1);animation-name:cf}@keyframes cg{63.31%{fill:var(--c2)}63.33%,100%{fill:var(--ce)}}.c.cg{fill:var(--c2);animation-name:cg}@keyframes ch{63%{fill:var(--c2)}63.02%,100%{fill:var(--ce)}}.c.ch{fill:var(--c2);animation-name:ch}@keyframes ci{62.37%{fill:var(--c2)}62.39%,100%{fill:var(--ce)}}.c.ci{fill:var(--c2);animation-name:ci}@keyframes cj{62.06%{fill:var(--c2)}62.08%,100%{fill:var(--ce)}}.c.cj{fill:var(--c2);animation-name:cj}@keyframes ck{61.43%{fill:var(--c2)}61.45%,100%{fill:var(--ce)}}.c.ck{fill:var(--c2);animation-name:ck}@keyframes cl{64.25%{fill:var(--c2)}64.27%,100%{fill:var(--ce)}}.c.cl{fill:var(--c2);animation-name:cl}@keyframes cm{71.46%{fill:var(--c3)}71.48%,100%{fill:var(--ce)}}.c.cm{fill:var(--c3);animation-name:cm}@keyframes cn{71.15%{fill:var(--c3)}71.17%,100%{fill:var(--ce)}}.c.cn{fill:var(--c3);animation-name:cn}@keyframes co{9.39%{fill:var(--c1)}9.41%,100%{fill:var(--ce)}}.c.co{fill:var(--c1);animation-name:co}@keyframes cp{19.74%{fill:var(--c1)}19.76%,100%{fill:var(--ce)}}.c.cp{fill:var(--c1);animation-name:cp}@keyframes cq{10.65%{fill:var(--c1)}10.67%,100%{fill:var(--ce)}}.c.cq{fill:var(--c1);animation-name:cq}@keyframes cr{10.96%{fill:var(--c1)}10.98%,100%{fill:var(--ce)}}.c.cr{fill:var(--c1);animation-name:cr}@keyframes cs{19.43%{fill:var(--c1)}19.45%,100%{fill:var(--ce)}}.c.cs{fill:var(--c1);animation-name:cs}@keyframes ct{11.28%{fill:var(--c1)}11.3%,100%{fill:var(--ce)}}.c.ct{fill:var(--c1);animation-name:ct}@keyframes cu{12.53%{fill:var(--c1)}12.55%,100%{fill:var(--ce)}}.c.cu{fill:var(--c1);animation-name:cu}@keyframes cv{16.6%{fill:var(--c1)}16.62%,100%{fill:var(--ce)}}.c.cv{fill:var(--c1);animation-name:cv}@keyframes cw{15.04%{fill:var(--c1)}15.06%,100%{fill:var(--ce)}}.c.cw{fill:var(--c1);animation-name:cw}@keyframes cx{15.66%{fill:var(--c1)}15.68%,100%{fill:var(--ce)}}.c.cx{fill:var(--c1);animation-name:cx}@keyframes cy{56.42%{fill:var(--c2)}56.44%,100%{fill:var(--ce)}}.c.cy{fill:var(--c2);animation-name:cy}@keyframes cz{56.73%{fill:var(--c2)}56.75%,100%{fill:var(--ce)}}.c.cz{fill:var(--c2);animation-name:cz}@keyframes c10{33.53%{fill:var(--c1)}33.55%,100%{fill:var(--ce)}}.c.c10{fill:var(--c1);animation-name:c10}@keyframes c11{52.03%{fill:var(--c2)}52.05%,100%{fill:var(--ce)}}.c.c11{fill:var(--c2);animation-name:c11}@keyframes c12{26.95%{fill:var(--c1)}26.97%,100%{fill:var(--ce)}}.c.c12{fill:var(--c1);animation-name:c12}@keyframes c13{31.96%{fill:var(--c1)}31.98%,100%{fill:var(--ce)}}.c.c13{fill:var(--c1);animation-name:c13}@keyframes c14{84.94%{fill:var(--c3)}84.96%,100%{fill:var(--ce)}}.c.c14{fill:var(--c3);animation-name:c14}@keyframes c15{28.2%{fill:var(--c1)}28.22%,100%{fill:var(--ce)}}.c.c15{fill:var(--c1);animation-name:c15}@keyframes c16{27.89%{fill:var(--c1)}27.91%,100%{fill:var(--ce)}}.c.c16{fill:var(--c1);animation-name:c16}@keyframes c17{28.83%{fill:var(--c1)}28.85%,100%{fill:var(--ce)}}.c.c17{fill:var(--c1);animation-name:c17}@keyframes c18{29.14%{fill:var(--c1)}29.16%,100%{fill:var(--ce)}}.c.c18{fill:var(--c1);animation-name:c18}@keyframes c19{49.83%{fill:var(--c2)}49.85%,100%{fill:var(--ce)}}.c.c19{fill:var(--c2);animation-name:c19}@keyframes c1a{30.71%{fill:var(--c1)}30.73%,100%{fill:var(--ce)}}.c.c1a{fill:var(--c1);animation-name:c1a}@keyframes c1b{37.29%{fill:var(--c1)}37.31%,100%{fill:var(--ce)}}.c.c1b{fill:var(--c1);animation-name:c1b}@keyframes c1c{36.98%{fill:var(--c1)}37%,100%{fill:var(--ce)}}.c.c1c{fill:var(--c1);animation-name:c1c}@keyframes c1d{39.8%{fill:var(--c1)}39.82%,100%{fill:var(--ce)}}.c.c1d{fill:var(--c1);animation-name:c1d}@keyframes c1e{46.07%{fill:var(--c2)}46.09%,100%{fill:var(--ce)}}.c.c1e{fill:var(--c2);animation-name:c1e}@keyframes c1f{40.12%{fill:var(--c1)}40.14%,100%{fill:var(--ce)}}.c.c1f{fill:var(--c1);animation-name:c1f}@keyframes c1g{41.06%{fill:var(--c1)}41.08%,100%{fill:var(--ce)}}.c.c1g{fill:var(--c1);animation-name:c1g}@keyframes c1h{41.68%{fill:var(--c1)}41.7%,100%{fill:var(--ce)}}.c.c1h{fill:var(--c1);animation-name:c1h}@keyframes c1i{44.19%{fill:var(--c1)}44.21%,100%{fill:var(--ce)}}.c.c1i{fill:var(--c1);animation-name:c1i}@keyframes c1j{42%{fill:var(--c1)}42.02%,100%{fill:var(--ce)}}.c.c1j{fill:var(--c1);animation-name:c1j}@keyframes c1k{43.88%{fill:var(--c1)}43.9%,100%{fill:var(--ce)}}.c.c1k{fill:var(--c1);animation-name:c1k}@keyframes c1l{43.56%{fill:var(--c1)}43.58%,100%{fill:var(--ce)}}.c.c1l{fill:var(--c1);animation-name:c1l}@keyframes c1m{42.94%{fill:var(--c1)}42.96%,100%{fill:var(--ce)}}.c.c1m{fill:var(--c1);animation-name:c1m}.u{transform-origin:0 0;transform:scale(0,1);animation:none linear 31900ms infinite}@keyframes u0{1.56%{transform:scale(0.000,1)}1.58%,3.12%{transform:scale(0.029,1)}3.14%,4.38%{transform:scale(0.057,1)}4.4%,5.95%{transform:scale(0.086,1)}5.97%,6.57%{transform:scale(0.114,1)}6.59%,6.89%{transform:scale(0.143,1)}6.91%,9.39%{transform:scale(0.171,1)}9.41%,10.65%{transform:scale(0.200,1)}10.67%,10.96%{transform:scale(0.229,1)}10.98%,11.28%{transform:scale(0.257,1)}11.3%,12.53%{transform:scale(0.286,1)}12.55%,15.04%{transform:scale(0.314,1)}15.06%,15.66%{transform:scale(0.343,1)}15.68%,16.6%{transform:scale(0.371,1)}16.62%,19.43%{transform:scale(0.400,1)}19.45%,19.74%{transform:scale(0.429,1)}19.76%,26.95%{transform:scale(0.457,1)}26.97%,27.89%{transform:scale(0.486,1)}27.91%,28.2%{transform:scale(0.514,1)}28.22%,28.83%{transform:scale(0.543,1)}28.85%,29.14%{transform:scale(0.571,1)}29.16%,30.71%{transform:scale(0.600,1)}30.73%,31.96%{transform:scale(0.629,1)}31.98%,33.53%{transform:scale(0.657,1)}33.55%,36.98%{transform:scale(0.686,1)}37%,37.29%{transform:scale(0.714,1)}37.31%,39.8%{transform:scale(0.743,1)}39.82%,40.12%{transform:scale(0.771,1)}40.14%,41.06%{transform:scale(0.800,1)}41.08%,41.68%{transform:scale(0.829,1)}41.7%,42%{transform:scale(0.857,1)}42.02%,42.94%{transform:scale(0.886,1)}42.96%,43.56%{transform:scale(0.914,1)}43.58%,43.88%{transform:scale(0.943,1)}43.9%,44.19%{transform:scale(0.971,1)}44.21%,100%{transform:scale(1.000,1)}}.u.u0{fill:var(--c1);animation-name:u0;transform-origin:0.0px 0}@keyframes u1{46.07%{transform:scale(0.000,1)}46.09%,49.83%{transform:scale(0.067,1)}49.85%,52.03%{transform:scale(0.133,1)}52.05%,56.42%{transform:scale(0.200,1)}56.44%,56.73%{transform:scale(0.267,1)}56.75%,61.43%{transform:scale(0.333,1)}61.45%,62.06%{transform:scale(0.400,1)}62.08%,62.37%{transform:scale(0.467,1)}62.39%,63%{transform:scale(0.533,1)}63.02%,63.31%{transform:scale(0.600,1)}63.33%,64.25%{transform:scale(0.667,1)}64.27%,65.19%{transform:scale(0.733,1)}65.21%,65.82%{transform:scale(0.800,1)}65.84%,67.39%{transform:scale(0.867,1)}67.41%,68.02%{transform:scale(0.933,1)}68.04%,100%{transform:scale(1.000,1)}}.u.u1{fill:var(--c2);animation-name:u1;transform-origin:503.1px 0}@keyframes u2{68.96%{transform:scale(0.000,1)}68.98%,71.15%{transform:scale(0.167,1)}71.17%,71.46%{transform:scale(0.333,1)}71.48%,73.03%{transform:scale(0.500,1)}73.05%,74.28%{transform:scale(0.667,1)}74.3%,84.94%{transform:scale(0.833,1)}84.96%,100%{transform:scale(1.000,1)}}.u.u2{fill:var(--c3);animation-name:u2;transform-origin:718.6px 0}@keyframes u3{94.35%{transform:scale(0.000,1)}94.37%,95.6%{transform:scale(0.333,1)}95.62%,97.17%{transform:scale(0.667,1)}97.19%,100%{transform:scale(1.000,1)}}.u.u3{fill:var(--c4);animation-name:u3;transform-origin:804.9px 0}.s{shape-rendering:geometricPrecision;fill:var(--cs);animation:none linear 31900ms infinite}@keyframes s0{0%,99.69%{transform:translate(0px,-16px)}0.31%,97.49%{transform:translate(0px,0px)}1.25%,98.43%{transform:translate(48px,0px)}1.57%,65.52%,96.24%{transform:translate(48px,16px)}2.19%{transform:translate(16px,16px)}3.13%,67.71%{transform:translate(16px,64px)}3.45%{transform:translate(0px,64px)}4.08%{transform:translate(0px,96px)}4.39%{transform:translate(16px,96px)}4.7%{transform:translate(16px,112px)}5.64%{transform:translate(64px,112px)}6.27%{transform:translate(64px,80px)}6.58%,68.65%,94.98%{transform:translate(48px,80px)}6.9%{transform:translate(48px,64px)}7.21%,66.77%{transform:translate(64px,64px)}7.84%,66.14%{transform:translate(64px,32px)}8.46%{transform:translate(96px,32px)}9.09%,61.76%{transform:translate(96px,64px)}10.34%{transform:translate(160px,64px)}10.97%{transform:translate(160px,96px)}14.11%{transform:translate(320px,96px)}15.05%{transform:translate(320px,48px)}15.36%{transform:translate(336px,48px)}15.99%{transform:translate(336px,16px)}16.61%{transform:translate(304px,16px)}16.93%{transform:translate(304px,0px)}19.75%{transform:translate(160px,0px)}20.06%{transform:translate(160px,16px)}26.65%{transform:translate(496px,16px)}26.96%{transform:translate(496px,32px)}27.59%{transform:translate(528px,32px)}28.21%{transform:translate(528px,0px)}28.84%{transform:translate(560px,0px)}29.15%{transform:translate(560px,16px)}29.47%{transform:translate(576px,16px)}30.41%{transform:translate(576px,64px)}31.66%{transform:translate(512px,64px)}31.97%{transform:translate(512px,80px)}33.23%{transform:translate(448px,80px)}33.54%{transform:translate(448px,96px)}34.48%{transform:translate(496px,96px)}34.8%{transform:translate(496px,80px)}36.99%{transform:translate(608px,80px)}37.3%{transform:translate(608px,64px)}39.5%{transform:translate(720px,64px)}39.81%{transform:translate(720px,48px)}40.44%{transform:translate(752px,48px)}41.07%{transform:translate(752px,80px)}42.32%{transform:translate(816px,80px)}43.89%{transform:translate(816px,0px)}45.45%{transform:translate(736px,0px)}46.08%{transform:translate(736px,32px)}49.53%{transform:translate(560px,32px)}49.84%{transform:translate(560px,48px)}50.16%{transform:translate(544px,48px)}51.1%{transform:translate(544px,0px)}55.17%{transform:translate(336px,0px)}56.74%{transform:translate(336px,80px)}61.44%{transform:translate(96px,80px)}62.07%{transform:translate(80px,64px)}63.32%{transform:translate(80px,0px)}63.95%,72.1%{transform:translate(112px,0px)}64.26%{transform:translate(112px,16px)}65.83%{transform:translate(48px,32px)}68.03%{transform:translate(16px,80px)}68.97%{transform:translate(48px,96px)}70.22%{transform:translate(112px,96px)}73.67%{transform:translate(32px,0px)}74.29%{transform:translate(32px,32px)}83.7%{transform:translate(512px,32px)}84.95%{transform:translate(512px,96px)}94.36%{transform:translate(32px,96px)}94.67%{transform:translate(32px,80px)}97.18%{transform:translate(0px,16px)}98.75%{transform:translate(48px,-16px)}}.s.s0{transform:translate(0px,-16px);animation-name:s0}@keyframes s1{0%,99.69%{transform:translate(16px,-16px)}0.31%{transform:translate(0px,-16px)}0.63%,97.81%{transform:translate(0px,0px)}1.57%,98.75%{transform:translate(48px,0px)}1.88%,65.83%,96.55%{transform:translate(48px,16px)}2.51%{transform:translate(16px,16px)}3.45%,68.03%{transform:translate(16px,64px)}3.76%{transform:translate(0px,64px)}4.39%{transform:translate(0px,96px)}4.7%{transform:translate(16px,96px)}5.02%{transform:translate(16px,112px)}5.96%{transform:translate(64px,112px)}6.58%{transform:translate(64px,80px)}6.9%,68.97%,95.3%{transform:translate(48px,80px)}7.21%{transform:translate(48px,64px)}7.52%,67.08%{transform:translate(64px,64px)}8.15%,66.46%{transform:translate(64px,32px)}8.78%{transform:translate(96px,32px)}9.4%,62.07%{transform:translate(96px,64px)}10.66%{transform:translate(160px,64px)}11.29%{transform:translate(160px,96px)}14.42%{transform:translate(320px,96px)}15.36%{transform:translate(320px,48px)}15.67%{transform:translate(336px,48px)}16.3%{transform:translate(336px,16px)}16.93%{transform:translate(304px,16px)}17.24%{transform:translate(304px,0px)}20.06%{transform:translate(160px,0px)}20.38%{transform:translate(160px,16px)}26.96%{transform:translate(496px,16px)}27.27%{transform:translate(496px,32px)}27.9%{transform:translate(528px,32px)}28.53%{transform:translate(528px,0px)}29.15%{transform:translate(560px,0px)}29.47%{transform:translate(560px,16px)}29.78%{transform:translate(576px,16px)}30.72%{transform:translate(576px,64px)}31.97%{transform:translate(512px,64px)}32.29%{transform:translate(512px,80px)}33.54%{transform:translate(448px,80px)}33.86%{transform:translate(448px,96px)}34.8%{transform:translate(496px,96px)}35.11%{transform:translate(496px,80px)}37.3%{transform:translate(608px,80px)}37.62%{transform:translate(608px,64px)}39.81%{transform:translate(720px,64px)}40.13%{transform:translate(720px,48px)}40.75%{transform:translate(752px,48px)}41.38%{transform:translate(752px,80px)}42.63%{transform:translate(816px,80px)}44.2%{transform:translate(816px,0px)}45.77%{transform:translate(736px,0px)}46.39%{transform:translate(736px,32px)}49.84%{transform:translate(560px,32px)}50.16%{transform:translate(560px,48px)}50.47%{transform:translate(544px,48px)}51.41%{transform:translate(544px,0px)}55.49%{transform:translate(336px,0px)}57.05%{transform:translate(336px,80px)}61.76%{transform:translate(96px,80px)}62.38%{transform:translate(80px,64px)}63.64%{transform:translate(80px,0px)}64.26%,72.41%{transform:translate(112px,0px)}64.58%{transform:translate(112px,16px)}66.14%{transform:translate(48px,32px)}68.34%{transform:translate(16px,80px)}69.28%{transform:translate(48px,96px)}70.53%{transform:translate(112px,96px)}73.98%{transform:translate(32px,0px)}74.61%{transform:translate(32px,32px)}84.01%{transform:translate(512px,32px)}85.27%{transform:translate(512px,96px)}94.67%{transform:translate(32px,96px)}94.98%{transform:translate(32px,80px)}97.49%{transform:translate(0px,16px)}99.06%{transform:translate(48px,-16px)}}.s.s1{transform:translate(16px,-16px);animation-name:s1}@keyframes s2{0%,99.69%{transform:translate(32px,-16px)}0.63%{transform:translate(0px,-16px)}0.94%,98.12%{transform:translate(0px,0px)}1.88%,99.06%{transform:translate(48px,0px)}2.19%,66.14%,96.87%{transform:translate(48px,16px)}2.82%{transform:translate(16px,16px)}3.76%,68.34%{transform:translate(16px,64px)}4.08%{transform:translate(0px,64px)}4.7%{transform:translate(0px,96px)}5.02%{transform:translate(16px,96px)}5.33%{transform:translate(16px,112px)}6.27%{transform:translate(64px,112px)}6.9%{transform:translate(64px,80px)}7.21%,69.28%,95.61%{transform:translate(48px,80px)}7.52%{transform:translate(48px,64px)}7.84%,67.4%{transform:translate(64px,64px)}8.46%,66.77%{transform:translate(64px,32px)}9.09%{transform:translate(96px,32px)}9.72%,62.38%{transform:translate(96px,64px)}10.97%{transform:translate(160px,64px)}11.6%{transform:translate(160px,96px)}14.73%{transform:translate(320px,96px)}15.67%{transform:translate(320px,48px)}15.99%{transform:translate(336px,48px)}16.61%{transform:translate(336px,16px)}17.24%{transform:translate(304px,16px)}17.55%{transform:translate(304px,0px)}20.38%{transform:translate(160px,0px)}20.69%{transform:translate(160px,16px)}27.27%{transform:translate(496px,16px)}27.59%{transform:translate(496px,32px)}28.21%{transform:translate(528px,32px)}28.84%{transform:translate(528px,0px)}29.47%{transform:translate(560px,0px)}29.78%{transform:translate(560px,16px)}30.09%{transform:translate(576px,16px)}31.03%{transform:translate(576px,64px)}32.29%{transform:translate(512px,64px)}32.6%{transform:translate(512px,80px)}33.86%{transform:translate(448px,80px)}34.17%{transform:translate(448px,96px)}35.11%{transform:translate(496px,96px)}35.42%{transform:translate(496px,80px)}37.62%{transform:translate(608px,80px)}37.93%{transform:translate(608px,64px)}40.13%{transform:translate(720px,64px)}40.44%{transform:translate(720px,48px)}41.07%{transform:translate(752px,48px)}41.69%{transform:translate(752px,80px)}42.95%{transform:translate(816px,80px)}44.51%{transform:translate(816px,0px)}46.08%{transform:translate(736px,0px)}46.71%{transform:translate(736px,32px)}50.16%{transform:translate(560px,32px)}50.47%{transform:translate(560px,48px)}50.78%{transform:translate(544px,48px)}51.72%{transform:translate(544px,0px)}55.8%{transform:translate(336px,0px)}57.37%{transform:translate(336px,80px)}62.07%{transform:translate(96px,80px)}62.7%{transform:translate(80px,64px)}63.95%{transform:translate(80px,0px)}64.58%,72.73%{transform:translate(112px,0px)}64.89%{transform:translate(112px,16px)}66.46%{transform:translate(48px,32px)}68.65%{transform:translate(16px,80px)}69.59%{transform:translate(48px,96px)}70.85%{transform:translate(112px,96px)}74.29%{transform:translate(32px,0px)}74.92%{transform:translate(32px,32px)}84.33%{transform:translate(512px,32px)}85.58%{transform:translate(512px,96px)}94.98%{transform:translate(32px,96px)}95.3%{transform:translate(32px,80px)}97.81%{transform:translate(0px,16px)}99.37%{transform:translate(48px,-16px)}}.s.s2{transform:translate(32px,-16px);animation-name:s2}@keyframes s3{0%,99.69%{transform:translate(48px,-16px)}0.94%{transform:translate(0px,-16px)}1.25%,98.43%{transform:translate(0px,0px)}2.19%,99.37%{transform:translate(48px,0px)}2.51%,66.46%,97.18%{transform:translate(48px,16px)}3.13%{transform:translate(16px,16px)}4.08%,68.65%{transform:translate(16px,64px)}4.39%{transform:translate(0px,64px)}5.02%{transform:translate(0px,96px)}5.33%{transform:translate(16px,96px)}5.64%{transform:translate(16px,112px)}6.58%{transform:translate(64px,112px)}7.21%{transform:translate(64px,80px)}7.52%,69.59%,95.92%{transform:translate(48px,80px)}7.84%{transform:translate(48px,64px)}8.15%,67.71%{transform:translate(64px,64px)}8.78%,67.08%{transform:translate(64px,32px)}9.4%{transform:translate(96px,32px)}10.03%,62.7%{transform:translate(96px,64px)}11.29%{transform:translate(160px,64px)}11.91%{transform:translate(160px,96px)}15.05%{transform:translate(320px,96px)}15.99%{transform:translate(320px,48px)}16.3%{transform:translate(336px,48px)}16.93%{transform:translate(336px,16px)}17.55%{transform:translate(304px,16px)}17.87%{transform:translate(304px,0px)}20.69%{transform:translate(160px,0px)}21%{transform:translate(160px,16px)}27.59%{transform:translate(496px,16px)}27.9%{transform:translate(496px,32px)}28.53%{transform:translate(528px,32px)}29.15%{transform:translate(528px,0px)}29.78%{transform:translate(560px,0px)}30.09%{transform:translate(560px,16px)}30.41%{transform:translate(576px,16px)}31.35%{transform:translate(576px,64px)}32.6%{transform:translate(512px,64px)}32.92%{transform:translate(512px,80px)}34.17%{transform:translate(448px,80px)}34.48%{transform:translate(448px,96px)}35.42%{transform:translate(496px,96px)}35.74%{transform:translate(496px,80px)}37.93%{transform:translate(608px,80px)}38.24%{transform:translate(608px,64px)}40.44%{transform:translate(720px,64px)}40.75%{transform:translate(720px,48px)}41.38%{transform:translate(752px,48px)}42.01%{transform:translate(752px,80px)}43.26%{transform:translate(816px,80px)}44.83%{transform:translate(816px,0px)}46.39%{transform:translate(736px,0px)}47.02%{transform:translate(736px,32px)}50.47%{transform:translate(560px,32px)}50.78%{transform:translate(560px,48px)}51.1%{transform:translate(544px,48px)}52.04%{transform:translate(544px,0px)}56.11%{transform:translate(336px,0px)}57.68%{transform:translate(336px,80px)}62.38%{transform:translate(96px,80px)}63.01%{transform:translate(80px,64px)}64.26%{transform:translate(80px,0px)}64.89%,73.04%{transform:translate(112px,0px)}65.2%{transform:translate(112px,16px)}66.77%{transform:translate(48px,32px)}68.97%{transform:translate(16px,80px)}69.91%{transform:translate(48px,96px)}71.16%{transform:translate(112px,96px)}74.61%{transform:translate(32px,0px)}75.24%{transform:translate(32px,32px)}84.64%{transform:translate(512px,32px)}85.89%{transform:translate(512px,96px)}95.3%{transform:translate(32px,96px)}95.61%{transform:translate(32px,80px)}98.12%{transform:translate(0px,16px)}}.s.s3{transform:translate(48px,-16px);animation-name:s3}</style><rect class="c" x="2" y="2" rx="2" ry="2"/><rect class="c c0" x="2" y="18" rx="2" ry="2"/><rect class="c" x="2" y="34" rx="2" ry="2"/><rect class="c" x="2" y="50" rx="2" ry="2"/><rect class="c" x="2" y="66" rx="2" ry="2"/><rect class="c" x="2" y="82" rx="2" ry="2"/><rect class="c" x="2" y="98" rx="2" ry="2"/><rect class="c" x="18" y="2" rx="2" ry="2"/><rect class="c" x="18" y="18" rx="2" ry="2"/><rect class="c" x="18" y="34" rx="2" ry="2"/><rect class="c" x="18" y="50" rx="2" ry="2"/><rect class="c c1" x="18" y="66" rx="2" ry="2"/><rect class="c c2" x="18" y="82" rx="2" ry="2"/><rect class="c c3" x="18" y="98" rx="2" ry="2"/><rect class="c" x="34" y="2" rx="2" ry="2"/><rect class="c" x="34" y="18" rx="2" ry="2"/><rect class="c c4" x="34" y="34" rx="2" ry="2"/><rect class="c" x="34" y="50" rx="2" ry="2"/><rect class="c c5" x="34" y="66" rx="2" ry="2"/><rect class="c" x="34" y="82" rx="2" ry="2"/><rect class="c c6" x="34" y="98" rx="2" ry="2"/><rect class="c" x="50" y="2" rx="2" ry="2"/><rect class="c c7" x="50" y="18" rx="2" ry="2"/><rect class="c c8" x="50" y="34" rx="2" ry="2"/><rect class="c c9" x="50" y="50" rx="2" ry="2"/><rect class="c ca" x="50" y="66" rx="2" ry="2"/><rect class="c cb" x="50" y="82" rx="2" ry="2"/><rect class="c cc" x="50" y="98" rx="2" ry="2"/><rect class="c cd" x="66" y="2" rx="2" ry="2"/><rect class="c ce" x="66" y="18" rx="2" ry="2"/><rect class="c" x="66" y="34" rx="2" ry="2"/><rect class="c" x="66" y="50" rx="2" ry="2"/><rect class="c" x="66" y="66" rx="2" ry="2"/><rect class="c" x="66" y="82" rx="2" ry="2"/><rect class="c cf" x="66" y="98" rx="2" ry="2"/><rect class="c cg" x="82" y="2" rx="2" ry="2"/><rect class="c ch" x="82" y="18" rx="2" ry="2"/><rect class="c" x="82" y="34" rx="2" ry="2"/><rect class="c ci" x="82" y="50" rx="2" ry="2"/><rect class="c cj" x="82" y="66" rx="2" ry="2"/><rect class="c" x="82" y="82" rx="2" ry="2"/><rect class="c" x="82" y="98" rx="2" ry="2"/><rect class="c" x="98" y="2" rx="2" ry="2"/><rect class="c" x="98" y="18" rx="2" ry="2"/><rect class="c" x="98" y="34" rx="2" ry="2"/><rect class="c" x="98" y="50" rx="2" ry="2"/><rect class="c" x="98" y="66" rx="2" ry="2"/><rect class="c ck" x="98" y="82" rx="2" ry="2"/><rect class="c" x="98" y="98" rx="2" ry="2"/><rect class="c" x="114" y="2" rx="2" ry="2"/><rect class="c cl" x="114" y="18" rx="2" ry="2"/><rect class="c cm" x="114" y="34" rx="2" ry="2"/><rect class="c cn" x="114" y="50" rx="2" ry="2"/><rect class="c co" x="114" y="66" rx="2" ry="2"/><rect class="c" x="114" y="82" rx="2" ry="2"/><rect class="c" x="114" y="98" rx="2" ry="2"/><rect class="c" x="130" y="2" rx="2" ry="2"/><rect class="c" x="130" y="18" rx="2" ry="2"/><rect class="c" x="130" y="34" rx="2" ry="2"/><rect class="c" x="130" y="50" rx="2" ry="2"/><rect class="c" x="130" y="66" rx="2" ry="2"/><rect class="c" x="130" y="82" rx="2" ry="2"/><rect class="c" x="130" y="98" rx="2" ry="2"/><rect class="c" x="146" y="2" rx="2" ry="2"/><rect class="c" x="146" y="18" rx="2" ry="2"/><rect class="c" x="146" y="34" rx="2" ry="2"/><rect class="c" x="146" y="50" rx="2" ry="2"/><rect class="c" x="146" y="66" rx="2" ry="2"/><rect class="c" x="146" y="82" rx="2" ry="2"/><rect class="c" x="146" y="98" rx="2" ry="2"/><rect class="c cp" x="162" y="2" rx="2" ry="2"/><rect class="c" x="162" y="18" rx="2" ry="2"/><rect class="c" x="162" y="34" rx="2" ry="2"/><rect class="c" x="162" y="50" rx="2" ry="2"/><rect class="c" x="162" y="66" rx="2" ry="2"/><rect class="c cq" x="162" y="82" rx="2" ry="2"/><rect class="c cr" x="162" y="98" rx="2" ry="2"/><rect class="c cs" x="178" y="2" rx="2" ry="2"/><rect class="c" x="178" y="18" rx="2" ry="2"/><rect class="c" x="178" y="34" rx="2" ry="2"/><rect class="c" x="178" y="50" rx="2" ry="2"/><rect class="c" x="178" y="66" rx="2" ry="2"/><rect class="c" x="178" y="82" rx="2" ry="2"/><rect class="c ct" x="178" y="98" rx="2" ry="2"/><rect class="c" x="194" y="2" rx="2" ry="2"/><rect class="c" x="194" y="18" rx="2" ry="2"/><rect class="c" x="194" y="34" rx="2" ry="2"/><rect class="c" x="194" y="50" rx="2" ry="2"/><rect class="c" x="194" y="66" rx="2" ry="2"/><rect class="c" x="194" y="82" rx="2" ry="2"/><rect class="c" x="194" y="98" rx="2" ry="2"/><rect class="c" x="210" y="2" rx="2" ry="2"/><rect class="c" x="210" y="18" rx="2" ry="2"/><rect class="c" x="210" y="34" rx="2" ry="2"/><rect class="c" x="210" y="50" rx="2" ry="2"/><rect class="c" x="210" y="66" rx="2" ry="2"/><rect class="c" x="210" y="82" rx="2" ry="2"/><rect class="c" x="210" y="98" rx="2" ry="2"/><rect class="c" x="226" y="2" rx="2" ry="2"/><rect class="c" x="226" y="18" rx="2" ry="2"/><rect class="c" x="226" y="34" rx="2" ry="2"/><rect class="c" x="226" y="50" rx="2" ry="2"/><rect class="c" x="226" y="66" rx="2" ry="2"/><rect class="c" x="226" y="82" rx="2" ry="2"/><rect class="c" x="226" y="98" rx="2" ry="2"/><rect class="c" x="242" y="2" rx="2" ry="2"/><rect class="c" x="242" y="18" rx="2" ry="2"/><rect class="c" x="242" y="34" rx="2" ry="2"/><rect class="c" x="242" y="50" rx="2" ry="2"/><rect class="c" x="242" y="66" rx="2" ry="2"/><rect class="c" x="242" y="82" rx="2" ry="2"/><rect class="c cu" x="242" y="98" rx="2" ry="2"/><rect class="c" x="258" y="2" rx="2" ry="2"/><rect class="c" x="258" y="18" rx="2" ry="2"/><rect class="c" x="258" y="34" rx="2" ry="2"/><rect class="c" x="258" y="50" rx="2" ry="2"/><rect class="c" x="258" y="66" rx="2" ry="2"/><rect class="c" x="258" y="82" rx="2" ry="2"/><rect class="c" x="258" y="98" rx="2" ry="2"/><rect class="c" x="274" y="2" rx="2" ry="2"/><rect class="c" x="274" y="18" rx="2" ry="2"/><rect class="c" x="274" y="34" rx="2" ry="2"/><rect class="c" x="274" y="50" rx="2" ry="2"/><rect class="c" x="274" y="66" rx="2" ry="2"/><rect class="c" x="274" y="82" rx="2" ry="2"/><rect class="c" x="274" y="98" rx="2" ry="2"/><rect class="c" x="290" y="2" rx="2" ry="2"/><rect class="c" x="290" y="18" rx="2" ry="2"/><rect class="c" x="290" y="34" rx="2" ry="2"/><rect class="c" x="290" y="50" rx="2" ry="2"/><rect class="c" x="290" y="66" rx="2" ry="2"/><rect class="c" x="290" y="82" rx="2" ry="2"/><rect class="c" x="290" y="98" rx="2" ry="2"/><rect class="c" x="306" y="2" rx="2" ry="2"/><rect class="c cv" x="306" y="18" rx="2" ry="2"/><rect class="c" x="306" y="34" rx="2" ry="2"/><rect class="c" x="306" y="50" rx="2" ry="2"/><rect class="c" x="306" y="66" rx="2" ry="2"/><rect class="c" x="306" y="82" rx="2" ry="2"/><rect class="c" x="306" y="98" rx="2" ry="2"/><rect class="c" x="322" y="2" rx="2" ry="2"/><rect class="c" x="322" y="18" rx="2" ry="2"/><rect class="c" x="322" y="34" rx="2" ry="2"/><rect class="c cw" x="322" y="50" rx="2" ry="2"/><rect class="c" x="322" y="66" rx="2" ry="2"/><rect class="c" x="322" y="82" rx="2" ry="2"/><rect class="c" x="322" y="98" rx="2" ry="2"/><rect class="c" x="338" y="2" rx="2" ry="2"/><rect class="c" x="338" y="18" rx="2" ry="2"/><rect class="c cx" x="338" y="34" rx="2" ry="2"/><rect class="c" x="338" y="50" rx="2" ry="2"/><rect class="c cy" x="338" y="66" rx="2" ry="2"/><rect class="c cz" x="338" y="82" rx="2" ry="2"/><rect class="c" x="338" y="98" rx="2" ry="2"/><rect class="c" x="354" y="2" rx="2" ry="2"/><rect class="c" x="354" y="18" rx="2" ry="2"/><rect class="c" x="354" y="34" rx="2" ry="2"/><rect class="c" x="354" y="50" rx="2" ry="2"/><rect class="c" x="354" y="66" rx="2" ry="2"/><rect class="c" x="354" y="82" rx="2" ry="2"/><rect class="c" x="354" y="98" rx="2" ry="2"/><rect class="c" x="370" y="2" rx="2" ry="2"/><rect class="c" x="370" y="18" rx="2" ry="2"/><rect class="c" x="370" y="34" rx="2" ry="2"/><rect class="c" x="370" y="50" rx="2" ry="2"/><rect class="c" x="370" y="66" rx="2" ry="2"/><rect class="c" x="370" y="82" rx="2" ry="2"/><rect class="c" x="370" y="98" rx="2" ry="2"/><rect class="c" x="386" y="2" rx="2" ry="2"/><rect class="c" x="386" y="18" rx="2" ry="2"/><rect class="c" x="386" y="34" rx="2" ry="2"/><rect class="c" x="386" y="50" rx="2" ry="2"/><rect class="c" x="386" y="66" rx="2" ry="2"/><rect class="c" x="386" y="82" rx="2" ry="2"/><rect class="c" x="386" y="98" rx="2" ry="2"/><rect class="c" x="402" y="2" rx="2" ry="2"/><rect class="c" x="402" y="18" rx="2" ry="2"/><rect class="c" x="402" y="34" rx="2" ry="2"/><rect class="c" x="402" y="50" rx="2" ry="2"/><rect class="c" x="402" y="66" rx="2" ry="2"/><rect class="c" x="402" y="82" rx="2" ry="2"/><rect class="c" x="402" y="98" rx="2" ry="2"/><rect class="c" x="418" y="2" rx="2" ry="2"/><rect class="c" x="418" y="18" rx="2" ry="2"/><rect class="c" x="418" y="34" rx="2" ry="2"/><rect class="c" x="418" y="50" rx="2" ry="2"/><rect class="c" x="418" y="66" rx="2" ry="2"/><rect class="c" x="418" y="82" rx="2" ry="2"/><rect class="c" x="418" y="98" rx="2" ry="2"/><rect class="c" x="434" y="2" rx="2" ry="2"/><rect class="c" x="434" y="18" rx="2" ry="2"/><rect class="c" x="434" y="34" rx="2" ry="2"/><rect class="c" x="434" y="50" rx="2" ry="2"/><rect class="c" x="434" y="66" rx="2" ry="2"/><rect class="c" x="434" y="82" rx="2" ry="2"/><rect class="c" x="434" y="98" rx="2" ry="2"/><rect class="c" x="450" y="2" rx="2" ry="2"/><rect class="c" x="450" y="18" rx="2" ry="2"/><rect class="c" x="450" y="34" rx="2" ry="2"/><rect class="c" x="450" y="50" rx="2" ry="2"/><rect class="c" x="450" y="66" rx="2" ry="2"/><rect class="c" x="450" y="82" rx="2" ry="2"/><rect class="c c10" x="450" y="98" rx="2" ry="2"/><rect class="c" x="466" y="2" rx="2" ry="2"/><rect class="c" x="466" y="18" rx="2" ry="2"/><rect class="c" x="466" y="34" rx="2" ry="2"/><rect class="c" x="466" y="50" rx="2" ry="2"/><rect class="c" x="466" y="66" rx="2" ry="2"/><rect class="c" x="466" y="82" rx="2" ry="2"/><rect class="c" x="466" y="98" rx="2" ry="2"/><rect class="c" x="482" y="2" rx="2" ry="2"/><rect class="c" x="482" y="18" rx="2" ry="2"/><rect class="c" x="482" y="34" rx="2" ry="2"/><rect class="c" x="482" y="50" rx="2" ry="2"/><rect class="c" x="482" y="66" rx="2" ry="2"/><rect class="c" x="482" y="82" rx="2" ry="2"/><rect class="c" x="482" y="98" rx="2" ry="2"/><rect class="c c11" x="498" y="2" rx="2" ry="2"/><rect class="c" x="498" y="18" rx="2" ry="2"/><rect class="c c12" x="498" y="34" rx="2" ry="2"/><rect class="c" x="498" y="50" rx="2" ry="2"/><rect class="c" x="498" y="66" rx="2" ry="2"/><rect class="c" x="498" y="82" rx="2" ry="2"/><rect class="c" x="498" y="98" rx="2" ry="2"/><rect class="c" x="514" y="2" rx="2" ry="2"/><rect class="c" x="514" y="18" rx="2" ry="2"/><rect class="c" x="514" y="34" rx="2" ry="2"/><rect class="c" x="514" y="50" rx="2" ry="2"/><rect class="c" x="514" y="66" rx="2" ry="2"/><rect class="c c13" x="514" y="82" rx="2" ry="2"/><rect class="c c14" x="514" y="98" rx="2" ry="2"/><rect class="c c15" x="530" y="2" rx="2" ry="2"/><rect class="c c16" x="530" y="18" rx="2" ry="2"/><rect class="c" x="530" y="34" rx="2" ry="2"/><rect class="c" x="530" y="50" rx="2" ry="2"/><rect class="c" x="530" y="66" rx="2" ry="2"/><rect class="c" x="530" y="82" rx="2" ry="2"/><rect class="c" x="530" y="98" rx="2" ry="2"/><rect class="c" x="546" y="2" rx="2" ry="2"/><rect class="c" x="546" y="18" rx="2" ry="2"/><rect class="c" x="546" y="34" rx="2" ry="2"/><rect class="c" x="546" y="50" rx="2" ry="2"/><rect class="c" x="546" y="66" rx="2" ry="2"/><rect class="c" x="546" y="82" rx="2" ry="2"/><rect class="c" x="546" y="98" rx="2" ry="2"/><rect class="c c17" x="562" y="2" rx="2" ry="2"/><rect class="c c18" x="562" y="18" rx="2" ry="2"/><rect class="c" x="562" y="34" rx="2" ry="2"/><rect class="c c19" x="562" y="50" rx="2" ry="2"/><rect class="c c1a" x="562" y="66" rx="2" ry="2"/><rect class="c" x="562" y="82" rx="2" ry="2"/><rect class="c" x="562" y="98" rx="2" ry="2"/><rect class="c" x="578" y="2" rx="2" ry="2"/><rect class="c" x="578" y="18" rx="2" ry="2"/><rect class="c" x="578" y="34" rx="2" ry="2"/><rect class="c" x="578" y="50" rx="2" ry="2"/><rect class="c" x="578" y="66" rx="2" ry="2"/><rect class="c" x="578" y="82" rx="2" ry="2"/><rect class="c" x="578" y="98" rx="2" ry="2"/><rect class="c" x="594" y="2" rx="2" ry="2"/><rect class="c" x="594" y="18" rx="2" ry="2"/><rect class="c" x="594" y="34" rx="2" ry="2"/><rect class="c" x="594" y="50" rx="2" ry="2"/><rect class="c" x="594" y="66" rx="2" ry="2"/><rect class="c" x="594" y="82" rx="2" ry="2"/><rect class="c" x="594" y="98" rx="2" ry="2"/><rect class="c" x="610" y="2" rx="2" ry="2"/><rect class="c" x="610" y="18" rx="2" ry="2"/><rect class="c" x="610" y="34" rx="2" ry="2"/><rect class="c" x="610" y="50" rx="2" ry="2"/><rect class="c c1b" x="610" y="66" rx="2" ry="2"/><rect class="c c1c" x="610" y="82" rx="2" ry="2"/><rect class="c" x="610" y="98" rx="2" ry="2"/><rect class="c" x="626" y="2" rx="2" ry="2"/><rect class="c" x="626" y="18" rx="2" ry="2"/><rect class="c" x="626" y="34" rx="2" ry="2"/><rect class="c" x="626" y="50" rx="2" ry="2"/><rect class="c" x="626" y="66" rx="2" ry="2"/><rect class="c" x="626" y="82" rx="2" ry="2"/><rect class="c" x="626" y="98" rx="2" ry="2"/><rect class="c" x="642" y="2" rx="2" ry="2"/><rect class="c" x="642" y="18" rx="2" ry="2"/><rect class="c" x="642" y="34" rx="2" ry="2"/><rect class="c" x="642" y="50" rx="2" ry="2"/><rect class="c" x="642" y="66" rx="2" ry="2"/><rect class="c" x="642" y="82" rx="2" ry="2"/><rect class="c" x="642" y="98" rx="2" ry="2"/><rect class="c" x="658" y="2" rx="2" ry="2"/><rect class="c" x="658" y="18" rx="2" ry="2"/><rect class="c" x="658" y="34" rx="2" ry="2"/><rect class="c" x="658" y="50" rx="2" ry="2"/><rect class="c" x="658" y="66" rx="2" ry="2"/><rect class="c" x="658" y="82" rx="2" ry="2"/><rect class="c" x="658" y="98" rx="2" ry="2"/><rect class="c" x="674" y="2" rx="2" ry="2"/><rect class="c" x="674" y="18" rx="2" ry="2"/><rect class="c" x="674" y="34" rx="2" ry="2"/><rect class="c" x="674" y="50" rx="2" ry="2"/><rect class="c" x="674" y="66" rx="2" ry="2"/><rect class="c" x="674" y="82" rx="2" ry="2"/><rect class="c" x="674" y="98" rx="2" ry="2"/><rect class="c" x="690" y="2" rx="2" ry="2"/><rect class="c" x="690" y="18" rx="2" ry="2"/><rect class="c" x="690" y="34" rx="2" ry="2"/><rect class="c" x="690" y="50" rx="2" ry="2"/><rect class="c" x="690" y="66" rx="2" ry="2"/><rect class="c" x="690" y="82" rx="2" ry="2"/><rect class="c" x="690" y="98" rx="2" ry="2"/><rect class="c" x="706" y="2" rx="2" ry="2"/><rect class="c" x="706" y="18" rx="2" ry="2"/><rect class="c" x="706" y="34" rx="2" ry="2"/><rect class="c" x="706" y="50" rx="2" ry="2"/><rect class="c" x="706" y="66" rx="2" ry="2"/><rect class="c" x="706" y="82" rx="2" ry="2"/><rect class="c" x="706" y="98" rx="2" ry="2"/><rect class="c" x="722" y="2" rx="2" ry="2"/><rect class="c" x="722" y="18" rx="2" ry="2"/><rect class="c" x="722" y="34" rx="2" ry="2"/><rect class="c c1d" x="722" y="50" rx="2" ry="2"/><rect class="c" x="722" y="66" rx="2" ry="2"/><rect class="c" x="722" y="82" rx="2" ry="2"/><rect class="c" x="722" y="98" rx="2" ry="2"/><rect class="c" x="738" y="2" rx="2" ry="2"/><rect class="c" x="738" y="18" rx="2" ry="2"/><rect class="c c1e" x="738" y="34" rx="2" ry="2"/><rect class="c c1f" x="738" y="50" rx="2" ry="2"/><rect class="c" x="738" y="66" rx="2" ry="2"/><rect class="c" x="738" y="82" rx="2" ry="2"/><rect class="c" x="738" y="98" rx="2" ry="2"/><rect class="c" x="754" y="2" rx="2" ry="2"/><rect class="c" x="754" y="18" rx="2" ry="2"/><rect class="c" x="754" y="34" rx="2" ry="2"/><rect class="c" x="754" y="50" rx="2" ry="2"/><rect class="c" x="754" y="66" rx="2" ry="2"/><rect class="c c1g" x="754" y="82" rx="2" ry="2"/><rect class="c" x="754" y="98" rx="2" ry="2"/><rect class="c" x="770" y="2" rx="2" ry="2"/><rect class="c" x="770" y="18" rx="2" ry="2"/><rect class="c" x="770" y="34" rx="2" ry="2"/><rect class="c" x="770" y="50" rx="2" ry="2"/><rect class="c" x="770" y="66" rx="2" ry="2"/><rect class="c" x="770" y="82" rx="2" ry="2"/><rect class="c" x="770" y="98" rx="2" ry="2"/><rect class="c" x="786" y="2" rx="2" ry="2"/><rect class="c" x="786" y="18" rx="2" ry="2"/><rect class="c" x="786" y="34" rx="2" ry="2"/><rect class="c" x="786" y="50" rx="2" ry="2"/><rect class="c" x="786" y="66" rx="2" ry="2"/><rect class="c c1h" x="786" y="82" rx="2" ry="2"/><rect class="c" x="786" y="98" rx="2" ry="2"/><rect class="c c1i" x="802" y="2" rx="2" ry="2"/><rect class="c" x="802" y="18" rx="2" ry="2"/><rect class="c" x="802" y="34" rx="2" ry="2"/><rect class="c" x="802" y="50" rx="2" ry="2"/><rect class="c" x="802" y="66" rx="2" ry="2"/><rect class="c c1j" x="802" y="82" rx="2" ry="2"/><rect class="c" x="802" y="98" rx="2" ry="2"/><rect class="c c1k" x="818" y="2" rx="2" ry="2"/><rect class="c c1l" x="818" y="18" rx="2" ry="2"/><rect class="c" x="818" y="34" rx="2" ry="2"/><rect class="c c1m" x="818" y="50" rx="2" ry="2"/><rect class="c" x="818" y="66" rx="2" ry="2"/><rect class="c" x="818" y="82" rx="2" ry="2"/><rect class="c" x="818" y="98" rx="2" ry="2"/><rect class="c" x="834" y="2" rx="2" ry="2"/><rect class="c" x="834" y="18" rx="2" ry="2"/><rect class="u u0" height="12" width="503.7" x="0.0" y="144"/><rect class="u u1" height="12" width="216.2" x="503.1" y="144"/><rect class="u u2" height="12" width="86.8" x="718.6" y="144"/><rect class="u u3" height="12" width="43.7" x="804.9" y="144"/><rect class="s s0" x="0.8" y="0.8" width="14.4" height="14.4" rx="4.5" ry="4.5"/><rect class="s s1" x="1.8" y="1.8" width="12.3" height="12.3" rx="4.1" ry="4.1"/><rect class="s s2" x="2.6" y="2.6" width="10.8" height="10.8" rx="3.6" ry="3.6"/><rect class="s s3" x="3.0" y="3.0" width="9.9" height="9.9" rx="3.3" ry="3.3"/></svg>