<svg viewBox="-16 -32 880 192" width="880" height="192" xmlns="http://www.w3.org/2000/svg"><desc>Generated with https://github.com/Platane/snk</desc><style>:root{--cb:#1b1f230a;--cs:white;--ce:#0a0e12;--c0:#0a0e12;--c1:#1445a2;--c2:#1d65ee;--c3:#1f4eff;--c4:#466dff}.c{shape-rendering:geometricPrecision;fill:var(--ce);stroke-width:1px;stroke:var(--cb);animation:none 36500ms linear infinite;width:12px;height:12px}@keyframes c0{0.26%{fill:var(--c1)}0.28%,100%{fill:var(--ce)}}.c.c0{fill:var(--c1);animation-name:c0}@keyframes c1{69.03%{fill:var(--c2)}69.05%,100%{fill:var(--ce)}}.c.c1{fill:var(--c2);animation-name:c1}@keyframes c2{2.18%{fill:var(--c1)}2.2%,100%{fill:var(--ce)}}.c.c2{fill:var(--c1);animation-name:c2}@keyframes c3{2.73%{fill:var(--c1)}2.75%,100%{fill:var(--ce)}}.c.c3{fill:var(--c1);animation-name:c3}@keyframes c4{0.81%{fill:var(--c1)}0.83%,100%{fill:var(--ce)}}.c.c4{fill:var(--c1);animation-name:c4}@keyframes c5{1.63%{fill:var(--c1)}1.65%,100%{fill:var(--ce)}}.c.c5{fill:var(--c1);animation-name:c5}@keyframes c6{1.09%{fill:var(--c1)}1.11%,100%{fill:var(--ce)}}.c.c6{fill:var(--c1);animation-name:c6}@keyframes c7{67.39%{fill:var(--c2)}67.41%,100%{fill:var(--ce)}}.c.c7{fill:var(--c2);animation-name:c7}@keyframes c8{3.55%{fill:var(--c1)}3.57%,100%{fill:var(--ce)}}.c.c8{fill:var(--c1);animation-name:c8}@keyframes c9{4.1%{fill:var(--c1)}4.12%,100%{fill:var(--ce)}}.c.c9{fill:var(--c1);animation-name:c9}@keyframes ca{27.66%{fill:var(--c1)}27.68%,100%{fill:var(--ce)}}.c.ca{fill:var(--c1);animation-name:ca}@keyframes cb{4.37%{fill:var(--c1)}4.39%,100%{fill:var(--ce)}}.c.cb{fill:var(--c1);animation-name:cb}@keyframes cc{5.47%{fill:var(--c1)}5.49%,100%{fill:var(--ce)}}.c.cc{fill:var(--c1);animation-name:cc}@keyframes cd{4.65%{fill:var(--c1)}4.67%,100%{fill:var(--ce)}}.c.cd{fill:var(--c1);animation-name:cd}@keyframes ce{97.8%{fill:var(--c4)}97.82%,100%{fill:var(--ce)}}.c.ce{fill:var(--c4);animation-name:ce}@keyframes cf{26.84%{fill:var(--c1)}26.86%,100%{fill:var(--ce)}}.c.cf{fill:var(--c1);animation-name:cf}@keyframes cg{5.2%{fill:var(--c1)}5.22%,100%{fill:var(--ce)}}.c.cg{fill:var(--c1);animation-name:cg}@keyframes ch{4.92%{fill:var(--c1)}4.94%,100%{fill:var(--ce)}}.c.ch{fill:var(--c1);animation-name:ch}@keyframes ci{71.5%{fill:var(--c3)}71.52%,100%{fill:var(--ce)}}.c.ci{fill:var(--c3);animation-name:ci}@keyframes cj{6.29%{fill:var(--c1)}6.31%,100%{fill:var(--ce)}}.c.cj{fill:var(--c1);animation-name:cj}@keyframes ck{8.21%{fill:var(--c1)}8.23%,100%{fill:var(--ce)}}.c.ck{fill:var(--c1);animation-name:ck}@keyframes cl{96.98%{fill:var(--c4)}97%,100%{fill:var(--ce)}}.c.cl{fill:var(--c4);animation-name:cl}@keyframes cm{7.11%{fill:var(--c1)}7.13%,100%{fill:var(--ce)}}.c.cm{fill:var(--c1);animation-name:cm}@keyframes cn{65.47%{fill:var(--c2)}65.49%,100%{fill:var(--ce)}}.c.cn{fill:var(--c2);animation-name:cn}@keyframes co{8.76%{fill:var(--c1)}8.78%,100%{fill:var(--ce)}}.c.co{fill:var(--c1);animation-name:co}@keyframes cp{72.59%{fill:var(--c3)}72.61%,100%{fill:var(--ce)}}.c.cp{fill:var(--c3);animation-name:cp}@keyframes cq{64.92%{fill:var(--c2)}64.94%,100%{fill:var(--ce)}}.c.cq{fill:var(--c2);animation-name:cq}@keyframes cr{95.06%{fill:var(--c4)}95.08%,100%{fill:var(--ce)}}.c.cr{fill:var(--c4);animation-name:cr}@keyframes cs{24.92%{fill:var(--c1)}24.94%,100%{fill:var(--ce)}}.c.cs{fill:var(--c1);animation-name:cs}@keyframes ct{63.55%{fill:var(--c2)}63.57%,100%{fill:var(--ce)}}.c.ct{fill:var(--c2);animation-name:ct}@keyframes cu{93.96%{fill:var(--c4)}93.98%,100%{fill:var(--ce)}}.c.cu{fill:var(--c4);animation-name:cu}@keyframes cv{10.95%{fill:var(--c1)}10.97%,100%{fill:var(--ce)}}.c.cv{fill:var(--c1);animation-name:cv}@keyframes cw{10.67%{fill:var(--c1)}10.69%,100%{fill:var(--ce)}}.c.cw{fill:var(--c1);animation-name:cw}@keyframes cx{77.25%{fill:var(--c3)}77.27%,100%{fill:var(--ce)}}.c.cx{fill:var(--c3);animation-name:cx}@keyframes cy{73.69%{fill:var(--c3)}73.71%,100%{fill:var(--ce)}}.c.cy{fill:var(--c3);animation-name:cy}@keyframes cz{63%{fill:var(--c2)}63.02%,100%{fill:var(--ce)}}.c.cz{fill:var(--c2);animation-name:cz}@keyframes c10{10.13%{fill:var(--c1)}10.15%,100%{fill:var(--ce)}}.c.c10{fill:var(--c1);animation-name:c10}@keyframes c11{61.36%{fill:var(--c2)}61.38%,100%{fill:var(--ce)}}.c.c11{fill:var(--c2);animation-name:c11}@keyframes c12{61.09%{fill:var(--c2)}61.11%,100%{fill:var(--ce)}}.c.c12{fill:var(--c2);animation-name:c12}@keyframes c13{60.54%{fill:var(--c2)}60.56%,100%{fill:var(--ce)}}.c.c13{fill:var(--c2);animation-name:c13}@keyframes c14{60.26%{fill:var(--c2)}60.28%,100%{fill:var(--ce)}}.c.c14{fill:var(--c2);animation-name:c14}@keyframes c15{59.72%{fill:var(--c2)}59.74%,100%{fill:var(--ce)}}.c.c15{fill:var(--c2);animation-name:c15}@keyframes c16{62.18%{fill:var(--c2)}62.2%,100%{fill:var(--ce)}}.c.c16{fill:var(--c2);animation-name:c16}@keyframes c17{75.06%{fill:var(--c3)}75.08%,100%{fill:var(--ce)}}.c.c17{fill:var(--c3);animation-name:c17}@keyframes c18{75.33%{fill:var(--c3)}75.35%,100%{fill:var(--ce)}}.c.c18{fill:var(--c3);animation-name:c18}@keyframes c19{13.14%{fill:var(--c1)}13.16%,100%{fill:var(--ce)}}.c.c19{fill:var(--c1);animation-name:c19}@keyframes c1a{22.18%{fill:var(--c1)}22.2%,100%{fill:var(--ce)}}.c.c1a{fill:var(--c1);animation-name:c1a}@keyframes c1b{14.24%{fill:var(--c1)}14.26%,100%{fill:var(--ce)}}.c.c1b{fill:var(--c1);animation-name:c1b}@keyframes c1c{14.51%{fill:var(--c1)}14.53%,100%{fill:var(--ce)}}.c.c1c{fill:var(--c1);animation-name:c1c}@keyframes c1d{21.91%{fill:var(--c1)}21.93%,100%{fill:var(--ce)}}.c.c1d{fill:var(--c1);animation-name:c1d}@keyframes c1e{14.78%{fill:var(--c1)}14.8%,100%{fill:var(--ce)}}.c.c1e{fill:var(--c1);animation-name:c1e}@keyframes c1f{15.88%{fill:var(--c1)}15.9%,100%{fill:var(--ce)}}.c.c1f{fill:var(--c1);animation-name:c1f}@keyframes c1g{19.44%{fill:var(--c1)}19.46%,100%{fill:var(--ce)}}.c.c1g{fill:var(--c1);animation-name:c1g}@keyframes c1h{18.07%{fill:var(--c1)}18.09%,100%{fill:var(--ce)}}.c.c1h{fill:var(--c1);animation-name:c1h}@keyframes c1i{18.62%{fill:var(--c1)}18.64%,100%{fill:var(--ce)}}.c.c1i{fill:var(--c1);animation-name:c1i}@keyframes c1j{55.33%{fill:var(--c2)}55.35%,100%{fill:var(--ce)}}.c.c1j{fill:var(--c2);animation-name:c1j}@keyframes c1k{55.61%{fill:var(--c2)}55.63%,100%{fill:var(--ce)}}.c.c1k{fill:var(--c2);animation-name:c1k}@keyframes c1l{45.2%{fill:var(--c1)}45.22%,100%{fill:var(--ce)}}.c.c1l{fill:var(--c1);animation-name:c1l}@keyframes c1m{51.5%{fill:var(--c2)}51.52%,100%{fill:var(--ce)}}.c.c1m{fill:var(--c2);animation-name:c1m}@keyframes c1n{43.28%{fill:var(--c1)}43.3%,100%{fill:var(--ce)}}.c.c1n{fill:var(--c1);animation-name:c1n}@keyframes c1o{42.18%{fill:var(--c1)}42.2%,100%{fill:var(--ce)}}.c.c1o{fill:var(--c1);animation-name:c1o}@keyframes c1p{85.2%{fill:var(--c3)}85.22%,100%{fill:var(--ce)}}.c.c1p{fill:var(--c3);animation-name:c1p}@keyframes c1q{38.35%{fill:var(--c1)}38.37%,100%{fill:var(--ce)}}.c.c1q{fill:var(--c1);animation-name:c1q}@keyframes c1r{38.62%{fill:var(--c1)}38.64%,100%{fill:var(--ce)}}.c.c1r{fill:var(--c1);animation-name:c1r}@keyframes c1s{39.44%{fill:var(--c1)}39.46%,100%{fill:var(--ce)}}.c.c1s{fill:var(--c1);animation-name:c1s}@keyframes c1t{39.17%{fill:var(--c1)}39.19%,100%{fill:var(--ce)}}.c.c1t{fill:var(--c1);animation-name:c1t}@keyframes c1u{49.58%{fill:var(--c2)}49.6%,100%{fill:var(--ce)}}.c.c1u{fill:var(--c2);animation-name:c1u}@keyframes c1v{41.09%{fill:var(--c1)}41.11%,100%{fill:var(--ce)}}.c.c1v{fill:var(--c1);animation-name:c1v}@keyframes c1w{48.48%{fill:var(--c1)}48.5%,100%{fill:var(--ce)}}.c.c1w{fill:var(--c1);animation-name:c1w}@keyframes c1x{48.21%{fill:var(--c1)}48.23%,100%{fill:var(--ce)}}.c.c1x{fill:var(--c1);animation-name:c1x}.u{transform-origin:0 0;transform:scale(0,1);animation:none linear 36500ms infinite}@keyframes u0{0.26%{transform:scale(0.000,1)}0.28%,0.81%{transform:scale(0.023,1)}0.83%,1.09%{transform:scale(0.047,1)}1.11%,1.63%{transform:scale(0.070,1)}1.65%,2.18%{transform:scale(0.093,1)}2.2%,2.73%{transform:scale(0.116,1)}2.75%,3.55%{transform:scale(0.140,1)}3.57%,4.1%{transform:scale(0.163,1)}4.12%,4.37%{transform:scale(0.186,1)}4.39%,4.65%{transform:scale(0.209,1)}4.67%,4.92%{transform:scale(0.233,1)}4.94%,5.2%{transform:scale(0.256,1)}5.22%,5.47%{transform:scale(0.279,1)}5.49%,6.29%{transform:scale(0.302,1)}6.31%,7.11%{transform:scale(0.326,1)}7.13%,8.21%{transform:scale(0.349,1)}8.23%,8.76%{transform:scale(0.372,1)}8.78%,10.13%{transform:scale(0.395,1)}10.15%,10.67%{transform:scale(0.419,1)}10.69%,10.95%{transform:scale(0.442,1)}10.97%,13.14%{transform:scale(0.465,1)}13.16%,14.24%{transform:scale(0.488,1)}14.26%,14.51%{transform:scale(0.512,1)}14.53%,14.78%{transform:scale(0.535,1)}14.8%,15.88%{transform:scale(0.558,1)}15.9%,18.07%{transform:scale(0.581,1)}18.09%,18.62%{transform:scale(0.605,1)}18.64%,19.44%{transform:scale(0.628,1)}19.46%,21.91%{transform:scale(0.651,1)}21.93%,22.18%{transform:scale(0.674,1)}22.2%,24.92%{transform:scale(0.698,1)}24.94%,26.84%{transform:scale(0.721,1)}26.86%,27.66%{transform:scale(0.744,1)}27.68%,38.35%{transform:scale(0.767,1)}38.37%,38.62%{transform:scale(0.791,1)}38.64%,39.17%{transform:scale(0.814,1)}39.19%,39.44%{transform:scale(0.837,1)}39.46%,41.09%{transform:scale(0.860,1)}41.11%,42.18%{transform:scale(0.884,1)}42.2%,43.28%{transform:scale(0.907,1)}43.3%,45.2%{transform:scale(0.930,1)}45.22%,48.21%{transform:scale(0.953,1)}48.23%,48.48%{transform:scale(0.977,1)}48.5%,100%{transform:scale(1.000,1)}}.u.u0{fill:var(--c1);animation-name:u0;transform-origin:0.0px 0}@keyframes u1{49.58%{transform:scale(0.000,1)}49.6%,51.5%{transform:scale(0.063,1)}51.52%,55.33%{transform:scale(0.125,1)}55.35%,55.61%{transform:scale(0.188,1)}55.63%,59.72%{transform:scale(0.250,1)}59.74%,60.26%{transform:scale(0.313,1)}60.28%,60.54%{transform:scale(0.375,1)}60.56%,61.09%{transform:scale(0.438,1)}61.11%,61.36%{transform:scale(0.500,1)}61.38%,62.18%{transform:scale(0.563,1)}62.2%,63%{transform:scale(0.625,1)}63.02%,63.55%{transform:scale(0.688,1)}63.57%,64.92%{transform:scale(0.750,1)}64.94%,65.47%{transform:scale(0.813,1)}65.49%,67.39%{transform:scale(0.875,1)}67.41%,69.03%{transform:scale(0.938,1)}69.05%,100%{transform:scale(1.000,1)}}.u.u1{fill:var(--c2);animation-name:u1;transform-origin:520.9px 0}@keyframes u2{71.5%{transform:scale(0.000,1)}71.52%,72.59%{transform:scale(0.143,1)}72.61%,73.69%{transform:scale(0.286,1)}73.71%,75.06%{transform:scale(0.429,1)}75.08%,75.33%{transform:scale(0.571,1)}75.35%,77.25%{transform:scale(0.714,1)}77.27%,85.2%{transform:scale(0.857,1)}85.22%,100%{transform:scale(1.000,1)}}.u.u2{fill:var(--c3);animation-name:u2;transform-origin:714.7px 0}@keyframes u3{93.96%{transform:scale(0.000,1)}93.98%,95.06%{transform:scale(0.250,1)}95.08%,96.98%{transform:scale(0.500,1)}97%,97.8%{transform:scale(0.750,1)}97.82%,100%{transform:scale(1.000,1)}}.u.u3{fill:var(--c4);animation-name:u3;transform-origin:799.5px 0}.s{shape-rendering:geometricPrecision;fill:var(--cs);animation:none linear 36500ms infinite}@keyframes s0{0%,99.73%{transform:translate(0px,-16px)}0.27%,69.32%{transform:translate(0px,0px)}0.55%{transform:translate(16px,0px)}0.82%{transform:translate(16px,16px)}1.1%,68.49%{transform:translate(32px,16px)}1.37%{transform:translate(32px,32px)}1.92%{transform:translate(0px,32px)}2.74%{transform:translate(0px,80px)}3.01%{transform:translate(16px,80px)}3.29%{transform:translate(16px,96px)}3.84%{transform:translate(48px,96px)}4.11%{transform:translate(48px,80px)}4.93%{transform:translate(96px,80px)}5.21%{transform:translate(96px,64px)}5.48%{transform:translate(80px,64px)}5.75%{transform:translate(80px,48px)}6.85%{transform:translate(144px,48px)}7.12%,65.21%{transform:translate(144px,64px)}7.67%{transform:translate(112px,64px)}8.22%{transform:translate(112px,96px)}8.77%,95.34%{transform:translate(144px,96px)}9.04%{transform:translate(144px,112px)}9.86%{transform:translate(192px,112px)}10.41%{transform:translate(192px,80px)}10.68%{transform:translate(176px,80px)}10.96%,76.71%{transform:translate(176px,64px)}11.23%,64.38%,76.44%{transform:translate(192px,64px)}11.78%,63.84%,73.15%{transform:translate(192px,32px)}12.33%{transform:translate(224px,32px)}12.88%,60%{transform:translate(224px,64px)}13.97%{transform:translate(288px,64px)}14.52%{transform:translate(288px,96px)}17.26%{transform:translate(448px,96px)}18.08%{transform:translate(448px,48px)}18.36%{transform:translate(464px,48px)}18.9%{transform:translate(464px,16px)}19.45%{transform:translate(432px,16px)}19.73%{transform:translate(432px,0px)}22.19%{transform:translate(288px,0px)}22.47%{transform:translate(288px,-16px)}24.38%{transform:translate(176px,-16px)}24.93%,63.29%{transform:translate(176px,16px)}25.48%,96.71%{transform:translate(144px,16px)}25.75%{transform:translate(144px,32px)}26.58%{transform:translate(96px,32px)}26.85%{transform:translate(96px,16px)}27.12%,70.96%{transform:translate(80px,16px)}27.4%,70.68%{transform:translate(80px,0px)}27.67%,98.36%{transform:translate(64px,0px)}27.95%,98.63%{transform:translate(64px,-16px)}38.08%{transform:translate(656px,-16px)}38.63%{transform:translate(656px,16px)}39.18%{transform:translate(688px,16px)}39.45%,50.41%{transform:translate(688px,0px)}39.73%{transform:translate(704px,0px)}40.82%{transform:translate(704px,64px)}41.92%{transform:translate(640px,64px)}42.19%{transform:translate(640px,80px)}42.47%,46.3%{transform:translate(624px,80px)}43.29%{transform:translate(624px,32px)}44.11%{transform:translate(576px,32px)}45.21%{transform:translate(576px,96px)}46.03%{transform:translate(624px,96px)}48.22%{transform:translate(736px,80px)}48.77%{transform:translate(736px,48px)}49.59%{transform:translate(688px,48px)}54.25%{transform:translate(464px,0px)}55.62%{transform:translate(464px,80px)}59.73%{transform:translate(224px,80px)}60.27%{transform:translate(208px,64px)}61.37%{transform:translate(208px,0px)}61.92%,74.52%{transform:translate(240px,0px)}62.19%{transform:translate(240px,16px)}63.56%{transform:translate(176px,32px)}65.48%{transform:translate(144px,80px)}67.4%{transform:translate(32px,80px)}69.04%{transform:translate(0px,16px)}71.51%{transform:translate(112px,16px)}71.78%{transform:translate(112px,32px)}73.7%{transform:translate(192px,0px)}75.34%{transform:translate(240px,48px)}76.16%{transform:translate(192px,48px)}77.26%{transform:translate(176px,96px)}85.21%{transform:translate(640px,96px)}86.03%{transform:translate(640px,48px)}94.25%{transform:translate(160px,48px)}95.07%{transform:translate(160px,96px)}96.99%{transform:translate(128px,16px)}97.26%{transform:translate(128px,0px)}}.s.s0{transform:translate(0px,-16px);animation-name:s0}@keyframes s1{0%,99.73%{transform:translate(16px,-16px)}0.27%{transform:translate(0px,-16px)}0.55%,69.59%{transform:translate(0px,0px)}0.82%{transform:translate(16px,0px)}1.1%{transform:translate(16px,16px)}1.37%,68.77%{transform:translate(32px,16px)}1.64%{transform:translate(32px,32px)}2.19%{transform:translate(0px,32px)}3.01%{transform:translate(0px,80px)}3.29%{transform:translate(16px,80px)}3.56%{transform:translate(16px,96px)}4.11%{transform:translate(48px,96px)}4.38%{transform:translate(48px,80px)}5.21%{transform:translate(96px,80px)}5.48%{transform:translate(96px,64px)}5.75%{transform:translate(80px,64px)}6.03%{transform:translate(80px,48px)}7.12%{transform:translate(144px,48px)}7.4%,65.48%{transform:translate(144px,64px)}7.95%{transform:translate(112px,64px)}8.49%{transform:translate(112px,96px)}9.04%,95.62%{transform:translate(144px,96px)}9.32%{transform:translate(144px,112px)}10.14%{transform:translate(192px,112px)}10.68%{transform:translate(192px,80px)}10.96%{transform:translate(176px,80px)}11.23%,76.99%{transform:translate(176px,64px)}11.51%,64.66%,76.71%{transform:translate(192px,64px)}12.05%,64.11%,73.42%{transform:translate(192px,32px)}12.6%{transform:translate(224px,32px)}13.15%,60.27%{transform:translate(224px,64px)}14.25%{transform:translate(288px,64px)}14.79%{transform:translate(288px,96px)}17.53%{transform:translate(448px,96px)}18.36%{transform:translate(448px,48px)}18.63%{transform:translate(464px,48px)}19.18%{transform:translate(464px,16px)}19.73%{transform:translate(432px,16px)}20%{transform:translate(432px,0px)}22.47%{transform:translate(288px,0px)}22.74%{transform:translate(288px,-16px)}24.66%{transform:translate(176px,-16px)}25.21%,63.56%{transform:translate(176px,16px)}25.75%,96.99%{transform:translate(144px,16px)}26.03%{transform:translate(144px,32px)}26.85%{transform:translate(96px,32px)}27.12%{transform:translate(96px,16px)}27.4%,71.23%{transform:translate(80px,16px)}27.67%,70.96%{transform:translate(80px,0px)}27.95%,98.63%{transform:translate(64px,0px)}28.22%,98.9%{transform:translate(64px,-16px)}38.36%{transform:translate(656px,-16px)}38.9%{transform:translate(656px,16px)}39.45%{transform:translate(688px,16px)}39.73%,50.68%{transform:translate(688px,0px)}40%{transform:translate(704px,0px)}41.1%{transform:translate(704px,64px)}42.19%{transform:translate(640px,64px)}42.47%{transform:translate(640px,80px)}42.74%,46.58%{transform:translate(624px,80px)}43.56%{transform:translate(624px,32px)}44.38%{transform:translate(576px,32px)}45.48%{transform:translate(576px,96px)}46.3%{transform:translate(624px,96px)}48.49%{transform:translate(736px,80px)}49.04%{transform:translate(736px,48px)}49.86%{transform:translate(688px,48px)}54.52%{transform:translate(464px,0px)}55.89%{transform:translate(464px,80px)}60%{transform:translate(224px,80px)}60.55%{transform:translate(208px,64px)}61.64%{transform:translate(208px,0px)}62.19%,74.79%{transform:translate(240px,0px)}62.47%{transform:translate(240px,16px)}63.84%{transform:translate(176px,32px)}65.75%{transform:translate(144px,80px)}67.67%{transform:translate(32px,80px)}69.32%{transform:translate(0px,16px)}71.78%{transform:translate(112px,16px)}72.05%{transform:translate(112px,32px)}73.97%{transform:translate(192px,0px)}75.62%{transform:translate(240px,48px)}76.44%{transform:translate(192px,48px)}77.53%{transform:translate(176px,96px)}85.48%{transform:translate(640px,96px)}86.3%{transform:translate(640px,48px)}94.52%{transform:translate(160px,48px)}95.34%{transform:translate(160px,96px)}97.26%{transform:translate(128px,16px)}97.53%{transform:translate(128px,0px)}}.s.s1{transform:translate(16px,-16px);animation-name:s1}@keyframes s2{0%,99.73%{transform:translate(32px,-16px)}0.55%{transform:translate(0px,-16px)}0.82%,69.86%{transform:translate(0px,0px)}1.1%{transform:translate(16px,0px)}1.37%{transform:translate(16px,16px)}1.64%,69.04%{transform:translate(32px,16px)}1.92%{transform:translate(32px,32px)}2.47%{transform:translate(0px,32px)}3.29%{transform:translate(0px,80px)}3.56%{transform:translate(16px,80px)}3.84%{transform:translate(16px,96px)}4.38%{transform:translate(48px,96px)}4.66%{transform:translate(48px,80px)}5.48%{transform:translate(96px,80px)}5.75%{transform:translate(96px,64px)}6.03%{transform:translate(80px,64px)}6.3%{transform:translate(80px,48px)}7.4%{transform:translate(144px,48px)}7.67%,65.75%{transform:translate(144px,64px)}8.22%{transform:translate(112px,64px)}8.77%{transform:translate(112px,96px)}9.32%,95.89%{transform:translate(144px,96px)}9.59%{transform:translate(144px,112px)}10.41%{transform:translate(192px,112px)}10.96%{transform:translate(192px,80px)}11.23%{transform:translate(176px,80px)}11.51%,77.26%{transform:translate(176px,64px)}11.78%,64.93%,76.99%{transform:translate(192px,64px)}12.33%,64.38%,73.7%{transform:translate(192px,32px)}12.88%{transform:translate(224px,32px)}13.42%,60.55%{transform:translate(224px,64px)}14.52%{transform:translate(288px,64px)}15.07%{transform:translate(288px,96px)}17.81%{transform:translate(448px,96px)}18.63%{transform:translate(448px,48px)}18.9%{transform:translate(464px,48px)}19.45%{transform:translate(464px,16px)}20%{transform:translate(432px,16px)}20.27%{transform:translate(432px,0px)}22.74%{transform:translate(288px,0px)}23.01%{transform:translate(288px,-16px)}24.93%{transform:translate(176px,-16px)}25.48%,63.84%{transform:translate(176px,16px)}26.03%,97.26%{transform:translate(144px,16px)}26.3%{transform:translate(144px,32px)}27.12%{transform:translate(96px,32px)}27.4%{transform:translate(96px,16px)}27.67%,71.51%{transform:translate(80px,16px)}27.95%,71.23%{transform:translate(80px,0px)}28.22%,98.9%{transform:translate(64px,0px)}28.49%,99.18%{transform:translate(64px,-16px)}38.63%{transform:translate(656px,-16px)}39.18%{transform:translate(656px,16px)}39.73%{transform:translate(688px,16px)}40%,50.96%{transform:translate(688px,0px)}40.27%{transform:translate(704px,0px)}41.37%{transform:translate(704px,64px)}42.47%{transform:translate(640px,64px)}42.74%{transform:translate(640px,80px)}43.01%,46.85%{transform:translate(624px,80px)}43.84%{transform:translate(624px,32px)}44.66%{transform:translate(576px,32px)}45.75%{transform:translate(576px,96px)}46.58%{transform:translate(624px,96px)}48.77%{transform:translate(736px,80px)}49.32%{transform:translate(736px,48px)}50.14%{transform:translate(688px,48px)}54.79%{transform:translate(464px,0px)}56.16%{transform:translate(464px,80px)}60.27%{transform:translate(224px,80px)}60.82%{transform:translate(208px,64px)}61.92%{transform:translate(208px,0px)}62.47%,75.07%{transform:translate(240px,0px)}62.74%{transform:translate(240px,16px)}64.11%{transform:translate(176px,32px)}66.03%{transform:translate(144px,80px)}67.95%{transform:translate(32px,80px)}69.59%{transform:translate(0px,16px)}72.05%{transform:translate(112px,16px)}72.33%{transform:translate(112px,32px)}74.25%{transform:translate(192px,0px)}75.89%{transform:translate(240px,48px)}76.71%{transform:translate(192px,48px)}77.81%{transform:translate(176px,96px)}85.75%{transform:translate(640px,96px)}86.58%{transform:translate(640px,48px)}94.79%{transform:translate(160px,48px)}95.62%{transform:translate(160px,96px)}97.53%{transform:translate(128px,16px)}97.81%{transform:translate(128px,0px)}}.s.s2{transform:translate(32px,-16px);animation-name:s2}@keyframes s3{0%,99.73%{transform:translate(48px,-16px)}0.82%{transform:translate(0px,-16px)}1.1%,70.14%{transform:translate(0px,0px)}1.37%{transform:translate(16px,0px)}1.64%{transform:translate(16px,16px)}1.92%,69.32%{transform:translate(32px,16px)}2.19%{transform:translate(32px,32px)}2.74%{transform:translate(0px,32px)}3.56%{transform:translate(0px,80px)}3.84%{transform:translate(16px,80px)}4.11%{transform:translate(16px,96px)}4.66%{transform:translate(48px,96px)}4.93%{transform:translate(48px,80px)}5.75%{transform:translate(96px,80px)}6.03%{transform:translate(96px,64px)}6.3%{transform:translate(80px,64px)}6.58%{transform:translate(80px,48px)}7.67%{transform:translate(144px,48px)}7.95%,66.03%{transform:translate(144px,64px)}8.49%{transform:translate(112px,64px)}9.04%{transform:translate(112px,96px)}9.59%,96.16%{transform:translate(144px,96px)}9.86%{transform:translate(144px,112px)}10.68%{transform:translate(192px,112px)}11.23%{transform:translate(192px,80px)}11.51%{transform:translate(176px,80px)}11.78%,77.53%{transform:translate(176px,64px)}12.05%,65.21%,77.26%{transform:translate(192px,64px)}12.6%,64.66%,73.97%{transform:translate(192px,32px)}13.15%{transform:translate(224px,32px)}13.7%,60.82%{transform:translate(224px,64px)}14.79%{transform:translate(288px,64px)}15.34%{transform:translate(288px,96px)}18.08%{transform:translate(448px,96px)}18.9%{transform:translate(448px,48px)}19.18%{transform:translate(464px,48px)}19.73%{transform:translate(464px,16px)}20.27%{transform:translate(432px,16px)}20.55%{transform:translate(432px,0px)}23.01%{transform:translate(288px,0px)}23.29%{transform:translate(288px,-16px)}25.21%{transform:translate(176px,-16px)}25.75%,64.11%{transform:translate(176px,16px)}26.3%,97.53%{transform:translate(144px,16px)}26.58%{transform:translate(144px,32px)}27.4%{transform:translate(96px,32px)}27.67%{transform:translate(96px,16px)}27.95%,71.78%{transform:translate(80px,16px)}28.22%,71.51%{transform:translate(80px,0px)}28.49%,99.18%{transform:translate(64px,0px)}28.77%,99.45%{transform:translate(64px,-16px)}38.9%{transform:translate(656px,-16px)}39.45%{transform:translate(656px,16px)}40%{transform:translate(688px,16px)}40.27%,51.23%{transform:translate(688px,0px)}40.55%{transform:translate(704px,0px)}41.64%{transform:translate(704px,64px)}42.74%{transform:translate(640px,64px)}43.01%{transform:translate(640px,80px)}43.29%,47.12%{transform:translate(624px,80px)}44.11%{transform:translate(624px,32px)}44.93%{transform:translate(576px,32px)}46.03%{transform:translate(576px,96px)}46.85%{transform:translate(624px,96px)}49.04%{transform:translate(736px,80px)}49.59%{transform:translate(736px,48px)}50.41%{transform:translate(688px,48px)}55.07%{transform:translate(464px,0px)}56.44%{transform:translate(464px,80px)}60.55%{transform:translate(224px,80px)}61.1%{transform:translate(208px,64px)}62.19%{transform:translate(208px,0px)}62.74%,75.34%{transform:translate(240px,0px)}63.01%{transform:translate(240px,16px)}64.38%{transform:translate(176px,32px)}66.3%{transform:translate(144px,80px)}68.22%{transform:translate(32px,80px)}69.86%{transform:translate(0px,16px)}72.33%{transform:translate(112px,16px)}72.6%{transform:translate(112px,32px)}74.52%{transform:translate(192px,0px)}76.16%{transform:translate(240px,48px)}76.99%{transform:translate(192px,48px)}78.08%{transform:translate(176px,96px)}86.03%{transform:translate(640px,96px)}86.85%{transform:translate(640px,48px)}95.07%{transform:translate(160px,48px)}95.89%{transform:translate(160px,96px)}97.81%{transform:translate(128px,16px)}98.08%{transform:translate(128px,0px)}}.s.s3{transform:translate(48px,-16px);animation-name:s3}</style><rect class="c c0" x="2" y="2" rx="2" ry="2"/><rect class="c c1" x="2" y="18" rx="2" ry="2"/><rect class="c" x="2" y="34" rx="2" ry="2"/><rect class="c c2" x="2" y="50" rx="2" ry="2"/><rect class="c" x="2" y="66" rx="2" ry="2"/><rect class="c c3" x="2" y="82" rx="2" ry="2"/><rect class="c" x="2" y="98" rx="2" ry="2"/><rect class="c" x="18" y="2" rx="2" ry="2"/><rect class="c c4" x="18" y="18" rx="2" ry="2"/><rect class="c c5" x="18" y="34" rx="2" ry="2"/><rect class="c" x="18" y="50" rx="2" ry="2"/><rect class="c" x="18" y="66" rx="2" ry="2"/><rect class="c" x="18" y="82" rx="2" ry="2"/><rect class="c" x="18" y="98" rx="2" ry="2"/><rect class="c" x="34" y="2" rx="2" ry="2"/><rect class="c c6" x="34" y="18" rx="2" ry="2"/><rect class="c" x="34" y="34" rx="2" ry="2"/><rect class="c" x="34" y="50" rx="2" ry="2"/><rect class="c" x="34" y="66" rx="2" ry="2"/><rect class="c c7" x="34" y="82" rx="2" ry="2"/><rect class="c c8" x="34" y="98" rx="2" ry="2"/><rect class="c" x="50" y="2" rx="2" ry="2"/><rect class="c" x="50" y="18" rx="2" ry="2"/><rect class="c" x="50" y="34" rx="2" ry="2"/><rect class="c" x="50" y="50" rx="2" ry="2"/><rect class="c" x="50" y="66" rx="2" ry="2"/><rect class="c c9" x="50" y="82" rx="2" ry="2"/><rect class="c" x="50" y="98" rx="2" ry="2"/><rect class="c ca" x="66" y="2" rx="2" ry="2"/><rect class="c" x="66" y="18" rx="2" ry="2"/><rect class="c" x="66" y="34" rx="2" ry="2"/><rect class="c" x="66" y="50" rx="2" ry="2"/><rect class="c" x="66" y="66" rx="2" ry="2"/><rect class="c cb" x="66" y="82" rx="2" ry="2"/><rect class="c" x="66" y="98" rx="2" ry="2"/><rect class="c" x="82" y="2" rx="2" ry="2"/><rect class="c" x="82" y="18" rx="2" ry="2"/><rect class="c" x="82" y="34" rx="2" ry="2"/><rect class="c" x="82" y="50" rx="2" ry="2"/><rect class="c cc" x="82" y="66" rx="2" ry="2"/><rect class="c cd" x="82" y="82" rx="2" ry="2"/><rect class="c" x="82" y="98" rx="2" ry="2"/><rect class="c ce" x="98" y="2" rx="2" ry="2"/><rect class="c cf" x="98" y="18" rx="2" ry="2"/><rect class="c" x="98" y="34" rx="2" ry="2"/><rect class="c" x="98" y="50" rx="2" ry="2"/><rect class="c cg" x="98" y="66" rx="2" ry="2"/><rect class="c ch" x="98" y="82" rx="2" ry="2"/><rect class="c" x="98" y="98" rx="2" ry="2"/><rect class="c" x="114" y="2" rx="2" ry="2"/><rect class="c ci" x="114" y="18" rx="2" ry="2"/><rect class="c" x="114" y="34" rx="2" ry="2"/><rect class="c cj" x="114" y="50" rx="2" ry="2"/><rect class="c" x="114" y="66" rx="2" ry="2"/><rect class="c" x="114" y="82" rx="2" ry="2"/><rect class="c ck" x="114" y="98" rx="2" ry="2"/><rect class="c" x="130" y="2" rx="2" ry="2"/><rect class="c cl" x="130" y="18" rx="2" ry="2"/><rect class="c" x="130" y="34" rx="2" ry="2"/><rect class="c" x="130" y="50" rx="2" ry="2"/><rect class="c" x="130" y="66" rx="2" ry="2"/><rect class="c" x="130" y="82" rx="2" ry="2"/><rect class="c" x="130" y="98" rx="2" ry="2"/><rect class="c" x="146" y="2" rx="2" ry="2"/><rect class="c" x="146" y="18" rx="2" ry="2"/><rect class="c" x="146" y="34" rx="2" ry="2"/><rect class="c" x="146" y="50" rx="2" ry="2"/><rect class="c cm" x="146" y="66" rx="2" ry="2"/><rect class="c cn" x="146" y="82" rx="2" ry="2"/><rect class="c co" x="146" y="98" rx="2" ry="2"/><rect class="c" x="162" y="2" rx="2" ry="2"/><rect class="c" x="162" y="18" rx="2" ry="2"/><rect class="c cp" x="162" y="34" rx="2" ry="2"/><rect class="c" x="162" y="50" rx="2" ry="2"/><rect class="c cq" x="162" y="66" rx="2" ry="2"/><rect class="c" x="162" y="82" rx="2" ry="2"/><rect class="c cr" x="162" y="98" rx="2" ry="2"/><rect class="c" x="178" y="2" rx="2" ry="2"/><rect class="c cs" x="178" y="18" rx="2" ry="2"/><rect class="c ct" x="178" y="34" rx="2" ry="2"/><rect class="c cu" x="178" y="50" rx="2" ry="2"/><rect class="c cv" x="178" y="66" rx="2" ry="2"/><rect class="c cw" x="178" y="82" rx="2" ry="2"/><rect class="c cx" x="178" y="98" rx="2" ry="2"/><rect class="c cy" x="194" y="2" rx="2" ry="2"/><rect class="c cz" x="194" y="18" rx="2" ry="2"/><rect class="c" x="194" y="34" rx="2" ry="2"/><rect class="c" x="194" y="50" rx="2" ry="2"/><rect class="c" x="194" y="66" rx="2" ry="2"/><rect class="c" x="194" y="82" rx="2" ry="2"/><rect class="c c10" x="194" y="98" rx="2" ry="2"/><rect class="c c11" x="210" y="2" rx="2" ry="2"/><rect class="c c12" x="210" y="18" rx="2" ry="2"/><rect class="c" x="210" y="34" rx="2" ry="2"/><rect class="c c13" x="210" y="50" rx="2" ry="2"/><rect class="c c14" x="210" y="66" rx="2" ry="2"/><rect class="c" x="210" y="82" rx="2" ry="2"/><rect class="c" x="210" y="98" rx="2" ry="2"/><rect class="c" x="226" y="2" rx="2" ry="2"/><rect class="c" x="226" y="18" rx="2" ry="2"/><rect class="c" x="226" y="34" rx="2" ry="2"/><rect class="c" x="226" y="50" rx="2" ry="2"/><rect class="c" x="226" y="66" rx="2" ry="2"/><rect class="c c15" x="226" y="82" rx="2" ry="2"/><rect class="c" x="226" y="98" rx="2" ry="2"/><rect class="c" x="242" y="2" rx="2" ry="2"/><rect class="c c16" x="242" y="18" rx="2" ry="2"/><rect class="c c17" x="242" y="34" rx="2" ry="2"/><rect class="c c18" x="242" y="50" rx="2" ry="2"/><rect class="c c19" x="242" y="66" rx="2" ry="2"/><rect class="c" x="242" y="82" rx="2" ry="2"/><rect class="c" x="242" y="98" rx="2" ry="2"/><rect class="c" x="258" y="2" rx="2" ry="2"/><rect class="c" x="258" y="18" rx="2" ry="2"/><rect class="c" x="258" y="34" rx="2" ry="2"/><rect class="c" x="258" y="50" rx="2" ry="2"/><rect class="c" x="258" y="66" rx="2" ry="2"/><rect class="c" x="258" y="82" rx="2" ry="2"/><rect class="c" x="258" y="98" rx="2" ry="2"/><rect class="c" x="274" y="2" rx="2" ry="2"/><rect class="c" x="274" y="18" rx="2" ry="2"/><rect class="c" x="274" y="34" rx="2" ry="2"/><rect class="c" x="274" y="50" rx="2" ry="2"/><rect class="c" x="274" y="66" rx="2" ry="2"/><rect class="c" x="274" y="82" rx="2" ry="2"/><rect class="c" x="274" y="98" rx="2" ry="2"/><rect class="c c1a" x="290" y="2" rx="2" ry="2"/><rect class="c" x="290" y="18" rx="2" ry="2"/><rect class="c" x="290" y="34" rx="2" ry="2"/><rect class="c" x="290" y="50" rx="2" ry="2"/><rect class="c" x="290" y="66" rx="2" ry="2"/><rect class="c c1b" x="290" y="82" rx="2" ry="2"/><rect class="c c1c" x="290" y="98" rx="2" ry="2"/><rect class="c c1d" x="306" y="2" rx="2" ry="2"/><rect class="c" x="306" y="18" rx="2" ry="2"/><rect class="c" x="306" y="34" rx="2" ry="2"/><rect class="c" x="306" y="50" rx="2" ry="2"/><rect class="c" x="306" y="66" rx="2" ry="2"/><rect class="c" x="306" y="82" rx="2" ry="2"/><rect class="c c1e" x="306" y="98" rx="2" ry="2"/><rect class="c" x="322" y="2" rx="2" ry="2"/><rect class="c" x="322" y="18" rx="2" ry="2"/><rect class="c" x="322" y="34" rx="2" ry="2"/><rect class="c" x="322" y="50" rx="2" ry="2"/><rect class="c" x="322" y="66" rx="2" ry="2"/><rect class="c" x="322" y="82" rx="2" ry="2"/><rect class="c" x="322" y="98" rx="2" ry="2"/><rect class="c" x="338" y="2" rx="2" ry="2"/><rect class="c" x="338" y="18" rx="2" ry="2"/><rect class="c" x="338" y="34" rx="2" ry="2"/><rect class="c" x="338" y="50" rx="2" ry="2"/><rect class="c" x="338" y="66" rx="2" ry="2"/><rect class="c" x="338" y="82" rx="2" ry="2"/><rect class="c" x="338" y="98" rx="2" ry="2"/><rect class="c" x="354" y="2" rx="2" ry="2"/><rect class="c" x="354" y="18" rx="2" ry="2"/><rect class="c" x="354" y="34" rx="2" ry="2"/><rect class="c" x="354" y="50" rx="2" ry="2"/><rect class="c" x="354" y="66" rx="2" ry="2"/><rect class="c" x="354" y="82" rx="2" ry="2"/><rect class="c" x="354" y="98" rx="2" ry="2"/><rect class="c" x="370" y="2" rx="2" ry="2"/><rect class="c" x="370" y="18" rx="2" ry="2"/><rect class="c" x="370" y="34" rx="2" ry="2"/><rect class="c" x="370" y="50" rx="2" ry="2"/><rect class="c" x="370" y="66" rx="2" ry="2"/><rect class="c" x="370" y="82" rx="2" ry="2"/><rect class="c c1f" x="370" y="98" rx="2" ry="2"/><rect class="c" x="386" y="2" rx="2" ry="2"/><rect class="c" x="386" y="18" rx="2" ry="2"/><rect class="c" x="386" y="34" rx="2" ry="2"/><rect class="c" x="386" y="50" rx="2" ry="2"/><rect class="c" x="386" y="66" rx="2" ry="2"/><rect class="c" x="386" y="82" rx="2" ry="2"/><rect class="c" x="386" y="98" rx="2" ry="2"/><rect class="c" x="402" y="2" rx="2" ry="2"/><rect class="c" x="402" y="18" rx="2" ry="2"/><rect class="c" x="402" y="34" rx="2" ry="2"/><rect class="c" x="402" y="50" rx="2" ry="2"/><rect class="c" x="402" y="66" rx="2" ry="2"/><rect class="c" x="402" y="82" rx="2" ry="2"/><rect class="c" x="402" y="98" rx="2" ry="2"/><rect class="c" x="418" y="2" rx="2" ry="2"/><rect class="c" x="418" y="18" rx="2" ry="2"/><rect class="c" x="418" y="34" rx="2" ry="2"/><rect class="c" x="418" y="50" rx="2" ry="2"/><rect class="c" x="418" y="66" rx="2" ry="2"/><rect class="c" x="418" y="82" rx="2" ry="2"/><rect class="c" x="418" y="98" rx="2" ry="2"/><rect class="c" x="434" y="2" rx="2" ry="2"/><rect class="c c1g" x="434" y="18" rx="2" ry="2"/><rect class="c" x="434" y="34" rx="2" ry="2"/><rect class="c" x="434" y="50" rx="2" ry="2"/><rect class="c" x="434" y="66" rx="2" ry="2"/><rect class="c" x="434" y="82" rx="2" ry="2"/><rect class="c" x="434" y="98" rx="2" ry="2"/><rect class="c" x="450" y="2" rx="2" ry="2"/><rect class="c" x="450" y="18" rx="2" ry="2"/><rect class="c" x="450" y="34" rx="2" ry="2"/><rect class="c c1h" x="450" y="50" rx="2" ry="2"/><rect class="c" x="450" y="66" rx="2" ry="2"/><rect class="c" x="450" y="82" rx="2" ry="2"/><rect class="c" x="450" y="98" rx="2" ry="2"/><rect class="c" x="466" y="2" rx="2" ry="2"/><rect class="c" x="466" y="18" rx="2" ry="2"/><rect class="c c1i" x="466" y="34" rx="2" ry="2"/><rect class="c" x="466" y="50" rx="2" ry="2"/><rect class="c c1j" x="466" y="66" rx="2" ry="2"/><rect class="c c1k" x="466" y="82" rx="2" ry="2"/><rect class="c" x="466" y="98" rx="2" ry="2"/><rect class="c" x="482" y="2" rx="2" ry="2"/><rect class="c" x="482" y="18" rx="2" ry="2"/><rect class="c" x="482" y="34" rx="2" ry="2"/><rect class="c" x="482" y="50" rx="2" ry="2"/><rect class="c" x="482" y="66" rx="2" ry="2"/><rect class="c" x="482" y="82" rx="2" ry="2"/><rect class="c" x="482" y="98" rx="2" ry="2"/><rect class="c" x="498" y="2" rx="2" ry="2"/><rect class="c" x="498" y="18" rx="2" ry="2"/><rect class="c" x="498" y="34" rx="2" ry="2"/><rect class="c" x="498" y="50" rx="2" ry="2"/><rect class="c" x="498" y="66" rx="2" ry="2"/><rect class="c" x="498" y="82" rx="2" ry="2"/><rect class="c" x="498" y="98" rx="2" ry="2"/><rect class="c" x="514" y="2" rx="2" ry="2"/><rect class="c" x="514" y="18" rx="2" ry="2"/><rect class="c" x="514" y="34" rx="2" ry="2"/><rect class="c" x="514" y="50" rx="2" ry="2"/><rect class="c" x="514" y="66" rx="2" ry="2"/><rect class="c" x="514" y="82" rx="2" ry="2"/><rect class="c" x="514" y="98" rx="2" ry="2"/><rect class="c" x="530" y="2" rx="2" ry="2"/><rect class="c" x="530" y="18" rx="2" ry="2"/><rect class="c" x="530" y="34" rx="2" ry="2"/><rect class="c" x="530" y="50" rx="2" ry="2"/><rect class="c" x="530" y="66" rx="2" ry="2"/><rect class="c" x="530" y="82" rx="2" ry="2"/><rect class="c" x="530" y="98" rx="2" ry="2"/><rect class="c" x="546" y="2" rx="2" ry="2"/><rect class="c" x="546" y="18" rx="2" ry="2"/><rect class="c" x="546" y="34" rx="2" ry="2"/><rect class="c" x="546" y="50" rx="2" ry="2"/><rect class="c" x="546" y="66" rx="2" ry="2"/><rect class="c" x="546" y="82" rx="2" ry="2"/><rect class="c" x="546" y="98" rx="2" ry="2"/><rect class="c" x="562" y="2" rx="2" ry="2"/><rect class="c" x="562" y="18" rx="2" ry="2"/><rect class="c" x="562" y="34" rx="2" ry="2"/><rect class="c" x="562" y="50" rx="2" ry="2"/><rect class="c" x="562" y="66" rx="2" ry="2"/><rect class="c" x="562" y="82" rx="2" ry="2"/><rect class="c" x="562" y="98" rx="2" ry="2"/><rect class="c" x="578" y="2" rx="2" ry="2"/><rect class="c" x="578" y="18" rx="2" ry="2"/><rect class="c" x="578" y="34" rx="2" ry="2"/><rect class="c" x="578" y="50" rx="2" ry="2"/><rect class="c" x="578" y="66" rx="2" ry="2"/><rect class="c" x="578" y="82" rx="2" ry="2"/><rect class="c c1l" x="578" y="98" rx="2" ry="2"/><rect class="c" x="594" y="2" rx="2" ry="2"/><rect class="c" x="594" y="18" rx="2" ry="2"/><rect class="c" x="594" y="34" rx="2" ry="2"/><rect class="c" x="594" y="50" rx="2" ry="2"/><rect class="c" x="594" y="66" rx="2" ry="2"/><rect class="c" x="594" y="82" rx="2" ry="2"/><rect class="c" x="594" y="98" rx="2" ry="2"/><rect class="c" x="610" y="2" rx="2" ry="2"/><rect class="c" x="610" y="18" rx="2" ry="2"/><rect class="c" x="610" y="34" rx="2" ry="2"/><rect class="c" x="610" y="50" rx="2" ry="2"/><rect class="c" x="610" y="66" rx="2" ry="2"/><rect class="c" x="610" y="82" rx="2" ry="2"/><rect class="c" x="610" y="98" rx="2" ry="2"/><rect class="c c1m" x="626" y="2" rx="2" ry="2"/><rect class="c" x="626" y="18" rx="2" ry="2"/><rect class="c c1n" x="626" y="34" rx="2" ry="2"/><rect class="c" x="626" y="50" rx="2" ry="2"/><rect class="c" x="626" y="66" rx="2" ry="2"/><rect class="c" x="626" y="82" rx="2" ry="2"/><rect class="c" x="626" y="98" rx="2" ry="2"/><rect class="c" x="642" y="2" rx="2" ry="2"/><rect class="c" x="642" y="18" rx="2" ry="2"/><rect class="c" x="642" y="34" rx="2" ry="2"/><rect class="c" x="642" y="50" rx="2" ry="2"/><rect class="c" x="642" y="66" rx="2" ry="2"/><rect class="c c1o" x="642" y="82" rx="2" ry="2"/><rect class="c c1p" x="642" y="98" rx="2" ry="2"/><rect class="c c1q" x="658" y="2" rx="2" ry="2"/><rect class="c c1r" x="658" y="18" rx="2" ry="2"/><rect class="c" x="658" y="34" rx="2" ry="2"/><rect class="c" x="658" y="50" rx="2" ry="2"/><rect class="c" x="658" y="66" rx="2" ry="2"/><rect class="c" x="658" y="82" rx="2" ry="2"/><rect class="c" x="658" y="98" rx="2" ry="2"/><rect class="c" x="674" y="2" rx="2" ry="2"/><rect class="c" x="674" y="18" rx="2" ry="2"/><rect class="c" x="674" y="34" rx="2" ry="2"/><rect class="c" x="674" y="50" rx="2" ry="2"/><rect class="c" x="674" y="66" rx="2" ry="2"/><rect class="c" x="674" y="82" rx="2" ry="2"/><rect class="c" x="674" y="98" rx="2" ry="2"/><rect class="c c1s" x="690" y="2" rx="2" ry="2"/><rect class="c c1t" x="690" y="18" rx="2" ry="2"/><rect class="c" x="690" y="34" rx="2" ry="2"/><rect class="c c1u" x="690" y="50" rx="2" ry="2"/><rect class="c c1v" x="690" y="66" rx="2" ry="2"/><rect class="c" x="690" y="82" rx="2" ry="2"/><rect class="c" x="690" y="98" rx="2" ry="2"/><rect class="c" x="706" y="2" rx="2" ry="2"/><rect class="c" x="706" y="18" rx="2" ry="2"/><rect class="c" x="706" y="34" rx="2" ry="2"/><rect class="c" x="706" y="50" rx="2" ry="2"/><rect class="c" x="706" y="66" rx="2" ry="2"/><rect class="c" x="706" y="82" rx="2" ry="2"/><rect class="c" x="706" y="98" rx="2" ry="2"/><rect class="c" x="722" y="2" rx="2" ry="2"/><rect class="c" x="722" y="18" rx="2" ry="2"/><rect class="c" x="722" y="34" rx="2" ry="2"/><rect class="c" x="722" y="50" rx="2" ry="2"/><rect class="c" x="722" y="66" rx="2" ry="2"/><rect class="c" x="722" y="82" rx="2" ry="2"/><rect class="c" x="722" y="98" rx="2" ry="2"/><rect class="c" x="738" y="2" rx="2" ry="2"/><rect class="c" x="738" y="18" rx="2" ry="2"/><rect class="c" x="738" y="34" rx="2" ry="2"/><rect class="c" x="738" y="50" rx="2" ry="2"/><rect class="c c1w" x="738" y="66" rx="2" ry="2"/><rect class="c c1x" x="738" y="82" rx="2" ry="2"/><rect class="c" x="738" y="98" rx="2" ry="2"/><rect class="c" x="754" y="2" rx="2" ry="2"/><rect class="c" x="754" y="18" rx="2" ry="2"/><rect class="c" x="754" y="34" rx="2" ry="2"/><rect class="c" x="754" y="50" rx="2" ry="2"/><rect class="c" x="754" y="66" rx="2" ry="2"/><rect class="c" x="754" y="82" rx="2" ry="2"/><rect class="c" x="754" y="98" rx="2" ry="2"/><rect class="c" x="770" y="2" rx="2" ry="2"/><rect class="c" x="770" y="18" rx="2" ry="2"/><rect class="c" x="770" y="34" rx="2" ry="2"/><rect class="c" x="770" y="50" rx="2" ry="2"/><rect class="c" x="770" y="66" rx="2" ry="2"/><rect class="c" x="770" y="82" rx="2" ry="2"/><rect class="c" x="770" y="98" rx="2" ry="2"/><rect class="c" x="786" y="2" rx="2" ry="2"/><rect class="c" x="786" y="18" rx="2" ry="2"/><rect class="c" x="786" y="34" rx="2" ry="2"/><rect class="c" x="786" y="50" rx="2" ry="2"/><rect class="c" x="786" y="66" rx="2" ry="2"/><rect class="c" x="786" y="82" rx="2" ry="2"/><rect class="c" x="786" y="98" rx="2" ry="2"/><rect class="c" x="802" y="2" rx="2" ry="2"/><rect class="c" x="802" y="18" rx="2" ry="2"/><rect class="c" x="802" y="34" rx="2" ry="2"/><rect class="c" x="802" y="50" rx="2" ry="2"/><rect class="c" x="802" y="66" rx="2" ry="2"/><rect class="c" x="802" y="82" rx="2" ry="2"/><rect class="c" x="802" y="98" rx="2" ry="2"/><rect class="c" x="818" y="2" rx="2" ry="2"/><rect class="c" x="818" y="18" rx="2" ry="2"/><rect class="c" x="818" y="34" rx="2" ry="2"/><rect class="c" x="818" y="50" rx="2" ry="2"/><rect class="c" x="818" y="66" rx="2" ry="2"/><rect class="c" x="818" y="82" rx="2" ry="2"/><rect class="c" x="818" y="98" rx="2" ry="2"/><rect class="c" x="834" y="2" rx="2" ry="2"/><rect class="c" x="834" y="18" rx="2" ry="2"/><rect class="u u0" height="12" width="521.5" x="0.0" y="144"/><rect class="u u1" height="12" width="194.4" x="520.9" y="144"/><rect class="u u2" height="12" width="85.4" x="714.7" y="144"/><rect class="u u3" height="12" width="49.1" x="799.5" y="144"/><rect class="s s0" x="0.8" y="0.8" width="14.4" height="14.4" rx="4.5" ry="4.5"/><rect class="s s1" x="1.8" y="1.8" width="12.3" height="12.3" rx="4.1" ry="4.1"/><rect class="s s2" x="2.6" y="2.6" width="10.8" height="10.8" rx="3.6" ry="3.6"/><rect class="s s3" x="3.0" y="3.0" width="9.9" height="9.9" rx="3.3" ry="3.3"/></svg>