<svg viewBox="-16 -32 880 192" width="880" height="192" xmlns="http://www.w3.org/2000/svg"><desc>Generated with https://github.com/Platane/snk</desc><style>:root{--cb:#1b1f230a;--cs:white;--ce:#0a0e12;--c0:#0a0e12;--c1:#1445a2;--c2:#1d65ee;--c3:#1f4eff;--c4:#466dff}.c{shape-rendering:geometricPrecision;fill:var(--ce);stroke-width:1px;stroke:var(--cb);animation:none 34500ms linear infinite;width:12px;height:12px}@keyframes c0{0.57%{fill:var(--c1)}0.59%,100%{fill:var(--ce)}}.c.c0{fill:var(--c1);animation-name:c0}@keyframes c1{1.44%{fill:var(--c1)}1.46%,100%{fill:var(--ce)}}.c.c1{fill:var(--c1);animation-name:c1}@keyframes c2{0.86%{fill:var(--c1)}0.88%,100%{fill:var(--ce)}}.c.c2{fill:var(--c1);animation-name:c2}@keyframes c3{66.95%{fill:var(--c2)}66.97%,100%{fill:var(--ce)}}.c.c3{fill:var(--c2);animation-name:c3}@keyframes c4{28.4%{fill:var(--c1)}28.42%,100%{fill:var(--ce)}}.c.c4{fill:var(--c1);animation-name:c4}@keyframes c5{27.82%{fill:var(--c1)}27.84%,100%{fill:var(--ce)}}.c.c5{fill:var(--c1);animation-name:c5}@keyframes c6{2.89%{fill:var(--c1)}2.91%,100%{fill:var(--ce)}}.c.c6{fill:var(--c1);animation-name:c6}@keyframes c7{27.53%{fill:var(--c1)}27.55%,100%{fill:var(--ce)}}.c.c7{fill:var(--c1);animation-name:c7}@keyframes c8{5.5%{fill:var(--c1)}5.52%,100%{fill:var(--ce)}}.c.c8{fill:var(--c1);animation-name:c8}@keyframes c9{5.79%{fill:var(--c1)}5.81%,100%{fill:var(--ce)}}.c.c9{fill:var(--c1);animation-name:c9}@keyframes ca{97.96%{fill:var(--c4)}97.98%,100%{fill:var(--ce)}}.c.ca{fill:var(--c4);animation-name:ca}@keyframes cb{3.76%{fill:var(--c1)}3.78%,100%{fill:var(--ce)}}.c.cb{fill:var(--c1);animation-name:cb}@keyframes cc{5.21%{fill:var(--c1)}5.23%,100%{fill:var(--ce)}}.c.cc{fill:var(--c1);animation-name:cc}@keyframes cd{6.08%{fill:var(--c1)}6.1%,100%{fill:var(--ce)}}.c.cd{fill:var(--c1);animation-name:cd}@keyframes ce{69.56%{fill:var(--c3)}69.58%,100%{fill:var(--ce)}}.c.ce{fill:var(--c3);animation-name:ce}@keyframes cf{4.63%{fill:var(--c1)}4.65%,100%{fill:var(--ce)}}.c.cf{fill:var(--c1);animation-name:cf}@keyframes cg{6.66%{fill:var(--c1)}6.68%,100%{fill:var(--ce)}}.c.cg{fill:var(--c1);animation-name:cg}@keyframes ch{97.09%{fill:var(--c4)}97.11%,100%{fill:var(--ce)}}.c.ch{fill:var(--c4);animation-name:ch}@keyframes ci{25.79%{fill:var(--c1)}25.81%,100%{fill:var(--ce)}}.c.ci{fill:var(--c1);animation-name:ci}@keyframes cj{64.92%{fill:var(--c2)}64.94%,100%{fill:var(--ce)}}.c.cj{fill:var(--c2);animation-name:cj}@keyframes ck{7.24%{fill:var(--c1)}7.26%,100%{fill:var(--ce)}}.c.ck{fill:var(--c1);animation-name:ck}@keyframes cl{72.45%{fill:var(--c3)}72.47%,100%{fill:var(--ce)}}.c.cl{fill:var(--c3);animation-name:cl}@keyframes cm{64.34%{fill:var(--c2)}64.36%,100%{fill:var(--ce)}}.c.cm{fill:var(--c2);animation-name:cm}@keyframes cn{95.06%{fill:var(--c4)}95.08%,100%{fill:var(--ce)}}.c.cn{fill:var(--c4);animation-name:cn}@keyframes co{24.34%{fill:var(--c1)}24.36%,100%{fill:var(--ce)}}.c.co{fill:var(--c1);animation-name:co}@keyframes cp{62.89%{fill:var(--c2)}62.91%,100%{fill:var(--ce)}}.c.cp{fill:var(--c2);animation-name:cp}@keyframes cq{93.9%{fill:var(--c4)}93.92%,100%{fill:var(--ce)}}.c.cq{fill:var(--c4);animation-name:cq}@keyframes cr{9.56%{fill:var(--c1)}9.58%,100%{fill:var(--ce)}}.c.cr{fill:var(--c1);animation-name:cr}@keyframes cs{9.27%{fill:var(--c1)}9.29%,100%{fill:var(--ce)}}.c.cs{fill:var(--c1);animation-name:cs}@keyframes ct{76.22%{fill:var(--c3)}76.24%,100%{fill:var(--ce)}}.c.ct{fill:var(--c3);animation-name:ct}@keyframes cu{71.29%{fill:var(--c3)}71.31%,100%{fill:var(--ce)}}.c.cu{fill:var(--c3);animation-name:cu}@keyframes cv{62.31%{fill:var(--c2)}62.33%,100%{fill:var(--ce)}}.c.cv{fill:var(--c2);animation-name:cv}@keyframes cw{8.69%{fill:var(--c1)}8.71%,100%{fill:var(--ce)}}.c.cw{fill:var(--c1);animation-name:cw}@keyframes cx{60.57%{fill:var(--c2)}60.59%,100%{fill:var(--ce)}}.c.cx{fill:var(--c2);animation-name:cx}@keyframes cy{60.28%{fill:var(--c2)}60.3%,100%{fill:var(--ce)}}.c.cy{fill:var(--c2);animation-name:cy}@keyframes cz{59.7%{fill:var(--c2)}59.72%,100%{fill:var(--ce)}}.c.cz{fill:var(--c2);animation-name:cz}@keyframes c10{59.41%{fill:var(--c2)}59.43%,100%{fill:var(--ce)}}.c.c10{fill:var(--c2);animation-name:c10}@keyframes c11{58.83%{fill:var(--c2)}58.85%,100%{fill:var(--ce)}}.c.c11{fill:var(--c2);animation-name:c11}@keyframes c12{61.44%{fill:var(--c2)}61.46%,100%{fill:var(--ce)}}.c.c12{fill:var(--c2);animation-name:c12}@keyframes c13{73.9%{fill:var(--c3)}73.92%,100%{fill:var(--ce)}}.c.c13{fill:var(--c3);animation-name:c13}@keyframes c14{74.19%{fill:var(--c3)}74.21%,100%{fill:var(--ce)}}.c.c14{fill:var(--c3);animation-name:c14}@keyframes c15{11.87%{fill:var(--c1)}11.89%,100%{fill:var(--ce)}}.c.c15{fill:var(--c1);animation-name:c15}@keyframes c16{21.44%{fill:var(--c1)}21.46%,100%{fill:var(--ce)}}.c.c16{fill:var(--c1);animation-name:c16}@keyframes c17{13.03%{fill:var(--c1)}13.05%,100%{fill:var(--ce)}}.c.c17{fill:var(--c1);animation-name:c17}@keyframes c18{13.32%{fill:var(--c1)}13.34%,100%{fill:var(--ce)}}.c.c18{fill:var(--c1);animation-name:c18}@keyframes c19{21.15%{fill:var(--c1)}21.17%,100%{fill:var(--ce)}}.c.c19{fill:var(--c1);animation-name:c19}@keyframes c1a{13.61%{fill:var(--c1)}13.63%,100%{fill:var(--ce)}}.c.c1a{fill:var(--c1);animation-name:c1a}@keyframes c1b{14.77%{fill:var(--c1)}14.79%,100%{fill:var(--ce)}}.c.c1b{fill:var(--c1);animation-name:c1b}@keyframes c1c{18.54%{fill:var(--c1)}18.56%,100%{fill:var(--ce)}}.c.c1c{fill:var(--c1);animation-name:c1c}@keyframes c1d{17.09%{fill:var(--c1)}17.11%,100%{fill:var(--ce)}}.c.c1d{fill:var(--c1);animation-name:c1d}@keyframes c1e{17.67%{fill:var(--c1)}17.69%,100%{fill:var(--ce)}}.c.c1e{fill:var(--c1);animation-name:c1e}@keyframes c1f{54.19%{fill:var(--c2)}54.21%,100%{fill:var(--ce)}}.c.c1f{fill:var(--c2);animation-name:c1f}@keyframes c1g{54.48%{fill:var(--c2)}54.5%,100%{fill:var(--ce)}}.c.c1g{fill:var(--c2);animation-name:c1g}@keyframes c1h{38.83%{fill:var(--c1)}38.85%,100%{fill:var(--ce)}}.c.c1h{fill:var(--c1);animation-name:c1h}@keyframes c1i{47.82%{fill:var(--c2)}47.84%,100%{fill:var(--ce)}}.c.c1i{fill:var(--c2);animation-name:c1i}@keyframes c1j{46.66%{fill:var(--c1)}46.68%,100%{fill:var(--ce)}}.c.c1j{fill:var(--c1);animation-name:c1j}@keyframes c1k{40.28%{fill:var(--c1)}40.3%,100%{fill:var(--ce)}}.c.c1k{fill:var(--c1);animation-name:c1k}@keyframes c1l{84.63%{fill:var(--c3)}84.65%,100%{fill:var(--ce)}}.c.c1l{fill:var(--c3);animation-name:c1l}@keyframes c1m{45.5%{fill:var(--c1)}45.52%,100%{fill:var(--ce)}}.c.c1m{fill:var(--c1);animation-name:c1m}@keyframes c1n{45.79%{fill:var(--c1)}45.81%,100%{fill:var(--ce)}}.c.c1n{fill:var(--c1);animation-name:c1n}@keyframes c1o{44.92%{fill:var(--c1)}44.94%,100%{fill:var(--ce)}}.c.c1o{fill:var(--c1);animation-name:c1o}@keyframes c1p{44.63%{fill:var(--c1)}44.65%,100%{fill:var(--ce)}}.c.c1p{fill:var(--c1);animation-name:c1p}@keyframes c1q{49.85%{fill:var(--c2)}49.87%,100%{fill:var(--ce)}}.c.c1q{fill:var(--c2);animation-name:c1q}@keyframes c1r{41.44%{fill:var(--c1)}41.46%,100%{fill:var(--ce)}}.c.c1r{fill:var(--c1);animation-name:c1r}@keyframes c1s{42.31%{fill:var(--c1)}42.33%,100%{fill:var(--ce)}}.c.c1s{fill:var(--c1);animation-name:c1s}@keyframes c1t{42.6%{fill:var(--c1)}42.62%,100%{fill:var(--ce)}}.c.c1t{fill:var(--c1);animation-name:c1t}.u{transform-origin:0 0;transform:scale(0,1);animation:none linear 34500ms infinite}@keyframes u0{0.57%{transform:scale(0.000,1)}0.59%,0.86%{transform:scale(0.025,1)}0.88%,1.44%{transform:scale(0.050,1)}1.46%,2.89%{transform:scale(0.075,1)}2.91%,3.76%{transform:scale(0.100,1)}3.78%,4.63%{transform:scale(0.125,1)}4.65%,5.21%{transform:scale(0.150,1)}5.23%,5.5%{transform:scale(0.175,1)}5.52%,5.79%{transform:scale(0.200,1)}5.81%,6.08%{transform:scale(0.225,1)}6.1%,6.66%{transform:scale(0.250,1)}6.68%,7.24%{transform:scale(0.275,1)}7.26%,8.69%{transform:scale(0.300,1)}8.71%,9.27%{transform:scale(0.325,1)}9.29%,9.56%{transform:scale(0.350,1)}9.58%,11.87%{transform:scale(0.375,1)}11.89%,13.03%{transform:scale(0.400,1)}13.05%,13.32%{transform:scale(0.425,1)}13.34%,13.61%{transform:scale(0.450,1)}13.63%,14.77%{transform:scale(0.475,1)}14.79%,17.09%{transform:scale(0.500,1)}17.11%,17.67%{transform:scale(0.525,1)}17.69%,18.54%{transform:scale(0.550,1)}18.56%,21.15%{transform:scale(0.575,1)}21.17%,21.44%{transform:scale(0.600,1)}21.46%,24.34%{transform:scale(0.625,1)}24.36%,25.79%{transform:scale(0.650,1)}25.81%,27.53%{transform:scale(0.675,1)}27.55%,27.82%{transform:scale(0.700,1)}27.84%,28.4%{transform:scale(0.725,1)}28.42%,38.83%{transform:scale(0.750,1)}38.85%,40.28%{transform:scale(0.775,1)}40.3%,41.44%{transform:scale(0.800,1)}41.46%,42.31%{transform:scale(0.825,1)}42.33%,42.6%{transform:scale(0.850,1)}42.62%,44.63%{transform:scale(0.875,1)}44.65%,44.92%{transform:scale(0.900,1)}44.94%,45.5%{transform:scale(0.925,1)}45.52%,45.79%{transform:scale(0.950,1)}45.81%,46.66%{transform:scale(0.975,1)}46.68%,100%{transform:scale(1.000,1)}}.u.u0{fill:var(--c1);animation-name:u0;transform-origin:0.0px 0}@keyframes u1{47.82%{transform:scale(0.000,1)}47.84%,49.85%{transform:scale(0.067,1)}49.87%,54.19%{transform:scale(0.133,1)}54.21%,54.48%{transform:scale(0.200,1)}54.5%,58.83%{transform:scale(0.267,1)}58.85%,59.41%{transform:scale(0.333,1)}59.43%,59.7%{transform:scale(0.400,1)}59.72%,60.28%{transform:scale(0.467,1)}60.3%,60.57%{transform:scale(0.533,1)}60.59%,61.44%{transform:scale(0.600,1)}61.46%,62.31%{transform:scale(0.667,1)}62.33%,62.89%{transform:scale(0.733,1)}62.91%,64.34%{transform:scale(0.800,1)}64.36%,64.92%{transform:scale(0.867,1)}64.94%,66.95%{transform:scale(0.933,1)}66.97%,100%{transform:scale(1.000,1)}}.u.u1{fill:var(--c2);animation-name:u1;transform-origin:513.9px 0}@keyframes u2{69.56%{transform:scale(0.000,1)}69.58%,71.29%{transform:scale(0.143,1)}71.31%,72.45%{transform:scale(0.286,1)}72.47%,73.9%{transform:scale(0.429,1)}73.92%,74.19%{transform:scale(0.571,1)}74.21%,76.22%{transform:scale(0.714,1)}76.24%,84.63%{transform:scale(0.857,1)}84.65%,100%{transform:scale(1.000,1)}}.u.u2{fill:var(--c3);animation-name:u2;transform-origin:706.7px 0}@keyframes u3{93.9%{transform:scale(0.000,1)}93.92%,95.06%{transform:scale(0.250,1)}95.08%,97.09%{transform:scale(0.500,1)}97.11%,97.96%{transform:scale(0.750,1)}97.98%,100%{transform:scale(1.000,1)}}.u.u3{fill:var(--c4);animation-name:u3;transform-origin:796.6px 0}.s{shape-rendering:geometricPrecision;fill:var(--cs);animation:none linear 34500ms infinite}@keyframes s0{0%,99.71%{transform:translate(0px,-16px)}0.58%,1.74%{transform:translate(0px,16px)}0.87%{transform:translate(16px,16px)}1.16%{transform:translate(16px,32px)}1.45%{transform:translate(0px,32px)}2.61%{transform:translate(48px,16px)}2.9%{transform:translate(48px,0px)}3.19%,98.26%{transform:translate(64px,0px)}3.48%{transform:translate(64px,16px)}3.77%{transform:translate(80px,16px)}4.06%{transform:translate(80px,32px)}4.35%{transform:translate(96px,32px)}4.64%{transform:translate(96px,48px)}4.93%{transform:translate(80px,48px)}5.22%{transform:translate(80px,64px)}5.51%{transform:translate(64px,64px)}5.8%{transform:translate(64px,80px)}6.38%{transform:translate(96px,80px)}6.67%{transform:translate(96px,96px)}7.25%,95.36%{transform:translate(128px,96px)}7.54%{transform:translate(128px,112px)}8.41%{transform:translate(176px,112px)}8.99%{transform:translate(176px,80px)}9.28%{transform:translate(160px,80px)}9.57%,75.65%{transform:translate(160px,64px)}9.86%,63.77%,75.36%{transform:translate(176px,64px)}10.43%,63.19%{transform:translate(176px,32px)}11.01%{transform:translate(208px,32px)}11.59%,59.13%{transform:translate(208px,64px)}12.75%{transform:translate(272px,64px)}13.33%{transform:translate(272px,96px)}16.23%{transform:translate(432px,96px)}17.1%{transform:translate(432px,48px)}17.39%,53.91%{transform:translate(448px,48px)}17.97%{transform:translate(448px,16px)}18.55%{transform:translate(416px,16px)}18.84%{transform:translate(416px,0px)}21.45%{transform:translate(272px,0px)}21.74%{transform:translate(272px,-16px)}23.77%{transform:translate(160px,-16px)}24.35%,62.61%{transform:translate(160px,16px)}24.93%,96.81%{transform:translate(128px,16px)}25.8%,64.64%{transform:translate(128px,64px)}27.25%{transform:translate(48px,64px)}27.54%{transform:translate(48px,80px)}27.83%{transform:translate(32px,80px)}28.12%{transform:translate(32px,96px)}28.41%{transform:translate(16px,96px)}28.7%{transform:translate(16px,112px)}38.55%{transform:translate(560px,112px)}38.84%{transform:translate(560px,96px)}39.71%{transform:translate(608px,96px)}40%{transform:translate(608px,80px)}41.16%{transform:translate(672px,80px)}41.45%{transform:translate(672px,64px)}42.32%{transform:translate(720px,64px)}42.61%{transform:translate(720px,80px)}42.9%{transform:translate(704px,80px)}44.06%{transform:translate(704px,16px)}44.64%,49.28%{transform:translate(672px,16px)}44.93%{transform:translate(672px,0px)}45.51%{transform:translate(640px,0px)}45.8%{transform:translate(640px,16px)}46.38%,48.12%{transform:translate(608px,16px)}46.67%{transform:translate(608px,32px)}46.96%{transform:translate(624px,32px)}47.54%{transform:translate(624px,0px)}47.83%{transform:translate(608px,0px)}49.86%{transform:translate(672px,48px)}54.49%{transform:translate(448px,80px)}58.84%{transform:translate(208px,80px)}59.42%{transform:translate(192px,64px)}60.58%{transform:translate(192px,0px)}61.16%{transform:translate(224px,0px)}61.45%{transform:translate(224px,16px)}62.9%{transform:translate(160px,32px)}64.93%{transform:translate(128px,80px)}66.96%{transform:translate(16px,80px)}67.25%{transform:translate(16px,64px)}68.7%{transform:translate(96px,64px)}69.86%{transform:translate(96px,0px)}71.3%{transform:translate(176px,0px)}71.59%{transform:translate(176px,16px)}72.17%{transform:translate(144px,16px)}72.46%{transform:translate(144px,32px)}73.91%{transform:translate(224px,32px)}74.2%{transform:translate(224px,48px)}75.07%{transform:translate(176px,48px)}76.23%{transform:translate(160px,96px)}84.64%{transform:translate(624px,96px)}85.51%{transform:translate(624px,48px)}94.2%{transform:translate(144px,48px)}95.07%{transform:translate(144px,96px)}97.1%{transform:translate(112px,16px)}97.39%{transform:translate(112px,0px)}98.55%{transform:translate(64px,-16px)}}.s.s0{transform:translate(0px,-16px);animation-name:s0}@keyframes s1{0%,99.71%{transform:translate(16px,-16px)}0.29%{transform:translate(0px,-16px)}0.87%,2.03%{transform:translate(0px,16px)}1.16%{transform:translate(16px,16px)}1.45%{transform:translate(16px,32px)}1.74%{transform:translate(0px,32px)}2.9%{transform:translate(48px,16px)}3.19%{transform:translate(48px,0px)}3.48%,98.55%{transform:translate(64px,0px)}3.77%{transform:translate(64px,16px)}4.06%{transform:translate(80px,16px)}4.35%{transform:translate(80px,32px)}4.64%{transform:translate(96px,32px)}4.93%{transform:translate(96px,48px)}5.22%{transform:translate(80px,48px)}5.51%{transform:translate(80px,64px)}5.8%{transform:translate(64px,64px)}6.09%{transform:translate(64px,80px)}6.67%{transform:translate(96px,80px)}6.96%{transform:translate(96px,96px)}7.54%,95.65%{transform:translate(128px,96px)}7.83%{transform:translate(128px,112px)}8.7%{transform:translate(176px,112px)}9.28%{transform:translate(176px,80px)}9.57%{transform:translate(160px,80px)}9.86%,75.94%{transform:translate(160px,64px)}10.14%,64.06%,75.65%{transform:translate(176px,64px)}10.72%,63.48%{transform:translate(176px,32px)}11.3%{transform:translate(208px,32px)}11.88%,59.42%{transform:translate(208px,64px)}13.04%{transform:translate(272px,64px)}13.62%{transform:translate(272px,96px)}16.52%{transform:translate(432px,96px)}17.39%{transform:translate(432px,48px)}17.68%,54.2%{transform:translate(448px,48px)}18.26%{transform:translate(448px,16px)}18.84%{transform:translate(416px,16px)}19.13%{transform:translate(416px,0px)}21.74%{transform:translate(272px,0px)}22.03%{transform:translate(272px,-16px)}24.06%{transform:translate(160px,-16px)}24.64%,62.9%{transform:translate(160px,16px)}25.22%,97.1%{transform:translate(128px,16px)}26.09%,64.93%{transform:translate(128px,64px)}27.54%{transform:translate(48px,64px)}27.83%{transform:translate(48px,80px)}28.12%{transform:translate(32px,80px)}28.41%{transform:translate(32px,96px)}28.7%{transform:translate(16px,96px)}28.99%{transform:translate(16px,112px)}38.84%{transform:translate(560px,112px)}39.13%{transform:translate(560px,96px)}40%{transform:translate(608px,96px)}40.29%{transform:translate(608px,80px)}41.45%{transform:translate(672px,80px)}41.74%{transform:translate(672px,64px)}42.61%{transform:translate(720px,64px)}42.9%{transform:translate(720px,80px)}43.19%{transform:translate(704px,80px)}44.35%{transform:translate(704px,16px)}44.93%,49.57%{transform:translate(672px,16px)}45.22%{transform:translate(672px,0px)}45.8%{transform:translate(640px,0px)}46.09%{transform:translate(640px,16px)}46.67%,48.41%{transform:translate(608px,16px)}46.96%{transform:translate(608px,32px)}47.25%{transform:translate(624px,32px)}47.83%{transform:translate(624px,0px)}48.12%{transform:translate(608px,0px)}50.14%{transform:translate(672px,48px)}54.78%{transform:translate(448px,80px)}59.13%{transform:translate(208px,80px)}59.71%{transform:translate(192px,64px)}60.87%{transform:translate(192px,0px)}61.45%{transform:translate(224px,0px)}61.74%{transform:translate(224px,16px)}63.19%{transform:translate(160px,32px)}65.22%{transform:translate(128px,80px)}67.25%{transform:translate(16px,80px)}67.54%{transform:translate(16px,64px)}68.99%{transform:translate(96px,64px)}70.14%{transform:translate(96px,0px)}71.59%{transform:translate(176px,0px)}71.88%{transform:translate(176px,16px)}72.46%{transform:translate(144px,16px)}72.75%{transform:translate(144px,32px)}74.2%{transform:translate(224px,32px)}74.49%{transform:translate(224px,48px)}75.36%{transform:translate(176px,48px)}76.52%{transform:translate(160px,96px)}84.93%{transform:translate(624px,96px)}85.8%{transform:translate(624px,48px)}94.49%{transform:translate(144px,48px)}95.36%{transform:translate(144px,96px)}97.39%{transform:translate(112px,16px)}97.68%{transform:translate(112px,0px)}98.84%{transform:translate(64px,-16px)}}.s.s1{transform:translate(16px,-16px);animation-name:s1}@keyframes s2{0%,99.71%{transform:translate(32px,-16px)}0.58%{transform:translate(0px,-16px)}1.16%,2.32%{transform:translate(0px,16px)}1.45%{transform:translate(16px,16px)}1.74%{transform:translate(16px,32px)}2.03%{transform:translate(0px,32px)}3.19%{transform:translate(48px,16px)}3.48%{transform:translate(48px,0px)}3.77%,98.84%{transform:translate(64px,0px)}4.06%{transform:translate(64px,16px)}4.35%{transform:translate(80px,16px)}4.64%{transform:translate(80px,32px)}4.93%{transform:translate(96px,32px)}5.22%{transform:translate(96px,48px)}5.51%{transform:translate(80px,48px)}5.8%{transform:translate(80px,64px)}6.09%{transform:translate(64px,64px)}6.38%{transform:translate(64px,80px)}6.96%{transform:translate(96px,80px)}7.25%{transform:translate(96px,96px)}7.83%,95.94%{transform:translate(128px,96px)}8.12%{transform:translate(128px,112px)}8.99%{transform:translate(176px,112px)}9.57%{transform:translate(176px,80px)}9.86%{transform:translate(160px,80px)}10.14%,76.23%{transform:translate(160px,64px)}10.43%,64.35%,75.94%{transform:translate(176px,64px)}11.01%,63.77%{transform:translate(176px,32px)}11.59%{transform:translate(208px,32px)}12.17%,59.71%{transform:translate(208px,64px)}13.33%{transform:translate(272px,64px)}13.91%{transform:translate(272px,96px)}16.81%{transform:translate(432px,96px)}17.68%{transform:translate(432px,48px)}17.97%,54.49%{transform:translate(448px,48px)}18.55%{transform:translate(448px,16px)}19.13%{transform:translate(416px,16px)}19.42%{transform:translate(416px,0px)}22.03%{transform:translate(272px,0px)}22.32%{transform:translate(272px,-16px)}24.35%{transform:translate(160px,-16px)}24.93%,63.19%{transform:translate(160px,16px)}25.51%,97.39%{transform:translate(128px,16px)}26.38%,65.22%{transform:translate(128px,64px)}27.83%{transform:translate(48px,64px)}28.12%{transform:translate(48px,80px)}28.41%{transform:translate(32px,80px)}28.7%{transform:translate(32px,96px)}28.99%{transform:translate(16px,96px)}29.28%{transform:translate(16px,112px)}39.13%{transform:translate(560px,112px)}39.42%{transform:translate(560px,96px)}40.29%{transform:translate(608px,96px)}40.58%{transform:translate(608px,80px)}41.74%{transform:translate(672px,80px)}42.03%{transform:translate(672px,64px)}42.9%{transform:translate(720px,64px)}43.19%{transform:translate(720px,80px)}43.48%{transform:translate(704px,80px)}44.64%{transform:translate(704px,16px)}45.22%,49.86%{transform:translate(672px,16px)}45.51%{transform:translate(672px,0px)}46.09%{transform:translate(640px,0px)}46.38%{transform:translate(640px,16px)}46.96%,48.7%{transform:translate(608px,16px)}47.25%{transform:translate(608px,32px)}47.54%{transform:translate(624px,32px)}48.12%{transform:translate(624px,0px)}48.41%{transform:translate(608px,0px)}50.43%{transform:translate(672px,48px)}55.07%{transform:translate(448px,80px)}59.42%{transform:translate(208px,80px)}60%{transform:translate(192px,64px)}61.16%{transform:translate(192px,0px)}61.74%{transform:translate(224px,0px)}62.03%{transform:translate(224px,16px)}63.48%{transform:translate(160px,32px)}65.51%{transform:translate(128px,80px)}67.54%{transform:translate(16px,80px)}67.83%{transform:translate(16px,64px)}69.28%{transform:translate(96px,64px)}70.43%{transform:translate(96px,0px)}71.88%{transform:translate(176px,0px)}72.17%{transform:translate(176px,16px)}72.75%{transform:translate(144px,16px)}73.04%{transform:translate(144px,32px)}74.49%{transform:translate(224px,32px)}74.78%{transform:translate(224px,48px)}75.65%{transform:translate(176px,48px)}76.81%{transform:translate(160px,96px)}85.22%{transform:translate(624px,96px)}86.09%{transform:translate(624px,48px)}94.78%{transform:translate(144px,48px)}95.65%{transform:translate(144px,96px)}97.68%{transform:translate(112px,16px)}97.97%{transform:translate(112px,0px)}99.13%{transform:translate(64px,-16px)}}.s.s2{transform:translate(32px,-16px);animation-name:s2}@keyframes s3{0%,99.71%{transform:translate(48px,-16px)}0.87%{transform:translate(0px,-16px)}1.45%,2.61%{transform:translate(0px,16px)}1.74%{transform:translate(16px,16px)}2.03%{transform:translate(16px,32px)}2.32%{transform:translate(0px,32px)}3.48%{transform:translate(48px,16px)}3.77%{transform:translate(48px,0px)}4.06%,99.13%{transform:translate(64px,0px)}4.35%{transform:translate(64px,16px)}4.64%{transform:translate(80px,16px)}4.93%{transform:translate(80px,32px)}5.22%{transform:translate(96px,32px)}5.51%{transform:translate(96px,48px)}5.8%{transform:translate(80px,48px)}6.09%{transform:translate(80px,64px)}6.38%{transform:translate(64px,64px)}6.67%{transform:translate(64px,80px)}7.25%{transform:translate(96px,80px)}7.54%{transform:translate(96px,96px)}8.12%,96.23%{transform:translate(128px,96px)}8.41%{transform:translate(128px,112px)}9.28%{transform:translate(176px,112px)}9.86%{transform:translate(176px,80px)}10.14%{transform:translate(160px,80px)}10.43%,76.52%{transform:translate(160px,64px)}10.72%,64.64%,76.23%{transform:translate(176px,64px)}11.3%,64.06%{transform:translate(176px,32px)}11.88%{transform:translate(208px,32px)}12.46%,60%{transform:translate(208px,64px)}13.62%{transform:translate(272px,64px)}14.2%{transform:translate(272px,96px)}17.1%{transform:translate(432px,96px)}17.97%{transform:translate(432px,48px)}18.26%,54.78%{transform:translate(448px,48px)}18.84%{transform:translate(448px,16px)}19.42%{transform:translate(416px,16px)}19.71%{transform:translate(416px,0px)}22.32%{transform:translate(272px,0px)}22.61%{transform:translate(272px,-16px)}24.64%{transform:translate(160px,-16px)}25.22%,63.48%{transform:translate(160px,16px)}25.8%,97.68%{transform:translate(128px,16px)}26.67%,65.51%{transform:translate(128px,64px)}28.12%{transform:translate(48px,64px)}28.41%{transform:translate(48px,80px)}28.7%{transform:translate(32px,80px)}28.99%{transform:translate(32px,96px)}29.28%{transform:translate(16px,96px)}29.57%{transform:translate(16px,112px)}39.42%{transform:translate(560px,112px)}39.71%{transform:translate(560px,96px)}40.58%{transform:translate(608px,96px)}40.87%{transform:translate(608px,80px)}42.03%{transform:translate(672px,80px)}42.32%{transform:translate(672px,64px)}43.19%{transform:translate(720px,64px)}43.48%{transform:translate(720px,80px)}43.77%{transform:translate(704px,80px)}44.93%{transform:translate(704px,16px)}45.51%,50.14%{transform:translate(672px,16px)}45.8%{transform:translate(672px,0px)}46.38%{transform:translate(640px,0px)}46.67%{transform:translate(640px,16px)}47.25%,48.99%{transform:translate(608px,16px)}47.54%{transform:translate(608px,32px)}47.83%{transform:translate(624px,32px)}48.41%{transform:translate(624px,0px)}48.7%{transform:translate(608px,0px)}50.72%{transform:translate(672px,48px)}55.36%{transform:translate(448px,80px)}59.71%{transform:translate(208px,80px)}60.29%{transform:translate(192px,64px)}61.45%{transform:translate(192px,0px)}62.03%{transform:translate(224px,0px)}62.32%{transform:translate(224px,16px)}63.77%{transform:translate(160px,32px)}65.8%{transform:translate(128px,80px)}67.83%{transform:translate(16px,80px)}68.12%{transform:translate(16px,64px)}69.57%{transform:translate(96px,64px)}70.72%{transform:translate(96px,0px)}72.17%{transform:translate(176px,0px)}72.46%{transform:translate(176px,16px)}73.04%{transform:translate(144px,16px)}73.33%{transform:translate(144px,32px)}74.78%{transform:translate(224px,32px)}75.07%{transform:translate(224px,48px)}75.94%{transform:translate(176px,48px)}77.1%{transform:translate(160px,96px)}85.51%{transform:translate(624px,96px)}86.38%{transform:translate(624px,48px)}95.07%{transform:translate(144px,48px)}95.94%{transform:translate(144px,96px)}97.97%{transform:translate(112px,16px)}98.26%{transform:translate(112px,0px)}99.42%{transform:translate(64px,-16px)}}.s.s3{transform:translate(48px,-16px);animation-name:s3}</style><rect class="c" x="2" y="2" rx="2" ry="2"/><rect class="c c0" x="2" y="18" rx="2" ry="2"/><rect class="c c1" x="2" y="34" rx="2" ry="2"/><rect class="c" x="2" y="50" rx="2" ry="2"/><rect class="c" x="2" y="66" rx="2" ry="2"/><rect class="c" x="2" y="82" rx="2" ry="2"/><rect class="c" x="2" y="98" rx="2" ry="2"/><rect class="c" x="18" y="2" rx="2" ry="2"/><rect class="c c2" x="18" y="18" rx="2" ry="2"/><rect class="c" x="18" y="34" rx="2" ry="2"/><rect class="c" x="18" y="50" rx="2" ry="2"/><rect class="c" x="18" y="66" rx="2" ry="2"/><rect class="c c3" x="18" y="82" rx="2" ry="2"/><rect class="c c4" x="18" y="98" rx="2" ry="2"/><rect class="c" x="34" y="2" rx="2" ry="2"/><rect class="c" x="34" y="18" rx="2" ry="2"/><rect class="c" x="34" y="34" rx="2" ry="2"/><rect class="c" x="34" y="50" rx="2" ry="2"/><rect class="c" x="34" y="66" rx="2" ry="2"/><rect class="c c5" x="34" y="82" rx="2" ry="2"/><rect class="c" x="34" y="98" rx="2" ry="2"/><rect class="c c6" x="50" y="2" rx="2" ry="2"/><rect class="c" x="50" y="18" rx="2" ry="2"/><rect class="c" x="50" y="34" rx="2" ry="2"/><rect class="c" x="50" y="50" rx="2" ry="2"/><rect class="c" x="50" y="66" rx="2" ry="2"/><rect class="c c7" x="50" y="82" rx="2" ry="2"/><rect class="c" x="50" y="98" rx="2" ry="2"/><rect class="c" x="66" y="2" rx="2" ry="2"/><rect class="c" x="66" y="18" rx="2" ry="2"/><rect class="c" x="66" y="34" rx="2" ry="2"/><rect class="c" x="66" y="50" rx="2" ry="2"/><rect class="c c8" x="66" y="66" rx="2" ry="2"/><rect class="c c9" x="66" y="82" rx="2" ry="2"/><rect class="c" x="66" y="98" rx="2" ry="2"/><rect class="c ca" x="82" y="2" rx="2" ry="2"/><rect class="c cb" x="82" y="18" rx="2" ry="2"/><rect class="c" x="82" y="34" rx="2" ry="2"/><rect class="c" x="82" y="50" rx="2" ry="2"/><rect class="c cc" x="82" y="66" rx="2" ry="2"/><rect class="c cd" x="82" y="82" rx="2" ry="2"/><rect class="c" x="82" y="98" rx="2" ry="2"/><rect class="c" x="98" y="2" rx="2" ry="2"/><rect class="c ce" x="98" y="18" rx="2" ry="2"/><rect class="c" x="98" y="34" rx="2" ry="2"/><rect class="c cf" x="98" y="50" rx="2" ry="2"/><rect class="c" x="98" y="66" rx="2" ry="2"/><rect class="c" x="98" y="82" rx="2" ry="2"/><rect class="c cg" x="98" y="98" rx="2" ry="2"/><rect class="c" x="114" y="2" rx="2" ry="2"/><rect class="c ch" x="114" y="18" rx="2" ry="2"/><rect class="c" x="114" y="34" rx="2" ry="2"/><rect class="c" x="114" y="50" rx="2" ry="2"/><rect class="c" x="114" y="66" rx="2" ry="2"/><rect class="c" x="114" y="82" rx="2" ry="2"/><rect class="c" x="114" y="98" rx="2" ry="2"/><rect class="c" x="130" y="2" rx="2" ry="2"/><rect class="c" x="130" y="18" rx="2" ry="2"/><rect class="c" x="130" y="34" rx="2" ry="2"/><rect class="c" x="130" y="50" rx="2" ry="2"/><rect class="c ci" x="130" y="66" rx="2" ry="2"/><rect class="c cj" x="130" y="82" rx="2" ry="2"/><rect class="c ck" x="130" y="98" rx="2" ry="2"/><rect class="c" x="146" y="2" rx="2" ry="2"/><rect class="c" x="146" y="18" rx="2" ry="2"/><rect class="c cl" x="146" y="34" rx="2" ry="2"/><rect class="c" x="146" y="50" rx="2" ry="2"/><rect class="c cm" x="146" y="66" rx="2" ry="2"/><rect class="c" x="146" y="82" rx="2" ry="2"/><rect class="c cn" x="146" y="98" rx="2" ry="2"/><rect class="c" x="162" y="2" rx="2" ry="2"/><rect class="c co" x="162" y="18" rx="2" ry="2"/><rect class="c cp" x="162" y="34" rx="2" ry="2"/><rect class="c cq" x="162" y="50" rx="2" ry="2"/><rect class="c cr" x="162" y="66" rx="2" ry="2"/><rect class="c cs" x="162" y="82" rx="2" ry="2"/><rect class="c ct" x="162" y="98" rx="2" ry="2"/><rect class="c cu" x="178" y="2" rx="2" ry="2"/><rect class="c cv" x="178" y="18" rx="2" ry="2"/><rect class="c" x="178" y="34" rx="2" ry="2"/><rect class="c" x="178" y="50" rx="2" ry="2"/><rect class="c" x="178" y="66" rx="2" ry="2"/><rect class="c" x="178" y="82" rx="2" ry="2"/><rect class="c cw" x="178" y="98" rx="2" ry="2"/><rect class="c cx" x="194" y="2" rx="2" ry="2"/><rect class="c cy" x="194" y="18" rx="2" ry="2"/><rect class="c" x="194" y="34" rx="2" ry="2"/><rect class="c cz" x="194" y="50" rx="2" ry="2"/><rect class="c c10" x="194" y="66" rx="2" ry="2"/><rect class="c" x="194" y="82" rx="2" ry="2"/><rect class="c" x="194" y="98" rx="2" ry="2"/><rect class="c" x="210" y="2" rx="2" ry="2"/><rect class="c" x="210" y="18" rx="2" ry="2"/><rect class="c" x="210" y="34" rx="2" ry="2"/><rect class="c" x="210" y="50" rx="2" ry="2"/><rect class="c" x="210" y="66" rx="2" ry="2"/><rect class="c c11" x="210" y="82" rx="2" ry="2"/><rect class="c" x="210" y="98" rx="2" ry="2"/><rect class="c" x="226" y="2" rx="2" ry="2"/><rect class="c c12" x="226" y="18" rx="2" ry="2"/><rect class="c c13" x="226" y="34" rx="2" ry="2"/><rect class="c c14" x="226" y="50" rx="2" ry="2"/><rect class="c c15" x="226" y="66" rx="2" ry="2"/><rect class="c" x="226" y="82" rx="2" ry="2"/><rect class="c" x="226" y="98" rx="2" ry="2"/><rect class="c" x="242" y="2" rx="2" ry="2"/><rect class="c" x="242" y="18" rx="2" ry="2"/><rect class="c" x="242" y="34" rx="2" ry="2"/><rect class="c" x="242" y="50" rx="2" ry="2"/><rect class="c" x="242" y="66" rx="2" ry="2"/><rect class="c" x="242" y="82" rx="2" ry="2"/><rect class="c" x="242" y="98" rx="2" ry="2"/><rect class="c" x="258" y="2" rx="2" ry="2"/><rect class="c" x="258" y="18" rx="2" ry="2"/><rect class="c" x="258" y="34" rx="2" ry="2"/><rect class="c" x="258" y="50" rx="2" ry="2"/><rect class="c" x="258" y="66" rx="2" ry="2"/><rect class="c" x="258" y="82" rx="2" ry="2"/><rect class="c" x="258" y="98" rx="2" ry="2"/><rect class="c c16" x="274" y="2" rx="2" ry="2"/><rect class="c" x="274" y="18" rx="2" ry="2"/><rect class="c" x="274" y="34" rx="2" ry="2"/><rect class="c" x="274" y="50" rx="2" ry="2"/><rect class="c" x="274" y="66" rx="2" ry="2"/><rect class="c c17" x="274" y="82" rx="2" ry="2"/><rect class="c c18" x="274" y="98" rx="2" ry="2"/><rect class="c c19" x="290" y="2" rx="2" ry="2"/><rect class="c" x="290" y="18" rx="2" ry="2"/><rect class="c" x="290" y="34" rx="2" ry="2"/><rect class="c" x="290" y="50" rx="2" ry="2"/><rect class="c" x="290" y="66" rx="2" ry="2"/><rect class="c" x="290" y="82" rx="2" ry="2"/><rect class="c c1a" x="290" y="98" rx="2" ry="2"/><rect class="c" x="306" y="2" rx="2" ry="2"/><rect class="c" x="306" y="18" rx="2" ry="2"/><rect class="c" x="306" y="34" rx="2" ry="2"/><rect class="c" x="306" y="50" rx="2" ry="2"/><rect class="c" x="306" y="66" rx="2" ry="2"/><rect class="c" x="306" y="82" rx="2" ry="2"/><rect class="c" x="306" y="98" rx="2" ry="2"/><rect class="c" x="322" y="2" rx="2" ry="2"/><rect class="c" x="322" y="18" rx="2" ry="2"/><rect class="c" x="322" y="34" rx="2" ry="2"/><rect class="c" x="322" y="50" rx="2" ry="2"/><rect class="c" x="322" y="66" rx="2" ry="2"/><rect class="c" x="322" y="82" rx="2" ry="2"/><rect class="c" x="322" y="98" rx="2" ry="2"/><rect class="c" x="338" y="2" rx="2" ry="2"/><rect class="c" x="338" y="18" rx="2" ry="2"/><rect class="c" x="338" y="34" rx="2" ry="2"/><rect class="c" x="338" y="50" rx="2" ry="2"/><rect class="c" x="338" y="66" rx="2" ry="2"/><rect class="c" x="338" y="82" rx="2" ry="2"/><rect class="c" x="338" y="98" rx="2" ry="2"/><rect class="c" x="354" y="2" rx="2" ry="2"/><rect class="c" x="354" y="18" rx="2" ry="2"/><rect class="c" x="354" y="34" rx="2" ry="2"/><rect class="c" x="354" y="50" rx="2" ry="2"/><rect class="c" x="354" y="66" rx="2" ry="2"/><rect class="c" x="354" y="82" rx="2" ry="2"/><rect class="c c1b" x="354" y="98" rx="2" ry="2"/><rect class="c" x="370" y="2" rx="2" ry="2"/><rect class="c" x="370" y="18" rx="2" ry="2"/><rect class="c" x="370" y="34" rx="2" ry="2"/><rect class="c" x="370" y="50" rx="2" ry="2"/><rect class="c" x="370" y="66" rx="2" ry="2"/><rect class="c" x="370" y="82" rx="2" ry="2"/><rect class="c" x="370" y="98" rx="2" ry="2"/><rect class="c" x="386" y="2" rx="2" ry="2"/><rect class="c" x="386" y="18" rx="2" ry="2"/><rect class="c" x="386" y="34" rx="2" ry="2"/><rect class="c" x="386" y="50" rx="2" ry="2"/><rect class="c" x="386" y="66" rx="2" ry="2"/><rect class="c" x="386" y="82" rx="2" ry="2"/><rect class="c" x="386" y="98" rx="2" ry="2"/><rect class="c" x="402" y="2" rx="2" ry="2"/><rect class="c" x="402" y="18" rx="2" ry="2"/><rect class="c" x="402" y="34" rx="2" ry="2"/><rect class="c" x="402" y="50" rx="2" ry="2"/><rect class="c" x="402" y="66" rx="2" ry="2"/><rect class="c" x="402" y="82" rx="2" ry="2"/><rect class="c" x="402" y="98" rx="2" ry="2"/><rect class="c" x="418" y="2" rx="2" ry="2"/><rect class="c c1c" x="418" y="18" rx="2" ry="2"/><rect class="c" x="418" y="34" rx="2" ry="2"/><rect class="c" x="418" y="50" rx="2" ry="2"/><rect class="c" x="418" y="66" rx="2" ry="2"/><rect class="c" x="418" y="82" rx="2" ry="2"/><rect class="c" x="418" y="98" rx="2" ry="2"/><rect class="c" x="434" y="2" rx="2" ry="2"/><rect class="c" x="434" y="18" rx="2" ry="2"/><rect class="c" x="434" y="34" rx="2" ry="2"/><rect class="c c1d" x="434" y="50" rx="2" ry="2"/><rect class="c" x="434" y="66" rx="2" ry="2"/><rect class="c" x="434" y="82" rx="2" ry="2"/><rect class="c" x="434" y="98" rx="2" ry="2"/><rect class="c" x="450" y="2" rx="2" ry="2"/><rect class="c" x="450" y="18" rx="2" ry="2"/><rect class="c c1e" x="450" y="34" rx="2" ry="2"/><rect class="c" x="450" y="50" rx="2" ry="2"/><rect class="c c1f" x="450" y="66" rx="2" ry="2"/><rect class="c c1g" x="450" y="82" rx="2" ry="2"/><rect class="c" x="450" y="98" rx="2" ry="2"/><rect class="c" x="466" y="2" rx="2" ry="2"/><rect class="c" x="466" y="18" rx="2" ry="2"/><rect class="c" x="466" y="34" rx="2" ry="2"/><rect class="c" x="466" y="50" rx="2" ry="2"/><rect class="c" x="466" y="66" rx="2" ry="2"/><rect class="c" x="466" y="82" rx="2" ry="2"/><rect class="c" x="466" y="98" rx="2" ry="2"/><rect class="c" x="482" y="2" rx="2" ry="2"/><rect class="c" x="482" y="18" rx="2" ry="2"/><rect class="c" x="482" y="34" rx="2" ry="2"/><rect class="c" x="482" y="50" rx="2" ry="2"/><rect class="c" x="482" y="66" rx="2" ry="2"/><rect class="c" x="482" y="82" rx="2" ry="2"/><rect class="c" x="482" y="98" rx="2" ry="2"/><rect class="c" x="498" y="2" rx="2" ry="2"/><rect class="c" x="498" y="18" rx="2" ry="2"/><rect class="c" x="498" y="34" rx="2" ry="2"/><rect class="c" x="498" y="50" rx="2" ry="2"/><rect class="c" x="498" y="66" rx="2" ry="2"/><rect class="c" x="498" y="82" rx="2" ry="2"/><rect class="c" x="498" y="98" rx="2" ry="2"/><rect class="c" x="514" y="2" rx="2" ry="2"/><rect class="c" x="514" y="18" rx="2" ry="2"/><rect class="c" x="514" y="34" rx="2" ry="2"/><rect class="c" x="514" y="50" rx="2" ry="2"/><rect class="c" x="514" y="66" rx="2" ry="2"/><rect class="c" x="514" y="82" rx="2" ry="2"/><rect class="c" x="514" y="98" rx="2" ry="2"/><rect class="c" x="530" y="2" rx="2" ry="2"/><rect class="c" x="530" y="18" rx="2" ry="2"/><rect class="c" x="530" y="34" rx="2" ry="2"/><rect class="c" x="530" y="50" rx="2" ry="2"/><rect class="c" x="530" y="66" rx="2" ry="2"/><rect class="c" x="530" y="82" rx="2" ry="2"/><rect class="c" x="530" y="98" rx="2" ry="2"/><rect class="c" x="546" y="2" rx="2" ry="2"/><rect class="c" x="546" y="18" rx="2" ry="2"/><rect class="c" x="546" y="34" rx="2" ry="2"/><rect class="c" x="546" y="50" rx="2" ry="2"/><rect class="c" x="546" y="66" rx="2" ry="2"/><rect class="c" x="546" y="82" rx="2" ry="2"/><rect class="c" x="546" y="98" rx="2" ry="2"/><rect class="c" x="562" y="2" rx="2" ry="2"/><rect class="c" x="562" y="18" rx="2" ry="2"/><rect class="c" x="562" y="34" rx="2" ry="2"/><rect class="c" x="562" y="50" rx="2" ry="2"/><rect class="c" x="562" y="66" rx="2" ry="2"/><rect class="c" x="562" y="82" rx="2" ry="2"/><rect class="c c1h" x="562" y="98" rx="2" ry="2"/><rect class="c" x="578" y="2" rx="2" ry="2"/><rect class="c" x="578" y="18" rx="2" ry="2"/><rect class="c" x="578" y="34" rx="2" ry="2"/><rect class="c" x="578" y="50" rx="2" ry="2"/><rect class="c" x="578" y="66" rx="2" ry="2"/><rect class="c" x="578" y="82" rx="2" ry="2"/><rect class="c" x="578" y="98" rx="2" ry="2"/><rect class="c" x="594" y="2" rx="2" ry="2"/><rect class="c" x="594" y="18" rx="2" ry="2"/><rect class="c" x="594" y="34" rx="2" ry="2"/><rect class="c" x="594" y="50" rx="2" ry="2"/><rect class="c" x="594" y="66" rx="2" ry="2"/><rect class="c" x="594" y="82" rx="2" ry="2"/><rect class="c" x="594" y="98" rx="2" ry="2"/><rect class="c c1i" x="610" y="2" rx="2" ry="2"/><rect class="c" x="610" y="18" rx="2" ry="2"/><rect class="c c1j" x="610" y="34" rx="2" ry="2"/><rect class="c" x="610" y="50" rx="2" ry="2"/><rect class="c" x="610" y="66" rx="2" ry="2"/><rect class="c" x="610" y="82" rx="2" ry="2"/><rect class="c" x="610" y="98" rx="2" ry="2"/><rect class="c" x="626" y="2" rx="2" ry="2"/><rect class="c" x="626" y="18" rx="2" ry="2"/><rect class="c" x="626" y="34" rx="2" ry="2"/><rect class="c" x="626" y="50" rx="2" ry="2"/><rect class="c" x="626" y="66" rx="2" ry="2"/><rect class="c c1k" x="626" y="82" rx="2" ry="2"/><rect class="c c1l" x="626" y="98" rx="2" ry="2"/><rect class="c c1m" x="642" y="2" rx="2" ry="2"/><rect class="c c1n" x="642" y="18" rx="2" ry="2"/><rect class="c" x="642" y="34" rx="2" ry="2"/><rect class="c" x="642" y="50" rx="2" ry="2"/><rect class="c" x="642" y="66" rx="2" ry="2"/><rect class="c" x="642" y="82" rx="2" ry="2"/><rect class="c" x="642" y="98" rx="2" ry="2"/><rect class="c" x="658" y="2" rx="2" ry="2"/><rect class="c" x="658" y="18" rx="2" ry="2"/><rect class="c" x="658" y="34" rx="2" ry="2"/><rect class="c" x="658" y="50" rx="2" ry="2"/><rect class="c" x="658" y="66" rx="2" ry="2"/><rect class="c" x="658" y="82" rx="2" ry="2"/><rect class="c" x="658" y="98" rx="2" ry="2"/><rect class="c c1o" x="674" y="2" rx="2" ry="2"/><rect class="c c1p" x="674" y="18" rx="2" ry="2"/><rect class="c" x="674" y="34" rx="2" ry="2"/><rect class="c c1q" x="674" y="50" rx="2" ry="2"/><rect class="c c1r" x="674" y="66" rx="2" ry="2"/><rect class="c" x="674" y="82" rx="2" ry="2"/><rect class="c" x="674" y="98" rx="2" ry="2"/><rect class="c" x="690" y="2" rx="2" ry="2"/><rect class="c" x="690" y="18" rx="2" ry="2"/><rect class="c" x="690" y="34" rx="2" ry="2"/><rect class="c" x="690" y="50" rx="2" ry="2"/><rect class="c" x="690" y="66" rx="2" ry="2"/><rect class="c" x="690" y="82" rx="2" ry="2"/><rect class="c" x="690" y="98" rx="2" ry="2"/><rect class="c" x="706" y="2" rx="2" ry="2"/><rect class="c" x="706" y="18" rx="2" ry="2"/><rect class="c" x="706" y="34" rx="2" ry="2"/><rect class="c" x="706" y="50" rx="2" ry="2"/><rect class="c" x="706" y="66" rx="2" ry="2"/><rect class="c" x="706" y="82" rx="2" ry="2"/><rect class="c" x="706" y="98" rx="2" ry="2"/><rect class="c" x="722" y="2" rx="2" ry="2"/><rect class="c" x="722" y="18" rx="2" ry="2"/><rect class="c" x="722" y="34" rx="2" ry="2"/><rect class="c" x="722" y="50" rx="2" ry="2"/><rect class="c c1s" x="722" y="66" rx="2" ry="2"/><rect class="c c1t" x="722" y="82" rx="2" ry="2"/><rect class="c" x="722" y="98" rx="2" ry="2"/><rect class="c" x="738" y="2" rx="2" ry="2"/><rect class="c" x="738" y="18" rx="2" ry="2"/><rect class="c" x="738" y="34" rx="2" ry="2"/><rect class="c" x="738" y="50" rx="2" ry="2"/><rect class="c" x="738" y="66" rx="2" ry="2"/><rect class="c" x="738" y="82" rx="2" ry="2"/><rect class="c" x="738" y="98" rx="2" ry="2"/><rect class="c" x="754" y="2" rx="2" ry="2"/><rect class="c" x="754" y="18" rx="2" ry="2"/><rect class="c" x="754" y="34" rx="2" ry="2"/><rect class="c" x="754" y="50" rx="2" ry="2"/><rect class="c" x="754" y="66" rx="2" ry="2"/><rect class="c" x="754" y="82" rx="2" ry="2"/><rect class="c" x="754" y="98" rx="2" ry="2"/><rect class="c" x="770" y="2" rx="2" ry="2"/><rect class="c" x="770" y="18" rx="2" ry="2"/><rect class="c" x="770" y="34" rx="2" ry="2"/><rect class="c" x="770" y="50" rx="2" ry="2"/><rect class="c" x="770" y="66" rx="2" ry="2"/><rect class="c" x="770" y="82" rx="2" ry="2"/><rect class="c" x="770" y="98" rx="2" ry="2"/><rect class="c" x="786" y="2" rx="2" ry="2"/><rect class="c" x="786" y="18" rx="2" ry="2"/><rect class="c" x="786" y="34" rx="2" ry="2"/><rect class="c" x="786" y="50" rx="2" ry="2"/><rect class="c" x="786" y="66" rx="2" ry="2"/><rect class="c" x="786" y="82" rx="2" ry="2"/><rect class="c" x="786" y="98" rx="2" ry="2"/><rect class="c" x="802" y="2" rx="2" ry="2"/><rect class="c" x="802" y="18" rx="2" ry="2"/><rect class="c" x="802" y="34" rx="2" ry="2"/><rect class="c" x="802" y="50" rx="2" ry="2"/><rect class="c" x="802" y="66" rx="2" ry="2"/><rect class="c" x="802" y="82" rx="2" ry="2"/><rect class="c" x="802" y="98" rx="2" ry="2"/><rect class="c" x="818" y="2" rx="2" ry="2"/><rect class="c" x="818" y="18" rx="2" ry="2"/><rect class="c" x="818" y="34" rx="2" ry="2"/><rect class="c" x="818" y="50" rx="2" ry="2"/><rect class="c" x="818" y="66" rx="2" ry="2"/><rect class="c" x="818" y="82" rx="2" ry="2"/><rect class="c" x="818" y="98" rx="2" ry="2"/><rect class="c" x="834" y="2" rx="2" ry="2"/><rect class="c" x="834" y="18" rx="2" ry="2"/><rect class="c" x="834" y="34" rx="2" ry="2"/><rect class="c" x="834" y="50" rx="2" ry="2"/><rect class="u u0" height="12" width="514.5" x="0.0" y="144"/><rect class="u u1" height="12" width="193.3" x="513.9" y="144"/><rect class="u u2" height="12" width="90.5" x="706.7" y="144"/><rect class="u u3" height="12" width="52.0" x="796.6" y="144"/><rect class="s s0" x="0.8" y="0.8" width="14.4" height="14.4" rx="4.5" ry="4.5"/><rect class="s s1" x="1.8" y="1.8" width="12.3" height="12.3" rx="4.1" ry="4.1"/><rect class="s s2" x="2.6" y="2.6" width="10.8" height="10.8" rx="3.6" ry="3.6"/><rect class="s s3" x="3.0" y="3.0" width="9.9" height="9.9" rx="3.3" ry="3.3"/></svg>