<svg viewBox="-16 -32 880 192" width="880" height="192" xmlns="http://www.w3.org/2000/svg"><desc>Generated with https://github.com/Platane/snk</desc><style>:root{--cb:#1b1f230a;--cs:white;--ce:#0a0e12;--c0:#0a0e12;--c1:#1445a2;--c2:#1d65ee;--c3:#1f4eff;--c4:#466dff}.c{shape-rendering:geometricPrecision;fill:var(--ce);stroke-width:1px;stroke:var(--cb);animation:none 40900ms linear infinite;width:12px;height:12px}@keyframes c0{35.69%{fill:var(--c2)}35.71%,100%{fill:var(--ce)}}.c.c0{fill:var(--c2);animation-name:c0}@keyframes c1{75.05%{fill:var(--c4)}75.07%,100%{fill:var(--ce)}}.c.c1{fill:var(--c4);animation-name:c1}@keyframes c2{74.81%{fill:var(--c4)}74.83%,100%{fill:var(--ce)}}.c.c2{fill:var(--c4);animation-name:c2}@keyframes c3{34.46%{fill:var(--c1)}34.48%,100%{fill:var(--ce)}}.c.c3{fill:var(--c1);animation-name:c3}@keyframes c4{36.66%{fill:var(--c2)}36.68%,100%{fill:var(--ce)}}.c.c4{fill:var(--c2);animation-name:c4}@keyframes c5{3.17%{fill:var(--c1)}3.19%,100%{fill:var(--ce)}}.c.c5{fill:var(--c1);animation-name:c5}@keyframes c6{3.41%{fill:var(--c1)}3.43%,100%{fill:var(--ce)}}.c.c6{fill:var(--c1);animation-name:c6}@keyframes c7{1.7%{fill:var(--c1)}1.72%,100%{fill:var(--ce)}}.c.c7{fill:var(--c1);animation-name:c7}@keyframes c8{3.66%{fill:var(--c1)}3.68%,100%{fill:var(--ce)}}.c.c8{fill:var(--c1);animation-name:c8}@keyframes c9{4.64%{fill:var(--c1)}4.66%,100%{fill:var(--ce)}}.c.c9{fill:var(--c1);animation-name:c9}@keyframes ca{7.81%{fill:var(--c1)}7.83%,100%{fill:var(--ce)}}.c.ca{fill:var(--c1);animation-name:ca}@keyframes cb{6.59%{fill:var(--c1)}6.61%,100%{fill:var(--ce)}}.c.cb{fill:var(--c1);animation-name:cb}@keyframes cc{7.08%{fill:var(--c1)}7.1%,100%{fill:var(--ce)}}.c.cc{fill:var(--c1);animation-name:cc}@keyframes cd{40.33%{fill:var(--c2)}40.35%,100%{fill:var(--ce)}}.c.cd{fill:var(--c2);animation-name:cd}@keyframes ce{65.03%{fill:var(--c3)}65.05%,100%{fill:var(--ce)}}.c.ce{fill:var(--c3);animation-name:ce}@keyframes cf{42.53%{fill:var(--c2)}42.55%,100%{fill:var(--ce)}}.c.cf{fill:var(--c2);animation-name:cf}@keyframes cg{45.22%{fill:var(--c2)}45.24%,100%{fill:var(--ce)}}.c.cg{fill:var(--c2);animation-name:cg}@keyframes ch{10.99%{fill:var(--c1)}11.01%,100%{fill:var(--ce)}}.c.ch{fill:var(--c1);animation-name:ch}@keyframes ci{43.76%{fill:var(--c2)}43.78%,100%{fill:var(--ce)}}.c.ci{fill:var(--c2);animation-name:ci}@keyframes cj{67.96%{fill:var(--c4)}67.98%,100%{fill:var(--ce)}}.c.cj{fill:var(--c4);animation-name:cj}@keyframes ck{11.97%{fill:var(--c1)}11.99%,100%{fill:var(--ce)}}.c.ck{fill:var(--c1);animation-name:ck}@keyframes cl{11.73%{fill:var(--c1)}11.75%,100%{fill:var(--ce)}}.c.cl{fill:var(--c1);animation-name:cl}@keyframes cm{12.46%{fill:var(--c1)}12.48%,100%{fill:var(--ce)}}.c.cm{fill:var(--c1);animation-name:cm}@keyframes cn{12.7%{fill:var(--c1)}12.72%,100%{fill:var(--ce)}}.c.cn{fill:var(--c1);animation-name:cn}@keyframes co{61.11%{fill:var(--c3)}61.13%,100%{fill:var(--ce)}}.c.co{fill:var(--c3);animation-name:co}@keyframes cp{13.93%{fill:var(--c1)}13.95%,100%{fill:var(--ce)}}.c.cp{fill:var(--c1);animation-name:cp}@keyframes cq{15.15%{fill:var(--c1)}15.17%,100%{fill:var(--ce)}}.c.cq{fill:var(--c1);animation-name:cq}@keyframes cr{14.9%{fill:var(--c1)}14.92%,100%{fill:var(--ce)}}.c.cr{fill:var(--c1);animation-name:cr}@keyframes cs{17.1%{fill:var(--c1)}17.12%,100%{fill:var(--ce)}}.c.cs{fill:var(--c1);animation-name:cs}@keyframes ct{58.18%{fill:var(--c3)}58.2%,100%{fill:var(--ce)}}.c.ct{fill:var(--c3);animation-name:ct}@keyframes cu{17.35%{fill:var(--c1)}17.37%,100%{fill:var(--ce)}}.c.cu{fill:var(--c1);animation-name:cu}@keyframes cv{18.08%{fill:var(--c1)}18.1%,100%{fill:var(--ce)}}.c.cv{fill:var(--c1);animation-name:cv}@keyframes cw{18.57%{fill:var(--c1)}18.59%,100%{fill:var(--ce)}}.c.cw{fill:var(--c1);animation-name:cw}@keyframes cx{50.36%{fill:var(--c2)}50.38%,100%{fill:var(--ce)}}.c.cx{fill:var(--c2);animation-name:cx}@keyframes cy{51.58%{fill:var(--c2)}51.6%,100%{fill:var(--ce)}}.c.cy{fill:var(--c2);animation-name:cy}@keyframes cz{20.28%{fill:var(--c1)}20.3%,100%{fill:var(--ce)}}.c.cz{fill:var(--c1);animation-name:cz}@keyframes c10{20.04%{fill:var(--c1)}20.06%,100%{fill:var(--ce)}}.c.c10{fill:var(--c1);animation-name:c10}@keyframes c11{19.55%{fill:var(--c1)}19.57%,100%{fill:var(--ce)}}.c.c11{fill:var(--c1);animation-name:c11}@keyframes c12{22.73%{fill:var(--c1)}22.75%,100%{fill:var(--ce)}}.c.c12{fill:var(--c1);animation-name:c12}@keyframes c13{52.56%{fill:var(--c2)}52.58%,100%{fill:var(--ce)}}.c.c13{fill:var(--c2);animation-name:c13}@keyframes c14{53.29%{fill:var(--c2)}53.31%,100%{fill:var(--ce)}}.c.c14{fill:var(--c2);animation-name:c14}@keyframes c15{21.75%{fill:var(--c1)}21.77%,100%{fill:var(--ce)}}.c.c15{fill:var(--c1);animation-name:c15}@keyframes c16{55.25%{fill:var(--c2)}55.27%,100%{fill:var(--ce)}}.c.c16{fill:var(--c2);animation-name:c16}@keyframes c17{87.28%{fill:var(--c4)}87.3%,100%{fill:var(--ce)}}.c.c17{fill:var(--c4);animation-name:c17}@keyframes c18{53.78%{fill:var(--c2)}53.8%,100%{fill:var(--ce)}}.c.c18{fill:var(--c2);animation-name:c18}.u{transform-origin:0 0;transform:scale(0,1);animation:none linear 40900ms infinite}@keyframes u0{1.7%{transform:scale(0.000,1)}1.72%,3.17%{transform:scale(0.038,1)}3.19%,3.41%{transform:scale(0.077,1)}3.43%,3.66%{transform:scale(0.115,1)}3.68%,4.64%{transform:scale(0.154,1)}4.66%,6.59%{transform:scale(0.192,1)}6.61%,7.08%{transform:scale(0.231,1)}7.1%,7.81%{transform:scale(0.269,1)}7.83%,10.99%{transform:scale(0.308,1)}11.01%,11.73%{transform:scale(0.346,1)}11.75%,11.97%{transform:scale(0.385,1)}11.99%,12.46%{transform:scale(0.423,1)}12.48%,12.7%{transform:scale(0.462,1)}12.72%,13.93%{transform:scale(0.500,1)}13.95%,14.9%{transform:scale(0.538,1)}14.92%,15.15%{transform:scale(0.577,1)}15.17%,17.1%{transform:scale(0.615,1)}17.12%,17.35%{transform:scale(0.654,1)}17.37%,18.08%{transform:scale(0.692,1)}18.1%,18.57%{transform:scale(0.731,1)}18.59%,19.55%{transform:scale(0.769,1)}19.57%,20.04%{transform:scale(0.808,1)}20.06%,20.28%{transform:scale(0.846,1)}20.3%,21.75%{transform:scale(0.885,1)}21.77%,22.73%{transform:scale(0.923,1)}22.75%,34.46%{transform:scale(0.962,1)}34.48%,100%{transform:scale(1.000,1)}}.u.u0{fill:var(--c1);animation-name:u0;transform-origin:0.0px 0}@keyframes u1{35.69%{transform:scale(0.000,1)}35.71%,36.66%{transform:scale(0.083,1)}36.68%,40.33%{transform:scale(0.167,1)}40.35%,42.53%{transform:scale(0.250,1)}42.55%,43.76%{transform:scale(0.333,1)}43.78%,45.22%{transform:scale(0.417,1)}45.24%,50.36%{transform:scale(0.500,1)}50.38%,51.58%{transform:scale(0.583,1)}51.6%,52.56%{transform:scale(0.667,1)}52.58%,53.29%{transform:scale(0.750,1)}53.31%,53.78%{transform:scale(0.833,1)}53.8%,55.25%{transform:scale(0.917,1)}55.27%,100%{transform:scale(1.000,1)}}.u.u1{fill:var(--c2);animation-name:u1;transform-origin:490.0px 0}@keyframes u2{58.18%{transform:scale(0.000,1)}58.2%,61.11%{transform:scale(0.333,1)}61.13%,65.03%{transform:scale(0.667,1)}65.05%,100%{transform:scale(1.000,1)}}.u.u2{fill:var(--c3);animation-name:u2;transform-origin:716.1px 0}@keyframes u3{67.96%{transform:scale(0.000,1)}67.98%,74.81%{transform:scale(0.250,1)}74.83%,75.05%{transform:scale(0.500,1)}75.07%,87.28%{transform:scale(0.750,1)}87.3%,100%{transform:scale(1.000,1)}}.u.u3{fill:var(--c4);animation-name:u3;transform-origin:772.6px 0}.s{shape-rendering:geometricPrecision;fill:var(--cs);animation:none linear 40900ms infinite}@keyframes s0{0%,99.76%{transform:translate(0px,-16px)}0.24%{transform:translate(0px,-32px)}1.22%{transform:translate(64px,-32px)}1.96%{transform:translate(64px,16px)}2.2%,36.43%{transform:translate(48px,16px)}3.42%{transform:translate(48px,96px)}5.87%{transform:translate(208px,96px)}6.6%{transform:translate(208px,48px)}6.85%,64.55%{transform:translate(224px,48px)}7.33%{transform:translate(224px,16px)}7.82%{transform:translate(192px,16px)}8.07%{transform:translate(192px,32px)}11.49%{transform:translate(416px,32px)}11.98%{transform:translate(416px,0px)}12.47%{transform:translate(448px,0px)}12.71%{transform:translate(448px,16px)}12.96%{transform:translate(464px,16px)}13.69%{transform:translate(464px,64px)}13.94%{transform:translate(448px,64px)}14.18%{transform:translate(448px,80px)}14.91%{transform:translate(496px,80px)}15.16%{transform:translate(496px,64px)}16.87%{transform:translate(608px,64px)}17.11%{transform:translate(608px,48px)}17.6%{transform:translate(640px,48px)}18.09%{transform:translate(640px,80px)}18.58%{transform:translate(672px,80px)}18.83%{transform:translate(672px,64px)}19.32%{transform:translate(704px,64px)}20.29%{transform:translate(704px,0px)}21.27%{transform:translate(768px,0px)}21.76%{transform:translate(768px,32px)}22.25%{transform:translate(736px,32px)}22.74%{transform:translate(736px,64px)}27.38%{transform:translate(432px,64px)}27.63%{transform:translate(432px,48px)}33.99%{transform:translate(16px,48px)}34.23%{transform:translate(16px,64px)}34.72%{transform:translate(-16px,64px)}35.45%{transform:translate(-16px,16px)}36.67%{transform:translate(48px,0px)}39.36%{transform:translate(224px,0px)}40.34%{transform:translate(224px,64px)}42.05%{transform:translate(336px,64px)}42.54%{transform:translate(336px,96px)}43.28%,68.22%{transform:translate(384px,96px)}43.52%{transform:translate(384px,80px)}43.77%,67.73%{transform:translate(400px,80px)}44.99%{transform:translate(400px,0px)}45.23%{transform:translate(384px,0px)}45.48%{transform:translate(384px,-16px)}50.12%{transform:translate(688px,-16px)}51.59%{transform:translate(688px,80px)}52.32%{transform:translate(736px,80px)}52.57%{transform:translate(736px,96px)}52.81%{transform:translate(752px,96px)}53.3%{transform:translate(752px,64px)}54.03%{transform:translate(800px,64px)}55.01%{transform:translate(800px,0px)}57.7%{transform:translate(624px,0px)}58.19%{transform:translate(624px,32px)}60.88%{transform:translate(448px,32px)}61.12%{transform:translate(448px,48px)}65.04%{transform:translate(224px,80px)}67.97%{transform:translate(400px,96px)}68.95%{transform:translate(384px,48px)}74.82%{transform:translate(0px,48px)}75.06%{transform:translate(0px,32px)}87.04%{transform:translate(784px,32px)}87.29%{transform:translate(784px,16px)}96.58%{transform:translate(176px,16px)}97.07%{transform:translate(176px,-16px)}}.s.s0{transform:translate(0px,-16px);animation-name:s0}@keyframes s1{0%,99.76%{transform:translate(16px,-16px)}0.24%{transform:translate(0px,-16px)}0.49%{transform:translate(0px,-32px)}1.47%{transform:translate(64px,-32px)}2.2%{transform:translate(64px,16px)}2.44%,36.67%{transform:translate(48px,16px)}3.67%{transform:translate(48px,96px)}6.11%{transform:translate(208px,96px)}6.85%{transform:translate(208px,48px)}7.09%,64.79%{transform:translate(224px,48px)}7.58%{transform:translate(224px,16px)}8.07%{transform:translate(192px,16px)}8.31%{transform:translate(192px,32px)}11.74%{transform:translate(416px,32px)}12.22%{transform:translate(416px,0px)}12.71%{transform:translate(448px,0px)}12.96%{transform:translate(448px,16px)}13.2%{transform:translate(464px,16px)}13.94%{transform:translate(464px,64px)}14.18%{transform:translate(448px,64px)}14.43%{transform:translate(448px,80px)}15.16%{transform:translate(496px,80px)}15.4%{transform:translate(496px,64px)}17.11%{transform:translate(608px,64px)}17.36%{transform:translate(608px,48px)}17.85%{transform:translate(640px,48px)}18.34%{transform:translate(640px,80px)}18.83%{transform:translate(672px,80px)}19.07%{transform:translate(672px,64px)}19.56%{transform:translate(704px,64px)}20.54%{transform:translate(704px,0px)}21.52%{transform:translate(768px,0px)}22%{transform:translate(768px,32px)}22.49%{transform:translate(736px,32px)}22.98%{transform:translate(736px,64px)}27.63%{transform:translate(432px,64px)}27.87%{transform:translate(432px,48px)}34.23%{transform:translate(16px,48px)}34.47%{transform:translate(16px,64px)}34.96%{transform:translate(-16px,64px)}35.7%{transform:translate(-16px,16px)}36.92%{transform:translate(48px,0px)}39.61%{transform:translate(224px,0px)}40.59%{transform:translate(224px,64px)}42.3%{transform:translate(336px,64px)}42.79%{transform:translate(336px,96px)}43.52%,68.46%{transform:translate(384px,96px)}43.77%{transform:translate(384px,80px)}44.01%,67.97%{transform:translate(400px,80px)}45.23%{transform:translate(400px,0px)}45.48%{transform:translate(384px,0px)}45.72%{transform:translate(384px,-16px)}50.37%{transform:translate(688px,-16px)}51.83%{transform:translate(688px,80px)}52.57%{transform:translate(736px,80px)}52.81%{transform:translate(736px,96px)}53.06%{transform:translate(752px,96px)}53.55%{transform:translate(752px,64px)}54.28%{transform:translate(800px,64px)}55.26%{transform:translate(800px,0px)}57.95%{transform:translate(624px,0px)}58.44%{transform:translate(624px,32px)}61.12%{transform:translate(448px,32px)}61.37%{transform:translate(448px,48px)}65.28%{transform:translate(224px,80px)}68.22%{transform:translate(400px,96px)}69.19%{transform:translate(384px,48px)}75.06%{transform:translate(0px,48px)}75.31%{transform:translate(0px,32px)}87.29%{transform:translate(784px,32px)}87.53%{transform:translate(784px,16px)}96.82%{transform:translate(176px,16px)}97.31%{transform:translate(176px,-16px)}}.s.s1{transform:translate(16px,-16px);animation-name:s1}@keyframes s2{0%,99.76%{transform:translate(32px,-16px)}0.49%{transform:translate(0px,-16px)}0.73%{transform:translate(0px,-32px)}1.71%{transform:translate(64px,-32px)}2.44%{transform:translate(64px,16px)}2.69%,36.92%{transform:translate(48px,16px)}3.91%{transform:translate(48px,96px)}6.36%{transform:translate(208px,96px)}7.09%{transform:translate(208px,48px)}7.33%,65.04%{transform:translate(224px,48px)}7.82%{transform:translate(224px,16px)}8.31%{transform:translate(192px,16px)}8.56%{transform:translate(192px,32px)}11.98%{transform:translate(416px,32px)}12.47%{transform:translate(416px,0px)}12.96%{transform:translate(448px,0px)}13.2%{transform:translate(448px,16px)}13.45%{transform:translate(464px,16px)}14.18%{transform:translate(464px,64px)}14.43%{transform:translate(448px,64px)}14.67%{transform:translate(448px,80px)}15.4%{transform:translate(496px,80px)}15.65%{transform:translate(496px,64px)}17.36%{transform:translate(608px,64px)}17.6%{transform:translate(608px,48px)}18.09%{transform:translate(640px,48px)}18.58%{transform:translate(640px,80px)}19.07%{transform:translate(672px,80px)}19.32%{transform:translate(672px,64px)}19.8%{transform:translate(704px,64px)}20.78%{transform:translate(704px,0px)}21.76%{transform:translate(768px,0px)}22.25%{transform:translate(768px,32px)}22.74%{transform:translate(736px,32px)}23.23%{transform:translate(736px,64px)}27.87%{transform:translate(432px,64px)}28.12%{transform:translate(432px,48px)}34.47%{transform:translate(16px,48px)}34.72%{transform:translate(16px,64px)}35.21%{transform:translate(-16px,64px)}35.94%{transform:translate(-16px,16px)}37.16%{transform:translate(48px,0px)}39.85%{transform:translate(224px,0px)}40.83%{transform:translate(224px,64px)}42.54%{transform:translate(336px,64px)}43.03%{transform:translate(336px,96px)}43.77%,68.7%{transform:translate(384px,96px)}44.01%{transform:translate(384px,80px)}44.25%,68.22%{transform:translate(400px,80px)}45.48%{transform:translate(400px,0px)}45.72%{transform:translate(384px,0px)}45.97%{transform:translate(384px,-16px)}50.61%{transform:translate(688px,-16px)}52.08%{transform:translate(688px,80px)}52.81%{transform:translate(736px,80px)}53.06%{transform:translate(736px,96px)}53.3%{transform:translate(752px,96px)}53.79%{transform:translate(752px,64px)}54.52%{transform:translate(800px,64px)}55.5%{transform:translate(800px,0px)}58.19%{transform:translate(624px,0px)}58.68%{transform:translate(624px,32px)}61.37%{transform:translate(448px,32px)}61.61%{transform:translate(448px,48px)}65.53%{transform:translate(224px,80px)}68.46%{transform:translate(400px,96px)}69.44%{transform:translate(384px,48px)}75.31%{transform:translate(0px,48px)}75.55%{transform:translate(0px,32px)}87.53%{transform:translate(784px,32px)}87.78%{transform:translate(784px,16px)}97.07%{transform:translate(176px,16px)}97.56%{transform:translate(176px,-16px)}}.s.s2{transform:translate(32px,-16px);animation-name:s2}@keyframes s3{0%,99.76%{transform:translate(48px,-16px)}0.73%{transform:translate(0px,-16px)}0.98%{transform:translate(0px,-32px)}1.96%{transform:translate(64px,-32px)}2.69%{transform:translate(64px,16px)}2.93%,37.16%{transform:translate(48px,16px)}4.16%{transform:translate(48px,96px)}6.6%{transform:translate(208px,96px)}7.33%{transform:translate(208px,48px)}7.58%,65.28%{transform:translate(224px,48px)}8.07%{transform:translate(224px,16px)}8.56%{transform:translate(192px,16px)}8.8%{transform:translate(192px,32px)}12.22%{transform:translate(416px,32px)}12.71%{transform:translate(416px,0px)}13.2%{transform:translate(448px,0px)}13.45%{transform:translate(448px,16px)}13.69%{transform:translate(464px,16px)}14.43%{transform:translate(464px,64px)}14.67%{transform:translate(448px,64px)}14.91%{transform:translate(448px,80px)}15.65%{transform:translate(496px,80px)}15.89%{transform:translate(496px,64px)}17.6%{transform:translate(608px,64px)}17.85%{transform:translate(608px,48px)}18.34%{transform:translate(640px,48px)}18.83%{transform:translate(640px,80px)}19.32%{transform:translate(672px,80px)}19.56%{transform:translate(672px,64px)}20.05%{transform:translate(704px,64px)}21.03%{transform:translate(704px,0px)}22%{transform:translate(768px,0px)}22.49%{transform:translate(768px,32px)}22.98%{transform:translate(736px,32px)}23.47%{transform:translate(736px,64px)}28.12%{transform:translate(432px,64px)}28.36%{transform:translate(432px,48px)}34.72%{transform:translate(16px,48px)}34.96%{transform:translate(16px,64px)}35.45%{transform:translate(-16px,64px)}36.19%{transform:translate(-16px,16px)}37.41%{transform:translate(48px,0px)}40.1%{transform:translate(224px,0px)}41.08%{transform:translate(224px,64px)}42.79%{transform:translate(336px,64px)}43.28%{transform:translate(336px,96px)}44.01%,68.95%{transform:translate(384px,96px)}44.25%{transform:translate(384px,80px)}44.5%,68.46%{transform:translate(400px,80px)}45.72%{transform:translate(400px,0px)}45.97%{transform:translate(384px,0px)}46.21%{transform:translate(384px,-16px)}50.86%{transform:translate(688px,-16px)}52.32%{transform:translate(688px,80px)}53.06%{transform:translate(736px,80px)}53.3%{transform:translate(736px,96px)}53.55%{transform:translate(752px,96px)}54.03%{transform:translate(752px,64px)}54.77%{transform:translate(800px,64px)}55.75%{transform:translate(800px,0px)}58.44%{transform:translate(624px,0px)}58.92%{transform:translate(624px,32px)}61.61%{transform:translate(448px,32px)}61.86%{transform:translate(448px,48px)}65.77%{transform:translate(224px,80px)}68.7%{transform:translate(400px,96px)}69.68%{transform:translate(384px,48px)}75.55%{transform:translate(0px,48px)}75.79%{transform:translate(0px,32px)}87.78%{transform:translate(784px,32px)}88.02%{transform:translate(784px,16px)}97.31%{transform:translate(176px,16px)}97.8%{transform:translate(176px,-16px)}}.s.s3{transform:translate(48px,-16px);animation-name:s3}</style><rect class="c" x="2" y="2" rx="2" ry="2"/><rect class="c c0" x="2" y="18" rx="2" ry="2"/><rect class="c c1" x="2" y="34" rx="2" ry="2"/><rect class="c c2" x="2" y="50" rx="2" ry="2"/><rect class="c c3" x="2" y="66" rx="2" ry="2"/><rect class="c" x="2" y="82" rx="2" ry="2"/><rect class="c" x="2" y="98" rx="2" ry="2"/><rect class="c" x="18" y="2" rx="2" ry="2"/><rect class="c" x="18" y="18" rx="2" ry="2"/><rect class="c" x="18" y="34" rx="2" ry="2"/><rect class="c" x="18" y="50" rx="2" ry="2"/><rect class="c" x="18" y="66" rx="2" ry="2"/><rect class="c" x="18" y="82" rx="2" ry="2"/><rect class="c" x="18" y="98" rx="2" ry="2"/><rect class="c" x="34" y="2" rx="2" ry="2"/><rect class="c" x="34" y="18" rx="2" ry="2"/><rect class="c" x="34" y="34" rx="2" ry="2"/><rect class="c" x="34" y="50" rx="2" ry="2"/><rect class="c" x="34" y="66" rx="2" ry="2"/><rect class="c" x="34" y="82" rx="2" ry="2"/><rect class="c" x="34" y="98" rx="2" ry="2"/><rect class="c c4" x="50" y="2" rx="2" ry="2"/><rect class="c" x="50" y="18" rx="2" ry="2"/><rect class="c" x="50" y="34" rx="2" ry="2"/><rect class="c" x="50" y="50" rx="2" ry="2"/><rect class="c" x="50" y="66" rx="2" ry="2"/><rect class="c c5" x="50" y="82" rx="2" ry="2"/><rect class="c c6" x="50" y="98" rx="2" ry="2"/><rect class="c c7" x="66" y="2" rx="2" ry="2"/><rect class="c" x="66" y="18" rx="2" ry="2"/><rect class="c" x="66" y="34" rx="2" ry="2"/><rect class="c" x="66" y="50" rx="2" ry="2"/><rect class="c" x="66" y="66" rx="2" ry="2"/><rect class="c" x="66" y="82" rx="2" ry="2"/><rect class="c c8" x="66" y="98" rx="2" ry="2"/><rect class="c" x="82" y="2" rx="2" ry="2"/><rect class="c" x="82" y="18" rx="2" ry="2"/><rect class="c" x="82" y="34" rx="2" ry="2"/><rect class="c" x="82" y="50" rx="2" ry="2"/><rect class="c" x="82" y="66" rx="2" ry="2"/><rect class="c" x="82" y="82" rx="2" ry="2"/><rect class="c" x="82" y="98" rx="2" ry="2"/><rect class="c" x="98" y="2" rx="2" ry="2"/><rect class="c" x="98" y="18" rx="2" ry="2"/><rect class="c" x="98" y="34" rx="2" ry="2"/><rect class="c" x="98" y="50" rx="2" ry="2"/><rect class="c" x="98" y="66" rx="2" ry="2"/><rect class="c" x="98" y="82" rx="2" ry="2"/><rect class="c" x="98" y="98" rx="2" ry="2"/><rect class="c" x="114" y="2" rx="2" ry="2"/><rect class="c" x="114" y="18" rx="2" ry="2"/><rect class="c" x="114" y="34" rx="2" ry="2"/><rect class="c" x="114" y="50" rx="2" ry="2"/><rect class="c" x="114" y="66" rx="2" ry="2"/><rect class="c" x="114" y="82" rx="2" ry="2"/><rect class="c" x="114" y="98" rx="2" ry="2"/><rect class="c" x="130" y="2" rx="2" ry="2"/><rect class="c" x="130" y="18" rx="2" ry="2"/><rect class="c" x="130" y="34" rx="2" ry="2"/><rect class="c" x="130" y="50" rx="2" ry="2"/><rect class="c" x="130" y="66" rx="2" ry="2"/><rect class="c" x="130" y="82" rx="2" ry="2"/><rect class="c c9" x="130" y="98" rx="2" ry="2"/><rect class="c" x="146" y="2" rx="2" ry="2"/><rect class="c" x="146" y="18" rx="2" ry="2"/><rect class="c" x="146" y="34" rx="2" ry="2"/><rect class="c" x="146" y="50" rx="2" ry="2"/><rect class="c" x="146" y="66" rx="2" ry="2"/><rect class="c" x="146" y="82" rx="2" ry="2"/><rect class="c" x="146" y="98" rx="2" ry="2"/><rect class="c" x="162" y="2" rx="2" ry="2"/><rect class="c" x="162" y="18" rx="2" ry="2"/><rect class="c" x="162" y="34" rx="2" ry="2"/><rect class="c" x="162" y="50" rx="2" ry="2"/><rect class="c" x="162" y="66" rx="2" ry="2"/><rect class="c" x="162" y="82" rx="2" ry="2"/><rect class="c" x="162" y="98" rx="2" ry="2"/><rect class="c" x="178" y="2" rx="2" ry="2"/><rect class="c" x="178" y="18" rx="2" ry="2"/><rect class="c" x="178" y="34" rx="2" ry="2"/><rect class="c" x="178" y="50" rx="2" ry="2"/><rect class="c" x="178" y="66" rx="2" ry="2"/><rect class="c" x="178" y="82" rx="2" ry="2"/><rect class="c" x="178" y="98" rx="2" ry="2"/><rect class="c" x="194" y="2" rx="2" ry="2"/><rect class="c ca" x="194" y="18" rx="2" ry="2"/><rect class="c" x="194" y="34" rx="2" ry="2"/><rect class="c" x="194" y="50" rx="2" ry="2"/><rect class="c" x="194" y="66" rx="2" ry="2"/><rect class="c" x="194" y="82" rx="2" ry="2"/><rect class="c" x="194" y="98" rx="2" ry="2"/><rect class="c" x="210" y="2" rx="2" ry="2"/><rect class="c" x="210" y="18" rx="2" ry="2"/><rect class="c" x="210" y="34" rx="2" ry="2"/><rect class="c cb" x="210" y="50" rx="2" ry="2"/><rect class="c" x="210" y="66" rx="2" ry="2"/><rect class="c" x="210" y="82" rx="2" ry="2"/><rect class="c" x="210" y="98" rx="2" ry="2"/><rect class="c" x="226" y="2" rx="2" ry="2"/><rect class="c" x="226" y="18" rx="2" ry="2"/><rect class="c cc" x="226" y="34" rx="2" ry="2"/><rect class="c" x="226" y="50" rx="2" ry="2"/><rect class="c cd" x="226" y="66" rx="2" ry="2"/><rect class="c ce" x="226" y="82" rx="2" ry="2"/><rect class="c" x="226" y="98" rx="2" ry="2"/><rect class="c" x="242" y="2" rx="2" ry="2"/><rect class="c" x="242" y="18" rx="2" ry="2"/><rect class="c" x="242" y="34" rx="2" ry="2"/><rect class="c" x="242" y="50" rx="2" ry="2"/><rect class="c" x="242" y="66" rx="2" ry="2"/><rect class="c" x="242" y="82" rx="2" ry="2"/><rect class="c" x="242" y="98" rx="2" ry="2"/><rect class="c" x="258" y="2" rx="2" ry="2"/><rect class="c" x="258" y="18" rx="2" ry="2"/><rect class="c" x="258" y="34" rx="2" ry="2"/><rect class="c" x="258" y="50" rx="2" ry="2"/><rect class="c" x="258" y="66" rx="2" ry="2"/><rect class="c" x="258" y="82" rx="2" ry="2"/><rect class="c" x="258" y="98" rx="2" ry="2"/><rect class="c" x="274" y="2" rx="2" ry="2"/><rect class="c" x="274" y="18" rx="2" ry="2"/><rect class="c" x="274" y="34" rx="2" ry="2"/><rect class="c" x="274" y="50" rx="2" ry="2"/><rect class="c" x="274" y="66" rx="2" ry="2"/><rect class="c" x="274" y="82" rx="2" ry="2"/><rect class="c" x="274" y="98" rx="2" ry="2"/><rect class="c" x="290" y="2" rx="2" ry="2"/><rect class="c" x="290" y="18" rx="2" ry="2"/><rect class="c" x="290" y="34" rx="2" ry="2"/><rect class="c" x="290" y="50" rx="2" ry="2"/><rect class="c" x="290" y="66" rx="2" ry="2"/><rect class="c" x="290" y="82" rx="2" ry="2"/><rect class="c" x="290" y="98" rx="2" ry="2"/><rect class="c" x="306" y="2" rx="2" ry="2"/><rect class="c" x="306" y="18" rx="2" ry="2"/><rect class="c" x="306" y="34" rx="2" ry="2"/><rect class="c" x="306" y="50" rx="2" ry="2"/><rect class="c" x="306" y="66" rx="2" ry="2"/><rect class="c" x="306" y="82" rx="2" ry="2"/><rect class="c" x="306" y="98" rx="2" ry="2"/><rect class="c" x="322" y="2" rx="2" ry="2"/><rect class="c" x="322" y="18" rx="2" ry="2"/><rect class="c" x="322" y="34" rx="2" ry="2"/><rect class="c" x="322" y="50" rx="2" ry="2"/><rect class="c" x="322" y="66" rx="2" ry="2"/><rect class="c" x="322" y="82" rx="2" ry="2"/><rect class="c" x="322" y="98" rx="2" ry="2"/><rect class="c" x="338" y="2" rx="2" ry="2"/><rect class="c" x="338" y="18" rx="2" ry="2"/><rect class="c" x="338" y="34" rx="2" ry="2"/><rect class="c" x="338" y="50" rx="2" ry="2"/><rect class="c" x="338" y="66" rx="2" ry="2"/><rect class="c" x="338" y="82" rx="2" ry="2"/><rect class="c cf" x="338" y="98" rx="2" ry="2"/><rect class="c" x="354" y="2" rx="2" ry="2"/><rect class="c" x="354" y="18" rx="2" ry="2"/><rect class="c" x="354" y="34" rx="2" ry="2"/><rect class="c" x="354" y="50" rx="2" ry="2"/><rect class="c" x="354" y="66" rx="2" ry="2"/><rect class="c" x="354" y="82" rx="2" ry="2"/><rect class="c" x="354" y="98" rx="2" ry="2"/><rect class="c" x="370" y="2" rx="2" ry="2"/><rect class="c" x="370" y="18" rx="2" ry="2"/><rect class="c" x="370" y="34" rx="2" ry="2"/><rect class="c" x="370" y="50" rx="2" ry="2"/><rect class="c" x="370" y="66" rx="2" ry="2"/><rect class="c" x="370" y="82" rx="2" ry="2"/><rect class="c" x="370" y="98" rx="2" ry="2"/><rect class="c cg" x="386" y="2" rx="2" ry="2"/><rect class="c" x="386" y="18" rx="2" ry="2"/><rect class="c ch" x="386" y="34" rx="2" ry="2"/><rect class="c" x="386" y="50" rx="2" ry="2"/><rect class="c" x="386" y="66" rx="2" ry="2"/><rect class="c" x="386" y="82" rx="2" ry="2"/><rect class="c" x="386" y="98" rx="2" ry="2"/><rect class="c" x="402" y="2" rx="2" ry="2"/><rect class="c" x="402" y="18" rx="2" ry="2"/><rect class="c" x="402" y="34" rx="2" ry="2"/><rect class="c" x="402" y="50" rx="2" ry="2"/><rect class="c" x="402" y="66" rx="2" ry="2"/><rect class="c ci" x="402" y="82" rx="2" ry="2"/><rect class="c cj" x="402" y="98" rx="2" ry="2"/><rect class="c ck" x="418" y="2" rx="2" ry="2"/><rect class="c cl" x="418" y="18" rx="2" ry="2"/><rect class="c" x="418" y="34" rx="2" ry="2"/><rect class="c" x="418" y="50" rx="2" ry="2"/><rect class="c" x="418" y="66" rx="2" ry="2"/><rect class="c" x="418" y="82" rx="2" ry="2"/><rect class="c" x="418" y="98" rx="2" ry="2"/><rect class="c" x="434" y="2" rx="2" ry="2"/><rect class="c" x="434" y="18" rx="2" ry="2"/><rect class="c" x="434" y="34" rx="2" ry="2"/><rect class="c" x="434" y="50" rx="2" ry="2"/><rect class="c" x="434" y="66" rx="2" ry="2"/><rect class="c" x="434" y="82" rx="2" ry="2"/><rect class="c" x="434" y="98" rx="2" ry="2"/><rect class="c cm" x="450" y="2" rx="2" ry="2"/><rect class="c cn" x="450" y="18" rx="2" ry="2"/><rect class="c" x="450" y="34" rx="2" ry="2"/><rect class="c co" x="450" y="50" rx="2" ry="2"/><rect class="c cp" x="450" y="66" rx="2" ry="2"/><rect class="c" x="450" y="82" rx="2" ry="2"/><rect class="c" x="450" y="98" rx="2" ry="2"/><rect class="c" x="466" y="2" rx="2" ry="2"/><rect class="c" x="466" y="18" rx="2" ry="2"/><rect class="c" x="466" y="34" rx="2" ry="2"/><rect class="c" x="466" y="50" rx="2" ry="2"/><rect class="c" x="466" y="66" rx="2" ry="2"/><rect class="c" x="466" y="82" rx="2" ry="2"/><rect class="c" x="466" y="98" rx="2" ry="2"/><rect class="c" x="482" y="2" rx="2" ry="2"/><rect class="c" x="482" y="18" rx="2" ry="2"/><rect class="c" x="482" y="34" rx="2" ry="2"/><rect class="c" x="482" y="50" rx="2" ry="2"/><rect class="c" x="482" y="66" rx="2" ry="2"/><rect class="c" x="482" y="82" rx="2" ry="2"/><rect class="c" x="482" y="98" rx="2" ry="2"/><rect class="c" x="498" y="2" rx="2" ry="2"/><rect class="c" x="498" y="18" rx="2" ry="2"/><rect class="c" x="498" y="34" rx="2" ry="2"/><rect class="c" x="498" y="50" rx="2" ry="2"/><rect class="c cq" x="498" y="66" rx="2" ry="2"/><rect class="c cr" x="498" y="82" rx="2" ry="2"/><rect class="c" x="498" y="98" rx="2" ry="2"/><rect class="c" x="514" y="2" rx="2" ry="2"/><rect class="c" x="514" y="18" rx="2" ry="2"/><rect class="c" x="514" y="34" rx="2" ry="2"/><rect class="c" x="514" y="50" rx="2" ry="2"/><rect class="c" x="514" y="66" rx="2" ry="2"/><rect class="c" x="514" y="82" rx="2" ry="2"/><rect class="c" x="514" y="98" rx="2" ry="2"/><rect class="c" x="530" y="2" rx="2" ry="2"/><rect class="c" x="530" y="18" rx="2" ry="2"/><rect class="c" x="530" y="34" rx="2" ry="2"/><rect class="c" x="530" y="50" rx="2" ry="2"/><rect class="c" x="530" y="66" rx="2" ry="2"/><rect class="c" x="530" y="82" rx="2" ry="2"/><rect class="c" x="530" y="98" rx="2" ry="2"/><rect class="c" x="546" y="2" rx="2" ry="2"/><rect class="c" x="546" y="18" rx="2" ry="2"/><rect class="c" x="546" y="34" rx="2" ry="2"/><rect class="c" x="546" y="50" rx="2" ry="2"/><rect class="c" x="546" y="66" rx="2" ry="2"/><rect class="c" x="546" y="82" rx="2" ry="2"/><rect class="c" x="546" y="98" rx="2" ry="2"/><rect class="c" x="562" y="2" rx="2" ry="2"/><rect class="c" x="562" y="18" rx="2" ry="2"/><rect class="c" x="562" y="34" rx="2" ry="2"/><rect class="c" x="562" y="50" rx="2" ry="2"/><rect class="c" x="562" y="66" rx="2" ry="2"/><rect class="c" x="562" y="82" rx="2" ry="2"/><rect class="c" x="562" y="98" rx="2" ry="2"/><rect class="c" x="578" y="2" rx="2" ry="2"/><rect class="c" x="578" y="18" rx="2" ry="2"/><rect class="c" x="578" y="34" rx="2" ry="2"/><rect class="c" x="578" y="50" rx="2" ry="2"/><rect class="c" x="578" y="66" rx="2" ry="2"/><rect class="c" x="578" y="82" rx="2" ry="2"/><rect class="c" x="578" y="98" rx="2" ry="2"/><rect class="c" x="594" y="2" rx="2" ry="2"/><rect class="c" x="594" y="18" rx="2" ry="2"/><rect class="c" x="594" y="34" rx="2" ry="2"/><rect class="c" x="594" y="50" rx="2" ry="2"/><rect class="c" x="594" y="66" rx="2" ry="2"/><rect class="c" x="594" y="82" rx="2" ry="2"/><rect class="c" x="594" y="98" rx="2" ry="2"/><rect class="c" x="610" y="2" rx="2" ry="2"/><rect class="c" x="610" y="18" rx="2" ry="2"/><rect class="c" x="610" y="34" rx="2" ry="2"/><rect class="c cs" x="610" y="50" rx="2" ry="2"/><rect class="c" x="610" y="66" rx="2" ry="2"/><rect class="c" x="610" y="82" rx="2" ry="2"/><rect class="c" x="610" y="98" rx="2" ry="2"/><rect class="c" x="626" y="2" rx="2" ry="2"/><rect class="c" x="626" y="18" rx="2" ry="2"/><rect class="c ct" x="626" y="34" rx="2" ry="2"/><rect class="c cu" x="626" y="50" rx="2" ry="2"/><rect class="c" x="626" y="66" rx="2" ry="2"/><rect class="c" x="626" y="82" rx="2" ry="2"/><rect class="c" x="626" y="98" rx="2" ry="2"/><rect class="c" x="642" y="2" rx="2" ry="2"/><rect class="c" x="642" y="18" rx="2" ry="2"/><rect class="c" x="642" y="34" rx="2" ry="2"/><rect class="c" x="642" y="50" rx="2" ry="2"/><rect class="c" x="642" y="66" rx="2" ry="2"/><rect class="c cv" x="642" y="82" rx="2" ry="2"/><rect class="c" x="642" y="98" rx="2" ry="2"/><rect class="c" x="658" y="2" rx="2" ry="2"/><rect class="c" x="658" y="18" rx="2" ry="2"/><rect class="c" x="658" y="34" rx="2" ry="2"/><rect class="c" x="658" y="50" rx="2" ry="2"/><rect class="c" x="658" y="66" rx="2" ry="2"/><rect class="c" x="658" y="82" rx="2" ry="2"/><rect class="c" x="658" y="98" rx="2" ry="2"/><rect class="c" x="674" y="2" rx="2" ry="2"/><rect class="c" x="674" y="18" rx="2" ry="2"/><rect class="c" x="674" y="34" rx="2" ry="2"/><rect class="c" x="674" y="50" rx="2" ry="2"/><rect class="c" x="674" y="66" rx="2" ry="2"/><rect class="c cw" x="674" y="82" rx="2" ry="2"/><rect class="c" x="674" y="98" rx="2" ry="2"/><rect class="c cx" x="690" y="2" rx="2" ry="2"/><rect class="c" x="690" y="18" rx="2" ry="2"/><rect class="c" x="690" y="34" rx="2" ry="2"/><rect class="c" x="690" y="50" rx="2" ry="2"/><rect class="c" x="690" y="66" rx="2" ry="2"/><rect class="c cy" x="690" y="82" rx="2" ry="2"/><rect class="c" x="690" y="98" rx="2" ry="2"/><rect class="c cz" x="706" y="2" rx="2" ry="2"/><rect class="c c10" x="706" y="18" rx="2" ry="2"/><rect class="c" x="706" y="34" rx="2" ry="2"/><rect class="c c11" x="706" y="50" rx="2" ry="2"/><rect class="c" x="706" y="66" rx="2" ry="2"/><rect class="c" x="706" y="82" rx="2" ry="2"/><rect class="c" x="706" y="98" rx="2" ry="2"/><rect class="c" x="722" y="2" rx="2" ry="2"/><rect class="c" x="722" y="18" rx="2" ry="2"/><rect class="c" x="722" y="34" rx="2" ry="2"/><rect class="c" x="722" y="50" rx="2" ry="2"/><rect class="c" x="722" y="66" rx="2" ry="2"/><rect class="c" x="722" y="82" rx="2" ry="2"/><rect class="c" x="722" y="98" rx="2" ry="2"/><rect class="c" x="738" y="2" rx="2" ry="2"/><rect class="c" x="738" y="18" rx="2" ry="2"/><rect class="c" x="738" y="34" rx="2" ry="2"/><rect class="c" x="738" y="50" rx="2" ry="2"/><rect class="c c12" x="738" y="66" rx="2" ry="2"/><rect class="c" x="738" y="82" rx="2" ry="2"/><rect class="c c13" x="738" y="98" rx="2" ry="2"/><rect class="c" x="754" y="2" rx="2" ry="2"/><rect class="c" x="754" y="18" rx="2" ry="2"/><rect class="c" x="754" y="34" rx="2" ry="2"/><rect class="c" x="754" y="50" rx="2" ry="2"/><rect class="c c14" x="754" y="66" rx="2" ry="2"/><rect class="c" x="754" y="82" rx="2" ry="2"/><rect class="c" x="754" y="98" rx="2" ry="2"/><rect class="c" x="770" y="2" rx="2" ry="2"/><rect class="c" x="770" y="18" rx="2" ry="2"/><rect class="c c15" x="770" y="34" rx="2" ry="2"/><rect class="c" x="770" y="50" rx="2" ry="2"/><rect class="c" x="770" y="66" rx="2" ry="2"/><rect class="c" x="770" y="82" rx="2" ry="2"/><rect class="c" x="770" y="98" rx="2" ry="2"/><rect class="c c16" x="786" y="2" rx="2" ry="2"/><rect class="c c17" x="786" y="18" rx="2" ry="2"/><rect class="c" x="786" y="34" rx="2" ry="2"/><rect class="c" x="786" y="50" rx="2" ry="2"/><rect class="c c18" x="786" y="66" rx="2" ry="2"/><rect class="c" x="786" y="82" rx="2" ry="2"/><rect class="c" x="786" y="98" rx="2" ry="2"/><rect class="c" x="802" y="2" rx="2" ry="2"/><rect class="c" x="802" y="18" rx="2" ry="2"/><rect class="c" x="802" y="34" rx="2" ry="2"/><rect class="c" x="802" y="50" rx="2" ry="2"/><rect class="c" x="802" y="66" rx="2" ry="2"/><rect class="c" x="802" y="82" rx="2" ry="2"/><rect class="c" x="802" y="98" rx="2" ry="2"/><rect class="c" x="818" y="2" rx="2" ry="2"/><rect class="c" x="818" y="18" rx="2" ry="2"/><rect class="c" x="818" y="34" rx="2" ry="2"/><rect class="c" x="818" y="50" rx="2" ry="2"/><rect class="c" x="818" y="66" rx="2" ry="2"/><rect class="c" x="818" y="82" rx="2" ry="2"/><rect class="c" x="818" y="98" rx="2" ry="2"/><rect class="c" x="834" y="2" rx="2" ry="2"/><rect class="c" x="834" y="18" rx="2" ry="2"/><rect class="c" x="834" y="34" rx="2" ry="2"/><rect class="c" x="834" y="50" rx="2" ry="2"/><rect class="u u0" height="12" width="490.6" x="0.0" y="144"/><rect class="u u1" height="12" width="226.7" x="490.0" y="144"/><rect class="u u2" height="12" width="57.1" x="716.1" y="144"/><rect class="u u3" height="12" width="76.0" x="772.6" y="144"/><rect class="s s0" x="0.8" y="0.8" width="14.4" height="14.4" rx="4.5" ry="4.5"/><rect class="s s1" x="1.8" y="1.8" width="12.3" height="12.3" rx="4.1" ry="4.1"/><rect class="s s2" x="2.6" y="2.6" width="10.8" height="10.8" rx="3.6" ry="3.6"/><rect class="s s3" x="3.0" y="3.0" width="9.9" height="9.9" rx="3.3" ry="3.3"/></svg>