<svg viewBox="-16 -32 880 192" width="880" height="192" xmlns="http://www.w3.org/2000/svg"><desc>Generated with https://github.com/Platane/snk</desc><style>:root{--cb:#1b1f230a;--cs:white;--ce:#0a0e12;--c0:#0a0e12;--c1:#1445a2;--c2:#1d65ee;--c3:#1f4eff;--c4:#466dff}.c{shape-rendering:geometricPrecision;fill:var(--ce);stroke-width:1px;stroke:var(--cb);animation:none 36700ms linear infinite;width:12px;height:12px}@keyframes c0{9.53%{fill:var(--c1)}9.55%,100%{fill:var(--ce)}}.c.c0{fill:var(--c1);animation-name:c0}@keyframes c1{2.17%{fill:var(--c1)}2.19%,100%{fill:var(--ce)}}.c.c1{fill:var(--c1);animation-name:c1}@keyframes c2{7.62%{fill:var(--c1)}7.64%,100%{fill:var(--ce)}}.c.c2{fill:var(--c1);animation-name:c2}@keyframes c3{6.53%{fill:var(--c1)}6.55%,100%{fill:var(--ce)}}.c.c3{fill:var(--c1);animation-name:c3}@keyframes c4{70.02%{fill:var(--c2)}70.04%,100%{fill:var(--ce)}}.c.c4{fill:var(--c2);animation-name:c4}@keyframes c5{2.71%{fill:var(--c1)}2.73%,100%{fill:var(--ce)}}.c.c5{fill:var(--c1);animation-name:c5}@keyframes c6{2.99%{fill:var(--c1)}3.01%,100%{fill:var(--ce)}}.c.c6{fill:var(--c1);animation-name:c6}@keyframes c7{3.8%{fill:var(--c1)}3.82%,100%{fill:var(--ce)}}.c.c7{fill:var(--c1);animation-name:c7}@keyframes c8{3.53%{fill:var(--c1)}3.55%,100%{fill:var(--ce)}}.c.c8{fill:var(--c1);animation-name:c8}@keyframes c9{68.38%{fill:var(--c2)}68.4%,100%{fill:var(--ce)}}.c.c9{fill:var(--c2);animation-name:c9}@keyframes ca{5.44%{fill:var(--c1)}5.46%,100%{fill:var(--ce)}}.c.ca{fill:var(--c1);animation-name:ca}@keyframes cb{12.8%{fill:var(--c1)}12.82%,100%{fill:var(--ce)}}.c.cb{fill:var(--c1);animation-name:cb}@keyframes cc{12.52%{fill:var(--c1)}12.54%,100%{fill:var(--ce)}}.c.cc{fill:var(--c1);animation-name:cc}@keyframes cd{14.98%{fill:var(--c1)}15%,100%{fill:var(--ce)}}.c.cd{fill:var(--c1);animation-name:cd}@keyframes ce{65.11%{fill:var(--c2)}65.13%,100%{fill:var(--ce)}}.c.ce{fill:var(--c2);animation-name:ce}@keyframes cf{15.25%{fill:var(--c1)}15.27%,100%{fill:var(--ce)}}.c.cf{fill:var(--c1);animation-name:cf}@keyframes cg{16.07%{fill:var(--c1)}16.09%,100%{fill:var(--ce)}}.c.cg{fill:var(--c1);animation-name:cg}@keyframes ch{16.61%{fill:var(--c1)}16.63%,100%{fill:var(--ce)}}.c.ch{fill:var(--c1);animation-name:ch}@keyframes ci{18.79%{fill:var(--c1)}18.81%,100%{fill:var(--ce)}}.c.ci{fill:var(--c1);animation-name:ci}@keyframes cj{16.88%{fill:var(--c1)}16.9%,100%{fill:var(--ce)}}.c.cj{fill:var(--c1);animation-name:cj}@keyframes ck{18.52%{fill:var(--c1)}18.54%,100%{fill:var(--ce)}}.c.ck{fill:var(--c1);animation-name:ck}@keyframes cl{18.25%{fill:var(--c1)}18.27%,100%{fill:var(--ce)}}.c.cl{fill:var(--c1);animation-name:cl}@keyframes cm{17.7%{fill:var(--c1)}17.72%,100%{fill:var(--ce)}}.c.cm{fill:var(--c1);animation-name:cm}@keyframes cn{22.33%{fill:var(--c1)}22.35%,100%{fill:var(--ce)}}.c.cn{fill:var(--c1);animation-name:cn}@keyframes co{22.88%{fill:var(--c1)}22.9%,100%{fill:var(--ce)}}.c.co{fill:var(--c1);animation-name:co}@keyframes cp{22.06%{fill:var(--c1)}22.08%,100%{fill:var(--ce)}}.c.cp{fill:var(--c1);animation-name:cp}@keyframes cq{20.7%{fill:var(--c1)}20.72%,100%{fill:var(--ce)}}.c.cq{fill:var(--c1);animation-name:cq}@keyframes cr{28.06%{fill:var(--c1)}28.08%,100%{fill:var(--ce)}}.c.cr{fill:var(--c1);animation-name:cr}@keyframes cs{62.12%{fill:var(--c2)}62.14%,100%{fill:var(--ce)}}.c.cs{fill:var(--c2);animation-name:cs}@keyframes ct{21.52%{fill:var(--c1)}21.54%,100%{fill:var(--ce)}}.c.ct{fill:var(--c1);animation-name:ct}@keyframes cu{25.88%{fill:var(--c1)}25.9%,100%{fill:var(--ce)}}.c.cu{fill:var(--c1);animation-name:cu}@keyframes cv{25.33%{fill:var(--c1)}25.35%,100%{fill:var(--ce)}}.c.cv{fill:var(--c1);animation-name:cv}@keyframes cw{31.87%{fill:var(--c1)}31.89%,100%{fill:var(--ce)}}.c.cw{fill:var(--c1);animation-name:cw}@keyframes cx{45.22%{fill:var(--c1)}45.24%,100%{fill:var(--ce)}}.c.cx{fill:var(--c1);animation-name:cx}@keyframes cy{45.49%{fill:var(--c1)}45.51%,100%{fill:var(--ce)}}.c.cy{fill:var(--c1);animation-name:cy}@keyframes cz{32.14%{fill:var(--c1)}32.16%,100%{fill:var(--ce)}}.c.cz{fill:var(--c1);animation-name:cz}@keyframes c10{53.67%{fill:var(--c2)}53.69%,100%{fill:var(--ce)}}.c.c10{fill:var(--c2);animation-name:c10}@keyframes c11{32.42%{fill:var(--c1)}32.44%,100%{fill:var(--ce)}}.c.c11{fill:var(--c1);animation-name:c11}@keyframes c12{53.12%{fill:var(--c2)}53.14%,100%{fill:var(--ce)}}.c.c12{fill:var(--c2);animation-name:c12}@keyframes c13{44.68%{fill:var(--c1)}44.7%,100%{fill:var(--ce)}}.c.c13{fill:var(--c1);animation-name:c13}@keyframes c14{42.77%{fill:var(--c1)}42.79%,100%{fill:var(--ce)}}.c.c14{fill:var(--c1);animation-name:c14}@keyframes c15{43.04%{fill:var(--c1)}43.06%,100%{fill:var(--ce)}}.c.c15{fill:var(--c1);animation-name:c15}@keyframes c16{52.58%{fill:var(--c2)}52.6%,100%{fill:var(--ce)}}.c.c16{fill:var(--c2);animation-name:c16}@keyframes c17{44.13%{fill:var(--c1)}44.15%,100%{fill:var(--ce)}}.c.c17{fill:var(--c1);animation-name:c17}@keyframes c18{32.96%{fill:var(--c1)}32.98%,100%{fill:var(--ce)}}.c.c18{fill:var(--c1);animation-name:c18}@keyframes c19{42.5%{fill:var(--c1)}42.52%,100%{fill:var(--ce)}}.c.c19{fill:var(--c1);animation-name:c19}@keyframes c1a{42.22%{fill:var(--c1)}42.24%,100%{fill:var(--ce)}}.c.c1a{fill:var(--c1);animation-name:c1a}@keyframes c1b{43.86%{fill:var(--c1)}43.88%,100%{fill:var(--ce)}}.c.c1b{fill:var(--c1);animation-name:c1b}@keyframes c1c{50.4%{fill:var(--c1)}50.42%,100%{fill:var(--ce)}}.c.c1c{fill:var(--c1);animation-name:c1c}@keyframes c1d{33.23%{fill:var(--c1)}33.25%,100%{fill:var(--ce)}}.c.c1d{fill:var(--c1);animation-name:c1d}@keyframes c1e{82.01%{fill:var(--c3)}82.03%,100%{fill:var(--ce)}}.c.c1e{fill:var(--c3);animation-name:c1e}@keyframes c1f{51.76%{fill:var(--c2)}51.78%,100%{fill:var(--ce)}}.c.c1f{fill:var(--c2);animation-name:c1f}@keyframes c1g{41.68%{fill:var(--c1)}41.7%,100%{fill:var(--ce)}}.c.c1g{fill:var(--c1);animation-name:c1g}@keyframes c1h{81.19%{fill:var(--c3)}81.21%,100%{fill:var(--ce)}}.c.c1h{fill:var(--c3);animation-name:c1h}@keyframes c1i{55.85%{fill:var(--c2)}55.87%,100%{fill:var(--ce)}}.c.c1i{fill:var(--c2);animation-name:c1i}@keyframes c1j{82.82%{fill:var(--c4)}82.84%,100%{fill:var(--ce)}}.c.c1j{fill:var(--c4);animation-name:c1j}@keyframes c1k{33.5%{fill:var(--c1)}33.52%,100%{fill:var(--ce)}}.c.c1k{fill:var(--c1);animation-name:c1k}@keyframes c1l{37.59%{fill:var(--c1)}37.61%,100%{fill:var(--ce)}}.c.c1l{fill:var(--c1);animation-name:c1l}@keyframes c1m{37.32%{fill:var(--c1)}37.34%,100%{fill:var(--ce)}}.c.c1m{fill:var(--c1);animation-name:c1m}@keyframes c1n{41.41%{fill:var(--c1)}41.43%,100%{fill:var(--ce)}}.c.c1n{fill:var(--c1);animation-name:c1n}@keyframes c1o{84.73%{fill:var(--c4)}84.75%,100%{fill:var(--ce)}}.c.c1o{fill:var(--c4);animation-name:c1o}@keyframes c1p{47.95%{fill:var(--c1)}47.97%,100%{fill:var(--ce)}}.c.c1p{fill:var(--c1);animation-name:c1p}@keyframes c1q{35.14%{fill:var(--c1)}35.16%,100%{fill:var(--ce)}}.c.c1q{fill:var(--c1);animation-name:c1q}@keyframes c1r{33.78%{fill:var(--c1)}33.8%,100%{fill:var(--ce)}}.c.c1r{fill:var(--c1);animation-name:c1r}@keyframes c1s{35.68%{fill:var(--c1)}35.7%,100%{fill:var(--ce)}}.c.c1s{fill:var(--c1);animation-name:c1s}@keyframes c1t{37.05%{fill:var(--c1)}37.07%,100%{fill:var(--ce)}}.c.c1t{fill:var(--c1);animation-name:c1t}@keyframes c1u{38.41%{fill:var(--c1)}38.43%,100%{fill:var(--ce)}}.c.c1u{fill:var(--c1);animation-name:c1u}@keyframes c1v{39.77%{fill:var(--c1)}39.79%,100%{fill:var(--ce)}}.c.c1v{fill:var(--c1);animation-name:c1v}@keyframes c1w{40.04%{fill:var(--c1)}40.06%,100%{fill:var(--ce)}}.c.c1w{fill:var(--c1);animation-name:c1w}@keyframes c1x{34.87%{fill:var(--c1)}34.89%,100%{fill:var(--ce)}}.c.c1x{fill:var(--c1);animation-name:c1x}@keyframes c1y{34.05%{fill:var(--c1)}34.07%,100%{fill:var(--ce)}}.c.c1y{fill:var(--c1);animation-name:c1y}@keyframes c1z{35.96%{fill:var(--c1)}35.98%,100%{fill:var(--ce)}}.c.c1z{fill:var(--c1);animation-name:c1z}@keyframes c20{36.77%{fill:var(--c1)}36.79%,100%{fill:var(--ce)}}.c.c20{fill:var(--c1);animation-name:c20}@keyframes c21{38.68%{fill:var(--c1)}38.7%,100%{fill:var(--ce)}}.c.c21{fill:var(--c1);animation-name:c21}@keyframes c22{39.5%{fill:var(--c1)}39.52%,100%{fill:var(--ce)}}.c.c22{fill:var(--c1);animation-name:c22}@keyframes c23{40.32%{fill:var(--c1)}40.34%,100%{fill:var(--ce)}}.c.c23{fill:var(--c1);animation-name:c23}@keyframes c24{34.59%{fill:var(--c1)}34.61%,100%{fill:var(--ce)}}.c.c24{fill:var(--c1);animation-name:c24}@keyframes c25{34.32%{fill:var(--c1)}34.34%,100%{fill:var(--ce)}}.c.c25{fill:var(--c1);animation-name:c25}@keyframes c26{36.23%{fill:var(--c1)}36.25%,100%{fill:var(--ce)}}.c.c26{fill:var(--c1);animation-name:c26}@keyframes c27{36.5%{fill:var(--c1)}36.52%,100%{fill:var(--ce)}}.c.c27{fill:var(--c1);animation-name:c27}@keyframes c28{38.95%{fill:var(--c1)}38.97%,100%{fill:var(--ce)}}.c.c28{fill:var(--c1);animation-name:c28}.u{transform-origin:0 0;transform:scale(0,1);animation:none linear 36700ms infinite}@keyframes u0{2.17%{transform:scale(0.000,1)}2.19%,2.71%{transform:scale(0.015,1)}2.73%,2.99%{transform:scale(0.029,1)}3.01%,3.53%{transform:scale(0.044,1)}3.55%,3.8%{transform:scale(0.059,1)}3.82%,5.44%{transform:scale(0.074,1)}5.46%,6.53%{transform:scale(0.088,1)}6.55%,7.62%{transform:scale(0.103,1)}7.64%,9.53%{transform:scale(0.118,1)}9.55%,12.52%{transform:scale(0.132,1)}12.54%,12.8%{transform:scale(0.147,1)}12.82%,14.98%{transform:scale(0.162,1)}15%,15.25%{transform:scale(0.176,1)}15.27%,16.07%{transform:scale(0.191,1)}16.09%,16.61%{transform:scale(0.206,1)}16.63%,16.88%{transform:scale(0.221,1)}16.9%,17.7%{transform:scale(0.235,1)}17.72%,18.25%{transform:scale(0.250,1)}18.27%,18.52%{transform:scale(0.265,1)}18.54%,18.79%{transform:scale(0.279,1)}18.81%,20.7%{transform:scale(0.294,1)}20.72%,21.52%{transform:scale(0.309,1)}21.54%,22.06%{transform:scale(0.324,1)}22.08%,22.33%{transform:scale(0.338,1)}22.35%,22.88%{transform:scale(0.353,1)}22.9%,25.33%{transform:scale(0.368,1)}25.35%,25.88%{transform:scale(0.382,1)}25.9%,28.06%{transform:scale(0.397,1)}28.08%,31.87%{transform:scale(0.412,1)}31.89%,32.14%{transform:scale(0.426,1)}32.16%,32.42%{transform:scale(0.441,1)}32.44%,32.96%{transform:scale(0.456,1)}32.98%,33.23%{transform:scale(0.471,1)}33.25%,33.5%{transform:scale(0.485,1)}33.52%,33.78%{transform:scale(0.500,1)}33.8%,34.05%{transform:scale(0.515,1)}34.07%,34.32%{transform:scale(0.529,1)}34.34%,34.59%{transform:scale(0.544,1)}34.61%,34.87%{transform:scale(0.559,1)}34.89%,35.14%{transform:scale(0.574,1)}35.16%,35.68%{transform:scale(0.588,1)}35.7%,35.96%{transform:scale(0.603,1)}35.98%,36.23%{transform:scale(0.618,1)}36.25%,36.5%{transform:scale(0.632,1)}36.52%,36.77%{transform:scale(0.647,1)}36.79%,37.05%{transform:scale(0.662,1)}37.07%,37.32%{transform:scale(0.676,1)}37.34%,37.59%{transform:scale(0.691,1)}37.61%,38.41%{transform:scale(0.706,1)}38.43%,38.68%{transform:scale(0.721,1)}38.7%,38.95%{transform:scale(0.735,1)}38.97%,39.5%{transform:scale(0.750,1)}39.52%,39.77%{transform:scale(0.765,1)}39.79%,40.04%{transform:scale(0.779,1)}40.06%,40.32%{transform:scale(0.794,1)}40.34%,41.41%{transform:scale(0.809,1)}41.43%,41.68%{transform:scale(0.824,1)}41.7%,42.22%{transform:scale(0.838,1)}42.24%,42.5%{transform:scale(0.853,1)}42.52%,42.77%{transform:scale(0.868,1)}42.79%,43.04%{transform:scale(0.882,1)}43.06%,43.86%{transform:scale(0.897,1)}43.88%,44.13%{transform:scale(0.912,1)}44.15%,44.68%{transform:scale(0.926,1)}44.7%,45.22%{transform:scale(0.941,1)}45.24%,45.49%{transform:scale(0.956,1)}45.51%,47.95%{transform:scale(0.971,1)}47.97%,50.4%{transform:scale(0.985,1)}50.42%,100%{transform:scale(1.000,1)}}.u.u0{fill:var(--c1);animation-name:u0;transform-origin:0.0px 0}@keyframes u1{51.76%{transform:scale(0.000,1)}51.78%,52.58%{transform:scale(0.111,1)}52.6%,53.12%{transform:scale(0.222,1)}53.14%,53.67%{transform:scale(0.333,1)}53.69%,55.85%{transform:scale(0.444,1)}55.87%,62.12%{transform:scale(0.556,1)}62.14%,65.11%{transform:scale(0.667,1)}65.13%,68.38%{transform:scale(0.778,1)}68.4%,70.02%{transform:scale(0.889,1)}70.04%,100%{transform:scale(1.000,1)}}.u.u1{fill:var(--c2);animation-name:u1;transform-origin:711.9px 0}@keyframes u2{81.19%{transform:scale(0.000,1)}81.21%,82.01%{transform:scale(0.500,1)}82.03%,100%{transform:scale(1.000,1)}}.u.u2{fill:var(--c3);animation-name:u2;transform-origin:806.1px 0}@keyframes u3{82.82%{transform:scale(0.000,1)}82.84%,84.73%{transform:scale(0.500,1)}84.75%,100%{transform:scale(1.000,1)}}.u.u3{fill:var(--c4);animation-name:u3;transform-origin:827.1px 0}.s{shape-rendering:geometricPrecision;fill:var(--cs);animation:none linear 36700ms infinite}@keyframes s0{0%,99.73%{transform:translate(0px,-16px)}0.27%{transform:translate(0px,0px)}2.72%{transform:translate(144px,0px)}3%{transform:translate(144px,16px)}3.54%{transform:translate(176px,16px)}3.81%{transform:translate(176px,0px)}4.09%{transform:translate(192px,0px)}5.18%{transform:translate(192px,64px)}6.27%,96.19%{transform:translate(128px,64px)}6.54%{transform:translate(128px,80px)}6.81%,10.63%{transform:translate(112px,80px)}7.63%,97%{transform:translate(112px,32px)}8.45%{transform:translate(64px,32px)}9.54%{transform:translate(64px,96px)}10.35%{transform:translate(112px,96px)}12.53%{transform:translate(224px,80px)}12.81%{transform:translate(224px,64px)}14.71%{transform:translate(336px,64px)}14.99%{transform:translate(336px,48px)}15.53%{transform:translate(368px,48px)}16.08%{transform:translate(368px,80px)}17.17%{transform:translate(432px,80px)}18.53%{transform:translate(432px,0px)}18.8%{transform:translate(416px,0px)}19.07%{transform:translate(416px,16px)}20.44%{transform:translate(496px,16px)}20.71%{transform:translate(496px,32px)}20.98%{transform:translate(512px,32px)}21.53%{transform:translate(512px,64px)}22.34%{transform:translate(464px,64px)}22.89%{transform:translate(464px,96px)}25.07%{transform:translate(592px,96px)}25.61%{transform:translate(592px,64px)}25.89%{transform:translate(576px,64px)}26.98%{transform:translate(576px,0px)}28.07%{transform:translate(512px,0px)}28.34%{transform:translate(512px,-16px)}31.34%{transform:translate(688px,-16px)}31.88%{transform:translate(688px,16px)}34.33%{transform:translate(832px,16px)}34.6%{transform:translate(832px,0px)}35.15%,83.11%{transform:translate(800px,0px)}35.69%,37.87%{transform:translate(800px,32px)}36.24%{transform:translate(832px,32px)}36.51%{transform:translate(832px,48px)}37.33%{transform:translate(784px,48px)}37.6%,82.29%{transform:translate(784px,32px)}38.42%{transform:translate(800px,64px)}38.96%{transform:translate(832px,64px)}39.24%{transform:translate(832px,80px)}39.78%{transform:translate(800px,80px)}40.05%,48.23%{transform:translate(800px,96px)}40.33%{transform:translate(816px,96px)}40.87%{transform:translate(816px,64px)}41.96%{transform:translate(752px,64px)}42.51%{transform:translate(752px,32px)}42.78%{transform:translate(736px,32px)}43.05%,52.86%{transform:translate(736px,48px)}43.32%,51.5%,54.77%{transform:translate(752px,48px)}43.87%,46.59%{transform:translate(752px,80px)}44.41%{transform:translate(720px,80px)}44.69%{transform:translate(720px,64px)}45.23%{transform:translate(688px,64px)}45.5%{transform:translate(688px,80px)}47.14%,56.4%{transform:translate(752px,112px)}47.68%{transform:translate(784px,112px)}47.96%{transform:translate(784px,96px)}49.59%,83.38%{transform:translate(800px,16px)}50.14%{transform:translate(768px,16px)}50.41%{transform:translate(768px,0px)}50.68%{transform:translate(752px,0px)}51.77%{transform:translate(768px,48px)}52.04%{transform:translate(768px,64px)}52.59%{transform:translate(736px,64px)}53.13%{transform:translate(720px,48px)}53.41%{transform:translate(720px,32px)}53.68%{transform:translate(704px,32px)}53.95%{transform:translate(704px,48px)}55.59%{transform:translate(752px,96px)}55.86%,80.93%{transform:translate(768px,96px)}56.13%{transform:translate(768px,112px)}58.04%{transform:translate(752px,16px)}64.85%{transform:translate(352px,16px)}65.12%{transform:translate(352px,32px)}68.12%{transform:translate(176px,32px)}68.39%{transform:translate(176px,48px)}69.21%,96.46%{transform:translate(128px,48px)}70.03%{transform:translate(128px,96px)}82.02%{transform:translate(768px,32px)}82.83%{transform:translate(784px,0px)}83.65%{transform:translate(784px,16px)}84.74%{transform:translate(784px,80px)}95.37%{transform:translate(160px,80px)}95.64%{transform:translate(160px,64px)}96.73%{transform:translate(112px,48px)}97.28%{transform:translate(96px,32px)}98.09%{transform:translate(96px,-16px)}}.s.s0{transform:translate(0px,-16px);animation-name:s0}@keyframes s1{0%,99.73%{transform:translate(16px,-16px)}0.27%{transform:translate(0px,-16px)}0.54%{transform:translate(0px,0px)}3%{transform:translate(144px,0px)}3.27%{transform:translate(144px,16px)}3.81%{transform:translate(176px,16px)}4.09%{transform:translate(176px,0px)}4.36%{transform:translate(192px,0px)}5.45%{transform:translate(192px,64px)}6.54%,96.46%{transform:translate(128px,64px)}6.81%{transform:translate(128px,80px)}7.08%,10.9%{transform:translate(112px,80px)}7.9%,97.28%{transform:translate(112px,32px)}8.72%{transform:translate(64px,32px)}9.81%{transform:translate(64px,96px)}10.63%{transform:translate(112px,96px)}12.81%{transform:translate(224px,80px)}13.08%{transform:translate(224px,64px)}14.99%{transform:translate(336px,64px)}15.26%{transform:translate(336px,48px)}15.8%{transform:translate(368px,48px)}16.35%{transform:translate(368px,80px)}17.44%{transform:translate(432px,80px)}18.8%{transform:translate(432px,0px)}19.07%{transform:translate(416px,0px)}19.35%{transform:translate(416px,16px)}20.71%{transform:translate(496px,16px)}20.98%{transform:translate(496px,32px)}21.25%{transform:translate(512px,32px)}21.8%{transform:translate(512px,64px)}22.62%{transform:translate(464px,64px)}23.16%{transform:translate(464px,96px)}25.34%{transform:translate(592px,96px)}25.89%{transform:translate(592px,64px)}26.16%{transform:translate(576px,64px)}27.25%{transform:translate(576px,0px)}28.34%{transform:translate(512px,0px)}28.61%{transform:translate(512px,-16px)}31.61%{transform:translate(688px,-16px)}32.15%{transform:translate(688px,16px)}34.6%{transform:translate(832px,16px)}34.88%{transform:translate(832px,0px)}35.42%,83.38%{transform:translate(800px,0px)}35.97%,38.15%{transform:translate(800px,32px)}36.51%{transform:translate(832px,32px)}36.78%{transform:translate(832px,48px)}37.6%{transform:translate(784px,48px)}37.87%,82.56%{transform:translate(784px,32px)}38.69%{transform:translate(800px,64px)}39.24%{transform:translate(832px,64px)}39.51%{transform:translate(832px,80px)}40.05%{transform:translate(800px,80px)}40.33%,48.5%{transform:translate(800px,96px)}40.6%{transform:translate(816px,96px)}41.14%{transform:translate(816px,64px)}42.23%{transform:translate(752px,64px)}42.78%{transform:translate(752px,32px)}43.05%{transform:translate(736px,32px)}43.32%,53.13%{transform:translate(736px,48px)}43.6%,51.77%,55.04%{transform:translate(752px,48px)}44.14%,46.87%{transform:translate(752px,80px)}44.69%{transform:translate(720px,80px)}44.96%{transform:translate(720px,64px)}45.5%{transform:translate(688px,64px)}45.78%{transform:translate(688px,80px)}47.41%,56.68%{transform:translate(752px,112px)}47.96%{transform:translate(784px,112px)}48.23%{transform:translate(784px,96px)}49.86%,83.65%{transform:translate(800px,16px)}50.41%{transform:translate(768px,16px)}50.68%{transform:translate(768px,0px)}50.95%{transform:translate(752px,0px)}52.04%{transform:translate(768px,48px)}52.32%{transform:translate(768px,64px)}52.86%{transform:translate(736px,64px)}53.41%{transform:translate(720px,48px)}53.68%{transform:translate(720px,32px)}53.95%{transform:translate(704px,32px)}54.22%{transform:translate(704px,48px)}55.86%{transform:translate(752px,96px)}56.13%,81.2%{transform:translate(768px,96px)}56.4%{transform:translate(768px,112px)}58.31%{transform:translate(752px,16px)}65.12%{transform:translate(352px,16px)}65.4%{transform:translate(352px,32px)}68.39%{transform:translate(176px,32px)}68.66%{transform:translate(176px,48px)}69.48%,96.73%{transform:translate(128px,48px)}70.3%{transform:translate(128px,96px)}82.29%{transform:translate(768px,32px)}83.11%{transform:translate(784px,0px)}83.92%{transform:translate(784px,16px)}85.01%{transform:translate(784px,80px)}95.64%{transform:translate(160px,80px)}95.91%{transform:translate(160px,64px)}97%{transform:translate(112px,48px)}97.55%{transform:translate(96px,32px)}98.37%{transform:translate(96px,-16px)}}.s.s1{transform:translate(16px,-16px);animation-name:s1}@keyframes s2{0%,99.73%{transform:translate(32px,-16px)}0.54%{transform:translate(0px,-16px)}0.82%{transform:translate(0px,0px)}3.27%{transform:translate(144px,0px)}3.54%{transform:translate(144px,16px)}4.09%{transform:translate(176px,16px)}4.36%{transform:translate(176px,0px)}4.63%{transform:translate(192px,0px)}5.72%{transform:translate(192px,64px)}6.81%,96.73%{transform:translate(128px,64px)}7.08%{transform:translate(128px,80px)}7.36%,11.17%{transform:translate(112px,80px)}8.17%,97.55%{transform:translate(112px,32px)}8.99%{transform:translate(64px,32px)}10.08%{transform:translate(64px,96px)}10.9%{transform:translate(112px,96px)}13.08%{transform:translate(224px,80px)}13.35%{transform:translate(224px,64px)}15.26%{transform:translate(336px,64px)}15.53%{transform:translate(336px,48px)}16.08%{transform:translate(368px,48px)}16.62%{transform:translate(368px,80px)}17.71%{transform:translate(432px,80px)}19.07%{transform:translate(432px,0px)}19.35%{transform:translate(416px,0px)}19.62%{transform:translate(416px,16px)}20.98%{transform:translate(496px,16px)}21.25%{transform:translate(496px,32px)}21.53%{transform:translate(512px,32px)}22.07%{transform:translate(512px,64px)}22.89%{transform:translate(464px,64px)}23.43%{transform:translate(464px,96px)}25.61%{transform:translate(592px,96px)}26.16%{transform:translate(592px,64px)}26.43%{transform:translate(576px,64px)}27.52%{transform:translate(576px,0px)}28.61%{transform:translate(512px,0px)}28.88%{transform:translate(512px,-16px)}31.88%{transform:translate(688px,-16px)}32.43%{transform:translate(688px,16px)}34.88%{transform:translate(832px,16px)}35.15%{transform:translate(832px,0px)}35.69%,83.65%{transform:translate(800px,0px)}36.24%,38.42%{transform:translate(800px,32px)}36.78%{transform:translate(832px,32px)}37.06%{transform:translate(832px,48px)}37.87%{transform:translate(784px,48px)}38.15%,82.83%{transform:translate(784px,32px)}38.96%{transform:translate(800px,64px)}39.51%{transform:translate(832px,64px)}39.78%{transform:translate(832px,80px)}40.33%{transform:translate(800px,80px)}40.6%,48.77%{transform:translate(800px,96px)}40.87%{transform:translate(816px,96px)}41.42%{transform:translate(816px,64px)}42.51%{transform:translate(752px,64px)}43.05%{transform:translate(752px,32px)}43.32%{transform:translate(736px,32px)}43.6%,53.41%{transform:translate(736px,48px)}43.87%,52.04%,55.31%{transform:translate(752px,48px)}44.41%,47.14%{transform:translate(752px,80px)}44.96%{transform:translate(720px,80px)}45.23%{transform:translate(720px,64px)}45.78%{transform:translate(688px,64px)}46.05%{transform:translate(688px,80px)}47.68%,56.95%{transform:translate(752px,112px)}48.23%{transform:translate(784px,112px)}48.5%{transform:translate(784px,96px)}50.14%,83.92%{transform:translate(800px,16px)}50.68%{transform:translate(768px,16px)}50.95%{transform:translate(768px,0px)}51.23%{transform:translate(752px,0px)}52.32%{transform:translate(768px,48px)}52.59%{transform:translate(768px,64px)}53.13%{transform:translate(736px,64px)}53.68%{transform:translate(720px,48px)}53.95%{transform:translate(720px,32px)}54.22%{transform:translate(704px,32px)}54.5%{transform:translate(704px,48px)}56.13%{transform:translate(752px,96px)}56.4%,81.47%{transform:translate(768px,96px)}56.68%{transform:translate(768px,112px)}58.58%{transform:translate(752px,16px)}65.4%{transform:translate(352px,16px)}65.67%{transform:translate(352px,32px)}68.66%{transform:translate(176px,32px)}68.94%{transform:translate(176px,48px)}69.75%,97%{transform:translate(128px,48px)}70.57%{transform:translate(128px,96px)}82.56%{transform:translate(768px,32px)}83.38%{transform:translate(784px,0px)}84.2%{transform:translate(784px,16px)}85.29%{transform:translate(784px,80px)}95.91%{transform:translate(160px,80px)}96.19%{transform:translate(160px,64px)}97.28%{transform:translate(112px,48px)}97.82%{transform:translate(96px,32px)}98.64%{transform:translate(96px,-16px)}}.s.s2{transform:translate(32px,-16px);animation-name:s2}@keyframes s3{0%,99.73%{transform:translate(48px,-16px)}0.82%{transform:translate(0px,-16px)}1.09%{transform:translate(0px,0px)}3.54%{transform:translate(144px,0px)}3.81%{transform:translate(144px,16px)}4.36%{transform:translate(176px,16px)}4.63%{transform:translate(176px,0px)}4.9%{transform:translate(192px,0px)}5.99%{transform:translate(192px,64px)}7.08%,97%{transform:translate(128px,64px)}7.36%{transform:translate(128px,80px)}7.63%,11.44%{transform:translate(112px,80px)}8.45%,97.82%{transform:translate(112px,32px)}9.26%{transform:translate(64px,32px)}10.35%{transform:translate(64px,96px)}11.17%{transform:translate(112px,96px)}13.35%{transform:translate(224px,80px)}13.62%{transform:translate(224px,64px)}15.53%{transform:translate(336px,64px)}15.8%{transform:translate(336px,48px)}16.35%{transform:translate(368px,48px)}16.89%{transform:translate(368px,80px)}17.98%{transform:translate(432px,80px)}19.35%{transform:translate(432px,0px)}19.62%{transform:translate(416px,0px)}19.89%{transform:translate(416px,16px)}21.25%{transform:translate(496px,16px)}21.53%{transform:translate(496px,32px)}21.8%{transform:translate(512px,32px)}22.34%{transform:translate(512px,64px)}23.16%{transform:translate(464px,64px)}23.71%{transform:translate(464px,96px)}25.89%{transform:translate(592px,96px)}26.43%{transform:translate(592px,64px)}26.7%{transform:translate(576px,64px)}27.79%{transform:translate(576px,0px)}28.88%{transform:translate(512px,0px)}29.16%{transform:translate(512px,-16px)}32.15%{transform:translate(688px,-16px)}32.7%{transform:translate(688px,16px)}35.15%{transform:translate(832px,16px)}35.42%{transform:translate(832px,0px)}35.97%,83.92%{transform:translate(800px,0px)}36.51%,38.69%{transform:translate(800px,32px)}37.06%{transform:translate(832px,32px)}37.33%{transform:translate(832px,48px)}38.15%{transform:translate(784px,48px)}38.42%,83.11%{transform:translate(784px,32px)}39.24%{transform:translate(800px,64px)}39.78%{transform:translate(832px,64px)}40.05%{transform:translate(832px,80px)}40.6%{transform:translate(800px,80px)}40.87%,49.05%{transform:translate(800px,96px)}41.14%{transform:translate(816px,96px)}41.69%{transform:translate(816px,64px)}42.78%{transform:translate(752px,64px)}43.32%{transform:translate(752px,32px)}43.6%{transform:translate(736px,32px)}43.87%,53.68%{transform:translate(736px,48px)}44.14%,52.32%,55.59%{transform:translate(752px,48px)}44.69%,47.41%{transform:translate(752px,80px)}45.23%{transform:translate(720px,80px)}45.5%{transform:translate(720px,64px)}46.05%{transform:translate(688px,64px)}46.32%{transform:translate(688px,80px)}47.96%,57.22%{transform:translate(752px,112px)}48.5%{transform:translate(784px,112px)}48.77%{transform:translate(784px,96px)}50.41%,84.2%{transform:translate(800px,16px)}50.95%{transform:translate(768px,16px)}51.23%{transform:translate(768px,0px)}51.5%{transform:translate(752px,0px)}52.59%{transform:translate(768px,48px)}52.86%{transform:translate(768px,64px)}53.41%{transform:translate(736px,64px)}53.95%{transform:translate(720px,48px)}54.22%{transform:translate(720px,32px)}54.5%{transform:translate(704px,32px)}54.77%{transform:translate(704px,48px)}56.4%{transform:translate(752px,96px)}56.68%,81.74%{transform:translate(768px,96px)}56.95%{transform:translate(768px,112px)}58.86%{transform:translate(752px,16px)}65.67%{transform:translate(352px,16px)}65.94%{transform:translate(352px,32px)}68.94%{transform:translate(176px,32px)}69.21%{transform:translate(176px,48px)}70.03%,97.28%{transform:translate(128px,48px)}70.84%{transform:translate(128px,96px)}82.83%{transform:translate(768px,32px)}83.65%{transform:translate(784px,0px)}84.47%{transform:translate(784px,16px)}85.56%{transform:translate(784px,80px)}96.19%{transform:translate(160px,80px)}96.46%{transform:translate(160px,64px)}97.55%{transform:translate(112px,48px)}98.09%{transform:translate(96px,32px)}98.91%{transform:translate(96px,-16px)}}.s.s3{transform:translate(48px,-16px);animation-name:s3}</style><rect class="c" x="2" y="2" rx="2" ry="2"/><rect class="c" x="2" y="18" rx="2" ry="2"/><rect class="c" x="2" y="34" rx="2" ry="2"/><rect class="c" x="2" y="50" rx="2" ry="2"/><rect class="c" x="2" y="66" rx="2" ry="2"/><rect class="c" x="2" y="82" rx="2" ry="2"/><rect class="c" x="2" y="98" rx="2" ry="2"/><rect class="c" x="18" y="2" rx="2" ry="2"/><rect class="c" x="18" y="18" rx="2" ry="2"/><rect class="c" x="18" y="34" rx="2" ry="2"/><rect class="c" x="18" y="50" rx="2" ry="2"/><rect class="c" x="18" y="66" rx="2" ry="2"/><rect class="c" x="18" y="82" rx="2" ry="2"/><rect class="c" x="18" y="98" rx="2" ry="2"/><rect class="c" x="34" y="2" rx="2" ry="2"/><rect class="c" x="34" y="18" rx="2" ry="2"/><rect class="c" x="34" y="34" rx="2" ry="2"/><rect class="c" x="34" y="50" rx="2" ry="2"/><rect class="c" x="34" y="66" rx="2" ry="2"/><rect class="c" x="34" y="82" rx="2" ry="2"/><rect class="c" x="34" y="98" rx="2" ry="2"/><rect class="c" x="50" y="2" rx="2" ry="2"/><rect class="c" x="50" y="18" rx="2" ry="2"/><rect class="c" x="50" y="34" rx="2" ry="2"/><rect class="c" x="50" y="50" rx="2" ry="2"/><rect class="c" x="50" y="66" rx="2" ry="2"/><rect class="c" x="50" y="82" rx="2" ry="2"/><rect class="c" x="50" y="98" rx="2" ry="2"/><rect class="c" x="66" y="2" rx="2" ry="2"/><rect class="c" x="66" y="18" rx="2" ry="2"/><rect class="c" x="66" y="34" rx="2" ry="2"/><rect class="c" x="66" y="50" rx="2" ry="2"/><rect class="c" x="66" y="66" rx="2" ry="2"/><rect class="c" x="66" y="82" rx="2" ry="2"/><rect class="c c0" x="66" y="98" rx="2" ry="2"/><rect class="c" x="82" y="2" rx="2" ry="2"/><rect class="c" x="82" y="18" rx="2" ry="2"/><rect class="c" x="82" y="34" rx="2" ry="2"/><rect class="c" x="82" y="50" rx="2" ry="2"/><rect class="c" x="82" y="66" rx="2" ry="2"/><rect class="c" x="82" y="82" rx="2" ry="2"/><rect class="c" x="82" y="98" rx="2" ry="2"/><rect class="c" x="98" y="2" rx="2" ry="2"/><rect class="c" x="98" y="18" rx="2" ry="2"/><rect class="c" x="98" y="34" rx="2" ry="2"/><rect class="c" x="98" y="50" rx="2" ry="2"/><rect class="c" x="98" y="66" rx="2" ry="2"/><rect class="c" x="98" y="82" rx="2" ry="2"/><rect class="c" x="98" y="98" rx="2" ry="2"/><rect class="c c1" x="114" y="2" rx="2" ry="2"/><rect class="c" x="114" y="18" rx="2" ry="2"/><rect class="c c2" x="114" y="34" rx="2" ry="2"/><rect class="c" x="114" y="50" rx="2" ry="2"/><rect class="c" x="114" y="66" rx="2" ry="2"/><rect class="c" x="114" y="82" rx="2" ry="2"/><rect class="c" x="114" y="98" rx="2" ry="2"/><rect class="c" x="130" y="2" rx="2" ry="2"/><rect class="c" x="130" y="18" rx="2" ry="2"/><rect class="c" x="130" y="34" rx="2" ry="2"/><rect class="c" x="130" y="50" rx="2" ry="2"/><rect class="c" x="130" y="66" rx="2" ry="2"/><rect class="c c3" x="130" y="82" rx="2" ry="2"/><rect class="c c4" x="130" y="98" rx="2" ry="2"/><rect class="c c5" x="146" y="2" rx="2" ry="2"/><rect class="c c6" x="146" y="18" rx="2" ry="2"/><rect class="c" x="146" y="34" rx="2" ry="2"/><rect class="c" x="146" y="50" rx="2" ry="2"/><rect class="c" x="146" y="66" rx="2" ry="2"/><rect class="c" x="146" y="82" rx="2" ry="2"/><rect class="c" x="146" y="98" rx="2" ry="2"/><rect class="c" x="162" y="2" rx="2" ry="2"/><rect class="c" x="162" y="18" rx="2" ry="2"/><rect class="c" x="162" y="34" rx="2" ry="2"/><rect class="c" x="162" y="50" rx="2" ry="2"/><rect class="c" x="162" y="66" rx="2" ry="2"/><rect class="c" x="162" y="82" rx="2" ry="2"/><rect class="c" x="162" y="98" rx="2" ry="2"/><rect class="c c7" x="178" y="2" rx="2" ry="2"/><rect class="c c8" x="178" y="18" rx="2" ry="2"/><rect class="c" x="178" y="34" rx="2" ry="2"/><rect class="c c9" x="178" y="50" rx="2" ry="2"/><rect class="c ca" x="178" y="66" rx="2" ry="2"/><rect class="c" x="178" y="82" rx="2" ry="2"/><rect class="c" x="178" y="98" rx="2" ry="2"/><rect class="c" x="194" y="2" rx="2" ry="2"/><rect class="c" x="194" y="18" rx="2" ry="2"/><rect class="c" x="194" y="34" rx="2" ry="2"/><rect class="c" x="194" y="50" rx="2" ry="2"/><rect class="c" x="194" y="66" rx="2" ry="2"/><rect class="c" x="194" y="82" rx="2" ry="2"/><rect class="c" x="194" y="98" rx="2" ry="2"/><rect class="c" x="210" y="2" rx="2" ry="2"/><rect class="c" x="210" y="18" rx="2" ry="2"/><rect class="c" x="210" y="34" rx="2" ry="2"/><rect class="c" x="210" y="50" rx="2" ry="2"/><rect class="c" x="210" y="66" rx="2" ry="2"/><rect class="c" x="210" y="82" rx="2" ry="2"/><rect class="c" x="210" y="98" rx="2" ry="2"/><rect class="c" x="226" y="2" rx="2" ry="2"/><rect class="c" x="226" y="18" rx="2" ry="2"/><rect class="c" x="226" y="34" rx="2" ry="2"/><rect class="c" x="226" y="50" rx="2" ry="2"/><rect class="c cb" x="226" y="66" rx="2" ry="2"/><rect class="c cc" x="226" y="82" rx="2" ry="2"/><rect class="c" x="226" y="98" rx="2" ry="2"/><rect class="c" x="242" y="2" rx="2" ry="2"/><rect class="c" x="242" y="18" rx="2" ry="2"/><rect class="c" x="242" y="34" rx="2" ry="2"/><rect class="c" x="242" y="50" rx="2" ry="2"/><rect class="c" x="242" y="66" rx="2" ry="2"/><rect class="c" x="242" y="82" rx="2" ry="2"/><rect class="c" x="242" y="98" rx="2" ry="2"/><rect class="c" x="258" y="2" rx="2" ry="2"/><rect class="c" x="258" y="18" rx="2" ry="2"/><rect class="c" x="258" y="34" rx="2" ry="2"/><rect class="c" x="258" y="50" rx="2" ry="2"/><rect class="c" x="258" y="66" rx="2" ry="2"/><rect class="c" x="258" y="82" rx="2" ry="2"/><rect class="c" x="258" y="98" rx="2" ry="2"/><rect class="c" x="274" y="2" rx="2" ry="2"/><rect class="c" x="274" y="18" rx="2" ry="2"/><rect class="c" x="274" y="34" rx="2" ry="2"/><rect class="c" x="274" y="50" rx="2" ry="2"/><rect class="c" x="274" y="66" rx="2" ry="2"/><rect class="c" x="274" y="82" rx="2" ry="2"/><rect class="c" x="274" y="98" rx="2" ry="2"/><rect class="c" x="290" y="2" rx="2" ry="2"/><rect class="c" x="290" y="18" rx="2" ry="2"/><rect class="c" x="290" y="34" rx="2" ry="2"/><rect class="c" x="290" y="50" rx="2" ry="2"/><rect class="c" x="290" y="66" rx="2" ry="2"/><rect class="c" x="290" y="82" rx="2" ry="2"/><rect class="c" x="290" y="98" rx="2" ry="2"/><rect class="c" x="306" y="2" rx="2" ry="2"/><rect class="c" x="306" y="18" rx="2" ry="2"/><rect class="c" x="306" y="34" rx="2" ry="2"/><rect class="c" x="306" y="50" rx="2" ry="2"/><rect class="c" x="306" y="66" rx="2" ry="2"/><rect class="c" x="306" y="82" rx="2" ry="2"/><rect class="c" x="306" y="98" rx="2" ry="2"/><rect class="c" x="322" y="2" rx="2" ry="2"/><rect class="c" x="322" y="18" rx="2" ry="2"/><rect class="c" x="322" y="34" rx="2" ry="2"/><rect class="c" x="322" y="50" rx="2" ry="2"/><rect class="c" x="322" y="66" rx="2" ry="2"/><rect class="c" x="322" y="82" rx="2" ry="2"/><rect class="c" x="322" y="98" rx="2" ry="2"/><rect class="c" x="338" y="2" rx="2" ry="2"/><rect class="c" x="338" y="18" rx="2" ry="2"/><rect class="c" x="338" y="34" rx="2" ry="2"/><rect class="c cd" x="338" y="50" rx="2" ry="2"/><rect class="c" x="338" y="66" rx="2" ry="2"/><rect class="c" x="338" y="82" rx="2" ry="2"/><rect class="c" x="338" y="98" rx="2" ry="2"/><rect class="c" x="354" y="2" rx="2" ry="2"/><rect class="c" x="354" y="18" rx="2" ry="2"/><rect class="c ce" x="354" y="34" rx="2" ry="2"/><rect class="c cf" x="354" y="50" rx="2" ry="2"/><rect class="c" x="354" y="66" rx="2" ry="2"/><rect class="c" x="354" y="82" rx="2" ry="2"/><rect class="c" x="354" y="98" rx="2" ry="2"/><rect class="c" x="370" y="2" rx="2" ry="2"/><rect class="c" x="370" y="18" rx="2" ry="2"/><rect class="c" x="370" y="34" rx="2" ry="2"/><rect class="c" x="370" y="50" rx="2" ry="2"/><rect class="c" x="370" y="66" rx="2" ry="2"/><rect class="c cg" x="370" y="82" rx="2" ry="2"/><rect class="c" x="370" y="98" rx="2" ry="2"/><rect class="c" x="386" y="2" rx="2" ry="2"/><rect class="c" x="386" y="18" rx="2" ry="2"/><rect class="c" x="386" y="34" rx="2" ry="2"/><rect class="c" x="386" y="50" rx="2" ry="2"/><rect class="c" x="386" y="66" rx="2" ry="2"/><rect class="c" x="386" y="82" rx="2" ry="2"/><rect class="c" x="386" y="98" rx="2" ry="2"/><rect class="c" x="402" y="2" rx="2" ry="2"/><rect class="c" x="402" y="18" rx="2" ry="2"/><rect class="c" x="402" y="34" rx="2" ry="2"/><rect class="c" x="402" y="50" rx="2" ry="2"/><rect class="c" x="402" y="66" rx="2" ry="2"/><rect class="c ch" x="402" y="82" rx="2" ry="2"/><rect class="c" x="402" y="98" rx="2" ry="2"/><rect class="c ci" x="418" y="2" rx="2" ry="2"/><rect class="c" x="418" y="18" rx="2" ry="2"/><rect class="c" x="418" y="34" rx="2" ry="2"/><rect class="c" x="418" y="50" rx="2" ry="2"/><rect class="c" x="418" y="66" rx="2" ry="2"/><rect class="c cj" x="418" y="82" rx="2" ry="2"/><rect class="c" x="418" y="98" rx="2" ry="2"/><rect class="c ck" x="434" y="2" rx="2" ry="2"/><rect class="c cl" x="434" y="18" rx="2" ry="2"/><rect class="c" x="434" y="34" rx="2" ry="2"/><rect class="c cm" x="434" y="50" rx="2" ry="2"/><rect class="c" x="434" y="66" rx="2" ry="2"/><rect class="c" x="434" y="82" rx="2" ry="2"/><rect class="c" x="434" y="98" rx="2" ry="2"/><rect class="c" x="450" y="2" rx="2" ry="2"/><rect class="c" x="450" y="18" rx="2" ry="2"/><rect class="c" x="450" y="34" rx="2" ry="2"/><rect class="c" x="450" y="50" rx="2" ry="2"/><rect class="c" x="450" y="66" rx="2" ry="2"/><rect class="c" x="450" y="82" rx="2" ry="2"/><rect class="c" x="450" y="98" rx="2" ry="2"/><rect class="c" x="466" y="2" rx="2" ry="2"/><rect class="c" x="466" y="18" rx="2" ry="2"/><rect class="c" x="466" y="34" rx="2" ry="2"/><rect class="c" x="466" y="50" rx="2" ry="2"/><rect class="c cn" x="466" y="66" rx="2" ry="2"/><rect class="c" x="466" y="82" rx="2" ry="2"/><rect class="c co" x="466" y="98" rx="2" ry="2"/><rect class="c" x="482" y="2" rx="2" ry="2"/><rect class="c" x="482" y="18" rx="2" ry="2"/><rect class="c" x="482" y="34" rx="2" ry="2"/><rect class="c" x="482" y="50" rx="2" ry="2"/><rect class="c cp" x="482" y="66" rx="2" ry="2"/><rect class="c" x="482" y="82" rx="2" ry="2"/><rect class="c" x="482" y="98" rx="2" ry="2"/><rect class="c" x="498" y="2" rx="2" ry="2"/><rect class="c" x="498" y="18" rx="2" ry="2"/><rect class="c cq" x="498" y="34" rx="2" ry="2"/><rect class="c" x="498" y="50" rx="2" ry="2"/><rect class="c" x="498" y="66" rx="2" ry="2"/><rect class="c" x="498" y="82" rx="2" ry="2"/><rect class="c" x="498" y="98" rx="2" ry="2"/><rect class="c cr" x="514" y="2" rx="2" ry="2"/><rect class="c cs" x="514" y="18" rx="2" ry="2"/><rect class="c" x="514" y="34" rx="2" ry="2"/><rect class="c" x="514" y="50" rx="2" ry="2"/><rect class="c ct" x="514" y="66" rx="2" ry="2"/><rect class="c" x="514" y="82" rx="2" ry="2"/><rect class="c" x="514" y="98" rx="2" ry="2"/><rect class="c" x="530" y="2" rx="2" ry="2"/><rect class="c" x="530" y="18" rx="2" ry="2"/><rect class="c" x="530" y="34" rx="2" ry="2"/><rect class="c" x="530" y="50" rx="2" ry="2"/><rect class="c" x="530" y="66" rx="2" ry="2"/><rect class="c" x="530" y="82" rx="2" ry="2"/><rect class="c" x="530" y="98" rx="2" ry="2"/><rect class="c" x="546" y="2" rx="2" ry="2"/><rect class="c" x="546" y="18" rx="2" ry="2"/><rect class="c" x="546" y="34" rx="2" ry="2"/><rect class="c" x="546" y="50" rx="2" ry="2"/><rect class="c" x="546" y="66" rx="2" ry="2"/><rect class="c" x="546" y="82" rx="2" ry="2"/><rect class="c" x="546" y="98" rx="2" ry="2"/><rect class="c" x="562" y="2" rx="2" ry="2"/><rect class="c" x="562" y="18" rx="2" ry="2"/><rect class="c" x="562" y="34" rx="2" ry="2"/><rect class="c" x="562" y="50" rx="2" ry="2"/><rect class="c" x="562" y="66" rx="2" ry="2"/><rect class="c" x="562" y="82" rx="2" ry="2"/><rect class="c" x="562" y="98" rx="2" ry="2"/><rect class="c" x="578" y="2" rx="2" ry="2"/><rect class="c" x="578" y="18" rx="2" ry="2"/><rect class="c" x="578" y="34" rx="2" ry="2"/><rect class="c" x="578" y="50" rx="2" ry="2"/><rect class="c cu" x="578" y="66" rx="2" ry="2"/><rect class="c" x="578" y="82" rx="2" ry="2"/><rect class="c" x="578" y="98" rx="2" ry="2"/><rect class="c" x="594" y="2" rx="2" ry="2"/><rect class="c" x="594" y="18" rx="2" ry="2"/><rect class="c" x="594" y="34" rx="2" ry="2"/><rect class="c" x="594" y="50" rx="2" ry="2"/><rect class="c" x="594" y="66" rx="2" ry="2"/><rect class="c cv" x="594" y="82" rx="2" ry="2"/><rect class="c" x="594" y="98" rx="2" ry="2"/><rect class="c" x="610" y="2" rx="2" ry="2"/><rect class="c" x="610" y="18" rx="2" ry="2"/><rect class="c" x="610" y="34" rx="2" ry="2"/><rect class="c" x="610" y="50" rx="2" ry="2"/><rect class="c" x="610" y="66" rx="2" ry="2"/><rect class="c" x="610" y="82" rx="2" ry="2"/><rect class="c" x="610" y="98" rx="2" ry="2"/><rect class="c" x="626" y="2" rx="2" ry="2"/><rect class="c" x="626" y="18" rx="2" ry="2"/><rect class="c" x="626" y="34" rx="2" ry="2"/><rect class="c" x="626" y="50" rx="2" ry="2"/><rect class="c" x="626" y="66" rx="2" ry="2"/><rect class="c" x="626" y="82" rx="2" ry="2"/><rect class="c" x="626" y="98" rx="2" ry="2"/><rect class="c" x="642" y="2" rx="2" ry="2"/><rect class="c" x="642" y="18" rx="2" ry="2"/><rect class="c" x="642" y="34" rx="2" ry="2"/><rect class="c" x="642" y="50" rx="2" ry="2"/><rect class="c" x="642" y="66" rx="2" ry="2"/><rect class="c" x="642" y="82" rx="2" ry="2"/><rect class="c" x="642" y="98" rx="2" ry="2"/><rect class="c" x="658" y="2" rx="2" ry="2"/><rect class="c" x="658" y="18" rx="2" ry="2"/><rect class="c" x="658" y="34" rx="2" ry="2"/><rect class="c" x="658" y="50" rx="2" ry="2"/><rect class="c" x="658" y="66" rx="2" ry="2"/><rect class="c" x="658" y="82" rx="2" ry="2"/><rect class="c" x="658" y="98" rx="2" ry="2"/><rect class="c" x="674" y="2" rx="2" ry="2"/><rect class="c" x="674" y="18" rx="2" ry="2"/><rect class="c" x="674" y="34" rx="2" ry="2"/><rect class="c" x="674" y="50" rx="2" ry="2"/><rect class="c" x="674" y="66" rx="2" ry="2"/><rect class="c" x="674" y="82" rx="2" ry="2"/><rect class="c" x="674" y="98" rx="2" ry="2"/><rect class="c" x="690" y="2" rx="2" ry="2"/><rect class="c cw" x="690" y="18" rx="2" ry="2"/><rect class="c" x="690" y="34" rx="2" ry="2"/><rect class="c" x="690" y="50" rx="2" ry="2"/><rect class="c cx" x="690" y="66" rx="2" ry="2"/><rect class="c cy" x="690" y="82" rx="2" ry="2"/><rect class="c" x="690" y="98" rx="2" ry="2"/><rect class="c" x="706" y="2" rx="2" ry="2"/><rect class="c cz" x="706" y="18" rx="2" ry="2"/><rect class="c c10" x="706" y="34" rx="2" ry="2"/><rect class="c" x="706" y="50" rx="2" ry="2"/><rect class="c" x="706" y="66" rx="2" ry="2"/><rect class="c" x="706" y="82" rx="2" ry="2"/><rect class="c" x="706" y="98" rx="2" ry="2"/><rect class="c" x="722" y="2" rx="2" ry="2"/><rect class="c c11" x="722" y="18" rx="2" ry="2"/><rect class="c" x="722" y="34" rx="2" ry="2"/><rect class="c c12" x="722" y="50" rx="2" ry="2"/><rect class="c c13" x="722" y="66" rx="2" ry="2"/><rect class="c" x="722" y="82" rx="2" ry="2"/><rect class="c" x="722" y="98" rx="2" ry="2"/><rect class="c" x="738" y="2" rx="2" ry="2"/><rect class="c" x="738" y="18" rx="2" ry="2"/><rect class="c c14" x="738" y="34" rx="2" ry="2"/><rect class="c c15" x="738" y="50" rx="2" ry="2"/><rect class="c c16" x="738" y="66" rx="2" ry="2"/><rect class="c c17" x="738" y="82" rx="2" ry="2"/><rect class="c" x="738" y="98" rx="2" ry="2"/><rect class="c" x="754" y="2" rx="2" ry="2"/><rect class="c c18" x="754" y="18" rx="2" ry="2"/><rect class="c c19" x="754" y="34" rx="2" ry="2"/><rect class="c c1a" x="754" y="50" rx="2" ry="2"/><rect class="c" x="754" y="66" rx="2" ry="2"/><rect class="c c1b" x="754" y="82" rx="2" ry="2"/><rect class="c" x="754" y="98" rx="2" ry="2"/><rect class="c c1c" x="770" y="2" rx="2" ry="2"/><rect class="c c1d" x="770" y="18" rx="2" ry="2"/><rect class="c c1e" x="770" y="34" rx="2" ry="2"/><rect class="c c1f" x="770" y="50" rx="2" ry="2"/><rect class="c c1g" x="770" y="66" rx="2" ry="2"/><rect class="c c1h" x="770" y="82" rx="2" ry="2"/><rect class="c c1i" x="770" y="98" rx="2" ry="2"/><rect class="c c1j" x="786" y="2" rx="2" ry="2"/><rect class="c c1k" x="786" y="18" rx="2" ry="2"/><rect class="c c1l" x="786" y="34" rx="2" ry="2"/><rect class="c c1m" x="786" y="50" rx="2" ry="2"/><rect class="c c1n" x="786" y="66" rx="2" ry="2"/><rect class="c c1o" x="786" y="82" rx="2" ry="2"/><rect class="c c1p" x="786" y="98" rx="2" ry="2"/><rect class="c c1q" x="802" y="2" rx="2" ry="2"/><rect class="c c1r" x="802" y="18" rx="2" ry="2"/><rect class="c c1s" x="802" y="34" rx="2" ry="2"/><rect class="c c1t" x="802" y="50" rx="2" ry="2"/><rect class="c c1u" x="802" y="66" rx="2" ry="2"/><rect class="c c1v" x="802" y="82" rx="2" ry="2"/><rect class="c c1w" x="802" y="98" rx="2" ry="2"/><rect class="c c1x" x="818" y="2" rx="2" ry="2"/><rect class="c c1y" x="818" y="18" rx="2" ry="2"/><rect class="c c1z" x="818" y="34" rx="2" ry="2"/><rect class="c c20" x="818" y="50" rx="2" ry="2"/><rect class="c c21" x="818" y="66" rx="2" ry="2"/><rect class="c c22" x="818" y="82" rx="2" ry="2"/><rect class="c c23" x="818" y="98" rx="2" ry="2"/><rect class="c c24" x="834" y="2" rx="2" ry="2"/><rect class="c c25" x="834" y="18" rx="2" ry="2"/><rect class="c c26" x="834" y="34" rx="2" ry="2"/><rect class="c c27" x="834" y="50" rx="2" ry="2"/><rect class="c c28" x="834" y="66" rx="2" ry="2"/><rect class="u u0" height="12" width="712.5" x="0.0" y="144"/><rect class="u u1" height="12" width="94.8" x="711.9" y="144"/><rect class="u u2" height="12" width="21.5" x="806.1" y="144"/><rect class="u u3" height="12" width="21.5" x="827.1" y="144"/><rect class="s s0" x="0.8" y="0.8" width="14.4" height="14.4" rx="4.5" ry="4.5"/><rect class="s s1" x="1.8" y="1.8" width="12.3" height="12.3" rx="4.1" ry="4.1"/><rect class="s s2" x="2.6" y="2.6" width="10.8" height="10.8" rx="3.6" ry="3.6"/><rect class="s s3" x="3.0" y="3.0" width="9.9" height="9.9" rx="3.3" ry="3.3"/></svg>