<svg viewBox="-16 -32 880 192" width="880" height="192" xmlns="http://www.w3.org/2000/svg"><desc>Generated with https://github.com/Platane/snk</desc><style>:root{--cb:#1b1f230a;--cs:white;--ce:#0a0e12;--c0:#0a0e12;--c1:#1445a2;--c2:#1d65ee;--c3:#1f4eff;--c4:#466dff}.c{shape-rendering:geometricPrecision;fill:var(--ce);stroke-width:1px;stroke:var(--cb);animation:none 36100ms linear infinite;width:12px;height:12px}@keyframes c0{0.54%{fill:var(--c1)}0.56%,100%{fill:var(--ce)}}.c.c0{fill:var(--c1);animation-name:c0}@keyframes c1{68.69%{fill:var(--c2)}68.71%,100%{fill:var(--ce)}}.c.c1{fill:var(--c2);animation-name:c1}@keyframes c2{25.75%{fill:var(--c1)}25.77%,100%{fill:var(--ce)}}.c.c2{fill:var(--c1);animation-name:c2}@keyframes c3{25.2%{fill:var(--c1)}25.22%,100%{fill:var(--ce)}}.c.c3{fill:var(--c1);animation-name:c3}@keyframes c4{1.38%{fill:var(--c1)}1.4%,100%{fill:var(--ce)}}.c.c4{fill:var(--c1);animation-name:c4}@keyframes c5{24.92%{fill:var(--c1)}24.94%,100%{fill:var(--ce)}}.c.c5{fill:var(--c1);animation-name:c5}@keyframes c6{3.87%{fill:var(--c1)}3.89%,100%{fill:var(--ce)}}.c.c6{fill:var(--c1);animation-name:c6}@keyframes c7{4.15%{fill:var(--c1)}4.17%,100%{fill:var(--ce)}}.c.c7{fill:var(--c1);animation-name:c7}@keyframes c8{98.33%{fill:var(--c4)}98.35%,100%{fill:var(--ce)}}.c.c8{fill:var(--c4);animation-name:c8}@keyframes c9{2.21%{fill:var(--c1)}2.23%,100%{fill:var(--ce)}}.c.c9{fill:var(--c1);animation-name:c9}@keyframes ca{3.59%{fill:var(--c1)}3.61%,100%{fill:var(--ce)}}.c.ca{fill:var(--c1);animation-name:ca}@keyframes cb{4.42%{fill:var(--c1)}4.44%,100%{fill:var(--ce)}}.c.cb{fill:var(--c1);animation-name:cb}@keyframes cc{71.18%{fill:var(--c3)}71.2%,100%{fill:var(--ce)}}.c.cc{fill:var(--c3);animation-name:cc}@keyframes cd{3.04%{fill:var(--c1)}3.06%,100%{fill:var(--ce)}}.c.cd{fill:var(--c1);animation-name:cd}@keyframes ce{4.98%{fill:var(--c1)}5%,100%{fill:var(--ce)}}.c.ce{fill:var(--c1);animation-name:ce}@keyframes cf{97.5%{fill:var(--c4)}97.52%,100%{fill:var(--ce)}}.c.cf{fill:var(--c4);animation-name:cf}@keyframes cg{23.26%{fill:var(--c1)}23.28%,100%{fill:var(--ce)}}.c.cg{fill:var(--c1);animation-name:cg}@keyframes ch{66.75%{fill:var(--c2)}66.77%,100%{fill:var(--ce)}}.c.ch{fill:var(--c2);animation-name:ch}@keyframes ci{5.53%{fill:var(--c1)}5.55%,100%{fill:var(--ce)}}.c.ci{fill:var(--c1);animation-name:ci}@keyframes cj{73.95%{fill:var(--c3)}73.97%,100%{fill:var(--ce)}}.c.cj{fill:var(--c3);animation-name:cj}@keyframes ck{66.19%{fill:var(--c2)}66.21%,100%{fill:var(--ce)}}.c.ck{fill:var(--c2);animation-name:ck}@keyframes cl{95.56%{fill:var(--c4)}95.58%,100%{fill:var(--ce)}}.c.cl{fill:var(--c4);animation-name:cl}@keyframes cm{21.87%{fill:var(--c1)}21.89%,100%{fill:var(--ce)}}.c.cm{fill:var(--c1);animation-name:cm}@keyframes cn{64.81%{fill:var(--c2)}64.83%,100%{fill:var(--ce)}}.c.cn{fill:var(--c2);animation-name:cn}@keyframes co{94.45%{fill:var(--c4)}94.47%,100%{fill:var(--ce)}}.c.co{fill:var(--c4);animation-name:co}@keyframes cp{7.75%{fill:var(--c1)}7.77%,100%{fill:var(--ce)}}.c.cp{fill:var(--c1);animation-name:cp}@keyframes cq{7.47%{fill:var(--c1)}7.49%,100%{fill:var(--ce)}}.c.cq{fill:var(--c1);animation-name:cq}@keyframes cr{77.55%{fill:var(--c3)}77.57%,100%{fill:var(--ce)}}.c.cr{fill:var(--c3);animation-name:cr}@keyframes cs{72.84%{fill:var(--c3)}72.86%,100%{fill:var(--ce)}}.c.cs{fill:var(--c3);animation-name:cs}@keyframes ct{64.26%{fill:var(--c2)}64.28%,100%{fill:var(--ce)}}.c.ct{fill:var(--c2);animation-name:ct}@keyframes cu{6.92%{fill:var(--c1)}6.94%,100%{fill:var(--ce)}}.c.cu{fill:var(--c1);animation-name:cu}@keyframes cv{62.59%{fill:var(--c2)}62.61%,100%{fill:var(--ce)}}.c.cv{fill:var(--c2);animation-name:cv}@keyframes cw{62.32%{fill:var(--c2)}62.34%,100%{fill:var(--ce)}}.c.cw{fill:var(--c2);animation-name:cw}@keyframes cx{61.76%{fill:var(--c2)}61.78%,100%{fill:var(--ce)}}.c.cx{fill:var(--c2);animation-name:cx}@keyframes cy{61.49%{fill:var(--c2)}61.51%,100%{fill:var(--ce)}}.c.cy{fill:var(--c2);animation-name:cy}@keyframes cz{60.93%{fill:var(--c2)}60.95%,100%{fill:var(--ce)}}.c.cz{fill:var(--c2);animation-name:cz}@keyframes c10{63.42%{fill:var(--c2)}63.44%,100%{fill:var(--ce)}}.c.c10{fill:var(--c2);animation-name:c10}@keyframes c11{75.34%{fill:var(--c3)}75.36%,100%{fill:var(--ce)}}.c.c11{fill:var(--c3);animation-name:c11}@keyframes c12{75.61%{fill:var(--c3)}75.63%,100%{fill:var(--ce)}}.c.c12{fill:var(--c3);animation-name:c12}@keyframes c13{9.96%{fill:var(--c1)}9.98%,100%{fill:var(--ce)}}.c.c13{fill:var(--c1);animation-name:c13}@keyframes c14{19.1%{fill:var(--c1)}19.12%,100%{fill:var(--ce)}}.c.c14{fill:var(--c1);animation-name:c14}@keyframes c15{11.07%{fill:var(--c1)}11.09%,100%{fill:var(--ce)}}.c.c15{fill:var(--c1);animation-name:c15}@keyframes c16{11.35%{fill:var(--c1)}11.37%,100%{fill:var(--ce)}}.c.c16{fill:var(--c1);animation-name:c16}@keyframes c17{18.83%{fill:var(--c1)}18.85%,100%{fill:var(--ce)}}.c.c17{fill:var(--c1);animation-name:c17}@keyframes c18{11.62%{fill:var(--c1)}11.64%,100%{fill:var(--ce)}}.c.c18{fill:var(--c1);animation-name:c18}@keyframes c19{12.73%{fill:var(--c1)}12.75%,100%{fill:var(--ce)}}.c.c19{fill:var(--c1);animation-name:c19}@keyframes c1a{16.33%{fill:var(--c1)}16.35%,100%{fill:var(--ce)}}.c.c1a{fill:var(--c1);animation-name:c1a}@keyframes c1b{14.95%{fill:var(--c1)}14.97%,100%{fill:var(--ce)}}.c.c1b{fill:var(--c1);animation-name:c1b}@keyframes c1c{15.5%{fill:var(--c1)}15.52%,100%{fill:var(--ce)}}.c.c1c{fill:var(--c1);animation-name:c1c}@keyframes c1d{56.5%{fill:var(--c2)}56.52%,100%{fill:var(--ce)}}.c.c1d{fill:var(--c2);animation-name:c1d}@keyframes c1e{56.78%{fill:var(--c2)}56.8%,100%{fill:var(--ce)}}.c.c1e{fill:var(--c2);animation-name:c1e}@keyframes c1f{35.72%{fill:var(--c1)}35.74%,100%{fill:var(--ce)}}.c.c1f{fill:var(--c1);animation-name:c1f}@keyframes c1g{52.62%{fill:var(--c2)}52.64%,100%{fill:var(--ce)}}.c.c1g{fill:var(--c2);animation-name:c1g}@keyframes c1h{43.2%{fill:var(--c1)}43.22%,100%{fill:var(--ce)}}.c.c1h{fill:var(--c1);animation-name:c1h}@keyframes c1i{37.11%{fill:var(--c1)}37.13%,100%{fill:var(--ce)}}.c.c1i{fill:var(--c1);animation-name:c1i}@keyframes c1j{85.59%{fill:var(--c3)}85.61%,100%{fill:var(--ce)}}.c.c1j{fill:var(--c3);animation-name:c1j}@keyframes c1k{42.1%{fill:var(--c1)}42.12%,100%{fill:var(--ce)}}.c.c1k{fill:var(--c1);animation-name:c1k}@keyframes c1l{42.37%{fill:var(--c1)}42.39%,100%{fill:var(--ce)}}.c.c1l{fill:var(--c1);animation-name:c1l}@keyframes c1m{41.54%{fill:var(--c1)}41.56%,100%{fill:var(--ce)}}.c.c1m{fill:var(--c1);animation-name:c1m}@keyframes c1n{41.26%{fill:var(--c1)}41.28%,100%{fill:var(--ce)}}.c.c1n{fill:var(--c1);animation-name:c1n}@keyframes c1o{50.68%{fill:var(--c2)}50.7%,100%{fill:var(--ce)}}.c.c1o{fill:var(--c2);animation-name:c1o}@keyframes c1p{38.22%{fill:var(--c1)}38.24%,100%{fill:var(--ce)}}.c.c1p{fill:var(--c1);animation-name:c1p}@keyframes c1q{39.05%{fill:var(--c1)}39.07%,100%{fill:var(--ce)}}.c.c1q{fill:var(--c1);animation-name:c1q}@keyframes c1r{39.33%{fill:var(--c1)}39.35%,100%{fill:var(--ce)}}.c.c1r{fill:var(--c1);animation-name:c1r}@keyframes c1s{47.91%{fill:var(--c1)}47.93%,100%{fill:var(--ce)}}.c.c1s{fill:var(--c1);animation-name:c1s}@keyframes c1t{47.36%{fill:var(--c1)}47.38%,100%{fill:var(--ce)}}.c.c1t{fill:var(--c1);animation-name:c1t}.u{transform-origin:0 0;transform:scale(0,1);animation:none linear 36100ms infinite}@keyframes u0{0.54%{transform:scale(0.000,1)}0.56%,1.38%{transform:scale(0.025,1)}1.4%,2.21%{transform:scale(0.050,1)}2.23%,3.04%{transform:scale(0.075,1)}3.06%,3.59%{transform:scale(0.100,1)}3.61%,3.87%{transform:scale(0.125,1)}3.89%,4.15%{transform:scale(0.150,1)}4.17%,4.42%{transform:scale(0.175,1)}4.44%,4.98%{transform:scale(0.200,1)}5%,5.53%{transform:scale(0.225,1)}5.55%,6.92%{transform:scale(0.250,1)}6.94%,7.47%{transform:scale(0.275,1)}7.49%,7.75%{transform:scale(0.300,1)}7.77%,9.96%{transform:scale(0.325,1)}9.98%,11.07%{transform:scale(0.350,1)}11.09%,11.35%{transform:scale(0.375,1)}11.37%,11.62%{transform:scale(0.400,1)}11.64%,12.73%{transform:scale(0.425,1)}12.75%,14.95%{transform:scale(0.450,1)}14.97%,15.5%{transform:scale(0.475,1)}15.52%,16.33%{transform:scale(0.500,1)}16.35%,18.83%{transform:scale(0.525,1)}18.85%,19.1%{transform:scale(0.550,1)}19.12%,21.87%{transform:scale(0.575,1)}21.89%,23.26%{transform:scale(0.600,1)}23.28%,24.92%{transform:scale(0.625,1)}24.94%,25.2%{transform:scale(0.650,1)}25.22%,25.75%{transform:scale(0.675,1)}25.77%,35.72%{transform:scale(0.700,1)}35.74%,37.11%{transform:scale(0.725,1)}37.13%,38.22%{transform:scale(0.750,1)}38.24%,39.05%{transform:scale(0.775,1)}39.07%,39.33%{transform:scale(0.800,1)}39.35%,41.26%{transform:scale(0.825,1)}41.28%,41.54%{transform:scale(0.850,1)}41.56%,42.1%{transform:scale(0.875,1)}42.12%,42.37%{transform:scale(0.900,1)}42.39%,43.2%{transform:scale(0.925,1)}43.22%,47.36%{transform:scale(0.950,1)}47.38%,47.91%{transform:scale(0.975,1)}47.93%,100%{transform:scale(1.000,1)}}.u.u0{fill:var(--c1);animation-name:u0;transform-origin:0.0px 0}@keyframes u1{50.68%{transform:scale(0.000,1)}50.7%,52.62%{transform:scale(0.067,1)}52.64%,56.5%{transform:scale(0.133,1)}56.52%,56.78%{transform:scale(0.200,1)}56.8%,60.93%{transform:scale(0.267,1)}60.95%,61.49%{transform:scale(0.333,1)}61.51%,61.76%{transform:scale(0.400,1)}61.78%,62.32%{transform:scale(0.467,1)}62.34%,62.59%{transform:scale(0.533,1)}62.61%,63.42%{transform:scale(0.600,1)}63.44%,64.26%{transform:scale(0.667,1)}64.28%,64.81%{transform:scale(0.733,1)}64.83%,66.19%{transform:scale(0.800,1)}66.21%,66.75%{transform:scale(0.867,1)}66.77%,68.69%{transform:scale(0.933,1)}68.71%,100%{transform:scale(1.000,1)}}.u.u1{fill:var(--c2);animation-name:u1;transform-origin:513.9px 0}@keyframes u2{71.18%{transform:scale(0.000,1)}71.2%,72.84%{transform:scale(0.143,1)}72.86%,73.95%{transform:scale(0.286,1)}73.97%,75.34%{transform:scale(0.429,1)}75.36%,75.61%{transform:scale(0.571,1)}75.63%,77.55%{transform:scale(0.714,1)}77.57%,85.59%{transform:scale(0.857,1)}85.61%,100%{transform:scale(1.000,1)}}.u.u2{fill:var(--c3);animation-name:u2;transform-origin:706.7px 0}@keyframes u3{94.45%{transform:scale(0.000,1)}94.47%,95.56%{transform:scale(0.250,1)}95.58%,97.5%{transform:scale(0.500,1)}97.52%,98.33%{transform:scale(0.750,1)}98.35%,100%{transform:scale(1.000,1)}}.u.u3{fill:var(--c4);animation-name:u3;transform-origin:796.6px 0}.s{shape-rendering:geometricPrecision;fill:var(--cs);animation:none linear 36100ms infinite}@keyframes s0{0%,99.72%{transform:translate(0px,-16px)}0.55%{transform:translate(0px,16px)}1.11%{transform:translate(32px,16px)}1.39%{transform:translate(32px,0px)}1.66%{transform:translate(48px,0px)}1.94%{transform:translate(48px,16px)}2.22%{transform:translate(64px,16px)}2.49%{transform:translate(64px,32px)}2.77%{transform:translate(80px,32px)}3.05%{transform:translate(80px,48px)}3.32%{transform:translate(64px,48px)}3.6%{transform:translate(64px,64px)}3.88%{transform:translate(48px,64px)}4.16%{transform:translate(48px,80px)}4.71%{transform:translate(80px,80px)}4.99%{transform:translate(80px,96px)}5.54%,95.84%{transform:translate(112px,96px)}5.82%{transform:translate(112px,112px)}6.65%{transform:translate(160px,112px)}7.2%{transform:translate(160px,80px)}7.48%{transform:translate(144px,80px)}7.76%,77.01%{transform:translate(144px,64px)}8.03%,65.65%,76.73%{transform:translate(160px,64px)}8.59%,65.1%{transform:translate(160px,32px)}9.14%{transform:translate(192px,32px)}9.7%,61.22%{transform:translate(192px,64px)}10.8%{transform:translate(256px,64px)}11.36%{transform:translate(256px,96px)}14.13%{transform:translate(416px,96px)}14.96%{transform:translate(416px,48px)}15.24%{transform:translate(432px,48px)}15.79%{transform:translate(432px,16px)}16.34%{transform:translate(400px,16px)}16.62%{transform:translate(400px,0px)}19.11%{transform:translate(256px,0px)}19.39%{transform:translate(256px,-16px)}21.33%{transform:translate(144px,-16px)}21.88%,64.54%{transform:translate(144px,16px)}22.44%,97.23%{transform:translate(112px,16px)}23.27%,66.48%{transform:translate(112px,64px)}24.65%{transform:translate(32px,64px)}24.93%{transform:translate(32px,80px)}25.21%{transform:translate(16px,80px)}25.48%{transform:translate(16px,96px)}25.76%{transform:translate(0px,96px)}26.04%{transform:translate(0px,112px)}35.46%{transform:translate(544px,112px)}35.73%{transform:translate(544px,96px)}36.57%{transform:translate(592px,96px)}36.84%{transform:translate(592px,80px)}37.95%{transform:translate(656px,80px)}38.23%{transform:translate(656px,64px)}39.06%{transform:translate(704px,64px)}39.34%{transform:translate(704px,80px)}39.61%{transform:translate(688px,80px)}40.72%{transform:translate(688px,16px)}41.27%{transform:translate(656px,16px)}41.55%,51.52%{transform:translate(656px,0px)}42.11%{transform:translate(624px,0px)}42.38%{transform:translate(624px,16px)}42.94%{transform:translate(592px,16px)}43.21%{transform:translate(592px,32px)}47.37%{transform:translate(832px,32px)}47.65%{transform:translate(832px,48px)}50.69%{transform:translate(656px,48px)}55.4%{transform:translate(432px,0px)}56.79%{transform:translate(432px,80px)}60.94%{transform:translate(192px,80px)}61.5%{transform:translate(176px,64px)}62.6%{transform:translate(176px,0px)}63.16%{transform:translate(208px,0px)}63.43%{transform:translate(208px,16px)}64.82%{transform:translate(144px,32px)}66.76%{transform:translate(112px,80px)}68.7%{transform:translate(0px,80px)}68.98%{transform:translate(0px,64px)}70.36%{transform:translate(80px,64px)}71.47%{transform:translate(80px,0px)}72.85%{transform:translate(160px,0px)}73.13%{transform:translate(160px,16px)}73.68%{transform:translate(128px,16px)}73.96%{transform:translate(128px,32px)}75.35%{transform:translate(208px,32px)}75.62%{transform:translate(208px,48px)}76.45%{transform:translate(160px,48px)}77.56%{transform:translate(144px,96px)}85.6%{transform:translate(608px,96px)}86.43%{transform:translate(608px,48px)}94.74%{transform:translate(128px,48px)}95.57%{transform:translate(128px,96px)}97.51%{transform:translate(96px,16px)}97.78%{transform:translate(96px,0px)}98.34%{transform:translate(64px,0px)}98.61%{transform:translate(64px,-16px)}}.s.s0{transform:translate(0px,-16px);animation-name:s0}@keyframes s1{0%,99.72%{transform:translate(16px,-16px)}0.28%{transform:translate(0px,-16px)}0.83%{transform:translate(0px,16px)}1.39%{transform:translate(32px,16px)}1.66%{transform:translate(32px,0px)}1.94%{transform:translate(48px,0px)}2.22%{transform:translate(48px,16px)}2.49%{transform:translate(64px,16px)}2.77%{transform:translate(64px,32px)}3.05%{transform:translate(80px,32px)}3.32%{transform:translate(80px,48px)}3.6%{transform:translate(64px,48px)}3.88%{transform:translate(64px,64px)}4.16%{transform:translate(48px,64px)}4.43%{transform:translate(48px,80px)}4.99%{transform:translate(80px,80px)}5.26%{transform:translate(80px,96px)}5.82%,96.12%{transform:translate(112px,96px)}6.09%{transform:translate(112px,112px)}6.93%{transform:translate(160px,112px)}7.48%{transform:translate(160px,80px)}7.76%{transform:translate(144px,80px)}8.03%,77.29%{transform:translate(144px,64px)}8.31%,65.93%,77.01%{transform:translate(160px,64px)}8.86%,65.37%{transform:translate(160px,32px)}9.42%{transform:translate(192px,32px)}9.97%,61.5%{transform:translate(192px,64px)}11.08%{transform:translate(256px,64px)}11.63%{transform:translate(256px,96px)}14.4%{transform:translate(416px,96px)}15.24%{transform:translate(416px,48px)}15.51%{transform:translate(432px,48px)}16.07%{transform:translate(432px,16px)}16.62%{transform:translate(400px,16px)}16.9%{transform:translate(400px,0px)}19.39%{transform:translate(256px,0px)}19.67%{transform:translate(256px,-16px)}21.61%{transform:translate(144px,-16px)}22.16%,64.82%{transform:translate(144px,16px)}22.71%,97.51%{transform:translate(112px,16px)}23.55%,66.76%{transform:translate(112px,64px)}24.93%{transform:translate(32px,64px)}25.21%{transform:translate(32px,80px)}25.48%{transform:translate(16px,80px)}25.76%{transform:translate(16px,96px)}26.04%{transform:translate(0px,96px)}26.32%{transform:translate(0px,112px)}35.73%{transform:translate(544px,112px)}36.01%{transform:translate(544px,96px)}36.84%{transform:translate(592px,96px)}37.12%{transform:translate(592px,80px)}38.23%{transform:translate(656px,80px)}38.5%{transform:translate(656px,64px)}39.34%{transform:translate(704px,64px)}39.61%{transform:translate(704px,80px)}39.89%{transform:translate(688px,80px)}41%{transform:translate(688px,16px)}41.55%{transform:translate(656px,16px)}41.83%,51.8%{transform:translate(656px,0px)}42.38%{transform:translate(624px,0px)}42.66%{transform:translate(624px,16px)}43.21%{transform:translate(592px,16px)}43.49%{transform:translate(592px,32px)}47.65%{transform:translate(832px,32px)}47.92%{transform:translate(832px,48px)}50.97%{transform:translate(656px,48px)}55.68%{transform:translate(432px,0px)}57.06%{transform:translate(432px,80px)}61.22%{transform:translate(192px,80px)}61.77%{transform:translate(176px,64px)}62.88%{transform:translate(176px,0px)}63.43%{transform:translate(208px,0px)}63.71%{transform:translate(208px,16px)}65.1%{transform:translate(144px,32px)}67.04%{transform:translate(112px,80px)}68.98%{transform:translate(0px,80px)}69.25%{transform:translate(0px,64px)}70.64%{transform:translate(80px,64px)}71.75%{transform:translate(80px,0px)}73.13%{transform:translate(160px,0px)}73.41%{transform:translate(160px,16px)}73.96%{transform:translate(128px,16px)}74.24%{transform:translate(128px,32px)}75.62%{transform:translate(208px,32px)}75.9%{transform:translate(208px,48px)}76.73%{transform:translate(160px,48px)}77.84%{transform:translate(144px,96px)}85.87%{transform:translate(608px,96px)}86.7%{transform:translate(608px,48px)}95.01%{transform:translate(128px,48px)}95.84%{transform:translate(128px,96px)}97.78%{transform:translate(96px,16px)}98.06%{transform:translate(96px,0px)}98.61%{transform:translate(64px,0px)}98.89%{transform:translate(64px,-16px)}}.s.s1{transform:translate(16px,-16px);animation-name:s1}@keyframes s2{0%,99.72%{transform:translate(32px,-16px)}0.55%{transform:translate(0px,-16px)}1.11%{transform:translate(0px,16px)}1.66%{transform:translate(32px,16px)}1.94%{transform:translate(32px,0px)}2.22%{transform:translate(48px,0px)}2.49%{transform:translate(48px,16px)}2.77%{transform:translate(64px,16px)}3.05%{transform:translate(64px,32px)}3.32%{transform:translate(80px,32px)}3.6%{transform:translate(80px,48px)}3.88%{transform:translate(64px,48px)}4.16%{transform:translate(64px,64px)}4.43%{transform:translate(48px,64px)}4.71%{transform:translate(48px,80px)}5.26%{transform:translate(80px,80px)}5.54%{transform:translate(80px,96px)}6.09%,96.4%{transform:translate(112px,96px)}6.37%{transform:translate(112px,112px)}7.2%{transform:translate(160px,112px)}7.76%{transform:translate(160px,80px)}8.03%{transform:translate(144px,80px)}8.31%,77.56%{transform:translate(144px,64px)}8.59%,66.2%,77.29%{transform:translate(160px,64px)}9.14%,65.65%{transform:translate(160px,32px)}9.7%{transform:translate(192px,32px)}10.25%,61.77%{transform:translate(192px,64px)}11.36%{transform:translate(256px,64px)}11.91%{transform:translate(256px,96px)}14.68%{transform:translate(416px,96px)}15.51%{transform:translate(416px,48px)}15.79%{transform:translate(432px,48px)}16.34%{transform:translate(432px,16px)}16.9%{transform:translate(400px,16px)}17.17%{transform:translate(400px,0px)}19.67%{transform:translate(256px,0px)}19.94%{transform:translate(256px,-16px)}21.88%{transform:translate(144px,-16px)}22.44%,65.1%{transform:translate(144px,16px)}22.99%,97.78%{transform:translate(112px,16px)}23.82%,67.04%{transform:translate(112px,64px)}25.21%{transform:translate(32px,64px)}25.48%{transform:translate(32px,80px)}25.76%{transform:translate(16px,80px)}26.04%{transform:translate(16px,96px)}26.32%{transform:translate(0px,96px)}26.59%{transform:translate(0px,112px)}36.01%{transform:translate(544px,112px)}36.29%{transform:translate(544px,96px)}37.12%{transform:translate(592px,96px)}37.4%{transform:translate(592px,80px)}38.5%{transform:translate(656px,80px)}38.78%{transform:translate(656px,64px)}39.61%{transform:translate(704px,64px)}39.89%{transform:translate(704px,80px)}40.17%{transform:translate(688px,80px)}41.27%{transform:translate(688px,16px)}41.83%{transform:translate(656px,16px)}42.11%,52.08%{transform:translate(656px,0px)}42.66%{transform:translate(624px,0px)}42.94%{transform:translate(624px,16px)}43.49%{transform:translate(592px,16px)}43.77%{transform:translate(592px,32px)}47.92%{transform:translate(832px,32px)}48.2%{transform:translate(832px,48px)}51.25%{transform:translate(656px,48px)}55.96%{transform:translate(432px,0px)}57.34%{transform:translate(432px,80px)}61.5%{transform:translate(192px,80px)}62.05%{transform:translate(176px,64px)}63.16%{transform:translate(176px,0px)}63.71%{transform:translate(208px,0px)}63.99%{transform:translate(208px,16px)}65.37%{transform:translate(144px,32px)}67.31%{transform:translate(112px,80px)}69.25%{transform:translate(0px,80px)}69.53%{transform:translate(0px,64px)}70.91%{transform:translate(80px,64px)}72.02%{transform:translate(80px,0px)}73.41%{transform:translate(160px,0px)}73.68%{transform:translate(160px,16px)}74.24%{transform:translate(128px,16px)}74.52%{transform:translate(128px,32px)}75.9%{transform:translate(208px,32px)}76.18%{transform:translate(208px,48px)}77.01%{transform:translate(160px,48px)}78.12%{transform:translate(144px,96px)}86.15%{transform:translate(608px,96px)}86.98%{transform:translate(608px,48px)}95.29%{transform:translate(128px,48px)}96.12%{transform:translate(128px,96px)}98.06%{transform:translate(96px,16px)}98.34%{transform:translate(96px,0px)}98.89%{transform:translate(64px,0px)}99.17%{transform:translate(64px,-16px)}}.s.s2{transform:translate(32px,-16px);animation-name:s2}@keyframes s3{0%,99.72%{transform:translate(48px,-16px)}0.83%{transform:translate(0px,-16px)}1.39%{transform:translate(0px,16px)}1.94%{transform:translate(32px,16px)}2.22%{transform:translate(32px,0px)}2.49%{transform:translate(48px,0px)}2.77%{transform:translate(48px,16px)}3.05%{transform:translate(64px,16px)}3.32%{transform:translate(64px,32px)}3.6%{transform:translate(80px,32px)}3.88%{transform:translate(80px,48px)}4.16%{transform:translate(64px,48px)}4.43%{transform:translate(64px,64px)}4.71%{transform:translate(48px,64px)}4.99%{transform:translate(48px,80px)}5.54%{transform:translate(80px,80px)}5.82%{transform:translate(80px,96px)}6.37%,96.68%{transform:translate(112px,96px)}6.65%{transform:translate(112px,112px)}7.48%{transform:translate(160px,112px)}8.03%{transform:translate(160px,80px)}8.31%{transform:translate(144px,80px)}8.59%,77.84%{transform:translate(144px,64px)}8.86%,66.48%,77.56%{transform:translate(160px,64px)}9.42%,65.93%{transform:translate(160px,32px)}9.97%{transform:translate(192px,32px)}10.53%,62.05%{transform:translate(192px,64px)}11.63%{transform:translate(256px,64px)}12.19%{transform:translate(256px,96px)}14.96%{transform:translate(416px,96px)}15.79%{transform:translate(416px,48px)}16.07%{transform:translate(432px,48px)}16.62%{transform:translate(432px,16px)}17.17%{transform:translate(400px,16px)}17.45%{transform:translate(400px,0px)}19.94%{transform:translate(256px,0px)}20.22%{transform:translate(256px,-16px)}22.16%{transform:translate(144px,-16px)}22.71%,65.37%{transform:translate(144px,16px)}23.27%,98.06%{transform:translate(112px,16px)}24.1%,67.31%{transform:translate(112px,64px)}25.48%{transform:translate(32px,64px)}25.76%{transform:translate(32px,80px)}26.04%{transform:translate(16px,80px)}26.32%{transform:translate(16px,96px)}26.59%{transform:translate(0px,96px)}26.87%{transform:translate(0px,112px)}36.29%{transform:translate(544px,112px)}36.57%{transform:translate(544px,96px)}37.4%{transform:translate(592px,96px)}37.67%{transform:translate(592px,80px)}38.78%{transform:translate(656px,80px)}39.06%{transform:translate(656px,64px)}39.89%{transform:translate(704px,64px)}40.17%{transform:translate(704px,80px)}40.44%{transform:translate(688px,80px)}41.55%{transform:translate(688px,16px)}42.11%{transform:translate(656px,16px)}42.38%,52.35%{transform:translate(656px,0px)}42.94%{transform:translate(624px,0px)}43.21%{transform:translate(624px,16px)}43.77%{transform:translate(592px,16px)}44.04%{transform:translate(592px,32px)}48.2%{transform:translate(832px,32px)}48.48%{transform:translate(832px,48px)}51.52%{transform:translate(656px,48px)}56.23%{transform:translate(432px,0px)}57.62%{transform:translate(432px,80px)}61.77%{transform:translate(192px,80px)}62.33%{transform:translate(176px,64px)}63.43%{transform:translate(176px,0px)}63.99%{transform:translate(208px,0px)}64.27%{transform:translate(208px,16px)}65.65%{transform:translate(144px,32px)}67.59%{transform:translate(112px,80px)}69.53%{transform:translate(0px,80px)}69.81%{transform:translate(0px,64px)}71.19%{transform:translate(80px,64px)}72.3%{transform:translate(80px,0px)}73.68%{transform:translate(160px,0px)}73.96%{transform:translate(160px,16px)}74.52%{transform:translate(128px,16px)}74.79%{transform:translate(128px,32px)}76.18%{transform:translate(208px,32px)}76.45%{transform:translate(208px,48px)}77.29%{transform:translate(160px,48px)}78.39%{transform:translate(144px,96px)}86.43%{transform:translate(608px,96px)}87.26%{transform:translate(608px,48px)}95.57%{transform:translate(128px,48px)}96.4%{transform:translate(128px,96px)}98.34%{transform:translate(96px,16px)}98.61%{transform:translate(96px,0px)}99.17%{transform:translate(64px,0px)}99.45%{transform:translate(64px,-16px)}}.s.s3{transform:translate(48px,-16px);animation-name:s3}</style><rect class="c" x="2" y="2" rx="2" ry="2"/><rect class="c c0" x="2" y="18" rx="2" ry="2"/><rect class="c" x="2" y="34" rx="2" ry="2"/><rect class="c" x="2" y="50" rx="2" ry="2"/><rect class="c" x="2" y="66" rx="2" ry="2"/><rect class="c c1" x="2" y="82" rx="2" ry="2"/><rect class="c c2" x="2" y="98" rx="2" ry="2"/><rect class="c" x="18" y="2" rx="2" ry="2"/><rect class="c" x="18" y="18" rx="2" ry="2"/><rect class="c" x="18" y="34" rx="2" ry="2"/><rect class="c" x="18" y="50" rx="2" ry="2"/><rect class="c" x="18" y="66" rx="2" ry="2"/><rect class="c c3" x="18" y="82" rx="2" ry="2"/><rect class="c" x="18" y="98" rx="2" ry="2"/><rect class="c c4" x="34" y="2" rx="2" ry="2"/><rect class="c" x="34" y="18" rx="2" ry="2"/><rect class="c" x="34" y="34" rx="2" ry="2"/><rect class="c" x="34" y="50" rx="2" ry="2"/><rect class="c" x="34" y="66" rx="2" ry="2"/><rect class="c c5" x="34" y="82" rx="2" ry="2"/><rect class="c" x="34" y="98" rx="2" ry="2"/><rect class="c" x="50" y="2" rx="2" ry="2"/><rect class="c" x="50" y="18" rx="2" ry="2"/><rect class="c" x="50" y="34" rx="2" ry="2"/><rect class="c" x="50" y="50" rx="2" ry="2"/><rect class="c c6" x="50" y="66" rx="2" ry="2"/><rect class="c c7" x="50" y="82" rx="2" ry="2"/><rect class="c" x="50" y="98" rx="2" ry="2"/><rect class="c c8" x="66" y="2" rx="2" ry="2"/><rect class="c c9" x="66" y="18" rx="2" ry="2"/><rect class="c" x="66" y="34" rx="2" ry="2"/><rect class="c" x="66" y="50" rx="2" ry="2"/><rect class="c ca" x="66" y="66" rx="2" ry="2"/><rect class="c cb" x="66" y="82" rx="2" ry="2"/><rect class="c" x="66" y="98" rx="2" ry="2"/><rect class="c" x="82" y="2" rx="2" ry="2"/><rect class="c cc" x="82" y="18" rx="2" ry="2"/><rect class="c" x="82" y="34" rx="2" ry="2"/><rect class="c cd" x="82" y="50" rx="2" ry="2"/><rect class="c" x="82" y="66" rx="2" ry="2"/><rect class="c" x="82" y="82" rx="2" ry="2"/><rect class="c ce" x="82" y="98" rx="2" ry="2"/><rect class="c" x="98" y="2" rx="2" ry="2"/><rect class="c cf" x="98" y="18" rx="2" ry="2"/><rect class="c" x="98" y="34" rx="2" ry="2"/><rect class="c" x="98" y="50" rx="2" ry="2"/><rect class="c" x="98" y="66" rx="2" ry="2"/><rect class="c" x="98" y="82" rx="2" ry="2"/><rect class="c" x="98" y="98" rx="2" ry="2"/><rect class="c" x="114" y="2" rx="2" ry="2"/><rect class="c" x="114" y="18" rx="2" ry="2"/><rect class="c" x="114" y="34" rx="2" ry="2"/><rect class="c" x="114" y="50" rx="2" ry="2"/><rect class="c cg" x="114" y="66" rx="2" ry="2"/><rect class="c ch" x="114" y="82" rx="2" ry="2"/><rect class="c ci" x="114" y="98" rx="2" ry="2"/><rect class="c" x="130" y="2" rx="2" ry="2"/><rect class="c" x="130" y="18" rx="2" ry="2"/><rect class="c cj" x="130" y="34" rx="2" ry="2"/><rect class="c" x="130" y="50" rx="2" ry="2"/><rect class="c ck" x="130" y="66" rx="2" ry="2"/><rect class="c" x="130" y="82" rx="2" ry="2"/><rect class="c cl" x="130" y="98" rx="2" ry="2"/><rect class="c" x="146" y="2" rx="2" ry="2"/><rect class="c cm" x="146" y="18" rx="2" ry="2"/><rect class="c cn" x="146" y="34" rx="2" ry="2"/><rect class="c co" x="146" y="50" rx="2" ry="2"/><rect class="c cp" x="146" y="66" rx="2" ry="2"/><rect class="c cq" x="146" y="82" rx="2" ry="2"/><rect class="c cr" x="146" y="98" rx="2" ry="2"/><rect class="c cs" x="162" y="2" rx="2" ry="2"/><rect class="c ct" x="162" y="18" rx="2" ry="2"/><rect class="c" x="162" y="34" rx="2" ry="2"/><rect class="c" x="162" y="50" rx="2" ry="2"/><rect class="c" x="162" y="66" rx="2" ry="2"/><rect class="c" x="162" y="82" rx="2" ry="2"/><rect class="c cu" x="162" y="98" rx="2" ry="2"/><rect class="c cv" x="178" y="2" rx="2" ry="2"/><rect class="c cw" x="178" y="18" rx="2" ry="2"/><rect class="c" x="178" y="34" rx="2" ry="2"/><rect class="c cx" x="178" y="50" rx="2" ry="2"/><rect class="c cy" x="178" y="66" rx="2" ry="2"/><rect class="c" x="178" y="82" rx="2" ry="2"/><rect class="c" x="178" y="98" rx="2" ry="2"/><rect class="c" x="194" y="2" rx="2" ry="2"/><rect class="c" x="194" y="18" rx="2" ry="2"/><rect class="c" x="194" y="34" rx="2" ry="2"/><rect class="c" x="194" y="50" rx="2" ry="2"/><rect class="c" x="194" y="66" rx="2" ry="2"/><rect class="c cz" x="194" y="82" rx="2" ry="2"/><rect class="c" x="194" y="98" rx="2" ry="2"/><rect class="c" x="210" y="2" rx="2" ry="2"/><rect class="c c10" x="210" y="18" rx="2" ry="2"/><rect class="c c11" x="210" y="34" rx="2" ry="2"/><rect class="c c12" x="210" y="50" rx="2" ry="2"/><rect class="c c13" x="210" y="66" rx="2" ry="2"/><rect class="c" x="210" y="82" rx="2" ry="2"/><rect class="c" x="210" y="98" rx="2" ry="2"/><rect class="c" x="226" y="2" rx="2" ry="2"/><rect class="c" x="226" y="18" rx="2" ry="2"/><rect class="c" x="226" y="34" rx="2" ry="2"/><rect class="c" x="226" y="50" rx="2" ry="2"/><rect class="c" x="226" y="66" rx="2" ry="2"/><rect class="c" x="226" y="82" rx="2" ry="2"/><rect class="c" x="226" y="98" rx="2" ry="2"/><rect class="c" x="242" y="2" rx="2" ry="2"/><rect class="c" x="242" y="18" rx="2" ry="2"/><rect class="c" x="242" y="34" rx="2" ry="2"/><rect class="c" x="242" y="50" rx="2" ry="2"/><rect class="c" x="242" y="66" rx="2" ry="2"/><rect class="c" x="242" y="82" rx="2" ry="2"/><rect class="c" x="242" y="98" rx="2" ry="2"/><rect class="c c14" x="258" y="2" rx="2" ry="2"/><rect class="c" x="258" y="18" rx="2" ry="2"/><rect class="c" x="258" y="34" rx="2" ry="2"/><rect class="c" x="258" y="50" rx="2" ry="2"/><rect class="c" x="258" y="66" rx="2" ry="2"/><rect class="c c15" x="258" y="82" rx="2" ry="2"/><rect class="c c16" x="258" y="98" rx="2" ry="2"/><rect class="c c17" x="274" y="2" rx="2" ry="2"/><rect class="c" x="274" y="18" rx="2" ry="2"/><rect class="c" x="274" y="34" rx="2" ry="2"/><rect class="c" x="274" y="50" rx="2" ry="2"/><rect class="c" x="274" y="66" rx="2" ry="2"/><rect class="c" x="274" y="82" rx="2" ry="2"/><rect class="c c18" x="274" y="98" rx="2" ry="2"/><rect class="c" x="290" y="2" rx="2" ry="2"/><rect class="c" x="290" y="18" rx="2" ry="2"/><rect class="c" x="290" y="34" rx="2" ry="2"/><rect class="c" x="290" y="50" rx="2" ry="2"/><rect class="c" x="290" y="66" rx="2" ry="2"/><rect class="c" x="290" y="82" rx="2" ry="2"/><rect class="c" x="290" y="98" rx="2" ry="2"/><rect class="c" x="306" y="2" rx="2" ry="2"/><rect class="c" x="306" y="18" rx="2" ry="2"/><rect class="c" x="306" y="34" rx="2" ry="2"/><rect class="c" x="306" y="50" rx="2" ry="2"/><rect class="c" x="306" y="66" rx="2" ry="2"/><rect class="c" x="306" y="82" rx="2" ry="2"/><rect class="c" x="306" y="98" rx="2" ry="2"/><rect class="c" x="322" y="2" rx="2" ry="2"/><rect class="c" x="322" y="18" rx="2" ry="2"/><rect class="c" x="322" y="34" rx="2" ry="2"/><rect class="c" x="322" y="50" rx="2" ry="2"/><rect class="c" x="322" y="66" rx="2" ry="2"/><rect class="c" x="322" y="82" rx="2" ry="2"/><rect class="c" x="322" y="98" rx="2" ry="2"/><rect class="c" x="338" y="2" rx="2" ry="2"/><rect class="c" x="338" y="18" rx="2" ry="2"/><rect class="c" x="338" y="34" rx="2" ry="2"/><rect class="c" x="338" y="50" rx="2" ry="2"/><rect class="c" x="338" y="66" rx="2" ry="2"/><rect class="c" x="338" y="82" rx="2" ry="2"/><rect class="c c19" x="338" y="98" rx="2" ry="2"/><rect class="c" x="354" y="2" rx="2" ry="2"/><rect class="c" x="354" y="18" rx="2" ry="2"/><rect class="c" x="354" y="34" rx="2" ry="2"/><rect class="c" x="354" y="50" rx="2" ry="2"/><rect class="c" x="354" y="66" rx="2" ry="2"/><rect class="c" x="354" y="82" rx="2" ry="2"/><rect class="c" x="354" y="98" rx="2" ry="2"/><rect class="c" x="370" y="2" rx="2" ry="2"/><rect class="c" x="370" y="18" rx="2" ry="2"/><rect class="c" x="370" y="34" rx="2" ry="2"/><rect class="c" x="370" y="50" rx="2" ry="2"/><rect class="c" x="370" y="66" rx="2" ry="2"/><rect class="c" x="370" y="82" rx="2" ry="2"/><rect class="c" x="370" y="98" rx="2" ry="2"/><rect class="c" x="386" y="2" rx="2" ry="2"/><rect class="c" x="386" y="18" rx="2" ry="2"/><rect class="c" x="386" y="34" rx="2" ry="2"/><rect class="c" x="386" y="50" rx="2" ry="2"/><rect class="c" x="386" y="66" rx="2" ry="2"/><rect class="c" x="386" y="82" rx="2" ry="2"/><rect class="c" x="386" y="98" rx="2" ry="2"/><rect class="c" x="402" y="2" rx="2" ry="2"/><rect class="c c1a" x="402" y="18" rx="2" ry="2"/><rect class="c" x="402" y="34" rx="2" ry="2"/><rect class="c" x="402" y="50" rx="2" ry="2"/><rect class="c" x="402" y="66" rx="2" ry="2"/><rect class="c" x="402" y="82" rx="2" ry="2"/><rect class="c" x="402" y="98" rx="2" ry="2"/><rect class="c" x="418" y="2" rx="2" ry="2"/><rect class="c" x="418" y="18" rx="2" ry="2"/><rect class="c" x="418" y="34" rx="2" ry="2"/><rect class="c c1b" x="418" y="50" rx="2" ry="2"/><rect class="c" x="418" y="66" rx="2" ry="2"/><rect class="c" x="418" y="82" rx="2" ry="2"/><rect class="c" x="418" y="98" rx="2" ry="2"/><rect class="c" x="434" y="2" rx="2" ry="2"/><rect class="c" x="434" y="18" rx="2" ry="2"/><rect class="c c1c" x="434" y="34" rx="2" ry="2"/><rect class="c" x="434" y="50" rx="2" ry="2"/><rect class="c c1d" x="434" y="66" rx="2" ry="2"/><rect class="c c1e" x="434" y="82" rx="2" ry="2"/><rect class="c" x="434" y="98" rx="2" ry="2"/><rect class="c" x="450" y="2" rx="2" ry="2"/><rect class="c" x="450" y="18" rx="2" ry="2"/><rect class="c" x="450" y="34" rx="2" ry="2"/><rect class="c" x="450" y="50" rx="2" ry="2"/><rect class="c" x="450" y="66" rx="2" ry="2"/><rect class="c" x="450" y="82" rx="2" ry="2"/><rect class="c" x="450" y="98" rx="2" ry="2"/><rect class="c" x="466" y="2" rx="2" ry="2"/><rect class="c" x="466" y="18" rx="2" ry="2"/><rect class="c" x="466" y="34" rx="2" ry="2"/><rect class="c" x="466" y="50" rx="2" ry="2"/><rect class="c" x="466" y="66" rx="2" ry="2"/><rect class="c" x="466" y="82" rx="2" ry="2"/><rect class="c" x="466" y="98" rx="2" ry="2"/><rect class="c" x="482" y="2" rx="2" ry="2"/><rect class="c" x="482" y="18" rx="2" ry="2"/><rect class="c" x="482" y="34" rx="2" ry="2"/><rect class="c" x="482" y="50" rx="2" ry="2"/><rect class="c" x="482" y="66" rx="2" ry="2"/><rect class="c" x="482" y="82" rx="2" ry="2"/><rect class="c" x="482" y="98" rx="2" ry="2"/><rect class="c" x="498" y="2" rx="2" ry="2"/><rect class="c" x="498" y="18" rx="2" ry="2"/><rect class="c" x="498" y="34" rx="2" ry="2"/><rect class="c" x="498" y="50" rx="2" ry="2"/><rect class="c" x="498" y="66" rx="2" ry="2"/><rect class="c" x="498" y="82" rx="2" ry="2"/><rect class="c" x="498" y="98" rx="2" ry="2"/><rect class="c" x="514" y="2" rx="2" ry="2"/><rect class="c" x="514" y="18" rx="2" ry="2"/><rect class="c" x="514" y="34" rx="2" ry="2"/><rect class="c" x="514" y="50" rx="2" ry="2"/><rect class="c" x="514" y="66" rx="2" ry="2"/><rect class="c" x="514" y="82" rx="2" ry="2"/><rect class="c" x="514" y="98" rx="2" ry="2"/><rect class="c" x="530" y="2" rx="2" ry="2"/><rect class="c" x="530" y="18" rx="2" ry="2"/><rect class="c" x="530" y="34" rx="2" ry="2"/><rect class="c" x="530" y="50" rx="2" ry="2"/><rect class="c" x="530" y="66" rx="2" ry="2"/><rect class="c" x="530" y="82" rx="2" ry="2"/><rect class="c" x="530" y="98" rx="2" ry="2"/><rect class="c" x="546" y="2" rx="2" ry="2"/><rect class="c" x="546" y="18" rx="2" ry="2"/><rect class="c" x="546" y="34" rx="2" ry="2"/><rect class="c" x="546" y="50" rx="2" ry="2"/><rect class="c" x="546" y="66" rx="2" ry="2"/><rect class="c" x="546" y="82" rx="2" ry="2"/><rect class="c c1f" x="546" y="98" rx="2" ry="2"/><rect class="c" x="562" y="2" rx="2" ry="2"/><rect class="c" x="562" y="18" rx="2" ry="2"/><rect class="c" x="562" y="34" rx="2" ry="2"/><rect class="c" x="562" y="50" rx="2" ry="2"/><rect class="c" x="562" y="66" rx="2" ry="2"/><rect class="c" x="562" y="82" rx="2" ry="2"/><rect class="c" x="562" y="98" rx="2" ry="2"/><rect class="c" x="578" y="2" rx="2" ry="2"/><rect class="c" x="578" y="18" rx="2" ry="2"/><rect class="c" x="578" y="34" rx="2" ry="2"/><rect class="c" x="578" y="50" rx="2" ry="2"/><rect class="c" x="578" y="66" rx="2" ry="2"/><rect class="c" x="578" y="82" rx="2" ry="2"/><rect class="c" x="578" y="98" rx="2" ry="2"/><rect class="c c1g" x="594" y="2" rx="2" ry="2"/><rect class="c" x="594" y="18" rx="2" ry="2"/><rect class="c c1h" x="594" y="34" rx="2" ry="2"/><rect class="c" x="594" y="50" rx="2" ry="2"/><rect class="c" x="594" y="66" rx="2" ry="2"/><rect class="c" x="594" y="82" rx="2" ry="2"/><rect class="c" x="594" y="98" rx="2" ry="2"/><rect class="c" x="610" y="2" rx="2" ry="2"/><rect class="c" x="610" y="18" rx="2" ry="2"/><rect class="c" x="610" y="34" rx="2" ry="2"/><rect class="c" x="610" y="50" rx="2" ry="2"/><rect class="c" x="610" y="66" rx="2" ry="2"/><rect class="c c1i" x="610" y="82" rx="2" ry="2"/><rect class="c c1j" x="610" y="98" rx="2" ry="2"/><rect class="c c1k" x="626" y="2" rx="2" ry="2"/><rect class="c c1l" x="626" y="18" rx="2" ry="2"/><rect class="c" x="626" y="34" rx="2" ry="2"/><rect class="c" x="626" y="50" rx="2" ry="2"/><rect class="c" x="626" y="66" rx="2" ry="2"/><rect class="c" x="626" y="82" rx="2" ry="2"/><rect class="c" x="626" y="98" rx="2" ry="2"/><rect class="c" x="642" y="2" rx="2" ry="2"/><rect class="c" x="642" y="18" rx="2" ry="2"/><rect class="c" x="642" y="34" rx="2" ry="2"/><rect class="c" x="642" y="50" rx="2" ry="2"/><rect class="c" x="642" y="66" rx="2" ry="2"/><rect class="c" x="642" y="82" rx="2" ry="2"/><rect class="c" x="642" y="98" rx="2" ry="2"/><rect class="c c1m" x="658" y="2" rx="2" ry="2"/><rect class="c c1n" x="658" y="18" rx="2" ry="2"/><rect class="c" x="658" y="34" rx="2" ry="2"/><rect class="c c1o" x="658" y="50" rx="2" ry="2"/><rect class="c c1p" x="658" y="66" rx="2" ry="2"/><rect class="c" x="658" y="82" rx="2" ry="2"/><rect class="c" x="658" y="98" rx="2" ry="2"/><rect class="c" x="674" y="2" rx="2" ry="2"/><rect class="c" x="674" y="18" rx="2" ry="2"/><rect class="c" x="674" y="34" rx="2" ry="2"/><rect class="c" x="674" y="50" rx="2" ry="2"/><rect class="c" x="674" y="66" rx="2" ry="2"/><rect class="c" x="674" y="82" rx="2" ry="2"/><rect class="c" x="674" y="98" rx="2" ry="2"/><rect class="c" x="690" y="2" rx="2" ry="2"/><rect class="c" x="690" y="18" rx="2" ry="2"/><rect class="c" x="690" y="34" rx="2" ry="2"/><rect class="c" x="690" y="50" rx="2" ry="2"/><rect class="c" x="690" y="66" rx="2" ry="2"/><rect class="c" x="690" y="82" rx="2" ry="2"/><rect class="c" x="690" y="98" rx="2" ry="2"/><rect class="c" x="706" y="2" rx="2" ry="2"/><rect class="c" x="706" y="18" rx="2" ry="2"/><rect class="c" x="706" y="34" rx="2" ry="2"/><rect class="c" x="706" y="50" rx="2" ry="2"/><rect class="c c1q" x="706" y="66" rx="2" ry="2"/><rect class="c c1r" x="706" y="82" rx="2" ry="2"/><rect class="c" x="706" y="98" rx="2" ry="2"/><rect class="c" x="722" y="2" rx="2" ry="2"/><rect class="c" x="722" y="18" rx="2" ry="2"/><rect class="c" x="722" y="34" rx="2" ry="2"/><rect class="c" x="722" y="50" rx="2" ry="2"/><rect class="c" x="722" y="66" rx="2" ry="2"/><rect class="c" x="722" y="82" rx="2" ry="2"/><rect class="c" x="722" y="98" rx="2" ry="2"/><rect class="c" x="738" y="2" rx="2" ry="2"/><rect class="c" x="738" y="18" rx="2" ry="2"/><rect class="c" x="738" y="34" rx="2" ry="2"/><rect class="c" x="738" y="50" rx="2" ry="2"/><rect class="c" x="738" y="66" rx="2" ry="2"/><rect class="c" x="738" y="82" rx="2" ry="2"/><rect class="c" x="738" y="98" rx="2" ry="2"/><rect class="c" x="754" y="2" rx="2" ry="2"/><rect class="c" x="754" y="18" rx="2" ry="2"/><rect class="c" x="754" y="34" rx="2" ry="2"/><rect class="c" x="754" y="50" rx="2" ry="2"/><rect class="c" x="754" y="66" rx="2" ry="2"/><rect class="c" x="754" y="82" rx="2" ry="2"/><rect class="c" x="754" y="98" rx="2" ry="2"/><rect class="c" x="770" y="2" rx="2" ry="2"/><rect class="c" x="770" y="18" rx="2" ry="2"/><rect class="c" x="770" y="34" rx="2" ry="2"/><rect class="c" x="770" y="50" rx="2" ry="2"/><rect class="c" x="770" y="66" rx="2" ry="2"/><rect class="c" x="770" y="82" rx="2" ry="2"/><rect class="c" x="770" y="98" rx="2" ry="2"/><rect class="c" x="786" y="2" rx="2" ry="2"/><rect class="c" x="786" y="18" rx="2" ry="2"/><rect class="c" x="786" y="34" rx="2" ry="2"/><rect class="c" x="786" y="50" rx="2" ry="2"/><rect class="c" x="786" y="66" rx="2" ry="2"/><rect class="c" x="786" y="82" rx="2" ry="2"/><rect class="c" x="786" y="98" rx="2" ry="2"/><rect class="c" x="802" y="2" rx="2" ry="2"/><rect class="c" x="802" y="18" rx="2" ry="2"/><rect class="c" x="802" y="34" rx="2" ry="2"/><rect class="c" x="802" y="50" rx="2" ry="2"/><rect class="c" x="802" y="66" rx="2" ry="2"/><rect class="c" x="802" y="82" rx="2" ry="2"/><rect class="c" x="802" y="98" rx="2" ry="2"/><rect class="c" x="818" y="2" rx="2" ry="2"/><rect class="c" x="818" y="18" rx="2" ry="2"/><rect class="c" x="818" y="34" rx="2" ry="2"/><rect class="c c1s" x="818" y="50" rx="2" ry="2"/><rect class="c" x="818" y="66" rx="2" ry="2"/><rect class="c" x="818" y="82" rx="2" ry="2"/><rect class="c" x="818" y="98" rx="2" ry="2"/><rect class="c" x="834" y="2" rx="2" ry="2"/><rect class="c" x="834" y="18" rx="2" ry="2"/><rect class="c c1t" x="834" y="34" rx="2" ry="2"/><rect class="c" x="834" y="50" rx="2" ry="2"/><rect class="u u0" height="12" width="514.5" x="0.0" y="144"/><rect class="u u1" height="12" width="193.3" x="513.9" y="144"/><rect class="u u2" height="12" width="90.5" x="706.7" y="144"/><rect class="u u3" height="12" width="52.0" x="796.6" y="144"/><rect class="s s0" x="0.8" y="0.8" width="14.4" height="14.4" rx="4.5" ry="4.5"/><rect class="s s1" x="1.8" y="1.8" width="12.3" height="12.3" rx="4.1" ry="4.1"/><rect class="s s2" x="2.6" y="2.6" width="10.8" height="10.8" rx="3.6" ry="3.6"/><rect class="s s3" x="3.0" y="3.0" width="9.9" height="9.9" rx="3.3" ry="3.3"/></svg>