<svg viewBox="-16 -32 880 192" width="880" height="192" xmlns="http://www.w3.org/2000/svg"><desc>Generated with https://github.com/Platane/snk</desc><style>:root{--cb:#1b1f230a;--cs:white;--ce:#0a0e12;--c0:#0a0e12;--c1:#1445a2;--c2:#1d65ee;--c3:#1f4eff;--c4:#466dff}.c{shape-rendering:geometricPrecision;fill:var(--ce);stroke-width:1px;stroke:var(--cb);animation:none 35100ms linear infinite;width:12px;height:12px}@keyframes c0{10.25%{fill:var(--c1)}10.27%,100%{fill:var(--ce)}}.c.c0{fill:var(--c1);animation-name:c0}@keyframes c1{2.55%{fill:var(--c1)}2.57%,100%{fill:var(--ce)}}.c.c1{fill:var(--c1);animation-name:c1}@keyframes c2{8.25%{fill:var(--c1)}8.27%,100%{fill:var(--ce)}}.c.c2{fill:var(--c1);animation-name:c2}@keyframes c3{7.11%{fill:var(--c1)}7.13%,100%{fill:var(--ce)}}.c.c3{fill:var(--c1);animation-name:c3}@keyframes c4{68.37%{fill:var(--c2)}68.39%,100%{fill:var(--ce)}}.c.c4{fill:var(--c2);animation-name:c4}@keyframes c5{3.12%{fill:var(--c1)}3.14%,100%{fill:var(--ce)}}.c.c5{fill:var(--c1);animation-name:c5}@keyframes c6{3.41%{fill:var(--c1)}3.43%,100%{fill:var(--ce)}}.c.c6{fill:var(--c1);animation-name:c6}@keyframes c7{4.26%{fill:var(--c1)}4.28%,100%{fill:var(--ce)}}.c.c7{fill:var(--c1);animation-name:c7}@keyframes c8{3.98%{fill:var(--c1)}4%,100%{fill:var(--ce)}}.c.c8{fill:var(--c1);animation-name:c8}@keyframes c9{66.66%{fill:var(--c2)}66.68%,100%{fill:var(--ce)}}.c.c9{fill:var(--c2);animation-name:c9}@keyframes ca{5.97%{fill:var(--c1)}5.99%,100%{fill:var(--ce)}}.c.ca{fill:var(--c1);animation-name:ca}@keyframes cb{13.67%{fill:var(--c1)}13.69%,100%{fill:var(--ce)}}.c.cb{fill:var(--c1);animation-name:cb}@keyframes cc{13.38%{fill:var(--c1)}13.4%,100%{fill:var(--ce)}}.c.cc{fill:var(--c1);animation-name:cc}@keyframes cd{15.94%{fill:var(--c1)}15.96%,100%{fill:var(--ce)}}.c.cd{fill:var(--c1);animation-name:cd}@keyframes ce{63.24%{fill:var(--c2)}63.26%,100%{fill:var(--ce)}}.c.ce{fill:var(--c2);animation-name:ce}@keyframes cf{16.23%{fill:var(--c1)}16.25%,100%{fill:var(--ce)}}.c.cf{fill:var(--c1);animation-name:cf}@keyframes cg{17.08%{fill:var(--c1)}17.1%,100%{fill:var(--ce)}}.c.cg{fill:var(--c1);animation-name:cg}@keyframes ch{17.65%{fill:var(--c1)}17.67%,100%{fill:var(--ce)}}.c.ch{fill:var(--c1);animation-name:ch}@keyframes ci{19.93%{fill:var(--c1)}19.95%,100%{fill:var(--ce)}}.c.ci{fill:var(--c1);animation-name:ci}@keyframes cj{17.94%{fill:var(--c1)}17.96%,100%{fill:var(--ce)}}.c.cj{fill:var(--c1);animation-name:cj}@keyframes ck{19.65%{fill:var(--c1)}19.67%,100%{fill:var(--ce)}}.c.ck{fill:var(--c1);animation-name:ck}@keyframes cl{19.36%{fill:var(--c1)}19.38%,100%{fill:var(--ce)}}.c.cl{fill:var(--c1);animation-name:cl}@keyframes cm{18.79%{fill:var(--c1)}18.81%,100%{fill:var(--ce)}}.c.cm{fill:var(--c1);animation-name:cm}@keyframes cn{23.64%{fill:var(--c1)}23.66%,100%{fill:var(--ce)}}.c.cn{fill:var(--c1);animation-name:cn}@keyframes co{24.21%{fill:var(--c1)}24.23%,100%{fill:var(--ce)}}.c.co{fill:var(--c1);animation-name:co}@keyframes cp{23.35%{fill:var(--c1)}23.37%,100%{fill:var(--ce)}}.c.cp{fill:var(--c1);animation-name:cp}@keyframes cq{21.93%{fill:var(--c1)}21.95%,100%{fill:var(--ce)}}.c.cq{fill:var(--c1);animation-name:cq}@keyframes cr{29.62%{fill:var(--c1)}29.64%,100%{fill:var(--ce)}}.c.cr{fill:var(--c1);animation-name:cr}@keyframes cs{60.1%{fill:var(--c2)}60.12%,100%{fill:var(--ce)}}.c.cs{fill:var(--c2);animation-name:cs}@keyframes ct{22.78%{fill:var(--c1)}22.8%,100%{fill:var(--ce)}}.c.ct{fill:var(--c1);animation-name:ct}@keyframes cu{27.34%{fill:var(--c1)}27.36%,100%{fill:var(--ce)}}.c.cu{fill:var(--c1);animation-name:cu}@keyframes cv{26.77%{fill:var(--c1)}26.79%,100%{fill:var(--ce)}}.c.cv{fill:var(--c1);animation-name:cv}@keyframes cw{33.61%{fill:var(--c1)}33.63%,100%{fill:var(--ce)}}.c.cw{fill:var(--c1);animation-name:cw}@keyframes cx{48.14%{fill:var(--c1)}48.16%,100%{fill:var(--ce)}}.c.cx{fill:var(--c1);animation-name:cx}@keyframes cy{48.42%{fill:var(--c1)}48.44%,100%{fill:var(--ce)}}.c.cy{fill:var(--c1);animation-name:cy}@keyframes cz{33.89%{fill:var(--c1)}33.91%,100%{fill:var(--ce)}}.c.cz{fill:var(--c1);animation-name:cz}@keyframes c10{50.7%{fill:var(--c2)}50.72%,100%{fill:var(--ce)}}.c.c10{fill:var(--c2);animation-name:c10}@keyframes c11{34.18%{fill:var(--c1)}34.2%,100%{fill:var(--ce)}}.c.c11{fill:var(--c1);animation-name:c11}@keyframes c12{50.13%{fill:var(--c2)}50.15%,100%{fill:var(--ce)}}.c.c12{fill:var(--c2);animation-name:c12}@keyframes c13{47.57%{fill:var(--c1)}47.59%,100%{fill:var(--ce)}}.c.c13{fill:var(--c1);animation-name:c13}@keyframes c14{45.57%{fill:var(--c1)}45.59%,100%{fill:var(--ce)}}.c.c14{fill:var(--c1);animation-name:c14}@keyframes c15{45.86%{fill:var(--c1)}45.88%,100%{fill:var(--ce)}}.c.c15{fill:var(--c1);animation-name:c15}@keyframes c16{49.56%{fill:var(--c2)}49.58%,100%{fill:var(--ce)}}.c.c16{fill:var(--c2);animation-name:c16}@keyframes c17{47%{fill:var(--c1)}47.02%,100%{fill:var(--ce)}}.c.c17{fill:var(--c1);animation-name:c17}@keyframes c18{34.75%{fill:var(--c1)}34.77%,100%{fill:var(--ce)}}.c.c18{fill:var(--c1);animation-name:c18}@keyframes c19{45.29%{fill:var(--c1)}45.31%,100%{fill:var(--ce)}}.c.c19{fill:var(--c1);animation-name:c19}@keyframes c1a{46.14%{fill:var(--c1)}46.16%,100%{fill:var(--ce)}}.c.c1a{fill:var(--c1);animation-name:c1a}@keyframes c1b{42.16%{fill:var(--c1)}42.18%,100%{fill:var(--ce)}}.c.c1b{fill:var(--c1);animation-name:c1b}@keyframes c1c{44.43%{fill:var(--c1)}44.45%,100%{fill:var(--ce)}}.c.c1c{fill:var(--c1);animation-name:c1c}@keyframes c1d{35.03%{fill:var(--c1)}35.05%,100%{fill:var(--ce)}}.c.c1d{fill:var(--c1);animation-name:c1d}@keyframes c1e{80.9%{fill:var(--c3)}80.92%,100%{fill:var(--ce)}}.c.c1e{fill:var(--c3);animation-name:c1e}@keyframes c1f{52.13%{fill:var(--c2)}52.15%,100%{fill:var(--ce)}}.c.c1f{fill:var(--c2);animation-name:c1f}@keyframes c1g{42.73%{fill:var(--c1)}42.75%,100%{fill:var(--ce)}}.c.c1g{fill:var(--c1);animation-name:c1g}@keyframes c1h{80.05%{fill:var(--c3)}80.07%,100%{fill:var(--ce)}}.c.c1h{fill:var(--c3);animation-name:c1h}@keyframes c1i{53.55%{fill:var(--c2)}53.57%,100%{fill:var(--ce)}}.c.c1i{fill:var(--c2);animation-name:c1i}@keyframes c1j{81.76%{fill:var(--c4)}81.78%,100%{fill:var(--ce)}}.c.c1j{fill:var(--c4);animation-name:c1j}@keyframes c1k{35.32%{fill:var(--c1)}35.34%,100%{fill:var(--ce)}}.c.c1k{fill:var(--c1);animation-name:c1k}@keyframes c1l{38.45%{fill:var(--c1)}38.47%,100%{fill:var(--ce)}}.c.c1l{fill:var(--c1);animation-name:c1l}@keyframes c1m{38.17%{fill:var(--c1)}38.19%,100%{fill:var(--ce)}}.c.c1m{fill:var(--c1);animation-name:c1m}@keyframes c1n{43.01%{fill:var(--c1)}43.03%,100%{fill:var(--ce)}}.c.c1n{fill:var(--c1);animation-name:c1n}@keyframes c1o{83.75%{fill:var(--c4)}83.77%,100%{fill:var(--ce)}}.c.c1o{fill:var(--c4);animation-name:c1o}@keyframes c1p{40.73%{fill:var(--c1)}40.75%,100%{fill:var(--ce)}}.c.c1p{fill:var(--c1);animation-name:c1p}@keyframes c1q{36.46%{fill:var(--c1)}36.48%,100%{fill:var(--ce)}}.c.c1q{fill:var(--c1);animation-name:c1q}@keyframes c1r{35.6%{fill:var(--c1)}35.62%,100%{fill:var(--ce)}}.c.c1r{fill:var(--c1);animation-name:c1r}@keyframes c1s{37.03%{fill:var(--c1)}37.05%,100%{fill:var(--ce)}}.c.c1s{fill:var(--c1);animation-name:c1s}@keyframes c1t{37.88%{fill:var(--c1)}37.9%,100%{fill:var(--ce)}}.c.c1t{fill:var(--c1);animation-name:c1t}@keyframes c1u{39.31%{fill:var(--c1)}39.33%,100%{fill:var(--ce)}}.c.c1u{fill:var(--c1);animation-name:c1u}@keyframes c1v{40.16%{fill:var(--c1)}40.18%,100%{fill:var(--ce)}}.c.c1v{fill:var(--c1);animation-name:c1v}@keyframes c1w{40.45%{fill:var(--c1)}40.47%,100%{fill:var(--ce)}}.c.c1w{fill:var(--c1);animation-name:c1w}@keyframes c1x{36.17%{fill:var(--c1)}36.19%,100%{fill:var(--ce)}}.c.c1x{fill:var(--c1);animation-name:c1x}@keyframes c1y{35.89%{fill:var(--c1)}35.91%,100%{fill:var(--ce)}}.c.c1y{fill:var(--c1);animation-name:c1y}@keyframes c1z{37.31%{fill:var(--c1)}37.33%,100%{fill:var(--ce)}}.c.c1z{fill:var(--c1);animation-name:c1z}@keyframes c20{37.6%{fill:var(--c1)}37.62%,100%{fill:var(--ce)}}.c.c20{fill:var(--c1);animation-name:c20}@keyframes c21{39.59%{fill:var(--c1)}39.61%,100%{fill:var(--ce)}}.c.c21{fill:var(--c1);animation-name:c21}@keyframes c22{39.88%{fill:var(--c1)}39.9%,100%{fill:var(--ce)}}.c.c22{fill:var(--c1);animation-name:c22}.u{transform-origin:0 0;transform:scale(0,1);animation:none linear 35100ms infinite}@keyframes u0{2.55%{transform:scale(0.000,1)}2.57%,3.12%{transform:scale(0.016,1)}3.14%,3.41%{transform:scale(0.032,1)}3.43%,3.98%{transform:scale(0.048,1)}4%,4.26%{transform:scale(0.065,1)}4.28%,5.97%{transform:scale(0.081,1)}5.99%,7.11%{transform:scale(0.097,1)}7.13%,8.25%{transform:scale(0.113,1)}8.27%,10.25%{transform:scale(0.129,1)}10.27%,13.38%{transform:scale(0.145,1)}13.4%,13.67%{transform:scale(0.161,1)}13.69%,15.94%{transform:scale(0.177,1)}15.96%,16.23%{transform:scale(0.194,1)}16.25%,17.08%{transform:scale(0.210,1)}17.1%,17.65%{transform:scale(0.226,1)}17.67%,17.94%{transform:scale(0.242,1)}17.96%,18.79%{transform:scale(0.258,1)}18.81%,19.36%{transform:scale(0.274,1)}19.38%,19.65%{transform:scale(0.290,1)}19.67%,19.93%{transform:scale(0.306,1)}19.95%,21.93%{transform:scale(0.323,1)}21.95%,22.78%{transform:scale(0.339,1)}22.8%,23.35%{transform:scale(0.355,1)}23.37%,23.64%{transform:scale(0.371,1)}23.66%,24.21%{transform:scale(0.387,1)}24.23%,26.77%{transform:scale(0.403,1)}26.79%,27.34%{transform:scale(0.419,1)}27.36%,29.62%{transform:scale(0.435,1)}29.64%,33.61%{transform:scale(0.452,1)}33.63%,33.89%{transform:scale(0.468,1)}33.91%,34.18%{transform:scale(0.484,1)}34.2%,34.75%{transform:scale(0.500,1)}34.77%,35.03%{transform:scale(0.516,1)}35.05%,35.32%{transform:scale(0.532,1)}35.34%,35.6%{transform:scale(0.548,1)}35.62%,35.89%{transform:scale(0.565,1)}35.91%,36.17%{transform:scale(0.581,1)}36.19%,36.46%{transform:scale(0.597,1)}36.48%,37.03%{transform:scale(0.613,1)}37.05%,37.31%{transform:scale(0.629,1)}37.33%,37.6%{transform:scale(0.645,1)}37.62%,37.88%{transform:scale(0.661,1)}37.9%,38.17%{transform:scale(0.677,1)}38.19%,38.45%{transform:scale(0.694,1)}38.47%,39.31%{transform:scale(0.710,1)}39.33%,39.59%{transform:scale(0.726,1)}39.61%,39.88%{transform:scale(0.742,1)}39.9%,40.16%{transform:scale(0.758,1)}40.18%,40.45%{transform:scale(0.774,1)}40.47%,40.73%{transform:scale(0.790,1)}40.75%,42.16%{transform:scale(0.806,1)}42.18%,42.73%{transform:scale(0.823,1)}42.75%,43.01%{transform:scale(0.839,1)}43.03%,44.43%{transform:scale(0.855,1)}44.45%,45.29%{transform:scale(0.871,1)}45.31%,45.57%{transform:scale(0.887,1)}45.59%,45.86%{transform:scale(0.903,1)}45.88%,46.14%{transform:scale(0.919,1)}46.16%,47%{transform:scale(0.935,1)}47.02%,47.57%{transform:scale(0.952,1)}47.59%,48.14%{transform:scale(0.968,1)}48.16%,48.42%{transform:scale(0.984,1)}48.44%,100%{transform:scale(1.000,1)}}.u.u0{fill:var(--c1);animation-name:u0;transform-origin:0.0px 0}@keyframes u1{49.56%{transform:scale(0.000,1)}49.58%,50.13%{transform:scale(0.111,1)}50.15%,50.7%{transform:scale(0.222,1)}50.72%,52.13%{transform:scale(0.333,1)}52.15%,53.55%{transform:scale(0.444,1)}53.57%,60.1%{transform:scale(0.556,1)}60.12%,63.24%{transform:scale(0.667,1)}63.26%,66.66%{transform:scale(0.778,1)}66.68%,68.37%{transform:scale(0.889,1)}68.39%,100%{transform:scale(1.000,1)}}.u.u1{fill:var(--c2);animation-name:u1;transform-origin:701.0px 0}@keyframes u2{80.05%{transform:scale(0.000,1)}80.07%,80.9%{transform:scale(0.500,1)}80.92%,100%{transform:scale(1.000,1)}}.u.u2{fill:var(--c3);animation-name:u2;transform-origin:802.8px 0}@keyframes u3{81.76%{transform:scale(0.000,1)}81.78%,83.75%{transform:scale(0.500,1)}83.77%,100%{transform:scale(1.000,1)}}.u.u3{fill:var(--c4);animation-name:u3;transform-origin:825.4px 0}.s{shape-rendering:geometricPrecision;fill:var(--cs);animation:none linear 35100ms infinite}@keyframes s0{0%,99.72%{transform:translate(0px,-16px)}0.28%{transform:translate(0px,0px)}3.13%{transform:translate(160px,0px)}3.42%{transform:translate(160px,16px)}3.99%{transform:translate(192px,16px)}4.27%{transform:translate(192px,0px)}4.56%{transform:translate(208px,0px)}5.7%{transform:translate(208px,64px)}6.84%{transform:translate(144px,64px)}7.12%{transform:translate(144px,80px)}7.41%,11.4%{transform:translate(128px,80px)}8.26%{transform:translate(128px,32px)}9.12%{transform:translate(80px,32px)}10.26%{transform:translate(80px,96px)}11.11%{transform:translate(128px,96px)}13.39%{transform:translate(240px,80px)}13.68%{transform:translate(240px,64px)}15.67%{transform:translate(352px,64px)}15.95%{transform:translate(352px,48px)}16.52%{transform:translate(384px,48px)}17.09%{transform:translate(384px,80px)}18.23%{transform:translate(448px,80px)}19.66%{transform:translate(448px,0px)}19.94%{transform:translate(432px,0px)}20.23%{transform:translate(432px,16px)}21.65%{transform:translate(512px,16px)}21.94%{transform:translate(512px,32px)}22.22%{transform:translate(528px,32px)}22.79%{transform:translate(528px,64px)}23.65%{transform:translate(480px,64px)}24.22%{transform:translate(480px,96px)}26.5%{transform:translate(608px,96px)}27.07%{transform:translate(608px,64px)}27.35%{transform:translate(592px,64px)}28.49%{transform:translate(592px,0px)}29.63%{transform:translate(528px,0px)}29.91%{transform:translate(528px,-16px)}33.05%{transform:translate(704px,-16px)}33.62%{transform:translate(704px,16px)}35.9%{transform:translate(832px,16px)}36.18%{transform:translate(832px,0px)}36.47%,82.05%{transform:translate(816px,0px)}37.04%,38.75%{transform:translate(816px,32px)}37.32%{transform:translate(832px,32px)}37.61%{transform:translate(832px,48px)}38.18%{transform:translate(800px,48px)}38.46%,81.2%{transform:translate(800px,32px)}39.32%{transform:translate(816px,64px)}39.6%{transform:translate(832px,64px)}39.89%{transform:translate(832px,80px)}40.17%{transform:translate(816px,80px)}40.46%{transform:translate(816px,96px)}40.74%{transform:translate(800px,96px)}41.03%{transform:translate(800px,112px)}41.6%,54.13%{transform:translate(768px,112px)}42.45%,52.71%{transform:translate(768px,64px)}43.02%{transform:translate(800px,64px)}43.87%,82.62%{transform:translate(800px,16px)}44.16%{transform:translate(784px,16px)}44.44%{transform:translate(784px,0px)}44.73%{transform:translate(768px,0px)}45.3%{transform:translate(768px,32px)}45.58%{transform:translate(752px,32px)}45.87%,49.86%{transform:translate(752px,48px)}46.15%{transform:translate(768px,48px)}46.72%{transform:translate(768px,80px)}47.29%{transform:translate(736px,80px)}47.58%{transform:translate(736px,64px)}48.15%{transform:translate(704px,64px)}48.43%{transform:translate(704px,80px)}49.29%{transform:translate(752px,80px)}50.14%{transform:translate(736px,48px)}50.43%{transform:translate(736px,32px)}50.71%{transform:translate(720px,32px)}51%{transform:translate(720px,48px)}52.14%{transform:translate(784px,48px)}52.42%{transform:translate(784px,64px)}53.28%{transform:translate(768px,96px)}53.56%,79.77%{transform:translate(784px,96px)}53.85%{transform:translate(784px,112px)}55.84%{transform:translate(768px,16px)}62.96%{transform:translate(368px,16px)}63.25%{transform:translate(368px,32px)}66.38%{transform:translate(192px,32px)}66.67%{transform:translate(192px,48px)}67.52%{transform:translate(144px,48px)}68.38%{transform:translate(144px,96px)}80.91%{transform:translate(784px,32px)}81.77%{transform:translate(800px,0px)}82.34%{transform:translate(816px,16px)}83.76%{transform:translate(800px,80px)}96.87%{transform:translate(64px,80px)}97.44%{transform:translate(64px,48px)}97.72%{transform:translate(48px,48px)}98.86%{transform:translate(48px,-16px)}}.s.s0{transform:translate(0px,-16px);animation-name:s0}@keyframes s1{0%,99.72%{transform:translate(16px,-16px)}0.28%{transform:translate(0px,-16px)}0.57%{transform:translate(0px,0px)}3.42%{transform:translate(160px,0px)}3.7%{transform:translate(160px,16px)}4.27%{transform:translate(192px,16px)}4.56%{transform:translate(192px,0px)}4.84%{transform:translate(208px,0px)}5.98%{transform:translate(208px,64px)}7.12%{transform:translate(144px,64px)}7.41%{transform:translate(144px,80px)}7.69%,11.68%{transform:translate(128px,80px)}8.55%{transform:translate(128px,32px)}9.4%{transform:translate(80px,32px)}10.54%{transform:translate(80px,96px)}11.4%{transform:translate(128px,96px)}13.68%{transform:translate(240px,80px)}13.96%{transform:translate(240px,64px)}15.95%{transform:translate(352px,64px)}16.24%{transform:translate(352px,48px)}16.81%{transform:translate(384px,48px)}17.38%{transform:translate(384px,80px)}18.52%{transform:translate(448px,80px)}19.94%{transform:translate(448px,0px)}20.23%{transform:translate(432px,0px)}20.51%{transform:translate(432px,16px)}21.94%{transform:translate(512px,16px)}22.22%{transform:translate(512px,32px)}22.51%{transform:translate(528px,32px)}23.08%{transform:translate(528px,64px)}23.93%{transform:translate(480px,64px)}24.5%{transform:translate(480px,96px)}26.78%{transform:translate(608px,96px)}27.35%{transform:translate(608px,64px)}27.64%{transform:translate(592px,64px)}28.77%{transform:translate(592px,0px)}29.91%{transform:translate(528px,0px)}30.2%{transform:translate(528px,-16px)}33.33%{transform:translate(704px,-16px)}33.9%{transform:translate(704px,16px)}36.18%{transform:translate(832px,16px)}36.47%{transform:translate(832px,0px)}36.75%,82.34%{transform:translate(816px,0px)}37.32%,39.03%{transform:translate(816px,32px)}37.61%{transform:translate(832px,32px)}37.89%{transform:translate(832px,48px)}38.46%{transform:translate(800px,48px)}38.75%,81.48%{transform:translate(800px,32px)}39.6%{transform:translate(816px,64px)}39.89%{transform:translate(832px,64px)}40.17%{transform:translate(832px,80px)}40.46%{transform:translate(816px,80px)}40.74%{transform:translate(816px,96px)}41.03%{transform:translate(800px,96px)}41.31%{transform:translate(800px,112px)}41.88%,54.42%{transform:translate(768px,112px)}42.74%,52.99%{transform:translate(768px,64px)}43.3%{transform:translate(800px,64px)}44.16%,82.91%{transform:translate(800px,16px)}44.44%{transform:translate(784px,16px)}44.73%{transform:translate(784px,0px)}45.01%{transform:translate(768px,0px)}45.58%{transform:translate(768px,32px)}45.87%{transform:translate(752px,32px)}46.15%,50.14%{transform:translate(752px,48px)}46.44%{transform:translate(768px,48px)}47.01%{transform:translate(768px,80px)}47.58%{transform:translate(736px,80px)}47.86%{transform:translate(736px,64px)}48.43%{transform:translate(704px,64px)}48.72%{transform:translate(704px,80px)}49.57%{transform:translate(752px,80px)}50.43%{transform:translate(736px,48px)}50.71%{transform:translate(736px,32px)}51%{transform:translate(720px,32px)}51.28%{transform:translate(720px,48px)}52.42%{transform:translate(784px,48px)}52.71%{transform:translate(784px,64px)}53.56%{transform:translate(768px,96px)}53.85%,80.06%{transform:translate(784px,96px)}54.13%{transform:translate(784px,112px)}56.13%{transform:translate(768px,16px)}63.25%{transform:translate(368px,16px)}63.53%{transform:translate(368px,32px)}66.67%{transform:translate(192px,32px)}66.95%{transform:translate(192px,48px)}67.81%{transform:translate(144px,48px)}68.66%{transform:translate(144px,96px)}81.2%{transform:translate(784px,32px)}82.05%{transform:translate(800px,0px)}82.62%{transform:translate(816px,16px)}84.05%{transform:translate(800px,80px)}97.15%{transform:translate(64px,80px)}97.72%{transform:translate(64px,48px)}98.01%{transform:translate(48px,48px)}99.15%{transform:translate(48px,-16px)}}.s.s1{transform:translate(16px,-16px);animation-name:s1}@keyframes s2{0%,99.72%{transform:translate(32px,-16px)}0.57%{transform:translate(0px,-16px)}0.85%{transform:translate(0px,0px)}3.7%{transform:translate(160px,0px)}3.99%{transform:translate(160px,16px)}4.56%{transform:translate(192px,16px)}4.84%{transform:translate(192px,0px)}5.13%{transform:translate(208px,0px)}6.27%{transform:translate(208px,64px)}7.41%{transform:translate(144px,64px)}7.69%{transform:translate(144px,80px)}7.98%,11.97%{transform:translate(128px,80px)}8.83%{transform:translate(128px,32px)}9.69%{transform:translate(80px,32px)}10.83%{transform:translate(80px,96px)}11.68%{transform:translate(128px,96px)}13.96%{transform:translate(240px,80px)}14.25%{transform:translate(240px,64px)}16.24%{transform:translate(352px,64px)}16.52%{transform:translate(352px,48px)}17.09%{transform:translate(384px,48px)}17.66%{transform:translate(384px,80px)}18.8%{transform:translate(448px,80px)}20.23%{transform:translate(448px,0px)}20.51%{transform:translate(432px,0px)}20.8%{transform:translate(432px,16px)}22.22%{transform:translate(512px,16px)}22.51%{transform:translate(512px,32px)}22.79%{transform:translate(528px,32px)}23.36%{transform:translate(528px,64px)}24.22%{transform:translate(480px,64px)}24.79%{transform:translate(480px,96px)}27.07%{transform:translate(608px,96px)}27.64%{transform:translate(608px,64px)}27.92%{transform:translate(592px,64px)}29.06%{transform:translate(592px,0px)}30.2%{transform:translate(528px,0px)}30.48%{transform:translate(528px,-16px)}33.62%{transform:translate(704px,-16px)}34.19%{transform:translate(704px,16px)}36.47%{transform:translate(832px,16px)}36.75%{transform:translate(832px,0px)}37.04%,82.62%{transform:translate(816px,0px)}37.61%,39.32%{transform:translate(816px,32px)}37.89%{transform:translate(832px,32px)}38.18%{transform:translate(832px,48px)}38.75%{transform:translate(800px,48px)}39.03%,81.77%{transform:translate(800px,32px)}39.89%{transform:translate(816px,64px)}40.17%{transform:translate(832px,64px)}40.46%{transform:translate(832px,80px)}40.74%{transform:translate(816px,80px)}41.03%{transform:translate(816px,96px)}41.31%{transform:translate(800px,96px)}41.6%{transform:translate(800px,112px)}42.17%,54.7%{transform:translate(768px,112px)}43.02%,53.28%{transform:translate(768px,64px)}43.59%{transform:translate(800px,64px)}44.44%,83.19%{transform:translate(800px,16px)}44.73%{transform:translate(784px,16px)}45.01%{transform:translate(784px,0px)}45.3%{transform:translate(768px,0px)}45.87%{transform:translate(768px,32px)}46.15%{transform:translate(752px,32px)}46.44%,50.43%{transform:translate(752px,48px)}46.72%{transform:translate(768px,48px)}47.29%{transform:translate(768px,80px)}47.86%{transform:translate(736px,80px)}48.15%{transform:translate(736px,64px)}48.72%{transform:translate(704px,64px)}49%{transform:translate(704px,80px)}49.86%{transform:translate(752px,80px)}50.71%{transform:translate(736px,48px)}51%{transform:translate(736px,32px)}51.28%{transform:translate(720px,32px)}51.57%{transform:translate(720px,48px)}52.71%{transform:translate(784px,48px)}52.99%{transform:translate(784px,64px)}53.85%{transform:translate(768px,96px)}54.13%,80.34%{transform:translate(784px,96px)}54.42%{transform:translate(784px,112px)}56.41%{transform:translate(768px,16px)}63.53%{transform:translate(368px,16px)}63.82%{transform:translate(368px,32px)}66.95%{transform:translate(192px,32px)}67.24%{transform:translate(192px,48px)}68.09%{transform:translate(144px,48px)}68.95%{transform:translate(144px,96px)}81.48%{transform:translate(784px,32px)}82.34%{transform:translate(800px,0px)}82.91%{transform:translate(816px,16px)}84.33%{transform:translate(800px,80px)}97.44%{transform:translate(64px,80px)}98.01%{transform:translate(64px,48px)}98.29%{transform:translate(48px,48px)}99.43%{transform:translate(48px,-16px)}}.s.s2{transform:translate(32px,-16px);animation-name:s2}@keyframes s3{0%,99.72%{transform:translate(48px,-16px)}0.85%{transform:translate(0px,-16px)}1.14%{transform:translate(0px,0px)}3.99%{transform:translate(160px,0px)}4.27%{transform:translate(160px,16px)}4.84%{transform:translate(192px,16px)}5.13%{transform:translate(192px,0px)}5.41%{transform:translate(208px,0px)}6.55%{transform:translate(208px,64px)}7.69%{transform:translate(144px,64px)}7.98%{transform:translate(144px,80px)}8.26%,12.25%{transform:translate(128px,80px)}9.12%{transform:translate(128px,32px)}9.97%{transform:translate(80px,32px)}11.11%{transform:translate(80px,96px)}11.97%{transform:translate(128px,96px)}14.25%{transform:translate(240px,80px)}14.53%{transform:translate(240px,64px)}16.52%{transform:translate(352px,64px)}16.81%{transform:translate(352px,48px)}17.38%{transform:translate(384px,48px)}17.95%{transform:translate(384px,80px)}19.09%{transform:translate(448px,80px)}20.51%{transform:translate(448px,0px)}20.8%{transform:translate(432px,0px)}21.08%{transform:translate(432px,16px)}22.51%{transform:translate(512px,16px)}22.79%{transform:translate(512px,32px)}23.08%{transform:translate(528px,32px)}23.65%{transform:translate(528px,64px)}24.5%{transform:translate(480px,64px)}25.07%{transform:translate(480px,96px)}27.35%{transform:translate(608px,96px)}27.92%{transform:translate(608px,64px)}28.21%{transform:translate(592px,64px)}29.34%{transform:translate(592px,0px)}30.48%{transform:translate(528px,0px)}30.77%{transform:translate(528px,-16px)}33.9%{transform:translate(704px,-16px)}34.47%{transform:translate(704px,16px)}36.75%{transform:translate(832px,16px)}37.04%{transform:translate(832px,0px)}37.32%,82.91%{transform:translate(816px,0px)}37.89%,39.6%{transform:translate(816px,32px)}38.18%{transform:translate(832px,32px)}38.46%{transform:translate(832px,48px)}39.03%{transform:translate(800px,48px)}39.32%,82.05%{transform:translate(800px,32px)}40.17%{transform:translate(816px,64px)}40.46%{transform:translate(832px,64px)}40.74%{transform:translate(832px,80px)}41.03%{transform:translate(816px,80px)}41.31%{transform:translate(816px,96px)}41.6%{transform:translate(800px,96px)}41.88%{transform:translate(800px,112px)}42.45%,54.99%{transform:translate(768px,112px)}43.3%,53.56%{transform:translate(768px,64px)}43.87%{transform:translate(800px,64px)}44.73%,83.48%{transform:translate(800px,16px)}45.01%{transform:translate(784px,16px)}45.3%{transform:translate(784px,0px)}45.58%{transform:translate(768px,0px)}46.15%{transform:translate(768px,32px)}46.44%{transform:translate(752px,32px)}46.72%,50.71%{transform:translate(752px,48px)}47.01%{transform:translate(768px,48px)}47.58%{transform:translate(768px,80px)}48.15%{transform:translate(736px,80px)}48.43%{transform:translate(736px,64px)}49%{transform:translate(704px,64px)}49.29%{transform:translate(704px,80px)}50.14%{transform:translate(752px,80px)}51%{transform:translate(736px,48px)}51.28%{transform:translate(736px,32px)}51.57%{transform:translate(720px,32px)}51.85%{transform:translate(720px,48px)}52.99%{transform:translate(784px,48px)}53.28%{transform:translate(784px,64px)}54.13%{transform:translate(768px,96px)}54.42%,80.63%{transform:translate(784px,96px)}54.7%{transform:translate(784px,112px)}56.7%{transform:translate(768px,16px)}63.82%{transform:translate(368px,16px)}64.1%{transform:translate(368px,32px)}67.24%{transform:translate(192px,32px)}67.52%{transform:translate(192px,48px)}68.38%{transform:translate(144px,48px)}69.23%{transform:translate(144px,96px)}81.77%{transform:translate(784px,32px)}82.62%{transform:translate(800px,0px)}83.19%{transform:translate(816px,16px)}84.62%{transform:translate(800px,80px)}97.72%{transform:translate(64px,80px)}98.29%{transform:translate(64px,48px)}98.58%{transform:translate(48px,48px)}}.s.s3{transform:translate(48px,-16px);animation-name:s3}</style><rect class="c" x="2" y="2" rx="2" ry="2"/><rect class="c" x="2" y="18" rx="2" ry="2"/><rect class="c" x="2" y="34" rx="2" ry="2"/><rect class="c" x="2" y="50" rx="2" ry="2"/><rect class="c" x="2" y="66" rx="2" ry="2"/><rect class="c" x="2" y="82" rx="2" ry="2"/><rect class="c" x="2" y="98" rx="2" ry="2"/><rect class="c" x="18" y="2" rx="2" ry="2"/><rect class="c" x="18" y="18" rx="2" ry="2"/><rect class="c" x="18" y="34" rx="2" ry="2"/><rect class="c" x="18" y="50" rx="2" ry="2"/><rect class="c" x="18" y="66" rx="2" ry="2"/><rect class="c" x="18" y="82" rx="2" ry="2"/><rect class="c" x="18" y="98" rx="2" ry="2"/><rect class="c" x="34" y="2" rx="2" ry="2"/><rect class="c" x="34" y="18" rx="2" ry="2"/><rect class="c" x="34" y="34" rx="2" ry="2"/><rect class="c" x="34" y="50" rx="2" ry="2"/><rect class="c" x="34" y="66" rx="2" ry="2"/><rect class="c" x="34" y="82" rx="2" ry="2"/><rect class="c" x="34" y="98" rx="2" ry="2"/><rect class="c" x="50" y="2" rx="2" ry="2"/><rect class="c" x="50" y="18" rx="2" ry="2"/><rect class="c" x="50" y="34" rx="2" ry="2"/><rect class="c" x="50" y="50" rx="2" ry="2"/><rect class="c" x="50" y="66" rx="2" ry="2"/><rect class="c" x="50" y="82" rx="2" ry="2"/><rect class="c" x="50" y="98" rx="2" ry="2"/><rect class="c" x="66" y="2" rx="2" ry="2"/><rect class="c" x="66" y="18" rx="2" ry="2"/><rect class="c" x="66" y="34" rx="2" ry="2"/><rect class="c" x="66" y="50" rx="2" ry="2"/><rect class="c" x="66" y="66" rx="2" ry="2"/><rect class="c" x="66" y="82" rx="2" ry="2"/><rect class="c" x="66" y="98" rx="2" ry="2"/><rect class="c" x="82" y="2" rx="2" ry="2"/><rect class="c" x="82" y="18" rx="2" ry="2"/><rect class="c" x="82" y="34" rx="2" ry="2"/><rect class="c" x="82" y="50" rx="2" ry="2"/><rect class="c" x="82" y="66" rx="2" ry="2"/><rect class="c" x="82" y="82" rx="2" ry="2"/><rect class="c c0" x="82" y="98" rx="2" ry="2"/><rect class="c" x="98" y="2" rx="2" ry="2"/><rect class="c" x="98" y="18" rx="2" ry="2"/><rect class="c" x="98" y="34" rx="2" ry="2"/><rect class="c" x="98" y="50" rx="2" ry="2"/><rect class="c" x="98" y="66" rx="2" ry="2"/><rect class="c" x="98" y="82" rx="2" ry="2"/><rect class="c" x="98" y="98" rx="2" ry="2"/><rect class="c" x="114" y="2" rx="2" ry="2"/><rect class="c" x="114" y="18" rx="2" ry="2"/><rect class="c" x="114" y="34" rx="2" ry="2"/><rect class="c" x="114" y="50" rx="2" ry="2"/><rect class="c" x="114" y="66" rx="2" ry="2"/><rect class="c" x="114" y="82" rx="2" ry="2"/><rect class="c" x="114" y="98" rx="2" ry="2"/><rect class="c c1" x="130" y="2" rx="2" ry="2"/><rect class="c" x="130" y="18" rx="2" ry="2"/><rect class="c c2" x="130" y="34" rx="2" ry="2"/><rect class="c" x="130" y="50" rx="2" ry="2"/><rect class="c" x="130" y="66" rx="2" ry="2"/><rect class="c" x="130" y="82" rx="2" ry="2"/><rect class="c" x="130" y="98" rx="2" ry="2"/><rect class="c" x="146" y="2" rx="2" ry="2"/><rect class="c" x="146" y="18" rx="2" ry="2"/><rect class="c" x="146" y="34" rx="2" ry="2"/><rect class="c" x="146" y="50" rx="2" ry="2"/><rect class="c" x="146" y="66" rx="2" ry="2"/><rect class="c c3" x="146" y="82" rx="2" ry="2"/><rect class="c c4" x="146" y="98" rx="2" ry="2"/><rect class="c c5" x="162" y="2" rx="2" ry="2"/><rect class="c c6" x="162" y="18" rx="2" ry="2"/><rect class="c" x="162" y="34" rx="2" ry="2"/><rect class="c" x="162" y="50" rx="2" ry="2"/><rect class="c" x="162" y="66" rx="2" ry="2"/><rect class="c" x="162" y="82" rx="2" ry="2"/><rect class="c" x="162" y="98" rx="2" ry="2"/><rect class="c" x="178" y="2" rx="2" ry="2"/><rect class="c" x="178" y="18" rx="2" ry="2"/><rect class="c" x="178" y="34" rx="2" ry="2"/><rect class="c" x="178" y="50" rx="2" ry="2"/><rect class="c" x="178" y="66" rx="2" ry="2"/><rect class="c" x="178" y="82" rx="2" ry="2"/><rect class="c" x="178" y="98" rx="2" ry="2"/><rect class="c c7" x="194" y="2" rx="2" ry="2"/><rect class="c c8" x="194" y="18" rx="2" ry="2"/><rect class="c" x="194" y="34" rx="2" ry="2"/><rect class="c c9" x="194" y="50" rx="2" ry="2"/><rect class="c ca" x="194" y="66" rx="2" ry="2"/><rect class="c" x="194" y="82" rx="2" ry="2"/><rect class="c" x="194" y="98" rx="2" ry="2"/><rect class="c" x="210" y="2" rx="2" ry="2"/><rect class="c" x="210" y="18" rx="2" ry="2"/><rect class="c" x="210" y="34" rx="2" ry="2"/><rect class="c" x="210" y="50" rx="2" ry="2"/><rect class="c" x="210" y="66" rx="2" ry="2"/><rect class="c" x="210" y="82" rx="2" ry="2"/><rect class="c" x="210" y="98" rx="2" ry="2"/><rect class="c" x="226" y="2" rx="2" ry="2"/><rect class="c" x="226" y="18" rx="2" ry="2"/><rect class="c" x="226" y="34" rx="2" ry="2"/><rect class="c" x="226" y="50" rx="2" ry="2"/><rect class="c" x="226" y="66" rx="2" ry="2"/><rect class="c" x="226" y="82" rx="2" ry="2"/><rect class="c" x="226" y="98" rx="2" ry="2"/><rect class="c" x="242" y="2" rx="2" ry="2"/><rect class="c" x="242" y="18" rx="2" ry="2"/><rect class="c" x="242" y="34" rx="2" ry="2"/><rect class="c" x="242" y="50" rx="2" ry="2"/><rect class="c cb" x="242" y="66" rx="2" ry="2"/><rect class="c cc" x="242" y="82" rx="2" ry="2"/><rect class="c" x="242" y="98" rx="2" ry="2"/><rect class="c" x="258" y="2" rx="2" ry="2"/><rect class="c" x="258" y="18" rx="2" ry="2"/><rect class="c" x="258" y="34" rx="2" ry="2"/><rect class="c" x="258" y="50" rx="2" ry="2"/><rect class="c" x="258" y="66" rx="2" ry="2"/><rect class="c" x="258" y="82" rx="2" ry="2"/><rect class="c" x="258" y="98" rx="2" ry="2"/><rect class="c" x="274" y="2" rx="2" ry="2"/><rect class="c" x="274" y="18" rx="2" ry="2"/><rect class="c" x="274" y="34" rx="2" ry="2"/><rect class="c" x="274" y="50" rx="2" ry="2"/><rect class="c" x="274" y="66" rx="2" ry="2"/><rect class="c" x="274" y="82" rx="2" ry="2"/><rect class="c" x="274" y="98" rx="2" ry="2"/><rect class="c" x="290" y="2" rx="2" ry="2"/><rect class="c" x="290" y="18" rx="2" ry="2"/><rect class="c" x="290" y="34" rx="2" ry="2"/><rect class="c" x="290" y="50" rx="2" ry="2"/><rect class="c" x="290" y="66" rx="2" ry="2"/><rect class="c" x="290" y="82" rx="2" ry="2"/><rect class="c" x="290" y="98" rx="2" ry="2"/><rect class="c" x="306" y="2" rx="2" ry="2"/><rect class="c" x="306" y="18" rx="2" ry="2"/><rect class="c" x="306" y="34" rx="2" ry="2"/><rect class="c" x="306" y="50" rx="2" ry="2"/><rect class="c" x="306" y="66" rx="2" ry="2"/><rect class="c" x="306" y="82" rx="2" ry="2"/><rect class="c" x="306" y="98" rx="2" ry="2"/><rect class="c" x="322" y="2" rx="2" ry="2"/><rect class="c" x="322" y="18" rx="2" ry="2"/><rect class="c" x="322" y="34" rx="2" ry="2"/><rect class="c" x="322" y="50" rx="2" ry="2"/><rect class="c" x="322" y="66" rx="2" ry="2"/><rect class="c" x="322" y="82" rx="2" ry="2"/><rect class="c" x="322" y="98" rx="2" ry="2"/><rect class="c" x="338" y="2" rx="2" ry="2"/><rect class="c" x="338" y="18" rx="2" ry="2"/><rect class="c" x="338" y="34" rx="2" ry="2"/><rect class="c" x="338" y="50" rx="2" ry="2"/><rect class="c" x="338" y="66" rx="2" ry="2"/><rect class="c" x="338" y="82" rx="2" ry="2"/><rect class="c" x="338" y="98" rx="2" ry="2"/><rect class="c" x="354" y="2" rx="2" ry="2"/><rect class="c" x="354" y="18" rx="2" ry="2"/><rect class="c" x="354" y="34" rx="2" ry="2"/><rect class="c cd" x="354" y="50" rx="2" ry="2"/><rect class="c" x="354" y="66" rx="2" ry="2"/><rect class="c" x="354" y="82" rx="2" ry="2"/><rect class="c" x="354" y="98" rx="2" ry="2"/><rect class="c" x="370" y="2" rx="2" ry="2"/><rect class="c" x="370" y="18" rx="2" ry="2"/><rect class="c ce" x="370" y="34" rx="2" ry="2"/><rect class="c cf" x="370" y="50" rx="2" ry="2"/><rect class="c" x="370" y="66" rx="2" ry="2"/><rect class="c" x="370" y="82" rx="2" ry="2"/><rect class="c" x="370" y="98" rx="2" ry="2"/><rect class="c" x="386" y="2" rx="2" ry="2"/><rect class="c" x="386" y="18" rx="2" ry="2"/><rect class="c" x="386" y="34" rx="2" ry="2"/><rect class="c" x="386" y="50" rx="2" ry="2"/><rect class="c" x="386" y="66" rx="2" ry="2"/><rect class="c cg" x="386" y="82" rx="2" ry="2"/><rect class="c" x="386" y="98" rx="2" ry="2"/><rect class="c" x="402" y="2" rx="2" ry="2"/><rect class="c" x="402" y="18" rx="2" ry="2"/><rect class="c" x="402" y="34" rx="2" ry="2"/><rect class="c" x="402" y="50" rx="2" ry="2"/><rect class="c" x="402" y="66" rx="2" ry="2"/><rect class="c" x="402" y="82" rx="2" ry="2"/><rect class="c" x="402" y="98" rx="2" ry="2"/><rect class="c" x="418" y="2" rx="2" ry="2"/><rect class="c" x="418" y="18" rx="2" ry="2"/><rect class="c" x="418" y="34" rx="2" ry="2"/><rect class="c" x="418" y="50" rx="2" ry="2"/><rect class="c" x="418" y="66" rx="2" ry="2"/><rect class="c ch" x="418" y="82" rx="2" ry="2"/><rect class="c" x="418" y="98" rx="2" ry="2"/><rect class="c ci" x="434" y="2" rx="2" ry="2"/><rect class="c" x="434" y="18" rx="2" ry="2"/><rect class="c" x="434" y="34" rx="2" ry="2"/><rect class="c" x="434" y="50" rx="2" ry="2"/><rect class="c" x="434" y="66" rx="2" ry="2"/><rect class="c cj" x="434" y="82" rx="2" ry="2"/><rect class="c" x="434" y="98" rx="2" ry="2"/><rect class="c ck" x="450" y="2" rx="2" ry="2"/><rect class="c cl" x="450" y="18" rx="2" ry="2"/><rect class="c" x="450" y="34" rx="2" ry="2"/><rect class="c cm" x="450" y="50" rx="2" ry="2"/><rect class="c" x="450" y="66" rx="2" ry="2"/><rect class="c" x="450" y="82" rx="2" ry="2"/><rect class="c" x="450" y="98" rx="2" ry="2"/><rect class="c" x="466" y="2" rx="2" ry="2"/><rect class="c" x="466" y="18" rx="2" ry="2"/><rect class="c" x="466" y="34" rx="2" ry="2"/><rect class="c" x="466" y="50" rx="2" ry="2"/><rect class="c" x="466" y="66" rx="2" ry="2"/><rect class="c" x="466" y="82" rx="2" ry="2"/><rect class="c" x="466" y="98" rx="2" ry="2"/><rect class="c" x="482" y="2" rx="2" ry="2"/><rect class="c" x="482" y="18" rx="2" ry="2"/><rect class="c" x="482" y="34" rx="2" ry="2"/><rect class="c" x="482" y="50" rx="2" ry="2"/><rect class="c cn" x="482" y="66" rx="2" ry="2"/><rect class="c" x="482" y="82" rx="2" ry="2"/><rect class="c co" x="482" y="98" rx="2" ry="2"/><rect class="c" x="498" y="2" rx="2" ry="2"/><rect class="c" x="498" y="18" rx="2" ry="2"/><rect class="c" x="498" y="34" rx="2" ry="2"/><rect class="c" x="498" y="50" rx="2" ry="2"/><rect class="c cp" x="498" y="66" rx="2" ry="2"/><rect class="c" x="498" y="82" rx="2" ry="2"/><rect class="c" x="498" y="98" rx="2" ry="2"/><rect class="c" x="514" y="2" rx="2" ry="2"/><rect class="c" x="514" y="18" rx="2" ry="2"/><rect class="c cq" x="514" y="34" rx="2" ry="2"/><rect class="c" x="514" y="50" rx="2" ry="2"/><rect class="c" x="514" y="66" rx="2" ry="2"/><rect class="c" x="514" y="82" rx="2" ry="2"/><rect class="c" x="514" y="98" rx="2" ry="2"/><rect class="c cr" x="530" y="2" rx="2" ry="2"/><rect class="c cs" x="530" y="18" rx="2" ry="2"/><rect class="c" x="530" y="34" rx="2" ry="2"/><rect class="c" x="530" y="50" rx="2" ry="2"/><rect class="c ct" x="530" y="66" rx="2" ry="2"/><rect class="c" x="530" y="82" rx="2" ry="2"/><rect class="c" x="530" y="98" rx="2" ry="2"/><rect class="c" x="546" y="2" rx="2" ry="2"/><rect class="c" x="546" y="18" rx="2" ry="2"/><rect class="c" x="546" y="34" rx="2" ry="2"/><rect class="c" x="546" y="50" rx="2" ry="2"/><rect class="c" x="546" y="66" rx="2" ry="2"/><rect class="c" x="546" y="82" rx="2" ry="2"/><rect class="c" x="546" y="98" rx="2" ry="2"/><rect class="c" x="562" y="2" rx="2" ry="2"/><rect class="c" x="562" y="18" rx="2" ry="2"/><rect class="c" x="562" y="34" rx="2" ry="2"/><rect class="c" x="562" y="50" rx="2" ry="2"/><rect class="c" x="562" y="66" rx="2" ry="2"/><rect class="c" x="562" y="82" rx="2" ry="2"/><rect class="c" x="562" y="98" rx="2" ry="2"/><rect class="c" x="578" y="2" rx="2" ry="2"/><rect class="c" x="578" y="18" rx="2" ry="2"/><rect class="c" x="578" y="34" rx="2" ry="2"/><rect class="c" x="578" y="50" rx="2" ry="2"/><rect class="c" x="578" y="66" rx="2" ry="2"/><rect class="c" x="578" y="82" rx="2" ry="2"/><rect class="c" x="578" y="98" rx="2" ry="2"/><rect class="c" x="594" y="2" rx="2" ry="2"/><rect class="c" x="594" y="18" rx="2" ry="2"/><rect class="c" x="594" y="34" rx="2" ry="2"/><rect class="c" x="594" y="50" rx="2" ry="2"/><rect class="c cu" x="594" y="66" rx="2" ry="2"/><rect class="c" x="594" y="82" rx="2" ry="2"/><rect class="c" x="594" y="98" rx="2" ry="2"/><rect class="c" x="610" y="2" rx="2" ry="2"/><rect class="c" x="610" y="18" rx="2" ry="2"/><rect class="c" x="610" y="34" rx="2" ry="2"/><rect class="c" x="610" y="50" rx="2" ry="2"/><rect class="c" x="610" y="66" rx="2" ry="2"/><rect class="c cv" x="610" y="82" rx="2" ry="2"/><rect class="c" x="610" y="98" rx="2" ry="2"/><rect class="c" x="626" y="2" rx="2" ry="2"/><rect class="c" x="626" y="18" rx="2" ry="2"/><rect class="c" x="626" y="34" rx="2" ry="2"/><rect class="c" x="626" y="50" rx="2" ry="2"/><rect class="c" x="626" y="66" rx="2" ry="2"/><rect class="c" x="626" y="82" rx="2" ry="2"/><rect class="c" x="626" y="98" rx="2" ry="2"/><rect class="c" x="642" y="2" rx="2" ry="2"/><rect class="c" x="642" y="18" rx="2" ry="2"/><rect class="c" x="642" y="34" rx="2" ry="2"/><rect class="c" x="642" y="50" rx="2" ry="2"/><rect class="c" x="642" y="66" rx="2" ry="2"/><rect class="c" x="642" y="82" rx="2" ry="2"/><rect class="c" x="642" y="98" rx="2" ry="2"/><rect class="c" x="658" y="2" rx="2" ry="2"/><rect class="c" x="658" y="18" rx="2" ry="2"/><rect class="c" x="658" y="34" rx="2" ry="2"/><rect class="c" x="658" y="50" rx="2" ry="2"/><rect class="c" x="658" y="66" rx="2" ry="2"/><rect class="c" x="658" y="82" rx="2" ry="2"/><rect class="c" x="658" y="98" rx="2" ry="2"/><rect class="c" x="674" y="2" rx="2" ry="2"/><rect class="c" x="674" y="18" rx="2" ry="2"/><rect class="c" x="674" y="34" rx="2" ry="2"/><rect class="c" x="674" y="50" rx="2" ry="2"/><rect class="c" x="674" y="66" rx="2" ry="2"/><rect class="c" x="674" y="82" rx="2" ry="2"/><rect class="c" x="674" y="98" rx="2" ry="2"/><rect class="c" x="690" y="2" rx="2" ry="2"/><rect class="c" x="690" y="18" rx="2" ry="2"/><rect class="c" x="690" y="34" rx="2" ry="2"/><rect class="c" x="690" y="50" rx="2" ry="2"/><rect class="c" x="690" y="66" rx="2" ry="2"/><rect class="c" x="690" y="82" rx="2" ry="2"/><rect class="c" x="690" y="98" rx="2" ry="2"/><rect class="c" x="706" y="2" rx="2" ry="2"/><rect class="c cw" x="706" y="18" rx="2" ry="2"/><rect class="c" x="706" y="34" rx="2" ry="2"/><rect class="c" x="706" y="50" rx="2" ry="2"/><rect class="c cx" x="706" y="66" rx="2" ry="2"/><rect class="c cy" x="706" y="82" rx="2" ry="2"/><rect class="c" x="706" y="98" rx="2" ry="2"/><rect class="c" x="722" y="2" rx="2" ry="2"/><rect class="c cz" x="722" y="18" rx="2" ry="2"/><rect class="c c10" x="722" y="34" rx="2" ry="2"/><rect class="c" x="722" y="50" rx="2" ry="2"/><rect class="c" x="722" y="66" rx="2" ry="2"/><rect class="c" x="722" y="82" rx="2" ry="2"/><rect class="c" x="722" y="98" rx="2" ry="2"/><rect class="c" x="738" y="2" rx="2" ry="2"/><rect class="c c11" x="738" y="18" rx="2" ry="2"/><rect class="c" x="738" y="34" rx="2" ry="2"/><rect class="c c12" x="738" y="50" rx="2" ry="2"/><rect class="c c13" x="738" y="66" rx="2" ry="2"/><rect class="c" x="738" y="82" rx="2" ry="2"/><rect class="c" x="738" y="98" rx="2" ry="2"/><rect class="c" x="754" y="2" rx="2" ry="2"/><rect class="c" x="754" y="18" rx="2" ry="2"/><rect class="c c14" x="754" y="34" rx="2" ry="2"/><rect class="c c15" x="754" y="50" rx="2" ry="2"/><rect class="c c16" x="754" y="66" rx="2" ry="2"/><rect class="c c17" x="754" y="82" rx="2" ry="2"/><rect class="c" x="754" y="98" rx="2" ry="2"/><rect class="c" x="770" y="2" rx="2" ry="2"/><rect class="c c18" x="770" y="18" rx="2" ry="2"/><rect class="c c19" x="770" y="34" rx="2" ry="2"/><rect class="c c1a" x="770" y="50" rx="2" ry="2"/><rect class="c" x="770" y="66" rx="2" ry="2"/><rect class="c c1b" x="770" y="82" rx="2" ry="2"/><rect class="c" x="770" y="98" rx="2" ry="2"/><rect class="c c1c" x="786" y="2" rx="2" ry="2"/><rect class="c c1d" x="786" y="18" rx="2" ry="2"/><rect class="c c1e" x="786" y="34" rx="2" ry="2"/><rect class="c c1f" x="786" y="50" rx="2" ry="2"/><rect class="c c1g" x="786" y="66" rx="2" ry="2"/><rect class="c c1h" x="786" y="82" rx="2" ry="2"/><rect class="c c1i" x="786" y="98" rx="2" ry="2"/><rect class="c c1j" x="802" y="2" rx="2" ry="2"/><rect class="c c1k" x="802" y="18" rx="2" ry="2"/><rect class="c c1l" x="802" y="34" rx="2" ry="2"/><rect class="c c1m" x="802" y="50" rx="2" ry="2"/><rect class="c c1n" x="802" y="66" rx="2" ry="2"/><rect class="c c1o" x="802" y="82" rx="2" ry="2"/><rect class="c c1p" x="802" y="98" rx="2" ry="2"/><rect class="c c1q" x="818" y="2" rx="2" ry="2"/><rect class="c c1r" x="818" y="18" rx="2" ry="2"/><rect class="c c1s" x="818" y="34" rx="2" ry="2"/><rect class="c c1t" x="818" y="50" rx="2" ry="2"/><rect class="c c1u" x="818" y="66" rx="2" ry="2"/><rect class="c c1v" x="818" y="82" rx="2" ry="2"/><rect class="c c1w" x="818" y="98" rx="2" ry="2"/><rect class="c c1x" x="834" y="2" rx="2" ry="2"/><rect class="c c1y" x="834" y="18" rx="2" ry="2"/><rect class="c c1z" x="834" y="34" rx="2" ry="2"/><rect class="c c20" x="834" y="50" rx="2" ry="2"/><rect class="c c21" x="834" y="66" rx="2" ry="2"/><rect class="c c22" x="834" y="82" rx="2" ry="2"/><rect class="u u0" height="12" width="701.6" x="0.0" y="144"/><rect class="u u1" height="12" width="102.4" x="701.0" y="144"/><rect class="u u2" height="12" width="23.2" x="802.8" y="144"/><rect class="u u3" height="12" width="23.2" x="825.4" y="144"/><rect class="s s0" x="0.8" y="0.8" width="14.4" height="14.4" rx="4.5" ry="4.5"/><rect class="s s1" x="1.8" y="1.8" width="12.3" height="12.3" rx="4.1" ry="4.1"/><rect class="s s2" x="2.6" y="2.6" width="10.8" height="10.8" rx="3.6" ry="3.6"/><rect class="s s3" x="3.0" y="3.0" width="9.9" height="9.9" rx="3.3" ry="3.3"/></svg>