<svg viewBox="-16 -32 880 192" width="880" height="192" xmlns="http://www.w3.org/2000/svg"><desc>Generated with https://github.com/Platane/snk</desc><style>:root{--cb:#1b1f230a;--cs:white;--ce:#0a0e12;--c0:#0a0e12;--c1:#1445a2;--c2:#1d65ee;--c3:#1f4eff;--c4:#466dff}.c{shape-rendering:geometricPrecision;fill:var(--ce);stroke-width:1px;stroke:var(--cb);animation:none 37500ms linear infinite;width:12px;height:12px}@keyframes c0{8.79%{fill:var(--c1)}8.81%,100%{fill:var(--ce)}}.c.c0{fill:var(--c1);animation-name:c0}@keyframes c1{1.59%{fill:var(--c1)}1.61%,100%{fill:var(--ce)}}.c.c1{fill:var(--c1);animation-name:c1}@keyframes c2{6.92%{fill:var(--c1)}6.94%,100%{fill:var(--ce)}}.c.c2{fill:var(--c1);animation-name:c2}@keyframes c3{5.86%{fill:var(--c1)}5.88%,100%{fill:var(--ce)}}.c.c3{fill:var(--c1);animation-name:c3}@keyframes c4{71.19%{fill:var(--c2)}71.21%,100%{fill:var(--ce)}}.c.c4{fill:var(--c2);animation-name:c4}@keyframes c5{2.12%{fill:var(--c1)}2.14%,100%{fill:var(--ce)}}.c.c5{fill:var(--c1);animation-name:c5}@keyframes c6{2.39%{fill:var(--c1)}2.41%,100%{fill:var(--ce)}}.c.c6{fill:var(--c1);animation-name:c6}@keyframes c7{3.19%{fill:var(--c1)}3.21%,100%{fill:var(--ce)}}.c.c7{fill:var(--c1);animation-name:c7}@keyframes c8{2.92%{fill:var(--c1)}2.94%,100%{fill:var(--ce)}}.c.c8{fill:var(--c1);animation-name:c8}@keyframes c9{69.59%{fill:var(--c2)}69.61%,100%{fill:var(--ce)}}.c.c9{fill:var(--c2);animation-name:c9}@keyframes ca{4.79%{fill:var(--c1)}4.81%,100%{fill:var(--ce)}}.c.ca{fill:var(--c1);animation-name:ca}@keyframes cb{11.99%{fill:var(--c1)}12.01%,100%{fill:var(--ce)}}.c.cb{fill:var(--c1);animation-name:cb}@keyframes cc{11.72%{fill:var(--c1)}11.74%,100%{fill:var(--ce)}}.c.cc{fill:var(--c1);animation-name:cc}@keyframes cd{14.12%{fill:var(--c1)}14.14%,100%{fill:var(--ce)}}.c.cd{fill:var(--c1);animation-name:cd}@keyframes ce{66.39%{fill:var(--c2)}66.41%,100%{fill:var(--ce)}}.c.ce{fill:var(--c2);animation-name:ce}@keyframes cf{14.39%{fill:var(--c1)}14.41%,100%{fill:var(--ce)}}.c.cf{fill:var(--c1);animation-name:cf}@keyframes cg{15.19%{fill:var(--c1)}15.21%,100%{fill:var(--ce)}}.c.cg{fill:var(--c1);animation-name:cg}@keyframes ch{15.72%{fill:var(--c1)}15.74%,100%{fill:var(--ce)}}.c.ch{fill:var(--c1);animation-name:ch}@keyframes ci{17.86%{fill:var(--c1)}17.88%,100%{fill:var(--ce)}}.c.ci{fill:var(--c1);animation-name:ci}@keyframes cj{15.99%{fill:var(--c1)}16.01%,100%{fill:var(--ce)}}.c.cj{fill:var(--c1);animation-name:cj}@keyframes ck{17.59%{fill:var(--c1)}17.61%,100%{fill:var(--ce)}}.c.ck{fill:var(--c1);animation-name:ck}@keyframes cl{17.32%{fill:var(--c1)}17.34%,100%{fill:var(--ce)}}.c.cl{fill:var(--c1);animation-name:cl}@keyframes cm{16.79%{fill:var(--c1)}16.81%,100%{fill:var(--ce)}}.c.cm{fill:var(--c1);animation-name:cm}@keyframes cn{21.32%{fill:var(--c1)}21.34%,100%{fill:var(--ce)}}.c.cn{fill:var(--c1);animation-name:cn}@keyframes co{21.86%{fill:var(--c1)}21.88%,100%{fill:var(--ce)}}.c.co{fill:var(--c1);animation-name:co}@keyframes cp{21.06%{fill:var(--c1)}21.08%,100%{fill:var(--ce)}}.c.cp{fill:var(--c1);animation-name:cp}@keyframes cq{19.72%{fill:var(--c1)}19.74%,100%{fill:var(--ce)}}.c.cq{fill:var(--c1);animation-name:cq}@keyframes cr{26.92%{fill:var(--c1)}26.94%,100%{fill:var(--ce)}}.c.cr{fill:var(--c1);animation-name:cr}@keyframes cs{63.46%{fill:var(--c2)}63.48%,100%{fill:var(--ce)}}.c.cs{fill:var(--c2);animation-name:cs}@keyframes ct{20.52%{fill:var(--c1)}20.54%,100%{fill:var(--ce)}}.c.ct{fill:var(--c1);animation-name:ct}@keyframes cu{24.79%{fill:var(--c1)}24.81%,100%{fill:var(--ce)}}.c.cu{fill:var(--c1);animation-name:cu}@keyframes cv{24.26%{fill:var(--c1)}24.28%,100%{fill:var(--ce)}}.c.cv{fill:var(--c1);animation-name:cv}@keyframes cw{30.66%{fill:var(--c1)}30.68%,100%{fill:var(--ce)}}.c.cw{fill:var(--c1);animation-name:cw}@keyframes cx{46.92%{fill:var(--c1)}46.94%,100%{fill:var(--ce)}}.c.cx{fill:var(--c1);animation-name:cx}@keyframes cy{47.19%{fill:var(--c1)}47.21%,100%{fill:var(--ce)}}.c.cy{fill:var(--c1);animation-name:cy}@keyframes cz{30.92%{fill:var(--c1)}30.94%,100%{fill:var(--ce)}}.c.cz{fill:var(--c1);animation-name:cz}@keyframes c10{55.19%{fill:var(--c2)}55.21%,100%{fill:var(--ce)}}.c.c10{fill:var(--c2);animation-name:c10}@keyframes c11{31.19%{fill:var(--c1)}31.21%,100%{fill:var(--ce)}}.c.c11{fill:var(--c1);animation-name:c11}@keyframes c12{54.66%{fill:var(--c2)}54.68%,100%{fill:var(--ce)}}.c.c12{fill:var(--c2);animation-name:c12}@keyframes c13{46.39%{fill:var(--c1)}46.41%,100%{fill:var(--ce)}}.c.c13{fill:var(--c1);animation-name:c13}@keyframes c14{44.52%{fill:var(--c1)}44.54%,100%{fill:var(--ce)}}.c.c14{fill:var(--c1);animation-name:c14}@keyframes c15{44.79%{fill:var(--c1)}44.81%,100%{fill:var(--ce)}}.c.c15{fill:var(--c1);animation-name:c15}@keyframes c16{54.12%{fill:var(--c2)}54.14%,100%{fill:var(--ce)}}.c.c16{fill:var(--c2);animation-name:c16}@keyframes c17{45.86%{fill:var(--c1)}45.88%,100%{fill:var(--ce)}}.c.c17{fill:var(--c1);animation-name:c17}@keyframes c18{31.72%{fill:var(--c1)}31.74%,100%{fill:var(--ce)}}.c.c18{fill:var(--c1);animation-name:c18}@keyframes c19{44.26%{fill:var(--c1)}44.28%,100%{fill:var(--ce)}}.c.c19{fill:var(--c1);animation-name:c19}@keyframes c1a{43.99%{fill:var(--c1)}44.01%,100%{fill:var(--ce)}}.c.c1a{fill:var(--c1);animation-name:c1a}@keyframes c1b{45.59%{fill:var(--c1)}45.61%,100%{fill:var(--ce)}}.c.c1b{fill:var(--c1);animation-name:c1b}@keyframes c1c{51.99%{fill:var(--c1)}52.01%,100%{fill:var(--ce)}}.c.c1c{fill:var(--c1);animation-name:c1c}@keyframes c1d{31.99%{fill:var(--c1)}32.01%,100%{fill:var(--ce)}}.c.c1d{fill:var(--c1);animation-name:c1d}@keyframes c1e{82.92%{fill:var(--c3)}82.94%,100%{fill:var(--ce)}}.c.c1e{fill:var(--c3);animation-name:c1e}@keyframes c1f{53.32%{fill:var(--c2)}53.34%,100%{fill:var(--ce)}}.c.c1f{fill:var(--c2);animation-name:c1f}@keyframes c1g{43.46%{fill:var(--c1)}43.48%,100%{fill:var(--ce)}}.c.c1g{fill:var(--c1);animation-name:c1g}@keyframes c1h{82.12%{fill:var(--c3)}82.14%,100%{fill:var(--ce)}}.c.c1h{fill:var(--c3);animation-name:c1h}@keyframes c1i{57.32%{fill:var(--c2)}57.34%,100%{fill:var(--ce)}}.c.c1i{fill:var(--c2);animation-name:c1i}@keyframes c1j{83.72%{fill:var(--c4)}83.74%,100%{fill:var(--ce)}}.c.c1j{fill:var(--c4);animation-name:c1j}@keyframes c1k{32.26%{fill:var(--c1)}32.28%,100%{fill:var(--ce)}}.c.c1k{fill:var(--c1);animation-name:c1k}@keyframes c1l{37.86%{fill:var(--c1)}37.88%,100%{fill:var(--ce)}}.c.c1l{fill:var(--c1);animation-name:c1l}@keyframes c1m{37.59%{fill:var(--c1)}37.61%,100%{fill:var(--ce)}}.c.c1m{fill:var(--c1);animation-name:c1m}@keyframes c1n{43.19%{fill:var(--c1)}43.21%,100%{fill:var(--ce)}}.c.c1n{fill:var(--c1);animation-name:c1n}@keyframes c1o{85.59%{fill:var(--c4)}85.61%,100%{fill:var(--ce)}}.c.c1o{fill:var(--c4);animation-name:c1o}@keyframes c1p{49.59%{fill:var(--c1)}49.61%,100%{fill:var(--ce)}}.c.c1p{fill:var(--c1);animation-name:c1p}@keyframes c1q{34.92%{fill:var(--c1)}34.94%,100%{fill:var(--ce)}}.c.c1q{fill:var(--c1);animation-name:c1q}@keyframes c1r{32.52%{fill:var(--c1)}32.54%,100%{fill:var(--ce)}}.c.c1r{fill:var(--c1);animation-name:c1r}@keyframes c1s{35.46%{fill:var(--c1)}35.48%,100%{fill:var(--ce)}}.c.c1s{fill:var(--c1);animation-name:c1s}@keyframes c1t{37.32%{fill:var(--c1)}37.34%,100%{fill:var(--ce)}}.c.c1t{fill:var(--c1);animation-name:c1t}@keyframes c1u{38.66%{fill:var(--c1)}38.68%,100%{fill:var(--ce)}}.c.c1u{fill:var(--c1);animation-name:c1u}@keyframes c1v{40.52%{fill:var(--c1)}40.54%,100%{fill:var(--ce)}}.c.c1v{fill:var(--c1);animation-name:c1v}@keyframes c1w{40.79%{fill:var(--c1)}40.81%,100%{fill:var(--ce)}}.c.c1w{fill:var(--c1);animation-name:c1w}@keyframes c1x{34.66%{fill:var(--c1)}34.68%,100%{fill:var(--ce)}}.c.c1x{fill:var(--c1);animation-name:c1x}@keyframes c1y{32.79%{fill:var(--c1)}32.81%,100%{fill:var(--ce)}}.c.c1y{fill:var(--c1);animation-name:c1y}@keyframes c1z{35.72%{fill:var(--c1)}35.74%,100%{fill:var(--ce)}}.c.c1z{fill:var(--c1);animation-name:c1z}@keyframes c20{37.06%{fill:var(--c1)}37.08%,100%{fill:var(--ce)}}.c.c20{fill:var(--c1);animation-name:c20}@keyframes c21{38.92%{fill:var(--c1)}38.94%,100%{fill:var(--ce)}}.c.c21{fill:var(--c1);animation-name:c21}@keyframes c22{40.26%{fill:var(--c1)}40.28%,100%{fill:var(--ce)}}.c.c22{fill:var(--c1);animation-name:c22}@keyframes c23{41.06%{fill:var(--c1)}41.08%,100%{fill:var(--ce)}}.c.c23{fill:var(--c1);animation-name:c23}@keyframes c24{34.39%{fill:var(--c1)}34.41%,100%{fill:var(--ce)}}.c.c24{fill:var(--c1);animation-name:c24}@keyframes c25{33.06%{fill:var(--c1)}33.08%,100%{fill:var(--ce)}}.c.c25{fill:var(--c1);animation-name:c25}@keyframes c26{35.99%{fill:var(--c1)}36.01%,100%{fill:var(--ce)}}.c.c26{fill:var(--c1);animation-name:c26}@keyframes c27{36.79%{fill:var(--c1)}36.81%,100%{fill:var(--ce)}}.c.c27{fill:var(--c1);animation-name:c27}@keyframes c28{39.19%{fill:var(--c1)}39.21%,100%{fill:var(--ce)}}.c.c28{fill:var(--c1);animation-name:c28}@keyframes c29{39.99%{fill:var(--c1)}40.01%,100%{fill:var(--ce)}}.c.c29{fill:var(--c1);animation-name:c29}@keyframes c2a{41.32%{fill:var(--c1)}41.34%,100%{fill:var(--ce)}}.c.c2a{fill:var(--c1);animation-name:c2a}@keyframes c2b{34.12%{fill:var(--c1)}34.14%,100%{fill:var(--ce)}}.c.c2b{fill:var(--c1);animation-name:c2b}@keyframes c2c{33.32%{fill:var(--c1)}33.34%,100%{fill:var(--ce)}}.c.c2c{fill:var(--c1);animation-name:c2c}@keyframes c2d{36.26%{fill:var(--c1)}36.28%,100%{fill:var(--ce)}}.c.c2d{fill:var(--c1);animation-name:c2d}@keyframes c2e{36.52%{fill:var(--c1)}36.54%,100%{fill:var(--ce)}}.c.c2e{fill:var(--c1);animation-name:c2e}@keyframes c2f{39.46%{fill:var(--c1)}39.48%,100%{fill:var(--ce)}}.c.c2f{fill:var(--c1);animation-name:c2f}@keyframes c2g{39.72%{fill:var(--c1)}39.74%,100%{fill:var(--ce)}}.c.c2g{fill:var(--c1);animation-name:c2g}@keyframes c2h{41.59%{fill:var(--c1)}41.61%,100%{fill:var(--ce)}}.c.c2h{fill:var(--c1);animation-name:c2h}@keyframes c2i{33.86%{fill:var(--c1)}33.88%,100%{fill:var(--ce)}}.c.c2i{fill:var(--c1);animation-name:c2i}@keyframes c2j{33.59%{fill:var(--c1)}33.61%,100%{fill:var(--ce)}}.c.c2j{fill:var(--c1);animation-name:c2j}.u{transform-origin:0 0;transform:scale(0,1);animation:none linear 37500ms infinite}@keyframes u0{1.59%{transform:scale(0.000,1)}1.61%,2.12%{transform:scale(0.013,1)}2.14%,2.39%{transform:scale(0.025,1)}2.41%,2.92%{transform:scale(0.038,1)}2.94%,3.19%{transform:scale(0.051,1)}3.21%,4.79%{transform:scale(0.063,1)}4.81%,5.86%{transform:scale(0.076,1)}5.88%,6.92%{transform:scale(0.089,1)}6.94%,8.79%{transform:scale(0.101,1)}8.81%,11.72%{transform:scale(0.114,1)}11.74%,11.99%{transform:scale(0.127,1)}12.01%,14.12%{transform:scale(0.139,1)}14.14%,14.39%{transform:scale(0.152,1)}14.41%,15.19%{transform:scale(0.165,1)}15.21%,15.72%{transform:scale(0.177,1)}15.74%,15.99%{transform:scale(0.190,1)}16.01%,16.79%{transform:scale(0.203,1)}16.81%,17.32%{transform:scale(0.215,1)}17.34%,17.59%{transform:scale(0.228,1)}17.61%,17.86%{transform:scale(0.241,1)}17.88%,19.72%{transform:scale(0.253,1)}19.74%,20.52%{transform:scale(0.266,1)}20.54%,21.06%{transform:scale(0.278,1)}21.08%,21.32%{transform:scale(0.291,1)}21.34%,21.86%{transform:scale(0.304,1)}21.88%,24.26%{transform:scale(0.316,1)}24.28%,24.79%{transform:scale(0.329,1)}24.81%,26.92%{transform:scale(0.342,1)}26.94%,30.66%{transform:scale(0.354,1)}30.68%,30.92%{transform:scale(0.367,1)}30.94%,31.19%{transform:scale(0.380,1)}31.21%,31.72%{transform:scale(0.392,1)}31.74%,31.99%{transform:scale(0.405,1)}32.01%,32.26%{transform:scale(0.418,1)}32.28%,32.52%{transform:scale(0.430,1)}32.54%,32.79%{transform:scale(0.443,1)}32.81%,33.06%{transform:scale(0.456,1)}33.08%,33.32%{transform:scale(0.468,1)}33.34%,33.59%{transform:scale(0.481,1)}33.61%,33.86%{transform:scale(0.494,1)}33.88%,34.12%{transform:scale(0.506,1)}34.14%,34.39%{transform:scale(0.519,1)}34.41%,34.66%{transform:scale(0.532,1)}34.68%,34.92%{transform:scale(0.544,1)}34.94%,35.46%{transform:scale(0.557,1)}35.48%,35.72%{transform:scale(0.570,1)}35.74%,35.99%{transform:scale(0.582,1)}36.01%,36.26%{transform:scale(0.595,1)}36.28%,36.52%{transform:scale(0.608,1)}36.54%,36.79%{transform:scale(0.620,1)}36.81%,37.06%{transform:scale(0.633,1)}37.08%,37.32%{transform:scale(0.646,1)}37.34%,37.59%{transform:scale(0.658,1)}37.61%,37.86%{transform:scale(0.671,1)}37.88%,38.66%{transform:scale(0.684,1)}38.68%,38.92%{transform:scale(0.696,1)}38.94%,39.19%{transform:scale(0.709,1)}39.21%,39.46%{transform:scale(0.722,1)}39.48%,39.72%{transform:scale(0.734,1)}39.74%,39.99%{transform:scale(0.747,1)}40.01%,40.26%{transform:scale(0.759,1)}40.28%,40.52%{transform:scale(0.772,1)}40.54%,40.79%{transform:scale(0.785,1)}40.81%,41.06%{transform:scale(0.797,1)}41.08%,41.32%{transform:scale(0.810,1)}41.34%,41.59%{transform:scale(0.823,1)}41.61%,43.19%{transform:scale(0.835,1)}43.21%,43.46%{transform:scale(0.848,1)}43.48%,43.99%{transform:scale(0.861,1)}44.01%,44.26%{transform:scale(0.873,1)}44.28%,44.52%{transform:scale(0.886,1)}44.54%,44.79%{transform:scale(0.899,1)}44.81%,45.59%{transform:scale(0.911,1)}45.61%,45.86%{transform:scale(0.924,1)}45.88%,46.39%{transform:scale(0.937,1)}46.41%,46.92%{transform:scale(0.949,1)}46.94%,47.19%{transform:scale(0.962,1)}47.21%,49.59%{transform:scale(0.975,1)}49.61%,51.99%{transform:scale(0.987,1)}52.01%,100%{transform:scale(1.000,1)}}.u.u0{fill:var(--c1);animation-name:u0;transform-origin:0.0px 0}@keyframes u1{53.32%{transform:scale(0.000,1)}53.34%,54.12%{transform:scale(0.111,1)}54.14%,54.66%{transform:scale(0.222,1)}54.68%,55.19%{transform:scale(0.333,1)}55.21%,57.32%{transform:scale(0.444,1)}57.34%,63.46%{transform:scale(0.556,1)}63.48%,66.39%{transform:scale(0.667,1)}66.41%,69.59%{transform:scale(0.778,1)}69.61%,71.19%{transform:scale(0.889,1)}71.21%,100%{transform:scale(1.000,1)}}.u.u1{fill:var(--c2);animation-name:u1;transform-origin:728.2px 0}@keyframes u2{82.12%{transform:scale(0.000,1)}82.14%,82.92%{transform:scale(0.500,1)}82.94%,100%{transform:scale(1.000,1)}}.u.u2{fill:var(--c3);animation-name:u2;transform-origin:811.1px 0}@keyframes u3{83.72%{transform:scale(0.000,1)}83.74%,85.59%{transform:scale(0.500,1)}85.61%,100%{transform:scale(1.000,1)}}.u.u3{fill:var(--c4);animation-name:u3;transform-origin:829.6px 0}.s{shape-rendering:geometricPrecision;fill:var(--cs);animation:none linear 37500ms infinite}@keyframes s0{0%,99.73%{transform:translate(0px,-16px)}0.27%{transform:translate(0px,0px)}2.13%{transform:translate(112px,0px)}2.4%{transform:translate(112px,16px)}2.93%{transform:translate(144px,16px)}3.2%{transform:translate(144px,0px)}3.47%{transform:translate(160px,0px)}4.53%{transform:translate(160px,64px)}5.6%,96.8%{transform:translate(96px,64px)}5.87%{transform:translate(96px,80px)}6.13%,9.87%{transform:translate(80px,80px)}6.93%,97.6%{transform:translate(80px,32px)}7.73%{transform:translate(32px,32px)}8.8%{transform:translate(32px,96px)}9.6%{transform:translate(80px,96px)}11.73%{transform:translate(192px,80px)}12%{transform:translate(192px,64px)}13.87%{transform:translate(304px,64px)}14.13%{transform:translate(304px,48px)}14.67%{transform:translate(336px,48px)}15.2%{transform:translate(336px,80px)}16.27%{transform:translate(400px,80px)}17.6%{transform:translate(400px,0px)}17.87%{transform:translate(384px,0px)}18.13%{transform:translate(384px,16px)}19.47%{transform:translate(464px,16px)}19.73%{transform:translate(464px,32px)}20%{transform:translate(480px,32px)}20.53%{transform:translate(480px,64px)}21.33%{transform:translate(432px,64px)}21.87%{transform:translate(432px,96px)}24%{transform:translate(560px,96px)}24.53%{transform:translate(560px,64px)}24.8%{transform:translate(544px,64px)}25.87%{transform:translate(544px,0px)}26.93%{transform:translate(480px,0px)}27.2%{transform:translate(480px,-16px)}30.13%{transform:translate(656px,-16px)}30.67%{transform:translate(656px,16px)}33.6%{transform:translate(832px,16px)}33.87%{transform:translate(832px,0px)}34.93%,84%{transform:translate(768px,0px)}35.47%,38.13%{transform:translate(768px,32px)}36.27%{transform:translate(816px,32px)}36.53%{transform:translate(816px,48px)}37.6%{transform:translate(752px,48px)}37.87%,83.2%{transform:translate(752px,32px)}38.67%{transform:translate(768px,64px)}39.47%,42.13%{transform:translate(816px,64px)}39.73%{transform:translate(816px,80px)}40.53%{transform:translate(768px,80px)}40.8%,49.87%{transform:translate(768px,96px)}41.6%{transform:translate(816px,96px)}43.73%{transform:translate(720px,64px)}44.27%{transform:translate(720px,32px)}44.53%{transform:translate(704px,32px)}44.8%,54.4%{transform:translate(704px,48px)}45.07%,53.07%,56.27%{transform:translate(720px,48px)}45.6%,48.27%{transform:translate(720px,80px)}46.13%{transform:translate(688px,80px)}46.4%{transform:translate(688px,64px)}46.93%{transform:translate(656px,64px)}47.2%{transform:translate(656px,80px)}48.8%,57.87%{transform:translate(720px,112px)}49.33%{transform:translate(752px,112px)}49.6%{transform:translate(752px,96px)}51.2%,84.27%{transform:translate(768px,16px)}51.73%{transform:translate(736px,16px)}52%{transform:translate(736px,0px)}52.27%{transform:translate(720px,0px)}53.33%{transform:translate(736px,48px)}53.6%{transform:translate(736px,64px)}54.13%{transform:translate(704px,64px)}54.67%{transform:translate(688px,48px)}54.93%{transform:translate(688px,32px)}55.2%{transform:translate(672px,32px)}55.47%{transform:translate(672px,48px)}57.07%{transform:translate(720px,96px)}57.33%,81.87%{transform:translate(736px,96px)}57.6%{transform:translate(736px,112px)}59.47%{transform:translate(720px,16px)}66.13%{transform:translate(320px,16px)}66.4%{transform:translate(320px,32px)}69.33%{transform:translate(144px,32px)}69.6%{transform:translate(144px,48px)}70.4%,97.07%{transform:translate(96px,48px)}71.2%{transform:translate(96px,96px)}82.93%{transform:translate(736px,32px)}83.73%{transform:translate(752px,0px)}84.53%{transform:translate(752px,16px)}85.6%{transform:translate(752px,80px)}96%{transform:translate(128px,80px)}96.27%{transform:translate(128px,64px)}97.33%{transform:translate(80px,48px)}97.87%{transform:translate(64px,32px)}98.67%{transform:translate(64px,-16px)}}.s.s0{transform:translate(0px,-16px);animation-name:s0}@keyframes s1{0%,99.73%{transform:translate(16px,-16px)}0.27%{transform:translate(0px,-16px)}0.53%{transform:translate(0px,0px)}2.4%{transform:translate(112px,0px)}2.67%{transform:translate(112px,16px)}3.2%{transform:translate(144px,16px)}3.47%{transform:translate(144px,0px)}3.73%{transform:translate(160px,0px)}4.8%{transform:translate(160px,64px)}5.87%,97.07%{transform:translate(96px,64px)}6.13%{transform:translate(96px,80px)}6.4%,10.13%{transform:translate(80px,80px)}7.2%,97.87%{transform:translate(80px,32px)}8%{transform:translate(32px,32px)}9.07%{transform:translate(32px,96px)}9.87%{transform:translate(80px,96px)}12%{transform:translate(192px,80px)}12.27%{transform:translate(192px,64px)}14.13%{transform:translate(304px,64px)}14.4%{transform:translate(304px,48px)}14.93%{transform:translate(336px,48px)}15.47%{transform:translate(336px,80px)}16.53%{transform:translate(400px,80px)}17.87%{transform:translate(400px,0px)}18.13%{transform:translate(384px,0px)}18.4%{transform:translate(384px,16px)}19.73%{transform:translate(464px,16px)}20%{transform:translate(464px,32px)}20.27%{transform:translate(480px,32px)}20.8%{transform:translate(480px,64px)}21.6%{transform:translate(432px,64px)}22.13%{transform:translate(432px,96px)}24.27%{transform:translate(560px,96px)}24.8%{transform:translate(560px,64px)}25.07%{transform:translate(544px,64px)}26.13%{transform:translate(544px,0px)}27.2%{transform:translate(480px,0px)}27.47%{transform:translate(480px,-16px)}30.4%{transform:translate(656px,-16px)}30.93%{transform:translate(656px,16px)}33.87%{transform:translate(832px,16px)}34.13%{transform:translate(832px,0px)}35.2%,84.27%{transform:translate(768px,0px)}35.73%,38.4%{transform:translate(768px,32px)}36.53%{transform:translate(816px,32px)}36.8%{transform:translate(816px,48px)}37.87%{transform:translate(752px,48px)}38.13%,83.47%{transform:translate(752px,32px)}38.93%{transform:translate(768px,64px)}39.73%,42.4%{transform:translate(816px,64px)}40%{transform:translate(816px,80px)}40.8%{transform:translate(768px,80px)}41.07%,50.13%{transform:translate(768px,96px)}41.87%{transform:translate(816px,96px)}44%{transform:translate(720px,64px)}44.53%{transform:translate(720px,32px)}44.8%{transform:translate(704px,32px)}45.07%,54.67%{transform:translate(704px,48px)}45.33%,53.33%,56.53%{transform:translate(720px,48px)}45.87%,48.53%{transform:translate(720px,80px)}46.4%{transform:translate(688px,80px)}46.67%{transform:translate(688px,64px)}47.2%{transform:translate(656px,64px)}47.47%{transform:translate(656px,80px)}49.07%,58.13%{transform:translate(720px,112px)}49.6%{transform:translate(752px,112px)}49.87%{transform:translate(752px,96px)}51.47%,84.53%{transform:translate(768px,16px)}52%{transform:translate(736px,16px)}52.27%{transform:translate(736px,0px)}52.53%{transform:translate(720px,0px)}53.6%{transform:translate(736px,48px)}53.87%{transform:translate(736px,64px)}54.4%{transform:translate(704px,64px)}54.93%{transform:translate(688px,48px)}55.2%{transform:translate(688px,32px)}55.47%{transform:translate(672px,32px)}55.73%{transform:translate(672px,48px)}57.33%{transform:translate(720px,96px)}57.6%,82.13%{transform:translate(736px,96px)}57.87%{transform:translate(736px,112px)}59.73%{transform:translate(720px,16px)}66.4%{transform:translate(320px,16px)}66.67%{transform:translate(320px,32px)}69.6%{transform:translate(144px,32px)}69.87%{transform:translate(144px,48px)}70.67%,97.33%{transform:translate(96px,48px)}71.47%{transform:translate(96px,96px)}83.2%{transform:translate(736px,32px)}84%{transform:translate(752px,0px)}84.8%{transform:translate(752px,16px)}85.87%{transform:translate(752px,80px)}96.27%{transform:translate(128px,80px)}96.53%{transform:translate(128px,64px)}97.6%{transform:translate(80px,48px)}98.13%{transform:translate(64px,32px)}98.93%{transform:translate(64px,-16px)}}.s.s1{transform:translate(16px,-16px);animation-name:s1}@keyframes s2{0%,99.73%{transform:translate(32px,-16px)}0.53%{transform:translate(0px,-16px)}0.8%{transform:translate(0px,0px)}2.67%{transform:translate(112px,0px)}2.93%{transform:translate(112px,16px)}3.47%{transform:translate(144px,16px)}3.73%{transform:translate(144px,0px)}4%{transform:translate(160px,0px)}5.07%{transform:translate(160px,64px)}6.13%,97.33%{transform:translate(96px,64px)}6.4%{transform:translate(96px,80px)}6.67%,10.4%{transform:translate(80px,80px)}7.47%,98.13%{transform:translate(80px,32px)}8.27%{transform:translate(32px,32px)}9.33%{transform:translate(32px,96px)}10.13%{transform:translate(80px,96px)}12.27%{transform:translate(192px,80px)}12.53%{transform:translate(192px,64px)}14.4%{transform:translate(304px,64px)}14.67%{transform:translate(304px,48px)}15.2%{transform:translate(336px,48px)}15.73%{transform:translate(336px,80px)}16.8%{transform:translate(400px,80px)}18.13%{transform:translate(400px,0px)}18.4%{transform:translate(384px,0px)}18.67%{transform:translate(384px,16px)}20%{transform:translate(464px,16px)}20.27%{transform:translate(464px,32px)}20.53%{transform:translate(480px,32px)}21.07%{transform:translate(480px,64px)}21.87%{transform:translate(432px,64px)}22.4%{transform:translate(432px,96px)}24.53%{transform:translate(560px,96px)}25.07%{transform:translate(560px,64px)}25.33%{transform:translate(544px,64px)}26.4%{transform:translate(544px,0px)}27.47%{transform:translate(480px,0px)}27.73%{transform:translate(480px,-16px)}30.67%{transform:translate(656px,-16px)}31.2%{transform:translate(656px,16px)}34.13%{transform:translate(832px,16px)}34.4%{transform:translate(832px,0px)}35.47%,84.53%{transform:translate(768px,0px)}36%,38.67%{transform:translate(768px,32px)}36.8%{transform:translate(816px,32px)}37.07%{transform:translate(816px,48px)}38.13%{transform:translate(752px,48px)}38.4%,83.73%{transform:translate(752px,32px)}39.2%{transform:translate(768px,64px)}40%,42.67%{transform:translate(816px,64px)}40.27%{transform:translate(816px,80px)}41.07%{transform:translate(768px,80px)}41.33%,50.4%{transform:translate(768px,96px)}42.13%{transform:translate(816px,96px)}44.27%{transform:translate(720px,64px)}44.8%{transform:translate(720px,32px)}45.07%{transform:translate(704px,32px)}45.33%,54.93%{transform:translate(704px,48px)}45.6%,53.6%,56.8%{transform:translate(720px,48px)}46.13%,48.8%{transform:translate(720px,80px)}46.67%{transform:translate(688px,80px)}46.93%{transform:translate(688px,64px)}47.47%{transform:translate(656px,64px)}47.73%{transform:translate(656px,80px)}49.33%,58.4%{transform:translate(720px,112px)}49.87%{transform:translate(752px,112px)}50.13%{transform:translate(752px,96px)}51.73%,84.8%{transform:translate(768px,16px)}52.27%{transform:translate(736px,16px)}52.53%{transform:translate(736px,0px)}52.8%{transform:translate(720px,0px)}53.87%{transform:translate(736px,48px)}54.13%{transform:translate(736px,64px)}54.67%{transform:translate(704px,64px)}55.2%{transform:translate(688px,48px)}55.47%{transform:translate(688px,32px)}55.73%{transform:translate(672px,32px)}56%{transform:translate(672px,48px)}57.6%{transform:translate(720px,96px)}57.87%,82.4%{transform:translate(736px,96px)}58.13%{transform:translate(736px,112px)}60%{transform:translate(720px,16px)}66.67%{transform:translate(320px,16px)}66.93%{transform:translate(320px,32px)}69.87%{transform:translate(144px,32px)}70.13%{transform:translate(144px,48px)}70.93%,97.6%{transform:translate(96px,48px)}71.73%{transform:translate(96px,96px)}83.47%{transform:translate(736px,32px)}84.27%{transform:translate(752px,0px)}85.07%{transform:translate(752px,16px)}86.13%{transform:translate(752px,80px)}96.53%{transform:translate(128px,80px)}96.8%{transform:translate(128px,64px)}97.87%{transform:translate(80px,48px)}98.4%{transform:translate(64px,32px)}99.2%{transform:translate(64px,-16px)}}.s.s2{transform:translate(32px,-16px);animation-name:s2}@keyframes s3{0%,99.73%{transform:translate(48px,-16px)}0.8%{transform:translate(0px,-16px)}1.07%{transform:translate(0px,0px)}2.93%{transform:translate(112px,0px)}3.2%{transform:translate(112px,16px)}3.73%{transform:translate(144px,16px)}4%{transform:translate(144px,0px)}4.27%{transform:translate(160px,0px)}5.33%{transform:translate(160px,64px)}6.4%,97.6%{transform:translate(96px,64px)}6.67%{transform:translate(96px,80px)}6.93%,10.67%{transform:translate(80px,80px)}7.73%,98.4%{transform:translate(80px,32px)}8.53%{transform:translate(32px,32px)}9.6%{transform:translate(32px,96px)}10.4%{transform:translate(80px,96px)}12.53%{transform:translate(192px,80px)}12.8%{transform:translate(192px,64px)}14.67%{transform:translate(304px,64px)}14.93%{transform:translate(304px,48px)}15.47%{transform:translate(336px,48px)}16%{transform:translate(336px,80px)}17.07%{transform:translate(400px,80px)}18.4%{transform:translate(400px,0px)}18.67%{transform:translate(384px,0px)}18.93%{transform:translate(384px,16px)}20.27%{transform:translate(464px,16px)}20.53%{transform:translate(464px,32px)}20.8%{transform:translate(480px,32px)}21.33%{transform:translate(480px,64px)}22.13%{transform:translate(432px,64px)}22.67%{transform:translate(432px,96px)}24.8%{transform:translate(560px,96px)}25.33%{transform:translate(560px,64px)}25.6%{transform:translate(544px,64px)}26.67%{transform:translate(544px,0px)}27.73%{transform:translate(480px,0px)}28%{transform:translate(480px,-16px)}30.93%{transform:translate(656px,-16px)}31.47%{transform:translate(656px,16px)}34.4%{transform:translate(832px,16px)}34.67%{transform:translate(832px,0px)}35.73%,84.8%{transform:translate(768px,0px)}36.27%,38.93%{transform:translate(768px,32px)}37.07%{transform:translate(816px,32px)}37.33%{transform:translate(816px,48px)}38.4%{transform:translate(752px,48px)}38.67%,84%{transform:translate(752px,32px)}39.47%{transform:translate(768px,64px)}40.27%,42.93%{transform:translate(816px,64px)}40.53%{transform:translate(816px,80px)}41.33%{transform:translate(768px,80px)}41.6%,50.67%{transform:translate(768px,96px)}42.4%{transform:translate(816px,96px)}44.53%{transform:translate(720px,64px)}45.07%{transform:translate(720px,32px)}45.33%{transform:translate(704px,32px)}45.6%,55.2%{transform:translate(704px,48px)}45.87%,53.87%,57.07%{transform:translate(720px,48px)}46.4%,49.07%{transform:translate(720px,80px)}46.93%{transform:translate(688px,80px)}47.2%{transform:translate(688px,64px)}47.73%{transform:translate(656px,64px)}48%{transform:translate(656px,80px)}49.6%,58.67%{transform:translate(720px,112px)}50.13%{transform:translate(752px,112px)}50.4%{transform:translate(752px,96px)}52%,85.07%{transform:translate(768px,16px)}52.53%{transform:translate(736px,16px)}52.8%{transform:translate(736px,0px)}53.07%{transform:translate(720px,0px)}54.13%{transform:translate(736px,48px)}54.4%{transform:translate(736px,64px)}54.93%{transform:translate(704px,64px)}55.47%{transform:translate(688px,48px)}55.73%{transform:translate(688px,32px)}56%{transform:translate(672px,32px)}56.27%{transform:translate(672px,48px)}57.87%{transform:translate(720px,96px)}58.13%,82.67%{transform:translate(736px,96px)}58.4%{transform:translate(736px,112px)}60.27%{transform:translate(720px,16px)}66.93%{transform:translate(320px,16px)}67.2%{transform:translate(320px,32px)}70.13%{transform:translate(144px,32px)}70.4%{transform:translate(144px,48px)}71.2%,97.87%{transform:translate(96px,48px)}72%{transform:translate(96px,96px)}83.73%{transform:translate(736px,32px)}84.53%{transform:translate(752px,0px)}85.33%{transform:translate(752px,16px)}86.4%{transform:translate(752px,80px)}96.8%{transform:translate(128px,80px)}97.07%{transform:translate(128px,64px)}98.13%{transform:translate(80px,48px)}98.67%{transform:translate(64px,32px)}99.47%{transform:translate(64px,-16px)}}.s.s3{transform:translate(48px,-16px);animation-name:s3}</style><rect class="c" x="2" y="2" rx="2" ry="2"/><rect class="c" x="2" y="18" rx="2" ry="2"/><rect class="c" x="2" y="34" rx="2" ry="2"/><rect class="c" x="2" y="50" rx="2" ry="2"/><rect class="c" x="2" y="66" rx="2" ry="2"/><rect class="c" x="2" y="82" rx="2" ry="2"/><rect class="c" x="2" y="98" rx="2" ry="2"/><rect class="c" x="18" y="2" rx="2" ry="2"/><rect class="c" x="18" y="18" rx="2" ry="2"/><rect class="c" x="18" y="34" rx="2" ry="2"/><rect class="c" x="18" y="50" rx="2" ry="2"/><rect class="c" x="18" y="66" rx="2" ry="2"/><rect class="c" x="18" y="82" rx="2" ry="2"/><rect class="c" x="18" y="98" rx="2" ry="2"/><rect class="c" x="34" y="2" rx="2" ry="2"/><rect class="c" x="34" y="18" rx="2" ry="2"/><rect class="c" x="34" y="34" rx="2" ry="2"/><rect class="c" x="34" y="50" rx="2" ry="2"/><rect class="c" x="34" y="66" rx="2" ry="2"/><rect class="c" x="34" y="82" rx="2" ry="2"/><rect class="c c0" x="34" y="98" rx="2" ry="2"/><rect class="c" x="50" y="2" rx="2" ry="2"/><rect class="c" x="50" y="18" rx="2" ry="2"/><rect class="c" x="50" y="34" rx="2" ry="2"/><rect class="c" x="50" y="50" rx="2" ry="2"/><rect class="c" x="50" y="66" rx="2" ry="2"/><rect class="c" x="50" y="82" rx="2" ry="2"/><rect class="c" x="50" y="98" rx="2" ry="2"/><rect class="c" x="66" y="2" rx="2" ry="2"/><rect class="c" x="66" y="18" rx="2" ry="2"/><rect class="c" x="66" y="34" rx="2" ry="2"/><rect class="c" x="66" y="50" rx="2" ry="2"/><rect class="c" x="66" y="66" rx="2" ry="2"/><rect class="c" x="66" y="82" rx="2" ry="2"/><rect class="c" x="66" y="98" rx="2" ry="2"/><rect class="c c1" x="82" y="2" rx="2" ry="2"/><rect class="c" x="82" y="18" rx="2" ry="2"/><rect class="c c2" x="82" y="34" rx="2" ry="2"/><rect class="c" x="82" y="50" rx="2" ry="2"/><rect class="c" x="82" y="66" rx="2" ry="2"/><rect class="c" x="82" y="82" rx="2" ry="2"/><rect class="c" x="82" y="98" rx="2" ry="2"/><rect class="c" x="98" y="2" rx="2" ry="2"/><rect class="c" x="98" y="18" rx="2" ry="2"/><rect class="c" x="98" y="34" rx="2" ry="2"/><rect class="c" x="98" y="50" rx="2" ry="2"/><rect class="c" x="98" y="66" rx="2" ry="2"/><rect class="c c3" x="98" y="82" rx="2" ry="2"/><rect class="c c4" x="98" y="98" rx="2" ry="2"/><rect class="c c5" x="114" y="2" rx="2" ry="2"/><rect class="c c6" x="114" y="18" rx="2" ry="2"/><rect class="c" x="114" y="34" rx="2" ry="2"/><rect class="c" x="114" y="50" rx="2" ry="2"/><rect class="c" x="114" y="66" rx="2" ry="2"/><rect class="c" x="114" y="82" rx="2" ry="2"/><rect class="c" x="114" y="98" rx="2" ry="2"/><rect class="c" x="130" y="2" rx="2" ry="2"/><rect class="c" x="130" y="18" rx="2" ry="2"/><rect class="c" x="130" y="34" rx="2" ry="2"/><rect class="c" x="130" y="50" rx="2" ry="2"/><rect class="c" x="130" y="66" rx="2" ry="2"/><rect class="c" x="130" y="82" rx="2" ry="2"/><rect class="c" x="130" y="98" rx="2" ry="2"/><rect class="c c7" x="146" y="2" rx="2" ry="2"/><rect class="c c8" x="146" y="18" rx="2" ry="2"/><rect class="c" x="146" y="34" rx="2" ry="2"/><rect class="c c9" x="146" y="50" rx="2" ry="2"/><rect class="c ca" x="146" y="66" rx="2" ry="2"/><rect class="c" x="146" y="82" rx="2" ry="2"/><rect class="c" x="146" y="98" rx="2" ry="2"/><rect class="c" x="162" y="2" rx="2" ry="2"/><rect class="c" x="162" y="18" rx="2" ry="2"/><rect class="c" x="162" y="34" rx="2" ry="2"/><rect class="c" x="162" y="50" rx="2" ry="2"/><rect class="c" x="162" y="66" rx="2" ry="2"/><rect class="c" x="162" y="82" rx="2" ry="2"/><rect class="c" x="162" y="98" rx="2" ry="2"/><rect class="c" x="178" y="2" rx="2" ry="2"/><rect class="c" x="178" y="18" rx="2" ry="2"/><rect class="c" x="178" y="34" rx="2" ry="2"/><rect class="c" x="178" y="50" rx="2" ry="2"/><rect class="c" x="178" y="66" rx="2" ry="2"/><rect class="c" x="178" y="82" rx="2" ry="2"/><rect class="c" x="178" y="98" rx="2" ry="2"/><rect class="c" x="194" y="2" rx="2" ry="2"/><rect class="c" x="194" y="18" rx="2" ry="2"/><rect class="c" x="194" y="34" rx="2" ry="2"/><rect class="c" x="194" y="50" rx="2" ry="2"/><rect class="c cb" x="194" y="66" rx="2" ry="2"/><rect class="c cc" x="194" y="82" rx="2" ry="2"/><rect class="c" x="194" y="98" rx="2" ry="2"/><rect class="c" x="210" y="2" rx="2" ry="2"/><rect class="c" x="210" y="18" rx="2" ry="2"/><rect class="c" x="210" y="34" rx="2" ry="2"/><rect class="c" x="210" y="50" rx="2" ry="2"/><rect class="c" x="210" y="66" rx="2" ry="2"/><rect class="c" x="210" y="82" rx="2" ry="2"/><rect class="c" x="210" y="98" rx="2" ry="2"/><rect class="c" x="226" y="2" rx="2" ry="2"/><rect class="c" x="226" y="18" rx="2" ry="2"/><rect class="c" x="226" y="34" rx="2" ry="2"/><rect class="c" x="226" y="50" rx="2" ry="2"/><rect class="c" x="226" y="66" rx="2" ry="2"/><rect class="c" x="226" y="82" rx="2" ry="2"/><rect class="c" x="226" y="98" rx="2" ry="2"/><rect class="c" x="242" y="2" rx="2" ry="2"/><rect class="c" x="242" y="18" rx="2" ry="2"/><rect class="c" x="242" y="34" rx="2" ry="2"/><rect class="c" x="242" y="50" rx="2" ry="2"/><rect class="c" x="242" y="66" rx="2" ry="2"/><rect class="c" x="242" y="82" rx="2" ry="2"/><rect class="c" x="242" y="98" rx="2" ry="2"/><rect class="c" x="258" y="2" rx="2" ry="2"/><rect class="c" x="258" y="18" rx="2" ry="2"/><rect class="c" x="258" y="34" rx="2" ry="2"/><rect class="c" x="258" y="50" rx="2" ry="2"/><rect class="c" x="258" y="66" rx="2" ry="2"/><rect class="c" x="258" y="82" rx="2" ry="2"/><rect class="c" x="258" y="98" rx="2" ry="2"/><rect class="c" x="274" y="2" rx="2" ry="2"/><rect class="c" x="274" y="18" rx="2" ry="2"/><rect class="c" x="274" y="34" rx="2" ry="2"/><rect class="c" x="274" y="50" rx="2" ry="2"/><rect class="c" x="274" y="66" rx="2" ry="2"/><rect class="c" x="274" y="82" rx="2" ry="2"/><rect class="c" x="274" y="98" rx="2" ry="2"/><rect class="c" x="290" y="2" rx="2" ry="2"/><rect class="c" x="290" y="18" rx="2" ry="2"/><rect class="c" x="290" y="34" rx="2" ry="2"/><rect class="c" x="290" y="50" rx="2" ry="2"/><rect class="c" x="290" y="66" rx="2" ry="2"/><rect class="c" x="290" y="82" rx="2" ry="2"/><rect class="c" x="290" y="98" rx="2" ry="2"/><rect class="c" x="306" y="2" rx="2" ry="2"/><rect class="c" x="306" y="18" rx="2" ry="2"/><rect class="c" x="306" y="34" rx="2" ry="2"/><rect class="c cd" x="306" y="50" rx="2" ry="2"/><rect class="c" x="306" y="66" rx="2" ry="2"/><rect class="c" x="306" y="82" rx="2" ry="2"/><rect class="c" x="306" y="98" rx="2" ry="2"/><rect class="c" x="322" y="2" rx="2" ry="2"/><rect class="c" x="322" y="18" rx="2" ry="2"/><rect class="c ce" x="322" y="34" rx="2" ry="2"/><rect class="c cf" x="322" y="50" rx="2" ry="2"/><rect class="c" x="322" y="66" rx="2" ry="2"/><rect class="c" x="322" y="82" rx="2" ry="2"/><rect class="c" x="322" y="98" rx="2" ry="2"/><rect class="c" x="338" y="2" rx="2" ry="2"/><rect class="c" x="338" y="18" rx="2" ry="2"/><rect class="c" x="338" y="34" rx="2" ry="2"/><rect class="c" x="338" y="50" rx="2" ry="2"/><rect class="c" x="338" y="66" rx="2" ry="2"/><rect class="c cg" x="338" y="82" rx="2" ry="2"/><rect class="c" x="338" y="98" rx="2" ry="2"/><rect class="c" x="354" y="2" rx="2" ry="2"/><rect class="c" x="354" y="18" rx="2" ry="2"/><rect class="c" x="354" y="34" rx="2" ry="2"/><rect class="c" x="354" y="50" rx="2" ry="2"/><rect class="c" x="354" y="66" rx="2" ry="2"/><rect class="c" x="354" y="82" rx="2" ry="2"/><rect class="c" x="354" y="98" rx="2" ry="2"/><rect class="c" x="370" y="2" rx="2" ry="2"/><rect class="c" x="370" y="18" rx="2" ry="2"/><rect class="c" x="370" y="34" rx="2" ry="2"/><rect class="c" x="370" y="50" rx="2" ry="2"/><rect class="c" x="370" y="66" rx="2" ry="2"/><rect class="c ch" x="370" y="82" rx="2" ry="2"/><rect class="c" x="370" y="98" rx="2" ry="2"/><rect class="c ci" x="386" y="2" rx="2" ry="2"/><rect class="c" x="386" y="18" rx="2" ry="2"/><rect class="c" x="386" y="34" rx="2" ry="2"/><rect class="c" x="386" y="50" rx="2" ry="2"/><rect class="c" x="386" y="66" rx="2" ry="2"/><rect class="c cj" x="386" y="82" rx="2" ry="2"/><rect class="c" x="386" y="98" rx="2" ry="2"/><rect class="c ck" x="402" y="2" rx="2" ry="2"/><rect class="c cl" x="402" y="18" rx="2" ry="2"/><rect class="c" x="402" y="34" rx="2" ry="2"/><rect class="c cm" x="402" y="50" rx="2" ry="2"/><rect class="c" x="402" y="66" rx="2" ry="2"/><rect class="c" x="402" y="82" rx="2" ry="2"/><rect class="c" x="402" y="98" rx="2" ry="2"/><rect class="c" x="418" y="2" rx="2" ry="2"/><rect class="c" x="418" y="18" rx="2" ry="2"/><rect class="c" x="418" y="34" rx="2" ry="2"/><rect class="c" x="418" y="50" rx="2" ry="2"/><rect class="c" x="418" y="66" rx="2" ry="2"/><rect class="c" x="418" y="82" rx="2" ry="2"/><rect class="c" x="418" y="98" rx="2" ry="2"/><rect class="c" x="434" y="2" rx="2" ry="2"/><rect class="c" x="434" y="18" rx="2" ry="2"/><rect class="c" x="434" y="34" rx="2" ry="2"/><rect class="c" x="434" y="50" rx="2" ry="2"/><rect class="c cn" x="434" y="66" rx="2" ry="2"/><rect class="c" x="434" y="82" rx="2" ry="2"/><rect class="c co" x="434" y="98" rx="2" ry="2"/><rect class="c" x="450" y="2" rx="2" ry="2"/><rect class="c" x="450" y="18" rx="2" ry="2"/><rect class="c" x="450" y="34" rx="2" ry="2"/><rect class="c" x="450" y="50" rx="2" ry="2"/><rect class="c cp" x="450" y="66" rx="2" ry="2"/><rect class="c" x="450" y="82" rx="2" ry="2"/><rect class="c" x="450" y="98" rx="2" ry="2"/><rect class="c" x="466" y="2" rx="2" ry="2"/><rect class="c" x="466" y="18" rx="2" ry="2"/><rect class="c cq" x="466" y="34" rx="2" ry="2"/><rect class="c" x="466" y="50" rx="2" ry="2"/><rect class="c" x="466" y="66" rx="2" ry="2"/><rect class="c" x="466" y="82" rx="2" ry="2"/><rect class="c" x="466" y="98" rx="2" ry="2"/><rect class="c cr" x="482" y="2" rx="2" ry="2"/><rect class="c cs" x="482" y="18" rx="2" ry="2"/><rect class="c" x="482" y="34" rx="2" ry="2"/><rect class="c" x="482" y="50" rx="2" ry="2"/><rect class="c ct" x="482" y="66" rx="2" ry="2"/><rect class="c" x="482" y="82" rx="2" ry="2"/><rect class="c" x="482" y="98" rx="2" ry="2"/><rect class="c" x="498" y="2" rx="2" ry="2"/><rect class="c" x="498" y="18" rx="2" ry="2"/><rect class="c" x="498" y="34" rx="2" ry="2"/><rect class="c" x="498" y="50" rx="2" ry="2"/><rect class="c" x="498" y="66" rx="2" ry="2"/><rect class="c" x="498" y="82" rx="2" ry="2"/><rect class="c" x="498" y="98" rx="2" ry="2"/><rect class="c" x="514" y="2" rx="2" ry="2"/><rect class="c" x="514" y="18" rx="2" ry="2"/><rect class="c" x="514" y="34" rx="2" ry="2"/><rect class="c" x="514" y="50" rx="2" ry="2"/><rect class="c" x="514" y="66" rx="2" ry="2"/><rect class="c" x="514" y="82" rx="2" ry="2"/><rect class="c" x="514" y="98" rx="2" ry="2"/><rect class="c" x="530" y="2" rx="2" ry="2"/><rect class="c" x="530" y="18" rx="2" ry="2"/><rect class="c" x="530" y="34" rx="2" ry="2"/><rect class="c" x="530" y="50" rx="2" ry="2"/><rect class="c" x="530" y="66" rx="2" ry="2"/><rect class="c" x="530" y="82" rx="2" ry="2"/><rect class="c" x="530" y="98" rx="2" ry="2"/><rect class="c" x="546" y="2" rx="2" ry="2"/><rect class="c" x="546" y="18" rx="2" ry="2"/><rect class="c" x="546" y="34" rx="2" ry="2"/><rect class="c" x="546" y="50" rx="2" ry="2"/><rect class="c cu" x="546" y="66" rx="2" ry="2"/><rect class="c" x="546" y="82" rx="2" ry="2"/><rect class="c" x="546" y="98" rx="2" ry="2"/><rect class="c" x="562" y="2" rx="2" ry="2"/><rect class="c" x="562" y="18" rx="2" ry="2"/><rect class="c" x="562" y="34" rx="2" ry="2"/><rect class="c" x="562" y="50" rx="2" ry="2"/><rect class="c" x="562" y="66" rx="2" ry="2"/><rect class="c cv" x="562" y="82" rx="2" ry="2"/><rect class="c" x="562" y="98" rx="2" ry="2"/><rect class="c" x="578" y="2" rx="2" ry="2"/><rect class="c" x="578" y="18" rx="2" ry="2"/><rect class="c" x="578" y="34" rx="2" ry="2"/><rect class="c" x="578" y="50" rx="2" ry="2"/><rect class="c" x="578" y="66" rx="2" ry="2"/><rect class="c" x="578" y="82" rx="2" ry="2"/><rect class="c" x="578" y="98" rx="2" ry="2"/><rect class="c" x="594" y="2" rx="2" ry="2"/><rect class="c" x="594" y="18" rx="2" ry="2"/><rect class="c" x="594" y="34" rx="2" ry="2"/><rect class="c" x="594" y="50" rx="2" ry="2"/><rect class="c" x="594" y="66" rx="2" ry="2"/><rect class="c" x="594" y="82" rx="2" ry="2"/><rect class="c" x="594" y="98" rx="2" ry="2"/><rect class="c" x="610" y="2" rx="2" ry="2"/><rect class="c" x="610" y="18" rx="2" ry="2"/><rect class="c" x="610" y="34" rx="2" ry="2"/><rect class="c" x="610" y="50" rx="2" ry="2"/><rect class="c" x="610" y="66" rx="2" ry="2"/><rect class="c" x="610" y="82" rx="2" ry="2"/><rect class="c" x="610" y="98" rx="2" ry="2"/><rect class="c" x="626" y="2" rx="2" ry="2"/><rect class="c" x="626" y="18" rx="2" ry="2"/><rect class="c" x="626" y="34" rx="2" ry="2"/><rect class="c" x="626" y="50" rx="2" ry="2"/><rect class="c" x="626" y="66" rx="2" ry="2"/><rect class="c" x="626" y="82" rx="2" ry="2"/><rect class="c" x="626" y="98" rx="2" ry="2"/><rect class="c" x="642" y="2" rx="2" ry="2"/><rect class="c" x="642" y="18" rx="2" ry="2"/><rect class="c" x="642" y="34" rx="2" ry="2"/><rect class="c" x="642" y="50" rx="2" ry="2"/><rect class="c" x="642" y="66" rx="2" ry="2"/><rect class="c" x="642" y="82" rx="2" ry="2"/><rect class="c" x="642" y="98" rx="2" ry="2"/><rect class="c" x="658" y="2" rx="2" ry="2"/><rect class="c cw" x="658" y="18" rx="2" ry="2"/><rect class="c" x="658" y="34" rx="2" ry="2"/><rect class="c" x="658" y="50" rx="2" ry="2"/><rect class="c cx" x="658" y="66" rx="2" ry="2"/><rect class="c cy" x="658" y="82" rx="2" ry="2"/><rect class="c" x="658" y="98" rx="2" ry="2"/><rect class="c" x="674" y="2" rx="2" ry="2"/><rect class="c cz" x="674" y="18" rx="2" ry="2"/><rect class="c c10" x="674" y="34" rx="2" ry="2"/><rect class="c" x="674" y="50" rx="2" ry="2"/><rect class="c" x="674" y="66" rx="2" ry="2"/><rect class="c" x="674" y="82" rx="2" ry="2"/><rect class="c" x="674" y="98" rx="2" ry="2"/><rect class="c" x="690" y="2" rx="2" ry="2"/><rect class="c c11" x="690" y="18" rx="2" ry="2"/><rect class="c" x="690" y="34" rx="2" ry="2"/><rect class="c c12" x="690" y="50" rx="2" ry="2"/><rect class="c c13" x="690" y="66" rx="2" ry="2"/><rect class="c" x="690" y="82" rx="2" ry="2"/><rect class="c" x="690" y="98" rx="2" ry="2"/><rect class="c" x="706" y="2" rx="2" ry="2"/><rect class="c" x="706" y="18" rx="2" ry="2"/><rect class="c c14" x="706" y="34" rx="2" ry="2"/><rect class="c c15" x="706" y="50" rx="2" ry="2"/><rect class="c c16" x="706" y="66" rx="2" ry="2"/><rect class="c c17" x="706" y="82" rx="2" ry="2"/><rect class="c" x="706" y="98" rx="2" ry="2"/><rect class="c" x="722" y="2" rx="2" ry="2"/><rect class="c c18" x="722" y="18" rx="2" ry="2"/><rect class="c c19" x="722" y="34" rx="2" ry="2"/><rect class="c c1a" x="722" y="50" rx="2" ry="2"/><rect class="c" x="722" y="66" rx="2" ry="2"/><rect class="c c1b" x="722" y="82" rx="2" ry="2"/><rect class="c" x="722" y="98" rx="2" ry="2"/><rect class="c c1c" x="738" y="2" rx="2" ry="2"/><rect class="c c1d" x="738" y="18" rx="2" ry="2"/><rect class="c c1e" x="738" y="34" rx="2" ry="2"/><rect class="c c1f" x="738" y="50" rx="2" ry="2"/><rect class="c c1g" x="738" y="66" rx="2" ry="2"/><rect class="c c1h" x="738" y="82" rx="2" ry="2"/><rect class="c c1i" x="738" y="98" rx="2" ry="2"/><rect class="c c1j" x="754" y="2" rx="2" ry="2"/><rect class="c c1k" x="754" y="18" rx="2" ry="2"/><rect class="c c1l" x="754" y="34" rx="2" ry="2"/><rect class="c c1m" x="754" y="50" rx="2" ry="2"/><rect class="c c1n" x="754" y="66" rx="2" ry="2"/><rect class="c c1o" x="754" y="82" rx="2" ry="2"/><rect class="c c1p" x="754" y="98" rx="2" ry="2"/><rect class="c c1q" x="770" y="2" rx="2" ry="2"/><rect class="c c1r" x="770" y="18" rx="2" ry="2"/><rect class="c c1s" x="770" y="34" rx="2" ry="2"/><rect class="c c1t" x="770" y="50" rx="2" ry="2"/><rect class="c c1u" x="770" y="66" rx="2" ry="2"/><rect class="c c1v" x="770" y="82" rx="2" ry="2"/><rect class="c c1w" x="770" y="98" rx="2" ry="2"/><rect class="c c1x" x="786" y="2" rx="2" ry="2"/><rect class="c c1y" x="786" y="18" rx="2" ry="2"/><rect class="c c1z" x="786" y="34" rx="2" ry="2"/><rect class="c c20" x="786" y="50" rx="2" ry="2"/><rect class="c c21" x="786" y="66" rx="2" ry="2"/><rect class="c c22" x="786" y="82" rx="2" ry="2"/><rect class="c c23" x="786" y="98" rx="2" ry="2"/><rect class="c c24" x="802" y="2" rx="2" ry="2"/><rect class="c c25" x="802" y="18" rx="2" ry="2"/><rect class="c c26" x="802" y="34" rx="2" ry="2"/><rect class="c c27" x="802" y="50" rx="2" ry="2"/><rect class="c c28" x="802" y="66" rx="2" ry="2"/><rect class="c c29" x="802" y="82" rx="2" ry="2"/><rect class="c c2a" x="802" y="98" rx="2" ry="2"/><rect class="c c2b" x="818" y="2" rx="2" ry="2"/><rect class="c c2c" x="818" y="18" rx="2" ry="2"/><rect class="c c2d" x="818" y="34" rx="2" ry="2"/><rect class="c c2e" x="818" y="50" rx="2" ry="2"/><rect class="c c2f" x="818" y="66" rx="2" ry="2"/><rect class="c c2g" x="818" y="82" rx="2" ry="2"/><rect class="c c2h" x="818" y="98" rx="2" ry="2"/><rect class="c c2i" x="834" y="2" rx="2" ry="2"/><rect class="c c2j" x="834" y="18" rx="2" ry="2"/><rect class="u u0" height="12" width="728.8" x="0.0" y="144"/><rect class="u u1" height="12" width="83.6" x="728.2" y="144"/><rect class="u u2" height="12" width="19.0" x="811.1" y="144"/><rect class="u u3" height="12" width="19.0" x="829.6" y="144"/><rect class="s s0" x="0.8" y="0.8" width="14.4" height="14.4" rx="4.5" ry="4.5"/><rect class="s s1" x="1.8" y="1.8" width="12.3" height="12.3" rx="4.1" ry="4.1"/><rect class="s s2" x="2.6" y="2.6" width="10.8" height="10.8" rx="3.6" ry="3.6"/><rect class="s s3" x="3.0" y="3.0" width="9.9" height="9.9" rx="3.3" ry="3.3"/></svg>