<svg viewBox="-16 -32 880 192" width="880" height="192" xmlns="http://www.w3.org/2000/svg"><desc>Generated with https://github.com/Platane/snk</desc><style>:root{--cb:#1b1f230a;--cs:white;--ce:#0a0e12;--c0:#0a0e12;--c1:#1445a2;--c2:#1d65ee;--c3:#1f4eff;--c4:#466dff}.c{shape-rendering:geometricPrecision;fill:var(--ce);stroke-width:1px;stroke:var(--cb);animation:none 35700ms linear infinite;width:12px;height:12px}@keyframes c0{96.91%{fill:var(--c4)}96.93%,100%{fill:var(--ce)}}.c.c0{fill:var(--c4);animation-name:c0}@keyframes c1{2.79%{fill:var(--c1)}2.81%,100%{fill:var(--ce)}}.c.c1{fill:var(--c1);animation-name:c1}@keyframes c2{60.77%{fill:var(--c2)}60.79%,100%{fill:var(--ce)}}.c.c2{fill:var(--c2);animation-name:c2}@keyframes c3{3.91%{fill:var(--c1)}3.93%,100%{fill:var(--ce)}}.c.c3{fill:var(--c1);animation-name:c3}@keyframes c4{93.27%{fill:var(--c3)}93.29%,100%{fill:var(--ce)}}.c.c4{fill:var(--c3);animation-name:c4}@keyframes c5{60.21%{fill:var(--c2)}60.23%,100%{fill:var(--ce)}}.c.c5{fill:var(--c2);animation-name:c5}@keyframes c6{94.95%{fill:var(--c4)}94.97%,100%{fill:var(--ce)}}.c.c6{fill:var(--c4);animation-name:c6}@keyframes c7{1.39%{fill:var(--c1)}1.41%,100%{fill:var(--ce)}}.c.c7{fill:var(--c1);animation-name:c7}@keyframes c8{92.99%{fill:var(--c3)}93.01%,100%{fill:var(--ce)}}.c.c8{fill:var(--c3);animation-name:c8}@keyframes c9{93.83%{fill:var(--c4)}93.85%,100%{fill:var(--ce)}}.c.c9{fill:var(--c4);animation-name:c9}@keyframes ca{6.15%{fill:var(--c1)}6.17%,100%{fill:var(--ce)}}.c.ca{fill:var(--c1);animation-name:ca}@keyframes cb{5.87%{fill:var(--c1)}5.89%,100%{fill:var(--ce)}}.c.cb{fill:var(--c1);animation-name:cb}@keyframes cc{94.67%{fill:var(--c4)}94.69%,100%{fill:var(--ce)}}.c.cc{fill:var(--c4);animation-name:cc}@keyframes cd{98.31%{fill:var(--c4)}98.33%,100%{fill:var(--ce)}}.c.cd{fill:var(--c4);animation-name:cd}@keyframes ce{56.01%{fill:var(--c2)}56.03%,100%{fill:var(--ce)}}.c.ce{fill:var(--c2);animation-name:ce}@keyframes cf{5.31%{fill:var(--c1)}5.33%,100%{fill:var(--ce)}}.c.cf{fill:var(--c1);animation-name:cf}@keyframes cg{91.87%{fill:var(--c3)}91.89%,100%{fill:var(--ce)}}.c.cg{fill:var(--c3);animation-name:cg}@keyframes ch{55.73%{fill:var(--c2)}55.75%,100%{fill:var(--ce)}}.c.ch{fill:var(--c2);animation-name:ch}@keyframes ci{55.17%{fill:var(--c2)}55.19%,100%{fill:var(--ce)}}.c.ci{fill:var(--c2);animation-name:ci}@keyframes cj{54.89%{fill:var(--c2)}54.91%,100%{fill:var(--ce)}}.c.cj{fill:var(--c2);animation-name:cj}@keyframes ck{54.33%{fill:var(--c2)}54.35%,100%{fill:var(--ce)}}.c.ck{fill:var(--c2);animation-name:ck}@keyframes cl{57.41%{fill:var(--c2)}57.43%,100%{fill:var(--ce)}}.c.cl{fill:var(--c2);animation-name:cl}@keyframes cm{90.75%{fill:var(--c3)}90.77%,100%{fill:var(--ce)}}.c.cm{fill:var(--c3);animation-name:cm}@keyframes cn{90.47%{fill:var(--c3)}90.49%,100%{fill:var(--ce)}}.c.cn{fill:var(--c3);animation-name:cn}@keyframes co{8.39%{fill:var(--c1)}8.41%,100%{fill:var(--ce)}}.c.co{fill:var(--c1);animation-name:co}@keyframes cp{17.64%{fill:var(--c1)}17.66%,100%{fill:var(--ce)}}.c.cp{fill:var(--c1);animation-name:cp}@keyframes cq{9.51%{fill:var(--c1)}9.53%,100%{fill:var(--ce)}}.c.cq{fill:var(--c1);animation-name:cq}@keyframes cr{9.79%{fill:var(--c1)}9.81%,100%{fill:var(--ce)}}.c.cr{fill:var(--c1);animation-name:cr}@keyframes cs{17.36%{fill:var(--c1)}17.38%,100%{fill:var(--ce)}}.c.cs{fill:var(--c1);animation-name:cs}@keyframes ct{10.07%{fill:var(--c1)}10.09%,100%{fill:var(--ce)}}.c.ct{fill:var(--c1);animation-name:ct}@keyframes cu{11.19%{fill:var(--c1)}11.21%,100%{fill:var(--ce)}}.c.cu{fill:var(--c1);animation-name:cu}@keyframes cv{14.84%{fill:var(--c1)}14.86%,100%{fill:var(--ce)}}.c.cv{fill:var(--c1);animation-name:cv}@keyframes cw{13.44%{fill:var(--c1)}13.46%,100%{fill:var(--ce)}}.c.cw{fill:var(--c1);animation-name:cw}@keyframes cx{14%{fill:var(--c1)}14.02%,100%{fill:var(--ce)}}.c.cx{fill:var(--c1);animation-name:cx}@keyframes cy{49.85%{fill:var(--c2)}49.87%,100%{fill:var(--ce)}}.c.cy{fill:var(--c2);animation-name:cy}@keyframes cz{50.13%{fill:var(--c2)}50.15%,100%{fill:var(--ce)}}.c.cz{fill:var(--c2);animation-name:cz}@keyframes c10{42.85%{fill:var(--c1)}42.87%,100%{fill:var(--ce)}}.c.c10{fill:var(--c1);animation-name:c10}@keyframes c11{45.93%{fill:var(--c2)}45.95%,100%{fill:var(--ce)}}.c.c11{fill:var(--c2);animation-name:c11}@keyframes c12{24.08%{fill:var(--c1)}24.1%,100%{fill:var(--ce)}}.c.c12{fill:var(--c1);animation-name:c12}@keyframes c13{44.25%{fill:var(--c2)}44.27%,100%{fill:var(--ce)}}.c.c13{fill:var(--c2);animation-name:c13}@keyframes c14{82.62%{fill:var(--c3)}82.64%,100%{fill:var(--ce)}}.c.c14{fill:var(--c3);animation-name:c14}@keyframes c15{25.2%{fill:var(--c1)}25.22%,100%{fill:var(--ce)}}.c.c15{fill:var(--c1);animation-name:c15}@keyframes c16{24.92%{fill:var(--c1)}24.94%,100%{fill:var(--ce)}}.c.c16{fill:var(--c1);animation-name:c16}@keyframes c17{25.76%{fill:var(--c1)}25.78%,100%{fill:var(--ce)}}.c.c17{fill:var(--c1);animation-name:c17}@keyframes c18{26.04%{fill:var(--c1)}26.06%,100%{fill:var(--ce)}}.c.c18{fill:var(--c1);animation-name:c18}@keyframes c19{80.94%{fill:var(--c3)}80.96%,100%{fill:var(--ce)}}.c.c19{fill:var(--c3);animation-name:c19}@keyframes c1a{27.44%{fill:var(--c1)}27.46%,100%{fill:var(--ce)}}.c.c1a{fill:var(--c1);animation-name:c1a}@keyframes c1b{28.84%{fill:var(--c1)}28.86%,100%{fill:var(--ce)}}.c.c1b{fill:var(--c1);animation-name:c1b}@keyframes c1c{28.56%{fill:var(--c1)}28.58%,100%{fill:var(--ce)}}.c.c1c{fill:var(--c1);animation-name:c1c}@keyframes c1d{31.08%{fill:var(--c1)}31.1%,100%{fill:var(--ce)}}.c.c1d{fill:var(--c1);animation-name:c1d}@keyframes c1e{74.22%{fill:var(--c2)}74.24%,100%{fill:var(--ce)}}.c.c1e{fill:var(--c2);animation-name:c1e}@keyframes c1f{31.36%{fill:var(--c1)}31.38%,100%{fill:var(--ce)}}.c.c1f{fill:var(--c1);animation-name:c1f}@keyframes c1g{32.2%{fill:var(--c1)}32.22%,100%{fill:var(--ce)}}.c.c1g{fill:var(--c1);animation-name:c1g}@keyframes c1h{32.76%{fill:var(--c1)}32.78%,100%{fill:var(--ce)}}.c.c1h{fill:var(--c1);animation-name:c1h}@keyframes c1i{35%{fill:var(--c1)}35.02%,100%{fill:var(--ce)}}.c.c1i{fill:var(--c1);animation-name:c1i}@keyframes c1j{76.18%{fill:var(--c2)}76.2%,100%{fill:var(--ce)}}.c.c1j{fill:var(--c2);animation-name:c1j}@keyframes c1k{34.72%{fill:var(--c1)}34.74%,100%{fill:var(--ce)}}.c.c1k{fill:var(--c1);animation-name:c1k}@keyframes c1l{34.44%{fill:var(--c1)}34.46%,100%{fill:var(--ce)}}.c.c1l{fill:var(--c1);animation-name:c1l}@keyframes c1m{33.88%{fill:var(--c1)}33.9%,100%{fill:var(--ce)}}.c.c1m{fill:var(--c1);animation-name:c1m}.u{transform-origin:0 0;transform:scale(0,1);animation:none linear 35700ms infinite}@keyframes u0{1.39%{transform:scale(0.000,1)}1.41%,2.79%{transform:scale(0.030,1)}2.81%,3.91%{transform:scale(0.061,1)}3.93%,5.31%{transform:scale(0.091,1)}5.33%,5.87%{transform:scale(0.121,1)}5.89%,6.15%{transform:scale(0.152,1)}6.17%,8.39%{transform:scale(0.182,1)}8.41%,9.51%{transform:scale(0.212,1)}9.53%,9.79%{transform:scale(0.242,1)}9.81%,10.07%{transform:scale(0.273,1)}10.09%,11.19%{transform:scale(0.303,1)}11.21%,13.44%{transform:scale(0.333,1)}13.46%,14%{transform:scale(0.364,1)}14.02%,14.84%{transform:scale(0.394,1)}14.86%,17.36%{transform:scale(0.424,1)}17.38%,17.64%{transform:scale(0.455,1)}17.66%,24.08%{transform:scale(0.485,1)}24.1%,24.92%{transform:scale(0.515,1)}24.94%,25.2%{transform:scale(0.545,1)}25.22%,25.76%{transform:scale(0.576,1)}25.78%,26.04%{transform:scale(0.606,1)}26.06%,27.44%{transform:scale(0.636,1)}27.46%,28.56%{transform:scale(0.667,1)}28.58%,28.84%{transform:scale(0.697,1)}28.86%,31.08%{transform:scale(0.727,1)}31.1%,31.36%{transform:scale(0.758,1)}31.38%,32.2%{transform:scale(0.788,1)}32.22%,32.76%{transform:scale(0.818,1)}32.78%,33.88%{transform:scale(0.848,1)}33.9%,34.44%{transform:scale(0.879,1)}34.46%,34.72%{transform:scale(0.909,1)}34.74%,35%{transform:scale(0.939,1)}35.02%,42.85%{transform:scale(0.970,1)}42.87%,100%{transform:scale(1.000,1)}}.u.u0{fill:var(--c1);animation-name:u0;transform-origin:0.0px 0}@keyframes u1{44.25%{transform:scale(0.000,1)}44.27%,45.93%{transform:scale(0.071,1)}45.95%,49.85%{transform:scale(0.143,1)}49.87%,50.13%{transform:scale(0.214,1)}50.15%,54.33%{transform:scale(0.286,1)}54.35%,54.89%{transform:scale(0.357,1)}54.91%,55.17%{transform:scale(0.429,1)}55.19%,55.73%{transform:scale(0.500,1)}55.75%,56.01%{transform:scale(0.571,1)}56.03%,57.41%{transform:scale(0.643,1)}57.43%,60.21%{transform:scale(0.714,1)}60.23%,60.77%{transform:scale(0.786,1)}60.79%,74.22%{transform:scale(0.857,1)}74.24%,76.18%{transform:scale(0.929,1)}76.2%,100%{transform:scale(1.000,1)}}.u.u1{fill:var(--c2);animation-name:u1;transform-origin:474.3px 0}@keyframes u2{80.94%{transform:scale(0.000,1)}80.96%,82.62%{transform:scale(0.143,1)}82.64%,90.47%{transform:scale(0.286,1)}90.49%,90.75%{transform:scale(0.429,1)}90.77%,91.87%{transform:scale(0.571,1)}91.89%,92.99%{transform:scale(0.714,1)}93.01%,93.27%{transform:scale(0.857,1)}93.29%,100%{transform:scale(1.000,1)}}.u.u2{fill:var(--c3);animation-name:u2;transform-origin:675.5px 0}@keyframes u3{93.83%{transform:scale(0.000,1)}93.85%,94.67%{transform:scale(0.200,1)}94.69%,94.95%{transform:scale(0.400,1)}94.97%,96.91%{transform:scale(0.600,1)}96.93%,98.31%{transform:scale(0.800,1)}98.33%,100%{transform:scale(1.000,1)}}.u.u3{fill:var(--c4);animation-name:u3;transform-origin:776.1px 0}.s{shape-rendering:geometricPrecision;fill:var(--cs);animation:none linear 35700ms infinite}@keyframes s0{0%,99.72%{transform:translate(0px,-16px)}0.28%,97.2%{transform:translate(0px,0px)}1.12%{transform:translate(48px,0px)}1.4%,92.72%{transform:translate(48px,16px)}1.96%{transform:translate(16px,16px)}2.8%,60.5%{transform:translate(16px,64px)}3.08%{transform:translate(0px,64px)}3.64%{transform:translate(0px,96px)}3.92%{transform:translate(16px,96px)}4.2%{transform:translate(16px,112px)}5.04%{transform:translate(64px,112px)}5.6%{transform:translate(64px,80px)}5.88%{transform:translate(48px,80px)}6.16%{transform:translate(48px,64px)}6.44%{transform:translate(64px,64px)}7%,56.3%{transform:translate(64px,32px)}7.56%,56.86%{transform:translate(96px,32px)}8.12%,54.62%{transform:translate(96px,64px)}9.24%{transform:translate(160px,64px)}9.8%{transform:translate(160px,96px)}12.61%{transform:translate(320px,96px)}13.45%{transform:translate(320px,48px)}13.73%{transform:translate(336px,48px)}14.29%{transform:translate(336px,16px)}14.85%{transform:translate(304px,16px)}15.13%{transform:translate(304px,0px)}17.65%{transform:translate(160px,0px)}17.93%{transform:translate(160px,16px)}23.81%{transform:translate(496px,16px)}24.09%{transform:translate(496px,32px)}24.65%{transform:translate(528px,32px)}25.21%{transform:translate(528px,0px)}25.77%{transform:translate(560px,0px)}26.05%{transform:translate(560px,16px)}26.33%{transform:translate(576px,16px)}27.17%{transform:translate(576px,64px)}27.45%{transform:translate(560px,64px)}27.73%{transform:translate(560px,80px)}28.57%{transform:translate(608px,80px)}28.85%{transform:translate(608px,64px)}30.81%{transform:translate(720px,64px)}31.09%{transform:translate(720px,48px)}31.65%{transform:translate(752px,48px)}32.21%{transform:translate(752px,80px)}32.77%,76.47%{transform:translate(784px,80px)}33.05%{transform:translate(784px,64px)}33.61%{transform:translate(816px,64px)}34.73%{transform:translate(816px,0px)}40.06%,45.66%{transform:translate(512px,0px)}40.34%{transform:translate(512px,16px)}41.46%{transform:translate(448px,16px)}42.86%{transform:translate(448px,96px)}43.7%,82.91%{transform:translate(496px,96px)}43.98%{transform:translate(496px,80px)}44.26%{transform:translate(512px,80px)}48.74%{transform:translate(336px,0px)}50.14%{transform:translate(336px,80px)}54.34%{transform:translate(96px,80px)}54.9%{transform:translate(80px,64px)}55.74%,92.16%{transform:translate(80px,16px)}56.02%{transform:translate(64px,16px)}57.14%{transform:translate(96px,16px)}57.7%{transform:translate(128px,16px)}58.54%{transform:translate(128px,64px)}60.78%{transform:translate(16px,80px)}73.39%{transform:translate(736px,80px)}74.23%{transform:translate(736px,32px)}75.35%{transform:translate(800px,32px)}76.19%{transform:translate(800px,80px)}77.03%{transform:translate(784px,48px)}81.79%{transform:translate(512px,48px)}82.63%{transform:translate(512px,96px)}83.75%{transform:translate(496px,48px)}90.48%{transform:translate(112px,48px)}91.32%{transform:translate(112px,0px)}91.88%{transform:translate(80px,0px)}93%{transform:translate(48px,32px)}93.28%{transform:translate(32px,32px)}93.56%{transform:translate(32px,48px)}93.84%{transform:translate(48px,48px)}94.68%{transform:translate(48px,96px)}94.96%{transform:translate(32px,96px)}96.36%{transform:translate(32px,16px)}96.92%{transform:translate(0px,16px)}98.32%{transform:translate(64px,0px)}98.6%{transform:translate(64px,-16px)}}.s.s0{transform:translate(0px,-16px);animation-name:s0}@keyframes s1{0%,99.72%{transform:translate(16px,-16px)}0.28%{transform:translate(0px,-16px)}0.56%,97.48%{transform:translate(0px,0px)}1.4%{transform:translate(48px,0px)}1.68%,93%{transform:translate(48px,16px)}2.24%{transform:translate(16px,16px)}3.08%,60.78%{transform:translate(16px,64px)}3.36%{transform:translate(0px,64px)}3.92%{transform:translate(0px,96px)}4.2%{transform:translate(16px,96px)}4.48%{transform:translate(16px,112px)}5.32%{transform:translate(64px,112px)}5.88%{transform:translate(64px,80px)}6.16%{transform:translate(48px,80px)}6.44%{transform:translate(48px,64px)}6.72%{transform:translate(64px,64px)}7.28%,56.58%{transform:translate(64px,32px)}7.84%,57.14%{transform:translate(96px,32px)}8.4%,54.9%{transform:translate(96px,64px)}9.52%{transform:translate(160px,64px)}10.08%{transform:translate(160px,96px)}12.89%{transform:translate(320px,96px)}13.73%{transform:translate(320px,48px)}14.01%{transform:translate(336px,48px)}14.57%{transform:translate(336px,16px)}15.13%{transform:translate(304px,16px)}15.41%{transform:translate(304px,0px)}17.93%{transform:translate(160px,0px)}18.21%{transform:translate(160px,16px)}24.09%{transform:translate(496px,16px)}24.37%{transform:translate(496px,32px)}24.93%{transform:translate(528px,32px)}25.49%{transform:translate(528px,0px)}26.05%{transform:translate(560px,0px)}26.33%{transform:translate(560px,16px)}26.61%{transform:translate(576px,16px)}27.45%{transform:translate(576px,64px)}27.73%{transform:translate(560px,64px)}28.01%{transform:translate(560px,80px)}28.85%{transform:translate(608px,80px)}29.13%{transform:translate(608px,64px)}31.09%{transform:translate(720px,64px)}31.37%{transform:translate(720px,48px)}31.93%{transform:translate(752px,48px)}32.49%{transform:translate(752px,80px)}33.05%,76.75%{transform:translate(784px,80px)}33.33%{transform:translate(784px,64px)}33.89%{transform:translate(816px,64px)}35.01%{transform:translate(816px,0px)}40.34%,45.94%{transform:translate(512px,0px)}40.62%{transform:translate(512px,16px)}41.74%{transform:translate(448px,16px)}43.14%{transform:translate(448px,96px)}43.98%,83.19%{transform:translate(496px,96px)}44.26%{transform:translate(496px,80px)}44.54%{transform:translate(512px,80px)}49.02%{transform:translate(336px,0px)}50.42%{transform:translate(336px,80px)}54.62%{transform:translate(96px,80px)}55.18%{transform:translate(80px,64px)}56.02%,92.44%{transform:translate(80px,16px)}56.3%{transform:translate(64px,16px)}57.42%{transform:translate(96px,16px)}57.98%{transform:translate(128px,16px)}58.82%{transform:translate(128px,64px)}61.06%{transform:translate(16px,80px)}73.67%{transform:translate(736px,80px)}74.51%{transform:translate(736px,32px)}75.63%{transform:translate(800px,32px)}76.47%{transform:translate(800px,80px)}77.31%{transform:translate(784px,48px)}82.07%{transform:translate(512px,48px)}82.91%{transform:translate(512px,96px)}84.03%{transform:translate(496px,48px)}90.76%{transform:translate(112px,48px)}91.6%{transform:translate(112px,0px)}92.16%{transform:translate(80px,0px)}93.28%{transform:translate(48px,32px)}93.56%{transform:translate(32px,32px)}93.84%{transform:translate(32px,48px)}94.12%{transform:translate(48px,48px)}94.96%{transform:translate(48px,96px)}95.24%{transform:translate(32px,96px)}96.64%{transform:translate(32px,16px)}97.2%{transform:translate(0px,16px)}98.6%{transform:translate(64px,0px)}98.88%{transform:translate(64px,-16px)}}.s.s1{transform:translate(16px,-16px);animation-name:s1}@keyframes s2{0%,99.72%{transform:translate(32px,-16px)}0.56%{transform:translate(0px,-16px)}0.84%,97.76%{transform:translate(0px,0px)}1.68%{transform:translate(48px,0px)}1.96%,93.28%{transform:translate(48px,16px)}2.52%{transform:translate(16px,16px)}3.36%,61.06%{transform:translate(16px,64px)}3.64%{transform:translate(0px,64px)}4.2%{transform:translate(0px,96px)}4.48%{transform:translate(16px,96px)}4.76%{transform:translate(16px,112px)}5.6%{transform:translate(64px,112px)}6.16%{transform:translate(64px,80px)}6.44%{transform:translate(48px,80px)}6.72%{transform:translate(48px,64px)}7%{transform:translate(64px,64px)}7.56%,56.86%{transform:translate(64px,32px)}8.12%,57.42%{transform:translate(96px,32px)}8.68%,55.18%{transform:translate(96px,64px)}9.8%{transform:translate(160px,64px)}10.36%{transform:translate(160px,96px)}13.17%{transform:translate(320px,96px)}14.01%{transform:translate(320px,48px)}14.29%{transform:translate(336px,48px)}14.85%{transform:translate(336px,16px)}15.41%{transform:translate(304px,16px)}15.69%{transform:translate(304px,0px)}18.21%{transform:translate(160px,0px)}18.49%{transform:translate(160px,16px)}24.37%{transform:translate(496px,16px)}24.65%{transform:translate(496px,32px)}25.21%{transform:translate(528px,32px)}25.77%{transform:translate(528px,0px)}26.33%{transform:translate(560px,0px)}26.61%{transform:translate(560px,16px)}26.89%{transform:translate(576px,16px)}27.73%{transform:translate(576px,64px)}28.01%{transform:translate(560px,64px)}28.29%{transform:translate(560px,80px)}29.13%{transform:translate(608px,80px)}29.41%{transform:translate(608px,64px)}31.37%{transform:translate(720px,64px)}31.65%{transform:translate(720px,48px)}32.21%{transform:translate(752px,48px)}32.77%{transform:translate(752px,80px)}33.33%,77.03%{transform:translate(784px,80px)}33.61%{transform:translate(784px,64px)}34.17%{transform:translate(816px,64px)}35.29%{transform:translate(816px,0px)}40.62%,46.22%{transform:translate(512px,0px)}40.9%{transform:translate(512px,16px)}42.02%{transform:translate(448px,16px)}43.42%{transform:translate(448px,96px)}44.26%,83.47%{transform:translate(496px,96px)}44.54%{transform:translate(496px,80px)}44.82%{transform:translate(512px,80px)}49.3%{transform:translate(336px,0px)}50.7%{transform:translate(336px,80px)}54.9%{transform:translate(96px,80px)}55.46%{transform:translate(80px,64px)}56.3%,92.72%{transform:translate(80px,16px)}56.58%{transform:translate(64px,16px)}57.7%{transform:translate(96px,16px)}58.26%{transform:translate(128px,16px)}59.1%{transform:translate(128px,64px)}61.34%{transform:translate(16px,80px)}73.95%{transform:translate(736px,80px)}74.79%{transform:translate(736px,32px)}75.91%{transform:translate(800px,32px)}76.75%{transform:translate(800px,80px)}77.59%{transform:translate(784px,48px)}82.35%{transform:translate(512px,48px)}83.19%{transform:translate(512px,96px)}84.31%{transform:translate(496px,48px)}91.04%{transform:translate(112px,48px)}91.88%{transform:translate(112px,0px)}92.44%{transform:translate(80px,0px)}93.56%{transform:translate(48px,32px)}93.84%{transform:translate(32px,32px)}94.12%{transform:translate(32px,48px)}94.4%{transform:translate(48px,48px)}95.24%{transform:translate(48px,96px)}95.52%{transform:translate(32px,96px)}96.92%{transform:translate(32px,16px)}97.48%{transform:translate(0px,16px)}98.88%{transform:translate(64px,0px)}99.16%{transform:translate(64px,-16px)}}.s.s2{transform:translate(32px,-16px);animation-name:s2}@keyframes s3{0%,99.72%{transform:translate(48px,-16px)}0.84%{transform:translate(0px,-16px)}1.12%,98.04%{transform:translate(0px,0px)}1.96%{transform:translate(48px,0px)}2.24%,93.56%{transform:translate(48px,16px)}2.8%{transform:translate(16px,16px)}3.64%,61.34%{transform:translate(16px,64px)}3.92%{transform:translate(0px,64px)}4.48%{transform:translate(0px,96px)}4.76%{transform:translate(16px,96px)}5.04%{transform:translate(16px,112px)}5.88%{transform:translate(64px,112px)}6.44%{transform:translate(64px,80px)}6.72%{transform:translate(48px,80px)}7%{transform:translate(48px,64px)}7.28%{transform:translate(64px,64px)}7.84%,57.14%{transform:translate(64px,32px)}8.4%,57.7%{transform:translate(96px,32px)}8.96%,55.46%{transform:translate(96px,64px)}10.08%{transform:translate(160px,64px)}10.64%{transform:translate(160px,96px)}13.45%{transform:translate(320px,96px)}14.29%{transform:translate(320px,48px)}14.57%{transform:translate(336px,48px)}15.13%{transform:translate(336px,16px)}15.69%{transform:translate(304px,16px)}15.97%{transform:translate(304px,0px)}18.49%{transform:translate(160px,0px)}18.77%{transform:translate(160px,16px)}24.65%{transform:translate(496px,16px)}24.93%{transform:translate(496px,32px)}25.49%{transform:translate(528px,32px)}26.05%{transform:translate(528px,0px)}26.61%{transform:translate(560px,0px)}26.89%{transform:translate(560px,16px)}27.17%{transform:translate(576px,16px)}28.01%{transform:translate(576px,64px)}28.29%{transform:translate(560px,64px)}28.57%{transform:translate(560px,80px)}29.41%{transform:translate(608px,80px)}29.69%{transform:translate(608px,64px)}31.65%{transform:translate(720px,64px)}31.93%{transform:translate(720px,48px)}32.49%{transform:translate(752px,48px)}33.05%{transform:translate(752px,80px)}33.61%,77.31%{transform:translate(784px,80px)}33.89%{transform:translate(784px,64px)}34.45%{transform:translate(816px,64px)}35.57%{transform:translate(816px,0px)}40.9%,46.5%{transform:translate(512px,0px)}41.18%{transform:translate(512px,16px)}42.3%{transform:translate(448px,16px)}43.7%{transform:translate(448px,96px)}44.54%,83.75%{transform:translate(496px,96px)}44.82%{transform:translate(496px,80px)}45.1%{transform:translate(512px,80px)}49.58%{transform:translate(336px,0px)}50.98%{transform:translate(336px,80px)}55.18%{transform:translate(96px,80px)}55.74%{transform:translate(80px,64px)}56.58%,93%{transform:translate(80px,16px)}56.86%{transform:translate(64px,16px)}57.98%{transform:translate(96px,16px)}58.54%{transform:translate(128px,16px)}59.38%{transform:translate(128px,64px)}61.62%{transform:translate(16px,80px)}74.23%{transform:translate(736px,80px)}75.07%{transform:translate(736px,32px)}76.19%{transform:translate(800px,32px)}77.03%{transform:translate(800px,80px)}77.87%{transform:translate(784px,48px)}82.63%{transform:translate(512px,48px)}83.47%{transform:translate(512px,96px)}84.59%{transform:translate(496px,48px)}91.32%{transform:translate(112px,48px)}92.16%{transform:translate(112px,0px)}92.72%{transform:translate(80px,0px)}93.84%{transform:translate(48px,32px)}94.12%{transform:translate(32px,32px)}94.4%{transform:translate(32px,48px)}94.68%{transform:translate(48px,48px)}95.52%{transform:translate(48px,96px)}95.8%{transform:translate(32px,96px)}97.2%{transform:translate(32px,16px)}97.76%{transform:translate(0px,16px)}99.16%{transform:translate(64px,0px)}99.44%{transform:translate(64px,-16px)}}.s.s3{transform:translate(48px,-16px);animation-name:s3}</style><rect class="c" x="2" y="2" rx="2" ry="2"/><rect class="c c0" x="2" y="18" rx="2" ry="2"/><rect class="c" x="2" y="34" rx="2" ry="2"/><rect class="c" x="2" y="50" rx="2" ry="2"/><rect class="c" x="2" y="66" rx="2" ry="2"/><rect class="c" x="2" y="82" rx="2" ry="2"/><rect class="c" x="2" y="98" rx="2" ry="2"/><rect class="c" x="18" y="2" rx="2" ry="2"/><rect class="c" x="18" y="18" rx="2" ry="2"/><rect class="c" x="18" y="34" rx="2" ry="2"/><rect class="c" x="18" y="50" rx="2" ry="2"/><rect class="c c1" x="18" y="66" rx="2" ry="2"/><rect class="c c2" x="18" y="82" rx="2" ry="2"/><rect class="c c3" x="18" y="98" rx="2" ry="2"/><rect class="c" x="34" y="2" rx="2" ry="2"/><rect class="c" x="34" y="18" rx="2" ry="2"/><rect class="c c4" x="34" y="34" rx="2" ry="2"/><rect class="c" x="34" y="50" rx="2" ry="2"/><rect class="c c5" x="34" y="66" rx="2" ry="2"/><rect class="c" x="34" y="82" rx="2" ry="2"/><rect class="c c6" x="34" y="98" rx="2" ry="2"/><rect class="c" x="50" y="2" rx="2" ry="2"/><rect class="c c7" x="50" y="18" rx="2" ry="2"/><rect class="c c8" x="50" y="34" rx="2" ry="2"/><rect class="c c9" x="50" y="50" rx="2" ry="2"/><rect class="c ca" x="50" y="66" rx="2" ry="2"/><rect class="c cb" x="50" y="82" rx="2" ry="2"/><rect class="c cc" x="50" y="98" rx="2" ry="2"/><rect class="c cd" x="66" y="2" rx="2" ry="2"/><rect class="c ce" x="66" y="18" rx="2" ry="2"/><rect class="c" x="66" y="34" rx="2" ry="2"/><rect class="c" x="66" y="50" rx="2" ry="2"/><rect class="c" x="66" y="66" rx="2" ry="2"/><rect class="c" x="66" y="82" rx="2" ry="2"/><rect class="c cf" x="66" y="98" rx="2" ry="2"/><rect class="c cg" x="82" y="2" rx="2" ry="2"/><rect class="c ch" x="82" y="18" rx="2" ry="2"/><rect class="c" x="82" y="34" rx="2" ry="2"/><rect class="c ci" x="82" y="50" rx="2" ry="2"/><rect class="c cj" x="82" y="66" rx="2" ry="2"/><rect class="c" x="82" y="82" rx="2" ry="2"/><rect class="c" x="82" y="98" rx="2" ry="2"/><rect class="c" x="98" y="2" rx="2" ry="2"/><rect class="c" x="98" y="18" rx="2" ry="2"/><rect class="c" x="98" y="34" rx="2" ry="2"/><rect class="c" x="98" y="50" rx="2" ry="2"/><rect class="c" x="98" y="66" rx="2" ry="2"/><rect class="c ck" x="98" y="82" rx="2" ry="2"/><rect class="c" x="98" y="98" rx="2" ry="2"/><rect class="c" x="114" y="2" rx="2" ry="2"/><rect class="c cl" x="114" y="18" rx="2" ry="2"/><rect class="c cm" x="114" y="34" rx="2" ry="2"/><rect class="c cn" x="114" y="50" rx="2" ry="2"/><rect class="c co" x="114" y="66" rx="2" ry="2"/><rect class="c" x="114" y="82" rx="2" ry="2"/><rect class="c" x="114" y="98" rx="2" ry="2"/><rect class="c" x="130" y="2" rx="2" ry="2"/><rect class="c" x="130" y="18" rx="2" ry="2"/><rect class="c" x="130" y="34" rx="2" ry="2"/><rect class="c" x="130" y="50" rx="2" ry="2"/><rect class="c" x="130" y="66" rx="2" ry="2"/><rect class="c" x="130" y="82" rx="2" ry="2"/><rect class="c" x="130" y="98" rx="2" ry="2"/><rect class="c" x="146" y="2" rx="2" ry="2"/><rect class="c" x="146" y="18" rx="2" ry="2"/><rect class="c" x="146" y="34" rx="2" ry="2"/><rect class="c" x="146" y="50" rx="2" ry="2"/><rect class="c" x="146" y="66" rx="2" ry="2"/><rect class="c" x="146" y="82" rx="2" ry="2"/><rect class="c" x="146" y="98" rx="2" ry="2"/><rect class="c cp" x="162" y="2" rx="2" ry="2"/><rect class="c" x="162" y="18" rx="2" ry="2"/><rect class="c" x="162" y="34" rx="2" ry="2"/><rect class="c" x="162" y="50" rx="2" ry="2"/><rect class="c" x="162" y="66" rx="2" ry="2"/><rect class="c cq" x="162" y="82" rx="2" ry="2"/><rect class="c cr" x="162" y="98" rx="2" ry="2"/><rect class="c cs" x="178" y="2" rx="2" ry="2"/><rect class="c" x="178" y="18" rx="2" ry="2"/><rect class="c" x="178" y="34" rx="2" ry="2"/><rect class="c" x="178" y="50" rx="2" ry="2"/><rect class="c" x="178" y="66" rx="2" ry="2"/><rect class="c" x="178" y="82" rx="2" ry="2"/><rect class="c ct" x="178" y="98" rx="2" ry="2"/><rect class="c" x="194" y="2" rx="2" ry="2"/><rect class="c" x="194" y="18" rx="2" ry="2"/><rect class="c" x="194" y="34" rx="2" ry="2"/><rect class="c" x="194" y="50" rx="2" ry="2"/><rect class="c" x="194" y="66" rx="2" ry="2"/><rect class="c" x="194" y="82" rx="2" ry="2"/><rect class="c" x="194" y="98" rx="2" ry="2"/><rect class="c" x="210" y="2" rx="2" ry="2"/><rect class="c" x="210" y="18" rx="2" ry="2"/><rect class="c" x="210" y="34" rx="2" ry="2"/><rect class="c" x="210" y="50" rx="2" ry="2"/><rect class="c" x="210" y="66" rx="2" ry="2"/><rect class="c" x="210" y="82" rx="2" ry="2"/><rect class="c" x="210" y="98" rx="2" ry="2"/><rect class="c" x="226" y="2" rx="2" ry="2"/><rect class="c" x="226" y="18" rx="2" ry="2"/><rect class="c" x="226" y="34" rx="2" ry="2"/><rect class="c" x="226" y="50" rx="2" ry="2"/><rect class="c" x="226" y="66" rx="2" ry="2"/><rect class="c" x="226" y="82" rx="2" ry="2"/><rect class="c" x="226" y="98" rx="2" ry="2"/><rect class="c" x="242" y="2" rx="2" ry="2"/><rect class="c" x="242" y="18" rx="2" ry="2"/><rect class="c" x="242" y="34" rx="2" ry="2"/><rect class="c" x="242" y="50" rx="2" ry="2"/><rect class="c" x="242" y="66" rx="2" ry="2"/><rect class="c" x="242" y="82" rx="2" ry="2"/><rect class="c cu" x="242" y="98" rx="2" ry="2"/><rect class="c" x="258" y="2" rx="2" ry="2"/><rect class="c" x="258" y="18" rx="2" ry="2"/><rect class="c" x="258" y="34" rx="2" ry="2"/><rect class="c" x="258" y="50" rx="2" ry="2"/><rect class="c" x="258" y="66" rx="2" ry="2"/><rect class="c" x="258" y="82" rx="2" ry="2"/><rect class="c" x="258" y="98" rx="2" ry="2"/><rect class="c" x="274" y="2" rx="2" ry="2"/><rect class="c" x="274" y="18" rx="2" ry="2"/><rect class="c" x="274" y="34" rx="2" ry="2"/><rect class="c" x="274" y="50" rx="2" ry="2"/><rect class="c" x="274" y="66" rx="2" ry="2"/><rect class="c" x="274" y="82" rx="2" ry="2"/><rect class="c" x="274" y="98" rx="2" ry="2"/><rect class="c" x="290" y="2" rx="2" ry="2"/><rect class="c" x="290" y="18" rx="2" ry="2"/><rect class="c" x="290" y="34" rx="2" ry="2"/><rect class="c" x="290" y="50" rx="2" ry="2"/><rect class="c" x="290" y="66" rx="2" ry="2"/><rect class="c" x="290" y="82" rx="2" ry="2"/><rect class="c" x="290" y="98" rx="2" ry="2"/><rect class="c" x="306" y="2" rx="2" ry="2"/><rect class="c cv" x="306" y="18" rx="2" ry="2"/><rect class="c" x="306" y="34" rx="2" ry="2"/><rect class="c" x="306" y="50" rx="2" ry="2"/><rect class="c" x="306" y="66" rx="2" ry="2"/><rect class="c" x="306" y="82" rx="2" ry="2"/><rect class="c" x="306" y="98" rx="2" ry="2"/><rect class="c" x="322" y="2" rx="2" ry="2"/><rect class="c" x="322" y="18" rx="2" ry="2"/><rect class="c" x="322" y="34" rx="2" ry="2"/><rect class="c cw" x="322" y="50" rx="2" ry="2"/><rect class="c" x="322" y="66" rx="2" ry="2"/><rect class="c" x="322" y="82" rx="2" ry="2"/><rect class="c" x="322" y="98" rx="2" ry="2"/><rect class="c" x="338" y="2" rx="2" ry="2"/><rect class="c" x="338" y="18" rx="2" ry="2"/><rect class="c cx" x="338" y="34" rx="2" ry="2"/><rect class="c" x="338" y="50" rx="2" ry="2"/><rect class="c cy" x="338" y="66" rx="2" ry="2"/><rect class="c cz" x="338" y="82" rx="2" ry="2"/><rect class="c" x="338" y="98" rx="2" ry="2"/><rect class="c" x="354" y="2" rx="2" ry="2"/><rect class="c" x="354" y="18" rx="2" ry="2"/><rect class="c" x="354" y="34" rx="2" ry="2"/><rect class="c" x="354" y="50" rx="2" ry="2"/><rect class="c" x="354" y="66" rx="2" ry="2"/><rect class="c" x="354" y="82" rx="2" ry="2"/><rect class="c" x="354" y="98" rx="2" ry="2"/><rect class="c" x="370" y="2" rx="2" ry="2"/><rect class="c" x="370" y="18" rx="2" ry="2"/><rect class="c" x="370" y="34" rx="2" ry="2"/><rect class="c" x="370" y="50" rx="2" ry="2"/><rect class="c" x="370" y="66" rx="2" ry="2"/><rect class="c" x="370" y="82" rx="2" ry="2"/><rect class="c" x="370" y="98" rx="2" ry="2"/><rect class="c" x="386" y="2" rx="2" ry="2"/><rect class="c" x="386" y="18" rx="2" ry="2"/><rect class="c" x="386" y="34" rx="2" ry="2"/><rect class="c" x="386" y="50" rx="2" ry="2"/><rect class="c" x="386" y="66" rx="2" ry="2"/><rect class="c" x="386" y="82" rx="2" ry="2"/><rect class="c" x="386" y="98" rx="2" ry="2"/><rect class="c" x="402" y="2" rx="2" ry="2"/><rect class="c" x="402" y="18" rx="2" ry="2"/><rect class="c" x="402" y="34" rx="2" ry="2"/><rect class="c" x="402" y="50" rx="2" ry="2"/><rect class="c" x="402" y="66" rx="2" ry="2"/><rect class="c" x="402" y="82" rx="2" ry="2"/><rect class="c" x="402" y="98" rx="2" ry="2"/><rect class="c" x="418" y="2" rx="2" ry="2"/><rect class="c" x="418" y="18" rx="2" ry="2"/><rect class="c" x="418" y="34" rx="2" ry="2"/><rect class="c" x="418" y="50" rx="2" ry="2"/><rect class="c" x="418" y="66" rx="2" ry="2"/><rect class="c" x="418" y="82" rx="2" ry="2"/><rect class="c" x="418" y="98" rx="2" ry="2"/><rect class="c" x="434" y="2" rx="2" ry="2"/><rect class="c" x="434" y="18" rx="2" ry="2"/><rect class="c" x="434" y="34" rx="2" ry="2"/><rect class="c" x="434" y="50" rx="2" ry="2"/><rect class="c" x="434" y="66" rx="2" ry="2"/><rect class="c" x="434" y="82" rx="2" ry="2"/><rect class="c" x="434" y="98" rx="2" ry="2"/><rect class="c" x="450" y="2" rx="2" ry="2"/><rect class="c" x="450" y="18" rx="2" ry="2"/><rect class="c" x="450" y="34" rx="2" ry="2"/><rect class="c" x="450" y="50" rx="2" ry="2"/><rect class="c" x="450" y="66" rx="2" ry="2"/><rect class="c" x="450" y="82" rx="2" ry="2"/><rect class="c c10" x="450" y="98" rx="2" ry="2"/><rect class="c" x="466" y="2" rx="2" ry="2"/><rect class="c" x="466" y="18" rx="2" ry="2"/><rect class="c" x="466" y="34" rx="2" ry="2"/><rect class="c" x="466" y="50" rx="2" ry="2"/><rect class="c" x="466" y="66" rx="2" ry="2"/><rect class="c" x="466" y="82" rx="2" ry="2"/><rect class="c" x="466" y="98" rx="2" ry="2"/><rect class="c" x="482" y="2" rx="2" ry="2"/><rect class="c" x="482" y="18" rx="2" ry="2"/><rect class="c" x="482" y="34" rx="2" ry="2"/><rect class="c" x="482" y="50" rx="2" ry="2"/><rect class="c" x="482" y="66" rx="2" ry="2"/><rect class="c" x="482" y="82" rx="2" ry="2"/><rect class="c" x="482" y="98" rx="2" ry="2"/><rect class="c c11" x="498" y="2" rx="2" ry="2"/><rect class="c" x="498" y="18" rx="2" ry="2"/><rect class="c c12" x="498" y="34" rx="2" ry="2"/><rect class="c" x="498" y="50" rx="2" ry="2"/><rect class="c" x="498" y="66" rx="2" ry="2"/><rect class="c" x="498" y="82" rx="2" ry="2"/><rect class="c" x="498" y="98" rx="2" ry="2"/><rect class="c" x="514" y="2" rx="2" ry="2"/><rect class="c" x="514" y="18" rx="2" ry="2"/><rect class="c" x="514" y="34" rx="2" ry="2"/><rect class="c" x="514" y="50" rx="2" ry="2"/><rect class="c" x="514" y="66" rx="2" ry="2"/><rect class="c c13" x="514" y="82" rx="2" ry="2"/><rect class="c c14" x="514" y="98" rx="2" ry="2"/><rect class="c c15" x="530" y="2" rx="2" ry="2"/><rect class="c c16" x="530" y="18" rx="2" ry="2"/><rect class="c" x="530" y="34" rx="2" ry="2"/><rect class="c" x="530" y="50" rx="2" ry="2"/><rect class="c" x="530" y="66" rx="2" ry="2"/><rect class="c" x="530" y="82" rx="2" ry="2"/><rect class="c" x="530" y="98" rx="2" ry="2"/><rect class="c" x="546" y="2" rx="2" ry="2"/><rect class="c" x="546" y="18" rx="2" ry="2"/><rect class="c" x="546" y="34" rx="2" ry="2"/><rect class="c" x="546" y="50" rx="2" ry="2"/><rect class="c" x="546" y="66" rx="2" ry="2"/><rect class="c" x="546" y="82" rx="2" ry="2"/><rect class="c" x="546" y="98" rx="2" ry="2"/><rect class="c c17" x="562" y="2" rx="2" ry="2"/><rect class="c c18" x="562" y="18" rx="2" ry="2"/><rect class="c" x="562" y="34" rx="2" ry="2"/><rect class="c c19" x="562" y="50" rx="2" ry="2"/><rect class="c c1a" x="562" y="66" rx="2" ry="2"/><rect class="c" x="562" y="82" rx="2" ry="2"/><rect class="c" x="562" y="98" rx="2" ry="2"/><rect class="c" x="578" y="2" rx="2" ry="2"/><rect class="c" x="578" y="18" rx="2" ry="2"/><rect class="c" x="578" y="34" rx="2" ry="2"/><rect class="c" x="578" y="50" rx="2" ry="2"/><rect class="c" x="578" y="66" rx="2" ry="2"/><rect class="c" x="578" y="82" rx="2" ry="2"/><rect class="c" x="578" y="98" rx="2" ry="2"/><rect class="c" x="594" y="2" rx="2" ry="2"/><rect class="c" x="594" y="18" rx="2" ry="2"/><rect class="c" x="594" y="34" rx="2" ry="2"/><rect class="c" x="594" y="50" rx="2" ry="2"/><rect class="c" x="594" y="66" rx="2" ry="2"/><rect class="c" x="594" y="82" rx="2" ry="2"/><rect class="c" x="594" y="98" rx="2" ry="2"/><rect class="c" x="610" y="2" rx="2" ry="2"/><rect class="c" x="610" y="18" rx="2" ry="2"/><rect class="c" x="610" y="34" rx="2" ry="2"/><rect class="c" x="610" y="50" rx="2" ry="2"/><rect class="c c1b" x="610" y="66" rx="2" ry="2"/><rect class="c c1c" x="610" y="82" rx="2" ry="2"/><rect class="c" x="610" y="98" rx="2" ry="2"/><rect class="c" x="626" y="2" rx="2" ry="2"/><rect class="c" x="626" y="18" rx="2" ry="2"/><rect class="c" x="626" y="34" rx="2" ry="2"/><rect class="c" x="626" y="50" rx="2" ry="2"/><rect class="c" x="626" y="66" rx="2" ry="2"/><rect class="c" x="626" y="82" rx="2" ry="2"/><rect class="c" x="626" y="98" rx="2" ry="2"/><rect class="c" x="642" y="2" rx="2" ry="2"/><rect class="c" x="642" y="18" rx="2" ry="2"/><rect class="c" x="642" y="34" rx="2" ry="2"/><rect class="c" x="642" y="50" rx="2" ry="2"/><rect class="c" x="642" y="66" rx="2" ry="2"/><rect class="c" x="642" y="82" rx="2" ry="2"/><rect class="c" x="642" y="98" rx="2" ry="2"/><rect class="c" x="658" y="2" rx="2" ry="2"/><rect class="c" x="658" y="18" rx="2" ry="2"/><rect class="c" x="658" y="34" rx="2" ry="2"/><rect class="c" x="658" y="50" rx="2" ry="2"/><rect class="c" x="658" y="66" rx="2" ry="2"/><rect class="c" x="658" y="82" rx="2" ry="2"/><rect class="c" x="658" y="98" rx="2" ry="2"/><rect class="c" x="674" y="2" rx="2" ry="2"/><rect class="c" x="674" y="18" rx="2" ry="2"/><rect class="c" x="674" y="34" rx="2" ry="2"/><rect class="c" x="674" y="50" rx="2" ry="2"/><rect class="c" x="674" y="66" rx="2" ry="2"/><rect class="c" x="674" y="82" rx="2" ry="2"/><rect class="c" x="674" y="98" rx="2" ry="2"/><rect class="c" x="690" y="2" rx="2" ry="2"/><rect class="c" x="690" y="18" rx="2" ry="2"/><rect class="c" x="690" y="34" rx="2" ry="2"/><rect class="c" x="690" y="50" rx="2" ry="2"/><rect class="c" x="690" y="66" rx="2" ry="2"/><rect class="c" x="690" y="82" rx="2" ry="2"/><rect class="c" x="690" y="98" rx="2" ry="2"/><rect class="c" x="706" y="2" rx="2" ry="2"/><rect class="c" x="706" y="18" rx="2" ry="2"/><rect class="c" x="706" y="34" rx="2" ry="2"/><rect class="c" x="706" y="50" rx="2" ry="2"/><rect class="c" x="706" y="66" rx="2" ry="2"/><rect class="c" x="706" y="82" rx="2" ry="2"/><rect class="c" x="706" y="98" rx="2" ry="2"/><rect class="c" x="722" y="2" rx="2" ry="2"/><rect class="c" x="722" y="18" rx="2" ry="2"/><rect class="c" x="722" y="34" rx="2" ry="2"/><rect class="c c1d" x="722" y="50" rx="2" ry="2"/><rect class="c" x="722" y="66" rx="2" ry="2"/><rect class="c" x="722" y="82" rx="2" ry="2"/><rect class="c" x="722" y="98" rx="2" ry="2"/><rect class="c" x="738" y="2" rx="2" ry="2"/><rect class="c" x="738" y="18" rx="2" ry="2"/><rect class="c c1e" x="738" y="34" rx="2" ry="2"/><rect class="c c1f" x="738" y="50" rx="2" ry="2"/><rect class="c" x="738" y="66" rx="2" ry="2"/><rect class="c" x="738" y="82" rx="2" ry="2"/><rect class="c" x="738" y="98" rx="2" ry="2"/><rect class="c" x="754" y="2" rx="2" ry="2"/><rect class="c" x="754" y="18" rx="2" ry="2"/><rect class="c" x="754" y="34" rx="2" ry="2"/><rect class="c" x="754" y="50" rx="2" ry="2"/><rect class="c" x="754" y="66" rx="2" ry="2"/><rect class="c c1g" x="754" y="82" rx="2" ry="2"/><rect class="c" x="754" y="98" rx="2" ry="2"/><rect class="c" x="770" y="2" rx="2" ry="2"/><rect class="c" x="770" y="18" rx="2" ry="2"/><rect class="c" x="770" y="34" rx="2" ry="2"/><rect class="c" x="770" y="50" rx="2" ry="2"/><rect class="c" x="770" y="66" rx="2" ry="2"/><rect class="c" x="770" y="82" rx="2" ry="2"/><rect class="c" x="770" y="98" rx="2" ry="2"/><rect class="c" x="786" y="2" rx="2" ry="2"/><rect class="c" x="786" y="18" rx="2" ry="2"/><rect class="c" x="786" y="34" rx="2" ry="2"/><rect class="c" x="786" y="50" rx="2" ry="2"/><rect class="c" x="786" y="66" rx="2" ry="2"/><rect class="c c1h" x="786" y="82" rx="2" ry="2"/><rect class="c" x="786" y="98" rx="2" ry="2"/><rect class="c c1i" x="802" y="2" rx="2" ry="2"/><rect class="c" x="802" y="18" rx="2" ry="2"/><rect class="c" x="802" y="34" rx="2" ry="2"/><rect class="c" x="802" y="50" rx="2" ry="2"/><rect class="c" x="802" y="66" rx="2" ry="2"/><rect class="c c1j" x="802" y="82" rx="2" ry="2"/><rect class="c" x="802" y="98" rx="2" ry="2"/><rect class="c c1k" x="818" y="2" rx="2" ry="2"/><rect class="c c1l" x="818" y="18" rx="2" ry="2"/><rect class="c" x="818" y="34" rx="2" ry="2"/><rect class="c c1m" x="818" y="50" rx="2" ry="2"/><rect class="c" x="818" y="66" rx="2" ry="2"/><rect class="c" x="818" y="82" rx="2" ry="2"/><rect class="c" x="818" y="98" rx="2" ry="2"/><rect class="c" x="834" y="2" rx="2" ry="2"/><rect class="c" x="834" y="18" rx="2" ry="2"/><rect class="c" x="834" y="34" rx="2" ry="2"/><rect class="c" x="834" y="50" rx="2" ry="2"/><rect class="c" x="834" y="66" rx="2" ry="2"/><rect class="c" x="834" y="82" rx="2" ry="2"/><rect class="u u0" height="12" width="474.9" x="0.0" y="144"/><rect class="u u1" height="12" width="201.8" x="474.3" y="144"/><rect class="u u2" height="12" width="101.2" x="675.5" y="144"/><rect class="u u3" height="12" width="72.5" x="776.1" y="144"/><rect class="s s0" x="0.8" y="0.8" width="14.4" height="14.4" rx="4.5" ry="4.5"/><rect class="s s1" x="1.8" y="1.8" width="12.3" height="12.3" rx="4.1" ry="4.1"/><rect class="s s2" x="2.6" y="2.6" width="10.8" height="10.8" rx="3.6" ry="3.6"/><rect class="s s3" x="3.0" y="3.0" width="9.9" height="9.9" rx="3.3" ry="3.3"/></svg>