<svg viewBox="-16 -32 880 192" width="880" height="192" xmlns="http://www.w3.org/2000/svg"><desc>Generated with https://github.com/Platane/snk</desc><style>:root{--cb:#1b1f230a;--cs:white;--ce:#0a0e12;--c0:#0a0e12;--c1:#1445a2;--c2:#1d65ee;--c3:#1f4eff;--c4:#466dff}.c{shape-rendering:geometricPrecision;fill:var(--ce);stroke-width:1px;stroke:var(--cb);animation:none 37700ms linear infinite;width:12px;height:12px}@keyframes c0{8.74%{fill:var(--c1)}8.76%,100%{fill:var(--ce)}}.c.c0{fill:var(--c1);animation-name:c0}@keyframes c1{1.58%{fill:var(--c1)}1.6%,100%{fill:var(--ce)}}.c.c1{fill:var(--c1);animation-name:c1}@keyframes c2{6.89%{fill:var(--c1)}6.91%,100%{fill:var(--ce)}}.c.c2{fill:var(--c1);animation-name:c2}@keyframes c3{5.83%{fill:var(--c1)}5.85%,100%{fill:var(--ce)}}.c.c3{fill:var(--c1);animation-name:c3}@keyframes c4{71.34%{fill:var(--c2)}71.36%,100%{fill:var(--ce)}}.c.c4{fill:var(--c2);animation-name:c4}@keyframes c5{2.11%{fill:var(--c1)}2.13%,100%{fill:var(--ce)}}.c.c5{fill:var(--c1);animation-name:c5}@keyframes c6{2.38%{fill:var(--c1)}2.4%,100%{fill:var(--ce)}}.c.c6{fill:var(--c1);animation-name:c6}@keyframes c7{3.17%{fill:var(--c1)}3.19%,100%{fill:var(--ce)}}.c.c7{fill:var(--c1);animation-name:c7}@keyframes c8{2.91%{fill:var(--c1)}2.93%,100%{fill:var(--ce)}}.c.c8{fill:var(--c1);animation-name:c8}@keyframes c9{69.75%{fill:var(--c2)}69.77%,100%{fill:var(--ce)}}.c.c9{fill:var(--c2);animation-name:c9}@keyframes ca{4.76%{fill:var(--c1)}4.78%,100%{fill:var(--ce)}}.c.ca{fill:var(--c1);animation-name:ca}@keyframes cb{11.93%{fill:var(--c1)}11.95%,100%{fill:var(--ce)}}.c.cb{fill:var(--c1);animation-name:cb}@keyframes cc{11.66%{fill:var(--c1)}11.68%,100%{fill:var(--ce)}}.c.cc{fill:var(--c1);animation-name:cc}@keyframes cd{14.05%{fill:var(--c1)}14.07%,100%{fill:var(--ce)}}.c.cd{fill:var(--c1);animation-name:cd}@keyframes ce{66.57%{fill:var(--c2)}66.59%,100%{fill:var(--ce)}}.c.ce{fill:var(--c2);animation-name:ce}@keyframes cf{14.31%{fill:var(--c1)}14.33%,100%{fill:var(--ce)}}.c.cf{fill:var(--c1);animation-name:cf}@keyframes cg{15.11%{fill:var(--c1)}15.13%,100%{fill:var(--ce)}}.c.cg{fill:var(--c1);animation-name:cg}@keyframes ch{15.64%{fill:var(--c1)}15.66%,100%{fill:var(--ce)}}.c.ch{fill:var(--c1);animation-name:ch}@keyframes ci{17.76%{fill:var(--c1)}17.78%,100%{fill:var(--ce)}}.c.ci{fill:var(--c1);animation-name:ci}@keyframes cj{15.91%{fill:var(--c1)}15.93%,100%{fill:var(--ce)}}.c.cj{fill:var(--c1);animation-name:cj}@keyframes ck{17.5%{fill:var(--c1)}17.52%,100%{fill:var(--ce)}}.c.ck{fill:var(--c1);animation-name:ck}@keyframes cl{17.23%{fill:var(--c1)}17.25%,100%{fill:var(--ce)}}.c.cl{fill:var(--c1);animation-name:cl}@keyframes cm{16.7%{fill:var(--c1)}16.72%,100%{fill:var(--ce)}}.c.cm{fill:var(--c1);animation-name:cm}@keyframes cn{21.21%{fill:var(--c1)}21.23%,100%{fill:var(--ce)}}.c.cn{fill:var(--c1);animation-name:cn}@keyframes co{21.74%{fill:var(--c1)}21.76%,100%{fill:var(--ce)}}.c.co{fill:var(--c1);animation-name:co}@keyframes cp{20.94%{fill:var(--c1)}20.96%,100%{fill:var(--ce)}}.c.cp{fill:var(--c1);animation-name:cp}@keyframes cq{19.62%{fill:var(--c1)}19.64%,100%{fill:var(--ce)}}.c.cq{fill:var(--c1);animation-name:cq}@keyframes cr{26.78%{fill:var(--c1)}26.8%,100%{fill:var(--ce)}}.c.cr{fill:var(--c1);animation-name:cr}@keyframes cs{63.65%{fill:var(--c2)}63.67%,100%{fill:var(--ce)}}.c.cs{fill:var(--c2);animation-name:cs}@keyframes ct{20.41%{fill:var(--c1)}20.43%,100%{fill:var(--ce)}}.c.ct{fill:var(--c1);animation-name:ct}@keyframes cu{24.66%{fill:var(--c1)}24.68%,100%{fill:var(--ce)}}.c.cu{fill:var(--c1);animation-name:cu}@keyframes cv{24.13%{fill:var(--c1)}24.15%,100%{fill:var(--ce)}}.c.cv{fill:var(--c1);animation-name:cv}@keyframes cw{30.49%{fill:var(--c1)}30.51%,100%{fill:var(--ce)}}.c.cw{fill:var(--c1);animation-name:cw}@keyframes cx{47.2%{fill:var(--c1)}47.22%,100%{fill:var(--ce)}}.c.cx{fill:var(--c1);animation-name:cx}@keyframes cy{47.47%{fill:var(--c1)}47.49%,100%{fill:var(--ce)}}.c.cy{fill:var(--c1);animation-name:cy}@keyframes cz{30.76%{fill:var(--c1)}30.78%,100%{fill:var(--ce)}}.c.cz{fill:var(--c1);animation-name:cz}@keyframes c10{55.43%{fill:var(--c2)}55.45%,100%{fill:var(--ce)}}.c.c10{fill:var(--c2);animation-name:c10}@keyframes c11{31.02%{fill:var(--c1)}31.04%,100%{fill:var(--ce)}}.c.c11{fill:var(--c1);animation-name:c11}@keyframes c12{54.9%{fill:var(--c2)}54.92%,100%{fill:var(--ce)}}.c.c12{fill:var(--c2);animation-name:c12}@keyframes c13{46.67%{fill:var(--c1)}46.69%,100%{fill:var(--ce)}}.c.c13{fill:var(--c1);animation-name:c13}@keyframes c14{44.82%{fill:var(--c1)}44.84%,100%{fill:var(--ce)}}.c.c14{fill:var(--c1);animation-name:c14}@keyframes c15{45.08%{fill:var(--c1)}45.1%,100%{fill:var(--ce)}}.c.c15{fill:var(--c1);animation-name:c15}@keyframes c16{54.37%{fill:var(--c2)}54.39%,100%{fill:var(--ce)}}.c.c16{fill:var(--c2);animation-name:c16}@keyframes c17{46.14%{fill:var(--c1)}46.16%,100%{fill:var(--ce)}}.c.c17{fill:var(--c1);animation-name:c17}@keyframes c18{31.55%{fill:var(--c1)}31.57%,100%{fill:var(--ce)}}.c.c18{fill:var(--c1);animation-name:c18}@keyframes c19{44.55%{fill:var(--c1)}44.57%,100%{fill:var(--ce)}}.c.c19{fill:var(--c1);animation-name:c19}@keyframes c1a{44.29%{fill:var(--c1)}44.31%,100%{fill:var(--ce)}}.c.c1a{fill:var(--c1);animation-name:c1a}@keyframes c1b{45.88%{fill:var(--c1)}45.9%,100%{fill:var(--ce)}}.c.c1b{fill:var(--c1);animation-name:c1b}@keyframes c1c{52.24%{fill:var(--c1)}52.26%,100%{fill:var(--ce)}}.c.c1c{fill:var(--c1);animation-name:c1c}@keyframes c1d{31.82%{fill:var(--c1)}31.84%,100%{fill:var(--ce)}}.c.c1d{fill:var(--c1);animation-name:c1d}@keyframes c1e{83.01%{fill:var(--c3)}83.03%,100%{fill:var(--ce)}}.c.c1e{fill:var(--c3);animation-name:c1e}@keyframes c1f{53.57%{fill:var(--c2)}53.59%,100%{fill:var(--ce)}}.c.c1f{fill:var(--c2);animation-name:c1f}@keyframes c1g{43.76%{fill:var(--c1)}43.78%,100%{fill:var(--ce)}}.c.c1g{fill:var(--c1);animation-name:c1g}@keyframes c1h{82.22%{fill:var(--c3)}82.24%,100%{fill:var(--ce)}}.c.c1h{fill:var(--c3);animation-name:c1h}@keyframes c1i{57.55%{fill:var(--c2)}57.57%,100%{fill:var(--ce)}}.c.c1i{fill:var(--c2);animation-name:c1i}@keyframes c1j{83.81%{fill:var(--c4)}83.83%,100%{fill:var(--ce)}}.c.c1j{fill:var(--c4);animation-name:c1j}@keyframes c1k{32.09%{fill:var(--c1)}32.11%,100%{fill:var(--ce)}}.c.c1k{fill:var(--c1);animation-name:c1k}@keyframes c1l{38.19%{fill:var(--c1)}38.21%,100%{fill:var(--ce)}}.c.c1l{fill:var(--c1);animation-name:c1l}@keyframes c1m{37.92%{fill:var(--c1)}37.94%,100%{fill:var(--ce)}}.c.c1m{fill:var(--c1);animation-name:c1m}@keyframes c1n{43.49%{fill:var(--c1)}43.51%,100%{fill:var(--ce)}}.c.c1n{fill:var(--c1);animation-name:c1n}@keyframes c1o{85.67%{fill:var(--c4)}85.69%,100%{fill:var(--ce)}}.c.c1o{fill:var(--c4);animation-name:c1o}@keyframes c1p{49.86%{fill:var(--c1)}49.88%,100%{fill:var(--ce)}}.c.c1p{fill:var(--c1);animation-name:c1p}@keyframes c1q{34.74%{fill:var(--c1)}34.76%,100%{fill:var(--ce)}}.c.c1q{fill:var(--c1);animation-name:c1q}@keyframes c1r{32.35%{fill:var(--c1)}32.37%,100%{fill:var(--ce)}}.c.c1r{fill:var(--c1);animation-name:c1r}@keyframes c1s{35.27%{fill:var(--c1)}35.29%,100%{fill:var(--ce)}}.c.c1s{fill:var(--c1);animation-name:c1s}@keyframes c1t{37.66%{fill:var(--c1)}37.68%,100%{fill:var(--ce)}}.c.c1t{fill:var(--c1);animation-name:c1t}@keyframes c1u{38.98%{fill:var(--c1)}39%,100%{fill:var(--ce)}}.c.c1u{fill:var(--c1);animation-name:c1u}@keyframes c1v{40.84%{fill:var(--c1)}40.86%,100%{fill:var(--ce)}}.c.c1v{fill:var(--c1);animation-name:c1v}@keyframes c1w{41.1%{fill:var(--c1)}41.12%,100%{fill:var(--ce)}}.c.c1w{fill:var(--c1);animation-name:c1w}@keyframes c1x{34.47%{fill:var(--c1)}34.49%,100%{fill:var(--ce)}}.c.c1x{fill:var(--c1);animation-name:c1x}@keyframes c1y{32.62%{fill:var(--c1)}32.64%,100%{fill:var(--ce)}}.c.c1y{fill:var(--c1);animation-name:c1y}@keyframes c1z{35.53%{fill:var(--c1)}35.55%,100%{fill:var(--ce)}}.c.c1z{fill:var(--c1);animation-name:c1z}@keyframes c20{37.39%{fill:var(--c1)}37.41%,100%{fill:var(--ce)}}.c.c20{fill:var(--c1);animation-name:c20}@keyframes c21{39.25%{fill:var(--c1)}39.27%,100%{fill:var(--ce)}}.c.c21{fill:var(--c1);animation-name:c21}@keyframes c22{40.57%{fill:var(--c1)}40.59%,100%{fill:var(--ce)}}.c.c22{fill:var(--c1);animation-name:c22}@keyframes c23{41.37%{fill:var(--c1)}41.39%,100%{fill:var(--ce)}}.c.c23{fill:var(--c1);animation-name:c23}@keyframes c24{34.21%{fill:var(--c1)}34.23%,100%{fill:var(--ce)}}.c.c24{fill:var(--c1);animation-name:c24}@keyframes c25{32.88%{fill:var(--c1)}32.9%,100%{fill:var(--ce)}}.c.c25{fill:var(--c1);animation-name:c25}@keyframes c26{35.8%{fill:var(--c1)}35.82%,100%{fill:var(--ce)}}.c.c26{fill:var(--c1);animation-name:c26}@keyframes c27{37.13%{fill:var(--c1)}37.15%,100%{fill:var(--ce)}}.c.c27{fill:var(--c1);animation-name:c27}@keyframes c28{39.51%{fill:var(--c1)}39.53%,100%{fill:var(--ce)}}.c.c28{fill:var(--c1);animation-name:c28}@keyframes c29{40.31%{fill:var(--c1)}40.33%,100%{fill:var(--ce)}}.c.c29{fill:var(--c1);animation-name:c29}@keyframes c2a{41.63%{fill:var(--c1)}41.65%,100%{fill:var(--ce)}}.c.c2a{fill:var(--c1);animation-name:c2a}@keyframes c2b{33.94%{fill:var(--c1)}33.96%,100%{fill:var(--ce)}}.c.c2b{fill:var(--c1);animation-name:c2b}@keyframes c2c{33.15%{fill:var(--c1)}33.17%,100%{fill:var(--ce)}}.c.c2c{fill:var(--c1);animation-name:c2c}@keyframes c2d{36.06%{fill:var(--c1)}36.08%,100%{fill:var(--ce)}}.c.c2d{fill:var(--c1);animation-name:c2d}@keyframes c2e{36.86%{fill:var(--c1)}36.88%,100%{fill:var(--ce)}}.c.c2e{fill:var(--c1);animation-name:c2e}@keyframes c2f{39.78%{fill:var(--c1)}39.8%,100%{fill:var(--ce)}}.c.c2f{fill:var(--c1);animation-name:c2f}@keyframes c2g{40.04%{fill:var(--c1)}40.06%,100%{fill:var(--ce)}}.c.c2g{fill:var(--c1);animation-name:c2g}@keyframes c2h{41.9%{fill:var(--c1)}41.92%,100%{fill:var(--ce)}}.c.c2h{fill:var(--c1);animation-name:c2h}@keyframes c2i{33.68%{fill:var(--c1)}33.7%,100%{fill:var(--ce)}}.c.c2i{fill:var(--c1);animation-name:c2i}@keyframes c2j{33.41%{fill:var(--c1)}33.43%,100%{fill:var(--ce)}}.c.c2j{fill:var(--c1);animation-name:c2j}@keyframes c2k{36.33%{fill:var(--c1)}36.35%,100%{fill:var(--ce)}}.c.c2k{fill:var(--c1);animation-name:c2k}@keyframes c2l{36.59%{fill:var(--c1)}36.61%,100%{fill:var(--ce)}}.c.c2l{fill:var(--c1);animation-name:c2l}.u{transform-origin:0 0;transform:scale(0,1);animation:none linear 37700ms infinite}@keyframes u0{1.58%{transform:scale(0.000,1)}1.6%,2.11%{transform:scale(0.012,1)}2.13%,2.38%{transform:scale(0.025,1)}2.4%,2.91%{transform:scale(0.037,1)}2.93%,3.17%{transform:scale(0.049,1)}3.19%,4.76%{transform:scale(0.062,1)}4.78%,5.83%{transform:scale(0.074,1)}5.85%,6.89%{transform:scale(0.086,1)}6.91%,8.74%{transform:scale(0.099,1)}8.76%,11.66%{transform:scale(0.111,1)}11.68%,11.93%{transform:scale(0.123,1)}11.95%,14.05%{transform:scale(0.136,1)}14.07%,14.31%{transform:scale(0.148,1)}14.33%,15.11%{transform:scale(0.160,1)}15.13%,15.64%{transform:scale(0.173,1)}15.66%,15.91%{transform:scale(0.185,1)}15.93%,16.7%{transform:scale(0.198,1)}16.72%,17.23%{transform:scale(0.210,1)}17.25%,17.5%{transform:scale(0.222,1)}17.52%,17.76%{transform:scale(0.235,1)}17.78%,19.62%{transform:scale(0.247,1)}19.64%,20.41%{transform:scale(0.259,1)}20.43%,20.94%{transform:scale(0.272,1)}20.96%,21.21%{transform:scale(0.284,1)}21.23%,21.74%{transform:scale(0.296,1)}21.76%,24.13%{transform:scale(0.309,1)}24.15%,24.66%{transform:scale(0.321,1)}24.68%,26.78%{transform:scale(0.333,1)}26.8%,30.49%{transform:scale(0.346,1)}30.51%,30.76%{transform:scale(0.358,1)}30.78%,31.02%{transform:scale(0.370,1)}31.04%,31.55%{transform:scale(0.383,1)}31.57%,31.82%{transform:scale(0.395,1)}31.84%,32.09%{transform:scale(0.407,1)}32.11%,32.35%{transform:scale(0.420,1)}32.37%,32.62%{transform:scale(0.432,1)}32.64%,32.88%{transform:scale(0.444,1)}32.9%,33.15%{transform:scale(0.457,1)}33.17%,33.41%{transform:scale(0.469,1)}33.43%,33.68%{transform:scale(0.481,1)}33.7%,33.94%{transform:scale(0.494,1)}33.96%,34.21%{transform:scale(0.506,1)}34.23%,34.47%{transform:scale(0.519,1)}34.49%,34.74%{transform:scale(0.531,1)}34.76%,35.27%{transform:scale(0.543,1)}35.29%,35.53%{transform:scale(0.556,1)}35.55%,35.8%{transform:scale(0.568,1)}35.82%,36.06%{transform:scale(0.580,1)}36.08%,36.33%{transform:scale(0.593,1)}36.35%,36.59%{transform:scale(0.605,1)}36.61%,36.86%{transform:scale(0.617,1)}36.88%,37.13%{transform:scale(0.630,1)}37.15%,37.39%{transform:scale(0.642,1)}37.41%,37.66%{transform:scale(0.654,1)}37.68%,37.92%{transform:scale(0.667,1)}37.94%,38.19%{transform:scale(0.679,1)}38.21%,38.98%{transform:scale(0.691,1)}39%,39.25%{transform:scale(0.704,1)}39.27%,39.51%{transform:scale(0.716,1)}39.53%,39.78%{transform:scale(0.728,1)}39.8%,40.04%{transform:scale(0.741,1)}40.06%,40.31%{transform:scale(0.753,1)}40.33%,40.57%{transform:scale(0.765,1)}40.59%,40.84%{transform:scale(0.778,1)}40.86%,41.1%{transform:scale(0.790,1)}41.12%,41.37%{transform:scale(0.802,1)}41.39%,41.63%{transform:scale(0.815,1)}41.65%,41.9%{transform:scale(0.827,1)}41.92%,43.49%{transform:scale(0.840,1)}43.51%,43.76%{transform:scale(0.852,1)}43.78%,44.29%{transform:scale(0.864,1)}44.31%,44.55%{transform:scale(0.877,1)}44.57%,44.82%{transform:scale(0.889,1)}44.84%,45.08%{transform:scale(0.901,1)}45.1%,45.88%{transform:scale(0.914,1)}45.9%,46.14%{transform:scale(0.926,1)}46.16%,46.67%{transform:scale(0.938,1)}46.69%,47.2%{transform:scale(0.951,1)}47.22%,47.47%{transform:scale(0.963,1)}47.49%,49.86%{transform:scale(0.975,1)}49.88%,52.24%{transform:scale(0.988,1)}52.26%,100%{transform:scale(1.000,1)}}.u.u0{fill:var(--c1);animation-name:u0;transform-origin:0.0px 0}@keyframes u1{53.57%{transform:scale(0.000,1)}53.59%,54.37%{transform:scale(0.111,1)}54.39%,54.9%{transform:scale(0.222,1)}54.92%,55.43%{transform:scale(0.333,1)}55.45%,57.55%{transform:scale(0.444,1)}57.57%,63.65%{transform:scale(0.556,1)}63.67%,66.57%{transform:scale(0.667,1)}66.59%,69.75%{transform:scale(0.778,1)}69.77%,71.34%{transform:scale(0.889,1)}71.36%,100%{transform:scale(1.000,1)}}.u.u1{fill:var(--c2);animation-name:u1;transform-origin:730.7px 0}@keyframes u2{82.22%{transform:scale(0.000,1)}82.24%,83.01%{transform:scale(0.500,1)}83.03%,100%{transform:scale(1.000,1)}}.u.u2{fill:var(--c3);animation-name:u2;transform-origin:811.9px 0}@keyframes u3{83.81%{transform:scale(0.000,1)}83.83%,85.67%{transform:scale(0.500,1)}85.69%,100%{transform:scale(1.000,1)}}.u.u3{fill:var(--c4);animation-name:u3;transform-origin:830.0px 0}.s{shape-rendering:geometricPrecision;fill:var(--cs);animation:none linear 37700ms infinite}@keyframes s0{0%,99.73%{transform:translate(0px,-16px)}0.27%{transform:translate(0px,0px)}2.12%{transform:translate(112px,0px)}2.39%{transform:translate(112px,16px)}2.92%{transform:translate(144px,16px)}3.18%{transform:translate(144px,0px)}3.45%{transform:translate(160px,0px)}4.51%{transform:translate(160px,64px)}5.57%,96.82%{transform:translate(96px,64px)}5.84%{transform:translate(96px,80px)}6.1%,9.81%{transform:translate(80px,80px)}6.9%,97.61%{transform:translate(80px,32px)}7.69%{transform:translate(32px,32px)}8.75%{transform:translate(32px,96px)}9.55%{transform:translate(80px,96px)}11.67%{transform:translate(192px,80px)}11.94%{transform:translate(192px,64px)}13.79%{transform:translate(304px,64px)}14.06%{transform:translate(304px,48px)}14.59%{transform:translate(336px,48px)}15.12%{transform:translate(336px,80px)}16.18%{transform:translate(400px,80px)}17.51%{transform:translate(400px,0px)}17.77%{transform:translate(384px,0px)}18.04%{transform:translate(384px,16px)}19.36%{transform:translate(464px,16px)}19.63%{transform:translate(464px,32px)}19.89%{transform:translate(480px,32px)}20.42%{transform:translate(480px,64px)}21.22%{transform:translate(432px,64px)}21.75%{transform:translate(432px,96px)}23.87%{transform:translate(560px,96px)}24.4%{transform:translate(560px,64px)}24.67%{transform:translate(544px,64px)}25.73%{transform:translate(544px,0px)}26.79%{transform:translate(480px,0px)}27.06%{transform:translate(480px,-16px)}29.97%{transform:translate(656px,-16px)}30.5%{transform:translate(656px,16px)}33.42%{transform:translate(832px,16px)}33.69%{transform:translate(832px,0px)}34.75%,84.08%{transform:translate(768px,0px)}35.28%,38.46%{transform:translate(768px,32px)}36.34%{transform:translate(832px,32px)}36.6%{transform:translate(832px,48px)}37.93%{transform:translate(752px,48px)}38.2%,83.29%{transform:translate(752px,32px)}38.99%{transform:translate(768px,64px)}39.79%,42.44%{transform:translate(816px,64px)}40.05%{transform:translate(816px,80px)}40.85%{transform:translate(768px,80px)}41.11%,50.13%{transform:translate(768px,96px)}41.91%{transform:translate(816px,96px)}44.03%{transform:translate(720px,64px)}44.56%{transform:translate(720px,32px)}44.83%{transform:translate(704px,32px)}45.09%,54.64%{transform:translate(704px,48px)}45.36%,53.32%,56.5%{transform:translate(720px,48px)}45.89%,48.54%{transform:translate(720px,80px)}46.42%{transform:translate(688px,80px)}46.68%{transform:translate(688px,64px)}47.21%{transform:translate(656px,64px)}47.48%{transform:translate(656px,80px)}49.07%,58.09%{transform:translate(720px,112px)}49.6%{transform:translate(752px,112px)}49.87%{transform:translate(752px,96px)}51.46%,84.35%{transform:translate(768px,16px)}51.99%{transform:translate(736px,16px)}52.25%{transform:translate(736px,0px)}52.52%{transform:translate(720px,0px)}53.58%{transform:translate(736px,48px)}53.85%{transform:translate(736px,64px)}54.38%{transform:translate(704px,64px)}54.91%{transform:translate(688px,48px)}55.17%{transform:translate(688px,32px)}55.44%{transform:translate(672px,32px)}55.7%{transform:translate(672px,48px)}57.29%{transform:translate(720px,96px)}57.56%,81.96%{transform:translate(736px,96px)}57.82%{transform:translate(736px,112px)}59.68%{transform:translate(720px,16px)}66.31%{transform:translate(320px,16px)}66.58%{transform:translate(320px,32px)}69.5%{transform:translate(144px,32px)}69.76%{transform:translate(144px,48px)}70.56%,97.08%{transform:translate(96px,48px)}71.35%{transform:translate(96px,96px)}83.02%{transform:translate(736px,32px)}83.82%{transform:translate(752px,0px)}84.62%{transform:translate(752px,16px)}85.68%{transform:translate(752px,80px)}96.02%{transform:translate(128px,80px)}96.29%{transform:translate(128px,64px)}97.35%{transform:translate(80px,48px)}97.88%{transform:translate(64px,32px)}98.67%{transform:translate(64px,-16px)}}.s.s0{transform:translate(0px,-16px);animation-name:s0}@keyframes s1{0%,99.73%{transform:translate(16px,-16px)}0.27%{transform:translate(0px,-16px)}0.53%{transform:translate(0px,0px)}2.39%{transform:translate(112px,0px)}2.65%{transform:translate(112px,16px)}3.18%{transform:translate(144px,16px)}3.45%{transform:translate(144px,0px)}3.71%{transform:translate(160px,0px)}4.77%{transform:translate(160px,64px)}5.84%,97.08%{transform:translate(96px,64px)}6.1%{transform:translate(96px,80px)}6.37%,10.08%{transform:translate(80px,80px)}7.16%,97.88%{transform:translate(80px,32px)}7.96%{transform:translate(32px,32px)}9.02%{transform:translate(32px,96px)}9.81%{transform:translate(80px,96px)}11.94%{transform:translate(192px,80px)}12.2%{transform:translate(192px,64px)}14.06%{transform:translate(304px,64px)}14.32%{transform:translate(304px,48px)}14.85%{transform:translate(336px,48px)}15.38%{transform:translate(336px,80px)}16.45%{transform:translate(400px,80px)}17.77%{transform:translate(400px,0px)}18.04%{transform:translate(384px,0px)}18.3%{transform:translate(384px,16px)}19.63%{transform:translate(464px,16px)}19.89%{transform:translate(464px,32px)}20.16%{transform:translate(480px,32px)}20.69%{transform:translate(480px,64px)}21.49%{transform:translate(432px,64px)}22.02%{transform:translate(432px,96px)}24.14%{transform:translate(560px,96px)}24.67%{transform:translate(560px,64px)}24.93%{transform:translate(544px,64px)}25.99%{transform:translate(544px,0px)}27.06%{transform:translate(480px,0px)}27.32%{transform:translate(480px,-16px)}30.24%{transform:translate(656px,-16px)}30.77%{transform:translate(656px,16px)}33.69%{transform:translate(832px,16px)}33.95%{transform:translate(832px,0px)}35.01%,84.35%{transform:translate(768px,0px)}35.54%,38.73%{transform:translate(768px,32px)}36.6%{transform:translate(832px,32px)}36.87%{transform:translate(832px,48px)}38.2%{transform:translate(752px,48px)}38.46%,83.55%{transform:translate(752px,32px)}39.26%{transform:translate(768px,64px)}40.05%,42.71%{transform:translate(816px,64px)}40.32%{transform:translate(816px,80px)}41.11%{transform:translate(768px,80px)}41.38%,50.4%{transform:translate(768px,96px)}42.18%{transform:translate(816px,96px)}44.3%{transform:translate(720px,64px)}44.83%{transform:translate(720px,32px)}45.09%{transform:translate(704px,32px)}45.36%,54.91%{transform:translate(704px,48px)}45.62%,53.58%,56.76%{transform:translate(720px,48px)}46.15%,48.81%{transform:translate(720px,80px)}46.68%{transform:translate(688px,80px)}46.95%{transform:translate(688px,64px)}47.48%{transform:translate(656px,64px)}47.75%{transform:translate(656px,80px)}49.34%,58.36%{transform:translate(720px,112px)}49.87%{transform:translate(752px,112px)}50.13%{transform:translate(752px,96px)}51.72%,84.62%{transform:translate(768px,16px)}52.25%{transform:translate(736px,16px)}52.52%{transform:translate(736px,0px)}52.79%{transform:translate(720px,0px)}53.85%{transform:translate(736px,48px)}54.11%{transform:translate(736px,64px)}54.64%{transform:translate(704px,64px)}55.17%{transform:translate(688px,48px)}55.44%{transform:translate(688px,32px)}55.7%{transform:translate(672px,32px)}55.97%{transform:translate(672px,48px)}57.56%{transform:translate(720px,96px)}57.82%,82.23%{transform:translate(736px,96px)}58.09%{transform:translate(736px,112px)}59.95%{transform:translate(720px,16px)}66.58%{transform:translate(320px,16px)}66.84%{transform:translate(320px,32px)}69.76%{transform:translate(144px,32px)}70.03%{transform:translate(144px,48px)}70.82%,97.35%{transform:translate(96px,48px)}71.62%{transform:translate(96px,96px)}83.29%{transform:translate(736px,32px)}84.08%{transform:translate(752px,0px)}84.88%{transform:translate(752px,16px)}85.94%{transform:translate(752px,80px)}96.29%{transform:translate(128px,80px)}96.55%{transform:translate(128px,64px)}97.61%{transform:translate(80px,48px)}98.14%{transform:translate(64px,32px)}98.94%{transform:translate(64px,-16px)}}.s.s1{transform:translate(16px,-16px);animation-name:s1}@keyframes s2{0%,99.73%{transform:translate(32px,-16px)}0.53%{transform:translate(0px,-16px)}0.8%{transform:translate(0px,0px)}2.65%{transform:translate(112px,0px)}2.92%{transform:translate(112px,16px)}3.45%{transform:translate(144px,16px)}3.71%{transform:translate(144px,0px)}3.98%{transform:translate(160px,0px)}5.04%{transform:translate(160px,64px)}6.1%,97.35%{transform:translate(96px,64px)}6.37%{transform:translate(96px,80px)}6.63%,10.34%{transform:translate(80px,80px)}7.43%,98.14%{transform:translate(80px,32px)}8.22%{transform:translate(32px,32px)}9.28%{transform:translate(32px,96px)}10.08%{transform:translate(80px,96px)}12.2%{transform:translate(192px,80px)}12.47%{transform:translate(192px,64px)}14.32%{transform:translate(304px,64px)}14.59%{transform:translate(304px,48px)}15.12%{transform:translate(336px,48px)}15.65%{transform:translate(336px,80px)}16.71%{transform:translate(400px,80px)}18.04%{transform:translate(400px,0px)}18.3%{transform:translate(384px,0px)}18.57%{transform:translate(384px,16px)}19.89%{transform:translate(464px,16px)}20.16%{transform:translate(464px,32px)}20.42%{transform:translate(480px,32px)}20.95%{transform:translate(480px,64px)}21.75%{transform:translate(432px,64px)}22.28%{transform:translate(432px,96px)}24.4%{transform:translate(560px,96px)}24.93%{transform:translate(560px,64px)}25.2%{transform:translate(544px,64px)}26.26%{transform:translate(544px,0px)}27.32%{transform:translate(480px,0px)}27.59%{transform:translate(480px,-16px)}30.5%{transform:translate(656px,-16px)}31.03%{transform:translate(656px,16px)}33.95%{transform:translate(832px,16px)}34.22%{transform:translate(832px,0px)}35.28%,84.62%{transform:translate(768px,0px)}35.81%,38.99%{transform:translate(768px,32px)}36.87%{transform:translate(832px,32px)}37.14%{transform:translate(832px,48px)}38.46%{transform:translate(752px,48px)}38.73%,83.82%{transform:translate(752px,32px)}39.52%{transform:translate(768px,64px)}40.32%,42.97%{transform:translate(816px,64px)}40.58%{transform:translate(816px,80px)}41.38%{transform:translate(768px,80px)}41.64%,50.66%{transform:translate(768px,96px)}42.44%{transform:translate(816px,96px)}44.56%{transform:translate(720px,64px)}45.09%{transform:translate(720px,32px)}45.36%{transform:translate(704px,32px)}45.62%,55.17%{transform:translate(704px,48px)}45.89%,53.85%,57.03%{transform:translate(720px,48px)}46.42%,49.07%{transform:translate(720px,80px)}46.95%{transform:translate(688px,80px)}47.21%{transform:translate(688px,64px)}47.75%{transform:translate(656px,64px)}48.01%{transform:translate(656px,80px)}49.6%,58.62%{transform:translate(720px,112px)}50.13%{transform:translate(752px,112px)}50.4%{transform:translate(752px,96px)}51.99%,84.88%{transform:translate(768px,16px)}52.52%{transform:translate(736px,16px)}52.79%{transform:translate(736px,0px)}53.05%{transform:translate(720px,0px)}54.11%{transform:translate(736px,48px)}54.38%{transform:translate(736px,64px)}54.91%{transform:translate(704px,64px)}55.44%{transform:translate(688px,48px)}55.7%{transform:translate(688px,32px)}55.97%{transform:translate(672px,32px)}56.23%{transform:translate(672px,48px)}57.82%{transform:translate(720px,96px)}58.09%,82.49%{transform:translate(736px,96px)}58.36%{transform:translate(736px,112px)}60.21%{transform:translate(720px,16px)}66.84%{transform:translate(320px,16px)}67.11%{transform:translate(320px,32px)}70.03%{transform:translate(144px,32px)}70.29%{transform:translate(144px,48px)}71.09%,97.61%{transform:translate(96px,48px)}71.88%{transform:translate(96px,96px)}83.55%{transform:translate(736px,32px)}84.35%{transform:translate(752px,0px)}85.15%{transform:translate(752px,16px)}86.21%{transform:translate(752px,80px)}96.55%{transform:translate(128px,80px)}96.82%{transform:translate(128px,64px)}97.88%{transform:translate(80px,48px)}98.41%{transform:translate(64px,32px)}99.2%{transform:translate(64px,-16px)}}.s.s2{transform:translate(32px,-16px);animation-name:s2}@keyframes s3{0%,99.73%{transform:translate(48px,-16px)}0.8%{transform:translate(0px,-16px)}1.06%{transform:translate(0px,0px)}2.92%{transform:translate(112px,0px)}3.18%{transform:translate(112px,16px)}3.71%{transform:translate(144px,16px)}3.98%{transform:translate(144px,0px)}4.24%{transform:translate(160px,0px)}5.31%{transform:translate(160px,64px)}6.37%,97.61%{transform:translate(96px,64px)}6.63%{transform:translate(96px,80px)}6.9%,10.61%{transform:translate(80px,80px)}7.69%,98.41%{transform:translate(80px,32px)}8.49%{transform:translate(32px,32px)}9.55%{transform:translate(32px,96px)}10.34%{transform:translate(80px,96px)}12.47%{transform:translate(192px,80px)}12.73%{transform:translate(192px,64px)}14.59%{transform:translate(304px,64px)}14.85%{transform:translate(304px,48px)}15.38%{transform:translate(336px,48px)}15.92%{transform:translate(336px,80px)}16.98%{transform:translate(400px,80px)}18.3%{transform:translate(400px,0px)}18.57%{transform:translate(384px,0px)}18.83%{transform:translate(384px,16px)}20.16%{transform:translate(464px,16px)}20.42%{transform:translate(464px,32px)}20.69%{transform:translate(480px,32px)}21.22%{transform:translate(480px,64px)}22.02%{transform:translate(432px,64px)}22.55%{transform:translate(432px,96px)}24.67%{transform:translate(560px,96px)}25.2%{transform:translate(560px,64px)}25.46%{transform:translate(544px,64px)}26.53%{transform:translate(544px,0px)}27.59%{transform:translate(480px,0px)}27.85%{transform:translate(480px,-16px)}30.77%{transform:translate(656px,-16px)}31.3%{transform:translate(656px,16px)}34.22%{transform:translate(832px,16px)}34.48%{transform:translate(832px,0px)}35.54%,84.88%{transform:translate(768px,0px)}36.07%,39.26%{transform:translate(768px,32px)}37.14%{transform:translate(832px,32px)}37.4%{transform:translate(832px,48px)}38.73%{transform:translate(752px,48px)}38.99%,84.08%{transform:translate(752px,32px)}39.79%{transform:translate(768px,64px)}40.58%,43.24%{transform:translate(816px,64px)}40.85%{transform:translate(816px,80px)}41.64%{transform:translate(768px,80px)}41.91%,50.93%{transform:translate(768px,96px)}42.71%{transform:translate(816px,96px)}44.83%{transform:translate(720px,64px)}45.36%{transform:translate(720px,32px)}45.62%{transform:translate(704px,32px)}45.89%,55.44%{transform:translate(704px,48px)}46.15%,54.11%,57.29%{transform:translate(720px,48px)}46.68%,49.34%{transform:translate(720px,80px)}47.21%{transform:translate(688px,80px)}47.48%{transform:translate(688px,64px)}48.01%{transform:translate(656px,64px)}48.28%{transform:translate(656px,80px)}49.87%,58.89%{transform:translate(720px,112px)}50.4%{transform:translate(752px,112px)}50.66%{transform:translate(752px,96px)}52.25%,85.15%{transform:translate(768px,16px)}52.79%{transform:translate(736px,16px)}53.05%{transform:translate(736px,0px)}53.32%{transform:translate(720px,0px)}54.38%{transform:translate(736px,48px)}54.64%{transform:translate(736px,64px)}55.17%{transform:translate(704px,64px)}55.7%{transform:translate(688px,48px)}55.97%{transform:translate(688px,32px)}56.23%{transform:translate(672px,32px)}56.5%{transform:translate(672px,48px)}58.09%{transform:translate(720px,96px)}58.36%,82.76%{transform:translate(736px,96px)}58.62%{transform:translate(736px,112px)}60.48%{transform:translate(720px,16px)}67.11%{transform:translate(320px,16px)}67.37%{transform:translate(320px,32px)}70.29%{transform:translate(144px,32px)}70.56%{transform:translate(144px,48px)}71.35%,97.88%{transform:translate(96px,48px)}72.15%{transform:translate(96px,96px)}83.82%{transform:translate(736px,32px)}84.62%{transform:translate(752px,0px)}85.41%{transform:translate(752px,16px)}86.47%{transform:translate(752px,80px)}96.82%{transform:translate(128px,80px)}97.08%{transform:translate(128px,64px)}98.14%{transform:translate(80px,48px)}98.67%{transform:translate(64px,32px)}99.47%{transform:translate(64px,-16px)}}.s.s3{transform:translate(48px,-16px);animation-name:s3}</style><rect class="c" x="2" y="2" rx="2" ry="2"/><rect class="c" x="2" y="18" rx="2" ry="2"/><rect class="c" x="2" y="34" rx="2" ry="2"/><rect class="c" x="2" y="50" rx="2" ry="2"/><rect class="c" x="2" y="66" rx="2" ry="2"/><rect class="c" x="2" y="82" rx="2" ry="2"/><rect class="c" x="2" y="98" rx="2" ry="2"/><rect class="c" x="18" y="2" rx="2" ry="2"/><rect class="c" x="18" y="18" rx="2" ry="2"/><rect class="c" x="18" y="34" rx="2" ry="2"/><rect class="c" x="18" y="50" rx="2" ry="2"/><rect class="c" x="18" y="66" rx="2" ry="2"/><rect class="c" x="18" y="82" rx="2" ry="2"/><rect class="c" x="18" y="98" rx="2" ry="2"/><rect class="c" x="34" y="2" rx="2" ry="2"/><rect class="c" x="34" y="18" rx="2" ry="2"/><rect class="c" x="34" y="34" rx="2" ry="2"/><rect class="c" x="34" y="50" rx="2" ry="2"/><rect class="c" x="34" y="66" rx="2" ry="2"/><rect class="c" x="34" y="82" rx="2" ry="2"/><rect class="c c0" x="34" y="98" rx="2" ry="2"/><rect class="c" x="50" y="2" rx="2" ry="2"/><rect class="c" x="50" y="18" rx="2" ry="2"/><rect class="c" x="50" y="34" rx="2" ry="2"/><rect class="c" x="50" y="50" rx="2" ry="2"/><rect class="c" x="50" y="66" rx="2" ry="2"/><rect class="c" x="50" y="82" rx="2" ry="2"/><rect class="c" x="50" y="98" rx="2" ry="2"/><rect class="c" x="66" y="2" rx="2" ry="2"/><rect class="c" x="66" y="18" rx="2" ry="2"/><rect class="c" x="66" y="34" rx="2" ry="2"/><rect class="c" x="66" y="50" rx="2" ry="2"/><rect class="c" x="66" y="66" rx="2" ry="2"/><rect class="c" x="66" y="82" rx="2" ry="2"/><rect class="c" x="66" y="98" rx="2" ry="2"/><rect class="c c1" x="82" y="2" rx="2" ry="2"/><rect class="c" x="82" y="18" rx="2" ry="2"/><rect class="c c2" x="82" y="34" rx="2" ry="2"/><rect class="c" x="82" y="50" rx="2" ry="2"/><rect class="c" x="82" y="66" rx="2" ry="2"/><rect class="c" x="82" y="82" rx="2" ry="2"/><rect class="c" x="82" y="98" rx="2" ry="2"/><rect class="c" x="98" y="2" rx="2" ry="2"/><rect class="c" x="98" y="18" rx="2" ry="2"/><rect class="c" x="98" y="34" rx="2" ry="2"/><rect class="c" x="98" y="50" rx="2" ry="2"/><rect class="c" x="98" y="66" rx="2" ry="2"/><rect class="c c3" x="98" y="82" rx="2" ry="2"/><rect class="c c4" x="98" y="98" rx="2" ry="2"/><rect class="c c5" x="114" y="2" rx="2" ry="2"/><rect class="c c6" x="114" y="18" rx="2" ry="2"/><rect class="c" x="114" y="34" rx="2" ry="2"/><rect class="c" x="114" y="50" rx="2" ry="2"/><rect class="c" x="114" y="66" rx="2" ry="2"/><rect class="c" x="114" y="82" rx="2" ry="2"/><rect class="c" x="114" y="98" rx="2" ry="2"/><rect class="c" x="130" y="2" rx="2" ry="2"/><rect class="c" x="130" y="18" rx="2" ry="2"/><rect class="c" x="130" y="34" rx="2" ry="2"/><rect class="c" x="130" y="50" rx="2" ry="2"/><rect class="c" x="130" y="66" rx="2" ry="2"/><rect class="c" x="130" y="82" rx="2" ry="2"/><rect class="c" x="130" y="98" rx="2" ry="2"/><rect class="c c7" x="146" y="2" rx="2" ry="2"/><rect class="c c8" x="146" y="18" rx="2" ry="2"/><rect class="c" x="146" y="34" rx="2" ry="2"/><rect class="c c9" x="146" y="50" rx="2" ry="2"/><rect class="c ca" x="146" y="66" rx="2" ry="2"/><rect class="c" x="146" y="82" rx="2" ry="2"/><rect class="c" x="146" y="98" rx="2" ry="2"/><rect class="c" x="162" y="2" rx="2" ry="2"/><rect class="c" x="162" y="18" rx="2" ry="2"/><rect class="c" x="162" y="34" rx="2" ry="2"/><rect class="c" x="162" y="50" rx="2" ry="2"/><rect class="c" x="162" y="66" rx="2" ry="2"/><rect class="c" x="162" y="82" rx="2" ry="2"/><rect class="c" x="162" y="98" rx="2" ry="2"/><rect class="c" x="178" y="2" rx="2" ry="2"/><rect class="c" x="178" y="18" rx="2" ry="2"/><rect class="c" x="178" y="34" rx="2" ry="2"/><rect class="c" x="178" y="50" rx="2" ry="2"/><rect class="c" x="178" y="66" rx="2" ry="2"/><rect class="c" x="178" y="82" rx="2" ry="2"/><rect class="c" x="178" y="98" rx="2" ry="2"/><rect class="c" x="194" y="2" rx="2" ry="2"/><rect class="c" x="194" y="18" rx="2" ry="2"/><rect class="c" x="194" y="34" rx="2" ry="2"/><rect class="c" x="194" y="50" rx="2" ry="2"/><rect class="c cb" x="194" y="66" rx="2" ry="2"/><rect class="c cc" x="194" y="82" rx="2" ry="2"/><rect class="c" x="194" y="98" rx="2" ry="2"/><rect class="c" x="210" y="2" rx="2" ry="2"/><rect class="c" x="210" y="18" rx="2" ry="2"/><rect class="c" x="210" y="34" rx="2" ry="2"/><rect class="c" x="210" y="50" rx="2" ry="2"/><rect class="c" x="210" y="66" rx="2" ry="2"/><rect class="c" x="210" y="82" rx="2" ry="2"/><rect class="c" x="210" y="98" rx="2" ry="2"/><rect class="c" x="226" y="2" rx="2" ry="2"/><rect class="c" x="226" y="18" rx="2" ry="2"/><rect class="c" x="226" y="34" rx="2" ry="2"/><rect class="c" x="226" y="50" rx="2" ry="2"/><rect class="c" x="226" y="66" rx="2" ry="2"/><rect class="c" x="226" y="82" rx="2" ry="2"/><rect class="c" x="226" y="98" rx="2" ry="2"/><rect class="c" x="242" y="2" rx="2" ry="2"/><rect class="c" x="242" y="18" rx="2" ry="2"/><rect class="c" x="242" y="34" rx="2" ry="2"/><rect class="c" x="242" y="50" rx="2" ry="2"/><rect class="c" x="242" y="66" rx="2" ry="2"/><rect class="c" x="242" y="82" rx="2" ry="2"/><rect class="c" x="242" y="98" rx="2" ry="2"/><rect class="c" x="258" y="2" rx="2" ry="2"/><rect class="c" x="258" y="18" rx="2" ry="2"/><rect class="c" x="258" y="34" rx="2" ry="2"/><rect class="c" x="258" y="50" rx="2" ry="2"/><rect class="c" x="258" y="66" rx="2" ry="2"/><rect class="c" x="258" y="82" rx="2" ry="2"/><rect class="c" x="258" y="98" rx="2" ry="2"/><rect class="c" x="274" y="2" rx="2" ry="2"/><rect class="c" x="274" y="18" rx="2" ry="2"/><rect class="c" x="274" y="34" rx="2" ry="2"/><rect class="c" x="274" y="50" rx="2" ry="2"/><rect class="c" x="274" y="66" rx="2" ry="2"/><rect class="c" x="274" y="82" rx="2" ry="2"/><rect class="c" x="274" y="98" rx="2" ry="2"/><rect class="c" x="290" y="2" rx="2" ry="2"/><rect class="c" x="290" y="18" rx="2" ry="2"/><rect class="c" x="290" y="34" rx="2" ry="2"/><rect class="c" x="290" y="50" rx="2" ry="2"/><rect class="c" x="290" y="66" rx="2" ry="2"/><rect class="c" x="290" y="82" rx="2" ry="2"/><rect class="c" x="290" y="98" rx="2" ry="2"/><rect class="c" x="306" y="2" rx="2" ry="2"/><rect class="c" x="306" y="18" rx="2" ry="2"/><rect class="c" x="306" y="34" rx="2" ry="2"/><rect class="c cd" x="306" y="50" rx="2" ry="2"/><rect class="c" x="306" y="66" rx="2" ry="2"/><rect class="c" x="306" y="82" rx="2" ry="2"/><rect class="c" x="306" y="98" rx="2" ry="2"/><rect class="c" x="322" y="2" rx="2" ry="2"/><rect class="c" x="322" y="18" rx="2" ry="2"/><rect class="c ce" x="322" y="34" rx="2" ry="2"/><rect class="c cf" x="322" y="50" rx="2" ry="2"/><rect class="c" x="322" y="66" rx="2" ry="2"/><rect class="c" x="322" y="82" rx="2" ry="2"/><rect class="c" x="322" y="98" rx="2" ry="2"/><rect class="c" x="338" y="2" rx="2" ry="2"/><rect class="c" x="338" y="18" rx="2" ry="2"/><rect class="c" x="338" y="34" rx="2" ry="2"/><rect class="c" x="338" y="50" rx="2" ry="2"/><rect class="c" x="338" y="66" rx="2" ry="2"/><rect class="c cg" x="338" y="82" rx="2" ry="2"/><rect class="c" x="338" y="98" rx="2" ry="2"/><rect class="c" x="354" y="2" rx="2" ry="2"/><rect class="c" x="354" y="18" rx="2" ry="2"/><rect class="c" x="354" y="34" rx="2" ry="2"/><rect class="c" x="354" y="50" rx="2" ry="2"/><rect class="c" x="354" y="66" rx="2" ry="2"/><rect class="c" x="354" y="82" rx="2" ry="2"/><rect class="c" x="354" y="98" rx="2" ry="2"/><rect class="c" x="370" y="2" rx="2" ry="2"/><rect class="c" x="370" y="18" rx="2" ry="2"/><rect class="c" x="370" y="34" rx="2" ry="2"/><rect class="c" x="370" y="50" rx="2" ry="2"/><rect class="c" x="370" y="66" rx="2" ry="2"/><rect class="c ch" x="370" y="82" rx="2" ry="2"/><rect class="c" x="370" y="98" rx="2" ry="2"/><rect class="c ci" x="386" y="2" rx="2" ry="2"/><rect class="c" x="386" y="18" rx="2" ry="2"/><rect class="c" x="386" y="34" rx="2" ry="2"/><rect class="c" x="386" y="50" rx="2" ry="2"/><rect class="c" x="386" y="66" rx="2" ry="2"/><rect class="c cj" x="386" y="82" rx="2" ry="2"/><rect class="c" x="386" y="98" rx="2" ry="2"/><rect class="c ck" x="402" y="2" rx="2" ry="2"/><rect class="c cl" x="402" y="18" rx="2" ry="2"/><rect class="c" x="402" y="34" rx="2" ry="2"/><rect class="c cm" x="402" y="50" rx="2" ry="2"/><rect class="c" x="402" y="66" rx="2" ry="2"/><rect class="c" x="402" y="82" rx="2" ry="2"/><rect class="c" x="402" y="98" rx="2" ry="2"/><rect class="c" x="418" y="2" rx="2" ry="2"/><rect class="c" x="418" y="18" rx="2" ry="2"/><rect class="c" x="418" y="34" rx="2" ry="2"/><rect class="c" x="418" y="50" rx="2" ry="2"/><rect class="c" x="418" y="66" rx="2" ry="2"/><rect class="c" x="418" y="82" rx="2" ry="2"/><rect class="c" x="418" y="98" rx="2" ry="2"/><rect class="c" x="434" y="2" rx="2" ry="2"/><rect class="c" x="434" y="18" rx="2" ry="2"/><rect class="c" x="434" y="34" rx="2" ry="2"/><rect class="c" x="434" y="50" rx="2" ry="2"/><rect class="c cn" x="434" y="66" rx="2" ry="2"/><rect class="c" x="434" y="82" rx="2" ry="2"/><rect class="c co" x="434" y="98" rx="2" ry="2"/><rect class="c" x="450" y="2" rx="2" ry="2"/><rect class="c" x="450" y="18" rx="2" ry="2"/><rect class="c" x="450" y="34" rx="2" ry="2"/><rect class="c" x="450" y="50" rx="2" ry="2"/><rect class="c cp" x="450" y="66" rx="2" ry="2"/><rect class="c" x="450" y="82" rx="2" ry="2"/><rect class="c" x="450" y="98" rx="2" ry="2"/><rect class="c" x="466" y="2" rx="2" ry="2"/><rect class="c" x="466" y="18" rx="2" ry="2"/><rect class="c cq" x="466" y="34" rx="2" ry="2"/><rect class="c" x="466" y="50" rx="2" ry="2"/><rect class="c" x="466" y="66" rx="2" ry="2"/><rect class="c" x="466" y="82" rx="2" ry="2"/><rect class="c" x="466" y="98" rx="2" ry="2"/><rect class="c cr" x="482" y="2" rx="2" ry="2"/><rect class="c cs" x="482" y="18" rx="2" ry="2"/><rect class="c" x="482" y="34" rx="2" ry="2"/><rect class="c" x="482" y="50" rx="2" ry="2"/><rect class="c ct" x="482" y="66" rx="2" ry="2"/><rect class="c" x="482" y="82" rx="2" ry="2"/><rect class="c" x="482" y="98" rx="2" ry="2"/><rect class="c" x="498" y="2" rx="2" ry="2"/><rect class="c" x="498" y="18" rx="2" ry="2"/><rect class="c" x="498" y="34" rx="2" ry="2"/><rect class="c" x="498" y="50" rx="2" ry="2"/><rect class="c" x="498" y="66" rx="2" ry="2"/><rect class="c" x="498" y="82" rx="2" ry="2"/><rect class="c" x="498" y="98" rx="2" ry="2"/><rect class="c" x="514" y="2" rx="2" ry="2"/><rect class="c" x="514" y="18" rx="2" ry="2"/><rect class="c" x="514" y="34" rx="2" ry="2"/><rect class="c" x="514" y="50" rx="2" ry="2"/><rect class="c" x="514" y="66" rx="2" ry="2"/><rect class="c" x="514" y="82" rx="2" ry="2"/><rect class="c" x="514" y="98" rx="2" ry="2"/><rect class="c" x="530" y="2" rx="2" ry="2"/><rect class="c" x="530" y="18" rx="2" ry="2"/><rect class="c" x="530" y="34" rx="2" ry="2"/><rect class="c" x="530" y="50" rx="2" ry="2"/><rect class="c" x="530" y="66" rx="2" ry="2"/><rect class="c" x="530" y="82" rx="2" ry="2"/><rect class="c" x="530" y="98" rx="2" ry="2"/><rect class="c" x="546" y="2" rx="2" ry="2"/><rect class="c" x="546" y="18" rx="2" ry="2"/><rect class="c" x="546" y="34" rx="2" ry="2"/><rect class="c" x="546" y="50" rx="2" ry="2"/><rect class="c cu" x="546" y="66" rx="2" ry="2"/><rect class="c" x="546" y="82" rx="2" ry="2"/><rect class="c" x="546" y="98" rx="2" ry="2"/><rect class="c" x="562" y="2" rx="2" ry="2"/><rect class="c" x="562" y="18" rx="2" ry="2"/><rect class="c" x="562" y="34" rx="2" ry="2"/><rect class="c" x="562" y="50" rx="2" ry="2"/><rect class="c" x="562" y="66" rx="2" ry="2"/><rect class="c cv" x="562" y="82" rx="2" ry="2"/><rect class="c" x="562" y="98" rx="2" ry="2"/><rect class="c" x="578" y="2" rx="2" ry="2"/><rect class="c" x="578" y="18" rx="2" ry="2"/><rect class="c" x="578" y="34" rx="2" ry="2"/><rect class="c" x="578" y="50" rx="2" ry="2"/><rect class="c" x="578" y="66" rx="2" ry="2"/><rect class="c" x="578" y="82" rx="2" ry="2"/><rect class="c" x="578" y="98" rx="2" ry="2"/><rect class="c" x="594" y="2" rx="2" ry="2"/><rect class="c" x="594" y="18" rx="2" ry="2"/><rect class="c" x="594" y="34" rx="2" ry="2"/><rect class="c" x="594" y="50" rx="2" ry="2"/><rect class="c" x="594" y="66" rx="2" ry="2"/><rect class="c" x="594" y="82" rx="2" ry="2"/><rect class="c" x="594" y="98" rx="2" ry="2"/><rect class="c" x="610" y="2" rx="2" ry="2"/><rect class="c" x="610" y="18" rx="2" ry="2"/><rect class="c" x="610" y="34" rx="2" ry="2"/><rect class="c" x="610" y="50" rx="2" ry="2"/><rect class="c" x="610" y="66" rx="2" ry="2"/><rect class="c" x="610" y="82" rx="2" ry="2"/><rect class="c" x="610" y="98" rx="2" ry="2"/><rect class="c" x="626" y="2" rx="2" ry="2"/><rect class="c" x="626" y="18" rx="2" ry="2"/><rect class="c" x="626" y="34" rx="2" ry="2"/><rect class="c" x="626" y="50" rx="2" ry="2"/><rect class="c" x="626" y="66" rx="2" ry="2"/><rect class="c" x="626" y="82" rx="2" ry="2"/><rect class="c" x="626" y="98" rx="2" ry="2"/><rect class="c" x="642" y="2" rx="2" ry="2"/><rect class="c" x="642" y="18" rx="2" ry="2"/><rect class="c" x="642" y="34" rx="2" ry="2"/><rect class="c" x="642" y="50" rx="2" ry="2"/><rect class="c" x="642" y="66" rx="2" ry="2"/><rect class="c" x="642" y="82" rx="2" ry="2"/><rect class="c" x="642" y="98" rx="2" ry="2"/><rect class="c" x="658" y="2" rx="2" ry="2"/><rect class="c cw" x="658" y="18" rx="2" ry="2"/><rect class="c" x="658" y="34" rx="2" ry="2"/><rect class="c" x="658" y="50" rx="2" ry="2"/><rect class="c cx" x="658" y="66" rx="2" ry="2"/><rect class="c cy" x="658" y="82" rx="2" ry="2"/><rect class="c" x="658" y="98" rx="2" ry="2"/><rect class="c" x="674" y="2" rx="2" ry="2"/><rect class="c cz" x="674" y="18" rx="2" ry="2"/><rect class="c c10" x="674" y="34" rx="2" ry="2"/><rect class="c" x="674" y="50" rx="2" ry="2"/><rect class="c" x="674" y="66" rx="2" ry="2"/><rect class="c" x="674" y="82" rx="2" ry="2"/><rect class="c" x="674" y="98" rx="2" ry="2"/><rect class="c" x="690" y="2" rx="2" ry="2"/><rect class="c c11" x="690" y="18" rx="2" ry="2"/><rect class="c" x="690" y="34" rx="2" ry="2"/><rect class="c c12" x="690" y="50" rx="2" ry="2"/><rect class="c c13" x="690" y="66" rx="2" ry="2"/><rect class="c" x="690" y="82" rx="2" ry="2"/><rect class="c" x="690" y="98" rx="2" ry="2"/><rect class="c" x="706" y="2" rx="2" ry="2"/><rect class="c" x="706" y="18" rx="2" ry="2"/><rect class="c c14" x="706" y="34" rx="2" ry="2"/><rect class="c c15" x="706" y="50" rx="2" ry="2"/><rect class="c c16" x="706" y="66" rx="2" ry="2"/><rect class="c c17" x="706" y="82" rx="2" ry="2"/><rect class="c" x="706" y="98" rx="2" ry="2"/><rect class="c" x="722" y="2" rx="2" ry="2"/><rect class="c c18" x="722" y="18" rx="2" ry="2"/><rect class="c c19" x="722" y="34" rx="2" ry="2"/><rect class="c c1a" x="722" y="50" rx="2" ry="2"/><rect class="c" x="722" y="66" rx="2" ry="2"/><rect class="c c1b" x="722" y="82" rx="2" ry="2"/><rect class="c" x="722" y="98" rx="2" ry="2"/><rect class="c c1c" x="738" y="2" rx="2" ry="2"/><rect class="c c1d" x="738" y="18" rx="2" ry="2"/><rect class="c c1e" x="738" y="34" rx="2" ry="2"/><rect class="c c1f" x="738" y="50" rx="2" ry="2"/><rect class="c c1g" x="738" y="66" rx="2" ry="2"/><rect class="c c1h" x="738" y="82" rx="2" ry="2"/><rect class="c c1i" x="738" y="98" rx="2" ry="2"/><rect class="c c1j" x="754" y="2" rx="2" ry="2"/><rect class="c c1k" x="754" y="18" rx="2" ry="2"/><rect class="c c1l" x="754" y="34" rx="2" ry="2"/><rect class="c c1m" x="754" y="50" rx="2" ry="2"/><rect class="c c1n" x="754" y="66" rx="2" ry="2"/><rect class="c c1o" x="754" y="82" rx="2" ry="2"/><rect class="c c1p" x="754" y="98" rx="2" ry="2"/><rect class="c c1q" x="770" y="2" rx="2" ry="2"/><rect class="c c1r" x="770" y="18" rx="2" ry="2"/><rect class="c c1s" x="770" y="34" rx="2" ry="2"/><rect class="c c1t" x="770" y="50" rx="2" ry="2"/><rect class="c c1u" x="770" y="66" rx="2" ry="2"/><rect class="c c1v" x="770" y="82" rx="2" ry="2"/><rect class="c c1w" x="770" y="98" rx="2" ry="2"/><rect class="c c1x" x="786" y="2" rx="2" ry="2"/><rect class="c c1y" x="786" y="18" rx="2" ry="2"/><rect class="c c1z" x="786" y="34" rx="2" ry="2"/><rect class="c c20" x="786" y="50" rx="2" ry="2"/><rect class="c c21" x="786" y="66" rx="2" ry="2"/><rect class="c c22" x="786" y="82" rx="2" ry="2"/><rect class="c c23" x="786" y="98" rx="2" ry="2"/><rect class="c c24" x="802" y="2" rx="2" ry="2"/><rect class="c c25" x="802" y="18" rx="2" ry="2"/><rect class="c c26" x="802" y="34" rx="2" ry="2"/><rect class="c c27" x="802" y="50" rx="2" ry="2"/><rect class="c c28" x="802" y="66" rx="2" ry="2"/><rect class="c c29" x="802" y="82" rx="2" ry="2"/><rect class="c c2a" x="802" y="98" rx="2" ry="2"/><rect class="c c2b" x="818" y="2" rx="2" ry="2"/><rect class="c c2c" x="818" y="18" rx="2" ry="2"/><rect class="c c2d" x="818" y="34" rx="2" ry="2"/><rect class="c c2e" x="818" y="50" rx="2" ry="2"/><rect class="c c2f" x="818" y="66" rx="2" ry="2"/><rect class="c c2g" x="818" y="82" rx="2" ry="2"/><rect class="c c2h" x="818" y="98" rx="2" ry="2"/><rect class="c c2i" x="834" y="2" rx="2" ry="2"/><rect class="c c2j" x="834" y="18" rx="2" ry="2"/><rect class="c c2k" x="834" y="34" rx="2" ry="2"/><rect class="c c2l" x="834" y="50" rx="2" ry="2"/><rect class="u u0" height="12" width="731.3" x="0.0" y="144"/><rect class="u u1" height="12" width="81.8" x="730.7" y="144"/><rect class="u u2" height="12" width="18.6" x="811.9" y="144"/><rect class="u u3" height="12" width="18.6" x="830.0" y="144"/><rect class="s s0" x="0.8" y="0.8" width="14.4" height="14.4" rx="4.5" ry="4.5"/><rect class="s s1" x="1.8" y="1.8" width="12.3" height="12.3" rx="4.1" ry="4.1"/><rect class="s s2" x="2.6" y="2.6" width="10.8" height="10.8" rx="3.6" ry="3.6"/><rect class="s s3" x="3.0" y="3.0" width="9.9" height="9.9" rx="3.3" ry="3.3"/></svg>