<svg viewBox="-16 -32 880 192" width="880" height="192" xmlns="http://www.w3.org/2000/svg"><desc>Generated with https://github.com/Platane/snk</desc><style>:root{--cb:#1b1f230a;--cs:white;--ce:#0a0e12;--c0:#0a0e12;--c1:#1445a2;--c2:#1d65ee;--c3:#1f4eff;--c4:#466dff}.c{shape-rendering:geometricPrecision;fill:var(--ce);stroke-width:1px;stroke:var(--cb);animation:none 41100ms linear infinite;width:12px;height:12px}@keyframes c0{79.07%{fill:var(--c4)}79.09%,100%{fill:var(--ce)}}.c.c0{fill:var(--c4);animation-name:c0}@keyframes c1{50.84%{fill:var(--c2)}50.86%,100%{fill:var(--ce)}}.c.c1{fill:var(--c2);animation-name:c1}@keyframes c2{80.53%{fill:var(--c4)}80.55%,100%{fill:var(--ce)}}.c.c2{fill:var(--c4);animation-name:c2}@keyframes c3{0.72%{fill:var(--c1)}0.74%,100%{fill:var(--ce)}}.c.c3{fill:var(--c1);animation-name:c3}@keyframes c4{78.82%{fill:var(--c3)}78.84%,100%{fill:var(--ce)}}.c.c4{fill:var(--c3);animation-name:c4}@keyframes c5{79.55%{fill:var(--c4)}79.57%,100%{fill:var(--ce)}}.c.c5{fill:var(--c4);animation-name:c5}@keyframes c6{2.91%{fill:var(--c1)}2.93%,100%{fill:var(--ce)}}.c.c6{fill:var(--c1);animation-name:c6}@keyframes c7{2.67%{fill:var(--c1)}2.69%,100%{fill:var(--ce)}}.c.c7{fill:var(--c1);animation-name:c7}@keyframes c8{80.28%{fill:var(--c4)}80.3%,100%{fill:var(--ce)}}.c.c8{fill:var(--c4);animation-name:c8}@keyframes c9{82.47%{fill:var(--c4)}82.49%,100%{fill:var(--ce)}}.c.c9{fill:var(--c4);animation-name:c9}@keyframes ca{78.34%{fill:var(--c3)}78.36%,100%{fill:var(--ce)}}.c.ca{fill:var(--c3);animation-name:ca}@keyframes cb{3.64%{fill:var(--c1)}3.66%,100%{fill:var(--ce)}}.c.cb{fill:var(--c1);animation-name:cb}@keyframes cc{77.85%{fill:var(--c3)}77.87%,100%{fill:var(--ce)}}.c.cc{fill:var(--c3);animation-name:cc}@keyframes cd{47.92%{fill:var(--c2)}47.94%,100%{fill:var(--ce)}}.c.cd{fill:var(--c2);animation-name:cd}@keyframes ce{47.44%{fill:var(--c2)}47.46%,100%{fill:var(--ce)}}.c.ce{fill:var(--c2);animation-name:ce}@keyframes cf{47.19%{fill:var(--c2)}47.21%,100%{fill:var(--ce)}}.c.cf{fill:var(--c2);animation-name:cf}@keyframes cg{75.9%{fill:var(--c3)}75.92%,100%{fill:var(--ce)}}.c.cg{fill:var(--c3);animation-name:cg}@keyframes ch{48.41%{fill:var(--c2)}48.43%,100%{fill:var(--ce)}}.c.ch{fill:var(--c2);animation-name:ch}@keyframes ci{76.88%{fill:var(--c3)}76.9%,100%{fill:var(--ce)}}.c.ci{fill:var(--c3);animation-name:ci}@keyframes cj{76.63%{fill:var(--c3)}76.65%,100%{fill:var(--ce)}}.c.cj{fill:var(--c3);animation-name:cj}@keyframes ck{4.86%{fill:var(--c1)}4.88%,100%{fill:var(--ce)}}.c.ck{fill:var(--c1);animation-name:ck}@keyframes cl{12.89%{fill:var(--c1)}12.91%,100%{fill:var(--ce)}}.c.cl{fill:var(--c1);animation-name:cl}@keyframes cm{5.83%{fill:var(--c1)}5.85%,100%{fill:var(--ce)}}.c.cm{fill:var(--c1);animation-name:cm}@keyframes cn{6.07%{fill:var(--c1)}6.09%,100%{fill:var(--ce)}}.c.cn{fill:var(--c1);animation-name:cn}@keyframes co{12.64%{fill:var(--c1)}12.66%,100%{fill:var(--ce)}}.c.co{fill:var(--c1);animation-name:co}@keyframes cp{6.32%{fill:var(--c1)}6.34%,100%{fill:var(--ce)}}.c.cp{fill:var(--c1);animation-name:cp}@keyframes cq{7.29%{fill:var(--c1)}7.31%,100%{fill:var(--ce)}}.c.cq{fill:var(--c1);animation-name:cq}@keyframes cr{10.45%{fill:var(--c1)}10.47%,100%{fill:var(--ce)}}.c.cr{fill:var(--c1);animation-name:cr}@keyframes cs{9.24%{fill:var(--c1)}9.26%,100%{fill:var(--ce)}}.c.cs{fill:var(--c1);animation-name:cs}@keyframes ct{9.72%{fill:var(--c1)}9.74%,100%{fill:var(--ce)}}.c.ct{fill:var(--c1);animation-name:ct}@keyframes cu{43.3%{fill:var(--c2)}43.32%,100%{fill:var(--ce)}}.c.cu{fill:var(--c2);animation-name:cu}@keyframes cv{72.25%{fill:var(--c3)}72.27%,100%{fill:var(--ce)}}.c.cv{fill:var(--c3);animation-name:cv}@keyframes cw{37.22%{fill:var(--c1)}37.24%,100%{fill:var(--ce)}}.c.cw{fill:var(--c1);animation-name:cw}@keyframes cx{39.89%{fill:var(--c2)}39.91%,100%{fill:var(--ce)}}.c.cx{fill:var(--c2);animation-name:cx}@keyframes cy{18.48%{fill:var(--c1)}18.5%,100%{fill:var(--ce)}}.c.cy{fill:var(--c1);animation-name:cy}@keyframes cz{38.43%{fill:var(--c2)}38.45%,100%{fill:var(--ce)}}.c.cz{fill:var(--c2);animation-name:cz}@keyframes c10{90.74%{fill:var(--c4)}90.76%,100%{fill:var(--ce)}}.c.c10{fill:var(--c4);animation-name:c10}@keyframes c11{19.45%{fill:var(--c1)}19.47%,100%{fill:var(--ce)}}.c.c11{fill:var(--c1);animation-name:c11}@keyframes c12{19.21%{fill:var(--c1)}19.23%,100%{fill:var(--ce)}}.c.c12{fill:var(--c1);animation-name:c12}@keyframes c13{19.94%{fill:var(--c1)}19.96%,100%{fill:var(--ce)}}.c.c13{fill:var(--c1);animation-name:c13}@keyframes c14{20.18%{fill:var(--c1)}20.2%,100%{fill:var(--ce)}}.c.c14{fill:var(--c1);animation-name:c14}@keyframes c15{68.36%{fill:var(--c3)}68.38%,100%{fill:var(--ce)}}.c.c15{fill:var(--c3);animation-name:c15}@keyframes c16{21.4%{fill:var(--c1)}21.42%,100%{fill:var(--ce)}}.c.c16{fill:var(--c1);animation-name:c16}@keyframes c17{22.62%{fill:var(--c1)}22.64%,100%{fill:var(--ce)}}.c.c17{fill:var(--c1);animation-name:c17}@keyframes c18{22.37%{fill:var(--c1)}22.39%,100%{fill:var(--ce)}}.c.c18{fill:var(--c1);animation-name:c18}@keyframes c19{24.56%{fill:var(--c1)}24.58%,100%{fill:var(--ce)}}.c.c19{fill:var(--c1);animation-name:c19}@keyframes c1a{62.52%{fill:var(--c2)}62.54%,100%{fill:var(--ce)}}.c.c1a{fill:var(--c2);animation-name:c1a}@keyframes c1b{24.81%{fill:var(--c1)}24.83%,100%{fill:var(--ce)}}.c.c1b{fill:var(--c1);animation-name:c1b}@keyframes c1c{25.54%{fill:var(--c1)}25.56%,100%{fill:var(--ce)}}.c.c1c{fill:var(--c1);animation-name:c1c}@keyframes c1d{26.02%{fill:var(--c1)}26.04%,100%{fill:var(--ce)}}.c.c1d{fill:var(--c1);animation-name:c1d}@keyframes c1e{27.97%{fill:var(--c1)}27.99%,100%{fill:var(--ce)}}.c.c1e{fill:var(--c1);animation-name:c1e}@keyframes c1f{64.22%{fill:var(--c2)}64.24%,100%{fill:var(--ce)}}.c.c1f{fill:var(--c2);animation-name:c1f}@keyframes c1g{27.73%{fill:var(--c1)}27.75%,100%{fill:var(--ce)}}.c.c1g{fill:var(--c1);animation-name:c1g}@keyframes c1h{27.48%{fill:var(--c1)}27.5%,100%{fill:var(--ce)}}.c.c1h{fill:var(--c1);animation-name:c1h}@keyframes c1i{27%{fill:var(--c1)}27.02%,100%{fill:var(--ce)}}.c.c1i{fill:var(--c1);animation-name:c1i}@keyframes c1j{29.67%{fill:var(--c1)}29.69%,100%{fill:var(--ce)}}.c.c1j{fill:var(--c1);animation-name:c1j}@keyframes c1k{30.65%{fill:var(--c1)}30.67%,100%{fill:var(--ce)}}.c.c1k{fill:var(--c1);animation-name:c1k}@keyframes c1l{29.92%{fill:var(--c1)}29.94%,100%{fill:var(--ce)}}.c.c1l{fill:var(--c1);animation-name:c1l}.u{transform-origin:0 0;transform:scale(0,1);animation:none linear 41100ms infinite}@keyframes u0{0.72%{transform:scale(0.000,1)}0.74%,2.67%{transform:scale(0.029,1)}2.69%,2.91%{transform:scale(0.059,1)}2.93%,3.64%{transform:scale(0.088,1)}3.66%,4.86%{transform:scale(0.118,1)}4.88%,5.83%{transform:scale(0.147,1)}5.85%,6.07%{transform:scale(0.176,1)}6.09%,6.32%{transform:scale(0.206,1)}6.34%,7.29%{transform:scale(0.235,1)}7.31%,9.24%{transform:scale(0.265,1)}9.26%,9.72%{transform:scale(0.294,1)}9.74%,10.45%{transform:scale(0.324,1)}10.47%,12.64%{transform:scale(0.353,1)}12.66%,12.89%{transform:scale(0.382,1)}12.91%,18.48%{transform:scale(0.412,1)}18.5%,19.21%{transform:scale(0.441,1)}19.23%,19.45%{transform:scale(0.471,1)}19.47%,19.94%{transform:scale(0.500,1)}19.96%,20.18%{transform:scale(0.529,1)}20.2%,21.4%{transform:scale(0.559,1)}21.42%,22.37%{transform:scale(0.588,1)}22.39%,22.62%{transform:scale(0.618,1)}22.64%,24.56%{transform:scale(0.647,1)}24.58%,24.81%{transform:scale(0.676,1)}24.83%,25.54%{transform:scale(0.706,1)}25.56%,26.02%{transform:scale(0.735,1)}26.04%,27%{transform:scale(0.765,1)}27.02%,27.48%{transform:scale(0.794,1)}27.5%,27.73%{transform:scale(0.824,1)}27.75%,27.97%{transform:scale(0.853,1)}27.99%,29.67%{transform:scale(0.882,1)}29.69%,29.92%{transform:scale(0.912,1)}29.94%,30.65%{transform:scale(0.941,1)}30.67%,37.22%{transform:scale(0.971,1)}37.24%,100%{transform:scale(1.000,1)}}.u.u0{fill:var(--c1);animation-name:u0;transform-origin:0.0px 0}@keyframes u1{38.43%{transform:scale(0.000,1)}38.45%,39.89%{transform:scale(0.100,1)}39.91%,43.3%{transform:scale(0.200,1)}43.32%,47.19%{transform:scale(0.300,1)}47.21%,47.44%{transform:scale(0.400,1)}47.46%,47.92%{transform:scale(0.500,1)}47.94%,48.41%{transform:scale(0.600,1)}48.43%,50.84%{transform:scale(0.700,1)}50.86%,62.52%{transform:scale(0.800,1)}62.54%,64.22%{transform:scale(0.900,1)}64.24%,100%{transform:scale(1.000,1)}}.u.u1{fill:var(--c2);animation-name:u1;transform-origin:497.1px 0}@keyframes u2{68.36%{transform:scale(0.000,1)}68.38%,72.25%{transform:scale(0.125,1)}72.27%,75.9%{transform:scale(0.250,1)}75.92%,76.63%{transform:scale(0.375,1)}76.65%,76.88%{transform:scale(0.500,1)}76.9%,77.85%{transform:scale(0.625,1)}77.87%,78.34%{transform:scale(0.750,1)}78.36%,78.82%{transform:scale(0.875,1)}78.84%,100%{transform:scale(1.000,1)}}.u.u2{fill:var(--c3);animation-name:u2;transform-origin:643.3px 0}@keyframes u3{79.07%{transform:scale(0.000,1)}79.09%,79.55%{transform:scale(0.167,1)}79.57%,80.28%{transform:scale(0.333,1)}80.3%,80.53%{transform:scale(0.500,1)}80.55%,82.47%{transform:scale(0.667,1)}82.49%,90.74%{transform:scale(0.833,1)}90.76%,100%{transform:scale(1.000,1)}}.u.u3{fill:var(--c4);animation-name:u3;transform-origin:760.3px 0}.s{shape-rendering:geometricPrecision;fill:var(--cs);animation:none linear 41100ms infinite}@keyframes s0{0%,99.76%{transform:translate(0px,-16px)}0.24%{transform:translate(0px,0px)}0.49%{transform:translate(16px,0px)}0.73%,78.59%{transform:translate(16px,16px)}1.22%{transform:translate(-16px,16px)}2.19%{transform:translate(-16px,80px)}2.68%{transform:translate(16px,80px)}2.92%{transform:translate(16px,64px)}3.16%{transform:translate(32px,64px)}3.65%{transform:translate(32px,96px)}4.38%{transform:translate(80px,96px)}4.87%,76.4%,97.32%{transform:translate(80px,64px)}5.6%{transform:translate(128px,64px)}6.08%{transform:translate(128px,96px)}8.52%{transform:translate(288px,96px)}9.25%{transform:translate(288px,48px)}9.49%,71.78%{transform:translate(304px,48px)}9.98%{transform:translate(304px,16px)}10.46%{transform:translate(272px,16px)}10.71%{transform:translate(272px,0px)}12.9%{transform:translate(128px,0px)}13.14%{transform:translate(128px,16px)}18.25%{transform:translate(464px,16px)}18.49%{transform:translate(464px,32px)}18.98%{transform:translate(496px,32px)}19.46%{transform:translate(496px,0px)}19.95%{transform:translate(528px,0px)}20.19%{transform:translate(528px,16px)}20.44%{transform:translate(544px,16px)}21.17%{transform:translate(544px,64px)}21.41%{transform:translate(528px,64px)}21.65%{transform:translate(528px,80px)}22.38%{transform:translate(576px,80px)}22.63%{transform:translate(576px,64px)}24.33%{transform:translate(688px,64px)}24.57%{transform:translate(688px,48px)}25.06%{transform:translate(720px,48px)}25.55%{transform:translate(720px,80px)}26.03%,64.48%{transform:translate(752px,80px)}26.28%{transform:translate(752px,64px)}26.76%{transform:translate(784px,64px)}27.74%{transform:translate(784px,0px)}27.98%{transform:translate(768px,0px)}28.22%{transform:translate(768px,16px)}28.95%{transform:translate(816px,16px)}29.68%{transform:translate(816px,64px)}29.93%{transform:translate(832px,64px)}30.17%{transform:translate(832px,80px)}30.41%{transform:translate(816px,80px)}30.66%{transform:translate(816px,96px)}35.52%{transform:translate(496px,96px)}35.77%{transform:translate(496px,112px)}36.25%{transform:translate(464px,112px)}36.5%{transform:translate(464px,96px)}37.23%{transform:translate(416px,96px)}37.47%{transform:translate(416px,80px)}38.44%{transform:translate(480px,80px)}39.66%,89.29%{transform:translate(480px,0px)}42.34%{transform:translate(304px,0px)}43.31%{transform:translate(304px,64px)}47.2%,52.07%{transform:translate(48px,64px)}47.93%,78.1%{transform:translate(48px,16px)}48.66%{transform:translate(96px,16px)}49.39%,97.08%{transform:translate(96px,64px)}50.85%{transform:translate(0px,64px)}51.09%,80.78%{transform:translate(0px,80px)}51.82%{transform:translate(48px,80px)}62.04%{transform:translate(704px,64px)}62.53%{transform:translate(704px,32px)}63.5%{transform:translate(768px,32px)}64.23%{transform:translate(768px,80px)}64.96%{transform:translate(752px,48px)}72.26%{transform:translate(304px,80px)}75.91%{transform:translate(64px,80px)}76.16%{transform:translate(64px,64px)}77.37%{transform:translate(80px,0px)}77.86%{transform:translate(48px,0px)}78.83%{transform:translate(16px,32px)}79.08%{transform:translate(0px,32px)}79.32%{transform:translate(0px,48px)}79.56%{transform:translate(16px,48px)}80.29%{transform:translate(16px,96px)}80.54%{transform:translate(0px,96px)}81.27%{transform:translate(32px,80px)}82.48%{transform:translate(32px,0px)}90.75%{transform:translate(480px,96px)}96.59%{transform:translate(96px,96px)}98.05%{transform:translate(80px,16px)}98.3%{transform:translate(64px,16px)}98.78%{transform:translate(64px,-16px)}}.s.s0{transform:translate(0px,-16px);animation-name:s0}@keyframes s1{0%,99.76%{transform:translate(16px,-16px)}0.24%{transform:translate(0px,-16px)}0.49%{transform:translate(0px,0px)}0.73%{transform:translate(16px,0px)}0.97%,78.83%{transform:translate(16px,16px)}1.46%{transform:translate(-16px,16px)}2.43%{transform:translate(-16px,80px)}2.92%{transform:translate(16px,80px)}3.16%{transform:translate(16px,64px)}3.41%{transform:translate(32px,64px)}3.89%{transform:translate(32px,96px)}4.62%{transform:translate(80px,96px)}5.11%,76.64%,97.57%{transform:translate(80px,64px)}5.84%{transform:translate(128px,64px)}6.33%{transform:translate(128px,96px)}8.76%{transform:translate(288px,96px)}9.49%{transform:translate(288px,48px)}9.73%,72.02%{transform:translate(304px,48px)}10.22%{transform:translate(304px,16px)}10.71%{transform:translate(272px,16px)}10.95%{transform:translate(272px,0px)}13.14%{transform:translate(128px,0px)}13.38%{transform:translate(128px,16px)}18.49%{transform:translate(464px,16px)}18.73%{transform:translate(464px,32px)}19.22%{transform:translate(496px,32px)}19.71%{transform:translate(496px,0px)}20.19%{transform:translate(528px,0px)}20.44%{transform:translate(528px,16px)}20.68%{transform:translate(544px,16px)}21.41%{transform:translate(544px,64px)}21.65%{transform:translate(528px,64px)}21.9%{transform:translate(528px,80px)}22.63%{transform:translate(576px,80px)}22.87%{transform:translate(576px,64px)}24.57%{transform:translate(688px,64px)}24.82%{transform:translate(688px,48px)}25.3%{transform:translate(720px,48px)}25.79%{transform:translate(720px,80px)}26.28%,64.72%{transform:translate(752px,80px)}26.52%{transform:translate(752px,64px)}27.01%{transform:translate(784px,64px)}27.98%{transform:translate(784px,0px)}28.22%{transform:translate(768px,0px)}28.47%{transform:translate(768px,16px)}29.2%{transform:translate(816px,16px)}29.93%{transform:translate(816px,64px)}30.17%{transform:translate(832px,64px)}30.41%{transform:translate(832px,80px)}30.66%{transform:translate(816px,80px)}30.9%{transform:translate(816px,96px)}35.77%{transform:translate(496px,96px)}36.01%{transform:translate(496px,112px)}36.5%{transform:translate(464px,112px)}36.74%{transform:translate(464px,96px)}37.47%{transform:translate(416px,96px)}37.71%{transform:translate(416px,80px)}38.69%{transform:translate(480px,80px)}39.9%,89.54%{transform:translate(480px,0px)}42.58%{transform:translate(304px,0px)}43.55%{transform:translate(304px,64px)}47.45%,52.31%{transform:translate(48px,64px)}48.18%,78.35%{transform:translate(48px,16px)}48.91%{transform:translate(96px,16px)}49.64%,97.32%{transform:translate(96px,64px)}51.09%{transform:translate(0px,64px)}51.34%,81.02%{transform:translate(0px,80px)}52.07%{transform:translate(48px,80px)}62.29%{transform:translate(704px,64px)}62.77%{transform:translate(704px,32px)}63.75%{transform:translate(768px,32px)}64.48%{transform:translate(768px,80px)}65.21%{transform:translate(752px,48px)}72.51%{transform:translate(304px,80px)}76.16%{transform:translate(64px,80px)}76.4%{transform:translate(64px,64px)}77.62%{transform:translate(80px,0px)}78.1%{transform:translate(48px,0px)}79.08%{transform:translate(16px,32px)}79.32%{transform:translate(0px,32px)}79.56%{transform:translate(0px,48px)}79.81%{transform:translate(16px,48px)}80.54%{transform:translate(16px,96px)}80.78%{transform:translate(0px,96px)}81.51%{transform:translate(32px,80px)}82.73%{transform:translate(32px,0px)}91%{transform:translate(480px,96px)}96.84%{transform:translate(96px,96px)}98.3%{transform:translate(80px,16px)}98.54%{transform:translate(64px,16px)}99.03%{transform:translate(64px,-16px)}}.s.s1{transform:translate(16px,-16px);animation-name:s1}@keyframes s2{0%,99.76%{transform:translate(32px,-16px)}0.49%{transform:translate(0px,-16px)}0.73%{transform:translate(0px,0px)}0.97%{transform:translate(16px,0px)}1.22%,79.08%{transform:translate(16px,16px)}1.7%{transform:translate(-16px,16px)}2.68%{transform:translate(-16px,80px)}3.16%{transform:translate(16px,80px)}3.41%{transform:translate(16px,64px)}3.65%{transform:translate(32px,64px)}4.14%{transform:translate(32px,96px)}4.87%{transform:translate(80px,96px)}5.35%,76.89%,97.81%{transform:translate(80px,64px)}6.08%{transform:translate(128px,64px)}6.57%{transform:translate(128px,96px)}9%{transform:translate(288px,96px)}9.73%{transform:translate(288px,48px)}9.98%,72.26%{transform:translate(304px,48px)}10.46%{transform:translate(304px,16px)}10.95%{transform:translate(272px,16px)}11.19%{transform:translate(272px,0px)}13.38%{transform:translate(128px,0px)}13.63%{transform:translate(128px,16px)}18.73%{transform:translate(464px,16px)}18.98%{transform:translate(464px,32px)}19.46%{transform:translate(496px,32px)}19.95%{transform:translate(496px,0px)}20.44%{transform:translate(528px,0px)}20.68%{transform:translate(528px,16px)}20.92%{transform:translate(544px,16px)}21.65%{transform:translate(544px,64px)}21.9%{transform:translate(528px,64px)}22.14%{transform:translate(528px,80px)}22.87%{transform:translate(576px,80px)}23.11%{transform:translate(576px,64px)}24.82%{transform:translate(688px,64px)}25.06%{transform:translate(688px,48px)}25.55%{transform:translate(720px,48px)}26.03%{transform:translate(720px,80px)}26.52%,64.96%{transform:translate(752px,80px)}26.76%{transform:translate(752px,64px)}27.25%{transform:translate(784px,64px)}28.22%{transform:translate(784px,0px)}28.47%{transform:translate(768px,0px)}28.71%{transform:translate(768px,16px)}29.44%{transform:translate(816px,16px)}30.17%{transform:translate(816px,64px)}30.41%{transform:translate(832px,64px)}30.66%{transform:translate(832px,80px)}30.9%{transform:translate(816px,80px)}31.14%{transform:translate(816px,96px)}36.01%{transform:translate(496px,96px)}36.25%{transform:translate(496px,112px)}36.74%{transform:translate(464px,112px)}36.98%{transform:translate(464px,96px)}37.71%{transform:translate(416px,96px)}37.96%{transform:translate(416px,80px)}38.93%{transform:translate(480px,80px)}40.15%,89.78%{transform:translate(480px,0px)}42.82%{transform:translate(304px,0px)}43.8%{transform:translate(304px,64px)}47.69%,52.55%{transform:translate(48px,64px)}48.42%,78.59%{transform:translate(48px,16px)}49.15%{transform:translate(96px,16px)}49.88%,97.57%{transform:translate(96px,64px)}51.34%{transform:translate(0px,64px)}51.58%,81.27%{transform:translate(0px,80px)}52.31%{transform:translate(48px,80px)}62.53%{transform:translate(704px,64px)}63.02%{transform:translate(704px,32px)}63.99%{transform:translate(768px,32px)}64.72%{transform:translate(768px,80px)}65.45%{transform:translate(752px,48px)}72.75%{transform:translate(304px,80px)}76.4%{transform:translate(64px,80px)}76.64%{transform:translate(64px,64px)}77.86%{transform:translate(80px,0px)}78.35%{transform:translate(48px,0px)}79.32%{transform:translate(16px,32px)}79.56%{transform:translate(0px,32px)}79.81%{transform:translate(0px,48px)}80.05%{transform:translate(16px,48px)}80.78%{transform:translate(16px,96px)}81.02%{transform:translate(0px,96px)}81.75%{transform:translate(32px,80px)}82.97%{transform:translate(32px,0px)}91.24%{transform:translate(480px,96px)}97.08%{transform:translate(96px,96px)}98.54%{transform:translate(80px,16px)}98.78%{transform:translate(64px,16px)}99.27%{transform:translate(64px,-16px)}}.s.s2{transform:translate(32px,-16px);animation-name:s2}@keyframes s3{0%,99.76%{transform:translate(48px,-16px)}0.73%{transform:translate(0px,-16px)}0.97%{transform:translate(0px,0px)}1.22%{transform:translate(16px,0px)}1.46%,79.32%{transform:translate(16px,16px)}1.95%{transform:translate(-16px,16px)}2.92%{transform:translate(-16px,80px)}3.41%{transform:translate(16px,80px)}3.65%{transform:translate(16px,64px)}3.89%{transform:translate(32px,64px)}4.38%{transform:translate(32px,96px)}5.11%{transform:translate(80px,96px)}5.6%,77.13%,98.05%{transform:translate(80px,64px)}6.33%{transform:translate(128px,64px)}6.81%{transform:translate(128px,96px)}9.25%{transform:translate(288px,96px)}9.98%{transform:translate(288px,48px)}10.22%,72.51%{transform:translate(304px,48px)}10.71%{transform:translate(304px,16px)}11.19%{transform:translate(272px,16px)}11.44%{transform:translate(272px,0px)}13.63%{transform:translate(128px,0px)}13.87%{transform:translate(128px,16px)}18.98%{transform:translate(464px,16px)}19.22%{transform:translate(464px,32px)}19.71%{transform:translate(496px,32px)}20.19%{transform:translate(496px,0px)}20.68%{transform:translate(528px,0px)}20.92%{transform:translate(528px,16px)}21.17%{transform:translate(544px,16px)}21.9%{transform:translate(544px,64px)}22.14%{transform:translate(528px,64px)}22.38%{transform:translate(528px,80px)}23.11%{transform:translate(576px,80px)}23.36%{transform:translate(576px,64px)}25.06%{transform:translate(688px,64px)}25.3%{transform:translate(688px,48px)}25.79%{transform:translate(720px,48px)}26.28%{transform:translate(720px,80px)}26.76%,65.21%{transform:translate(752px,80px)}27.01%{transform:translate(752px,64px)}27.49%{transform:translate(784px,64px)}28.47%{transform:translate(784px,0px)}28.71%{transform:translate(768px,0px)}28.95%{transform:translate(768px,16px)}29.68%{transform:translate(816px,16px)}30.41%{transform:translate(816px,64px)}30.66%{transform:translate(832px,64px)}30.9%{transform:translate(832px,80px)}31.14%{transform:translate(816px,80px)}31.39%{transform:translate(816px,96px)}36.25%{transform:translate(496px,96px)}36.5%{transform:translate(496px,112px)}36.98%{transform:translate(464px,112px)}37.23%{transform:translate(464px,96px)}37.96%{transform:translate(416px,96px)}38.2%{transform:translate(416px,80px)}39.17%{transform:translate(480px,80px)}40.39%,90.02%{transform:translate(480px,0px)}43.07%{transform:translate(304px,0px)}44.04%{transform:translate(304px,64px)}47.93%,52.8%{transform:translate(48px,64px)}48.66%,78.83%{transform:translate(48px,16px)}49.39%{transform:translate(96px,16px)}50.12%,97.81%{transform:translate(96px,64px)}51.58%{transform:translate(0px,64px)}51.82%,81.51%{transform:translate(0px,80px)}52.55%{transform:translate(48px,80px)}62.77%{transform:translate(704px,64px)}63.26%{transform:translate(704px,32px)}64.23%{transform:translate(768px,32px)}64.96%{transform:translate(768px,80px)}65.69%{transform:translate(752px,48px)}72.99%{transform:translate(304px,80px)}76.64%{transform:translate(64px,80px)}76.89%{transform:translate(64px,64px)}78.1%{transform:translate(80px,0px)}78.59%{transform:translate(48px,0px)}79.56%{transform:translate(16px,32px)}79.81%{transform:translate(0px,32px)}80.05%{transform:translate(0px,48px)}80.29%{transform:translate(16px,48px)}81.02%{transform:translate(16px,96px)}81.27%{transform:translate(0px,96px)}82%{transform:translate(32px,80px)}83.21%{transform:translate(32px,0px)}91.48%{transform:translate(480px,96px)}97.32%{transform:translate(96px,96px)}98.78%{transform:translate(80px,16px)}99.03%{transform:translate(64px,16px)}99.51%{transform:translate(64px,-16px)}}.s.s3{transform:translate(48px,-16px);animation-name:s3}</style><rect class="c" x="2" y="2" rx="2" ry="2"/><rect class="c" x="2" y="18" rx="2" ry="2"/><rect class="c c0" x="2" y="34" rx="2" ry="2"/><rect class="c" x="2" y="50" rx="2" ry="2"/><rect class="c c1" x="2" y="66" rx="2" ry="2"/><rect class="c" x="2" y="82" rx="2" ry="2"/><rect class="c c2" x="2" y="98" rx="2" ry="2"/><rect class="c" x="18" y="2" rx="2" ry="2"/><rect class="c c3" x="18" y="18" rx="2" ry="2"/><rect class="c c4" x="18" y="34" rx="2" ry="2"/><rect class="c c5" x="18" y="50" rx="2" ry="2"/><rect class="c c6" x="18" y="66" rx="2" ry="2"/><rect class="c c7" x="18" y="82" rx="2" ry="2"/><rect class="c c8" x="18" y="98" rx="2" ry="2"/><rect class="c c9" x="34" y="2" rx="2" ry="2"/><rect class="c ca" x="34" y="18" rx="2" ry="2"/><rect class="c" x="34" y="34" rx="2" ry="2"/><rect class="c" x="34" y="50" rx="2" ry="2"/><rect class="c" x="34" y="66" rx="2" ry="2"/><rect class="c" x="34" y="82" rx="2" ry="2"/><rect class="c cb" x="34" y="98" rx="2" ry="2"/><rect class="c cc" x="50" y="2" rx="2" ry="2"/><rect class="c cd" x="50" y="18" rx="2" ry="2"/><rect class="c" x="50" y="34" rx="2" ry="2"/><rect class="c ce" x="50" y="50" rx="2" ry="2"/><rect class="c cf" x="50" y="66" rx="2" ry="2"/><rect class="c" x="50" y="82" rx="2" ry="2"/><rect class="c" x="50" y="98" rx="2" ry="2"/><rect class="c" x="66" y="2" rx="2" ry="2"/><rect class="c" x="66" y="18" rx="2" ry="2"/><rect class="c" x="66" y="34" rx="2" ry="2"/><rect class="c" x="66" y="50" rx="2" ry="2"/><rect class="c" x="66" y="66" rx="2" ry="2"/><rect class="c cg" x="66" y="82" rx="2" ry="2"/><rect class="c" x="66" y="98" rx="2" ry="2"/><rect class="c" x="82" y="2" rx="2" ry="2"/><rect class="c ch" x="82" y="18" rx="2" ry="2"/><rect class="c ci" x="82" y="34" rx="2" ry="2"/><rect class="c cj" x="82" y="50" rx="2" ry="2"/><rect class="c ck" x="82" y="66" rx="2" ry="2"/><rect class="c" x="82" y="82" rx="2" ry="2"/><rect class="c" x="82" y="98" rx="2" ry="2"/><rect class="c" x="98" y="2" rx="2" ry="2"/><rect class="c" x="98" y="18" rx="2" ry="2"/><rect class="c" x="98" y="34" rx="2" ry="2"/><rect class="c" x="98" y="50" rx="2" ry="2"/><rect class="c" x="98" y="66" rx="2" ry="2"/><rect class="c" x="98" y="82" rx="2" ry="2"/><rect class="c" x="98" y="98" rx="2" ry="2"/><rect class="c" x="114" y="2" rx="2" ry="2"/><rect class="c" x="114" y="18" rx="2" ry="2"/><rect class="c" x="114" y="34" rx="2" ry="2"/><rect class="c" x="114" y="50" rx="2" ry="2"/><rect class="c" x="114" y="66" rx="2" ry="2"/><rect class="c" x="114" y="82" rx="2" ry="2"/><rect class="c" x="114" y="98" rx="2" ry="2"/><rect class="c cl" x="130" y="2" rx="2" ry="2"/><rect class="c" x="130" y="18" rx="2" ry="2"/><rect class="c" x="130" y="34" rx="2" ry="2"/><rect class="c" x="130" y="50" rx="2" ry="2"/><rect class="c" x="130" y="66" rx="2" ry="2"/><rect class="c cm" x="130" y="82" rx="2" ry="2"/><rect class="c cn" x="130" y="98" rx="2" ry="2"/><rect class="c co" x="146" y="2" rx="2" ry="2"/><rect class="c" x="146" y="18" rx="2" ry="2"/><rect class="c" x="146" y="34" rx="2" ry="2"/><rect class="c" x="146" y="50" rx="2" ry="2"/><rect class="c" x="146" y="66" rx="2" ry="2"/><rect class="c" x="146" y="82" rx="2" ry="2"/><rect class="c cp" x="146" y="98" rx="2" ry="2"/><rect class="c" x="162" y="2" rx="2" ry="2"/><rect class="c" x="162" y="18" rx="2" ry="2"/><rect class="c" x="162" y="34" rx="2" ry="2"/><rect class="c" x="162" y="50" rx="2" ry="2"/><rect class="c" x="162" y="66" rx="2" ry="2"/><rect class="c" x="162" y="82" rx="2" ry="2"/><rect class="c" x="162" y="98" rx="2" ry="2"/><rect class="c" x="178" y="2" rx="2" ry="2"/><rect class="c" x="178" y="18" rx="2" ry="2"/><rect class="c" x="178" y="34" rx="2" ry="2"/><rect class="c" x="178" y="50" rx="2" ry="2"/><rect class="c" x="178" y="66" rx="2" ry="2"/><rect class="c" x="178" y="82" rx="2" ry="2"/><rect class="c" x="178" y="98" rx="2" ry="2"/><rect class="c" x="194" y="2" rx="2" ry="2"/><rect class="c" x="194" y="18" rx="2" ry="2"/><rect class="c" x="194" y="34" rx="2" ry="2"/><rect class="c" x="194" y="50" rx="2" ry="2"/><rect class="c" x="194" y="66" rx="2" ry="2"/><rect class="c" x="194" y="82" rx="2" ry="2"/><rect class="c" x="194" y="98" rx="2" ry="2"/><rect class="c" x="210" y="2" rx="2" ry="2"/><rect class="c" x="210" y="18" rx="2" ry="2"/><rect class="c" x="210" y="34" rx="2" ry="2"/><rect class="c" x="210" y="50" rx="2" ry="2"/><rect class="c" x="210" y="66" rx="2" ry="2"/><rect class="c" x="210" y="82" rx="2" ry="2"/><rect class="c cq" x="210" y="98" rx="2" ry="2"/><rect class="c" x="226" y="2" rx="2" ry="2"/><rect class="c" x="226" y="18" rx="2" ry="2"/><rect class="c" x="226" y="34" rx="2" ry="2"/><rect class="c" x="226" y="50" rx="2" ry="2"/><rect class="c" x="226" y="66" rx="2" ry="2"/><rect class="c" x="226" y="82" rx="2" ry="2"/><rect class="c" x="226" y="98" rx="2" ry="2"/><rect class="c" x="242" y="2" rx="2" ry="2"/><rect class="c" x="242" y="18" rx="2" ry="2"/><rect class="c" x="242" y="34" rx="2" ry="2"/><rect class="c" x="242" y="50" rx="2" ry="2"/><rect class="c" x="242" y="66" rx="2" ry="2"/><rect class="c" x="242" y="82" rx="2" ry="2"/><rect class="c" x="242" y="98" rx="2" ry="2"/><rect class="c" x="258" y="2" rx="2" ry="2"/><rect class="c" x="258" y="18" rx="2" ry="2"/><rect class="c" x="258" y="34" rx="2" ry="2"/><rect class="c" x="258" y="50" rx="2" ry="2"/><rect class="c" x="258" y="66" rx="2" ry="2"/><rect class="c" x="258" y="82" rx="2" ry="2"/><rect class="c" x="258" y="98" rx="2" ry="2"/><rect class="c" x="274" y="2" rx="2" ry="2"/><rect class="c cr" x="274" y="18" rx="2" ry="2"/><rect class="c" x="274" y="34" rx="2" ry="2"/><rect class="c" x="274" y="50" rx="2" ry="2"/><rect class="c" x="274" y="66" rx="2" ry="2"/><rect class="c" x="274" y="82" rx="2" ry="2"/><rect class="c" x="274" y="98" rx="2" ry="2"/><rect class="c" x="290" y="2" rx="2" ry="2"/><rect class="c" x="290" y="18" rx="2" ry="2"/><rect class="c" x="290" y="34" rx="2" ry="2"/><rect class="c cs" x="290" y="50" rx="2" ry="2"/><rect class="c" x="290" y="66" rx="2" ry="2"/><rect class="c" x="290" y="82" rx="2" ry="2"/><rect class="c" x="290" y="98" rx="2" ry="2"/><rect class="c" x="306" y="2" rx="2" ry="2"/><rect class="c" x="306" y="18" rx="2" ry="2"/><rect class="c ct" x="306" y="34" rx="2" ry="2"/><rect class="c" x="306" y="50" rx="2" ry="2"/><rect class="c cu" x="306" y="66" rx="2" ry="2"/><rect class="c cv" x="306" y="82" rx="2" ry="2"/><rect class="c" x="306" y="98" rx="2" ry="2"/><rect class="c" x="322" y="2" rx="2" ry="2"/><rect class="c" x="322" y="18" rx="2" ry="2"/><rect class="c" x="322" y="34" rx="2" ry="2"/><rect class="c" x="322" y="50" rx="2" ry="2"/><rect class="c" x="322" y="66" rx="2" ry="2"/><rect class="c" x="322" y="82" rx="2" ry="2"/><rect class="c" x="322" y="98" rx="2" ry="2"/><rect class="c" x="338" y="2" rx="2" ry="2"/><rect class="c" x="338" y="18" rx="2" ry="2"/><rect class="c" x="338" y="34" rx="2" ry="2"/><rect class="c" x="338" y="50" rx="2" ry="2"/><rect class="c" x="338" y="66" rx="2" ry="2"/><rect class="c" x="338" y="82" rx="2" ry="2"/><rect class="c" x="338" y="98" rx="2" ry="2"/><rect class="c" x="354" y="2" rx="2" ry="2"/><rect class="c" x="354" y="18" rx="2" ry="2"/><rect class="c" x="354" y="34" rx="2" ry="2"/><rect class="c" x="354" y="50" rx="2" ry="2"/><rect class="c" x="354" y="66" rx="2" ry="2"/><rect class="c" x="354" y="82" rx="2" ry="2"/><rect class="c" x="354" y="98" rx="2" ry="2"/><rect class="c" x="370" y="2" rx="2" ry="2"/><rect class="c" x="370" y="18" rx="2" ry="2"/><rect class="c" x="370" y="34" rx="2" ry="2"/><rect class="c" x="370" y="50" rx="2" ry="2"/><rect class="c" x="370" y="66" rx="2" ry="2"/><rect class="c" x="370" y="82" rx="2" ry="2"/><rect class="c" x="370" y="98" rx="2" ry="2"/><rect class="c" x="386" y="2" rx="2" ry="2"/><rect class="c" x="386" y="18" rx="2" ry="2"/><rect class="c" x="386" y="34" rx="2" ry="2"/><rect class="c" x="386" y="50" rx="2" ry="2"/><rect class="c" x="386" y="66" rx="2" ry="2"/><rect class="c" x="386" y="82" rx="2" ry="2"/><rect class="c" x="386" y="98" rx="2" ry="2"/><rect class="c" x="402" y="2" rx="2" ry="2"/><rect class="c" x="402" y="18" rx="2" ry="2"/><rect class="c" x="402" y="34" rx="2" ry="2"/><rect class="c" x="402" y="50" rx="2" ry="2"/><rect class="c" x="402" y="66" rx="2" ry="2"/><rect class="c" x="402" y="82" rx="2" ry="2"/><rect class="c" x="402" y="98" rx="2" ry="2"/><rect class="c" x="418" y="2" rx="2" ry="2"/><rect class="c" x="418" y="18" rx="2" ry="2"/><rect class="c" x="418" y="34" rx="2" ry="2"/><rect class="c" x="418" y="50" rx="2" ry="2"/><rect class="c" x="418" y="66" rx="2" ry="2"/><rect class="c" x="418" y="82" rx="2" ry="2"/><rect class="c cw" x="418" y="98" rx="2" ry="2"/><rect class="c" x="434" y="2" rx="2" ry="2"/><rect class="c" x="434" y="18" rx="2" ry="2"/><rect class="c" x="434" y="34" rx="2" ry="2"/><rect class="c" x="434" y="50" rx="2" ry="2"/><rect class="c" x="434" y="66" rx="2" ry="2"/><rect class="c" x="434" y="82" rx="2" ry="2"/><rect class="c" x="434" y="98" rx="2" ry="2"/><rect class="c" x="450" y="2" rx="2" ry="2"/><rect class="c" x="450" y="18" rx="2" ry="2"/><rect class="c" x="450" y="34" rx="2" ry="2"/><rect class="c" x="450" y="50" rx="2" ry="2"/><rect class="c" x="450" y="66" rx="2" ry="2"/><rect class="c" x="450" y="82" rx="2" ry="2"/><rect class="c" x="450" y="98" rx="2" ry="2"/><rect class="c cx" x="466" y="2" rx="2" ry="2"/><rect class="c" x="466" y="18" rx="2" ry="2"/><rect class="c cy" x="466" y="34" rx="2" ry="2"/><rect class="c" x="466" y="50" rx="2" ry="2"/><rect class="c" x="466" y="66" rx="2" ry="2"/><rect class="c" x="466" y="82" rx="2" ry="2"/><rect class="c" x="466" y="98" rx="2" ry="2"/><rect class="c" x="482" y="2" rx="2" ry="2"/><rect class="c" x="482" y="18" rx="2" ry="2"/><rect class="c" x="482" y="34" rx="2" ry="2"/><rect class="c" x="482" y="50" rx="2" ry="2"/><rect class="c" x="482" y="66" rx="2" ry="2"/><rect class="c cz" x="482" y="82" rx="2" ry="2"/><rect class="c c10" x="482" y="98" rx="2" ry="2"/><rect class="c c11" x="498" y="2" rx="2" ry="2"/><rect class="c c12" x="498" y="18" rx="2" ry="2"/><rect class="c" x="498" y="34" rx="2" ry="2"/><rect class="c" x="498" y="50" rx="2" ry="2"/><rect class="c" x="498" y="66" rx="2" ry="2"/><rect class="c" x="498" y="82" rx="2" ry="2"/><rect class="c" x="498" y="98" rx="2" ry="2"/><rect class="c" x="514" y="2" rx="2" ry="2"/><rect class="c" x="514" y="18" rx="2" ry="2"/><rect class="c" x="514" y="34" rx="2" ry="2"/><rect class="c" x="514" y="50" rx="2" ry="2"/><rect class="c" x="514" y="66" rx="2" ry="2"/><rect class="c" x="514" y="82" rx="2" ry="2"/><rect class="c" x="514" y="98" rx="2" ry="2"/><rect class="c c13" x="530" y="2" rx="2" ry="2"/><rect class="c c14" x="530" y="18" rx="2" ry="2"/><rect class="c" x="530" y="34" rx="2" ry="2"/><rect class="c c15" x="530" y="50" rx="2" ry="2"/><rect class="c c16" x="530" y="66" rx="2" ry="2"/><rect class="c" x="530" y="82" rx="2" ry="2"/><rect class="c" x="530" y="98" rx="2" ry="2"/><rect class="c" x="546" y="2" rx="2" ry="2"/><rect class="c" x="546" y="18" rx="2" ry="2"/><rect class="c" x="546" y="34" rx="2" ry="2"/><rect class="c" x="546" y="50" rx="2" ry="2"/><rect class="c" x="546" y="66" rx="2" ry="2"/><rect class="c" x="546" y="82" rx="2" ry="2"/><rect class="c" x="546" y="98" rx="2" ry="2"/><rect class="c" x="562" y="2" rx="2" ry="2"/><rect class="c" x="562" y="18" rx="2" ry="2"/><rect class="c" x="562" y="34" rx="2" ry="2"/><rect class="c" x="562" y="50" rx="2" ry="2"/><rect class="c" x="562" y="66" rx="2" ry="2"/><rect class="c" x="562" y="82" rx="2" ry="2"/><rect class="c" x="562" y="98" rx="2" ry="2"/><rect class="c" x="578" y="2" rx="2" ry="2"/><rect class="c" x="578" y="18" rx="2" ry="2"/><rect class="c" x="578" y="34" rx="2" ry="2"/><rect class="c" x="578" y="50" rx="2" ry="2"/><rect class="c c17" x="578" y="66" rx="2" ry="2"/><rect class="c c18" x="578" y="82" rx="2" ry="2"/><rect class="c" x="578" y="98" rx="2" ry="2"/><rect class="c" x="594" y="2" rx="2" ry="2"/><rect class="c" x="594" y="18" rx="2" ry="2"/><rect class="c" x="594" y="34" rx="2" ry="2"/><rect class="c" x="594" y="50" rx="2" ry="2"/><rect class="c" x="594" y="66" rx="2" ry="2"/><rect class="c" x="594" y="82" rx="2" ry="2"/><rect class="c" x="594" y="98" rx="2" ry="2"/><rect class="c" x="610" y="2" rx="2" ry="2"/><rect class="c" x="610" y="18" rx="2" ry="2"/><rect class="c" x="610" y="34" rx="2" ry="2"/><rect class="c" x="610" y="50" rx="2" ry="2"/><rect class="c" x="610" y="66" rx="2" ry="2"/><rect class="c" x="610" y="82" rx="2" ry="2"/><rect class="c" x="610" y="98" rx="2" ry="2"/><rect class="c" x="626" y="2" rx="2" ry="2"/><rect class="c" x="626" y="18" rx="2" ry="2"/><rect class="c" x="626" y="34" rx="2" ry="2"/><rect class="c" x="626" y="50" rx="2" ry="2"/><rect class="c" x="626" y="66" rx="2" ry="2"/><rect class="c" x="626" y="82" rx="2" ry="2"/><rect class="c" x="626" y="98" rx="2" ry="2"/><rect class="c" x="642" y="2" rx="2" ry="2"/><rect class="c" x="642" y="18" rx="2" ry="2"/><rect class="c" x="642" y="34" rx="2" ry="2"/><rect class="c" x="642" y="50" rx="2" ry="2"/><rect class="c" x="642" y="66" rx="2" ry="2"/><rect class="c" x="642" y="82" rx="2" ry="2"/><rect class="c" x="642" y="98" rx="2" ry="2"/><rect class="c" x="658" y="2" rx="2" ry="2"/><rect class="c" x="658" y="18" rx="2" ry="2"/><rect class="c" x="658" y="34" rx="2" ry="2"/><rect class="c" x="658" y="50" rx="2" ry="2"/><rect class="c" x="658" y="66" rx="2" ry="2"/><rect class="c" x="658" y="82" rx="2" ry="2"/><rect class="c" x="658" y="98" rx="2" ry="2"/><rect class="c" x="674" y="2" rx="2" ry="2"/><rect class="c" x="674" y="18" rx="2" ry="2"/><rect class="c" x="674" y="34" rx="2" ry="2"/><rect class="c" x="674" y="50" rx="2" ry="2"/><rect class="c" x="674" y="66" rx="2" ry="2"/><rect class="c" x="674" y="82" rx="2" ry="2"/><rect class="c" x="674" y="98" rx="2" ry="2"/><rect class="c" x="690" y="2" rx="2" ry="2"/><rect class="c" x="690" y="18" rx="2" ry="2"/><rect class="c" x="690" y="34" rx="2" ry="2"/><rect class="c c19" x="690" y="50" rx="2" ry="2"/><rect class="c" x="690" y="66" rx="2" ry="2"/><rect class="c" x="690" y="82" rx="2" ry="2"/><rect class="c" x="690" y="98" rx="2" ry="2"/><rect class="c" x="706" y="2" rx="2" ry="2"/><rect class="c" x="706" y="18" rx="2" ry="2"/><rect class="c c1a" x="706" y="34" rx="2" ry="2"/><rect class="c c1b" x="706" y="50" rx="2" ry="2"/><rect class="c" x="706" y="66" rx="2" ry="2"/><rect class="c" x="706" y="82" rx="2" ry="2"/><rect class="c" x="706" y="98" rx="2" ry="2"/><rect class="c" x="722" y="2" rx="2" ry="2"/><rect class="c" x="722" y="18" rx="2" ry="2"/><rect class="c" x="722" y="34" rx="2" ry="2"/><rect class="c" x="722" y="50" rx="2" ry="2"/><rect class="c" x="722" y="66" rx="2" ry="2"/><rect class="c c1c" x="722" y="82" rx="2" ry="2"/><rect class="c" x="722" y="98" rx="2" ry="2"/><rect class="c" x="738" y="2" rx="2" ry="2"/><rect class="c" x="738" y="18" rx="2" ry="2"/><rect class="c" x="738" y="34" rx="2" ry="2"/><rect class="c" x="738" y="50" rx="2" ry="2"/><rect class="c" x="738" y="66" rx="2" ry="2"/><rect class="c" x="738" y="82" rx="2" ry="2"/><rect class="c" x="738" y="98" rx="2" ry="2"/><rect class="c" x="754" y="2" rx="2" ry="2"/><rect class="c" x="754" y="18" rx="2" ry="2"/><rect class="c" x="754" y="34" rx="2" ry="2"/><rect class="c" x="754" y="50" rx="2" ry="2"/><rect class="c" x="754" y="66" rx="2" ry="2"/><rect class="c c1d" x="754" y="82" rx="2" ry="2"/><rect class="c" x="754" y="98" rx="2" ry="2"/><rect class="c c1e" x="770" y="2" rx="2" ry="2"/><rect class="c" x="770" y="18" rx="2" ry="2"/><rect class="c" x="770" y="34" rx="2" ry="2"/><rect class="c" x="770" y="50" rx="2" ry="2"/><rect class="c" x="770" y="66" rx="2" ry="2"/><rect class="c c1f" x="770" y="82" rx="2" ry="2"/><rect class="c" x="770" y="98" rx="2" ry="2"/><rect class="c c1g" x="786" y="2" rx="2" ry="2"/><rect class="c c1h" x="786" y="18" rx="2" ry="2"/><rect class="c" x="786" y="34" rx="2" ry="2"/><rect class="c c1i" x="786" y="50" rx="2" ry="2"/><rect class="c" x="786" y="66" rx="2" ry="2"/><rect class="c" x="786" y="82" rx="2" ry="2"/><rect class="c" x="786" y="98" rx="2" ry="2"/><rect class="c" x="802" y="2" rx="2" ry="2"/><rect class="c" x="802" y="18" rx="2" ry="2"/><rect class="c" x="802" y="34" rx="2" ry="2"/><rect class="c" x="802" y="50" rx="2" ry="2"/><rect class="c" x="802" y="66" rx="2" ry="2"/><rect class="c" x="802" y="82" rx="2" ry="2"/><rect class="c" x="802" y="98" rx="2" ry="2"/><rect class="c" x="818" y="2" rx="2" ry="2"/><rect class="c" x="818" y="18" rx="2" ry="2"/><rect class="c" x="818" y="34" rx="2" ry="2"/><rect class="c" x="818" y="50" rx="2" ry="2"/><rect class="c c1j" x="818" y="66" rx="2" ry="2"/><rect class="c" x="818" y="82" rx="2" ry="2"/><rect class="c c1k" x="818" y="98" rx="2" ry="2"/><rect class="c" x="834" y="2" rx="2" ry="2"/><rect class="c" x="834" y="18" rx="2" ry="2"/><rect class="c" x="834" y="34" rx="2" ry="2"/><rect class="c" x="834" y="50" rx="2" ry="2"/><rect class="c c1l" x="834" y="66" rx="2" ry="2"/><rect class="u u0" height="12" width="497.7" x="0.0" y="144"/><rect class="u u1" height="12" width="146.8" x="497.1" y="144"/><rect class="u u2" height="12" width="117.6" x="643.3" y="144"/><rect class="u u3" height="12" width="88.3" x="760.3" y="144"/><rect class="s s0" x="0.8" y="0.8" width="14.4" height="14.4" rx="4.5" ry="4.5"/><rect class="s s1" x="1.8" y="1.8" width="12.3" height="12.3" rx="4.1" ry="4.1"/><rect class="s s2" x="2.6" y="2.6" width="10.8" height="10.8" rx="3.6" ry="3.6"/><rect class="s s3" x="3.0" y="3.0" width="9.9" height="9.9" rx="3.3" ry="3.3"/></svg>