<svg viewBox="-16 -32 880 192" width="880" height="192" xmlns="http://www.w3.org/2000/svg"><desc>Generated with https://github.com/Platane/snk</desc><style>:root{--cb:#1b1f230a;--cs:white;--ce:#0a0e12;--c0:#0a0e12;--c1:#1445a2;--c2:#1d65ee;--c3:#1f4eff;--c4:#466dff}.c{shape-rendering:geometricPrecision;fill:var(--ce);stroke-width:1px;stroke:var(--cb);animation:none 37100ms linear infinite;width:12px;height:12px}@keyframes c0{0.53%{fill:var(--c1)}0.55%,100%{fill:var(--ce)}}.c.c0{fill:var(--c1);animation-name:c0}@keyframes c1{29.37%{fill:var(--c1)}29.39%,100%{fill:var(--ce)}}.c.c1{fill:var(--c1);animation-name:c1}@keyframes c2{0.8%{fill:var(--c1)}0.82%,100%{fill:var(--ce)}}.c.c2{fill:var(--c1);animation-name:c2}@keyframes c3{68.99%{fill:var(--c2)}69.01%,100%{fill:var(--ce)}}.c.c3{fill:var(--c2);animation-name:c3}@keyframes c4{2.69%{fill:var(--c1)}2.71%,100%{fill:var(--ce)}}.c.c4{fill:var(--c1);animation-name:c4}@keyframes c5{3.22%{fill:var(--c1)}3.24%,100%{fill:var(--ce)}}.c.c5{fill:var(--c1);animation-name:c5}@keyframes c6{1.34%{fill:var(--c1)}1.36%,100%{fill:var(--ce)}}.c.c6{fill:var(--c1);animation-name:c6}@keyframes c7{2.15%{fill:var(--c1)}2.17%,100%{fill:var(--ce)}}.c.c7{fill:var(--c1);animation-name:c7}@keyframes c8{1.61%{fill:var(--c1)}1.63%,100%{fill:var(--ce)}}.c.c8{fill:var(--c1);animation-name:c8}@keyframes c9{67.38%{fill:var(--c2)}67.4%,100%{fill:var(--ce)}}.c.c9{fill:var(--c2);animation-name:c9}@keyframes ca{4.03%{fill:var(--c1)}4.05%,100%{fill:var(--ce)}}.c.ca{fill:var(--c1);animation-name:ca}@keyframes cb{4.57%{fill:var(--c1)}4.59%,100%{fill:var(--ce)}}.c.cb{fill:var(--c1);animation-name:cb}@keyframes cc{27.75%{fill:var(--c1)}27.77%,100%{fill:var(--ce)}}.c.cc{fill:var(--c1);animation-name:cc}@keyframes cd{4.84%{fill:var(--c1)}4.86%,100%{fill:var(--ce)}}.c.cd{fill:var(--c1);animation-name:cd}@keyframes ce{5.92%{fill:var(--c1)}5.94%,100%{fill:var(--ce)}}.c.ce{fill:var(--c1);animation-name:ce}@keyframes cf{5.11%{fill:var(--c1)}5.13%,100%{fill:var(--ce)}}.c.cf{fill:var(--c1);animation-name:cf}@keyframes cg{97.29%{fill:var(--c4)}97.31%,100%{fill:var(--ce)}}.c.cg{fill:var(--c4);animation-name:cg}@keyframes ch{26.94%{fill:var(--c1)}26.96%,100%{fill:var(--ce)}}.c.ch{fill:var(--c1);animation-name:ch}@keyframes ci{5.65%{fill:var(--c1)}5.67%,100%{fill:var(--ce)}}.c.ci{fill:var(--c1);animation-name:ci}@keyframes cj{5.38%{fill:var(--c1)}5.4%,100%{fill:var(--ce)}}.c.cj{fill:var(--c1);animation-name:cj}@keyframes ck{71.42%{fill:var(--c3)}71.44%,100%{fill:var(--ce)}}.c.ck{fill:var(--c3);animation-name:ck}@keyframes cl{6.73%{fill:var(--c1)}6.75%,100%{fill:var(--ce)}}.c.cl{fill:var(--c1);animation-name:cl}@keyframes cm{8.62%{fill:var(--c1)}8.64%,100%{fill:var(--ce)}}.c.cm{fill:var(--c1);animation-name:cm}@keyframes cn{96.49%{fill:var(--c4)}96.51%,100%{fill:var(--ce)}}.c.cn{fill:var(--c4);animation-name:cn}@keyframes co{7.54%{fill:var(--c1)}7.56%,100%{fill:var(--ce)}}.c.co{fill:var(--c1);animation-name:co}@keyframes cp{65.49%{fill:var(--c2)}65.51%,100%{fill:var(--ce)}}.c.cp{fill:var(--c2);animation-name:cp}@keyframes cq{9.15%{fill:var(--c1)}9.17%,100%{fill:var(--ce)}}.c.cq{fill:var(--c1);animation-name:cq}@keyframes cr{72.5%{fill:var(--c3)}72.52%,100%{fill:var(--ce)}}.c.cr{fill:var(--c3);animation-name:cr}@keyframes cs{64.95%{fill:var(--c2)}64.97%,100%{fill:var(--ce)}}.c.cs{fill:var(--c2);animation-name:cs}@keyframes ct{94.6%{fill:var(--c4)}94.62%,100%{fill:var(--ce)}}.c.ct{fill:var(--c4);animation-name:ct}@keyframes cu{25.06%{fill:var(--c1)}25.08%,100%{fill:var(--ce)}}.c.cu{fill:var(--c1);animation-name:cu}@keyframes cv{63.6%{fill:var(--c2)}63.62%,100%{fill:var(--ce)}}.c.cv{fill:var(--c2);animation-name:cv}@keyframes cw{93.52%{fill:var(--c4)}93.54%,100%{fill:var(--ce)}}.c.cw{fill:var(--c4);animation-name:cw}@keyframes cx{11.31%{fill:var(--c1)}11.33%,100%{fill:var(--ce)}}.c.cx{fill:var(--c1);animation-name:cx}@keyframes cy{11.04%{fill:var(--c1)}11.06%,100%{fill:var(--ce)}}.c.cy{fill:var(--c1);animation-name:cy}@keyframes cz{77.08%{fill:var(--c3)}77.1%,100%{fill:var(--ce)}}.c.cz{fill:var(--c3);animation-name:cz}@keyframes c10{73.57%{fill:var(--c3)}73.59%,100%{fill:var(--ce)}}.c.c10{fill:var(--c3);animation-name:c10}@keyframes c11{63.06%{fill:var(--c2)}63.08%,100%{fill:var(--ce)}}.c.c11{fill:var(--c2);animation-name:c11}@keyframes c12{10.5%{fill:var(--c1)}10.52%,100%{fill:var(--ce)}}.c.c12{fill:var(--c1);animation-name:c12}@keyframes c13{61.45%{fill:var(--c2)}61.47%,100%{fill:var(--ce)}}.c.c13{fill:var(--c2);animation-name:c13}@keyframes c14{61.18%{fill:var(--c2)}61.2%,100%{fill:var(--ce)}}.c.c14{fill:var(--c2);animation-name:c14}@keyframes c15{60.64%{fill:var(--c2)}60.66%,100%{fill:var(--ce)}}.c.c15{fill:var(--c2);animation-name:c15}@keyframes c16{60.37%{fill:var(--c2)}60.39%,100%{fill:var(--ce)}}.c.c16{fill:var(--c2);animation-name:c16}@keyframes c17{59.83%{fill:var(--c2)}59.85%,100%{fill:var(--ce)}}.c.c17{fill:var(--c2);animation-name:c17}@keyframes c18{62.25%{fill:var(--c2)}62.27%,100%{fill:var(--ce)}}.c.c18{fill:var(--c2);animation-name:c18}@keyframes c19{74.92%{fill:var(--c3)}74.94%,100%{fill:var(--ce)}}.c.c19{fill:var(--c3);animation-name:c19}@keyframes c1a{75.19%{fill:var(--c3)}75.21%,100%{fill:var(--ce)}}.c.c1a{fill:var(--c3);animation-name:c1a}@keyframes c1b{13.47%{fill:var(--c1)}13.49%,100%{fill:var(--ce)}}.c.c1b{fill:var(--c1);animation-name:c1b}@keyframes c1c{22.36%{fill:var(--c1)}22.38%,100%{fill:var(--ce)}}.c.c1c{fill:var(--c1);animation-name:c1c}@keyframes c1d{14.55%{fill:var(--c1)}14.57%,100%{fill:var(--ce)}}.c.c1d{fill:var(--c1);animation-name:c1d}@keyframes c1e{14.81%{fill:var(--c1)}14.83%,100%{fill:var(--ce)}}.c.c1e{fill:var(--c1);animation-name:c1e}@keyframes c1f{22.09%{fill:var(--c1)}22.11%,100%{fill:var(--ce)}}.c.c1f{fill:var(--c1);animation-name:c1f}@keyframes c1g{15.08%{fill:var(--c1)}15.1%,100%{fill:var(--ce)}}.c.c1g{fill:var(--c1);animation-name:c1g}@keyframes c1h{16.16%{fill:var(--c1)}16.18%,100%{fill:var(--ce)}}.c.c1h{fill:var(--c1);animation-name:c1h}@keyframes c1i{19.67%{fill:var(--c1)}19.69%,100%{fill:var(--ce)}}.c.c1i{fill:var(--c1);animation-name:c1i}@keyframes c1j{18.32%{fill:var(--c1)}18.34%,100%{fill:var(--ce)}}.c.c1j{fill:var(--c1);animation-name:c1j}@keyframes c1k{18.86%{fill:var(--c1)}18.88%,100%{fill:var(--ce)}}.c.c1k{fill:var(--c1);animation-name:c1k}@keyframes c1l{55.52%{fill:var(--c2)}55.54%,100%{fill:var(--ce)}}.c.c1l{fill:var(--c2);animation-name:c1l}@keyframes c1m{55.79%{fill:var(--c2)}55.81%,100%{fill:var(--ce)}}.c.c1m{fill:var(--c2);animation-name:c1m}@keyframes c1n{41.23%{fill:var(--c1)}41.25%,100%{fill:var(--ce)}}.c.c1n{fill:var(--c1);animation-name:c1n}@keyframes c1o{49.59%{fill:var(--c2)}49.61%,100%{fill:var(--ce)}}.c.c1o{fill:var(--c2);animation-name:c1o}@keyframes c1p{48.51%{fill:var(--c1)}48.53%,100%{fill:var(--ce)}}.c.c1p{fill:var(--c1);animation-name:c1p}@keyframes c1q{42.58%{fill:var(--c1)}42.6%,100%{fill:var(--ce)}}.c.c1q{fill:var(--c1);animation-name:c1q}@keyframes c1r{84.9%{fill:var(--c3)}84.92%,100%{fill:var(--ce)}}.c.c1r{fill:var(--c3);animation-name:c1r}@keyframes c1s{47.43%{fill:var(--c1)}47.45%,100%{fill:var(--ce)}}.c.c1s{fill:var(--c1);animation-name:c1s}@keyframes c1t{47.7%{fill:var(--c1)}47.72%,100%{fill:var(--ce)}}.c.c1t{fill:var(--c1);animation-name:c1t}@keyframes c1u{46.89%{fill:var(--c1)}46.91%,100%{fill:var(--ce)}}.c.c1u{fill:var(--c1);animation-name:c1u}@keyframes c1v{46.62%{fill:var(--c1)}46.64%,100%{fill:var(--ce)}}.c.c1v{fill:var(--c1);animation-name:c1v}@keyframes c1w{51.47%{fill:var(--c2)}51.49%,100%{fill:var(--ce)}}.c.c1w{fill:var(--c2);animation-name:c1w}@keyframes c1x{43.66%{fill:var(--c1)}43.68%,100%{fill:var(--ce)}}.c.c1x{fill:var(--c1);animation-name:c1x}@keyframes c1y{44.46%{fill:var(--c1)}44.48%,100%{fill:var(--ce)}}.c.c1y{fill:var(--c1);animation-name:c1y}@keyframes c1z{44.73%{fill:var(--c1)}44.75%,100%{fill:var(--ce)}}.c.c1z{fill:var(--c1);animation-name:c1z}.u{transform-origin:0 0;transform:scale(0,1);animation:none linear 37100ms infinite}@keyframes u0{0.53%{transform:scale(0.000,1)}0.55%,0.8%{transform:scale(0.022,1)}0.82%,1.34%{transform:scale(0.044,1)}1.36%,1.61%{transform:scale(0.067,1)}1.63%,2.15%{transform:scale(0.089,1)}2.17%,2.69%{transform:scale(0.111,1)}2.71%,3.22%{transform:scale(0.133,1)}3.24%,4.03%{transform:scale(0.156,1)}4.05%,4.57%{transform:scale(0.178,1)}4.59%,4.84%{transform:scale(0.200,1)}4.86%,5.11%{transform:scale(0.222,1)}5.13%,5.38%{transform:scale(0.244,1)}5.4%,5.65%{transform:scale(0.267,1)}5.67%,5.92%{transform:scale(0.289,1)}5.94%,6.73%{transform:scale(0.311,1)}6.75%,7.54%{transform:scale(0.333,1)}7.56%,8.62%{transform:scale(0.356,1)}8.64%,9.15%{transform:scale(0.378,1)}9.17%,10.5%{transform:scale(0.400,1)}10.52%,11.04%{transform:scale(0.422,1)}11.06%,11.31%{transform:scale(0.444,1)}11.33%,13.47%{transform:scale(0.467,1)}13.49%,14.55%{transform:scale(0.489,1)}14.57%,14.81%{transform:scale(0.511,1)}14.83%,15.08%{transform:scale(0.533,1)}15.1%,16.16%{transform:scale(0.556,1)}16.18%,18.32%{transform:scale(0.578,1)}18.34%,18.86%{transform:scale(0.600,1)}18.88%,19.67%{transform:scale(0.622,1)}19.69%,22.09%{transform:scale(0.644,1)}22.11%,22.36%{transform:scale(0.667,1)}22.38%,25.06%{transform:scale(0.689,1)}25.08%,26.94%{transform:scale(0.711,1)}26.96%,27.75%{transform:scale(0.733,1)}27.77%,29.37%{transform:scale(0.756,1)}29.39%,41.23%{transform:scale(0.778,1)}41.25%,42.58%{transform:scale(0.800,1)}42.6%,43.66%{transform:scale(0.822,1)}43.68%,44.46%{transform:scale(0.844,1)}44.48%,44.73%{transform:scale(0.867,1)}44.75%,46.62%{transform:scale(0.889,1)}46.64%,46.89%{transform:scale(0.911,1)}46.91%,47.43%{transform:scale(0.933,1)}47.45%,47.7%{transform:scale(0.956,1)}47.72%,48.51%{transform:scale(0.978,1)}48.53%,100%{transform:scale(1.000,1)}}.u.u0{fill:var(--c1);animation-name:u0;transform-origin:0.0px 0}@keyframes u1{49.59%{transform:scale(0.000,1)}49.61%,51.47%{transform:scale(0.063,1)}51.49%,55.52%{transform:scale(0.125,1)}55.54%,55.79%{transform:scale(0.188,1)}55.81%,59.83%{transform:scale(0.250,1)}59.85%,60.37%{transform:scale(0.313,1)}60.39%,60.64%{transform:scale(0.375,1)}60.66%,61.18%{transform:scale(0.438,1)}61.2%,61.45%{transform:scale(0.500,1)}61.47%,62.25%{transform:scale(0.563,1)}62.27%,63.06%{transform:scale(0.625,1)}63.08%,63.6%{transform:scale(0.688,1)}63.62%,64.95%{transform:scale(0.750,1)}64.97%,65.49%{transform:scale(0.813,1)}65.51%,67.38%{transform:scale(0.875,1)}67.4%,68.99%{transform:scale(0.938,1)}69.01%,100%{transform:scale(1.000,1)}}.u.u1{fill:var(--c2);animation-name:u1;transform-origin:530.0px 0}@keyframes u2{71.42%{transform:scale(0.000,1)}71.44%,72.5%{transform:scale(0.143,1)}72.52%,73.57%{transform:scale(0.286,1)}73.59%,74.92%{transform:scale(0.429,1)}74.94%,75.19%{transform:scale(0.571,1)}75.21%,77.08%{transform:scale(0.714,1)}77.1%,84.9%{transform:scale(0.857,1)}84.92%,100%{transform:scale(1.000,1)}}.u.u2{fill:var(--c3);animation-name:u2;transform-origin:718.4px 0}@keyframes u3{93.52%{transform:scale(0.000,1)}93.54%,94.6%{transform:scale(0.250,1)}94.62%,96.49%{transform:scale(0.500,1)}96.51%,97.29%{transform:scale(0.750,1)}97.31%,100%{transform:scale(1.000,1)}}.u.u3{fill:var(--c4);animation-name:u3;transform-origin:800.9px 0}.s{shape-rendering:geometricPrecision;fill:var(--cs);animation:none linear 37100ms infinite}@keyframes s0{0%,99.73%{transform:translate(0px,-16px)}0.27%{transform:translate(0px,0px)}1.08%{transform:translate(48px,0px)}1.35%{transform:translate(48px,16px)}1.62%,68.46%{transform:translate(64px,16px)}1.89%{transform:translate(64px,32px)}2.43%{transform:translate(32px,32px)}3.23%{transform:translate(32px,80px)}3.5%{transform:translate(48px,80px)}3.77%{transform:translate(48px,96px)}4.31%{transform:translate(80px,96px)}4.58%{transform:translate(80px,80px)}5.39%{transform:translate(128px,80px)}5.66%{transform:translate(128px,64px)}5.93%{transform:translate(112px,64px)}6.2%{transform:translate(112px,48px)}7.28%{transform:translate(176px,48px)}7.55%,65.23%{transform:translate(176px,64px)}8.09%{transform:translate(144px,64px)}8.63%{transform:translate(144px,96px)}9.16%,33.42%,94.88%{transform:translate(176px,96px)}9.43%,33.69%{transform:translate(176px,112px)}10.24%{transform:translate(224px,112px)}10.78%{transform:translate(224px,80px)}11.05%{transform:translate(208px,80px)}11.32%,76.55%{transform:translate(208px,64px)}11.59%,64.42%,76.28%{transform:translate(224px,64px)}12.13%,63.88%,73.05%{transform:translate(224px,32px)}12.67%{transform:translate(256px,32px)}13.21%,60.11%{transform:translate(256px,64px)}14.29%{transform:translate(320px,64px)}14.82%{transform:translate(320px,96px)}17.52%{transform:translate(480px,96px)}18.33%{transform:translate(480px,48px)}18.6%,55.26%{transform:translate(496px,48px)}19.14%{transform:translate(496px,16px)}19.68%{transform:translate(464px,16px)}19.95%{transform:translate(464px,0px)}22.37%{transform:translate(320px,0px)}22.64%{transform:translate(320px,-16px)}24.53%{transform:translate(208px,-16px)}25.07%,63.34%{transform:translate(208px,16px)}25.61%,96.23%{transform:translate(176px,16px)}25.88%{transform:translate(176px,32px)}26.68%{transform:translate(128px,32px)}26.95%{transform:translate(128px,16px)}27.22%,70.89%{transform:translate(112px,16px)}27.49%,70.62%{transform:translate(112px,0px)}29.11%{transform:translate(16px,0px)}29.65%{transform:translate(16px,32px)}32.08%{transform:translate(160px,32px)}33.15%{transform:translate(160px,96px)}40.97%{transform:translate(608px,112px)}41.24%{transform:translate(608px,96px)}42.05%{transform:translate(656px,96px)}42.32%{transform:translate(656px,80px)}43.4%{transform:translate(720px,80px)}43.67%{transform:translate(720px,64px)}44.47%{transform:translate(768px,64px)}44.74%{transform:translate(768px,80px)}45.01%{transform:translate(752px,80px)}46.09%{transform:translate(752px,16px)}46.63%,50.94%{transform:translate(720px,16px)}46.9%{transform:translate(720px,0px)}47.44%{transform:translate(688px,0px)}47.71%{transform:translate(688px,16px)}48.25%,49.87%{transform:translate(656px,16px)}48.52%{transform:translate(656px,32px)}48.79%{transform:translate(672px,32px)}49.33%{transform:translate(672px,0px)}49.6%{transform:translate(656px,0px)}51.48%{transform:translate(720px,48px)}55.8%{transform:translate(496px,80px)}59.84%{transform:translate(256px,80px)}60.38%{transform:translate(240px,64px)}61.46%{transform:translate(240px,0px)}61.99%,74.39%{transform:translate(272px,0px)}62.26%{transform:translate(272px,16px)}63.61%{transform:translate(208px,32px)}65.5%{transform:translate(176px,80px)}67.39%{transform:translate(64px,80px)}69%{transform:translate(32px,16px)}69.27%{transform:translate(32px,0px)}71.43%{transform:translate(144px,16px)}71.7%{transform:translate(144px,32px)}73.58%{transform:translate(224px,0px)}75.2%{transform:translate(272px,48px)}76.01%{transform:translate(224px,48px)}77.09%{transform:translate(208px,96px)}84.91%{transform:translate(672px,96px)}85.71%{transform:translate(672px,48px)}93.8%{transform:translate(192px,48px)}94.61%{transform:translate(192px,96px)}96.5%{transform:translate(160px,16px)}96.77%{transform:translate(160px,0px)}97.3%{transform:translate(128px,0px)}97.57%{transform:translate(128px,-16px)}}.s.s0{transform:translate(0px,-16px);animation-name:s0}@keyframes s1{0%,99.73%{transform:translate(16px,-16px)}0.27%{transform:translate(0px,-16px)}0.54%{transform:translate(0px,0px)}1.35%{transform:translate(48px,0px)}1.62%{transform:translate(48px,16px)}1.89%,68.73%{transform:translate(64px,16px)}2.16%{transform:translate(64px,32px)}2.7%{transform:translate(32px,32px)}3.5%{transform:translate(32px,80px)}3.77%{transform:translate(48px,80px)}4.04%{transform:translate(48px,96px)}4.58%{transform:translate(80px,96px)}4.85%{transform:translate(80px,80px)}5.66%{transform:translate(128px,80px)}5.93%{transform:translate(128px,64px)}6.2%{transform:translate(112px,64px)}6.47%{transform:translate(112px,48px)}7.55%{transform:translate(176px,48px)}7.82%,65.5%{transform:translate(176px,64px)}8.36%{transform:translate(144px,64px)}8.89%{transform:translate(144px,96px)}9.43%,33.69%,95.15%{transform:translate(176px,96px)}9.7%,33.96%{transform:translate(176px,112px)}10.51%{transform:translate(224px,112px)}11.05%{transform:translate(224px,80px)}11.32%{transform:translate(208px,80px)}11.59%,76.82%{transform:translate(208px,64px)}11.86%,64.69%,76.55%{transform:translate(224px,64px)}12.4%,64.15%,73.32%{transform:translate(224px,32px)}12.94%{transform:translate(256px,32px)}13.48%,60.38%{transform:translate(256px,64px)}14.56%{transform:translate(320px,64px)}15.09%{transform:translate(320px,96px)}17.79%{transform:translate(480px,96px)}18.6%{transform:translate(480px,48px)}18.87%,55.53%{transform:translate(496px,48px)}19.41%{transform:translate(496px,16px)}19.95%{transform:translate(464px,16px)}20.22%{transform:translate(464px,0px)}22.64%{transform:translate(320px,0px)}22.91%{transform:translate(320px,-16px)}24.8%{transform:translate(208px,-16px)}25.34%,63.61%{transform:translate(208px,16px)}25.88%,96.5%{transform:translate(176px,16px)}26.15%{transform:translate(176px,32px)}26.95%{transform:translate(128px,32px)}27.22%{transform:translate(128px,16px)}27.49%,71.16%{transform:translate(112px,16px)}27.76%,70.89%{transform:translate(112px,0px)}29.38%{transform:translate(16px,0px)}29.92%{transform:translate(16px,32px)}32.35%{transform:translate(160px,32px)}33.42%{transform:translate(160px,96px)}41.24%{transform:translate(608px,112px)}41.51%{transform:translate(608px,96px)}42.32%{transform:translate(656px,96px)}42.59%{transform:translate(656px,80px)}43.67%{transform:translate(720px,80px)}43.94%{transform:translate(720px,64px)}44.74%{transform:translate(768px,64px)}45.01%{transform:translate(768px,80px)}45.28%{transform:translate(752px,80px)}46.36%{transform:translate(752px,16px)}46.9%,51.21%{transform:translate(720px,16px)}47.17%{transform:translate(720px,0px)}47.71%{transform:translate(688px,0px)}47.98%{transform:translate(688px,16px)}48.52%,50.13%{transform:translate(656px,16px)}48.79%{transform:translate(656px,32px)}49.06%{transform:translate(672px,32px)}49.6%{transform:translate(672px,0px)}49.87%{transform:translate(656px,0px)}51.75%{transform:translate(720px,48px)}56.06%{transform:translate(496px,80px)}60.11%{transform:translate(256px,80px)}60.65%{transform:translate(240px,64px)}61.73%{transform:translate(240px,0px)}62.26%,74.66%{transform:translate(272px,0px)}62.53%{transform:translate(272px,16px)}63.88%{transform:translate(208px,32px)}65.77%{transform:translate(176px,80px)}67.65%{transform:translate(64px,80px)}69.27%{transform:translate(32px,16px)}69.54%{transform:translate(32px,0px)}71.7%{transform:translate(144px,16px)}71.97%{transform:translate(144px,32px)}73.85%{transform:translate(224px,0px)}75.47%{transform:translate(272px,48px)}76.28%{transform:translate(224px,48px)}77.36%{transform:translate(208px,96px)}85.18%{transform:translate(672px,96px)}85.98%{transform:translate(672px,48px)}94.07%{transform:translate(192px,48px)}94.88%{transform:translate(192px,96px)}96.77%{transform:translate(160px,16px)}97.04%{transform:translate(160px,0px)}97.57%{transform:translate(128px,0px)}97.84%{transform:translate(128px,-16px)}}.s.s1{transform:translate(16px,-16px);animation-name:s1}@keyframes s2{0%,99.73%{transform:translate(32px,-16px)}0.54%{transform:translate(0px,-16px)}0.81%{transform:translate(0px,0px)}1.62%{transform:translate(48px,0px)}1.89%{transform:translate(48px,16px)}2.16%,69%{transform:translate(64px,16px)}2.43%{transform:translate(64px,32px)}2.96%{transform:translate(32px,32px)}3.77%{transform:translate(32px,80px)}4.04%{transform:translate(48px,80px)}4.31%{transform:translate(48px,96px)}4.85%{transform:translate(80px,96px)}5.12%{transform:translate(80px,80px)}5.93%{transform:translate(128px,80px)}6.2%{transform:translate(128px,64px)}6.47%{transform:translate(112px,64px)}6.74%{transform:translate(112px,48px)}7.82%{transform:translate(176px,48px)}8.09%,65.77%{transform:translate(176px,64px)}8.63%{transform:translate(144px,64px)}9.16%{transform:translate(144px,96px)}9.7%,33.96%,95.42%{transform:translate(176px,96px)}9.97%,34.23%{transform:translate(176px,112px)}10.78%{transform:translate(224px,112px)}11.32%{transform:translate(224px,80px)}11.59%{transform:translate(208px,80px)}11.86%,77.09%{transform:translate(208px,64px)}12.13%,64.96%,76.82%{transform:translate(224px,64px)}12.67%,64.42%,73.58%{transform:translate(224px,32px)}13.21%{transform:translate(256px,32px)}13.75%,60.65%{transform:translate(256px,64px)}14.82%{transform:translate(320px,64px)}15.36%{transform:translate(320px,96px)}18.06%{transform:translate(480px,96px)}18.87%{transform:translate(480px,48px)}19.14%,55.8%{transform:translate(496px,48px)}19.68%{transform:translate(496px,16px)}20.22%{transform:translate(464px,16px)}20.49%{transform:translate(464px,0px)}22.91%{transform:translate(320px,0px)}23.18%{transform:translate(320px,-16px)}25.07%{transform:translate(208px,-16px)}25.61%,63.88%{transform:translate(208px,16px)}26.15%,96.77%{transform:translate(176px,16px)}26.42%{transform:translate(176px,32px)}27.22%{transform:translate(128px,32px)}27.49%{transform:translate(128px,16px)}27.76%,71.43%{transform:translate(112px,16px)}28.03%,71.16%{transform:translate(112px,0px)}29.65%{transform:translate(16px,0px)}30.19%{transform:translate(16px,32px)}32.61%{transform:translate(160px,32px)}33.69%{transform:translate(160px,96px)}41.51%{transform:translate(608px,112px)}41.78%{transform:translate(608px,96px)}42.59%{transform:translate(656px,96px)}42.86%{transform:translate(656px,80px)}43.94%{transform:translate(720px,80px)}44.2%{transform:translate(720px,64px)}45.01%{transform:translate(768px,64px)}45.28%{transform:translate(768px,80px)}45.55%{transform:translate(752px,80px)}46.63%{transform:translate(752px,16px)}47.17%,51.48%{transform:translate(720px,16px)}47.44%{transform:translate(720px,0px)}47.98%{transform:translate(688px,0px)}48.25%{transform:translate(688px,16px)}48.79%,50.4%{transform:translate(656px,16px)}49.06%{transform:translate(656px,32px)}49.33%{transform:translate(672px,32px)}49.87%{transform:translate(672px,0px)}50.13%{transform:translate(656px,0px)}52.02%{transform:translate(720px,48px)}56.33%{transform:translate(496px,80px)}60.38%{transform:translate(256px,80px)}60.92%{transform:translate(240px,64px)}61.99%{transform:translate(240px,0px)}62.53%,74.93%{transform:translate(272px,0px)}62.8%{transform:translate(272px,16px)}64.15%{transform:translate(208px,32px)}66.04%{transform:translate(176px,80px)}67.92%{transform:translate(64px,80px)}69.54%{transform:translate(32px,16px)}69.81%{transform:translate(32px,0px)}71.97%{transform:translate(144px,16px)}72.24%{transform:translate(144px,32px)}74.12%{transform:translate(224px,0px)}75.74%{transform:translate(272px,48px)}76.55%{transform:translate(224px,48px)}77.63%{transform:translate(208px,96px)}85.44%{transform:translate(672px,96px)}86.25%{transform:translate(672px,48px)}94.34%{transform:translate(192px,48px)}95.15%{transform:translate(192px,96px)}97.04%{transform:translate(160px,16px)}97.3%{transform:translate(160px,0px)}97.84%{transform:translate(128px,0px)}98.11%{transform:translate(128px,-16px)}}.s.s2{transform:translate(32px,-16px);animation-name:s2}@keyframes s3{0%,99.73%{transform:translate(48px,-16px)}0.81%{transform:translate(0px,-16px)}1.08%{transform:translate(0px,0px)}1.89%{transform:translate(48px,0px)}2.16%{transform:translate(48px,16px)}2.43%,69.27%{transform:translate(64px,16px)}2.7%{transform:translate(64px,32px)}3.23%{transform:translate(32px,32px)}4.04%{transform:translate(32px,80px)}4.31%{transform:translate(48px,80px)}4.58%{transform:translate(48px,96px)}5.12%{transform:translate(80px,96px)}5.39%{transform:translate(80px,80px)}6.2%{transform:translate(128px,80px)}6.47%{transform:translate(128px,64px)}6.74%{transform:translate(112px,64px)}7.01%{transform:translate(112px,48px)}8.09%{transform:translate(176px,48px)}8.36%,66.04%{transform:translate(176px,64px)}8.89%{transform:translate(144px,64px)}9.43%{transform:translate(144px,96px)}9.97%,34.23%,95.69%{transform:translate(176px,96px)}10.24%,34.5%{transform:translate(176px,112px)}11.05%{transform:translate(224px,112px)}11.59%{transform:translate(224px,80px)}11.86%{transform:translate(208px,80px)}12.13%,77.36%{transform:translate(208px,64px)}12.4%,65.23%,77.09%{transform:translate(224px,64px)}12.94%,64.69%,73.85%{transform:translate(224px,32px)}13.48%{transform:translate(256px,32px)}14.02%,60.92%{transform:translate(256px,64px)}15.09%{transform:translate(320px,64px)}15.63%{transform:translate(320px,96px)}18.33%{transform:translate(480px,96px)}19.14%{transform:translate(480px,48px)}19.41%,56.06%{transform:translate(496px,48px)}19.95%{transform:translate(496px,16px)}20.49%{transform:translate(464px,16px)}20.75%{transform:translate(464px,0px)}23.18%{transform:translate(320px,0px)}23.45%{transform:translate(320px,-16px)}25.34%{transform:translate(208px,-16px)}25.88%,64.15%{transform:translate(208px,16px)}26.42%,97.04%{transform:translate(176px,16px)}26.68%{transform:translate(176px,32px)}27.49%{transform:translate(128px,32px)}27.76%{transform:translate(128px,16px)}28.03%,71.7%{transform:translate(112px,16px)}28.3%,71.43%{transform:translate(112px,0px)}29.92%{transform:translate(16px,0px)}30.46%{transform:translate(16px,32px)}32.88%{transform:translate(160px,32px)}33.96%{transform:translate(160px,96px)}41.78%{transform:translate(608px,112px)}42.05%{transform:translate(608px,96px)}42.86%{transform:translate(656px,96px)}43.13%{transform:translate(656px,80px)}44.2%{transform:translate(720px,80px)}44.47%{transform:translate(720px,64px)}45.28%{transform:translate(768px,64px)}45.55%{transform:translate(768px,80px)}45.82%{transform:translate(752px,80px)}46.9%{transform:translate(752px,16px)}47.44%,51.75%{transform:translate(720px,16px)}47.71%{transform:translate(720px,0px)}48.25%{transform:translate(688px,0px)}48.52%{transform:translate(688px,16px)}49.06%,50.67%{transform:translate(656px,16px)}49.33%{transform:translate(656px,32px)}49.6%{transform:translate(672px,32px)}50.13%{transform:translate(672px,0px)}50.4%{transform:translate(656px,0px)}52.29%{transform:translate(720px,48px)}56.6%{transform:translate(496px,80px)}60.65%{transform:translate(256px,80px)}61.19%{transform:translate(240px,64px)}62.26%{transform:translate(240px,0px)}62.8%,75.2%{transform:translate(272px,0px)}63.07%{transform:translate(272px,16px)}64.42%{transform:translate(208px,32px)}66.31%{transform:translate(176px,80px)}68.19%{transform:translate(64px,80px)}69.81%{transform:translate(32px,16px)}70.08%{transform:translate(32px,0px)}72.24%{transform:translate(144px,16px)}72.51%{transform:translate(144px,32px)}74.39%{transform:translate(224px,0px)}76.01%{transform:translate(272px,48px)}76.82%{transform:translate(224px,48px)}77.9%{transform:translate(208px,96px)}85.71%{transform:translate(672px,96px)}86.52%{transform:translate(672px,48px)}94.61%{transform:translate(192px,48px)}95.42%{transform:translate(192px,96px)}97.3%{transform:translate(160px,16px)}97.57%{transform:translate(160px,0px)}98.11%{transform:translate(128px,0px)}98.38%{transform:translate(128px,-16px)}}.s.s3{transform:translate(48px,-16px);animation-name:s3}</style><rect class="c" x="2" y="2" rx="2" ry="2"/><rect class="c" x="2" y="18" rx="2" ry="2"/><rect class="c" x="2" y="34" rx="2" ry="2"/><rect class="c" x="2" y="50" rx="2" ry="2"/><rect class="c" x="2" y="66" rx="2" ry="2"/><rect class="c" x="2" y="82" rx="2" ry="2"/><rect class="c" x="2" y="98" rx="2" ry="2"/><rect class="c c0" x="18" y="2" rx="2" ry="2"/><rect class="c c1" x="18" y="18" rx="2" ry="2"/><rect class="c" x="18" y="34" rx="2" ry="2"/><rect class="c" x="18" y="50" rx="2" ry="2"/><rect class="c" x="18" y="66" rx="2" ry="2"/><rect class="c" x="18" y="82" rx="2" ry="2"/><rect class="c" x="18" y="98" rx="2" ry="2"/><rect class="c c2" x="34" y="2" rx="2" ry="2"/><rect class="c c3" x="34" y="18" rx="2" ry="2"/><rect class="c" x="34" y="34" rx="2" ry="2"/><rect class="c c4" x="34" y="50" rx="2" ry="2"/><rect class="c" x="34" y="66" rx="2" ry="2"/><rect class="c c5" x="34" y="82" rx="2" ry="2"/><rect class="c" x="34" y="98" rx="2" ry="2"/><rect class="c" x="50" y="2" rx="2" ry="2"/><rect class="c c6" x="50" y="18" rx="2" ry="2"/><rect class="c c7" x="50" y="34" rx="2" ry="2"/><rect class="c" x="50" y="50" rx="2" ry="2"/><rect class="c" x="50" y="66" rx="2" ry="2"/><rect class="c" x="50" y="82" rx="2" ry="2"/><rect class="c" x="50" y="98" rx="2" ry="2"/><rect class="c" x="66" y="2" rx="2" ry="2"/><rect class="c c8" x="66" y="18" rx="2" ry="2"/><rect class="c" x="66" y="34" rx="2" ry="2"/><rect class="c" x="66" y="50" rx="2" ry="2"/><rect class="c" x="66" y="66" rx="2" ry="2"/><rect class="c c9" x="66" y="82" rx="2" ry="2"/><rect class="c ca" x="66" y="98" rx="2" ry="2"/><rect class="c" x="82" y="2" rx="2" ry="2"/><rect class="c" x="82" y="18" rx="2" ry="2"/><rect class="c" x="82" y="34" rx="2" ry="2"/><rect class="c" x="82" y="50" rx="2" ry="2"/><rect class="c" x="82" y="66" rx="2" ry="2"/><rect class="c cb" x="82" y="82" rx="2" ry="2"/><rect class="c" x="82" y="98" rx="2" ry="2"/><rect class="c cc" x="98" y="2" rx="2" ry="2"/><rect class="c" x="98" y="18" rx="2" ry="2"/><rect class="c" x="98" y="34" rx="2" ry="2"/><rect class="c" x="98" y="50" rx="2" ry="2"/><rect class="c" x="98" y="66" rx="2" ry="2"/><rect class="c cd" x="98" y="82" rx="2" ry="2"/><rect class="c" x="98" y="98" rx="2" ry="2"/><rect class="c" x="114" y="2" rx="2" ry="2"/><rect class="c" x="114" y="18" rx="2" ry="2"/><rect class="c" x="114" y="34" rx="2" ry="2"/><rect class="c" x="114" y="50" rx="2" ry="2"/><rect class="c ce" x="114" y="66" rx="2" ry="2"/><rect class="c cf" x="114" y="82" rx="2" ry="2"/><rect class="c" x="114" y="98" rx="2" ry="2"/><rect class="c cg" x="130" y="2" rx="2" ry="2"/><rect class="c ch" x="130" y="18" rx="2" ry="2"/><rect class="c" x="130" y="34" rx="2" ry="2"/><rect class="c" x="130" y="50" rx="2" ry="2"/><rect class="c ci" x="130" y="66" rx="2" ry="2"/><rect class="c cj" x="130" y="82" rx="2" ry="2"/><rect class="c" x="130" y="98" rx="2" ry="2"/><rect class="c" x="146" y="2" rx="2" ry="2"/><rect class="c ck" x="146" y="18" rx="2" ry="2"/><rect class="c" x="146" y="34" rx="2" ry="2"/><rect class="c cl" x="146" y="50" rx="2" ry="2"/><rect class="c" x="146" y="66" rx="2" ry="2"/><rect class="c" x="146" y="82" rx="2" ry="2"/><rect class="c cm" x="146" y="98" rx="2" ry="2"/><rect class="c" x="162" y="2" rx="2" ry="2"/><rect class="c cn" x="162" y="18" rx="2" ry="2"/><rect class="c" x="162" y="34" rx="2" ry="2"/><rect class="c" x="162" y="50" rx="2" ry="2"/><rect class="c" x="162" y="66" rx="2" ry="2"/><rect class="c" x="162" y="82" rx="2" ry="2"/><rect class="c" x="162" y="98" rx="2" ry="2"/><rect class="c" x="178" y="2" rx="2" ry="2"/><rect class="c" x="178" y="18" rx="2" ry="2"/><rect class="c" x="178" y="34" rx="2" ry="2"/><rect class="c" x="178" y="50" rx="2" ry="2"/><rect class="c co" x="178" y="66" rx="2" ry="2"/><rect class="c cp" x="178" y="82" rx="2" ry="2"/><rect class="c cq" x="178" y="98" rx="2" ry="2"/><rect class="c" x="194" y="2" rx="2" ry="2"/><rect class="c" x="194" y="18" rx="2" ry="2"/><rect class="c cr" x="194" y="34" rx="2" ry="2"/><rect class="c" x="194" y="50" rx="2" ry="2"/><rect class="c cs" x="194" y="66" rx="2" ry="2"/><rect class="c" x="194" y="82" rx="2" ry="2"/><rect class="c ct" x="194" y="98" rx="2" ry="2"/><rect class="c" x="210" y="2" rx="2" ry="2"/><rect class="c cu" x="210" y="18" rx="2" ry="2"/><rect class="c cv" x="210" y="34" rx="2" ry="2"/><rect class="c cw" x="210" y="50" rx="2" ry="2"/><rect class="c cx" x="210" y="66" rx="2" ry="2"/><rect class="c cy" x="210" y="82" rx="2" ry="2"/><rect class="c cz" x="210" y="98" rx="2" ry="2"/><rect class="c c10" x="226" y="2" rx="2" ry="2"/><rect class="c c11" x="226" y="18" rx="2" ry="2"/><rect class="c" x="226" y="34" rx="2" ry="2"/><rect class="c" x="226" y="50" rx="2" ry="2"/><rect class="c" x="226" y="66" rx="2" ry="2"/><rect class="c" x="226" y="82" rx="2" ry="2"/><rect class="c c12" x="226" y="98" rx="2" ry="2"/><rect class="c c13" x="242" y="2" rx="2" ry="2"/><rect class="c c14" x="242" y="18" rx="2" ry="2"/><rect class="c" x="242" y="34" rx="2" ry="2"/><rect class="c c15" x="242" y="50" rx="2" ry="2"/><rect class="c c16" x="242" y="66" rx="2" ry="2"/><rect class="c" x="242" y="82" rx="2" ry="2"/><rect class="c" x="242" y="98" rx="2" ry="2"/><rect class="c" x="258" y="2" rx="2" ry="2"/><rect class="c" x="258" y="18" rx="2" ry="2"/><rect class="c" x="258" y="34" rx="2" ry="2"/><rect class="c" x="258" y="50" rx="2" ry="2"/><rect class="c" x="258" y="66" rx="2" ry="2"/><rect class="c c17" x="258" y="82" rx="2" ry="2"/><rect class="c" x="258" y="98" rx="2" ry="2"/><rect class="c" x="274" y="2" rx="2" ry="2"/><rect class="c c18" x="274" y="18" rx="2" ry="2"/><rect class="c c19" x="274" y="34" rx="2" ry="2"/><rect class="c c1a" x="274" y="50" rx="2" ry="2"/><rect class="c c1b" x="274" y="66" rx="2" ry="2"/><rect class="c" x="274" y="82" rx="2" ry="2"/><rect class="c" x="274" y="98" rx="2" ry="2"/><rect class="c" x="290" y="2" rx="2" ry="2"/><rect class="c" x="290" y="18" rx="2" ry="2"/><rect class="c" x="290" y="34" rx="2" ry="2"/><rect class="c" x="290" y="50" rx="2" ry="2"/><rect class="c" x="290" y="66" rx="2" ry="2"/><rect class="c" x="290" y="82" rx="2" ry="2"/><rect class="c" x="290" y="98" rx="2" ry="2"/><rect class="c" x="306" y="2" rx="2" ry="2"/><rect class="c" x="306" y="18" rx="2" ry="2"/><rect class="c" x="306" y="34" rx="2" ry="2"/><rect class="c" x="306" y="50" rx="2" ry="2"/><rect class="c" x="306" y="66" rx="2" ry="2"/><rect class="c" x="306" y="82" rx="2" ry="2"/><rect class="c" x="306" y="98" rx="2" ry="2"/><rect class="c c1c" x="322" y="2" rx="2" ry="2"/><rect class="c" x="322" y="18" rx="2" ry="2"/><rect class="c" x="322" y="34" rx="2" ry="2"/><rect class="c" x="322" y="50" rx="2" ry="2"/><rect class="c" x="322" y="66" rx="2" ry="2"/><rect class="c c1d" x="322" y="82" rx="2" ry="2"/><rect class="c c1e" x="322" y="98" rx="2" ry="2"/><rect class="c c1f" x="338" y="2" rx="2" ry="2"/><rect class="c" x="338" y="18" rx="2" ry="2"/><rect class="c" x="338" y="34" rx="2" ry="2"/><rect class="c" x="338" y="50" rx="2" ry="2"/><rect class="c" x="338" y="66" rx="2" ry="2"/><rect class="c" x="338" y="82" rx="2" ry="2"/><rect class="c c1g" x="338" y="98" rx="2" ry="2"/><rect class="c" x="354" y="2" rx="2" ry="2"/><rect class="c" x="354" y="18" rx="2" ry="2"/><rect class="c" x="354" y="34" rx="2" ry="2"/><rect class="c" x="354" y="50" rx="2" ry="2"/><rect class="c" x="354" y="66" rx="2" ry="2"/><rect class="c" x="354" y="82" rx="2" ry="2"/><rect class="c" x="354" y="98" rx="2" ry="2"/><rect class="c" x="370" y="2" rx="2" ry="2"/><rect class="c" x="370" y="18" rx="2" ry="2"/><rect class="c" x="370" y="34" rx="2" ry="2"/><rect class="c" x="370" y="50" rx="2" ry="2"/><rect class="c" x="370" y="66" rx="2" ry="2"/><rect class="c" x="370" y="82" rx="2" ry="2"/><rect class="c" x="370" y="98" rx="2" ry="2"/><rect class="c" x="386" y="2" rx="2" ry="2"/><rect class="c" x="386" y="18" rx="2" ry="2"/><rect class="c" x="386" y="34" rx="2" ry="2"/><rect class="c" x="386" y="50" rx="2" ry="2"/><rect class="c" x="386" y="66" rx="2" ry="2"/><rect class="c" x="386" y="82" rx="2" ry="2"/><rect class="c" x="386" y="98" rx="2" ry="2"/><rect class="c" x="402" y="2" rx="2" ry="2"/><rect class="c" x="402" y="18" rx="2" ry="2"/><rect class="c" x="402" y="34" rx="2" ry="2"/><rect class="c" x="402" y="50" rx="2" ry="2"/><rect class="c" x="402" y="66" rx="2" ry="2"/><rect class="c" x="402" y="82" rx="2" ry="2"/><rect class="c c1h" x="402" y="98" rx="2" ry="2"/><rect class="c" x="418" y="2" rx="2" ry="2"/><rect class="c" x="418" y="18" rx="2" ry="2"/><rect class="c" x="418" y="34" rx="2" ry="2"/><rect class="c" x="418" y="50" rx="2" ry="2"/><rect class="c" x="418" y="66" rx="2" ry="2"/><rect class="c" x="418" y="82" rx="2" ry="2"/><rect class="c" x="418" y="98" rx="2" ry="2"/><rect class="c" x="434" y="2" rx="2" ry="2"/><rect class="c" x="434" y="18" rx="2" ry="2"/><rect class="c" x="434" y="34" rx="2" ry="2"/><rect class="c" x="434" y="50" rx="2" ry="2"/><rect class="c" x="434" y="66" rx="2" ry="2"/><rect class="c" x="434" y="82" rx="2" ry="2"/><rect class="c" x="434" y="98" rx="2" ry="2"/><rect class="c" x="450" y="2" rx="2" ry="2"/><rect class="c" x="450" y="18" rx="2" ry="2"/><rect class="c" x="450" y="34" rx="2" ry="2"/><rect class="c" x="450" y="50" rx="2" ry="2"/><rect class="c" x="450" y="66" rx="2" ry="2"/><rect class="c" x="450" y="82" rx="2" ry="2"/><rect class="c" x="450" y="98" rx="2" ry="2"/><rect class="c" x="466" y="2" rx="2" ry="2"/><rect class="c c1i" x="466" y="18" rx="2" ry="2"/><rect class="c" x="466" y="34" rx="2" ry="2"/><rect class="c" x="466" y="50" rx="2" ry="2"/><rect class="c" x="466" y="66" rx="2" ry="2"/><rect class="c" x="466" y="82" rx="2" ry="2"/><rect class="c" x="466" y="98" rx="2" ry="2"/><rect class="c" x="482" y="2" rx="2" ry="2"/><rect class="c" x="482" y="18" rx="2" ry="2"/><rect class="c" x="482" y="34" rx="2" ry="2"/><rect class="c c1j" x="482" y="50" rx="2" ry="2"/><rect class="c" x="482" y="66" rx="2" ry="2"/><rect class="c" x="482" y="82" rx="2" ry="2"/><rect class="c" x="482" y="98" rx="2" ry="2"/><rect class="c" x="498" y="2" rx="2" ry="2"/><rect class="c" x="498" y="18" rx="2" ry="2"/><rect class="c c1k" x="498" y="34" rx="2" ry="2"/><rect class="c" x="498" y="50" rx="2" ry="2"/><rect class="c c1l" x="498" y="66" rx="2" ry="2"/><rect class="c c1m" x="498" y="82" rx="2" ry="2"/><rect class="c" x="498" y="98" rx="2" ry="2"/><rect class="c" x="514" y="2" rx="2" ry="2"/><rect class="c" x="514" y="18" rx="2" ry="2"/><rect class="c" x="514" y="34" rx="2" ry="2"/><rect class="c" x="514" y="50" rx="2" ry="2"/><rect class="c" x="514" y="66" rx="2" ry="2"/><rect class="c" x="514" y="82" rx="2" ry="2"/><rect class="c" x="514" y="98" rx="2" ry="2"/><rect class="c" x="530" y="2" rx="2" ry="2"/><rect class="c" x="530" y="18" rx="2" ry="2"/><rect class="c" x="530" y="34" rx="2" ry="2"/><rect class="c" x="530" y="50" rx="2" ry="2"/><rect class="c" x="530" y="66" rx="2" ry="2"/><rect class="c" x="530" y="82" rx="2" ry="2"/><rect class="c" x="530" y="98" rx="2" ry="2"/><rect class="c" x="546" y="2" rx="2" ry="2"/><rect class="c" x="546" y="18" rx="2" ry="2"/><rect class="c" x="546" y="34" rx="2" ry="2"/><rect class="c" x="546" y="50" rx="2" ry="2"/><rect class="c" x="546" y="66" rx="2" ry="2"/><rect class="c" x="546" y="82" rx="2" ry="2"/><rect class="c" x="546" y="98" rx="2" ry="2"/><rect class="c" x="562" y="2" rx="2" ry="2"/><rect class="c" x="562" y="18" rx="2" ry="2"/><rect class="c" x="562" y="34" rx="2" ry="2"/><rect class="c" x="562" y="50" rx="2" ry="2"/><rect class="c" x="562" y="66" rx="2" ry="2"/><rect class="c" x="562" y="82" rx="2" ry="2"/><rect class="c" x="562" y="98" rx="2" ry="2"/><rect class="c" x="578" y="2" rx="2" ry="2"/><rect class="c" x="578" y="18" rx="2" ry="2"/><rect class="c" x="578" y="34" rx="2" ry="2"/><rect class="c" x="578" y="50" rx="2" ry="2"/><rect class="c" x="578" y="66" rx="2" ry="2"/><rect class="c" x="578" y="82" rx="2" ry="2"/><rect class="c" x="578" y="98" rx="2" ry="2"/><rect class="c" x="594" y="2" rx="2" ry="2"/><rect class="c" x="594" y="18" rx="2" ry="2"/><rect class="c" x="594" y="34" rx="2" ry="2"/><rect class="c" x="594" y="50" rx="2" ry="2"/><rect class="c" x="594" y="66" rx="2" ry="2"/><rect class="c" x="594" y="82" rx="2" ry="2"/><rect class="c" x="594" y="98" rx="2" ry="2"/><rect class="c" x="610" y="2" rx="2" ry="2"/><rect class="c" x="610" y="18" rx="2" ry="2"/><rect class="c" x="610" y="34" rx="2" ry="2"/><rect class="c" x="610" y="50" rx="2" ry="2"/><rect class="c" x="610" y="66" rx="2" ry="2"/><rect class="c" x="610" y="82" rx="2" ry="2"/><rect class="c c1n" x="610" y="98" rx="2" ry="2"/><rect class="c" x="626" y="2" rx="2" ry="2"/><rect class="c" x="626" y="18" rx="2" ry="2"/><rect class="c" x="626" y="34" rx="2" ry="2"/><rect class="c" x="626" y="50" rx="2" ry="2"/><rect class="c" x="626" y="66" rx="2" ry="2"/><rect class="c" x="626" y="82" rx="2" ry="2"/><rect class="c" x="626" y="98" rx="2" ry="2"/><rect class="c" x="642" y="2" rx="2" ry="2"/><rect class="c" x="642" y="18" rx="2" ry="2"/><rect class="c" x="642" y="34" rx="2" ry="2"/><rect class="c" x="642" y="50" rx="2" ry="2"/><rect class="c" x="642" y="66" rx="2" ry="2"/><rect class="c" x="642" y="82" rx="2" ry="2"/><rect class="c" x="642" y="98" rx="2" ry="2"/><rect class="c c1o" x="658" y="2" rx="2" ry="2"/><rect class="c" x="658" y="18" rx="2" ry="2"/><rect class="c c1p" x="658" y="34" rx="2" ry="2"/><rect class="c" x="658" y="50" rx="2" ry="2"/><rect class="c" x="658" y="66" rx="2" ry="2"/><rect class="c" x="658" y="82" rx="2" ry="2"/><rect class="c" x="658" y="98" rx="2" ry="2"/><rect class="c" x="674" y="2" rx="2" ry="2"/><rect class="c" x="674" y="18" rx="2" ry="2"/><rect class="c" x="674" y="34" rx="2" ry="2"/><rect class="c" x="674" y="50" rx="2" ry="2"/><rect class="c" x="674" y="66" rx="2" ry="2"/><rect class="c c1q" x="674" y="82" rx="2" ry="2"/><rect class="c c1r" x="674" y="98" rx="2" ry="2"/><rect class="c c1s" x="690" y="2" rx="2" ry="2"/><rect class="c c1t" x="690" y="18" rx="2" ry="2"/><rect class="c" x="690" y="34" rx="2" ry="2"/><rect class="c" x="690" y="50" rx="2" ry="2"/><rect class="c" x="690" y="66" rx="2" ry="2"/><rect class="c" x="690" y="82" rx="2" ry="2"/><rect class="c" x="690" y="98" rx="2" ry="2"/><rect class="c" x="706" y="2" rx="2" ry="2"/><rect class="c" x="706" y="18" rx="2" ry="2"/><rect class="c" x="706" y="34" rx="2" ry="2"/><rect class="c" x="706" y="50" rx="2" ry="2"/><rect class="c" x="706" y="66" rx="2" ry="2"/><rect class="c" x="706" y="82" rx="2" ry="2"/><rect class="c" x="706" y="98" rx="2" ry="2"/><rect class="c c1u" x="722" y="2" rx="2" ry="2"/><rect class="c c1v" x="722" y="18" rx="2" ry="2"/><rect class="c" x="722" y="34" rx="2" ry="2"/><rect class="c c1w" x="722" y="50" rx="2" ry="2"/><rect class="c c1x" x="722" y="66" rx="2" ry="2"/><rect class="c" x="722" y="82" rx="2" ry="2"/><rect class="c" x="722" y="98" rx="2" ry="2"/><rect class="c" x="738" y="2" rx="2" ry="2"/><rect class="c" x="738" y="18" rx="2" ry="2"/><rect class="c" x="738" y="34" rx="2" ry="2"/><rect class="c" x="738" y="50" rx="2" ry="2"/><rect class="c" x="738" y="66" rx="2" ry="2"/><rect class="c" x="738" y="82" rx="2" ry="2"/><rect class="c" x="738" y="98" rx="2" ry="2"/><rect class="c" x="754" y="2" rx="2" ry="2"/><rect class="c" x="754" y="18" rx="2" ry="2"/><rect class="c" x="754" y="34" rx="2" ry="2"/><rect class="c" x="754" y="50" rx="2" ry="2"/><rect class="c" x="754" y="66" rx="2" ry="2"/><rect class="c" x="754" y="82" rx="2" ry="2"/><rect class="c" x="754" y="98" rx="2" ry="2"/><rect class="c" x="770" y="2" rx="2" ry="2"/><rect class="c" x="770" y="18" rx="2" ry="2"/><rect class="c" x="770" y="34" rx="2" ry="2"/><rect class="c" x="770" y="50" rx="2" ry="2"/><rect class="c c1y" x="770" y="66" rx="2" ry="2"/><rect class="c c1z" x="770" y="82" rx="2" ry="2"/><rect class="c" x="770" y="98" rx="2" ry="2"/><rect class="c" x="786" y="2" rx="2" ry="2"/><rect class="c" x="786" y="18" rx="2" ry="2"/><rect class="c" x="786" y="34" rx="2" ry="2"/><rect class="c" x="786" y="50" rx="2" ry="2"/><rect class="c" x="786" y="66" rx="2" ry="2"/><rect class="c" x="786" y="82" rx="2" ry="2"/><rect class="c" x="786" y="98" rx="2" ry="2"/><rect class="c" x="802" y="2" rx="2" ry="2"/><rect class="c" x="802" y="18" rx="2" ry="2"/><rect class="c" x="802" y="34" rx="2" ry="2"/><rect class="c" x="802" y="50" rx="2" ry="2"/><rect class="c" x="802" y="66" rx="2" ry="2"/><rect class="c" x="802" y="82" rx="2" ry="2"/><rect class="c" x="802" y="98" rx="2" ry="2"/><rect class="c" x="818" y="2" rx="2" ry="2"/><rect class="c" x="818" y="18" rx="2" ry="2"/><rect class="c" x="818" y="34" rx="2" ry="2"/><rect class="c" x="818" y="50" rx="2" ry="2"/><rect class="c" x="818" y="66" rx="2" ry="2"/><rect class="c" x="818" y="82" rx="2" ry="2"/><rect class="c" x="818" y="98" rx="2" ry="2"/><rect class="c" x="834" y="2" rx="2" ry="2"/><rect class="c" x="834" y="18" rx="2" ry="2"/><rect class="u u0" height="12" width="530.6" x="0.0" y="144"/><rect class="u u1" height="12" width="189.0" x="530.0" y="144"/><rect class="u u2" height="12" width="83.0" x="718.4" y="144"/><rect class="u u3" height="12" width="47.7" x="800.9" y="144"/><rect class="s s0" x="0.8" y="0.8" width="14.4" height="14.4" rx="4.5" ry="4.5"/><rect class="s s1" x="1.8" y="1.8" width="12.3" height="12.3" rx="4.1" ry="4.1"/><rect class="s s2" x="2.6" y="2.6" width="10.8" height="10.8" rx="3.6" ry="3.6"/><rect class="s s3" x="3.0" y="3.0" width="9.9" height="9.9" rx="3.3" ry="3.3"/></svg>