<svg viewBox="-16 -32 880 192" width="880" height="192" xmlns="http://www.w3.org/2000/svg"><desc>Generated with https://github.com/Platane/snk</desc><style>:root{--cb:#1b1f230a;--cs:white;--ce:#0a0e12;--c0:#0a0e12;--c1:#1445a2;--c2:#1d65ee;--c3:#1f4eff;--c4:#466dff}.c{shape-rendering:geometricPrecision;fill:var(--ce);stroke-width:1px;stroke:var(--cb);animation:none 36500ms linear infinite;width:12px;height:12px}@keyframes c0{9.58%{fill:var(--c1)}9.6%,100%{fill:var(--ce)}}.c.c0{fill:var(--c1);animation-name:c0}@keyframes c1{2.18%{fill:var(--c1)}2.2%,100%{fill:var(--ce)}}.c.c1{fill:var(--c1);animation-name:c1}@keyframes c2{7.66%{fill:var(--c1)}7.68%,100%{fill:var(--ce)}}.c.c2{fill:var(--c1);animation-name:c2}@keyframes c3{6.57%{fill:var(--c1)}6.59%,100%{fill:var(--ce)}}.c.c3{fill:var(--c1);animation-name:c3}@keyframes c4{69.85%{fill:var(--c2)}69.87%,100%{fill:var(--ce)}}.c.c4{fill:var(--c2);animation-name:c4}@keyframes c5{2.73%{fill:var(--c1)}2.75%,100%{fill:var(--ce)}}.c.c5{fill:var(--c1);animation-name:c5}@keyframes c6{3%{fill:var(--c1)}3.02%,100%{fill:var(--ce)}}.c.c6{fill:var(--c1);animation-name:c6}@keyframes c7{3.83%{fill:var(--c1)}3.85%,100%{fill:var(--ce)}}.c.c7{fill:var(--c1);animation-name:c7}@keyframes c8{3.55%{fill:var(--c1)}3.57%,100%{fill:var(--ce)}}.c.c8{fill:var(--c1);animation-name:c8}@keyframes c9{68.21%{fill:var(--c2)}68.23%,100%{fill:var(--ce)}}.c.c9{fill:var(--c2);animation-name:c9}@keyframes ca{5.47%{fill:var(--c1)}5.49%,100%{fill:var(--ce)}}.c.ca{fill:var(--c1);animation-name:ca}@keyframes cb{12.87%{fill:var(--c1)}12.89%,100%{fill:var(--ce)}}.c.cb{fill:var(--c1);animation-name:cb}@keyframes cc{12.59%{fill:var(--c1)}12.61%,100%{fill:var(--ce)}}.c.cc{fill:var(--c1);animation-name:cc}@keyframes cd{15.06%{fill:var(--c1)}15.08%,100%{fill:var(--ce)}}.c.cd{fill:var(--c1);animation-name:cd}@keyframes ce{64.92%{fill:var(--c2)}64.94%,100%{fill:var(--ce)}}.c.ce{fill:var(--c2);animation-name:ce}@keyframes cf{15.33%{fill:var(--c1)}15.35%,100%{fill:var(--ce)}}.c.cf{fill:var(--c1);animation-name:cf}@keyframes cg{16.15%{fill:var(--c1)}16.17%,100%{fill:var(--ce)}}.c.cg{fill:var(--c1);animation-name:cg}@keyframes ch{16.7%{fill:var(--c1)}16.72%,100%{fill:var(--ce)}}.c.ch{fill:var(--c1);animation-name:ch}@keyframes ci{18.89%{fill:var(--c1)}18.91%,100%{fill:var(--ce)}}.c.ci{fill:var(--c1);animation-name:ci}@keyframes cj{16.98%{fill:var(--c1)}17%,100%{fill:var(--ce)}}.c.cj{fill:var(--c1);animation-name:cj}@keyframes ck{18.62%{fill:var(--c1)}18.64%,100%{fill:var(--ce)}}.c.ck{fill:var(--c1);animation-name:ck}@keyframes cl{18.35%{fill:var(--c1)}18.37%,100%{fill:var(--ce)}}.c.cl{fill:var(--c1);animation-name:cl}@keyframes cm{17.8%{fill:var(--c1)}17.82%,100%{fill:var(--ce)}}.c.cm{fill:var(--c1);animation-name:cm}@keyframes cn{22.46%{fill:var(--c1)}22.48%,100%{fill:var(--ce)}}.c.cn{fill:var(--c1);animation-name:cn}@keyframes co{23%{fill:var(--c1)}23.02%,100%{fill:var(--ce)}}.c.co{fill:var(--c1);animation-name:co}@keyframes cp{22.18%{fill:var(--c1)}22.2%,100%{fill:var(--ce)}}.c.cp{fill:var(--c1);animation-name:cp}@keyframes cq{20.81%{fill:var(--c1)}20.83%,100%{fill:var(--ce)}}.c.cq{fill:var(--c1);animation-name:cq}@keyframes cr{28.21%{fill:var(--c1)}28.23%,100%{fill:var(--ce)}}.c.cr{fill:var(--c1);animation-name:cr}@keyframes cs{61.91%{fill:var(--c2)}61.93%,100%{fill:var(--ce)}}.c.cs{fill:var(--c2);animation-name:cs}@keyframes ct{21.63%{fill:var(--c1)}21.65%,100%{fill:var(--ce)}}.c.ct{fill:var(--c1);animation-name:ct}@keyframes cu{26.02%{fill:var(--c1)}26.04%,100%{fill:var(--ce)}}.c.cu{fill:var(--c1);animation-name:cu}@keyframes cv{25.47%{fill:var(--c1)}25.49%,100%{fill:var(--ce)}}.c.cv{fill:var(--c1);animation-name:cv}@keyframes cw{32.04%{fill:var(--c1)}32.06%,100%{fill:var(--ce)}}.c.cw{fill:var(--c1);animation-name:cw}@keyframes cx{44.92%{fill:var(--c1)}44.94%,100%{fill:var(--ce)}}.c.cx{fill:var(--c1);animation-name:cx}@keyframes cy{45.2%{fill:var(--c1)}45.22%,100%{fill:var(--ce)}}.c.cy{fill:var(--c1);animation-name:cy}@keyframes cz{32.32%{fill:var(--c1)}32.34%,100%{fill:var(--ce)}}.c.cz{fill:var(--c1);animation-name:cz}@keyframes c10{53.41%{fill:var(--c2)}53.43%,100%{fill:var(--ce)}}.c.c10{fill:var(--c2);animation-name:c10}@keyframes c11{32.59%{fill:var(--c1)}32.61%,100%{fill:var(--ce)}}.c.c11{fill:var(--c1);animation-name:c11}@keyframes c12{52.87%{fill:var(--c2)}52.89%,100%{fill:var(--ce)}}.c.c12{fill:var(--c2);animation-name:c12}@keyframes c13{44.37%{fill:var(--c1)}44.39%,100%{fill:var(--ce)}}.c.c13{fill:var(--c1);animation-name:c13}@keyframes c14{42.46%{fill:var(--c1)}42.48%,100%{fill:var(--ce)}}.c.c14{fill:var(--c1);animation-name:c14}@keyframes c15{42.73%{fill:var(--c1)}42.75%,100%{fill:var(--ce)}}.c.c15{fill:var(--c1);animation-name:c15}@keyframes c16{52.32%{fill:var(--c2)}52.34%,100%{fill:var(--ce)}}.c.c16{fill:var(--c2);animation-name:c16}@keyframes c17{43.83%{fill:var(--c1)}43.85%,100%{fill:var(--ce)}}.c.c17{fill:var(--c1);animation-name:c17}@keyframes c18{33.14%{fill:var(--c1)}33.16%,100%{fill:var(--ce)}}.c.c18{fill:var(--c1);animation-name:c18}@keyframes c19{42.18%{fill:var(--c1)}42.2%,100%{fill:var(--ce)}}.c.c19{fill:var(--c1);animation-name:c19}@keyframes c1a{41.91%{fill:var(--c1)}41.93%,100%{fill:var(--ce)}}.c.c1a{fill:var(--c1);animation-name:c1a}@keyframes c1b{43.55%{fill:var(--c1)}43.57%,100%{fill:var(--ce)}}.c.c1b{fill:var(--c1);animation-name:c1b}@keyframes c1c{50.13%{fill:var(--c1)}50.15%,100%{fill:var(--ce)}}.c.c1c{fill:var(--c1);animation-name:c1c}@keyframes c1d{33.41%{fill:var(--c1)}33.43%,100%{fill:var(--ce)}}.c.c1d{fill:var(--c1);animation-name:c1d}@keyframes c1e{81.91%{fill:var(--c3)}81.93%,100%{fill:var(--ce)}}.c.c1e{fill:var(--c3);animation-name:c1e}@keyframes c1f{51.5%{fill:var(--c2)}51.52%,100%{fill:var(--ce)}}.c.c1f{fill:var(--c2);animation-name:c1f}@keyframes c1g{41.36%{fill:var(--c1)}41.38%,100%{fill:var(--ce)}}.c.c1g{fill:var(--c1);animation-name:c1g}@keyframes c1h{81.09%{fill:var(--c3)}81.11%,100%{fill:var(--ce)}}.c.c1h{fill:var(--c3);animation-name:c1h}@keyframes c1i{55.61%{fill:var(--c2)}55.63%,100%{fill:var(--ce)}}.c.c1i{fill:var(--c2);animation-name:c1i}@keyframes c1j{82.73%{fill:var(--c4)}82.75%,100%{fill:var(--ce)}}.c.c1j{fill:var(--c4);animation-name:c1j}@keyframes c1k{33.69%{fill:var(--c1)}33.71%,100%{fill:var(--ce)}}.c.c1k{fill:var(--c1);animation-name:c1k}@keyframes c1l{37.8%{fill:var(--c1)}37.82%,100%{fill:var(--ce)}}.c.c1l{fill:var(--c1);animation-name:c1l}@keyframes c1m{37.52%{fill:var(--c1)}37.54%,100%{fill:var(--ce)}}.c.c1m{fill:var(--c1);animation-name:c1m}@keyframes c1n{41.09%{fill:var(--c1)}41.11%,100%{fill:var(--ce)}}.c.c1n{fill:var(--c1);animation-name:c1n}@keyframes c1o{84.65%{fill:var(--c4)}84.67%,100%{fill:var(--ce)}}.c.c1o{fill:var(--c4);animation-name:c1o}@keyframes c1p{47.66%{fill:var(--c1)}47.68%,100%{fill:var(--ce)}}.c.c1p{fill:var(--c1);animation-name:c1p}@keyframes c1q{35.33%{fill:var(--c1)}35.35%,100%{fill:var(--ce)}}.c.c1q{fill:var(--c1);animation-name:c1q}@keyframes c1r{33.96%{fill:var(--c1)}33.98%,100%{fill:var(--ce)}}.c.c1r{fill:var(--c1);animation-name:c1r}@keyframes c1s{35.88%{fill:var(--c1)}35.9%,100%{fill:var(--ce)}}.c.c1s{fill:var(--c1);animation-name:c1s}@keyframes c1t{37.25%{fill:var(--c1)}37.27%,100%{fill:var(--ce)}}.c.c1t{fill:var(--c1);animation-name:c1t}@keyframes c1u{38.62%{fill:var(--c1)}38.64%,100%{fill:var(--ce)}}.c.c1u{fill:var(--c1);animation-name:c1u}@keyframes c1v{39.44%{fill:var(--c1)}39.46%,100%{fill:var(--ce)}}.c.c1v{fill:var(--c1);animation-name:c1v}@keyframes c1w{39.72%{fill:var(--c1)}39.74%,100%{fill:var(--ce)}}.c.c1w{fill:var(--c1);animation-name:c1w}@keyframes c1x{35.06%{fill:var(--c1)}35.08%,100%{fill:var(--ce)}}.c.c1x{fill:var(--c1);animation-name:c1x}@keyframes c1y{34.24%{fill:var(--c1)}34.26%,100%{fill:var(--ce)}}.c.c1y{fill:var(--c1);animation-name:c1y}@keyframes c1z{36.15%{fill:var(--c1)}36.17%,100%{fill:var(--ce)}}.c.c1z{fill:var(--c1);animation-name:c1z}@keyframes c20{36.98%{fill:var(--c1)}37%,100%{fill:var(--ce)}}.c.c20{fill:var(--c1);animation-name:c20}@keyframes c21{38.89%{fill:var(--c1)}38.91%,100%{fill:var(--ce)}}.c.c21{fill:var(--c1);animation-name:c21}@keyframes c22{39.17%{fill:var(--c1)}39.19%,100%{fill:var(--ce)}}.c.c22{fill:var(--c1);animation-name:c22}@keyframes c23{39.99%{fill:var(--c1)}40.01%,100%{fill:var(--ce)}}.c.c23{fill:var(--c1);animation-name:c23}@keyframes c24{34.78%{fill:var(--c1)}34.8%,100%{fill:var(--ce)}}.c.c24{fill:var(--c1);animation-name:c24}@keyframes c25{34.51%{fill:var(--c1)}34.53%,100%{fill:var(--ce)}}.c.c25{fill:var(--c1);animation-name:c25}@keyframes c26{36.43%{fill:var(--c1)}36.45%,100%{fill:var(--ce)}}.c.c26{fill:var(--c1);animation-name:c26}@keyframes c27{36.7%{fill:var(--c1)}36.72%,100%{fill:var(--ce)}}.c.c27{fill:var(--c1);animation-name:c27}.u{transform-origin:0 0;transform:scale(0,1);animation:none linear 36500ms infinite}@keyframes u0{2.18%{transform:scale(0.000,1)}2.2%,2.73%{transform:scale(0.015,1)}2.75%,3%{transform:scale(0.030,1)}3.02%,3.55%{transform:scale(0.045,1)}3.57%,3.83%{transform:scale(0.060,1)}3.85%,5.47%{transform:scale(0.075,1)}5.49%,6.57%{transform:scale(0.090,1)}6.59%,7.66%{transform:scale(0.104,1)}7.68%,9.58%{transform:scale(0.119,1)}9.6%,12.59%{transform:scale(0.134,1)}12.61%,12.87%{transform:scale(0.149,1)}12.89%,15.06%{transform:scale(0.164,1)}15.08%,15.33%{transform:scale(0.179,1)}15.35%,16.15%{transform:scale(0.194,1)}16.17%,16.7%{transform:scale(0.209,1)}16.72%,16.98%{transform:scale(0.224,1)}17%,17.8%{transform:scale(0.239,1)}17.82%,18.35%{transform:scale(0.254,1)}18.37%,18.62%{transform:scale(0.269,1)}18.64%,18.89%{transform:scale(0.284,1)}18.91%,20.81%{transform:scale(0.299,1)}20.83%,21.63%{transform:scale(0.313,1)}21.65%,22.18%{transform:scale(0.328,1)}22.2%,22.46%{transform:scale(0.343,1)}22.48%,23%{transform:scale(0.358,1)}23.02%,25.47%{transform:scale(0.373,1)}25.49%,26.02%{transform:scale(0.388,1)}26.04%,28.21%{transform:scale(0.403,1)}28.23%,32.04%{transform:scale(0.418,1)}32.06%,32.32%{transform:scale(0.433,1)}32.34%,32.59%{transform:scale(0.448,1)}32.61%,33.14%{transform:scale(0.463,1)}33.16%,33.41%{transform:scale(0.478,1)}33.43%,33.69%{transform:scale(0.493,1)}33.71%,33.96%{transform:scale(0.507,1)}33.98%,34.24%{transform:scale(0.522,1)}34.26%,34.51%{transform:scale(0.537,1)}34.53%,34.78%{transform:scale(0.552,1)}34.8%,35.06%{transform:scale(0.567,1)}35.08%,35.33%{transform:scale(0.582,1)}35.35%,35.88%{transform:scale(0.597,1)}35.9%,36.15%{transform:scale(0.612,1)}36.17%,36.43%{transform:scale(0.627,1)}36.45%,36.7%{transform:scale(0.642,1)}36.72%,36.98%{transform:scale(0.657,1)}37%,37.25%{transform:scale(0.672,1)}37.27%,37.52%{transform:scale(0.687,1)}37.54%,37.8%{transform:scale(0.701,1)}37.82%,38.62%{transform:scale(0.716,1)}38.64%,38.89%{transform:scale(0.731,1)}38.91%,39.17%{transform:scale(0.746,1)}39.19%,39.44%{transform:scale(0.761,1)}39.46%,39.72%{transform:scale(0.776,1)}39.74%,39.99%{transform:scale(0.791,1)}40.01%,41.09%{transform:scale(0.806,1)}41.11%,41.36%{transform:scale(0.821,1)}41.38%,41.91%{transform:scale(0.836,1)}41.93%,42.18%{transform:scale(0.851,1)}42.2%,42.46%{transform:scale(0.866,1)}42.48%,42.73%{transform:scale(0.881,1)}42.75%,43.55%{transform:scale(0.896,1)}43.57%,43.83%{transform:scale(0.910,1)}43.85%,44.37%{transform:scale(0.925,1)}44.39%,44.92%{transform:scale(0.940,1)}44.94%,45.2%{transform:scale(0.955,1)}45.22%,47.66%{transform:scale(0.970,1)}47.68%,50.13%{transform:scale(0.985,1)}50.15%,100%{transform:scale(1.000,1)}}.u.u0{fill:var(--c1);animation-name:u0;transform-origin:0.0px 0}@keyframes u1{51.5%{transform:scale(0.000,1)}51.52%,52.32%{transform:scale(0.111,1)}52.34%,52.87%{transform:scale(0.222,1)}52.89%,53.41%{transform:scale(0.333,1)}53.43%,55.61%{transform:scale(0.444,1)}55.63%,61.91%{transform:scale(0.556,1)}61.93%,64.92%{transform:scale(0.667,1)}64.94%,68.21%{transform:scale(0.778,1)}68.23%,69.85%{transform:scale(0.889,1)}69.87%,100%{transform:scale(1.000,1)}}.u.u1{fill:var(--c2);animation-name:u1;transform-origin:710.2px 0}@keyframes u2{81.09%{transform:scale(0.000,1)}81.11%,81.91%{transform:scale(0.500,1)}81.93%,100%{transform:scale(1.000,1)}}.u.u2{fill:var(--c3);animation-name:u2;transform-origin:805.6px 0}@keyframes u3{82.73%{transform:scale(0.000,1)}82.75%,84.65%{transform:scale(0.500,1)}84.67%,100%{transform:scale(1.000,1)}}.u.u3{fill:var(--c4);animation-name:u3;transform-origin:826.8px 0}.s{shape-rendering:geometricPrecision;fill:var(--cs);animation:none linear 36500ms infinite}@keyframes s0{0%,99.73%{transform:translate(0px,-16px)}0.27%{transform:translate(0px,0px)}2.74%{transform:translate(144px,0px)}3.01%{transform:translate(144px,16px)}3.56%{transform:translate(176px,16px)}3.84%{transform:translate(176px,0px)}4.11%{transform:translate(192px,0px)}5.21%{transform:translate(192px,64px)}6.3%,96.16%{transform:translate(128px,64px)}6.58%{transform:translate(128px,80px)}6.85%,10.68%{transform:translate(112px,80px)}7.67%,96.99%{transform:translate(112px,32px)}8.49%{transform:translate(64px,32px)}9.59%{transform:translate(64px,96px)}10.41%{transform:translate(112px,96px)}12.6%{transform:translate(224px,80px)}12.88%{transform:translate(224px,64px)}14.79%{transform:translate(336px,64px)}15.07%{transform:translate(336px,48px)}15.62%{transform:translate(368px,48px)}16.16%{transform:translate(368px,80px)}17.26%{transform:translate(432px,80px)}18.63%{transform:translate(432px,0px)}18.9%{transform:translate(416px,0px)}19.18%{transform:translate(416px,16px)}20.55%{transform:translate(496px,16px)}20.82%{transform:translate(496px,32px)}21.1%{transform:translate(512px,32px)}21.64%{transform:translate(512px,64px)}22.47%{transform:translate(464px,64px)}23.01%{transform:translate(464px,96px)}25.21%{transform:translate(592px,96px)}25.75%{transform:translate(592px,64px)}26.03%{transform:translate(576px,64px)}27.12%{transform:translate(576px,0px)}28.22%{transform:translate(512px,0px)}28.49%{transform:translate(512px,-16px)}31.51%{transform:translate(688px,-16px)}32.05%{transform:translate(688px,16px)}34.52%{transform:translate(832px,16px)}34.79%{transform:translate(832px,0px)}35.34%,83.01%{transform:translate(800px,0px)}35.89%,38.08%{transform:translate(800px,32px)}36.44%{transform:translate(832px,32px)}36.71%{transform:translate(832px,48px)}37.53%{transform:translate(784px,48px)}37.81%,82.19%{transform:translate(784px,32px)}38.63%{transform:translate(800px,64px)}38.9%,40.55%{transform:translate(816px,64px)}39.18%{transform:translate(816px,80px)}39.45%{transform:translate(800px,80px)}39.73%,47.95%{transform:translate(800px,96px)}40%{transform:translate(816px,96px)}41.64%{transform:translate(752px,64px)}42.19%{transform:translate(752px,32px)}42.47%{transform:translate(736px,32px)}42.74%,52.6%{transform:translate(736px,48px)}43.01%,51.23%,54.52%{transform:translate(752px,48px)}43.56%,46.3%{transform:translate(752px,80px)}44.11%{transform:translate(720px,80px)}44.38%{transform:translate(720px,64px)}44.93%{transform:translate(688px,64px)}45.21%{transform:translate(688px,80px)}46.85%,56.16%{transform:translate(752px,112px)}47.4%{transform:translate(784px,112px)}47.67%{transform:translate(784px,96px)}49.32%,83.29%{transform:translate(800px,16px)}49.86%{transform:translate(768px,16px)}50.14%{transform:translate(768px,0px)}50.41%{transform:translate(752px,0px)}51.51%{transform:translate(768px,48px)}51.78%{transform:translate(768px,64px)}52.33%{transform:translate(736px,64px)}52.88%{transform:translate(720px,48px)}53.15%{transform:translate(720px,32px)}53.42%{transform:translate(704px,32px)}53.7%{transform:translate(704px,48px)}55.34%{transform:translate(752px,96px)}55.62%,80.82%{transform:translate(768px,96px)}55.89%{transform:translate(768px,112px)}57.81%{transform:translate(752px,16px)}64.66%{transform:translate(352px,16px)}64.93%{transform:translate(352px,32px)}67.95%{transform:translate(176px,32px)}68.22%{transform:translate(176px,48px)}69.04%,96.44%{transform:translate(128px,48px)}69.86%{transform:translate(128px,96px)}81.92%{transform:translate(768px,32px)}82.74%{transform:translate(784px,0px)}83.56%{transform:translate(784px,16px)}84.66%{transform:translate(784px,80px)}95.34%{transform:translate(160px,80px)}95.62%{transform:translate(160px,64px)}96.71%{transform:translate(112px,48px)}97.26%{transform:translate(96px,32px)}98.08%{transform:translate(96px,-16px)}}.s.s0{transform:translate(0px,-16px);animation-name:s0}@keyframes s1{0%,99.73%{transform:translate(16px,-16px)}0.27%{transform:translate(0px,-16px)}0.55%{transform:translate(0px,0px)}3.01%{transform:translate(144px,0px)}3.29%{transform:translate(144px,16px)}3.84%{transform:translate(176px,16px)}4.11%{transform:translate(176px,0px)}4.38%{transform:translate(192px,0px)}5.48%{transform:translate(192px,64px)}6.58%,96.44%{transform:translate(128px,64px)}6.85%{transform:translate(128px,80px)}7.12%,10.96%{transform:translate(112px,80px)}7.95%,97.26%{transform:translate(112px,32px)}8.77%{transform:translate(64px,32px)}9.86%{transform:translate(64px,96px)}10.68%{transform:translate(112px,96px)}12.88%{transform:translate(224px,80px)}13.15%{transform:translate(224px,64px)}15.07%{transform:translate(336px,64px)}15.34%{transform:translate(336px,48px)}15.89%{transform:translate(368px,48px)}16.44%{transform:translate(368px,80px)}17.53%{transform:translate(432px,80px)}18.9%{transform:translate(432px,0px)}19.18%{transform:translate(416px,0px)}19.45%{transform:translate(416px,16px)}20.82%{transform:translate(496px,16px)}21.1%{transform:translate(496px,32px)}21.37%{transform:translate(512px,32px)}21.92%{transform:translate(512px,64px)}22.74%{transform:translate(464px,64px)}23.29%{transform:translate(464px,96px)}25.48%{transform:translate(592px,96px)}26.03%{transform:translate(592px,64px)}26.3%{transform:translate(576px,64px)}27.4%{transform:translate(576px,0px)}28.49%{transform:translate(512px,0px)}28.77%{transform:translate(512px,-16px)}31.78%{transform:translate(688px,-16px)}32.33%{transform:translate(688px,16px)}34.79%{transform:translate(832px,16px)}35.07%{transform:translate(832px,0px)}35.62%,83.29%{transform:translate(800px,0px)}36.16%,38.36%{transform:translate(800px,32px)}36.71%{transform:translate(832px,32px)}36.99%{transform:translate(832px,48px)}37.81%{transform:translate(784px,48px)}38.08%,82.47%{transform:translate(784px,32px)}38.9%{transform:translate(800px,64px)}39.18%,40.82%{transform:translate(816px,64px)}39.45%{transform:translate(816px,80px)}39.73%{transform:translate(800px,80px)}40%,48.22%{transform:translate(800px,96px)}40.27%{transform:translate(816px,96px)}41.92%{transform:translate(752px,64px)}42.47%{transform:translate(752px,32px)}42.74%{transform:translate(736px,32px)}43.01%,52.88%{transform:translate(736px,48px)}43.29%,51.51%,54.79%{transform:translate(752px,48px)}43.84%,46.58%{transform:translate(752px,80px)}44.38%{transform:translate(720px,80px)}44.66%{transform:translate(720px,64px)}45.21%{transform:translate(688px,64px)}45.48%{transform:translate(688px,80px)}47.12%,56.44%{transform:translate(752px,112px)}47.67%{transform:translate(784px,112px)}47.95%{transform:translate(784px,96px)}49.59%,83.56%{transform:translate(800px,16px)}50.14%{transform:translate(768px,16px)}50.41%{transform:translate(768px,0px)}50.68%{transform:translate(752px,0px)}51.78%{transform:translate(768px,48px)}52.05%{transform:translate(768px,64px)}52.6%{transform:translate(736px,64px)}53.15%{transform:translate(720px,48px)}53.42%{transform:translate(720px,32px)}53.7%{transform:translate(704px,32px)}53.97%{transform:translate(704px,48px)}55.62%{transform:translate(752px,96px)}55.89%,81.1%{transform:translate(768px,96px)}56.16%{transform:translate(768px,112px)}58.08%{transform:translate(752px,16px)}64.93%{transform:translate(352px,16px)}65.21%{transform:translate(352px,32px)}68.22%{transform:translate(176px,32px)}68.49%{transform:translate(176px,48px)}69.32%,96.71%{transform:translate(128px,48px)}70.14%{transform:translate(128px,96px)}82.19%{transform:translate(768px,32px)}83.01%{transform:translate(784px,0px)}83.84%{transform:translate(784px,16px)}84.93%{transform:translate(784px,80px)}95.62%{transform:translate(160px,80px)}95.89%{transform:translate(160px,64px)}96.99%{transform:translate(112px,48px)}97.53%{transform:translate(96px,32px)}98.36%{transform:translate(96px,-16px)}}.s.s1{transform:translate(16px,-16px);animation-name:s1}@keyframes s2{0%,99.73%{transform:translate(32px,-16px)}0.55%{transform:translate(0px,-16px)}0.82%{transform:translate(0px,0px)}3.29%{transform:translate(144px,0px)}3.56%{transform:translate(144px,16px)}4.11%{transform:translate(176px,16px)}4.38%{transform:translate(176px,0px)}4.66%{transform:translate(192px,0px)}5.75%{transform:translate(192px,64px)}6.85%,96.71%{transform:translate(128px,64px)}7.12%{transform:translate(128px,80px)}7.4%,11.23%{transform:translate(112px,80px)}8.22%,97.53%{transform:translate(112px,32px)}9.04%{transform:translate(64px,32px)}10.14%{transform:translate(64px,96px)}10.96%{transform:translate(112px,96px)}13.15%{transform:translate(224px,80px)}13.42%{transform:translate(224px,64px)}15.34%{transform:translate(336px,64px)}15.62%{transform:translate(336px,48px)}16.16%{transform:translate(368px,48px)}16.71%{transform:translate(368px,80px)}17.81%{transform:translate(432px,80px)}19.18%{transform:translate(432px,0px)}19.45%{transform:translate(416px,0px)}19.73%{transform:translate(416px,16px)}21.1%{transform:translate(496px,16px)}21.37%{transform:translate(496px,32px)}21.64%{transform:translate(512px,32px)}22.19%{transform:translate(512px,64px)}23.01%{transform:translate(464px,64px)}23.56%{transform:translate(464px,96px)}25.75%{transform:translate(592px,96px)}26.3%{transform:translate(592px,64px)}26.58%{transform:translate(576px,64px)}27.67%{transform:translate(576px,0px)}28.77%{transform:translate(512px,0px)}29.04%{transform:translate(512px,-16px)}32.05%{transform:translate(688px,-16px)}32.6%{transform:translate(688px,16px)}35.07%{transform:translate(832px,16px)}35.34%{transform:translate(832px,0px)}35.89%,83.56%{transform:translate(800px,0px)}36.44%,38.63%{transform:translate(800px,32px)}36.99%{transform:translate(832px,32px)}37.26%{transform:translate(832px,48px)}38.08%{transform:translate(784px,48px)}38.36%,82.74%{transform:translate(784px,32px)}39.18%{transform:translate(800px,64px)}39.45%,41.1%{transform:translate(816px,64px)}39.73%{transform:translate(816px,80px)}40%{transform:translate(800px,80px)}40.27%,48.49%{transform:translate(800px,96px)}40.55%{transform:translate(816px,96px)}42.19%{transform:translate(752px,64px)}42.74%{transform:translate(752px,32px)}43.01%{transform:translate(736px,32px)}43.29%,53.15%{transform:translate(736px,48px)}43.56%,51.78%,55.07%{transform:translate(752px,48px)}44.11%,46.85%{transform:translate(752px,80px)}44.66%{transform:translate(720px,80px)}44.93%{transform:translate(720px,64px)}45.48%{transform:translate(688px,64px)}45.75%{transform:translate(688px,80px)}47.4%,56.71%{transform:translate(752px,112px)}47.95%{transform:translate(784px,112px)}48.22%{transform:translate(784px,96px)}49.86%,83.84%{transform:translate(800px,16px)}50.41%{transform:translate(768px,16px)}50.68%{transform:translate(768px,0px)}50.96%{transform:translate(752px,0px)}52.05%{transform:translate(768px,48px)}52.33%{transform:translate(768px,64px)}52.88%{transform:translate(736px,64px)}53.42%{transform:translate(720px,48px)}53.7%{transform:translate(720px,32px)}53.97%{transform:translate(704px,32px)}54.25%{transform:translate(704px,48px)}55.89%{transform:translate(752px,96px)}56.16%,81.37%{transform:translate(768px,96px)}56.44%{transform:translate(768px,112px)}58.36%{transform:translate(752px,16px)}65.21%{transform:translate(352px,16px)}65.48%{transform:translate(352px,32px)}68.49%{transform:translate(176px,32px)}68.77%{transform:translate(176px,48px)}69.59%,96.99%{transform:translate(128px,48px)}70.41%{transform:translate(128px,96px)}82.47%{transform:translate(768px,32px)}83.29%{transform:translate(784px,0px)}84.11%{transform:translate(784px,16px)}85.21%{transform:translate(784px,80px)}95.89%{transform:translate(160px,80px)}96.16%{transform:translate(160px,64px)}97.26%{transform:translate(112px,48px)}97.81%{transform:translate(96px,32px)}98.63%{transform:translate(96px,-16px)}}.s.s2{transform:translate(32px,-16px);animation-name:s2}@keyframes s3{0%,99.73%{transform:translate(48px,-16px)}0.82%{transform:translate(0px,-16px)}1.1%{transform:translate(0px,0px)}3.56%{transform:translate(144px,0px)}3.84%{transform:translate(144px,16px)}4.38%{transform:translate(176px,16px)}4.66%{transform:translate(176px,0px)}4.93%{transform:translate(192px,0px)}6.03%{transform:translate(192px,64px)}7.12%,96.99%{transform:translate(128px,64px)}7.4%{transform:translate(128px,80px)}7.67%,11.51%{transform:translate(112px,80px)}8.49%,97.81%{transform:translate(112px,32px)}9.32%{transform:translate(64px,32px)}10.41%{transform:translate(64px,96px)}11.23%{transform:translate(112px,96px)}13.42%{transform:translate(224px,80px)}13.7%{transform:translate(224px,64px)}15.62%{transform:translate(336px,64px)}15.89%{transform:translate(336px,48px)}16.44%{transform:translate(368px,48px)}16.99%{transform:translate(368px,80px)}18.08%{transform:translate(432px,80px)}19.45%{transform:translate(432px,0px)}19.73%{transform:translate(416px,0px)}20%{transform:translate(416px,16px)}21.37%{transform:translate(496px,16px)}21.64%{transform:translate(496px,32px)}21.92%{transform:translate(512px,32px)}22.47%{transform:translate(512px,64px)}23.29%{transform:translate(464px,64px)}23.84%{transform:translate(464px,96px)}26.03%{transform:translate(592px,96px)}26.58%{transform:translate(592px,64px)}26.85%{transform:translate(576px,64px)}27.95%{transform:translate(576px,0px)}29.04%{transform:translate(512px,0px)}29.32%{transform:translate(512px,-16px)}32.33%{transform:translate(688px,-16px)}32.88%{transform:translate(688px,16px)}35.34%{transform:translate(832px,16px)}35.62%{transform:translate(832px,0px)}36.16%,83.84%{transform:translate(800px,0px)}36.71%,38.9%{transform:translate(800px,32px)}37.26%{transform:translate(832px,32px)}37.53%{transform:translate(832px,48px)}38.36%{transform:translate(784px,48px)}38.63%,83.01%{transform:translate(784px,32px)}39.45%{transform:translate(800px,64px)}39.73%,41.37%{transform:translate(816px,64px)}40%{transform:translate(816px,80px)}40.27%{transform:translate(800px,80px)}40.55%,48.77%{transform:translate(800px,96px)}40.82%{transform:translate(816px,96px)}42.47%{transform:translate(752px,64px)}43.01%{transform:translate(752px,32px)}43.29%{transform:translate(736px,32px)}43.56%,53.42%{transform:translate(736px,48px)}43.84%,52.05%,55.34%{transform:translate(752px,48px)}44.38%,47.12%{transform:translate(752px,80px)}44.93%{transform:translate(720px,80px)}45.21%{transform:translate(720px,64px)}45.75%{transform:translate(688px,64px)}46.03%{transform:translate(688px,80px)}47.67%,56.99%{transform:translate(752px,112px)}48.22%{transform:translate(784px,112px)}48.49%{transform:translate(784px,96px)}50.14%,84.11%{transform:translate(800px,16px)}50.68%{transform:translate(768px,16px)}50.96%{transform:translate(768px,0px)}51.23%{transform:translate(752px,0px)}52.33%{transform:translate(768px,48px)}52.6%{transform:translate(768px,64px)}53.15%{transform:translate(736px,64px)}53.7%{transform:translate(720px,48px)}53.97%{transform:translate(720px,32px)}54.25%{transform:translate(704px,32px)}54.52%{transform:translate(704px,48px)}56.16%{transform:translate(752px,96px)}56.44%,81.64%{transform:translate(768px,96px)}56.71%{transform:translate(768px,112px)}58.63%{transform:translate(752px,16px)}65.48%{transform:translate(352px,16px)}65.75%{transform:translate(352px,32px)}68.77%{transform:translate(176px,32px)}69.04%{transform:translate(176px,48px)}69.86%,97.26%{transform:translate(128px,48px)}70.68%{transform:translate(128px,96px)}82.74%{transform:translate(768px,32px)}83.56%{transform:translate(784px,0px)}84.38%{transform:translate(784px,16px)}85.48%{transform:translate(784px,80px)}96.16%{transform:translate(160px,80px)}96.44%{transform:translate(160px,64px)}97.53%{transform:translate(112px,48px)}98.08%{transform:translate(96px,32px)}98.9%{transform:translate(96px,-16px)}}.s.s3{transform:translate(48px,-16px);animation-name:s3}</style><rect class="c" x="2" y="2" rx="2" ry="2"/><rect class="c" x="2" y="18" rx="2" ry="2"/><rect class="c" x="2" y="34" rx="2" ry="2"/><rect class="c" x="2" y="50" rx="2" ry="2"/><rect class="c" x="2" y="66" rx="2" ry="2"/><rect class="c" x="2" y="82" rx="2" ry="2"/><rect class="c" x="2" y="98" rx="2" ry="2"/><rect class="c" x="18" y="2" rx="2" ry="2"/><rect class="c" x="18" y="18" rx="2" ry="2"/><rect class="c" x="18" y="34" rx="2" ry="2"/><rect class="c" x="18" y="50" rx="2" ry="2"/><rect class="c" x="18" y="66" rx="2" ry="2"/><rect class="c" x="18" y="82" rx="2" ry="2"/><rect class="c" x="18" y="98" rx="2" ry="2"/><rect class="c" x="34" y="2" rx="2" ry="2"/><rect class="c" x="34" y="18" rx="2" ry="2"/><rect class="c" x="34" y="34" rx="2" ry="2"/><rect class="c" x="34" y="50" rx="2" ry="2"/><rect class="c" x="34" y="66" rx="2" ry="2"/><rect class="c" x="34" y="82" rx="2" ry="2"/><rect class="c" x="34" y="98" rx="2" ry="2"/><rect class="c" x="50" y="2" rx="2" ry="2"/><rect class="c" x="50" y="18" rx="2" ry="2"/><rect class="c" x="50" y="34" rx="2" ry="2"/><rect class="c" x="50" y="50" rx="2" ry="2"/><rect class="c" x="50" y="66" rx="2" ry="2"/><rect class="c" x="50" y="82" rx="2" ry="2"/><rect class="c" x="50" y="98" rx="2" ry="2"/><rect class="c" x="66" y="2" rx="2" ry="2"/><rect class="c" x="66" y="18" rx="2" ry="2"/><rect class="c" x="66" y="34" rx="2" ry="2"/><rect class="c" x="66" y="50" rx="2" ry="2"/><rect class="c" x="66" y="66" rx="2" ry="2"/><rect class="c" x="66" y="82" rx="2" ry="2"/><rect class="c c0" x="66" y="98" rx="2" ry="2"/><rect class="c" x="82" y="2" rx="2" ry="2"/><rect class="c" x="82" y="18" rx="2" ry="2"/><rect class="c" x="82" y="34" rx="2" ry="2"/><rect class="c" x="82" y="50" rx="2" ry="2"/><rect class="c" x="82" y="66" rx="2" ry="2"/><rect class="c" x="82" y="82" rx="2" ry="2"/><rect class="c" x="82" y="98" rx="2" ry="2"/><rect class="c" x="98" y="2" rx="2" ry="2"/><rect class="c" x="98" y="18" rx="2" ry="2"/><rect class="c" x="98" y="34" rx="2" ry="2"/><rect class="c" x="98" y="50" rx="2" ry="2"/><rect class="c" x="98" y="66" rx="2" ry="2"/><rect class="c" x="98" y="82" rx="2" ry="2"/><rect class="c" x="98" y="98" rx="2" ry="2"/><rect class="c c1" x="114" y="2" rx="2" ry="2"/><rect class="c" x="114" y="18" rx="2" ry="2"/><rect class="c c2" x="114" y="34" rx="2" ry="2"/><rect class="c" x="114" y="50" rx="2" ry="2"/><rect class="c" x="114" y="66" rx="2" ry="2"/><rect class="c" x="114" y="82" rx="2" ry="2"/><rect class="c" x="114" y="98" rx="2" ry="2"/><rect class="c" x="130" y="2" rx="2" ry="2"/><rect class="c" x="130" y="18" rx="2" ry="2"/><rect class="c" x="130" y="34" rx="2" ry="2"/><rect class="c" x="130" y="50" rx="2" ry="2"/><rect class="c" x="130" y="66" rx="2" ry="2"/><rect class="c c3" x="130" y="82" rx="2" ry="2"/><rect class="c c4" x="130" y="98" rx="2" ry="2"/><rect class="c c5" x="146" y="2" rx="2" ry="2"/><rect class="c c6" x="146" y="18" rx="2" ry="2"/><rect class="c" x="146" y="34" rx="2" ry="2"/><rect class="c" x="146" y="50" rx="2" ry="2"/><rect class="c" x="146" y="66" rx="2" ry="2"/><rect class="c" x="146" y="82" rx="2" ry="2"/><rect class="c" x="146" y="98" rx="2" ry="2"/><rect class="c" x="162" y="2" rx="2" ry="2"/><rect class="c" x="162" y="18" rx="2" ry="2"/><rect class="c" x="162" y="34" rx="2" ry="2"/><rect class="c" x="162" y="50" rx="2" ry="2"/><rect class="c" x="162" y="66" rx="2" ry="2"/><rect class="c" x="162" y="82" rx="2" ry="2"/><rect class="c" x="162" y="98" rx="2" ry="2"/><rect class="c c7" x="178" y="2" rx="2" ry="2"/><rect class="c c8" x="178" y="18" rx="2" ry="2"/><rect class="c" x="178" y="34" rx="2" ry="2"/><rect class="c c9" x="178" y="50" rx="2" ry="2"/><rect class="c ca" x="178" y="66" rx="2" ry="2"/><rect class="c" x="178" y="82" rx="2" ry="2"/><rect class="c" x="178" y="98" rx="2" ry="2"/><rect class="c" x="194" y="2" rx="2" ry="2"/><rect class="c" x="194" y="18" rx="2" ry="2"/><rect class="c" x="194" y="34" rx="2" ry="2"/><rect class="c" x="194" y="50" rx="2" ry="2"/><rect class="c" x="194" y="66" rx="2" ry="2"/><rect class="c" x="194" y="82" rx="2" ry="2"/><rect class="c" x="194" y="98" rx="2" ry="2"/><rect class="c" x="210" y="2" rx="2" ry="2"/><rect class="c" x="210" y="18" rx="2" ry="2"/><rect class="c" x="210" y="34" rx="2" ry="2"/><rect class="c" x="210" y="50" rx="2" ry="2"/><rect class="c" x="210" y="66" rx="2" ry="2"/><rect class="c" x="210" y="82" rx="2" ry="2"/><rect class="c" x="210" y="98" rx="2" ry="2"/><rect class="c" x="226" y="2" rx="2" ry="2"/><rect class="c" x="226" y="18" rx="2" ry="2"/><rect class="c" x="226" y="34" rx="2" ry="2"/><rect class="c" x="226" y="50" rx="2" ry="2"/><rect class="c cb" x="226" y="66" rx="2" ry="2"/><rect class="c cc" x="226" y="82" rx="2" ry="2"/><rect class="c" x="226" y="98" rx="2" ry="2"/><rect class="c" x="242" y="2" rx="2" ry="2"/><rect class="c" x="242" y="18" rx="2" ry="2"/><rect class="c" x="242" y="34" rx="2" ry="2"/><rect class="c" x="242" y="50" rx="2" ry="2"/><rect class="c" x="242" y="66" rx="2" ry="2"/><rect class="c" x="242" y="82" rx="2" ry="2"/><rect class="c" x="242" y="98" rx="2" ry="2"/><rect class="c" x="258" y="2" rx="2" ry="2"/><rect class="c" x="258" y="18" rx="2" ry="2"/><rect class="c" x="258" y="34" rx="2" ry="2"/><rect class="c" x="258" y="50" rx="2" ry="2"/><rect class="c" x="258" y="66" rx="2" ry="2"/><rect class="c" x="258" y="82" rx="2" ry="2"/><rect class="c" x="258" y="98" rx="2" ry="2"/><rect class="c" x="274" y="2" rx="2" ry="2"/><rect class="c" x="274" y="18" rx="2" ry="2"/><rect class="c" x="274" y="34" rx="2" ry="2"/><rect class="c" x="274" y="50" rx="2" ry="2"/><rect class="c" x="274" y="66" rx="2" ry="2"/><rect class="c" x="274" y="82" rx="2" ry="2"/><rect class="c" x="274" y="98" rx="2" ry="2"/><rect class="c" x="290" y="2" rx="2" ry="2"/><rect class="c" x="290" y="18" rx="2" ry="2"/><rect class="c" x="290" y="34" rx="2" ry="2"/><rect class="c" x="290" y="50" rx="2" ry="2"/><rect class="c" x="290" y="66" rx="2" ry="2"/><rect class="c" x="290" y="82" rx="2" ry="2"/><rect class="c" x="290" y="98" rx="2" ry="2"/><rect class="c" x="306" y="2" rx="2" ry="2"/><rect class="c" x="306" y="18" rx="2" ry="2"/><rect class="c" x="306" y="34" rx="2" ry="2"/><rect class="c" x="306" y="50" rx="2" ry="2"/><rect class="c" x="306" y="66" rx="2" ry="2"/><rect class="c" x="306" y="82" rx="2" ry="2"/><rect class="c" x="306" y="98" rx="2" ry="2"/><rect class="c" x="322" y="2" rx="2" ry="2"/><rect class="c" x="322" y="18" rx="2" ry="2"/><rect class="c" x="322" y="34" rx="2" ry="2"/><rect class="c" x="322" y="50" rx="2" ry="2"/><rect class="c" x="322" y="66" rx="2" ry="2"/><rect class="c" x="322" y="82" rx="2" ry="2"/><rect class="c" x="322" y="98" rx="2" ry="2"/><rect class="c" x="338" y="2" rx="2" ry="2"/><rect class="c" x="338" y="18" rx="2" ry="2"/><rect class="c" x="338" y="34" rx="2" ry="2"/><rect class="c cd" x="338" y="50" rx="2" ry="2"/><rect class="c" x="338" y="66" rx="2" ry="2"/><rect class="c" x="338" y="82" rx="2" ry="2"/><rect class="c" x="338" y="98" rx="2" ry="2"/><rect class="c" x="354" y="2" rx="2" ry="2"/><rect class="c" x="354" y="18" rx="2" ry="2"/><rect class="c ce" x="354" y="34" rx="2" ry="2"/><rect class="c cf" x="354" y="50" rx="2" ry="2"/><rect class="c" x="354" y="66" rx="2" ry="2"/><rect class="c" x="354" y="82" rx="2" ry="2"/><rect class="c" x="354" y="98" rx="2" ry="2"/><rect class="c" x="370" y="2" rx="2" ry="2"/><rect class="c" x="370" y="18" rx="2" ry="2"/><rect class="c" x="370" y="34" rx="2" ry="2"/><rect class="c" x="370" y="50" rx="2" ry="2"/><rect class="c" x="370" y="66" rx="2" ry="2"/><rect class="c cg" x="370" y="82" rx="2" ry="2"/><rect class="c" x="370" y="98" rx="2" ry="2"/><rect class="c" x="386" y="2" rx="2" ry="2"/><rect class="c" x="386" y="18" rx="2" ry="2"/><rect class="c" x="386" y="34" rx="2" ry="2"/><rect class="c" x="386" y="50" rx="2" ry="2"/><rect class="c" x="386" y="66" rx="2" ry="2"/><rect class="c" x="386" y="82" rx="2" ry="2"/><rect class="c" x="386" y="98" rx="2" ry="2"/><rect class="c" x="402" y="2" rx="2" ry="2"/><rect class="c" x="402" y="18" rx="2" ry="2"/><rect class="c" x="402" y="34" rx="2" ry="2"/><rect class="c" x="402" y="50" rx="2" ry="2"/><rect class="c" x="402" y="66" rx="2" ry="2"/><rect class="c ch" x="402" y="82" rx="2" ry="2"/><rect class="c" x="402" y="98" rx="2" ry="2"/><rect class="c ci" x="418" y="2" rx="2" ry="2"/><rect class="c" x="418" y="18" rx="2" ry="2"/><rect class="c" x="418" y="34" rx="2" ry="2"/><rect class="c" x="418" y="50" rx="2" ry="2"/><rect class="c" x="418" y="66" rx="2" ry="2"/><rect class="c cj" x="418" y="82" rx="2" ry="2"/><rect class="c" x="418" y="98" rx="2" ry="2"/><rect class="c ck" x="434" y="2" rx="2" ry="2"/><rect class="c cl" x="434" y="18" rx="2" ry="2"/><rect class="c" x="434" y="34" rx="2" ry="2"/><rect class="c cm" x="434" y="50" rx="2" ry="2"/><rect class="c" x="434" y="66" rx="2" ry="2"/><rect class="c" x="434" y="82" rx="2" ry="2"/><rect class="c" x="434" y="98" rx="2" ry="2"/><rect class="c" x="450" y="2" rx="2" ry="2"/><rect class="c" x="450" y="18" rx="2" ry="2"/><rect class="c" x="450" y="34" rx="2" ry="2"/><rect class="c" x="450" y="50" rx="2" ry="2"/><rect class="c" x="450" y="66" rx="2" ry="2"/><rect class="c" x="450" y="82" rx="2" ry="2"/><rect class="c" x="450" y="98" rx="2" ry="2"/><rect class="c" x="466" y="2" rx="2" ry="2"/><rect class="c" x="466" y="18" rx="2" ry="2"/><rect class="c" x="466" y="34" rx="2" ry="2"/><rect class="c" x="466" y="50" rx="2" ry="2"/><rect class="c cn" x="466" y="66" rx="2" ry="2"/><rect class="c" x="466" y="82" rx="2" ry="2"/><rect class="c co" x="466" y="98" rx="2" ry="2"/><rect class="c" x="482" y="2" rx="2" ry="2"/><rect class="c" x="482" y="18" rx="2" ry="2"/><rect class="c" x="482" y="34" rx="2" ry="2"/><rect class="c" x="482" y="50" rx="2" ry="2"/><rect class="c cp" x="482" y="66" rx="2" ry="2"/><rect class="c" x="482" y="82" rx="2" ry="2"/><rect class="c" x="482" y="98" rx="2" ry="2"/><rect class="c" x="498" y="2" rx="2" ry="2"/><rect class="c" x="498" y="18" rx="2" ry="2"/><rect class="c cq" x="498" y="34" rx="2" ry="2"/><rect class="c" x="498" y="50" rx="2" ry="2"/><rect class="c" x="498" y="66" rx="2" ry="2"/><rect class="c" x="498" y="82" rx="2" ry="2"/><rect class="c" x="498" y="98" rx="2" ry="2"/><rect class="c cr" x="514" y="2" rx="2" ry="2"/><rect class="c cs" x="514" y="18" rx="2" ry="2"/><rect class="c" x="514" y="34" rx="2" ry="2"/><rect class="c" x="514" y="50" rx="2" ry="2"/><rect class="c ct" x="514" y="66" rx="2" ry="2"/><rect class="c" x="514" y="82" rx="2" ry="2"/><rect class="c" x="514" y="98" rx="2" ry="2"/><rect class="c" x="530" y="2" rx="2" ry="2"/><rect class="c" x="530" y="18" rx="2" ry="2"/><rect class="c" x="530" y="34" rx="2" ry="2"/><rect class="c" x="530" y="50" rx="2" ry="2"/><rect class="c" x="530" y="66" rx="2" ry="2"/><rect class="c" x="530" y="82" rx="2" ry="2"/><rect class="c" x="530" y="98" rx="2" ry="2"/><rect class="c" x="546" y="2" rx="2" ry="2"/><rect class="c" x="546" y="18" rx="2" ry="2"/><rect class="c" x="546" y="34" rx="2" ry="2"/><rect class="c" x="546" y="50" rx="2" ry="2"/><rect class="c" x="546" y="66" rx="2" ry="2"/><rect class="c" x="546" y="82" rx="2" ry="2"/><rect class="c" x="546" y="98" rx="2" ry="2"/><rect class="c" x="562" y="2" rx="2" ry="2"/><rect class="c" x="562" y="18" rx="2" ry="2"/><rect class="c" x="562" y="34" rx="2" ry="2"/><rect class="c" x="562" y="50" rx="2" ry="2"/><rect class="c" x="562" y="66" rx="2" ry="2"/><rect class="c" x="562" y="82" rx="2" ry="2"/><rect class="c" x="562" y="98" rx="2" ry="2"/><rect class="c" x="578" y="2" rx="2" ry="2"/><rect class="c" x="578" y="18" rx="2" ry="2"/><rect class="c" x="578" y="34" rx="2" ry="2"/><rect class="c" x="578" y="50" rx="2" ry="2"/><rect class="c cu" x="578" y="66" rx="2" ry="2"/><rect class="c" x="578" y="82" rx="2" ry="2"/><rect class="c" x="578" y="98" rx="2" ry="2"/><rect class="c" x="594" y="2" rx="2" ry="2"/><rect class="c" x="594" y="18" rx="2" ry="2"/><rect class="c" x="594" y="34" rx="2" ry="2"/><rect class="c" x="594" y="50" rx="2" ry="2"/><rect class="c" x="594" y="66" rx="2" ry="2"/><rect class="c cv" x="594" y="82" rx="2" ry="2"/><rect class="c" x="594" y="98" rx="2" ry="2"/><rect class="c" x="610" y="2" rx="2" ry="2"/><rect class="c" x="610" y="18" rx="2" ry="2"/><rect class="c" x="610" y="34" rx="2" ry="2"/><rect class="c" x="610" y="50" rx="2" ry="2"/><rect class="c" x="610" y="66" rx="2" ry="2"/><rect class="c" x="610" y="82" rx="2" ry="2"/><rect class="c" x="610" y="98" rx="2" ry="2"/><rect class="c" x="626" y="2" rx="2" ry="2"/><rect class="c" x="626" y="18" rx="2" ry="2"/><rect class="c" x="626" y="34" rx="2" ry="2"/><rect class="c" x="626" y="50" rx="2" ry="2"/><rect class="c" x="626" y="66" rx="2" ry="2"/><rect class="c" x="626" y="82" rx="2" ry="2"/><rect class="c" x="626" y="98" rx="2" ry="2"/><rect class="c" x="642" y="2" rx="2" ry="2"/><rect class="c" x="642" y="18" rx="2" ry="2"/><rect class="c" x="642" y="34" rx="2" ry="2"/><rect class="c" x="642" y="50" rx="2" ry="2"/><rect class="c" x="642" y="66" rx="2" ry="2"/><rect class="c" x="642" y="82" rx="2" ry="2"/><rect class="c" x="642" y="98" rx="2" ry="2"/><rect class="c" x="658" y="2" rx="2" ry="2"/><rect class="c" x="658" y="18" rx="2" ry="2"/><rect class="c" x="658" y="34" rx="2" ry="2"/><rect class="c" x="658" y="50" rx="2" ry="2"/><rect class="c" x="658" y="66" rx="2" ry="2"/><rect class="c" x="658" y="82" rx="2" ry="2"/><rect class="c" x="658" y="98" rx="2" ry="2"/><rect class="c" x="674" y="2" rx="2" ry="2"/><rect class="c" x="674" y="18" rx="2" ry="2"/><rect class="c" x="674" y="34" rx="2" ry="2"/><rect class="c" x="674" y="50" rx="2" ry="2"/><rect class="c" x="674" y="66" rx="2" ry="2"/><rect class="c" x="674" y="82" rx="2" ry="2"/><rect class="c" x="674" y="98" rx="2" ry="2"/><rect class="c" x="690" y="2" rx="2" ry="2"/><rect class="c cw" x="690" y="18" rx="2" ry="2"/><rect class="c" x="690" y="34" rx="2" ry="2"/><rect class="c" x="690" y="50" rx="2" ry="2"/><rect class="c cx" x="690" y="66" rx="2" ry="2"/><rect class="c cy" x="690" y="82" rx="2" ry="2"/><rect class="c" x="690" y="98" rx="2" ry="2"/><rect class="c" x="706" y="2" rx="2" ry="2"/><rect class="c cz" x="706" y="18" rx="2" ry="2"/><rect class="c c10" x="706" y="34" rx="2" ry="2"/><rect class="c" x="706" y="50" rx="2" ry="2"/><rect class="c" x="706" y="66" rx="2" ry="2"/><rect class="c" x="706" y="82" rx="2" ry="2"/><rect class="c" x="706" y="98" rx="2" ry="2"/><rect class="c" x="722" y="2" rx="2" ry="2"/><rect class="c c11" x="722" y="18" rx="2" ry="2"/><rect class="c" x="722" y="34" rx="2" ry="2"/><rect class="c c12" x="722" y="50" rx="2" ry="2"/><rect class="c c13" x="722" y="66" rx="2" ry="2"/><rect class="c" x="722" y="82" rx="2" ry="2"/><rect class="c" x="722" y="98" rx="2" ry="2"/><rect class="c" x="738" y="2" rx="2" ry="2"/><rect class="c" x="738" y="18" rx="2" ry="2"/><rect class="c c14" x="738" y="34" rx="2" ry="2"/><rect class="c c15" x="738" y="50" rx="2" ry="2"/><rect class="c c16" x="738" y="66" rx="2" ry="2"/><rect class="c c17" x="738" y="82" rx="2" ry="2"/><rect class="c" x="738" y="98" rx="2" ry="2"/><rect class="c" x="754" y="2" rx="2" ry="2"/><rect class="c c18" x="754" y="18" rx="2" ry="2"/><rect class="c c19" x="754" y="34" rx="2" ry="2"/><rect class="c c1a" x="754" y="50" rx="2" ry="2"/><rect class="c" x="754" y="66" rx="2" ry="2"/><rect class="c c1b" x="754" y="82" rx="2" ry="2"/><rect class="c" x="754" y="98" rx="2" ry="2"/><rect class="c c1c" x="770" y="2" rx="2" ry="2"/><rect class="c c1d" x="770" y="18" rx="2" ry="2"/><rect class="c c1e" x="770" y="34" rx="2" ry="2"/><rect class="c c1f" x="770" y="50" rx="2" ry="2"/><rect class="c c1g" x="770" y="66" rx="2" ry="2"/><rect class="c c1h" x="770" y="82" rx="2" ry="2"/><rect class="c c1i" x="770" y="98" rx="2" ry="2"/><rect class="c c1j" x="786" y="2" rx="2" ry="2"/><rect class="c c1k" x="786" y="18" rx="2" ry="2"/><rect class="c c1l" x="786" y="34" rx="2" ry="2"/><rect class="c c1m" x="786" y="50" rx="2" ry="2"/><rect class="c c1n" x="786" y="66" rx="2" ry="2"/><rect class="c c1o" x="786" y="82" rx="2" ry="2"/><rect class="c c1p" x="786" y="98" rx="2" ry="2"/><rect class="c c1q" x="802" y="2" rx="2" ry="2"/><rect class="c c1r" x="802" y="18" rx="2" ry="2"/><rect class="c c1s" x="802" y="34" rx="2" ry="2"/><rect class="c c1t" x="802" y="50" rx="2" ry="2"/><rect class="c c1u" x="802" y="66" rx="2" ry="2"/><rect class="c c1v" x="802" y="82" rx="2" ry="2"/><rect class="c c1w" x="802" y="98" rx="2" ry="2"/><rect class="c c1x" x="818" y="2" rx="2" ry="2"/><rect class="c c1y" x="818" y="18" rx="2" ry="2"/><rect class="c c1z" x="818" y="34" rx="2" ry="2"/><rect class="c c20" x="818" y="50" rx="2" ry="2"/><rect class="c c21" x="818" y="66" rx="2" ry="2"/><rect class="c c22" x="818" y="82" rx="2" ry="2"/><rect class="c c23" x="818" y="98" rx="2" ry="2"/><rect class="c c24" x="834" y="2" rx="2" ry="2"/><rect class="c c25" x="834" y="18" rx="2" ry="2"/><rect class="c c26" x="834" y="34" rx="2" ry="2"/><rect class="c c27" x="834" y="50" rx="2" ry="2"/><rect class="u u0" height="12" width="710.8" x="0.0" y="144"/><rect class="u u1" height="12" width="96.0" x="710.2" y="144"/><rect class="u u2" height="12" width="21.8" x="805.6" y="144"/><rect class="u u3" height="12" width="21.8" x="826.8" y="144"/><rect class="s s0" x="0.8" y="0.8" width="14.4" height="14.4" rx="4.5" ry="4.5"/><rect class="s s1" x="1.8" y="1.8" width="12.3" height="12.3" rx="4.1" ry="4.1"/><rect class="s s2" x="2.6" y="2.6" width="10.8" height="10.8" rx="3.6" ry="3.6"/><rect class="s s3" x="3.0" y="3.0" width="9.9" height="9.9" rx="3.3" ry="3.3"/></svg>