<svg viewBox="-16 -32 880 192" width="880" height="192" xmlns="http://www.w3.org/2000/svg"><desc>Generated with https://github.com/Platane/snk</desc><style>:root{--cb:#1b1f230a;--cs:white;--ce:#0a0e12;--c0:#0a0e12;--c1:#1445a2;--c2:#1d65ee;--c3:#1f4eff;--c4:#466dff}.c{shape-rendering:geometricPrecision;fill:var(--ce);stroke-width:1px;stroke:var(--cb);animation:none 38300ms linear infinite;width:12px;height:12px}@keyframes c0{0.51%{fill:var(--c1)}0.53%,100%{fill:var(--ce)}}.c.c0{fill:var(--c1);animation-name:c0}@keyframes c1{30.28%{fill:var(--c1)}30.3%,100%{fill:var(--ce)}}.c.c1{fill:var(--c1);animation-name:c1}@keyframes c2{30.54%{fill:var(--c1)}30.56%,100%{fill:var(--ce)}}.c.c2{fill:var(--c1);animation-name:c2}@keyframes c3{1.03%{fill:var(--c1)}1.05%,100%{fill:var(--ce)}}.c.c3{fill:var(--c1);animation-name:c3}@keyframes c4{31.58%{fill:var(--c1)}31.6%,100%{fill:var(--ce)}}.c.c4{fill:var(--c1);animation-name:c4}@keyframes c5{31.84%{fill:var(--c1)}31.86%,100%{fill:var(--ce)}}.c.c5{fill:var(--c1);animation-name:c5}@keyframes c6{1.56%{fill:var(--c1)}1.58%,100%{fill:var(--ce)}}.c.c6{fill:var(--c1);animation-name:c6}@keyframes c7{29.49%{fill:var(--c1)}29.51%,100%{fill:var(--ce)}}.c.c7{fill:var(--c1);animation-name:c7}@keyframes c8{1.82%{fill:var(--c1)}1.84%,100%{fill:var(--ce)}}.c.c8{fill:var(--c1);animation-name:c8}@keyframes c9{68.92%{fill:var(--c2)}68.94%,100%{fill:var(--ce)}}.c.c9{fill:var(--c2);animation-name:c9}@keyframes ca{3.65%{fill:var(--c1)}3.67%,100%{fill:var(--ce)}}.c.ca{fill:var(--c1);animation-name:ca}@keyframes cb{4.17%{fill:var(--c1)}4.19%,100%{fill:var(--ce)}}.c.cb{fill:var(--c1);animation-name:cb}@keyframes cc{2.34%{fill:var(--c1)}2.36%,100%{fill:var(--ce)}}.c.cc{fill:var(--c1);animation-name:cc}@keyframes cd{3.12%{fill:var(--c1)}3.14%,100%{fill:var(--ce)}}.c.cd{fill:var(--c1);animation-name:cd}@keyframes ce{2.6%{fill:var(--c1)}2.62%,100%{fill:var(--ce)}}.c.ce{fill:var(--c1);animation-name:ce}@keyframes cf{67.35%{fill:var(--c2)}67.37%,100%{fill:var(--ce)}}.c.cf{fill:var(--c2);animation-name:cf}@keyframes cg{4.95%{fill:var(--c1)}4.97%,100%{fill:var(--ce)}}.c.cg{fill:var(--c1);animation-name:cg}@keyframes ch{5.47%{fill:var(--c1)}5.49%,100%{fill:var(--ce)}}.c.ch{fill:var(--c1);animation-name:ch}@keyframes ci{27.93%{fill:var(--c1)}27.95%,100%{fill:var(--ce)}}.c.ci{fill:var(--c1);animation-name:ci}@keyframes cj{5.73%{fill:var(--c1)}5.75%,100%{fill:var(--ce)}}.c.cj{fill:var(--c1);animation-name:cj}@keyframes ck{6.78%{fill:var(--c1)}6.8%,100%{fill:var(--ce)}}.c.ck{fill:var(--c1);animation-name:ck}@keyframes cl{6%{fill:var(--c1)}6.02%,100%{fill:var(--ce)}}.c.cl{fill:var(--c1);animation-name:cl}@keyframes cm{96.33%{fill:var(--c4)}96.35%,100%{fill:var(--ce)}}.c.cm{fill:var(--c4);animation-name:cm}@keyframes cn{27.14%{fill:var(--c1)}27.16%,100%{fill:var(--ce)}}.c.cn{fill:var(--c1);animation-name:cn}@keyframes co{6.52%{fill:var(--c1)}6.54%,100%{fill:var(--ce)}}.c.co{fill:var(--c1);animation-name:co}@keyframes cp{6.26%{fill:var(--c1)}6.28%,100%{fill:var(--ce)}}.c.cp{fill:var(--c1);animation-name:cp}@keyframes cq{71.27%{fill:var(--c3)}71.29%,100%{fill:var(--ce)}}.c.cq{fill:var(--c3);animation-name:cq}@keyframes cr{7.56%{fill:var(--c1)}7.58%,100%{fill:var(--ce)}}.c.cr{fill:var(--c1);animation-name:cr}@keyframes cs{9.39%{fill:var(--c1)}9.41%,100%{fill:var(--ce)}}.c.cs{fill:var(--c1);animation-name:cs}@keyframes ct{95.55%{fill:var(--c4)}95.57%,100%{fill:var(--ce)}}.c.ct{fill:var(--c4);animation-name:ct}@keyframes cu{8.35%{fill:var(--c1)}8.37%,100%{fill:var(--ce)}}.c.cu{fill:var(--c1);animation-name:cu}@keyframes cv{65.53%{fill:var(--c2)}65.55%,100%{fill:var(--ce)}}.c.cv{fill:var(--c2);animation-name:cv}@keyframes cw{9.91%{fill:var(--c1)}9.93%,100%{fill:var(--ce)}}.c.cw{fill:var(--c1);animation-name:cw}@keyframes cx{72.31%{fill:var(--c3)}72.33%,100%{fill:var(--ce)}}.c.cx{fill:var(--c3);animation-name:cx}@keyframes cy{65%{fill:var(--c2)}65.02%,100%{fill:var(--ce)}}.c.cy{fill:var(--c2);animation-name:cy}@keyframes cz{93.72%{fill:var(--c4)}93.74%,100%{fill:var(--ce)}}.c.cz{fill:var(--c4);animation-name:cz}@keyframes c10{25.32%{fill:var(--c1)}25.34%,100%{fill:var(--ce)}}.c.c10{fill:var(--c1);animation-name:c10}@keyframes c11{63.7%{fill:var(--c2)}63.72%,100%{fill:var(--ce)}}.c.c11{fill:var(--c2);animation-name:c11}@keyframes c12{92.68%{fill:var(--c4)}92.7%,100%{fill:var(--ce)}}.c.c12{fill:var(--c4);animation-name:c12}@keyframes c13{12%{fill:var(--c1)}12.02%,100%{fill:var(--ce)}}.c.c13{fill:var(--c1);animation-name:c13}@keyframes c14{11.74%{fill:var(--c1)}11.76%,100%{fill:var(--ce)}}.c.c14{fill:var(--c1);animation-name:c14}@keyframes c15{76.75%{fill:var(--c3)}76.77%,100%{fill:var(--ce)}}.c.c15{fill:var(--c3);animation-name:c15}@keyframes c16{73.36%{fill:var(--c3)}73.38%,100%{fill:var(--ce)}}.c.c16{fill:var(--c3);animation-name:c16}@keyframes c17{63.18%{fill:var(--c2)}63.2%,100%{fill:var(--ce)}}.c.c17{fill:var(--c2);animation-name:c17}@keyframes c18{11.22%{fill:var(--c1)}11.24%,100%{fill:var(--ce)}}.c.c18{fill:var(--c1);animation-name:c18}@keyframes c19{61.61%{fill:var(--c2)}61.63%,100%{fill:var(--ce)}}.c.c19{fill:var(--c2);animation-name:c19}@keyframes c1a{61.35%{fill:var(--c2)}61.37%,100%{fill:var(--ce)}}.c.c1a{fill:var(--c2);animation-name:c1a}@keyframes c1b{60.83%{fill:var(--c2)}60.85%,100%{fill:var(--ce)}}.c.c1b{fill:var(--c2);animation-name:c1b}@keyframes c1c{60.56%{fill:var(--c2)}60.58%,100%{fill:var(--ce)}}.c.c1c{fill:var(--c2);animation-name:c1c}@keyframes c1d{60.04%{fill:var(--c2)}60.06%,100%{fill:var(--ce)}}.c.c1d{fill:var(--c2);animation-name:c1d}@keyframes c1e{62.39%{fill:var(--c2)}62.41%,100%{fill:var(--ce)}}.c.c1e{fill:var(--c2);animation-name:c1e}@keyframes c1f{74.66%{fill:var(--c3)}74.68%,100%{fill:var(--ce)}}.c.c1f{fill:var(--c3);animation-name:c1f}@keyframes c1g{74.92%{fill:var(--c3)}74.94%,100%{fill:var(--ce)}}.c.c1g{fill:var(--c3);animation-name:c1g}@keyframes c1h{14.09%{fill:var(--c1)}14.11%,100%{fill:var(--ce)}}.c.c1h{fill:var(--c1);animation-name:c1h}@keyframes c1i{22.71%{fill:var(--c1)}22.73%,100%{fill:var(--ce)}}.c.c1i{fill:var(--c1);animation-name:c1i}@keyframes c1j{15.13%{fill:var(--c1)}15.15%,100%{fill:var(--ce)}}.c.c1j{fill:var(--c1);animation-name:c1j}@keyframes c1k{15.39%{fill:var(--c1)}15.41%,100%{fill:var(--ce)}}.c.c1k{fill:var(--c1);animation-name:c1k}@keyframes c1l{22.44%{fill:var(--c1)}22.46%,100%{fill:var(--ce)}}.c.c1l{fill:var(--c1);animation-name:c1l}@keyframes c1m{15.66%{fill:var(--c1)}15.68%,100%{fill:var(--ce)}}.c.c1m{fill:var(--c1);animation-name:c1m}@keyframes c1n{16.7%{fill:var(--c1)}16.72%,100%{fill:var(--ce)}}.c.c1n{fill:var(--c1);animation-name:c1n}@keyframes c1o{20.09%{fill:var(--c1)}20.11%,100%{fill:var(--ce)}}.c.c1o{fill:var(--c1);animation-name:c1o}@keyframes c1p{18.79%{fill:var(--c1)}18.81%,100%{fill:var(--ce)}}.c.c1p{fill:var(--c1);animation-name:c1p}@keyframes c1q{19.31%{fill:var(--c1)}19.33%,100%{fill:var(--ce)}}.c.c1q{fill:var(--c1);animation-name:c1q}@keyframes c1r{55.86%{fill:var(--c2)}55.88%,100%{fill:var(--ce)}}.c.c1r{fill:var(--c2);animation-name:c1r}@keyframes c1s{56.13%{fill:var(--c2)}56.15%,100%{fill:var(--ce)}}.c.c1s{fill:var(--c2);animation-name:c1s}@keyframes c1t{42.55%{fill:var(--c1)}42.57%,100%{fill:var(--ce)}}.c.c1t{fill:var(--c1);animation-name:c1t}@keyframes c1u{50.12%{fill:var(--c2)}50.14%,100%{fill:var(--ce)}}.c.c1u{fill:var(--c2);animation-name:c1u}@keyframes c1v{49.08%{fill:var(--c1)}49.1%,100%{fill:var(--ce)}}.c.c1v{fill:var(--c1);animation-name:c1v}@keyframes c1w{43.85%{fill:var(--c1)}43.87%,100%{fill:var(--ce)}}.c.c1w{fill:var(--c1);animation-name:c1w}@keyframes c1x{84.32%{fill:var(--c3)}84.34%,100%{fill:var(--ce)}}.c.c1x{fill:var(--c3);animation-name:c1x}@keyframes c1y{48.03%{fill:var(--c1)}48.05%,100%{fill:var(--ce)}}.c.c1y{fill:var(--c1);animation-name:c1y}@keyframes c1z{48.29%{fill:var(--c1)}48.31%,100%{fill:var(--ce)}}.c.c1z{fill:var(--c1);animation-name:c1z}@keyframes c20{47.51%{fill:var(--c1)}47.53%,100%{fill:var(--ce)}}.c.c20{fill:var(--c1);animation-name:c20}@keyframes c21{47.25%{fill:var(--c1)}47.27%,100%{fill:var(--ce)}}.c.c21{fill:var(--c1);animation-name:c21}@keyframes c22{51.95%{fill:var(--c2)}51.97%,100%{fill:var(--ce)}}.c.c22{fill:var(--c2);animation-name:c22}@keyframes c23{44.9%{fill:var(--c1)}44.92%,100%{fill:var(--ce)}}.c.c23{fill:var(--c1);animation-name:c23}@keyframes c24{45.68%{fill:var(--c1)}45.7%,100%{fill:var(--ce)}}.c.c24{fill:var(--c1);animation-name:c24}.u{transform-origin:0 0;transform:scale(0,1);animation:none linear 38300ms infinite}@keyframes u0{0.51%{transform:scale(0.000,1)}0.53%,1.03%{transform:scale(0.020,1)}1.05%,1.56%{transform:scale(0.040,1)}1.58%,1.82%{transform:scale(0.060,1)}1.84%,2.34%{transform:scale(0.080,1)}2.36%,2.6%{transform:scale(0.100,1)}2.62%,3.12%{transform:scale(0.120,1)}3.14%,3.65%{transform:scale(0.140,1)}3.67%,4.17%{transform:scale(0.160,1)}4.19%,4.95%{transform:scale(0.180,1)}4.97%,5.47%{transform:scale(0.200,1)}5.49%,5.73%{transform:scale(0.220,1)}5.75%,6%{transform:scale(0.240,1)}6.02%,6.26%{transform:scale(0.260,1)}6.28%,6.52%{transform:scale(0.280,1)}6.54%,6.78%{transform:scale(0.300,1)}6.8%,7.56%{transform:scale(0.320,1)}7.58%,8.35%{transform:scale(0.340,1)}8.37%,9.39%{transform:scale(0.360,1)}9.41%,9.91%{transform:scale(0.380,1)}9.93%,11.22%{transform:scale(0.400,1)}11.24%,11.74%{transform:scale(0.420,1)}11.76%,12%{transform:scale(0.440,1)}12.02%,14.09%{transform:scale(0.460,1)}14.11%,15.13%{transform:scale(0.480,1)}15.15%,15.39%{transform:scale(0.500,1)}15.41%,15.66%{transform:scale(0.520,1)}15.68%,16.7%{transform:scale(0.540,1)}16.72%,18.79%{transform:scale(0.560,1)}18.81%,19.31%{transform:scale(0.580,1)}19.33%,20.09%{transform:scale(0.600,1)}20.11%,22.44%{transform:scale(0.620,1)}22.46%,22.71%{transform:scale(0.640,1)}22.73%,25.32%{transform:scale(0.660,1)}25.34%,27.14%{transform:scale(0.680,1)}27.16%,27.93%{transform:scale(0.700,1)}27.95%,29.49%{transform:scale(0.720,1)}29.51%,30.28%{transform:scale(0.740,1)}30.3%,30.54%{transform:scale(0.760,1)}30.56%,31.58%{transform:scale(0.780,1)}31.6%,31.84%{transform:scale(0.800,1)}31.86%,42.55%{transform:scale(0.820,1)}42.57%,43.85%{transform:scale(0.840,1)}43.87%,44.9%{transform:scale(0.860,1)}44.92%,45.68%{transform:scale(0.880,1)}45.7%,47.25%{transform:scale(0.900,1)}47.27%,47.51%{transform:scale(0.920,1)}47.53%,48.03%{transform:scale(0.940,1)}48.05%,48.29%{transform:scale(0.960,1)}48.31%,49.08%{transform:scale(0.980,1)}49.1%,100%{transform:scale(1.000,1)}}.u.u0{fill:var(--c1);animation-name:u0;transform-origin:0.0px 0}@keyframes u1{50.12%{transform:scale(0.000,1)}50.14%,51.95%{transform:scale(0.063,1)}51.97%,55.86%{transform:scale(0.125,1)}55.88%,56.13%{transform:scale(0.188,1)}56.15%,60.04%{transform:scale(0.250,1)}60.06%,60.56%{transform:scale(0.313,1)}60.58%,60.83%{transform:scale(0.375,1)}60.85%,61.35%{transform:scale(0.438,1)}61.37%,61.61%{transform:scale(0.500,1)}61.63%,62.39%{transform:scale(0.563,1)}62.41%,63.18%{transform:scale(0.625,1)}63.2%,63.7%{transform:scale(0.688,1)}63.72%,65%{transform:scale(0.750,1)}65.02%,65.53%{transform:scale(0.813,1)}65.55%,67.35%{transform:scale(0.875,1)}67.37%,68.92%{transform:scale(0.938,1)}68.94%,100%{transform:scale(1.000,1)}}.u.u1{fill:var(--c2);animation-name:u1;transform-origin:550.6px 0}@keyframes u2{71.27%{transform:scale(0.000,1)}71.29%,72.31%{transform:scale(0.143,1)}72.33%,73.36%{transform:scale(0.286,1)}73.38%,74.66%{transform:scale(0.429,1)}74.68%,74.92%{transform:scale(0.571,1)}74.94%,76.75%{transform:scale(0.714,1)}76.77%,84.32%{transform:scale(0.857,1)}84.34%,100%{transform:scale(1.000,1)}}.u.u2{fill:var(--c3);animation-name:u2;transform-origin:726.9px 0}@keyframes u3{92.68%{transform:scale(0.000,1)}92.7%,93.72%{transform:scale(0.250,1)}93.74%,95.55%{transform:scale(0.500,1)}95.57%,96.33%{transform:scale(0.750,1)}96.35%,100%{transform:scale(1.000,1)}}.u.u3{fill:var(--c4);animation-name:u3;transform-origin:803.9px 0}.s{shape-rendering:geometricPrecision;fill:var(--cs);animation:none linear 38300ms infinite}@keyframes s0{0%,99.74%{transform:translate(0px,-16px)}0.26%{transform:translate(0px,0px)}2.09%{transform:translate(112px,0px)}2.35%{transform:translate(112px,16px)}2.61%,68.41%{transform:translate(128px,16px)}2.87%{transform:translate(128px,32px)}3.39%{transform:translate(96px,32px)}4.18%{transform:translate(96px,80px)}4.44%{transform:translate(112px,80px)}4.7%{transform:translate(112px,96px)}5.22%{transform:translate(144px,96px)}5.48%{transform:translate(144px,80px)}6.27%{transform:translate(192px,80px)}6.53%{transform:translate(192px,64px)}6.79%{transform:translate(176px,64px)}7.05%{transform:translate(176px,48px)}8.09%{transform:translate(240px,48px)}8.36%,65.27%{transform:translate(240px,64px)}8.88%{transform:translate(208px,64px)}9.4%{transform:translate(208px,96px)}9.92%,34.99%,93.99%{transform:translate(240px,96px)}10.18%,35.25%{transform:translate(240px,112px)}10.97%{transform:translate(288px,112px)}11.49%{transform:translate(288px,80px)}11.75%{transform:translate(272px,80px)}12.01%,76.24%{transform:translate(272px,64px)}12.27%,64.49%,75.98%{transform:translate(288px,64px)}12.79%,63.97%,72.85%{transform:translate(288px,32px)}13.32%{transform:translate(320px,32px)}13.84%,60.31%{transform:translate(320px,64px)}14.88%{transform:translate(384px,64px)}15.4%{transform:translate(384px,96px)}18.02%{transform:translate(544px,96px)}18.8%{transform:translate(544px,48px)}19.06%,55.61%{transform:translate(560px,48px)}19.58%{transform:translate(560px,16px)}20.1%{transform:translate(528px,16px)}20.37%{transform:translate(528px,0px)}22.72%{transform:translate(384px,0px)}22.98%{transform:translate(384px,-16px)}24.8%{transform:translate(272px,-16px)}25.33%,63.45%{transform:translate(272px,16px)}25.85%,95.3%{transform:translate(240px,16px)}26.11%{transform:translate(240px,32px)}26.89%{transform:translate(192px,32px)}27.15%{transform:translate(192px,16px)}27.42%,70.76%{transform:translate(176px,16px)}27.68%,70.5%{transform:translate(176px,0px)}29.24%{transform:translate(80px,0px)}29.5%{transform:translate(80px,16px)}30.29%{transform:translate(32px,16px)}30.55%{transform:translate(32px,32px)}30.81%{transform:translate(48px,32px)}31.85%{transform:translate(48px,96px)}42.3%{transform:translate(672px,112px)}42.56%{transform:translate(672px,96px)}43.34%{transform:translate(720px,96px)}43.6%{transform:translate(720px,80px)}44.65%{transform:translate(784px,80px)}44.91%{transform:translate(784px,64px)}45.69%{transform:translate(832px,64px)}46.48%{transform:translate(832px,16px)}47.26%,51.44%{transform:translate(784px,16px)}47.52%{transform:translate(784px,0px)}48.04%{transform:translate(752px,0px)}48.3%{transform:translate(752px,16px)}48.83%,50.39%{transform:translate(720px,16px)}49.09%{transform:translate(720px,32px)}49.35%{transform:translate(736px,32px)}49.87%{transform:translate(736px,0px)}50.13%{transform:translate(720px,0px)}51.96%{transform:translate(784px,48px)}56.14%{transform:translate(560px,80px)}60.05%{transform:translate(320px,80px)}60.57%{transform:translate(304px,64px)}61.62%{transform:translate(304px,0px)}62.14%,74.15%{transform:translate(336px,0px)}62.4%{transform:translate(336px,16px)}63.71%{transform:translate(272px,32px)}65.54%{transform:translate(240px,80px)}67.36%{transform:translate(128px,80px)}68.93%{transform:translate(96px,16px)}69.19%,97.91%{transform:translate(96px,0px)}71.28%{transform:translate(208px,16px)}71.54%{transform:translate(208px,32px)}73.37%{transform:translate(288px,0px)}74.93%{transform:translate(336px,48px)}75.72%{transform:translate(288px,48px)}76.76%{transform:translate(272px,96px)}84.33%{transform:translate(736px,96px)}85.12%{transform:translate(736px,48px)}92.95%{transform:translate(256px,48px)}93.73%{transform:translate(256px,96px)}95.56%{transform:translate(224px,16px)}95.82%{transform:translate(224px,0px)}98.17%{transform:translate(96px,-16px)}}.s.s0{transform:translate(0px,-16px);animation-name:s0}@keyframes s1{0%,99.74%{transform:translate(16px,-16px)}0.26%{transform:translate(0px,-16px)}0.52%{transform:translate(0px,0px)}2.35%{transform:translate(112px,0px)}2.61%{transform:translate(112px,16px)}2.87%,68.67%{transform:translate(128px,16px)}3.13%{transform:translate(128px,32px)}3.66%{transform:translate(96px,32px)}4.44%{transform:translate(96px,80px)}4.7%{transform:translate(112px,80px)}4.96%{transform:translate(112px,96px)}5.48%{transform:translate(144px,96px)}5.74%{transform:translate(144px,80px)}6.53%{transform:translate(192px,80px)}6.79%{transform:translate(192px,64px)}7.05%{transform:translate(176px,64px)}7.31%{transform:translate(176px,48px)}8.36%{transform:translate(240px,48px)}8.62%,65.54%{transform:translate(240px,64px)}9.14%{transform:translate(208px,64px)}9.66%{transform:translate(208px,96px)}10.18%,35.25%,94.26%{transform:translate(240px,96px)}10.44%,35.51%{transform:translate(240px,112px)}11.23%{transform:translate(288px,112px)}11.75%{transform:translate(288px,80px)}12.01%{transform:translate(272px,80px)}12.27%,76.5%{transform:translate(272px,64px)}12.53%,64.75%,76.24%{transform:translate(288px,64px)}13.05%,64.23%,73.11%{transform:translate(288px,32px)}13.58%{transform:translate(320px,32px)}14.1%,60.57%{transform:translate(320px,64px)}15.14%{transform:translate(384px,64px)}15.67%{transform:translate(384px,96px)}18.28%{transform:translate(544px,96px)}19.06%{transform:translate(544px,48px)}19.32%,55.87%{transform:translate(560px,48px)}19.84%{transform:translate(560px,16px)}20.37%{transform:translate(528px,16px)}20.63%{transform:translate(528px,0px)}22.98%{transform:translate(384px,0px)}23.24%{transform:translate(384px,-16px)}25.07%{transform:translate(272px,-16px)}25.59%,63.71%{transform:translate(272px,16px)}26.11%,95.56%{transform:translate(240px,16px)}26.37%{transform:translate(240px,32px)}27.15%{transform:translate(192px,32px)}27.42%{transform:translate(192px,16px)}27.68%,71.02%{transform:translate(176px,16px)}27.94%,70.76%{transform:translate(176px,0px)}29.5%{transform:translate(80px,0px)}29.77%{transform:translate(80px,16px)}30.55%{transform:translate(32px,16px)}30.81%{transform:translate(32px,32px)}31.07%{transform:translate(48px,32px)}32.11%{transform:translate(48px,96px)}42.56%{transform:translate(672px,112px)}42.82%{transform:translate(672px,96px)}43.6%{transform:translate(720px,96px)}43.86%{transform:translate(720px,80px)}44.91%{transform:translate(784px,80px)}45.17%{transform:translate(784px,64px)}45.95%{transform:translate(832px,64px)}46.74%{transform:translate(832px,16px)}47.52%,51.7%{transform:translate(784px,16px)}47.78%{transform:translate(784px,0px)}48.3%{transform:translate(752px,0px)}48.56%{transform:translate(752px,16px)}49.09%,50.65%{transform:translate(720px,16px)}49.35%{transform:translate(720px,32px)}49.61%{transform:translate(736px,32px)}50.13%{transform:translate(736px,0px)}50.39%{transform:translate(720px,0px)}52.22%{transform:translate(784px,48px)}56.4%{transform:translate(560px,80px)}60.31%{transform:translate(320px,80px)}60.84%{transform:translate(304px,64px)}61.88%{transform:translate(304px,0px)}62.4%,74.41%{transform:translate(336px,0px)}62.66%{transform:translate(336px,16px)}63.97%{transform:translate(272px,32px)}65.8%{transform:translate(240px,80px)}67.62%{transform:translate(128px,80px)}69.19%{transform:translate(96px,16px)}69.45%,98.17%{transform:translate(96px,0px)}71.54%{transform:translate(208px,16px)}71.8%{transform:translate(208px,32px)}73.63%{transform:translate(288px,0px)}75.2%{transform:translate(336px,48px)}75.98%{transform:translate(288px,48px)}77.02%{transform:translate(272px,96px)}84.6%{transform:translate(736px,96px)}85.38%{transform:translate(736px,48px)}93.21%{transform:translate(256px,48px)}93.99%{transform:translate(256px,96px)}95.82%{transform:translate(224px,16px)}96.08%{transform:translate(224px,0px)}98.43%{transform:translate(96px,-16px)}}.s.s1{transform:translate(16px,-16px);animation-name:s1}@keyframes s2{0%,99.74%{transform:translate(32px,-16px)}0.52%{transform:translate(0px,-16px)}0.78%{transform:translate(0px,0px)}2.61%{transform:translate(112px,0px)}2.87%{transform:translate(112px,16px)}3.13%,68.93%{transform:translate(128px,16px)}3.39%{transform:translate(128px,32px)}3.92%{transform:translate(96px,32px)}4.7%{transform:translate(96px,80px)}4.96%{transform:translate(112px,80px)}5.22%{transform:translate(112px,96px)}5.74%{transform:translate(144px,96px)}6.01%{transform:translate(144px,80px)}6.79%{transform:translate(192px,80px)}7.05%{transform:translate(192px,64px)}7.31%{transform:translate(176px,64px)}7.57%{transform:translate(176px,48px)}8.62%{transform:translate(240px,48px)}8.88%,65.8%{transform:translate(240px,64px)}9.4%{transform:translate(208px,64px)}9.92%{transform:translate(208px,96px)}10.44%,35.51%,94.52%{transform:translate(240px,96px)}10.7%,35.77%{transform:translate(240px,112px)}11.49%{transform:translate(288px,112px)}12.01%{transform:translate(288px,80px)}12.27%{transform:translate(272px,80px)}12.53%,76.76%{transform:translate(272px,64px)}12.79%,65.01%,76.5%{transform:translate(288px,64px)}13.32%,64.49%,73.37%{transform:translate(288px,32px)}13.84%{transform:translate(320px,32px)}14.36%,60.84%{transform:translate(320px,64px)}15.4%{transform:translate(384px,64px)}15.93%{transform:translate(384px,96px)}18.54%{transform:translate(544px,96px)}19.32%{transform:translate(544px,48px)}19.58%,56.14%{transform:translate(560px,48px)}20.1%{transform:translate(560px,16px)}20.63%{transform:translate(528px,16px)}20.89%{transform:translate(528px,0px)}23.24%{transform:translate(384px,0px)}23.5%{transform:translate(384px,-16px)}25.33%{transform:translate(272px,-16px)}25.85%,63.97%{transform:translate(272px,16px)}26.37%,95.82%{transform:translate(240px,16px)}26.63%{transform:translate(240px,32px)}27.42%{transform:translate(192px,32px)}27.68%{transform:translate(192px,16px)}27.94%,71.28%{transform:translate(176px,16px)}28.2%,71.02%{transform:translate(176px,0px)}29.77%{transform:translate(80px,0px)}30.03%{transform:translate(80px,16px)}30.81%{transform:translate(32px,16px)}31.07%{transform:translate(32px,32px)}31.33%{transform:translate(48px,32px)}32.38%{transform:translate(48px,96px)}42.82%{transform:translate(672px,112px)}43.08%{transform:translate(672px,96px)}43.86%{transform:translate(720px,96px)}44.13%{transform:translate(720px,80px)}45.17%{transform:translate(784px,80px)}45.43%{transform:translate(784px,64px)}46.21%{transform:translate(832px,64px)}47%{transform:translate(832px,16px)}47.78%,51.96%{transform:translate(784px,16px)}48.04%{transform:translate(784px,0px)}48.56%{transform:translate(752px,0px)}48.83%{transform:translate(752px,16px)}49.35%,50.91%{transform:translate(720px,16px)}49.61%{transform:translate(720px,32px)}49.87%{transform:translate(736px,32px)}50.39%{transform:translate(736px,0px)}50.65%{transform:translate(720px,0px)}52.48%{transform:translate(784px,48px)}56.66%{transform:translate(560px,80px)}60.57%{transform:translate(320px,80px)}61.1%{transform:translate(304px,64px)}62.14%{transform:translate(304px,0px)}62.66%,74.67%{transform:translate(336px,0px)}62.92%{transform:translate(336px,16px)}64.23%{transform:translate(272px,32px)}66.06%{transform:translate(240px,80px)}67.89%{transform:translate(128px,80px)}69.45%{transform:translate(96px,16px)}69.71%,98.43%{transform:translate(96px,0px)}71.8%{transform:translate(208px,16px)}72.06%{transform:translate(208px,32px)}73.89%{transform:translate(288px,0px)}75.46%{transform:translate(336px,48px)}76.24%{transform:translate(288px,48px)}77.28%{transform:translate(272px,96px)}84.86%{transform:translate(736px,96px)}85.64%{transform:translate(736px,48px)}93.47%{transform:translate(256px,48px)}94.26%{transform:translate(256px,96px)}96.08%{transform:translate(224px,16px)}96.34%{transform:translate(224px,0px)}98.69%{transform:translate(96px,-16px)}}.s.s2{transform:translate(32px,-16px);animation-name:s2}@keyframes s3{0%,99.74%{transform:translate(48px,-16px)}0.78%{transform:translate(0px,-16px)}1.04%{transform:translate(0px,0px)}2.87%{transform:translate(112px,0px)}3.13%{transform:translate(112px,16px)}3.39%,69.19%{transform:translate(128px,16px)}3.66%{transform:translate(128px,32px)}4.18%{transform:translate(96px,32px)}4.96%{transform:translate(96px,80px)}5.22%{transform:translate(112px,80px)}5.48%{transform:translate(112px,96px)}6.01%{transform:translate(144px,96px)}6.27%{transform:translate(144px,80px)}7.05%{transform:translate(192px,80px)}7.31%{transform:translate(192px,64px)}7.57%{transform:translate(176px,64px)}7.83%{transform:translate(176px,48px)}8.88%{transform:translate(240px,48px)}9.14%,66.06%{transform:translate(240px,64px)}9.66%{transform:translate(208px,64px)}10.18%{transform:translate(208px,96px)}10.7%,35.77%,94.78%{transform:translate(240px,96px)}10.97%,36.03%{transform:translate(240px,112px)}11.75%{transform:translate(288px,112px)}12.27%{transform:translate(288px,80px)}12.53%{transform:translate(272px,80px)}12.79%,77.02%{transform:translate(272px,64px)}13.05%,65.27%,76.76%{transform:translate(288px,64px)}13.58%,64.75%,73.63%{transform:translate(288px,32px)}14.1%{transform:translate(320px,32px)}14.62%,61.1%{transform:translate(320px,64px)}15.67%{transform:translate(384px,64px)}16.19%{transform:translate(384px,96px)}18.8%{transform:translate(544px,96px)}19.58%{transform:translate(544px,48px)}19.84%,56.4%{transform:translate(560px,48px)}20.37%{transform:translate(560px,16px)}20.89%{transform:translate(528px,16px)}21.15%{transform:translate(528px,0px)}23.5%{transform:translate(384px,0px)}23.76%{transform:translate(384px,-16px)}25.59%{transform:translate(272px,-16px)}26.11%,64.23%{transform:translate(272px,16px)}26.63%,96.08%{transform:translate(240px,16px)}26.89%{transform:translate(240px,32px)}27.68%{transform:translate(192px,32px)}27.94%{transform:translate(192px,16px)}28.2%,71.54%{transform:translate(176px,16px)}28.46%,71.28%{transform:translate(176px,0px)}30.03%{transform:translate(80px,0px)}30.29%{transform:translate(80px,16px)}31.07%{transform:translate(32px,16px)}31.33%{transform:translate(32px,32px)}31.59%{transform:translate(48px,32px)}32.64%{transform:translate(48px,96px)}43.08%{transform:translate(672px,112px)}43.34%{transform:translate(672px,96px)}44.13%{transform:translate(720px,96px)}44.39%{transform:translate(720px,80px)}45.43%{transform:translate(784px,80px)}45.69%{transform:translate(784px,64px)}46.48%{transform:translate(832px,64px)}47.26%{transform:translate(832px,16px)}48.04%,52.22%{transform:translate(784px,16px)}48.3%{transform:translate(784px,0px)}48.83%{transform:translate(752px,0px)}49.09%{transform:translate(752px,16px)}49.61%,51.17%{transform:translate(720px,16px)}49.87%{transform:translate(720px,32px)}50.13%{transform:translate(736px,32px)}50.65%{transform:translate(736px,0px)}50.91%{transform:translate(720px,0px)}52.74%{transform:translate(784px,48px)}56.92%{transform:translate(560px,80px)}60.84%{transform:translate(320px,80px)}61.36%{transform:translate(304px,64px)}62.4%{transform:translate(304px,0px)}62.92%,74.93%{transform:translate(336px,0px)}63.19%{transform:translate(336px,16px)}64.49%{transform:translate(272px,32px)}66.32%{transform:translate(240px,80px)}68.15%{transform:translate(128px,80px)}69.71%{transform:translate(96px,16px)}69.97%,98.69%{transform:translate(96px,0px)}72.06%{transform:translate(208px,16px)}72.32%{transform:translate(208px,32px)}74.15%{transform:translate(288px,0px)}75.72%{transform:translate(336px,48px)}76.5%{transform:translate(288px,48px)}77.55%{transform:translate(272px,96px)}85.12%{transform:translate(736px,96px)}85.9%{transform:translate(736px,48px)}93.73%{transform:translate(256px,48px)}94.52%{transform:translate(256px,96px)}96.34%{transform:translate(224px,16px)}96.61%{transform:translate(224px,0px)}98.96%{transform:translate(96px,-16px)}}.s.s3{transform:translate(48px,-16px);animation-name:s3}</style><rect class="c" x="2" y="2" rx="2" ry="2"/><rect class="c" x="2" y="18" rx="2" ry="2"/><rect class="c" x="2" y="34" rx="2" ry="2"/><rect class="c" x="2" y="50" rx="2" ry="2"/><rect class="c" x="2" y="66" rx="2" ry="2"/><rect class="c" x="2" y="82" rx="2" ry="2"/><rect class="c" x="2" y="98" rx="2" ry="2"/><rect class="c c0" x="18" y="2" rx="2" ry="2"/><rect class="c" x="18" y="18" rx="2" ry="2"/><rect class="c" x="18" y="34" rx="2" ry="2"/><rect class="c" x="18" y="50" rx="2" ry="2"/><rect class="c" x="18" y="66" rx="2" ry="2"/><rect class="c" x="18" y="82" rx="2" ry="2"/><rect class="c" x="18" y="98" rx="2" ry="2"/><rect class="c" x="34" y="2" rx="2" ry="2"/><rect class="c c1" x="34" y="18" rx="2" ry="2"/><rect class="c c2" x="34" y="34" rx="2" ry="2"/><rect class="c" x="34" y="50" rx="2" ry="2"/><rect class="c" x="34" y="66" rx="2" ry="2"/><rect class="c" x="34" y="82" rx="2" ry="2"/><rect class="c" x="34" y="98" rx="2" ry="2"/><rect class="c c3" x="50" y="2" rx="2" ry="2"/><rect class="c" x="50" y="18" rx="2" ry="2"/><rect class="c" x="50" y="34" rx="2" ry="2"/><rect class="c" x="50" y="50" rx="2" ry="2"/><rect class="c" x="50" y="66" rx="2" ry="2"/><rect class="c c4" x="50" y="82" rx="2" ry="2"/><rect class="c c5" x="50" y="98" rx="2" ry="2"/><rect class="c" x="66" y="2" rx="2" ry="2"/><rect class="c" x="66" y="18" rx="2" ry="2"/><rect class="c" x="66" y="34" rx="2" ry="2"/><rect class="c" x="66" y="50" rx="2" ry="2"/><rect class="c" x="66" y="66" rx="2" ry="2"/><rect class="c" x="66" y="82" rx="2" ry="2"/><rect class="c" x="66" y="98" rx="2" ry="2"/><rect class="c c6" x="82" y="2" rx="2" ry="2"/><rect class="c c7" x="82" y="18" rx="2" ry="2"/><rect class="c" x="82" y="34" rx="2" ry="2"/><rect class="c" x="82" y="50" rx="2" ry="2"/><rect class="c" x="82" y="66" rx="2" ry="2"/><rect class="c" x="82" y="82" rx="2" ry="2"/><rect class="c" x="82" y="98" rx="2" ry="2"/><rect class="c c8" x="98" y="2" rx="2" ry="2"/><rect class="c c9" x="98" y="18" rx="2" ry="2"/><rect class="c" x="98" y="34" rx="2" ry="2"/><rect class="c ca" x="98" y="50" rx="2" ry="2"/><rect class="c" x="98" y="66" rx="2" ry="2"/><rect class="c cb" x="98" y="82" rx="2" ry="2"/><rect class="c" x="98" y="98" rx="2" ry="2"/><rect class="c" x="114" y="2" rx="2" ry="2"/><rect class="c cc" x="114" y="18" rx="2" ry="2"/><rect class="c cd" x="114" y="34" rx="2" ry="2"/><rect class="c" x="114" y="50" rx="2" ry="2"/><rect class="c" x="114" y="66" rx="2" ry="2"/><rect class="c" x="114" y="82" rx="2" ry="2"/><rect class="c" x="114" y="98" rx="2" ry="2"/><rect class="c" x="130" y="2" rx="2" ry="2"/><rect class="c ce" x="130" y="18" rx="2" ry="2"/><rect class="c" x="130" y="34" rx="2" ry="2"/><rect class="c" x="130" y="50" rx="2" ry="2"/><rect class="c" x="130" y="66" rx="2" ry="2"/><rect class="c cf" x="130" y="82" rx="2" ry="2"/><rect class="c cg" x="130" y="98" rx="2" ry="2"/><rect class="c" x="146" y="2" rx="2" ry="2"/><rect class="c" x="146" y="18" rx="2" ry="2"/><rect class="c" x="146" y="34" rx="2" ry="2"/><rect class="c" x="146" y="50" rx="2" ry="2"/><rect class="c" x="146" y="66" rx="2" ry="2"/><rect class="c ch" x="146" y="82" rx="2" ry="2"/><rect class="c" x="146" y="98" rx="2" ry="2"/><rect class="c ci" x="162" y="2" rx="2" ry="2"/><rect class="c" x="162" y="18" rx="2" ry="2"/><rect class="c" x="162" y="34" rx="2" ry="2"/><rect class="c" x="162" y="50" rx="2" ry="2"/><rect class="c" x="162" y="66" rx="2" ry="2"/><rect class="c cj" x="162" y="82" rx="2" ry="2"/><rect class="c" x="162" y="98" rx="2" ry="2"/><rect class="c" x="178" y="2" rx="2" ry="2"/><rect class="c" x="178" y="18" rx="2" ry="2"/><rect class="c" x="178" y="34" rx="2" ry="2"/><rect class="c" x="178" y="50" rx="2" ry="2"/><rect class="c ck" x="178" y="66" rx="2" ry="2"/><rect class="c cl" x="178" y="82" rx="2" ry="2"/><rect class="c" x="178" y="98" rx="2" ry="2"/><rect class="c cm" x="194" y="2" rx="2" ry="2"/><rect class="c cn" x="194" y="18" rx="2" ry="2"/><rect class="c" x="194" y="34" rx="2" ry="2"/><rect class="c" x="194" y="50" rx="2" ry="2"/><rect class="c co" x="194" y="66" rx="2" ry="2"/><rect class="c cp" x="194" y="82" rx="2" ry="2"/><rect class="c" x="194" y="98" rx="2" ry="2"/><rect class="c" x="210" y="2" rx="2" ry="2"/><rect class="c cq" x="210" y="18" rx="2" ry="2"/><rect class="c" x="210" y="34" rx="2" ry="2"/><rect class="c cr" x="210" y="50" rx="2" ry="2"/><rect class="c" x="210" y="66" rx="2" ry="2"/><rect class="c" x="210" y="82" rx="2" ry="2"/><rect class="c cs" x="210" y="98" rx="2" ry="2"/><rect class="c" x="226" y="2" rx="2" ry="2"/><rect class="c ct" x="226" y="18" rx="2" ry="2"/><rect class="c" x="226" y="34" rx="2" ry="2"/><rect class="c" x="226" y="50" rx="2" ry="2"/><rect class="c" x="226" y="66" rx="2" ry="2"/><rect class="c" x="226" y="82" rx="2" ry="2"/><rect class="c" x="226" y="98" rx="2" ry="2"/><rect class="c" x="242" y="2" rx="2" ry="2"/><rect class="c" x="242" y="18" rx="2" ry="2"/><rect class="c" x="242" y="34" rx="2" ry="2"/><rect class="c" x="242" y="50" rx="2" ry="2"/><rect class="c cu" x="242" y="66" rx="2" ry="2"/><rect class="c cv" x="242" y="82" rx="2" ry="2"/><rect class="c cw" x="242" y="98" rx="2" ry="2"/><rect class="c" x="258" y="2" rx="2" ry="2"/><rect class="c" x="258" y="18" rx="2" ry="2"/><rect class="c cx" x="258" y="34" rx="2" ry="2"/><rect class="c" x="258" y="50" rx="2" ry="2"/><rect class="c cy" x="258" y="66" rx="2" ry="2"/><rect class="c" x="258" y="82" rx="2" ry="2"/><rect class="c cz" x="258" y="98" rx="2" ry="2"/><rect class="c" x="274" y="2" rx="2" ry="2"/><rect class="c c10" x="274" y="18" rx="2" ry="2"/><rect class="c c11" x="274" y="34" rx="2" ry="2"/><rect class="c c12" x="274" y="50" rx="2" ry="2"/><rect class="c c13" x="274" y="66" rx="2" ry="2"/><rect class="c c14" x="274" y="82" rx="2" ry="2"/><rect class="c c15" x="274" y="98" rx="2" ry="2"/><rect class="c c16" x="290" y="2" rx="2" ry="2"/><rect class="c c17" x="290" y="18" rx="2" ry="2"/><rect class="c" x="290" y="34" rx="2" ry="2"/><rect class="c" x="290" y="50" rx="2" ry="2"/><rect class="c" x="290" y="66" rx="2" ry="2"/><rect class="c" x="290" y="82" rx="2" ry="2"/><rect class="c c18" x="290" y="98" rx="2" ry="2"/><rect class="c c19" x="306" y="2" rx="2" ry="2"/><rect class="c c1a" x="306" y="18" rx="2" ry="2"/><rect class="c" x="306" y="34" rx="2" ry="2"/><rect class="c c1b" x="306" y="50" rx="2" ry="2"/><rect class="c c1c" x="306" y="66" rx="2" ry="2"/><rect class="c" x="306" y="82" rx="2" ry="2"/><rect class="c" x="306" y="98" rx="2" ry="2"/><rect class="c" x="322" y="2" rx="2" ry="2"/><rect class="c" x="322" y="18" rx="2" ry="2"/><rect class="c" x="322" y="34" rx="2" ry="2"/><rect class="c" x="322" y="50" rx="2" ry="2"/><rect class="c" x="322" y="66" rx="2" ry="2"/><rect class="c c1d" x="322" y="82" rx="2" ry="2"/><rect class="c" x="322" y="98" rx="2" ry="2"/><rect class="c" x="338" y="2" rx="2" ry="2"/><rect class="c c1e" x="338" y="18" rx="2" ry="2"/><rect class="c c1f" x="338" y="34" rx="2" ry="2"/><rect class="c c1g" x="338" y="50" rx="2" ry="2"/><rect class="c c1h" x="338" y="66" rx="2" ry="2"/><rect class="c" x="338" y="82" rx="2" ry="2"/><rect class="c" x="338" y="98" rx="2" ry="2"/><rect class="c" x="354" y="2" rx="2" ry="2"/><rect class="c" x="354" y="18" rx="2" ry="2"/><rect class="c" x="354" y="34" rx="2" ry="2"/><rect class="c" x="354" y="50" rx="2" ry="2"/><rect class="c" x="354" y="66" rx="2" ry="2"/><rect class="c" x="354" y="82" rx="2" ry="2"/><rect class="c" x="354" y="98" rx="2" ry="2"/><rect class="c" x="370" y="2" rx="2" ry="2"/><rect class="c" x="370" y="18" rx="2" ry="2"/><rect class="c" x="370" y="34" rx="2" ry="2"/><rect class="c" x="370" y="50" rx="2" ry="2"/><rect class="c" x="370" y="66" rx="2" ry="2"/><rect class="c" x="370" y="82" rx="2" ry="2"/><rect class="c" x="370" y="98" rx="2" ry="2"/><rect class="c c1i" x="386" y="2" rx="2" ry="2"/><rect class="c" x="386" y="18" rx="2" ry="2"/><rect class="c" x="386" y="34" rx="2" ry="2"/><rect class="c" x="386" y="50" rx="2" ry="2"/><rect class="c" x="386" y="66" rx="2" ry="2"/><rect class="c c1j" x="386" y="82" rx="2" ry="2"/><rect class="c c1k" x="386" y="98" rx="2" ry="2"/><rect class="c c1l" x="402" y="2" rx="2" ry="2"/><rect class="c" x="402" y="18" rx="2" ry="2"/><rect class="c" x="402" y="34" rx="2" ry="2"/><rect class="c" x="402" y="50" rx="2" ry="2"/><rect class="c" x="402" y="66" rx="2" ry="2"/><rect class="c" x="402" y="82" rx="2" ry="2"/><rect class="c c1m" x="402" y="98" rx="2" ry="2"/><rect class="c" x="418" y="2" rx="2" ry="2"/><rect class="c" x="418" y="18" rx="2" ry="2"/><rect class="c" x="418" y="34" rx="2" ry="2"/><rect class="c" x="418" y="50" rx="2" ry="2"/><rect class="c" x="418" y="66" rx="2" ry="2"/><rect class="c" x="418" y="82" rx="2" ry="2"/><rect class="c" x="418" y="98" rx="2" ry="2"/><rect class="c" x="434" y="2" rx="2" ry="2"/><rect class="c" x="434" y="18" rx="2" ry="2"/><rect class="c" x="434" y="34" rx="2" ry="2"/><rect class="c" x="434" y="50" rx="2" ry="2"/><rect class="c" x="434" y="66" rx="2" ry="2"/><rect class="c" x="434" y="82" rx="2" ry="2"/><rect class="c" x="434" y="98" rx="2" ry="2"/><rect class="c" x="450" y="2" rx="2" ry="2"/><rect class="c" x="450" y="18" rx="2" ry="2"/><rect class="c" x="450" y="34" rx="2" ry="2"/><rect class="c" x="450" y="50" rx="2" ry="2"/><rect class="c" x="450" y="66" rx="2" ry="2"/><rect class="c" x="450" y="82" rx="2" ry="2"/><rect class="c" x="450" y="98" rx="2" ry="2"/><rect class="c" x="466" y="2" rx="2" ry="2"/><rect class="c" x="466" y="18" rx="2" ry="2"/><rect class="c" x="466" y="34" rx="2" ry="2"/><rect class="c" x="466" y="50" rx="2" ry="2"/><rect class="c" x="466" y="66" rx="2" ry="2"/><rect class="c" x="466" y="82" rx="2" ry="2"/><rect class="c c1n" x="466" y="98" rx="2" ry="2"/><rect class="c" x="482" y="2" rx="2" ry="2"/><rect class="c" x="482" y="18" rx="2" ry="2"/><rect class="c" x="482" y="34" rx="2" ry="2"/><rect class="c" x="482" y="50" rx="2" ry="2"/><rect class="c" x="482" y="66" rx="2" ry="2"/><rect class="c" x="482" y="82" rx="2" ry="2"/><rect class="c" x="482" y="98" rx="2" ry="2"/><rect class="c" x="498" y="2" rx="2" ry="2"/><rect class="c" x="498" y="18" rx="2" ry="2"/><rect class="c" x="498" y="34" rx="2" ry="2"/><rect class="c" x="498" y="50" rx="2" ry="2"/><rect class="c" x="498" y="66" rx="2" ry="2"/><rect class="c" x="498" y="82" rx="2" ry="2"/><rect class="c" x="498" y="98" rx="2" ry="2"/><rect class="c" x="514" y="2" rx="2" ry="2"/><rect class="c" x="514" y="18" rx="2" ry="2"/><rect class="c" x="514" y="34" rx="2" ry="2"/><rect class="c" x="514" y="50" rx="2" ry="2"/><rect class="c" x="514" y="66" rx="2" ry="2"/><rect class="c" x="514" y="82" rx="2" ry="2"/><rect class="c" x="514" y="98" rx="2" ry="2"/><rect class="c" x="530" y="2" rx="2" ry="2"/><rect class="c c1o" x="530" y="18" rx="2" ry="2"/><rect class="c" x="530" y="34" rx="2" ry="2"/><rect class="c" x="530" y="50" rx="2" ry="2"/><rect class="c" x="530" y="66" rx="2" ry="2"/><rect class="c" x="530" y="82" rx="2" ry="2"/><rect class="c" x="530" y="98" rx="2" ry="2"/><rect class="c" x="546" y="2" rx="2" ry="2"/><rect class="c" x="546" y="18" rx="2" ry="2"/><rect class="c" x="546" y="34" rx="2" ry="2"/><rect class="c c1p" x="546" y="50" rx="2" ry="2"/><rect class="c" x="546" y="66" rx="2" ry="2"/><rect class="c" x="546" y="82" rx="2" ry="2"/><rect class="c" x="546" y="98" rx="2" ry="2"/><rect class="c" x="562" y="2" rx="2" ry="2"/><rect class="c" x="562" y="18" rx="2" ry="2"/><rect class="c c1q" x="562" y="34" rx="2" ry="2"/><rect class="c" x="562" y="50" rx="2" ry="2"/><rect class="c c1r" x="562" y="66" rx="2" ry="2"/><rect class="c c1s" x="562" y="82" rx="2" ry="2"/><rect class="c" x="562" y="98" rx="2" ry="2"/><rect class="c" x="578" y="2" rx="2" ry="2"/><rect class="c" x="578" y="18" rx="2" ry="2"/><rect class="c" x="578" y="34" rx="2" ry="2"/><rect class="c" x="578" y="50" rx="2" ry="2"/><rect class="c" x="578" y="66" rx="2" ry="2"/><rect class="c" x="578" y="82" rx="2" ry="2"/><rect class="c" x="578" y="98" rx="2" ry="2"/><rect class="c" x="594" y="2" rx="2" ry="2"/><rect class="c" x="594" y="18" rx="2" ry="2"/><rect class="c" x="594" y="34" rx="2" ry="2"/><rect class="c" x="594" y="50" rx="2" ry="2"/><rect class="c" x="594" y="66" rx="2" ry="2"/><rect class="c" x="594" y="82" rx="2" ry="2"/><rect class="c" x="594" y="98" rx="2" ry="2"/><rect class="c" x="610" y="2" rx="2" ry="2"/><rect class="c" x="610" y="18" rx="2" ry="2"/><rect class="c" x="610" y="34" rx="2" ry="2"/><rect class="c" x="610" y="50" rx="2" ry="2"/><rect class="c" x="610" y="66" rx="2" ry="2"/><rect class="c" x="610" y="82" rx="2" ry="2"/><rect class="c" x="610" y="98" rx="2" ry="2"/><rect class="c" x="626" y="2" rx="2" ry="2"/><rect class="c" x="626" y="18" rx="2" ry="2"/><rect class="c" x="626" y="34" rx="2" ry="2"/><rect class="c" x="626" y="50" rx="2" ry="2"/><rect class="c" x="626" y="66" rx="2" ry="2"/><rect class="c" x="626" y="82" rx="2" ry="2"/><rect class="c" x="626" y="98" rx="2" ry="2"/><rect class="c" x="642" y="2" rx="2" ry="2"/><rect class="c" x="642" y="18" rx="2" ry="2"/><rect class="c" x="642" y="34" rx="2" ry="2"/><rect class="c" x="642" y="50" rx="2" ry="2"/><rect class="c" x="642" y="66" rx="2" ry="2"/><rect class="c" x="642" y="82" rx="2" ry="2"/><rect class="c" x="642" y="98" rx="2" ry="2"/><rect class="c" x="658" y="2" rx="2" ry="2"/><rect class="c" x="658" y="18" rx="2" ry="2"/><rect class="c" x="658" y="34" rx="2" ry="2"/><rect class="c" x="658" y="50" rx="2" ry="2"/><rect class="c" x="658" y="66" rx="2" ry="2"/><rect class="c" x="658" y="82" rx="2" ry="2"/><rect class="c" x="658" y="98" rx="2" ry="2"/><rect class="c" x="674" y="2" rx="2" ry="2"/><rect class="c" x="674" y="18" rx="2" ry="2"/><rect class="c" x="674" y="34" rx="2" ry="2"/><rect class="c" x="674" y="50" rx="2" ry="2"/><rect class="c" x="674" y="66" rx="2" ry="2"/><rect class="c" x="674" y="82" rx="2" ry="2"/><rect class="c c1t" x="674" y="98" rx="2" ry="2"/><rect class="c" x="690" y="2" rx="2" ry="2"/><rect class="c" x="690" y="18" rx="2" ry="2"/><rect class="c" x="690" y="34" rx="2" ry="2"/><rect class="c" x="690" y="50" rx="2" ry="2"/><rect class="c" x="690" y="66" rx="2" ry="2"/><rect class="c" x="690" y="82" rx="2" ry="2"/><rect class="c" x="690" y="98" rx="2" ry="2"/><rect class="c" x="706" y="2" rx="2" ry="2"/><rect class="c" x="706" y="18" rx="2" ry="2"/><rect class="c" x="706" y="34" rx="2" ry="2"/><rect class="c" x="706" y="50" rx="2" ry="2"/><rect class="c" x="706" y="66" rx="2" ry="2"/><rect class="c" x="706" y="82" rx="2" ry="2"/><rect class="c" x="706" y="98" rx="2" ry="2"/><rect class="c c1u" x="722" y="2" rx="2" ry="2"/><rect class="c" x="722" y="18" rx="2" ry="2"/><rect class="c c1v" x="722" y="34" rx="2" ry="2"/><rect class="c" x="722" y="50" rx="2" ry="2"/><rect class="c" x="722" y="66" rx="2" ry="2"/><rect class="c" x="722" y="82" rx="2" ry="2"/><rect class="c" x="722" y="98" rx="2" ry="2"/><rect class="c" x="738" y="2" rx="2" ry="2"/><rect class="c" x="738" y="18" rx="2" ry="2"/><rect class="c" x="738" y="34" rx="2" ry="2"/><rect class="c" x="738" y="50" rx="2" ry="2"/><rect class="c" x="738" y="66" rx="2" ry="2"/><rect class="c c1w" x="738" y="82" rx="2" ry="2"/><rect class="c c1x" x="738" y="98" rx="2" ry="2"/><rect class="c c1y" x="754" y="2" rx="2" ry="2"/><rect class="c c1z" x="754" y="18" rx="2" ry="2"/><rect class="c" x="754" y="34" rx="2" ry="2"/><rect class="c" x="754" y="50" rx="2" ry="2"/><rect class="c" x="754" y="66" rx="2" ry="2"/><rect class="c" x="754" y="82" rx="2" ry="2"/><rect class="c" x="754" y="98" rx="2" ry="2"/><rect class="c" x="770" y="2" rx="2" ry="2"/><rect class="c" x="770" y="18" rx="2" ry="2"/><rect class="c" x="770" y="34" rx="2" ry="2"/><rect class="c" x="770" y="50" rx="2" ry="2"/><rect class="c" x="770" y="66" rx="2" ry="2"/><rect class="c" x="770" y="82" rx="2" ry="2"/><rect class="c" x="770" y="98" rx="2" ry="2"/><rect class="c c20" x="786" y="2" rx="2" ry="2"/><rect class="c c21" x="786" y="18" rx="2" ry="2"/><rect class="c" x="786" y="34" rx="2" ry="2"/><rect class="c c22" x="786" y="50" rx="2" ry="2"/><rect class="c c23" x="786" y="66" rx="2" ry="2"/><rect class="c" x="786" y="82" rx="2" ry="2"/><rect class="c" x="786" y="98" rx="2" ry="2"/><rect class="c" x="802" y="2" rx="2" ry="2"/><rect class="c" x="802" y="18" rx="2" ry="2"/><rect class="c" x="802" y="34" rx="2" ry="2"/><rect class="c" x="802" y="50" rx="2" ry="2"/><rect class="c" x="802" y="66" rx="2" ry="2"/><rect class="c" x="802" y="82" rx="2" ry="2"/><rect class="c" x="802" y="98" rx="2" ry="2"/><rect class="c" x="818" y="2" rx="2" ry="2"/><rect class="c" x="818" y="18" rx="2" ry="2"/><rect class="c" x="818" y="34" rx="2" ry="2"/><rect class="c" x="818" y="50" rx="2" ry="2"/><rect class="c" x="818" y="66" rx="2" ry="2"/><rect class="c" x="818" y="82" rx="2" ry="2"/><rect class="c" x="818" y="98" rx="2" ry="2"/><rect class="c" x="834" y="2" rx="2" ry="2"/><rect class="c" x="834" y="18" rx="2" ry="2"/><rect class="c" x="834" y="34" rx="2" ry="2"/><rect class="c" x="834" y="50" rx="2" ry="2"/><rect class="c c24" x="834" y="66" rx="2" ry="2"/><rect class="c" x="834" y="82" rx="2" ry="2"/><rect class="u u0" height="12" width="551.2" x="0.0" y="144"/><rect class="u u1" height="12" width="176.8" x="550.6" y="144"/><rect class="u u2" height="12" width="77.7" x="726.9" y="144"/><rect class="u u3" height="12" width="44.7" x="803.9" y="144"/><rect class="s s0" x="0.8" y="0.8" width="14.4" height="14.4" rx="4.5" ry="4.5"/><rect class="s s1" x="1.8" y="1.8" width="12.3" height="12.3" rx="4.1" ry="4.1"/><rect class="s s2" x="2.6" y="2.6" width="10.8" height="10.8" rx="3.6" ry="3.6"/><rect class="s s3" x="3.0" y="3.0" width="9.9" height="9.9" rx="3.3" ry="3.3"/></svg>