<svg viewBox="-16 -32 880 192" width="880" height="192" xmlns="http://www.w3.org/2000/svg"><desc>Generated with https://github.com/Platane/snk</desc><style>:root{--cb:#1b1f230a;--cs:white;--ce:#0a0e12;--c0:#0a0e12;--c1:#1445a2;--c2:#1d65ee;--c3:#1f4eff;--c4:#466dff}.c{shape-rendering:geometricPrecision;fill:var(--ce);stroke-width:1px;stroke:var(--cb);animation:none 42100ms linear infinite;width:12px;height:12px}@keyframes c0{2.13%{fill:var(--c1)}2.15%,100%{fill:var(--ce)}}.c.c0{fill:var(--c1);animation-name:c0}@keyframes c1{79.8%{fill:var(--c3)}79.82%,100%{fill:var(--ce)}}.c.c1{fill:var(--c3);animation-name:c1}@keyframes c2{3.08%{fill:var(--c1)}3.1%,100%{fill:var(--ce)}}.c.c2{fill:var(--c1);animation-name:c2}@keyframes c3{81.7%{fill:var(--c4)}81.72%,100%{fill:var(--ce)}}.c.c3{fill:var(--c4);animation-name:c3}@keyframes c4{50.82%{fill:var(--c2)}50.84%,100%{fill:var(--ce)}}.c.c4{fill:var(--c2);animation-name:c4}@keyframes c5{80.28%{fill:var(--c4)}80.3%,100%{fill:var(--ce)}}.c.c5{fill:var(--c4);animation-name:c5}@keyframes c6{0.94%{fill:var(--c1)}0.96%,100%{fill:var(--ce)}}.c.c6{fill:var(--c1);animation-name:c6}@keyframes c7{78.14%{fill:var(--c3)}78.16%,100%{fill:var(--ce)}}.c.c7{fill:var(--c3);animation-name:c7}@keyframes c8{81.23%{fill:var(--c4)}81.25%,100%{fill:var(--ce)}}.c.c8{fill:var(--c4);animation-name:c8}@keyframes c9{4.98%{fill:var(--c1)}5%,100%{fill:var(--ce)}}.c.c9{fill:var(--c1);animation-name:c9}@keyframes ca{4.74%{fill:var(--c1)}4.76%,100%{fill:var(--ce)}}.c.ca{fill:var(--c1);animation-name:ca}@keyframes cb{80.51%{fill:var(--c4)}80.53%,100%{fill:var(--ce)}}.c.cb{fill:var(--c4);animation-name:cb}@keyframes cc{82.65%{fill:var(--c4)}82.67%,100%{fill:var(--ce)}}.c.cc{fill:var(--c4);animation-name:cc}@keyframes cd{77.66%{fill:var(--c3)}77.68%,100%{fill:var(--ce)}}.c.cd{fill:var(--c3);animation-name:cd}@keyframes ce{4.27%{fill:var(--c1)}4.29%,100%{fill:var(--ce)}}.c.ce{fill:var(--c1);animation-name:ce}@keyframes cf{77.19%{fill:var(--c3)}77.21%,100%{fill:var(--ce)}}.c.cf{fill:var(--c3);animation-name:cf}@keyframes cg{47.97%{fill:var(--c2)}47.99%,100%{fill:var(--ce)}}.c.cg{fill:var(--c2);animation-name:cg}@keyframes ch{47.5%{fill:var(--c2)}47.52%,100%{fill:var(--ce)}}.c.ch{fill:var(--c2);animation-name:ch}@keyframes ci{47.26%{fill:var(--c2)}47.28%,100%{fill:var(--ce)}}.c.ci{fill:var(--c2);animation-name:ci}@keyframes cj{75.29%{fill:var(--c3)}75.31%,100%{fill:var(--ce)}}.c.cj{fill:var(--c3);animation-name:cj}@keyframes ck{48.45%{fill:var(--c2)}48.47%,100%{fill:var(--ce)}}.c.ck{fill:var(--c2);animation-name:ck}@keyframes cl{76.24%{fill:var(--c3)}76.26%,100%{fill:var(--ce)}}.c.cl{fill:var(--c3);animation-name:cl}@keyframes cm{76%{fill:var(--c3)}76.02%,100%{fill:var(--ce)}}.c.cm{fill:var(--c3);animation-name:cm}@keyframes cn{6.88%{fill:var(--c1)}6.9%,100%{fill:var(--ce)}}.c.cn{fill:var(--c1);animation-name:cn}@keyframes co{14.72%{fill:var(--c1)}14.74%,100%{fill:var(--ce)}}.c.co{fill:var(--c1);animation-name:co}@keyframes cp{7.83%{fill:var(--c1)}7.85%,100%{fill:var(--ce)}}.c.cp{fill:var(--c1);animation-name:cp}@keyframes cq{8.07%{fill:var(--c1)}8.09%,100%{fill:var(--ce)}}.c.cq{fill:var(--c1);animation-name:cq}@keyframes cr{14.48%{fill:var(--c1)}14.5%,100%{fill:var(--ce)}}.c.cr{fill:var(--c1);animation-name:cr}@keyframes cs{8.3%{fill:var(--c1)}8.32%,100%{fill:var(--ce)}}.c.cs{fill:var(--c1);animation-name:cs}@keyframes ct{9.25%{fill:var(--c1)}9.27%,100%{fill:var(--ce)}}.c.ct{fill:var(--c1);animation-name:ct}@keyframes cu{12.34%{fill:var(--c1)}12.36%,100%{fill:var(--ce)}}.c.cu{fill:var(--c1);animation-name:cu}@keyframes cv{11.15%{fill:var(--c1)}11.17%,100%{fill:var(--ce)}}.c.cv{fill:var(--c1);animation-name:cv}@keyframes cw{11.63%{fill:var(--c1)}11.65%,100%{fill:var(--ce)}}.c.cw{fill:var(--c1);animation-name:cw}@keyframes cx{43.46%{fill:var(--c2)}43.48%,100%{fill:var(--ce)}}.c.cx{fill:var(--c2);animation-name:cx}@keyframes cy{71.72%{fill:var(--c3)}71.74%,100%{fill:var(--ce)}}.c.cy{fill:var(--c3);animation-name:cy}@keyframes cz{37.52%{fill:var(--c1)}37.54%,100%{fill:var(--ce)}}.c.cz{fill:var(--c1);animation-name:cz}@keyframes c10{40.13%{fill:var(--c2)}40.15%,100%{fill:var(--ce)}}.c.c10{fill:var(--c2);animation-name:c10}@keyframes c11{20.18%{fill:var(--c1)}20.2%,100%{fill:var(--ce)}}.c.c11{fill:var(--c1);animation-name:c11}@keyframes c12{38.71%{fill:var(--c2)}38.73%,100%{fill:var(--ce)}}.c.c12{fill:var(--c2);animation-name:c12}@keyframes c13{90.73%{fill:var(--c4)}90.75%,100%{fill:var(--ce)}}.c.c13{fill:var(--c4);animation-name:c13}@keyframes c14{21.13%{fill:var(--c1)}21.15%,100%{fill:var(--ce)}}.c.c14{fill:var(--c1);animation-name:c14}@keyframes c15{20.89%{fill:var(--c1)}20.91%,100%{fill:var(--ce)}}.c.c15{fill:var(--c1);animation-name:c15}@keyframes c16{21.61%{fill:var(--c1)}21.63%,100%{fill:var(--ce)}}.c.c16{fill:var(--c1);animation-name:c16}@keyframes c17{21.84%{fill:var(--c1)}21.86%,100%{fill:var(--ce)}}.c.c17{fill:var(--c1);animation-name:c17}@keyframes c18{67.92%{fill:var(--c3)}67.94%,100%{fill:var(--ce)}}.c.c18{fill:var(--c3);animation-name:c18}@keyframes c19{23.03%{fill:var(--c1)}23.05%,100%{fill:var(--ce)}}.c.c19{fill:var(--c1);animation-name:c19}@keyframes c1a{24.22%{fill:var(--c1)}24.24%,100%{fill:var(--ce)}}.c.c1a{fill:var(--c1);animation-name:c1a}@keyframes c1b{23.98%{fill:var(--c1)}24%,100%{fill:var(--ce)}}.c.c1b{fill:var(--c1);animation-name:c1b}@keyframes c1c{26.12%{fill:var(--c1)}26.14%,100%{fill:var(--ce)}}.c.c1c{fill:var(--c1);animation-name:c1c}@keyframes c1d{62.22%{fill:var(--c2)}62.24%,100%{fill:var(--ce)}}.c.c1d{fill:var(--c2);animation-name:c1d}@keyframes c1e{26.36%{fill:var(--c1)}26.38%,100%{fill:var(--ce)}}.c.c1e{fill:var(--c1);animation-name:c1e}@keyframes c1f{27.07%{fill:var(--c1)}27.09%,100%{fill:var(--ce)}}.c.c1f{fill:var(--c1);animation-name:c1f}@keyframes c1g{27.54%{fill:var(--c1)}27.56%,100%{fill:var(--ce)}}.c.c1g{fill:var(--c1);animation-name:c1g}@keyframes c1h{29.44%{fill:var(--c1)}29.46%,100%{fill:var(--ce)}}.c.c1h{fill:var(--c1);animation-name:c1h}@keyframes c1i{63.89%{fill:var(--c2)}63.91%,100%{fill:var(--ce)}}.c.c1i{fill:var(--c2);animation-name:c1i}@keyframes c1j{29.21%{fill:var(--c1)}29.23%,100%{fill:var(--ce)}}.c.c1j{fill:var(--c1);animation-name:c1j}@keyframes c1k{28.97%{fill:var(--c1)}28.99%,100%{fill:var(--ce)}}.c.c1k{fill:var(--c1);animation-name:c1k}@keyframes c1l{28.49%{fill:var(--c1)}28.51%,100%{fill:var(--ce)}}.c.c1l{fill:var(--c1);animation-name:c1l}@keyframes c1m{31.11%{fill:var(--c1)}31.13%,100%{fill:var(--ce)}}.c.c1m{fill:var(--c1);animation-name:c1m}.u{transform-origin:0 0;transform:scale(0,1);animation:none linear 42100ms infinite}@keyframes u0{0.94%{transform:scale(0.000,1)}0.96%,2.13%{transform:scale(0.029,1)}2.15%,3.08%{transform:scale(0.059,1)}3.1%,4.27%{transform:scale(0.088,1)}4.29%,4.74%{transform:scale(0.118,1)}4.76%,4.98%{transform:scale(0.147,1)}5%,6.88%{transform:scale(0.176,1)}6.9%,7.83%{transform:scale(0.206,1)}7.85%,8.07%{transform:scale(0.235,1)}8.09%,8.3%{transform:scale(0.265,1)}8.32%,9.25%{transform:scale(0.294,1)}9.27%,11.15%{transform:scale(0.324,1)}11.17%,11.63%{transform:scale(0.353,1)}11.65%,12.34%{transform:scale(0.382,1)}12.36%,14.48%{transform:scale(0.412,1)}14.5%,14.72%{transform:scale(0.441,1)}14.74%,20.18%{transform:scale(0.471,1)}20.2%,20.89%{transform:scale(0.500,1)}20.91%,21.13%{transform:scale(0.529,1)}21.15%,21.61%{transform:scale(0.559,1)}21.63%,21.84%{transform:scale(0.588,1)}21.86%,23.03%{transform:scale(0.618,1)}23.05%,23.98%{transform:scale(0.647,1)}24%,24.22%{transform:scale(0.676,1)}24.24%,26.12%{transform:scale(0.706,1)}26.14%,26.36%{transform:scale(0.735,1)}26.38%,27.07%{transform:scale(0.765,1)}27.09%,27.54%{transform:scale(0.794,1)}27.56%,28.49%{transform:scale(0.824,1)}28.51%,28.97%{transform:scale(0.853,1)}28.99%,29.21%{transform:scale(0.882,1)}29.23%,29.44%{transform:scale(0.912,1)}29.46%,31.11%{transform:scale(0.941,1)}31.13%,37.52%{transform:scale(0.971,1)}37.54%,100%{transform:scale(1.000,1)}}.u.u0{fill:var(--c1);animation-name:u0;transform-origin:0.0px 0}@keyframes u1{38.71%{transform:scale(0.000,1)}38.73%,40.13%{transform:scale(0.100,1)}40.15%,43.46%{transform:scale(0.200,1)}43.48%,47.26%{transform:scale(0.300,1)}47.28%,47.5%{transform:scale(0.400,1)}47.52%,47.97%{transform:scale(0.500,1)}47.99%,48.45%{transform:scale(0.600,1)}48.47%,50.82%{transform:scale(0.700,1)}50.84%,62.22%{transform:scale(0.800,1)}62.24%,63.89%{transform:scale(0.900,1)}63.91%,100%{transform:scale(1.000,1)}}.u.u1{fill:var(--c2);animation-name:u1;transform-origin:488.7px 0}@keyframes u2{67.92%{transform:scale(0.000,1)}67.94%,71.72%{transform:scale(0.111,1)}71.74%,75.29%{transform:scale(0.222,1)}75.31%,76%{transform:scale(0.333,1)}76.02%,76.24%{transform:scale(0.444,1)}76.26%,77.19%{transform:scale(0.556,1)}77.21%,77.66%{transform:scale(0.667,1)}77.68%,78.14%{transform:scale(0.778,1)}78.16%,79.8%{transform:scale(0.889,1)}79.82%,100%{transform:scale(1.000,1)}}.u.u2{fill:var(--c3);animation-name:u2;transform-origin:632.4px 0}@keyframes u3{80.28%{transform:scale(0.000,1)}80.3%,80.51%{transform:scale(0.167,1)}80.53%,81.23%{transform:scale(0.333,1)}81.25%,81.7%{transform:scale(0.500,1)}81.72%,82.65%{transform:scale(0.667,1)}82.67%,90.73%{transform:scale(0.833,1)}90.75%,100%{transform:scale(1.000,1)}}.u.u3{fill:var(--c4);animation-name:u3;transform-origin:761.8px 0}.s{shape-rendering:geometricPrecision;fill:var(--cs);animation:none linear 42100ms infinite}@keyframes s0{0%,99.76%{transform:translate(0px,-16px)}0.24%{transform:translate(0px,0px)}0.71%{transform:translate(32px,0px)}0.95%,77.91%{transform:translate(32px,16px)}1.43%{transform:translate(0px,16px)}2.14%,79.57%{transform:translate(0px,64px)}2.38%{transform:translate(-16px,64px)}2.85%{transform:translate(-16px,96px)}3.09%{transform:translate(0px,96px)}3.33%{transform:translate(0px,112px)}4.04%{transform:translate(48px,112px)}4.51%{transform:translate(48px,80px)}4.75%{transform:translate(32px,80px)}4.99%{transform:translate(32px,64px)}5.23%,78.86%{transform:translate(48px,64px)}5.7%,78.38%{transform:translate(48px,32px)}6.18%{transform:translate(80px,32px)}6.65%,75.53%{transform:translate(80px,64px)}7.6%{transform:translate(144px,64px)}8.08%{transform:translate(144px,96px)}10.45%{transform:translate(304px,96px)}11.16%{transform:translate(304px,48px)}11.4%,71.26%{transform:translate(320px,48px)}11.88%{transform:translate(320px,16px)}12.35%{transform:translate(288px,16px)}12.59%{transform:translate(288px,0px)}14.73%{transform:translate(144px,0px)}14.96%{transform:translate(144px,16px)}19.95%{transform:translate(480px,16px)}20.19%{transform:translate(480px,32px)}20.67%{transform:translate(512px,32px)}21.14%{transform:translate(512px,0px)}21.62%{transform:translate(544px,0px)}21.85%{transform:translate(544px,16px)}22.09%{transform:translate(560px,16px)}22.8%{transform:translate(560px,64px)}23.04%{transform:translate(544px,64px)}23.28%{transform:translate(544px,80px)}23.99%{transform:translate(592px,80px)}24.23%{transform:translate(592px,64px)}25.89%{transform:translate(704px,64px)}26.13%{transform:translate(704px,48px)}26.6%{transform:translate(736px,48px)}27.08%{transform:translate(736px,80px)}27.55%,64.13%{transform:translate(768px,80px)}27.79%{transform:translate(768px,64px)}28.27%{transform:translate(800px,64px)}29.22%{transform:translate(800px,0px)}29.45%{transform:translate(784px,0px)}29.69%{transform:translate(784px,16px)}30.4%{transform:translate(832px,16px)}31.12%{transform:translate(832px,64px)}37.05%{transform:translate(432px,64px)}37.53%{transform:translate(432px,96px)}38.24%{transform:translate(480px,96px)}38.48%{transform:translate(480px,80px)}38.72%{transform:translate(496px,80px)}39.9%,89.31%{transform:translate(496px,0px)}42.52%{transform:translate(320px,0px)}43.47%{transform:translate(320px,64px)}47.27%,52.02%{transform:translate(64px,64px)}47.98%,77.43%{transform:translate(64px,16px)}48.69%{transform:translate(112px,16px)}49.41%,96.91%{transform:translate(112px,64px)}50.83%{transform:translate(16px,64px)}51.07%,80.05%{transform:translate(16px,80px)}51.78%{transform:translate(64px,80px)}61.76%{transform:translate(720px,64px)}62.23%{transform:translate(720px,32px)}63.18%{transform:translate(784px,32px)}63.9%{transform:translate(784px,80px)}64.61%{transform:translate(768px,48px)}71.73%{transform:translate(320px,80px)}75.3%{transform:translate(80px,80px)}75.77%,97.15%{transform:translate(96px,64px)}76.72%{transform:translate(96px,0px)}77.2%,98.57%{transform:translate(64px,0px)}78.15%,81.47%{transform:translate(32px,32px)}79.81%{transform:translate(0px,80px)}80.29%{transform:translate(16px,96px)}80.52%{transform:translate(32px,96px)}81.71%{transform:translate(16px,32px)}81.95%{transform:translate(16px,16px)}82.42%{transform:translate(48px,16px)}82.66%{transform:translate(48px,0px)}90.74%{transform:translate(496px,96px)}96.44%{transform:translate(112px,96px)}97.86%{transform:translate(96px,16px)}98.1%{transform:translate(80px,16px)}98.34%{transform:translate(80px,0px)}98.81%{transform:translate(64px,-16px)}}.s.s0{transform:translate(0px,-16px);animation-name:s0}@keyframes s1{0%,99.76%{transform:translate(16px,-16px)}0.24%{transform:translate(0px,-16px)}0.48%{transform:translate(0px,0px)}0.95%{transform:translate(32px,0px)}1.19%,78.15%{transform:translate(32px,16px)}1.66%{transform:translate(0px,16px)}2.38%,79.81%{transform:translate(0px,64px)}2.61%{transform:translate(-16px,64px)}3.09%{transform:translate(-16px,96px)}3.33%{transform:translate(0px,96px)}3.56%{transform:translate(0px,112px)}4.28%{transform:translate(48px,112px)}4.75%{transform:translate(48px,80px)}4.99%{transform:translate(32px,80px)}5.23%{transform:translate(32px,64px)}5.46%,79.1%{transform:translate(48px,64px)}5.94%,78.62%{transform:translate(48px,32px)}6.41%{transform:translate(80px,32px)}6.89%,75.77%{transform:translate(80px,64px)}7.84%{transform:translate(144px,64px)}8.31%{transform:translate(144px,96px)}10.69%{transform:translate(304px,96px)}11.4%{transform:translate(304px,48px)}11.64%,71.5%{transform:translate(320px,48px)}12.11%{transform:translate(320px,16px)}12.59%{transform:translate(288px,16px)}12.83%{transform:translate(288px,0px)}14.96%{transform:translate(144px,0px)}15.2%{transform:translate(144px,16px)}20.19%{transform:translate(480px,16px)}20.43%{transform:translate(480px,32px)}20.9%{transform:translate(512px,32px)}21.38%{transform:translate(512px,0px)}21.85%{transform:translate(544px,0px)}22.09%{transform:translate(544px,16px)}22.33%{transform:translate(560px,16px)}23.04%{transform:translate(560px,64px)}23.28%{transform:translate(544px,64px)}23.52%{transform:translate(544px,80px)}24.23%{transform:translate(592px,80px)}24.47%{transform:translate(592px,64px)}26.13%{transform:translate(704px,64px)}26.37%{transform:translate(704px,48px)}26.84%{transform:translate(736px,48px)}27.32%{transform:translate(736px,80px)}27.79%,64.37%{transform:translate(768px,80px)}28.03%{transform:translate(768px,64px)}28.5%{transform:translate(800px,64px)}29.45%{transform:translate(800px,0px)}29.69%{transform:translate(784px,0px)}29.93%{transform:translate(784px,16px)}30.64%{transform:translate(832px,16px)}31.35%{transform:translate(832px,64px)}37.29%{transform:translate(432px,64px)}37.77%{transform:translate(432px,96px)}38.48%{transform:translate(480px,96px)}38.72%{transform:translate(480px,80px)}38.95%{transform:translate(496px,80px)}40.14%,89.55%{transform:translate(496px,0px)}42.76%{transform:translate(320px,0px)}43.71%{transform:translate(320px,64px)}47.51%,52.26%{transform:translate(64px,64px)}48.22%,77.67%{transform:translate(64px,16px)}48.93%{transform:translate(112px,16px)}49.64%,97.15%{transform:translate(112px,64px)}51.07%{transform:translate(16px,64px)}51.31%,80.29%{transform:translate(16px,80px)}52.02%{transform:translate(64px,80px)}62%{transform:translate(720px,64px)}62.47%{transform:translate(720px,32px)}63.42%{transform:translate(784px,32px)}64.13%{transform:translate(784px,80px)}64.85%{transform:translate(768px,48px)}71.97%{transform:translate(320px,80px)}75.53%{transform:translate(80px,80px)}76.01%,97.39%{transform:translate(96px,64px)}76.96%{transform:translate(96px,0px)}77.43%,98.81%{transform:translate(64px,0px)}78.38%,81.71%{transform:translate(32px,32px)}80.05%{transform:translate(0px,80px)}80.52%{transform:translate(16px,96px)}80.76%{transform:translate(32px,96px)}81.95%{transform:translate(16px,32px)}82.19%{transform:translate(16px,16px)}82.66%{transform:translate(48px,16px)}82.9%{transform:translate(48px,0px)}90.97%{transform:translate(496px,96px)}96.67%{transform:translate(112px,96px)}98.1%{transform:translate(96px,16px)}98.34%{transform:translate(80px,16px)}98.57%{transform:translate(80px,0px)}99.05%{transform:translate(64px,-16px)}}.s.s1{transform:translate(16px,-16px);animation-name:s1}@keyframes s2{0%,99.76%{transform:translate(32px,-16px)}0.48%{transform:translate(0px,-16px)}0.71%{transform:translate(0px,0px)}1.19%{transform:translate(32px,0px)}1.43%,78.38%{transform:translate(32px,16px)}1.9%{transform:translate(0px,16px)}2.61%,80.05%{transform:translate(0px,64px)}2.85%{transform:translate(-16px,64px)}3.33%{transform:translate(-16px,96px)}3.56%{transform:translate(0px,96px)}3.8%{transform:translate(0px,112px)}4.51%{transform:translate(48px,112px)}4.99%{transform:translate(48px,80px)}5.23%{transform:translate(32px,80px)}5.46%{transform:translate(32px,64px)}5.7%,79.33%{transform:translate(48px,64px)}6.18%,78.86%{transform:translate(48px,32px)}6.65%{transform:translate(80px,32px)}7.13%,76.01%{transform:translate(80px,64px)}8.08%{transform:translate(144px,64px)}8.55%{transform:translate(144px,96px)}10.93%{transform:translate(304px,96px)}11.64%{transform:translate(304px,48px)}11.88%,71.73%{transform:translate(320px,48px)}12.35%{transform:translate(320px,16px)}12.83%{transform:translate(288px,16px)}13.06%{transform:translate(288px,0px)}15.2%{transform:translate(144px,0px)}15.44%{transform:translate(144px,16px)}20.43%{transform:translate(480px,16px)}20.67%{transform:translate(480px,32px)}21.14%{transform:translate(512px,32px)}21.62%{transform:translate(512px,0px)}22.09%{transform:translate(544px,0px)}22.33%{transform:translate(544px,16px)}22.57%{transform:translate(560px,16px)}23.28%{transform:translate(560px,64px)}23.52%{transform:translate(544px,64px)}23.75%{transform:translate(544px,80px)}24.47%{transform:translate(592px,80px)}24.7%{transform:translate(592px,64px)}26.37%{transform:translate(704px,64px)}26.6%{transform:translate(704px,48px)}27.08%{transform:translate(736px,48px)}27.55%{transform:translate(736px,80px)}28.03%,64.61%{transform:translate(768px,80px)}28.27%{transform:translate(768px,64px)}28.74%{transform:translate(800px,64px)}29.69%{transform:translate(800px,0px)}29.93%{transform:translate(784px,0px)}30.17%{transform:translate(784px,16px)}30.88%{transform:translate(832px,16px)}31.59%{transform:translate(832px,64px)}37.53%{transform:translate(432px,64px)}38%{transform:translate(432px,96px)}38.72%{transform:translate(480px,96px)}38.95%{transform:translate(480px,80px)}39.19%{transform:translate(496px,80px)}40.38%,89.79%{transform:translate(496px,0px)}42.99%{transform:translate(320px,0px)}43.94%{transform:translate(320px,64px)}47.74%,52.49%{transform:translate(64px,64px)}48.46%,77.91%{transform:translate(64px,16px)}49.17%{transform:translate(112px,16px)}49.88%,97.39%{transform:translate(112px,64px)}51.31%{transform:translate(16px,64px)}51.54%,80.52%{transform:translate(16px,80px)}52.26%{transform:translate(64px,80px)}62.23%{transform:translate(720px,64px)}62.71%{transform:translate(720px,32px)}63.66%{transform:translate(784px,32px)}64.37%{transform:translate(784px,80px)}65.08%{transform:translate(768px,48px)}72.21%{transform:translate(320px,80px)}75.77%{transform:translate(80px,80px)}76.25%,97.62%{transform:translate(96px,64px)}77.2%{transform:translate(96px,0px)}77.67%,99.05%{transform:translate(64px,0px)}78.62%,81.95%{transform:translate(32px,32px)}80.29%{transform:translate(0px,80px)}80.76%{transform:translate(16px,96px)}81%{transform:translate(32px,96px)}82.19%{transform:translate(16px,32px)}82.42%{transform:translate(16px,16px)}82.9%{transform:translate(48px,16px)}83.14%{transform:translate(48px,0px)}91.21%{transform:translate(496px,96px)}96.91%{transform:translate(112px,96px)}98.34%{transform:translate(96px,16px)}98.57%{transform:translate(80px,16px)}98.81%{transform:translate(80px,0px)}99.29%{transform:translate(64px,-16px)}}.s.s2{transform:translate(32px,-16px);animation-name:s2}@keyframes s3{0%,99.76%{transform:translate(48px,-16px)}0.71%{transform:translate(0px,-16px)}0.95%{transform:translate(0px,0px)}1.43%{transform:translate(32px,0px)}1.66%,78.62%{transform:translate(32px,16px)}2.14%{transform:translate(0px,16px)}2.85%,80.29%{transform:translate(0px,64px)}3.09%{transform:translate(-16px,64px)}3.56%{transform:translate(-16px,96px)}3.8%{transform:translate(0px,96px)}4.04%{transform:translate(0px,112px)}4.75%{transform:translate(48px,112px)}5.23%{transform:translate(48px,80px)}5.46%{transform:translate(32px,80px)}5.7%{transform:translate(32px,64px)}5.94%,79.57%{transform:translate(48px,64px)}6.41%,79.1%{transform:translate(48px,32px)}6.89%{transform:translate(80px,32px)}7.36%,76.25%{transform:translate(80px,64px)}8.31%{transform:translate(144px,64px)}8.79%{transform:translate(144px,96px)}11.16%{transform:translate(304px,96px)}11.88%{transform:translate(304px,48px)}12.11%,71.97%{transform:translate(320px,48px)}12.59%{transform:translate(320px,16px)}13.06%{transform:translate(288px,16px)}13.3%{transform:translate(288px,0px)}15.44%{transform:translate(144px,0px)}15.68%{transform:translate(144px,16px)}20.67%{transform:translate(480px,16px)}20.9%{transform:translate(480px,32px)}21.38%{transform:translate(512px,32px)}21.85%{transform:translate(512px,0px)}22.33%{transform:translate(544px,0px)}22.57%{transform:translate(544px,16px)}22.8%{transform:translate(560px,16px)}23.52%{transform:translate(560px,64px)}23.75%{transform:translate(544px,64px)}23.99%{transform:translate(544px,80px)}24.7%{transform:translate(592px,80px)}24.94%{transform:translate(592px,64px)}26.6%{transform:translate(704px,64px)}26.84%{transform:translate(704px,48px)}27.32%{transform:translate(736px,48px)}27.79%{transform:translate(736px,80px)}28.27%,64.85%{transform:translate(768px,80px)}28.5%{transform:translate(768px,64px)}28.98%{transform:translate(800px,64px)}29.93%{transform:translate(800px,0px)}30.17%{transform:translate(784px,0px)}30.4%{transform:translate(784px,16px)}31.12%{transform:translate(832px,16px)}31.83%{transform:translate(832px,64px)}37.77%{transform:translate(432px,64px)}38.24%{transform:translate(432px,96px)}38.95%{transform:translate(480px,96px)}39.19%{transform:translate(480px,80px)}39.43%{transform:translate(496px,80px)}40.62%,90.02%{transform:translate(496px,0px)}43.23%{transform:translate(320px,0px)}44.18%{transform:translate(320px,64px)}47.98%,52.73%{transform:translate(64px,64px)}48.69%,78.15%{transform:translate(64px,16px)}49.41%{transform:translate(112px,16px)}50.12%,97.62%{transform:translate(112px,64px)}51.54%{transform:translate(16px,64px)}51.78%,80.76%{transform:translate(16px,80px)}52.49%{transform:translate(64px,80px)}62.47%{transform:translate(720px,64px)}62.95%{transform:translate(720px,32px)}63.9%{transform:translate(784px,32px)}64.61%{transform:translate(784px,80px)}65.32%{transform:translate(768px,48px)}72.45%{transform:translate(320px,80px)}76.01%{transform:translate(80px,80px)}76.48%,97.86%{transform:translate(96px,64px)}77.43%{transform:translate(96px,0px)}77.91%,99.29%{transform:translate(64px,0px)}78.86%,82.19%{transform:translate(32px,32px)}80.52%{transform:translate(0px,80px)}81%{transform:translate(16px,96px)}81.24%{transform:translate(32px,96px)}82.42%{transform:translate(16px,32px)}82.66%{transform:translate(16px,16px)}83.14%{transform:translate(48px,16px)}83.37%{transform:translate(48px,0px)}91.45%{transform:translate(496px,96px)}97.15%{transform:translate(112px,96px)}98.57%{transform:translate(96px,16px)}98.81%{transform:translate(80px,16px)}99.05%{transform:translate(80px,0px)}99.52%{transform:translate(64px,-16px)}}.s.s3{transform:translate(48px,-16px);animation-name:s3}</style><rect class="c" x="2" y="2" rx="2" ry="2"/><rect class="c" x="2" y="18" rx="2" ry="2"/><rect class="c" x="2" y="34" rx="2" ry="2"/><rect class="c" x="2" y="50" rx="2" ry="2"/><rect class="c c0" x="2" y="66" rx="2" ry="2"/><rect class="c c1" x="2" y="82" rx="2" ry="2"/><rect class="c c2" x="2" y="98" rx="2" ry="2"/><rect class="c" x="18" y="2" rx="2" ry="2"/><rect class="c" x="18" y="18" rx="2" ry="2"/><rect class="c c3" x="18" y="34" rx="2" ry="2"/><rect class="c" x="18" y="50" rx="2" ry="2"/><rect class="c c4" x="18" y="66" rx="2" ry="2"/><rect class="c" x="18" y="82" rx="2" ry="2"/><rect class="c c5" x="18" y="98" rx="2" ry="2"/><rect class="c" x="34" y="2" rx="2" ry="2"/><rect class="c c6" x="34" y="18" rx="2" ry="2"/><rect class="c c7" x="34" y="34" rx="2" ry="2"/><rect class="c c8" x="34" y="50" rx="2" ry="2"/><rect class="c c9" x="34" y="66" rx="2" ry="2"/><rect class="c ca" x="34" y="82" rx="2" ry="2"/><rect class="c cb" x="34" y="98" rx="2" ry="2"/><rect class="c cc" x="50" y="2" rx="2" ry="2"/><rect class="c cd" x="50" y="18" rx="2" ry="2"/><rect class="c" x="50" y="34" rx="2" ry="2"/><rect class="c" x="50" y="50" rx="2" ry="2"/><rect class="c" x="50" y="66" rx="2" ry="2"/><rect class="c" x="50" y="82" rx="2" ry="2"/><rect class="c ce" x="50" y="98" rx="2" ry="2"/><rect class="c cf" x="66" y="2" rx="2" ry="2"/><rect class="c cg" x="66" y="18" rx="2" ry="2"/><rect class="c" x="66" y="34" rx="2" ry="2"/><rect class="c ch" x="66" y="50" rx="2" ry="2"/><rect class="c ci" x="66" y="66" rx="2" ry="2"/><rect class="c" x="66" y="82" rx="2" ry="2"/><rect class="c" x="66" y="98" rx="2" ry="2"/><rect class="c" x="82" y="2" rx="2" ry="2"/><rect class="c" x="82" y="18" rx="2" ry="2"/><rect class="c" x="82" y="34" rx="2" ry="2"/><rect class="c" x="82" y="50" rx="2" ry="2"/><rect class="c" x="82" y="66" rx="2" ry="2"/><rect class="c cj" x="82" y="82" rx="2" ry="2"/><rect class="c" x="82" y="98" rx="2" ry="2"/><rect class="c" x="98" y="2" rx="2" ry="2"/><rect class="c ck" x="98" y="18" rx="2" ry="2"/><rect class="c cl" x="98" y="34" rx="2" ry="2"/><rect class="c cm" x="98" y="50" rx="2" ry="2"/><rect class="c cn" x="98" y="66" rx="2" ry="2"/><rect class="c" x="98" y="82" rx="2" ry="2"/><rect class="c" x="98" y="98" rx="2" ry="2"/><rect class="c" x="114" y="2" rx="2" ry="2"/><rect class="c" x="114" y="18" rx="2" ry="2"/><rect class="c" x="114" y="34" rx="2" ry="2"/><rect class="c" x="114" y="50" rx="2" ry="2"/><rect class="c" x="114" y="66" rx="2" ry="2"/><rect class="c" x="114" y="82" rx="2" ry="2"/><rect class="c" x="114" y="98" rx="2" ry="2"/><rect class="c" x="130" y="2" rx="2" ry="2"/><rect class="c" x="130" y="18" rx="2" ry="2"/><rect class="c" x="130" y="34" rx="2" ry="2"/><rect class="c" x="130" y="50" rx="2" ry="2"/><rect class="c" x="130" y="66" rx="2" ry="2"/><rect class="c" x="130" y="82" rx="2" ry="2"/><rect class="c" x="130" y="98" rx="2" ry="2"/><rect class="c co" x="146" y="2" rx="2" ry="2"/><rect class="c" x="146" y="18" rx="2" ry="2"/><rect class="c" x="146" y="34" rx="2" ry="2"/><rect class="c" x="146" y="50" rx="2" ry="2"/><rect class="c" x="146" y="66" rx="2" ry="2"/><rect class="c cp" x="146" y="82" rx="2" ry="2"/><rect class="c cq" x="146" y="98" rx="2" ry="2"/><rect class="c cr" x="162" y="2" rx="2" ry="2"/><rect class="c" x="162" y="18" rx="2" ry="2"/><rect class="c" x="162" y="34" rx="2" ry="2"/><rect class="c" x="162" y="50" rx="2" ry="2"/><rect class="c" x="162" y="66" rx="2" ry="2"/><rect class="c" x="162" y="82" rx="2" ry="2"/><rect class="c cs" x="162" y="98" rx="2" ry="2"/><rect class="c" x="178" y="2" rx="2" ry="2"/><rect class="c" x="178" y="18" rx="2" ry="2"/><rect class="c" x="178" y="34" rx="2" ry="2"/><rect class="c" x="178" y="50" rx="2" ry="2"/><rect class="c" x="178" y="66" rx="2" ry="2"/><rect class="c" x="178" y="82" rx="2" ry="2"/><rect class="c" x="178" y="98" rx="2" ry="2"/><rect class="c" x="194" y="2" rx="2" ry="2"/><rect class="c" x="194" y="18" rx="2" ry="2"/><rect class="c" x="194" y="34" rx="2" ry="2"/><rect class="c" x="194" y="50" rx="2" ry="2"/><rect class="c" x="194" y="66" rx="2" ry="2"/><rect class="c" x="194" y="82" rx="2" ry="2"/><rect class="c" x="194" y="98" rx="2" ry="2"/><rect class="c" x="210" y="2" rx="2" ry="2"/><rect class="c" x="210" y="18" rx="2" ry="2"/><rect class="c" x="210" y="34" rx="2" ry="2"/><rect class="c" x="210" y="50" rx="2" ry="2"/><rect class="c" x="210" y="66" rx="2" ry="2"/><rect class="c" x="210" y="82" rx="2" ry="2"/><rect class="c" x="210" y="98" rx="2" ry="2"/><rect class="c" x="226" y="2" rx="2" ry="2"/><rect class="c" x="226" y="18" rx="2" ry="2"/><rect class="c" x="226" y="34" rx="2" ry="2"/><rect class="c" x="226" y="50" rx="2" ry="2"/><rect class="c" x="226" y="66" rx="2" ry="2"/><rect class="c" x="226" y="82" rx="2" ry="2"/><rect class="c ct" x="226" y="98" rx="2" ry="2"/><rect class="c" x="242" y="2" rx="2" ry="2"/><rect class="c" x="242" y="18" rx="2" ry="2"/><rect class="c" x="242" y="34" rx="2" ry="2"/><rect class="c" x="242" y="50" rx="2" ry="2"/><rect class="c" x="242" y="66" rx="2" ry="2"/><rect class="c" x="242" y="82" rx="2" ry="2"/><rect class="c" x="242" y="98" rx="2" ry="2"/><rect class="c" x="258" y="2" rx="2" ry="2"/><rect class="c" x="258" y="18" rx="2" ry="2"/><rect class="c" x="258" y="34" rx="2" ry="2"/><rect class="c" x="258" y="50" rx="2" ry="2"/><rect class="c" x="258" y="66" rx="2" ry="2"/><rect class="c" x="258" y="82" rx="2" ry="2"/><rect class="c" x="258" y="98" rx="2" ry="2"/><rect class="c" x="274" y="2" rx="2" ry="2"/><rect class="c" x="274" y="18" rx="2" ry="2"/><rect class="c" x="274" y="34" rx="2" ry="2"/><rect class="c" x="274" y="50" rx="2" ry="2"/><rect class="c" x="274" y="66" rx="2" ry="2"/><rect class="c" x="274" y="82" rx="2" ry="2"/><rect class="c" x="274" y="98" rx="2" ry="2"/><rect class="c" x="290" y="2" rx="2" ry="2"/><rect class="c cu" x="290" y="18" rx="2" ry="2"/><rect class="c" x="290" y="34" rx="2" ry="2"/><rect class="c" x="290" y="50" rx="2" ry="2"/><rect class="c" x="290" y="66" rx="2" ry="2"/><rect class="c" x="290" y="82" rx="2" ry="2"/><rect class="c" x="290" y="98" rx="2" ry="2"/><rect class="c" x="306" y="2" rx="2" ry="2"/><rect class="c" x="306" y="18" rx="2" ry="2"/><rect class="c" x="306" y="34" rx="2" ry="2"/><rect class="c cv" x="306" y="50" rx="2" ry="2"/><rect class="c" x="306" y="66" rx="2" ry="2"/><rect class="c" x="306" y="82" rx="2" ry="2"/><rect class="c" x="306" y="98" rx="2" ry="2"/><rect class="c" x="322" y="2" rx="2" ry="2"/><rect class="c" x="322" y="18" rx="2" ry="2"/><rect class="c cw" x="322" y="34" rx="2" ry="2"/><rect class="c" x="322" y="50" rx="2" ry="2"/><rect class="c cx" x="322" y="66" rx="2" ry="2"/><rect class="c cy" x="322" y="82" rx="2" ry="2"/><rect class="c" x="322" y="98" rx="2" ry="2"/><rect class="c" x="338" y="2" rx="2" ry="2"/><rect class="c" x="338" y="18" rx="2" ry="2"/><rect class="c" x="338" y="34" rx="2" ry="2"/><rect class="c" x="338" y="50" rx="2" ry="2"/><rect class="c" x="338" y="66" rx="2" ry="2"/><rect class="c" x="338" y="82" rx="2" ry="2"/><rect class="c" x="338" y="98" rx="2" ry="2"/><rect class="c" x="354" y="2" rx="2" ry="2"/><rect class="c" x="354" y="18" rx="2" ry="2"/><rect class="c" x="354" y="34" rx="2" ry="2"/><rect class="c" x="354" y="50" rx="2" ry="2"/><rect class="c" x="354" y="66" rx="2" ry="2"/><rect class="c" x="354" y="82" rx="2" ry="2"/><rect class="c" x="354" y="98" rx="2" ry="2"/><rect class="c" x="370" y="2" rx="2" ry="2"/><rect class="c" x="370" y="18" rx="2" ry="2"/><rect class="c" x="370" y="34" rx="2" ry="2"/><rect class="c" x="370" y="50" rx="2" ry="2"/><rect class="c" x="370" y="66" rx="2" ry="2"/><rect class="c" x="370" y="82" rx="2" ry="2"/><rect class="c" x="370" y="98" rx="2" ry="2"/><rect class="c" x="386" y="2" rx="2" ry="2"/><rect class="c" x="386" y="18" rx="2" ry="2"/><rect class="c" x="386" y="34" rx="2" ry="2"/><rect class="c" x="386" y="50" rx="2" ry="2"/><rect class="c" x="386" y="66" rx="2" ry="2"/><rect class="c" x="386" y="82" rx="2" ry="2"/><rect class="c" x="386" y="98" rx="2" ry="2"/><rect class="c" x="402" y="2" rx="2" ry="2"/><rect class="c" x="402" y="18" rx="2" ry="2"/><rect class="c" x="402" y="34" rx="2" ry="2"/><rect class="c" x="402" y="50" rx="2" ry="2"/><rect class="c" x="402" y="66" rx="2" ry="2"/><rect class="c" x="402" y="82" rx="2" ry="2"/><rect class="c" x="402" y="98" rx="2" ry="2"/><rect class="c" x="418" y="2" rx="2" ry="2"/><rect class="c" x="418" y="18" rx="2" ry="2"/><rect class="c" x="418" y="34" rx="2" ry="2"/><rect class="c" x="418" y="50" rx="2" ry="2"/><rect class="c" x="418" y="66" rx="2" ry="2"/><rect class="c" x="418" y="82" rx="2" ry="2"/><rect class="c" x="418" y="98" rx="2" ry="2"/><rect class="c" x="434" y="2" rx="2" ry="2"/><rect class="c" x="434" y="18" rx="2" ry="2"/><rect class="c" x="434" y="34" rx="2" ry="2"/><rect class="c" x="434" y="50" rx="2" ry="2"/><rect class="c" x="434" y="66" rx="2" ry="2"/><rect class="c" x="434" y="82" rx="2" ry="2"/><rect class="c cz" x="434" y="98" rx="2" ry="2"/><rect class="c" x="450" y="2" rx="2" ry="2"/><rect class="c" x="450" y="18" rx="2" ry="2"/><rect class="c" x="450" y="34" rx="2" ry="2"/><rect class="c" x="450" y="50" rx="2" ry="2"/><rect class="c" x="450" y="66" rx="2" ry="2"/><rect class="c" x="450" y="82" rx="2" ry="2"/><rect class="c" x="450" y="98" rx="2" ry="2"/><rect class="c" x="466" y="2" rx="2" ry="2"/><rect class="c" x="466" y="18" rx="2" ry="2"/><rect class="c" x="466" y="34" rx="2" ry="2"/><rect class="c" x="466" y="50" rx="2" ry="2"/><rect class="c" x="466" y="66" rx="2" ry="2"/><rect class="c" x="466" y="82" rx="2" ry="2"/><rect class="c" x="466" y="98" rx="2" ry="2"/><rect class="c c10" x="482" y="2" rx="2" ry="2"/><rect class="c" x="482" y="18" rx="2" ry="2"/><rect class="c c11" x="482" y="34" rx="2" ry="2"/><rect class="c" x="482" y="50" rx="2" ry="2"/><rect class="c" x="482" y="66" rx="2" ry="2"/><rect class="c" x="482" y="82" rx="2" ry="2"/><rect class="c" x="482" y="98" rx="2" ry="2"/><rect class="c" x="498" y="2" rx="2" ry="2"/><rect class="c" x="498" y="18" rx="2" ry="2"/><rect class="c" x="498" y="34" rx="2" ry="2"/><rect class="c" x="498" y="50" rx="2" ry="2"/><rect class="c" x="498" y="66" rx="2" ry="2"/><rect class="c c12" x="498" y="82" rx="2" ry="2"/><rect class="c c13" x="498" y="98" rx="2" ry="2"/><rect class="c c14" x="514" y="2" rx="2" ry="2"/><rect class="c c15" x="514" y="18" rx="2" ry="2"/><rect class="c" x="514" y="34" rx="2" ry="2"/><rect class="c" x="514" y="50" rx="2" ry="2"/><rect class="c" x="514" y="66" rx="2" ry="2"/><rect class="c" x="514" y="82" rx="2" ry="2"/><rect class="c" x="514" y="98" rx="2" ry="2"/><rect class="c" x="530" y="2" rx="2" ry="2"/><rect class="c" x="530" y="18" rx="2" ry="2"/><rect class="c" x="530" y="34" rx="2" ry="2"/><rect class="c" x="530" y="50" rx="2" ry="2"/><rect class="c" x="530" y="66" rx="2" ry="2"/><rect class="c" x="530" y="82" rx="2" ry="2"/><rect class="c" x="530" y="98" rx="2" ry="2"/><rect class="c c16" x="546" y="2" rx="2" ry="2"/><rect class="c c17" x="546" y="18" rx="2" ry="2"/><rect class="c" x="546" y="34" rx="2" ry="2"/><rect class="c c18" x="546" y="50" rx="2" ry="2"/><rect class="c c19" x="546" y="66" rx="2" ry="2"/><rect class="c" x="546" y="82" rx="2" ry="2"/><rect class="c" x="546" y="98" rx="2" ry="2"/><rect class="c" x="562" y="2" rx="2" ry="2"/><rect class="c" x="562" y="18" rx="2" ry="2"/><rect class="c" x="562" y="34" rx="2" ry="2"/><rect class="c" x="562" y="50" rx="2" ry="2"/><rect class="c" x="562" y="66" rx="2" ry="2"/><rect class="c" x="562" y="82" rx="2" ry="2"/><rect class="c" x="562" y="98" rx="2" ry="2"/><rect class="c" x="578" y="2" rx="2" ry="2"/><rect class="c" x="578" y="18" rx="2" ry="2"/><rect class="c" x="578" y="34" rx="2" ry="2"/><rect class="c" x="578" y="50" rx="2" ry="2"/><rect class="c" x="578" y="66" rx="2" ry="2"/><rect class="c" x="578" y="82" rx="2" ry="2"/><rect class="c" x="578" y="98" rx="2" ry="2"/><rect class="c" x="594" y="2" rx="2" ry="2"/><rect class="c" x="594" y="18" rx="2" ry="2"/><rect class="c" x="594" y="34" rx="2" ry="2"/><rect class="c" x="594" y="50" rx="2" ry="2"/><rect class="c c1a" x="594" y="66" rx="2" ry="2"/><rect class="c c1b" x="594" y="82" rx="2" ry="2"/><rect class="c" x="594" y="98" rx="2" ry="2"/><rect class="c" x="610" y="2" rx="2" ry="2"/><rect class="c" x="610" y="18" rx="2" ry="2"/><rect class="c" x="610" y="34" rx="2" ry="2"/><rect class="c" x="610" y="50" rx="2" ry="2"/><rect class="c" x="610" y="66" rx="2" ry="2"/><rect class="c" x="610" y="82" rx="2" ry="2"/><rect class="c" x="610" y="98" rx="2" ry="2"/><rect class="c" x="626" y="2" rx="2" ry="2"/><rect class="c" x="626" y="18" rx="2" ry="2"/><rect class="c" x="626" y="34" rx="2" ry="2"/><rect class="c" x="626" y="50" rx="2" ry="2"/><rect class="c" x="626" y="66" rx="2" ry="2"/><rect class="c" x="626" y="82" rx="2" ry="2"/><rect class="c" x="626" y="98" rx="2" ry="2"/><rect class="c" x="642" y="2" rx="2" ry="2"/><rect class="c" x="642" y="18" rx="2" ry="2"/><rect class="c" x="642" y="34" rx="2" ry="2"/><rect class="c" x="642" y="50" rx="2" ry="2"/><rect class="c" x="642" y="66" rx="2" ry="2"/><rect class="c" x="642" y="82" rx="2" ry="2"/><rect class="c" x="642" y="98" rx="2" ry="2"/><rect class="c" x="658" y="2" rx="2" ry="2"/><rect class="c" x="658" y="18" rx="2" ry="2"/><rect class="c" x="658" y="34" rx="2" ry="2"/><rect class="c" x="658" y="50" rx="2" ry="2"/><rect class="c" x="658" y="66" rx="2" ry="2"/><rect class="c" x="658" y="82" rx="2" ry="2"/><rect class="c" x="658" y="98" rx="2" ry="2"/><rect class="c" x="674" y="2" rx="2" ry="2"/><rect class="c" x="674" y="18" rx="2" ry="2"/><rect class="c" x="674" y="34" rx="2" ry="2"/><rect class="c" x="674" y="50" rx="2" ry="2"/><rect class="c" x="674" y="66" rx="2" ry="2"/><rect class="c" x="674" y="82" rx="2" ry="2"/><rect class="c" x="674" y="98" rx="2" ry="2"/><rect class="c" x="690" y="2" rx="2" ry="2"/><rect class="c" x="690" y="18" rx="2" ry="2"/><rect class="c" x="690" y="34" rx="2" ry="2"/><rect class="c" x="690" y="50" rx="2" ry="2"/><rect class="c" x="690" y="66" rx="2" ry="2"/><rect class="c" x="690" y="82" rx="2" ry="2"/><rect class="c" x="690" y="98" rx="2" ry="2"/><rect class="c" x="706" y="2" rx="2" ry="2"/><rect class="c" x="706" y="18" rx="2" ry="2"/><rect class="c" x="706" y="34" rx="2" ry="2"/><rect class="c c1c" x="706" y="50" rx="2" ry="2"/><rect class="c" x="706" y="66" rx="2" ry="2"/><rect class="c" x="706" y="82" rx="2" ry="2"/><rect class="c" x="706" y="98" rx="2" ry="2"/><rect class="c" x="722" y="2" rx="2" ry="2"/><rect class="c" x="722" y="18" rx="2" ry="2"/><rect class="c c1d" x="722" y="34" rx="2" ry="2"/><rect class="c c1e" x="722" y="50" rx="2" ry="2"/><rect class="c" x="722" y="66" rx="2" ry="2"/><rect class="c" x="722" y="82" rx="2" ry="2"/><rect class="c" x="722" y="98" rx="2" ry="2"/><rect class="c" x="738" y="2" rx="2" ry="2"/><rect class="c" x="738" y="18" rx="2" ry="2"/><rect class="c" x="738" y="34" rx="2" ry="2"/><rect class="c" x="738" y="50" rx="2" ry="2"/><rect class="c" x="738" y="66" rx="2" ry="2"/><rect class="c c1f" x="738" y="82" rx="2" ry="2"/><rect class="c" x="738" y="98" rx="2" ry="2"/><rect class="c" x="754" y="2" rx="2" ry="2"/><rect class="c" x="754" y="18" rx="2" ry="2"/><rect class="c" x="754" y="34" rx="2" ry="2"/><rect class="c" x="754" y="50" rx="2" ry="2"/><rect class="c" x="754" y="66" rx="2" ry="2"/><rect class="c" x="754" y="82" rx="2" ry="2"/><rect class="c" x="754" y="98" rx="2" ry="2"/><rect class="c" x="770" y="2" rx="2" ry="2"/><rect class="c" x="770" y="18" rx="2" ry="2"/><rect class="c" x="770" y="34" rx="2" ry="2"/><rect class="c" x="770" y="50" rx="2" ry="2"/><rect class="c" x="770" y="66" rx="2" ry="2"/><rect class="c c1g" x="770" y="82" rx="2" ry="2"/><rect class="c" x="770" y="98" rx="2" ry="2"/><rect class="c c1h" x="786" y="2" rx="2" ry="2"/><rect class="c" x="786" y="18" rx="2" ry="2"/><rect class="c" x="786" y="34" rx="2" ry="2"/><rect class="c" x="786" y="50" rx="2" ry="2"/><rect class="c" x="786" y="66" rx="2" ry="2"/><rect class="c c1i" x="786" y="82" rx="2" ry="2"/><rect class="c" x="786" y="98" rx="2" ry="2"/><rect class="c c1j" x="802" y="2" rx="2" ry="2"/><rect class="c c1k" x="802" y="18" rx="2" ry="2"/><rect class="c" x="802" y="34" rx="2" ry="2"/><rect class="c c1l" x="802" y="50" rx="2" ry="2"/><rect class="c" x="802" y="66" rx="2" ry="2"/><rect class="c" x="802" y="82" rx="2" ry="2"/><rect class="c" x="802" y="98" rx="2" ry="2"/><rect class="c" x="818" y="2" rx="2" ry="2"/><rect class="c" x="818" y="18" rx="2" ry="2"/><rect class="c" x="818" y="34" rx="2" ry="2"/><rect class="c" x="818" y="50" rx="2" ry="2"/><rect class="c" x="818" y="66" rx="2" ry="2"/><rect class="c" x="818" y="82" rx="2" ry="2"/><rect class="c" x="818" y="98" rx="2" ry="2"/><rect class="c" x="834" y="2" rx="2" ry="2"/><rect class="c" x="834" y="18" rx="2" ry="2"/><rect class="c" x="834" y="34" rx="2" ry="2"/><rect class="c" x="834" y="50" rx="2" ry="2"/><rect class="c c1m" x="834" y="66" rx="2" ry="2"/><rect class="c" x="834" y="82" rx="2" ry="2"/><rect class="u u0" height="12" width="489.3" x="0.0" y="144"/><rect class="u u1" height="12" width="144.3" x="488.7" y="144"/><rect class="u u2" height="12" width="130.0" x="632.4" y="144"/><rect class="u u3" height="12" width="86.8" x="761.8" y="144"/><rect class="s s0" x="0.8" y="0.8" width="14.4" height="14.4" rx="4.5" ry="4.5"/><rect class="s s1" x="1.8" y="1.8" width="12.3" height="12.3" rx="4.1" ry="4.1"/><rect class="s s2" x="2.6" y="2.6" width="10.8" height="10.8" rx="3.6" ry="3.6"/><rect class="s s3" x="3.0" y="3.0" width="9.9" height="9.9" rx="3.3" ry="3.3"/></svg>