<svg viewBox="-16 -32 880 192" width="880" height="192" xmlns="http://www.w3.org/2000/svg"><desc>Generated with https://github.com/Platane/snk</desc><style>:root{--cb:#1b1f230a;--cs:white;--ce:#0a0e12;--c0:#0a0e12;--c1:#1445a2;--c2:#1d65ee;--c3:#1f4eff;--c4:#466dff}.c{shape-rendering:geometricPrecision;fill:var(--ce);stroke-width:1px;stroke:var(--cb);animation:none 38500ms linear infinite;width:12px;height:12px}@keyframes c0{0.51%{fill:var(--c1)}0.53%,100%{fill:var(--ce)}}.c.c0{fill:var(--c1);animation-name:c0}@keyframes c1{30.12%{fill:var(--c1)}30.14%,100%{fill:var(--ce)}}.c.c1{fill:var(--c1);animation-name:c1}@keyframes c2{30.38%{fill:var(--c1)}30.4%,100%{fill:var(--ce)}}.c.c2{fill:var(--c1);animation-name:c2}@keyframes c3{1.03%{fill:var(--c1)}1.05%,100%{fill:var(--ce)}}.c.c3{fill:var(--c1);animation-name:c3}@keyframes c4{31.42%{fill:var(--c1)}31.44%,100%{fill:var(--ce)}}.c.c4{fill:var(--c1);animation-name:c4}@keyframes c5{31.68%{fill:var(--c1)}31.7%,100%{fill:var(--ce)}}.c.c5{fill:var(--c1);animation-name:c5}@keyframes c6{1.55%{fill:var(--c1)}1.57%,100%{fill:var(--ce)}}.c.c6{fill:var(--c1);animation-name:c6}@keyframes c7{29.34%{fill:var(--c1)}29.36%,100%{fill:var(--ce)}}.c.c7{fill:var(--c1);animation-name:c7}@keyframes c8{1.81%{fill:var(--c1)}1.83%,100%{fill:var(--ce)}}.c.c8{fill:var(--c1);animation-name:c8}@keyframes c9{69.08%{fill:var(--c2)}69.1%,100%{fill:var(--ce)}}.c.c9{fill:var(--c2);animation-name:c9}@keyframes ca{3.63%{fill:var(--c1)}3.65%,100%{fill:var(--ce)}}.c.ca{fill:var(--c1);animation-name:ca}@keyframes cb{4.15%{fill:var(--c1)}4.17%,100%{fill:var(--ce)}}.c.cb{fill:var(--c1);animation-name:cb}@keyframes cc{2.33%{fill:var(--c1)}2.35%,100%{fill:var(--ce)}}.c.cc{fill:var(--c1);animation-name:cc}@keyframes cd{3.11%{fill:var(--c1)}3.13%,100%{fill:var(--ce)}}.c.cd{fill:var(--c1);animation-name:cd}@keyframes ce{2.59%{fill:var(--c1)}2.61%,100%{fill:var(--ce)}}.c.ce{fill:var(--c1);animation-name:ce}@keyframes cf{67.52%{fill:var(--c2)}67.54%,100%{fill:var(--ce)}}.c.cf{fill:var(--c2);animation-name:cf}@keyframes cg{4.93%{fill:var(--c1)}4.95%,100%{fill:var(--ce)}}.c.cg{fill:var(--c1);animation-name:cg}@keyframes ch{5.44%{fill:var(--c1)}5.46%,100%{fill:var(--ce)}}.c.ch{fill:var(--c1);animation-name:ch}@keyframes ci{27.78%{fill:var(--c1)}27.8%,100%{fill:var(--ce)}}.c.ci{fill:var(--c1);animation-name:ci}@keyframes cj{5.7%{fill:var(--c1)}5.72%,100%{fill:var(--ce)}}.c.cj{fill:var(--c1);animation-name:cj}@keyframes ck{6.74%{fill:var(--c1)}6.76%,100%{fill:var(--ce)}}.c.ck{fill:var(--c1);animation-name:ck}@keyframes cl{5.96%{fill:var(--c1)}5.98%,100%{fill:var(--ce)}}.c.cl{fill:var(--c1);animation-name:cl}@keyframes cm{96.35%{fill:var(--c4)}96.37%,100%{fill:var(--ce)}}.c.cm{fill:var(--c4);animation-name:cm}@keyframes cn{27%{fill:var(--c1)}27.02%,100%{fill:var(--ce)}}.c.cn{fill:var(--c1);animation-name:cn}@keyframes co{6.48%{fill:var(--c1)}6.5%,100%{fill:var(--ce)}}.c.co{fill:var(--c1);animation-name:co}@keyframes cp{6.22%{fill:var(--c1)}6.24%,100%{fill:var(--ce)}}.c.cp{fill:var(--c1);animation-name:cp}@keyframes cq{71.42%{fill:var(--c3)}71.44%,100%{fill:var(--ce)}}.c.cq{fill:var(--c3);animation-name:cq}@keyframes cr{7.52%{fill:var(--c1)}7.54%,100%{fill:var(--ce)}}.c.cr{fill:var(--c1);animation-name:cr}@keyframes cs{9.34%{fill:var(--c1)}9.36%,100%{fill:var(--ce)}}.c.cs{fill:var(--c1);animation-name:cs}@keyframes ct{95.57%{fill:var(--c4)}95.59%,100%{fill:var(--ce)}}.c.ct{fill:var(--c4);animation-name:ct}@keyframes cu{8.3%{fill:var(--c1)}8.32%,100%{fill:var(--ce)}}.c.cu{fill:var(--c1);animation-name:cu}@keyframes cv{65.7%{fill:var(--c2)}65.72%,100%{fill:var(--ce)}}.c.cv{fill:var(--c2);animation-name:cv}@keyframes cw{9.86%{fill:var(--c1)}9.88%,100%{fill:var(--ce)}}.c.cw{fill:var(--c1);animation-name:cw}@keyframes cx{72.46%{fill:var(--c3)}72.48%,100%{fill:var(--ce)}}.c.cx{fill:var(--c3);animation-name:cx}@keyframes cy{65.18%{fill:var(--c2)}65.2%,100%{fill:var(--ce)}}.c.cy{fill:var(--c2);animation-name:cy}@keyframes cz{93.76%{fill:var(--c4)}93.78%,100%{fill:var(--ce)}}.c.cz{fill:var(--c4);animation-name:cz}@keyframes c10{25.18%{fill:var(--c1)}25.2%,100%{fill:var(--ce)}}.c.c10{fill:var(--c1);animation-name:c10}@keyframes c11{63.89%{fill:var(--c2)}63.91%,100%{fill:var(--ce)}}.c.c11{fill:var(--c2);animation-name:c11}@keyframes c12{92.72%{fill:var(--c4)}92.74%,100%{fill:var(--ce)}}.c.c12{fill:var(--c4);animation-name:c12}@keyframes c13{11.94%{fill:var(--c1)}11.96%,100%{fill:var(--ce)}}.c.c13{fill:var(--c1);animation-name:c13}@keyframes c14{11.68%{fill:var(--c1)}11.7%,100%{fill:var(--ce)}}.c.c14{fill:var(--c1);animation-name:c14}@keyframes c15{76.87%{fill:var(--c3)}76.89%,100%{fill:var(--ce)}}.c.c15{fill:var(--c3);animation-name:c15}@keyframes c16{73.5%{fill:var(--c3)}73.52%,100%{fill:var(--ce)}}.c.c16{fill:var(--c3);animation-name:c16}@keyframes c17{63.37%{fill:var(--c2)}63.39%,100%{fill:var(--ce)}}.c.c17{fill:var(--c2);animation-name:c17}@keyframes c18{11.16%{fill:var(--c1)}11.18%,100%{fill:var(--ce)}}.c.c18{fill:var(--c1);animation-name:c18}@keyframes c19{61.81%{fill:var(--c2)}61.83%,100%{fill:var(--ce)}}.c.c19{fill:var(--c2);animation-name:c19}@keyframes c1a{61.55%{fill:var(--c2)}61.57%,100%{fill:var(--ce)}}.c.c1a{fill:var(--c2);animation-name:c1a}@keyframes c1b{61.03%{fill:var(--c2)}61.05%,100%{fill:var(--ce)}}.c.c1b{fill:var(--c2);animation-name:c1b}@keyframes c1c{60.77%{fill:var(--c2)}60.79%,100%{fill:var(--ce)}}.c.c1c{fill:var(--c2);animation-name:c1c}@keyframes c1d{60.25%{fill:var(--c2)}60.27%,100%{fill:var(--ce)}}.c.c1d{fill:var(--c2);animation-name:c1d}@keyframes c1e{62.59%{fill:var(--c2)}62.61%,100%{fill:var(--ce)}}.c.c1e{fill:var(--c2);animation-name:c1e}@keyframes c1f{74.8%{fill:var(--c3)}74.82%,100%{fill:var(--ce)}}.c.c1f{fill:var(--c3);animation-name:c1f}@keyframes c1g{75.05%{fill:var(--c3)}75.07%,100%{fill:var(--ce)}}.c.c1g{fill:var(--c3);animation-name:c1g}@keyframes c1h{14.02%{fill:var(--c1)}14.04%,100%{fill:var(--ce)}}.c.c1h{fill:var(--c1);animation-name:c1h}@keyframes c1i{22.59%{fill:var(--c1)}22.61%,100%{fill:var(--ce)}}.c.c1i{fill:var(--c1);animation-name:c1i}@keyframes c1j{15.05%{fill:var(--c1)}15.07%,100%{fill:var(--ce)}}.c.c1j{fill:var(--c1);animation-name:c1j}@keyframes c1k{15.31%{fill:var(--c1)}15.33%,100%{fill:var(--ce)}}.c.c1k{fill:var(--c1);animation-name:c1k}@keyframes c1l{22.33%{fill:var(--c1)}22.35%,100%{fill:var(--ce)}}.c.c1l{fill:var(--c1);animation-name:c1l}@keyframes c1m{15.57%{fill:var(--c1)}15.59%,100%{fill:var(--ce)}}.c.c1m{fill:var(--c1);animation-name:c1m}@keyframes c1n{16.61%{fill:var(--c1)}16.63%,100%{fill:var(--ce)}}.c.c1n{fill:var(--c1);animation-name:c1n}@keyframes c1o{19.99%{fill:var(--c1)}20.01%,100%{fill:var(--ce)}}.c.c1o{fill:var(--c1);animation-name:c1o}@keyframes c1p{18.69%{fill:var(--c1)}18.71%,100%{fill:var(--ce)}}.c.c1p{fill:var(--c1);animation-name:c1p}@keyframes c1q{19.21%{fill:var(--c1)}19.23%,100%{fill:var(--ce)}}.c.c1q{fill:var(--c1);animation-name:c1q}@keyframes c1r{56.09%{fill:var(--c2)}56.11%,100%{fill:var(--ce)}}.c.c1r{fill:var(--c2);animation-name:c1r}@keyframes c1s{56.35%{fill:var(--c2)}56.37%,100%{fill:var(--ce)}}.c.c1s{fill:var(--c2);animation-name:c1s}@keyframes c1t{42.33%{fill:var(--c1)}42.35%,100%{fill:var(--ce)}}.c.c1t{fill:var(--c1);animation-name:c1t}@keyframes c1u{50.38%{fill:var(--c2)}50.4%,100%{fill:var(--ce)}}.c.c1u{fill:var(--c2);animation-name:c1u}@keyframes c1v{49.34%{fill:var(--c1)}49.36%,100%{fill:var(--ce)}}.c.c1v{fill:var(--c1);animation-name:c1v}@keyframes c1w{43.63%{fill:var(--c1)}43.65%,100%{fill:var(--ce)}}.c.c1w{fill:var(--c1);animation-name:c1w}@keyframes c1x{84.41%{fill:var(--c3)}84.43%,100%{fill:var(--ce)}}.c.c1x{fill:var(--c3);animation-name:c1x}@keyframes c1y{48.3%{fill:var(--c1)}48.32%,100%{fill:var(--ce)}}.c.c1y{fill:var(--c1);animation-name:c1y}@keyframes c1z{48.56%{fill:var(--c1)}48.58%,100%{fill:var(--ce)}}.c.c1z{fill:var(--c1);animation-name:c1z}@keyframes c20{47.78%{fill:var(--c1)}47.8%,100%{fill:var(--ce)}}.c.c20{fill:var(--c1);animation-name:c20}@keyframes c21{47.52%{fill:var(--c1)}47.54%,100%{fill:var(--ce)}}.c.c21{fill:var(--c1);animation-name:c21}@keyframes c22{52.2%{fill:var(--c2)}52.22%,100%{fill:var(--ce)}}.c.c22{fill:var(--c2);animation-name:c22}@keyframes c23{44.67%{fill:var(--c1)}44.69%,100%{fill:var(--ce)}}.c.c23{fill:var(--c1);animation-name:c23}@keyframes c24{45.44%{fill:var(--c1)}45.46%,100%{fill:var(--ce)}}.c.c24{fill:var(--c1);animation-name:c24}@keyframes c25{45.7%{fill:var(--c1)}45.72%,100%{fill:var(--ce)}}.c.c25{fill:var(--c1);animation-name:c25}.u{transform-origin:0 0;transform:scale(0,1);animation:none linear 38500ms infinite}@keyframes u0{0.51%{transform:scale(0.000,1)}0.53%,1.03%{transform:scale(0.020,1)}1.05%,1.55%{transform:scale(0.039,1)}1.57%,1.81%{transform:scale(0.059,1)}1.83%,2.33%{transform:scale(0.078,1)}2.35%,2.59%{transform:scale(0.098,1)}2.61%,3.11%{transform:scale(0.118,1)}3.13%,3.63%{transform:scale(0.137,1)}3.65%,4.15%{transform:scale(0.157,1)}4.17%,4.93%{transform:scale(0.176,1)}4.95%,5.44%{transform:scale(0.196,1)}5.46%,5.7%{transform:scale(0.216,1)}5.72%,5.96%{transform:scale(0.235,1)}5.98%,6.22%{transform:scale(0.255,1)}6.24%,6.48%{transform:scale(0.275,1)}6.5%,6.74%{transform:scale(0.294,1)}6.76%,7.52%{transform:scale(0.314,1)}7.54%,8.3%{transform:scale(0.333,1)}8.32%,9.34%{transform:scale(0.353,1)}9.36%,9.86%{transform:scale(0.373,1)}9.88%,11.16%{transform:scale(0.392,1)}11.18%,11.68%{transform:scale(0.412,1)}11.7%,11.94%{transform:scale(0.431,1)}11.96%,14.02%{transform:scale(0.451,1)}14.04%,15.05%{transform:scale(0.471,1)}15.07%,15.31%{transform:scale(0.490,1)}15.33%,15.57%{transform:scale(0.510,1)}15.59%,16.61%{transform:scale(0.529,1)}16.63%,18.69%{transform:scale(0.549,1)}18.71%,19.21%{transform:scale(0.569,1)}19.23%,19.99%{transform:scale(0.588,1)}20.01%,22.33%{transform:scale(0.608,1)}22.35%,22.59%{transform:scale(0.627,1)}22.61%,25.18%{transform:scale(0.647,1)}25.2%,27%{transform:scale(0.667,1)}27.02%,27.78%{transform:scale(0.686,1)}27.8%,29.34%{transform:scale(0.706,1)}29.36%,30.12%{transform:scale(0.725,1)}30.14%,30.38%{transform:scale(0.745,1)}30.4%,31.42%{transform:scale(0.765,1)}31.44%,31.68%{transform:scale(0.784,1)}31.7%,42.33%{transform:scale(0.804,1)}42.35%,43.63%{transform:scale(0.824,1)}43.65%,44.67%{transform:scale(0.843,1)}44.69%,45.44%{transform:scale(0.863,1)}45.46%,45.7%{transform:scale(0.882,1)}45.72%,47.52%{transform:scale(0.902,1)}47.54%,47.78%{transform:scale(0.922,1)}47.8%,48.3%{transform:scale(0.941,1)}48.32%,48.56%{transform:scale(0.961,1)}48.58%,49.34%{transform:scale(0.980,1)}49.36%,100%{transform:scale(1.000,1)}}.u.u0{fill:var(--c1);animation-name:u0;transform-origin:0.0px 0}@keyframes u1{50.38%{transform:scale(0.000,1)}50.4%,52.2%{transform:scale(0.063,1)}52.22%,56.09%{transform:scale(0.125,1)}56.11%,56.35%{transform:scale(0.188,1)}56.37%,60.25%{transform:scale(0.250,1)}60.27%,60.77%{transform:scale(0.313,1)}60.79%,61.03%{transform:scale(0.375,1)}61.05%,61.55%{transform:scale(0.438,1)}61.57%,61.81%{transform:scale(0.500,1)}61.83%,62.59%{transform:scale(0.563,1)}62.61%,63.37%{transform:scale(0.625,1)}63.39%,63.89%{transform:scale(0.688,1)}63.91%,65.18%{transform:scale(0.750,1)}65.2%,65.7%{transform:scale(0.813,1)}65.72%,67.52%{transform:scale(0.875,1)}67.54%,69.08%{transform:scale(0.938,1)}69.1%,100%{transform:scale(1.000,1)}}.u.u1{fill:var(--c2);animation-name:u1;transform-origin:554.5px 0}@keyframes u2{71.42%{transform:scale(0.000,1)}71.44%,72.46%{transform:scale(0.143,1)}72.48%,73.5%{transform:scale(0.286,1)}73.52%,74.8%{transform:scale(0.429,1)}74.82%,75.05%{transform:scale(0.571,1)}75.07%,76.87%{transform:scale(0.714,1)}76.89%,84.41%{transform:scale(0.857,1)}84.43%,100%{transform:scale(1.000,1)}}.u.u2{fill:var(--c3);animation-name:u2;transform-origin:728.4px 0}@keyframes u3{92.72%{transform:scale(0.000,1)}92.74%,93.76%{transform:scale(0.250,1)}93.78%,95.57%{transform:scale(0.500,1)}95.59%,96.35%{transform:scale(0.750,1)}96.37%,100%{transform:scale(1.000,1)}}.u.u3{fill:var(--c4);animation-name:u3;transform-origin:804.5px 0}.s{shape-rendering:geometricPrecision;fill:var(--cs);animation:none linear 38500ms infinite}@keyframes s0{0%,99.74%{transform:translate(0px,-16px)}0.26%{transform:translate(0px,0px)}2.08%{transform:translate(112px,0px)}2.34%{transform:translate(112px,16px)}2.6%,68.57%{transform:translate(128px,16px)}2.86%{transform:translate(128px,32px)}3.38%{transform:translate(96px,32px)}4.16%{transform:translate(96px,80px)}4.42%{transform:translate(112px,80px)}4.68%{transform:translate(112px,96px)}5.19%{transform:translate(144px,96px)}5.45%{transform:translate(144px,80px)}6.23%{transform:translate(192px,80px)}6.49%{transform:translate(192px,64px)}6.75%{transform:translate(176px,64px)}7.01%{transform:translate(176px,48px)}8.05%{transform:translate(240px,48px)}8.31%,65.45%{transform:translate(240px,64px)}8.83%{transform:translate(208px,64px)}9.35%{transform:translate(208px,96px)}9.87%,34.81%,94.03%{transform:translate(240px,96px)}10.13%,35.06%{transform:translate(240px,112px)}10.91%{transform:translate(288px,112px)}11.43%{transform:translate(288px,80px)}11.69%{transform:translate(272px,80px)}11.95%,76.36%{transform:translate(272px,64px)}12.21%,64.68%,76.1%{transform:translate(288px,64px)}12.73%,64.16%,72.99%{transform:translate(288px,32px)}13.25%{transform:translate(320px,32px)}13.77%,60.52%{transform:translate(320px,64px)}14.81%{transform:translate(384px,64px)}15.32%{transform:translate(384px,96px)}17.92%{transform:translate(544px,96px)}18.7%{transform:translate(544px,48px)}18.96%,55.84%{transform:translate(560px,48px)}19.48%{transform:translate(560px,16px)}20%{transform:translate(528px,16px)}20.26%{transform:translate(528px,0px)}22.6%{transform:translate(384px,0px)}22.86%{transform:translate(384px,-16px)}24.68%{transform:translate(272px,-16px)}25.19%,63.64%{transform:translate(272px,16px)}25.71%,95.32%{transform:translate(240px,16px)}25.97%{transform:translate(240px,32px)}26.75%{transform:translate(192px,32px)}27.01%{transform:translate(192px,16px)}27.27%,70.91%{transform:translate(176px,16px)}27.53%,70.65%{transform:translate(176px,0px)}29.09%{transform:translate(80px,0px)}29.35%{transform:translate(80px,16px)}30.13%{transform:translate(32px,16px)}30.39%{transform:translate(32px,32px)}30.65%{transform:translate(48px,32px)}31.69%{transform:translate(48px,96px)}42.08%{transform:translate(672px,112px)}42.34%{transform:translate(672px,96px)}43.12%{transform:translate(720px,96px)}43.38%{transform:translate(720px,80px)}44.42%{transform:translate(784px,80px)}44.68%{transform:translate(784px,64px)}45.45%{transform:translate(832px,64px)}45.71%{transform:translate(832px,80px)}45.97%{transform:translate(816px,80px)}47.01%{transform:translate(816px,16px)}47.53%,51.69%{transform:translate(784px,16px)}47.79%{transform:translate(784px,0px)}48.31%{transform:translate(752px,0px)}48.57%{transform:translate(752px,16px)}49.09%,50.65%{transform:translate(720px,16px)}49.35%{transform:translate(720px,32px)}49.61%{transform:translate(736px,32px)}50.13%{transform:translate(736px,0px)}50.39%{transform:translate(720px,0px)}52.21%{transform:translate(784px,48px)}56.36%{transform:translate(560px,80px)}60.26%{transform:translate(320px,80px)}60.78%{transform:translate(304px,64px)}61.82%{transform:translate(304px,0px)}62.34%,74.29%{transform:translate(336px,0px)}62.6%{transform:translate(336px,16px)}63.9%{transform:translate(272px,32px)}65.71%{transform:translate(240px,80px)}67.53%{transform:translate(128px,80px)}69.09%{transform:translate(96px,16px)}69.35%,97.92%{transform:translate(96px,0px)}71.43%{transform:translate(208px,16px)}71.69%{transform:translate(208px,32px)}73.51%{transform:translate(288px,0px)}75.06%{transform:translate(336px,48px)}75.84%{transform:translate(288px,48px)}76.88%{transform:translate(272px,96px)}84.42%{transform:translate(736px,96px)}85.19%{transform:translate(736px,48px)}92.99%{transform:translate(256px,48px)}93.77%{transform:translate(256px,96px)}95.58%{transform:translate(224px,16px)}95.84%{transform:translate(224px,0px)}98.18%{transform:translate(96px,-16px)}}.s.s0{transform:translate(0px,-16px);animation-name:s0}@keyframes s1{0%,99.74%{transform:translate(16px,-16px)}0.26%{transform:translate(0px,-16px)}0.52%{transform:translate(0px,0px)}2.34%{transform:translate(112px,0px)}2.6%{transform:translate(112px,16px)}2.86%,68.83%{transform:translate(128px,16px)}3.12%{transform:translate(128px,32px)}3.64%{transform:translate(96px,32px)}4.42%{transform:translate(96px,80px)}4.68%{transform:translate(112px,80px)}4.94%{transform:translate(112px,96px)}5.45%{transform:translate(144px,96px)}5.71%{transform:translate(144px,80px)}6.49%{transform:translate(192px,80px)}6.75%{transform:translate(192px,64px)}7.01%{transform:translate(176px,64px)}7.27%{transform:translate(176px,48px)}8.31%{transform:translate(240px,48px)}8.57%,65.71%{transform:translate(240px,64px)}9.09%{transform:translate(208px,64px)}9.61%{transform:translate(208px,96px)}10.13%,35.06%,94.29%{transform:translate(240px,96px)}10.39%,35.32%{transform:translate(240px,112px)}11.17%{transform:translate(288px,112px)}11.69%{transform:translate(288px,80px)}11.95%{transform:translate(272px,80px)}12.21%,76.62%{transform:translate(272px,64px)}12.47%,64.94%,76.36%{transform:translate(288px,64px)}12.99%,64.42%,73.25%{transform:translate(288px,32px)}13.51%{transform:translate(320px,32px)}14.03%,60.78%{transform:translate(320px,64px)}15.06%{transform:translate(384px,64px)}15.58%{transform:translate(384px,96px)}18.18%{transform:translate(544px,96px)}18.96%{transform:translate(544px,48px)}19.22%,56.1%{transform:translate(560px,48px)}19.74%{transform:translate(560px,16px)}20.26%{transform:translate(528px,16px)}20.52%{transform:translate(528px,0px)}22.86%{transform:translate(384px,0px)}23.12%{transform:translate(384px,-16px)}24.94%{transform:translate(272px,-16px)}25.45%,63.9%{transform:translate(272px,16px)}25.97%,95.58%{transform:translate(240px,16px)}26.23%{transform:translate(240px,32px)}27.01%{transform:translate(192px,32px)}27.27%{transform:translate(192px,16px)}27.53%,71.17%{transform:translate(176px,16px)}27.79%,70.91%{transform:translate(176px,0px)}29.35%{transform:translate(80px,0px)}29.61%{transform:translate(80px,16px)}30.39%{transform:translate(32px,16px)}30.65%{transform:translate(32px,32px)}30.91%{transform:translate(48px,32px)}31.95%{transform:translate(48px,96px)}42.34%{transform:translate(672px,112px)}42.6%{transform:translate(672px,96px)}43.38%{transform:translate(720px,96px)}43.64%{transform:translate(720px,80px)}44.68%{transform:translate(784px,80px)}44.94%{transform:translate(784px,64px)}45.71%{transform:translate(832px,64px)}45.97%{transform:translate(832px,80px)}46.23%{transform:translate(816px,80px)}47.27%{transform:translate(816px,16px)}47.79%,51.95%{transform:translate(784px,16px)}48.05%{transform:translate(784px,0px)}48.57%{transform:translate(752px,0px)}48.83%{transform:translate(752px,16px)}49.35%,50.91%{transform:translate(720px,16px)}49.61%{transform:translate(720px,32px)}49.87%{transform:translate(736px,32px)}50.39%{transform:translate(736px,0px)}50.65%{transform:translate(720px,0px)}52.47%{transform:translate(784px,48px)}56.62%{transform:translate(560px,80px)}60.52%{transform:translate(320px,80px)}61.04%{transform:translate(304px,64px)}62.08%{transform:translate(304px,0px)}62.6%,74.55%{transform:translate(336px,0px)}62.86%{transform:translate(336px,16px)}64.16%{transform:translate(272px,32px)}65.97%{transform:translate(240px,80px)}67.79%{transform:translate(128px,80px)}69.35%{transform:translate(96px,16px)}69.61%,98.18%{transform:translate(96px,0px)}71.69%{transform:translate(208px,16px)}71.95%{transform:translate(208px,32px)}73.77%{transform:translate(288px,0px)}75.32%{transform:translate(336px,48px)}76.1%{transform:translate(288px,48px)}77.14%{transform:translate(272px,96px)}84.68%{transform:translate(736px,96px)}85.45%{transform:translate(736px,48px)}93.25%{transform:translate(256px,48px)}94.03%{transform:translate(256px,96px)}95.84%{transform:translate(224px,16px)}96.1%{transform:translate(224px,0px)}98.44%{transform:translate(96px,-16px)}}.s.s1{transform:translate(16px,-16px);animation-name:s1}@keyframes s2{0%,99.74%{transform:translate(32px,-16px)}0.52%{transform:translate(0px,-16px)}0.78%{transform:translate(0px,0px)}2.6%{transform:translate(112px,0px)}2.86%{transform:translate(112px,16px)}3.12%,69.09%{transform:translate(128px,16px)}3.38%{transform:translate(128px,32px)}3.9%{transform:translate(96px,32px)}4.68%{transform:translate(96px,80px)}4.94%{transform:translate(112px,80px)}5.19%{transform:translate(112px,96px)}5.71%{transform:translate(144px,96px)}5.97%{transform:translate(144px,80px)}6.75%{transform:translate(192px,80px)}7.01%{transform:translate(192px,64px)}7.27%{transform:translate(176px,64px)}7.53%{transform:translate(176px,48px)}8.57%{transform:translate(240px,48px)}8.83%,65.97%{transform:translate(240px,64px)}9.35%{transform:translate(208px,64px)}9.87%{transform:translate(208px,96px)}10.39%,35.32%,94.55%{transform:translate(240px,96px)}10.65%,35.58%{transform:translate(240px,112px)}11.43%{transform:translate(288px,112px)}11.95%{transform:translate(288px,80px)}12.21%{transform:translate(272px,80px)}12.47%,76.88%{transform:translate(272px,64px)}12.73%,65.19%,76.62%{transform:translate(288px,64px)}13.25%,64.68%,73.51%{transform:translate(288px,32px)}13.77%{transform:translate(320px,32px)}14.29%,61.04%{transform:translate(320px,64px)}15.32%{transform:translate(384px,64px)}15.84%{transform:translate(384px,96px)}18.44%{transform:translate(544px,96px)}19.22%{transform:translate(544px,48px)}19.48%,56.36%{transform:translate(560px,48px)}20%{transform:translate(560px,16px)}20.52%{transform:translate(528px,16px)}20.78%{transform:translate(528px,0px)}23.12%{transform:translate(384px,0px)}23.38%{transform:translate(384px,-16px)}25.19%{transform:translate(272px,-16px)}25.71%,64.16%{transform:translate(272px,16px)}26.23%,95.84%{transform:translate(240px,16px)}26.49%{transform:translate(240px,32px)}27.27%{transform:translate(192px,32px)}27.53%{transform:translate(192px,16px)}27.79%,71.43%{transform:translate(176px,16px)}28.05%,71.17%{transform:translate(176px,0px)}29.61%{transform:translate(80px,0px)}29.87%{transform:translate(80px,16px)}30.65%{transform:translate(32px,16px)}30.91%{transform:translate(32px,32px)}31.17%{transform:translate(48px,32px)}32.21%{transform:translate(48px,96px)}42.6%{transform:translate(672px,112px)}42.86%{transform:translate(672px,96px)}43.64%{transform:translate(720px,96px)}43.9%{transform:translate(720px,80px)}44.94%{transform:translate(784px,80px)}45.19%{transform:translate(784px,64px)}45.97%{transform:translate(832px,64px)}46.23%{transform:translate(832px,80px)}46.49%{transform:translate(816px,80px)}47.53%{transform:translate(816px,16px)}48.05%,52.21%{transform:translate(784px,16px)}48.31%{transform:translate(784px,0px)}48.83%{transform:translate(752px,0px)}49.09%{transform:translate(752px,16px)}49.61%,51.17%{transform:translate(720px,16px)}49.87%{transform:translate(720px,32px)}50.13%{transform:translate(736px,32px)}50.65%{transform:translate(736px,0px)}50.91%{transform:translate(720px,0px)}52.73%{transform:translate(784px,48px)}56.88%{transform:translate(560px,80px)}60.78%{transform:translate(320px,80px)}61.3%{transform:translate(304px,64px)}62.34%{transform:translate(304px,0px)}62.86%,74.81%{transform:translate(336px,0px)}63.12%{transform:translate(336px,16px)}64.42%{transform:translate(272px,32px)}66.23%{transform:translate(240px,80px)}68.05%{transform:translate(128px,80px)}69.61%{transform:translate(96px,16px)}69.87%,98.44%{transform:translate(96px,0px)}71.95%{transform:translate(208px,16px)}72.21%{transform:translate(208px,32px)}74.03%{transform:translate(288px,0px)}75.58%{transform:translate(336px,48px)}76.36%{transform:translate(288px,48px)}77.4%{transform:translate(272px,96px)}84.94%{transform:translate(736px,96px)}85.71%{transform:translate(736px,48px)}93.51%{transform:translate(256px,48px)}94.29%{transform:translate(256px,96px)}96.1%{transform:translate(224px,16px)}96.36%{transform:translate(224px,0px)}98.7%{transform:translate(96px,-16px)}}.s.s2{transform:translate(32px,-16px);animation-name:s2}@keyframes s3{0%,99.74%{transform:translate(48px,-16px)}0.78%{transform:translate(0px,-16px)}1.04%{transform:translate(0px,0px)}2.86%{transform:translate(112px,0px)}3.12%{transform:translate(112px,16px)}3.38%,69.35%{transform:translate(128px,16px)}3.64%{transform:translate(128px,32px)}4.16%{transform:translate(96px,32px)}4.94%{transform:translate(96px,80px)}5.19%{transform:translate(112px,80px)}5.45%{transform:translate(112px,96px)}5.97%{transform:translate(144px,96px)}6.23%{transform:translate(144px,80px)}7.01%{transform:translate(192px,80px)}7.27%{transform:translate(192px,64px)}7.53%{transform:translate(176px,64px)}7.79%{transform:translate(176px,48px)}8.83%{transform:translate(240px,48px)}9.09%,66.23%{transform:translate(240px,64px)}9.61%{transform:translate(208px,64px)}10.13%{transform:translate(208px,96px)}10.65%,35.58%,94.81%{transform:translate(240px,96px)}10.91%,35.84%{transform:translate(240px,112px)}11.69%{transform:translate(288px,112px)}12.21%{transform:translate(288px,80px)}12.47%{transform:translate(272px,80px)}12.73%,77.14%{transform:translate(272px,64px)}12.99%,65.45%,76.88%{transform:translate(288px,64px)}13.51%,64.94%,73.77%{transform:translate(288px,32px)}14.03%{transform:translate(320px,32px)}14.55%,61.3%{transform:translate(320px,64px)}15.58%{transform:translate(384px,64px)}16.1%{transform:translate(384px,96px)}18.7%{transform:translate(544px,96px)}19.48%{transform:translate(544px,48px)}19.74%,56.62%{transform:translate(560px,48px)}20.26%{transform:translate(560px,16px)}20.78%{transform:translate(528px,16px)}21.04%{transform:translate(528px,0px)}23.38%{transform:translate(384px,0px)}23.64%{transform:translate(384px,-16px)}25.45%{transform:translate(272px,-16px)}25.97%,64.42%{transform:translate(272px,16px)}26.49%,96.1%{transform:translate(240px,16px)}26.75%{transform:translate(240px,32px)}27.53%{transform:translate(192px,32px)}27.79%{transform:translate(192px,16px)}28.05%,71.69%{transform:translate(176px,16px)}28.31%,71.43%{transform:translate(176px,0px)}29.87%{transform:translate(80px,0px)}30.13%{transform:translate(80px,16px)}30.91%{transform:translate(32px,16px)}31.17%{transform:translate(32px,32px)}31.43%{transform:translate(48px,32px)}32.47%{transform:translate(48px,96px)}42.86%{transform:translate(672px,112px)}43.12%{transform:translate(672px,96px)}43.9%{transform:translate(720px,96px)}44.16%{transform:translate(720px,80px)}45.19%{transform:translate(784px,80px)}45.45%{transform:translate(784px,64px)}46.23%{transform:translate(832px,64px)}46.49%{transform:translate(832px,80px)}46.75%{transform:translate(816px,80px)}47.79%{transform:translate(816px,16px)}48.31%,52.47%{transform:translate(784px,16px)}48.57%{transform:translate(784px,0px)}49.09%{transform:translate(752px,0px)}49.35%{transform:translate(752px,16px)}49.87%,51.43%{transform:translate(720px,16px)}50.13%{transform:translate(720px,32px)}50.39%{transform:translate(736px,32px)}50.91%{transform:translate(736px,0px)}51.17%{transform:translate(720px,0px)}52.99%{transform:translate(784px,48px)}57.14%{transform:translate(560px,80px)}61.04%{transform:translate(320px,80px)}61.56%{transform:translate(304px,64px)}62.6%{transform:translate(304px,0px)}63.12%,75.06%{transform:translate(336px,0px)}63.38%{transform:translate(336px,16px)}64.68%{transform:translate(272px,32px)}66.49%{transform:translate(240px,80px)}68.31%{transform:translate(128px,80px)}69.87%{transform:translate(96px,16px)}70.13%,98.7%{transform:translate(96px,0px)}72.21%{transform:translate(208px,16px)}72.47%{transform:translate(208px,32px)}74.29%{transform:translate(288px,0px)}75.84%{transform:translate(336px,48px)}76.62%{transform:translate(288px,48px)}77.66%{transform:translate(272px,96px)}85.19%{transform:translate(736px,96px)}85.97%{transform:translate(736px,48px)}93.77%{transform:translate(256px,48px)}94.55%{transform:translate(256px,96px)}96.36%{transform:translate(224px,16px)}96.62%{transform:translate(224px,0px)}98.96%{transform:translate(96px,-16px)}}.s.s3{transform:translate(48px,-16px);animation-name:s3}</style><rect class="c" x="2" y="2" rx="2" ry="2"/><rect class="c" x="2" y="18" rx="2" ry="2"/><rect class="c" x="2" y="34" rx="2" ry="2"/><rect class="c" x="2" y="50" rx="2" ry="2"/><rect class="c" x="2" y="66" rx="2" ry="2"/><rect class="c" x="2" y="82" rx="2" ry="2"/><rect class="c" x="2" y="98" rx="2" ry="2"/><rect class="c c0" x="18" y="2" rx="2" ry="2"/><rect class="c" x="18" y="18" rx="2" ry="2"/><rect class="c" x="18" y="34" rx="2" ry="2"/><rect class="c" x="18" y="50" rx="2" ry="2"/><rect class="c" x="18" y="66" rx="2" ry="2"/><rect class="c" x="18" y="82" rx="2" ry="2"/><rect class="c" x="18" y="98" rx="2" ry="2"/><rect class="c" x="34" y="2" rx="2" ry="2"/><rect class="c c1" x="34" y="18" rx="2" ry="2"/><rect class="c c2" x="34" y="34" rx="2" ry="2"/><rect class="c" x="34" y="50" rx="2" ry="2"/><rect class="c" x="34" y="66" rx="2" ry="2"/><rect class="c" x="34" y="82" rx="2" ry="2"/><rect class="c" x="34" y="98" rx="2" ry="2"/><rect class="c c3" x="50" y="2" rx="2" ry="2"/><rect class="c" x="50" y="18" rx="2" ry="2"/><rect class="c" x="50" y="34" rx="2" ry="2"/><rect class="c" x="50" y="50" rx="2" ry="2"/><rect class="c" x="50" y="66" rx="2" ry="2"/><rect class="c c4" x="50" y="82" rx="2" ry="2"/><rect class="c c5" x="50" y="98" rx="2" ry="2"/><rect class="c" x="66" y="2" rx="2" ry="2"/><rect class="c" x="66" y="18" rx="2" ry="2"/><rect class="c" x="66" y="34" rx="2" ry="2"/><rect class="c" x="66" y="50" rx="2" ry="2"/><rect class="c" x="66" y="66" rx="2" ry="2"/><rect class="c" x="66" y="82" rx="2" ry="2"/><rect class="c" x="66" y="98" rx="2" ry="2"/><rect class="c c6" x="82" y="2" rx="2" ry="2"/><rect class="c c7" x="82" y="18" rx="2" ry="2"/><rect class="c" x="82" y="34" rx="2" ry="2"/><rect class="c" x="82" y="50" rx="2" ry="2"/><rect class="c" x="82" y="66" rx="2" ry="2"/><rect class="c" x="82" y="82" rx="2" ry="2"/><rect class="c" x="82" y="98" rx="2" ry="2"/><rect class="c c8" x="98" y="2" rx="2" ry="2"/><rect class="c c9" x="98" y="18" rx="2" ry="2"/><rect class="c" x="98" y="34" rx="2" ry="2"/><rect class="c ca" x="98" y="50" rx="2" ry="2"/><rect class="c" x="98" y="66" rx="2" ry="2"/><rect class="c cb" x="98" y="82" rx="2" ry="2"/><rect class="c" x="98" y="98" rx="2" ry="2"/><rect class="c" x="114" y="2" rx="2" ry="2"/><rect class="c cc" x="114" y="18" rx="2" ry="2"/><rect class="c cd" x="114" y="34" rx="2" ry="2"/><rect class="c" x="114" y="50" rx="2" ry="2"/><rect class="c" x="114" y="66" rx="2" ry="2"/><rect class="c" x="114" y="82" rx="2" ry="2"/><rect class="c" x="114" y="98" rx="2" ry="2"/><rect class="c" x="130" y="2" rx="2" ry="2"/><rect class="c ce" x="130" y="18" rx="2" ry="2"/><rect class="c" x="130" y="34" rx="2" ry="2"/><rect class="c" x="130" y="50" rx="2" ry="2"/><rect class="c" x="130" y="66" rx="2" ry="2"/><rect class="c cf" x="130" y="82" rx="2" ry="2"/><rect class="c cg" x="130" y="98" rx="2" ry="2"/><rect class="c" x="146" y="2" rx="2" ry="2"/><rect class="c" x="146" y="18" rx="2" ry="2"/><rect class="c" x="146" y="34" rx="2" ry="2"/><rect class="c" x="146" y="50" rx="2" ry="2"/><rect class="c" x="146" y="66" rx="2" ry="2"/><rect class="c ch" x="146" y="82" rx="2" ry="2"/><rect class="c" x="146" y="98" rx="2" ry="2"/><rect class="c ci" x="162" y="2" rx="2" ry="2"/><rect class="c" x="162" y="18" rx="2" ry="2"/><rect class="c" x="162" y="34" rx="2" ry="2"/><rect class="c" x="162" y="50" rx="2" ry="2"/><rect class="c" x="162" y="66" rx="2" ry="2"/><rect class="c cj" x="162" y="82" rx="2" ry="2"/><rect class="c" x="162" y="98" rx="2" ry="2"/><rect class="c" x="178" y="2" rx="2" ry="2"/><rect class="c" x="178" y="18" rx="2" ry="2"/><rect class="c" x="178" y="34" rx="2" ry="2"/><rect class="c" x="178" y="50" rx="2" ry="2"/><rect class="c ck" x="178" y="66" rx="2" ry="2"/><rect class="c cl" x="178" y="82" rx="2" ry="2"/><rect class="c" x="178" y="98" rx="2" ry="2"/><rect class="c cm" x="194" y="2" rx="2" ry="2"/><rect class="c cn" x="194" y="18" rx="2" ry="2"/><rect class="c" x="194" y="34" rx="2" ry="2"/><rect class="c" x="194" y="50" rx="2" ry="2"/><rect class="c co" x="194" y="66" rx="2" ry="2"/><rect class="c cp" x="194" y="82" rx="2" ry="2"/><rect class="c" x="194" y="98" rx="2" ry="2"/><rect class="c" x="210" y="2" rx="2" ry="2"/><rect class="c cq" x="210" y="18" rx="2" ry="2"/><rect class="c" x="210" y="34" rx="2" ry="2"/><rect class="c cr" x="210" y="50" rx="2" ry="2"/><rect class="c" x="210" y="66" rx="2" ry="2"/><rect class="c" x="210" y="82" rx="2" ry="2"/><rect class="c cs" x="210" y="98" rx="2" ry="2"/><rect class="c" x="226" y="2" rx="2" ry="2"/><rect class="c ct" x="226" y="18" rx="2" ry="2"/><rect class="c" x="226" y="34" rx="2" ry="2"/><rect class="c" x="226" y="50" rx="2" ry="2"/><rect class="c" x="226" y="66" rx="2" ry="2"/><rect class="c" x="226" y="82" rx="2" ry="2"/><rect class="c" x="226" y="98" rx="2" ry="2"/><rect class="c" x="242" y="2" rx="2" ry="2"/><rect class="c" x="242" y="18" rx="2" ry="2"/><rect class="c" x="242" y="34" rx="2" ry="2"/><rect class="c" x="242" y="50" rx="2" ry="2"/><rect class="c cu" x="242" y="66" rx="2" ry="2"/><rect class="c cv" x="242" y="82" rx="2" ry="2"/><rect class="c cw" x="242" y="98" rx="2" ry="2"/><rect class="c" x="258" y="2" rx="2" ry="2"/><rect class="c" x="258" y="18" rx="2" ry="2"/><rect class="c cx" x="258" y="34" rx="2" ry="2"/><rect class="c" x="258" y="50" rx="2" ry="2"/><rect class="c cy" x="258" y="66" rx="2" ry="2"/><rect class="c" x="258" y="82" rx="2" ry="2"/><rect class="c cz" x="258" y="98" rx="2" ry="2"/><rect class="c" x="274" y="2" rx="2" ry="2"/><rect class="c c10" x="274" y="18" rx="2" ry="2"/><rect class="c c11" x="274" y="34" rx="2" ry="2"/><rect class="c c12" x="274" y="50" rx="2" ry="2"/><rect class="c c13" x="274" y="66" rx="2" ry="2"/><rect class="c c14" x="274" y="82" rx="2" ry="2"/><rect class="c c15" x="274" y="98" rx="2" ry="2"/><rect class="c c16" x="290" y="2" rx="2" ry="2"/><rect class="c c17" x="290" y="18" rx="2" ry="2"/><rect class="c" x="290" y="34" rx="2" ry="2"/><rect class="c" x="290" y="50" rx="2" ry="2"/><rect class="c" x="290" y="66" rx="2" ry="2"/><rect class="c" x="290" y="82" rx="2" ry="2"/><rect class="c c18" x="290" y="98" rx="2" ry="2"/><rect class="c c19" x="306" y="2" rx="2" ry="2"/><rect class="c c1a" x="306" y="18" rx="2" ry="2"/><rect class="c" x="306" y="34" rx="2" ry="2"/><rect class="c c1b" x="306" y="50" rx="2" ry="2"/><rect class="c c1c" x="306" y="66" rx="2" ry="2"/><rect class="c" x="306" y="82" rx="2" ry="2"/><rect class="c" x="306" y="98" rx="2" ry="2"/><rect class="c" x="322" y="2" rx="2" ry="2"/><rect class="c" x="322" y="18" rx="2" ry="2"/><rect class="c" x="322" y="34" rx="2" ry="2"/><rect class="c" x="322" y="50" rx="2" ry="2"/><rect class="c" x="322" y="66" rx="2" ry="2"/><rect class="c c1d" x="322" y="82" rx="2" ry="2"/><rect class="c" x="322" y="98" rx="2" ry="2"/><rect class="c" x="338" y="2" rx="2" ry="2"/><rect class="c c1e" x="338" y="18" rx="2" ry="2"/><rect class="c c1f" x="338" y="34" rx="2" ry="2"/><rect class="c c1g" x="338" y="50" rx="2" ry="2"/><rect class="c c1h" x="338" y="66" rx="2" ry="2"/><rect class="c" x="338" y="82" rx="2" ry="2"/><rect class="c" x="338" y="98" rx="2" ry="2"/><rect class="c" x="354" y="2" rx="2" ry="2"/><rect class="c" x="354" y="18" rx="2" ry="2"/><rect class="c" x="354" y="34" rx="2" ry="2"/><rect class="c" x="354" y="50" rx="2" ry="2"/><rect class="c" x="354" y="66" rx="2" ry="2"/><rect class="c" x="354" y="82" rx="2" ry="2"/><rect class="c" x="354" y="98" rx="2" ry="2"/><rect class="c" x="370" y="2" rx="2" ry="2"/><rect class="c" x="370" y="18" rx="2" ry="2"/><rect class="c" x="370" y="34" rx="2" ry="2"/><rect class="c" x="370" y="50" rx="2" ry="2"/><rect class="c" x="370" y="66" rx="2" ry="2"/><rect class="c" x="370" y="82" rx="2" ry="2"/><rect class="c" x="370" y="98" rx="2" ry="2"/><rect class="c c1i" x="386" y="2" rx="2" ry="2"/><rect class="c" x="386" y="18" rx="2" ry="2"/><rect class="c" x="386" y="34" rx="2" ry="2"/><rect class="c" x="386" y="50" rx="2" ry="2"/><rect class="c" x="386" y="66" rx="2" ry="2"/><rect class="c c1j" x="386" y="82" rx="2" ry="2"/><rect class="c c1k" x="386" y="98" rx="2" ry="2"/><rect class="c c1l" x="402" y="2" rx="2" ry="2"/><rect class="c" x="402" y="18" rx="2" ry="2"/><rect class="c" x="402" y="34" rx="2" ry="2"/><rect class="c" x="402" y="50" rx="2" ry="2"/><rect class="c" x="402" y="66" rx="2" ry="2"/><rect class="c" x="402" y="82" rx="2" ry="2"/><rect class="c c1m" x="402" y="98" rx="2" ry="2"/><rect class="c" x="418" y="2" rx="2" ry="2"/><rect class="c" x="418" y="18" rx="2" ry="2"/><rect class="c" x="418" y="34" rx="2" ry="2"/><rect class="c" x="418" y="50" rx="2" ry="2"/><rect class="c" x="418" y="66" rx="2" ry="2"/><rect class="c" x="418" y="82" rx="2" ry="2"/><rect class="c" x="418" y="98" rx="2" ry="2"/><rect class="c" x="434" y="2" rx="2" ry="2"/><rect class="c" x="434" y="18" rx="2" ry="2"/><rect class="c" x="434" y="34" rx="2" ry="2"/><rect class="c" x="434" y="50" rx="2" ry="2"/><rect class="c" x="434" y="66" rx="2" ry="2"/><rect class="c" x="434" y="82" rx="2" ry="2"/><rect class="c" x="434" y="98" rx="2" ry="2"/><rect class="c" x="450" y="2" rx="2" ry="2"/><rect class="c" x="450" y="18" rx="2" ry="2"/><rect class="c" x="450" y="34" rx="2" ry="2"/><rect class="c" x="450" y="50" rx="2" ry="2"/><rect class="c" x="450" y="66" rx="2" ry="2"/><rect class="c" x="450" y="82" rx="2" ry="2"/><rect class="c" x="450" y="98" rx="2" ry="2"/><rect class="c" x="466" y="2" rx="2" ry="2"/><rect class="c" x="466" y="18" rx="2" ry="2"/><rect class="c" x="466" y="34" rx="2" ry="2"/><rect class="c" x="466" y="50" rx="2" ry="2"/><rect class="c" x="466" y="66" rx="2" ry="2"/><rect class="c" x="466" y="82" rx="2" ry="2"/><rect class="c c1n" x="466" y="98" rx="2" ry="2"/><rect class="c" x="482" y="2" rx="2" ry="2"/><rect class="c" x="482" y="18" rx="2" ry="2"/><rect class="c" x="482" y="34" rx="2" ry="2"/><rect class="c" x="482" y="50" rx="2" ry="2"/><rect class="c" x="482" y="66" rx="2" ry="2"/><rect class="c" x="482" y="82" rx="2" ry="2"/><rect class="c" x="482" y="98" rx="2" ry="2"/><rect class="c" x="498" y="2" rx="2" ry="2"/><rect class="c" x="498" y="18" rx="2" ry="2"/><rect class="c" x="498" y="34" rx="2" ry="2"/><rect class="c" x="498" y="50" rx="2" ry="2"/><rect class="c" x="498" y="66" rx="2" ry="2"/><rect class="c" x="498" y="82" rx="2" ry="2"/><rect class="c" x="498" y="98" rx="2" ry="2"/><rect class="c" x="514" y="2" rx="2" ry="2"/><rect class="c" x="514" y="18" rx="2" ry="2"/><rect class="c" x="514" y="34" rx="2" ry="2"/><rect class="c" x="514" y="50" rx="2" ry="2"/><rect class="c" x="514" y="66" rx="2" ry="2"/><rect class="c" x="514" y="82" rx="2" ry="2"/><rect class="c" x="514" y="98" rx="2" ry="2"/><rect class="c" x="530" y="2" rx="2" ry="2"/><rect class="c c1o" x="530" y="18" rx="2" ry="2"/><rect class="c" x="530" y="34" rx="2" ry="2"/><rect class="c" x="530" y="50" rx="2" ry="2"/><rect class="c" x="530" y="66" rx="2" ry="2"/><rect class="c" x="530" y="82" rx="2" ry="2"/><rect class="c" x="530" y="98" rx="2" ry="2"/><rect class="c" x="546" y="2" rx="2" ry="2"/><rect class="c" x="546" y="18" rx="2" ry="2"/><rect class="c" x="546" y="34" rx="2" ry="2"/><rect class="c c1p" x="546" y="50" rx="2" ry="2"/><rect class="c" x="546" y="66" rx="2" ry="2"/><rect class="c" x="546" y="82" rx="2" ry="2"/><rect class="c" x="546" y="98" rx="2" ry="2"/><rect class="c" x="562" y="2" rx="2" ry="2"/><rect class="c" x="562" y="18" rx="2" ry="2"/><rect class="c c1q" x="562" y="34" rx="2" ry="2"/><rect class="c" x="562" y="50" rx="2" ry="2"/><rect class="c c1r" x="562" y="66" rx="2" ry="2"/><rect class="c c1s" x="562" y="82" rx="2" ry="2"/><rect class="c" x="562" y="98" rx="2" ry="2"/><rect class="c" x="578" y="2" rx="2" ry="2"/><rect class="c" x="578" y="18" rx="2" ry="2"/><rect class="c" x="578" y="34" rx="2" ry="2"/><rect class="c" x="578" y="50" rx="2" ry="2"/><rect class="c" x="578" y="66" rx="2" ry="2"/><rect class="c" x="578" y="82" rx="2" ry="2"/><rect class="c" x="578" y="98" rx="2" ry="2"/><rect class="c" x="594" y="2" rx="2" ry="2"/><rect class="c" x="594" y="18" rx="2" ry="2"/><rect class="c" x="594" y="34" rx="2" ry="2"/><rect class="c" x="594" y="50" rx="2" ry="2"/><rect class="c" x="594" y="66" rx="2" ry="2"/><rect class="c" x="594" y="82" rx="2" ry="2"/><rect class="c" x="594" y="98" rx="2" ry="2"/><rect class="c" x="610" y="2" rx="2" ry="2"/><rect class="c" x="610" y="18" rx="2" ry="2"/><rect class="c" x="610" y="34" rx="2" ry="2"/><rect class="c" x="610" y="50" rx="2" ry="2"/><rect class="c" x="610" y="66" rx="2" ry="2"/><rect class="c" x="610" y="82" rx="2" ry="2"/><rect class="c" x="610" y="98" rx="2" ry="2"/><rect class="c" x="626" y="2" rx="2" ry="2"/><rect class="c" x="626" y="18" rx="2" ry="2"/><rect class="c" x="626" y="34" rx="2" ry="2"/><rect class="c" x="626" y="50" rx="2" ry="2"/><rect class="c" x="626" y="66" rx="2" ry="2"/><rect class="c" x="626" y="82" rx="2" ry="2"/><rect class="c" x="626" y="98" rx="2" ry="2"/><rect class="c" x="642" y="2" rx="2" ry="2"/><rect class="c" x="642" y="18" rx="2" ry="2"/><rect class="c" x="642" y="34" rx="2" ry="2"/><rect class="c" x="642" y="50" rx="2" ry="2"/><rect class="c" x="642" y="66" rx="2" ry="2"/><rect class="c" x="642" y="82" rx="2" ry="2"/><rect class="c" x="642" y="98" rx="2" ry="2"/><rect class="c" x="658" y="2" rx="2" ry="2"/><rect class="c" x="658" y="18" rx="2" ry="2"/><rect class="c" x="658" y="34" rx="2" ry="2"/><rect class="c" x="658" y="50" rx="2" ry="2"/><rect class="c" x="658" y="66" rx="2" ry="2"/><rect class="c" x="658" y="82" rx="2" ry="2"/><rect class="c" x="658" y="98" rx="2" ry="2"/><rect class="c" x="674" y="2" rx="2" ry="2"/><rect class="c" x="674" y="18" rx="2" ry="2"/><rect class="c" x="674" y="34" rx="2" ry="2"/><rect class="c" x="674" y="50" rx="2" ry="2"/><rect class="c" x="674" y="66" rx="2" ry="2"/><rect class="c" x="674" y="82" rx="2" ry="2"/><rect class="c c1t" x="674" y="98" rx="2" ry="2"/><rect class="c" x="690" y="2" rx="2" ry="2"/><rect class="c" x="690" y="18" rx="2" ry="2"/><rect class="c" x="690" y="34" rx="2" ry="2"/><rect class="c" x="690" y="50" rx="2" ry="2"/><rect class="c" x="690" y="66" rx="2" ry="2"/><rect class="c" x="690" y="82" rx="2" ry="2"/><rect class="c" x="690" y="98" rx="2" ry="2"/><rect class="c" x="706" y="2" rx="2" ry="2"/><rect class="c" x="706" y="18" rx="2" ry="2"/><rect class="c" x="706" y="34" rx="2" ry="2"/><rect class="c" x="706" y="50" rx="2" ry="2"/><rect class="c" x="706" y="66" rx="2" ry="2"/><rect class="c" x="706" y="82" rx="2" ry="2"/><rect class="c" x="706" y="98" rx="2" ry="2"/><rect class="c c1u" x="722" y="2" rx="2" ry="2"/><rect class="c" x="722" y="18" rx="2" ry="2"/><rect class="c c1v" x="722" y="34" rx="2" ry="2"/><rect class="c" x="722" y="50" rx="2" ry="2"/><rect class="c" x="722" y="66" rx="2" ry="2"/><rect class="c" x="722" y="82" rx="2" ry="2"/><rect class="c" x="722" y="98" rx="2" ry="2"/><rect class="c" x="738" y="2" rx="2" ry="2"/><rect class="c" x="738" y="18" rx="2" ry="2"/><rect class="c" x="738" y="34" rx="2" ry="2"/><rect class="c" x="738" y="50" rx="2" ry="2"/><rect class="c" x="738" y="66" rx="2" ry="2"/><rect class="c c1w" x="738" y="82" rx="2" ry="2"/><rect class="c c1x" x="738" y="98" rx="2" ry="2"/><rect class="c c1y" x="754" y="2" rx="2" ry="2"/><rect class="c c1z" x="754" y="18" rx="2" ry="2"/><rect class="c" x="754" y="34" rx="2" ry="2"/><rect class="c" x="754" y="50" rx="2" ry="2"/><rect class="c" x="754" y="66" rx="2" ry="2"/><rect class="c" x="754" y="82" rx="2" ry="2"/><rect class="c" x="754" y="98" rx="2" ry="2"/><rect class="c" x="770" y="2" rx="2" ry="2"/><rect class="c" x="770" y="18" rx="2" ry="2"/><rect class="c" x="770" y="34" rx="2" ry="2"/><rect class="c" x="770" y="50" rx="2" ry="2"/><rect class="c" x="770" y="66" rx="2" ry="2"/><rect class="c" x="770" y="82" rx="2" ry="2"/><rect class="c" x="770" y="98" rx="2" ry="2"/><rect class="c c20" x="786" y="2" rx="2" ry="2"/><rect class="c c21" x="786" y="18" rx="2" ry="2"/><rect class="c" x="786" y="34" rx="2" ry="2"/><rect class="c c22" x="786" y="50" rx="2" ry="2"/><rect class="c c23" x="786" y="66" rx="2" ry="2"/><rect class="c" x="786" y="82" rx="2" ry="2"/><rect class="c" x="786" y="98" rx="2" ry="2"/><rect class="c" x="802" y="2" rx="2" ry="2"/><rect class="c" x="802" y="18" rx="2" ry="2"/><rect class="c" x="802" y="34" rx="2" ry="2"/><rect class="c" x="802" y="50" rx="2" ry="2"/><rect class="c" x="802" y="66" rx="2" ry="2"/><rect class="c" x="802" y="82" rx="2" ry="2"/><rect class="c" x="802" y="98" rx="2" ry="2"/><rect class="c" x="818" y="2" rx="2" ry="2"/><rect class="c" x="818" y="18" rx="2" ry="2"/><rect class="c" x="818" y="34" rx="2" ry="2"/><rect class="c" x="818" y="50" rx="2" ry="2"/><rect class="c" x="818" y="66" rx="2" ry="2"/><rect class="c" x="818" y="82" rx="2" ry="2"/><rect class="c" x="818" y="98" rx="2" ry="2"/><rect class="c" x="834" y="2" rx="2" ry="2"/><rect class="c" x="834" y="18" rx="2" ry="2"/><rect class="c" x="834" y="34" rx="2" ry="2"/><rect class="c" x="834" y="50" rx="2" ry="2"/><rect class="c c24" x="834" y="66" rx="2" ry="2"/><rect class="c c25" x="834" y="82" rx="2" ry="2"/><rect class="u u0" height="12" width="555.1" x="0.0" y="144"/><rect class="u u1" height="12" width="174.5" x="554.5" y="144"/><rect class="u u2" height="12" width="76.7" x="728.4" y="144"/><rect class="u u3" height="12" width="44.1" x="804.5" y="144"/><rect class="s s0" x="0.8" y="0.8" width="14.4" height="14.4" rx="4.5" ry="4.5"/><rect class="s s1" x="1.8" y="1.8" width="12.3" height="12.3" rx="4.1" ry="4.1"/><rect class="s s2" x="2.6" y="2.6" width="10.8" height="10.8" rx="3.6" ry="3.6"/><rect class="s s3" x="3.0" y="3.0" width="9.9" height="9.9" rx="3.3" ry="3.3"/></svg>