<svg viewBox="-16 -32 880 192" width="880" height="192" xmlns="http://www.w3.org/2000/svg"><desc>Generated with https://github.com/Platane/snk</desc><style>:root{--cb:#1b1f230a;--cs:white;--ce:#0a0e12;--c0:#0a0e12;--c1:#1445a2;--c2:#1d65ee;--c3:#1f4eff;--c4:#466dff}.c{shape-rendering:geometricPrecision;fill:var(--ce);stroke-width:1px;stroke:var(--cb);animation:none 35900ms linear infinite;width:12px;height:12px}@keyframes c0{0.55%{fill:var(--c1)}0.57%,100%{fill:var(--ce)}}.c.c0{fill:var(--c1);animation-name:c0}@keyframes c1{68.51%{fill:var(--c2)}68.53%,100%{fill:var(--ce)}}.c.c1{fill:var(--c2);animation-name:c1}@keyframes c2{25.9%{fill:var(--c1)}25.92%,100%{fill:var(--ce)}}.c.c2{fill:var(--c1);animation-name:c2}@keyframes c3{25.34%{fill:var(--c1)}25.36%,100%{fill:var(--ce)}}.c.c3{fill:var(--c1);animation-name:c3}@keyframes c4{1.38%{fill:var(--c1)}1.4%,100%{fill:var(--ce)}}.c.c4{fill:var(--c1);animation-name:c4}@keyframes c5{25.06%{fill:var(--c1)}25.08%,100%{fill:var(--ce)}}.c.c5{fill:var(--c1);animation-name:c5}@keyframes c6{3.89%{fill:var(--c1)}3.91%,100%{fill:var(--ce)}}.c.c6{fill:var(--c1);animation-name:c6}@keyframes c7{4.17%{fill:var(--c1)}4.19%,100%{fill:var(--ce)}}.c.c7{fill:var(--c1);animation-name:c7}@keyframes c8{98.32%{fill:var(--c4)}98.34%,100%{fill:var(--ce)}}.c.c8{fill:var(--c4);animation-name:c8}@keyframes c9{2.22%{fill:var(--c1)}2.24%,100%{fill:var(--ce)}}.c.c9{fill:var(--c1);animation-name:c9}@keyframes ca{3.61%{fill:var(--c1)}3.63%,100%{fill:var(--ce)}}.c.ca{fill:var(--c1);animation-name:ca}@keyframes cb{4.45%{fill:var(--c1)}4.47%,100%{fill:var(--ce)}}.c.cb{fill:var(--c1);animation-name:cb}@keyframes cc{71.02%{fill:var(--c3)}71.04%,100%{fill:var(--ce)}}.c.cc{fill:var(--c3);animation-name:cc}@keyframes cd{3.05%{fill:var(--c1)}3.07%,100%{fill:var(--ce)}}.c.cd{fill:var(--c1);animation-name:cd}@keyframes ce{5%{fill:var(--c1)}5.02%,100%{fill:var(--ce)}}.c.ce{fill:var(--c1);animation-name:ce}@keyframes cf{97.48%{fill:var(--c4)}97.5%,100%{fill:var(--ce)}}.c.cf{fill:var(--c4);animation-name:cf}@keyframes cg{23.39%{fill:var(--c1)}23.41%,100%{fill:var(--ce)}}.c.cg{fill:var(--c1);animation-name:cg}@keyframes ch{66.56%{fill:var(--c2)}66.58%,100%{fill:var(--ce)}}.c.ch{fill:var(--c2);animation-name:ch}@keyframes ci{5.56%{fill:var(--c1)}5.58%,100%{fill:var(--ce)}}.c.ci{fill:var(--c1);animation-name:ci}@keyframes cj{73.81%{fill:var(--c3)}73.83%,100%{fill:var(--ce)}}.c.cj{fill:var(--c3);animation-name:cj}@keyframes ck{66.01%{fill:var(--c2)}66.03%,100%{fill:var(--ce)}}.c.ck{fill:var(--c2);animation-name:ck}@keyframes cl{95.53%{fill:var(--c4)}95.55%,100%{fill:var(--ce)}}.c.cl{fill:var(--c4);animation-name:cl}@keyframes cm{22%{fill:var(--c1)}22.02%,100%{fill:var(--ce)}}.c.cm{fill:var(--c1);animation-name:cm}@keyframes cn{64.61%{fill:var(--c2)}64.63%,100%{fill:var(--ce)}}.c.cn{fill:var(--c2);animation-name:cn}@keyframes co{94.42%{fill:var(--c4)}94.44%,100%{fill:var(--ce)}}.c.co{fill:var(--c4);animation-name:co}@keyframes cp{7.79%{fill:var(--c1)}7.81%,100%{fill:var(--ce)}}.c.cp{fill:var(--c1);animation-name:cp}@keyframes cq{7.51%{fill:var(--c1)}7.53%,100%{fill:var(--ce)}}.c.cq{fill:var(--c1);animation-name:cq}@keyframes cr{77.43%{fill:var(--c3)}77.45%,100%{fill:var(--ce)}}.c.cr{fill:var(--c3);animation-name:cr}@keyframes cs{72.69%{fill:var(--c3)}72.71%,100%{fill:var(--ce)}}.c.cs{fill:var(--c3);animation-name:cs}@keyframes ct{64.06%{fill:var(--c2)}64.08%,100%{fill:var(--ce)}}.c.ct{fill:var(--c2);animation-name:ct}@keyframes cu{6.95%{fill:var(--c1)}6.97%,100%{fill:var(--ce)}}.c.cu{fill:var(--c1);animation-name:cu}@keyframes cv{62.39%{fill:var(--c2)}62.41%,100%{fill:var(--ce)}}.c.cv{fill:var(--c2);animation-name:cv}@keyframes cw{62.11%{fill:var(--c2)}62.13%,100%{fill:var(--ce)}}.c.cw{fill:var(--c2);animation-name:cw}@keyframes cx{61.55%{fill:var(--c2)}61.57%,100%{fill:var(--ce)}}.c.cx{fill:var(--c2);animation-name:cx}@keyframes cy{61.27%{fill:var(--c2)}61.29%,100%{fill:var(--ce)}}.c.cy{fill:var(--c2);animation-name:cy}@keyframes cz{60.71%{fill:var(--c2)}60.73%,100%{fill:var(--ce)}}.c.cz{fill:var(--c2);animation-name:cz}@keyframes c10{63.22%{fill:var(--c2)}63.24%,100%{fill:var(--ce)}}.c.c10{fill:var(--c2);animation-name:c10}@keyframes c11{75.2%{fill:var(--c3)}75.22%,100%{fill:var(--ce)}}.c.c11{fill:var(--c3);animation-name:c11}@keyframes c12{75.48%{fill:var(--c3)}75.5%,100%{fill:var(--ce)}}.c.c12{fill:var(--c3);animation-name:c12}@keyframes c13{10.02%{fill:var(--c1)}10.04%,100%{fill:var(--ce)}}.c.c13{fill:var(--c1);animation-name:c13}@keyframes c14{19.21%{fill:var(--c1)}19.23%,100%{fill:var(--ce)}}.c.c14{fill:var(--c1);animation-name:c14}@keyframes c15{11.13%{fill:var(--c1)}11.15%,100%{fill:var(--ce)}}.c.c15{fill:var(--c1);animation-name:c15}@keyframes c16{11.41%{fill:var(--c1)}11.43%,100%{fill:var(--ce)}}.c.c16{fill:var(--c1);animation-name:c16}@keyframes c17{18.93%{fill:var(--c1)}18.95%,100%{fill:var(--ce)}}.c.c17{fill:var(--c1);animation-name:c17}@keyframes c18{11.69%{fill:var(--c1)}11.71%,100%{fill:var(--ce)}}.c.c18{fill:var(--c1);animation-name:c18}@keyframes c19{12.8%{fill:var(--c1)}12.82%,100%{fill:var(--ce)}}.c.c19{fill:var(--c1);animation-name:c19}@keyframes c1a{16.42%{fill:var(--c1)}16.44%,100%{fill:var(--ce)}}.c.c1a{fill:var(--c1);animation-name:c1a}@keyframes c1b{15.03%{fill:var(--c1)}15.05%,100%{fill:var(--ce)}}.c.c1b{fill:var(--c1);animation-name:c1b}@keyframes c1c{15.59%{fill:var(--c1)}15.61%,100%{fill:var(--ce)}}.c.c1c{fill:var(--c1);animation-name:c1c}@keyframes c1d{56.26%{fill:var(--c2)}56.28%,100%{fill:var(--ce)}}.c.c1d{fill:var(--c2);animation-name:c1d}@keyframes c1e{56.54%{fill:var(--c2)}56.56%,100%{fill:var(--ce)}}.c.c1e{fill:var(--c2);animation-name:c1e}@keyframes c1f{35.92%{fill:var(--c1)}35.94%,100%{fill:var(--ce)}}.c.c1f{fill:var(--c1);animation-name:c1f}@keyframes c1g{52.36%{fill:var(--c2)}52.38%,100%{fill:var(--ce)}}.c.c1g{fill:var(--c2);animation-name:c1g}@keyframes c1h{43.44%{fill:var(--c1)}43.46%,100%{fill:var(--ce)}}.c.c1h{fill:var(--c1);animation-name:c1h}@keyframes c1i{37.32%{fill:var(--c1)}37.34%,100%{fill:var(--ce)}}.c.c1i{fill:var(--c1);animation-name:c1i}@keyframes c1j{85.51%{fill:var(--c3)}85.53%,100%{fill:var(--ce)}}.c.c1j{fill:var(--c3);animation-name:c1j}@keyframes c1k{42.33%{fill:var(--c1)}42.35%,100%{fill:var(--ce)}}.c.c1k{fill:var(--c1);animation-name:c1k}@keyframes c1l{42.61%{fill:var(--c1)}42.63%,100%{fill:var(--ce)}}.c.c1l{fill:var(--c1);animation-name:c1l}@keyframes c1m{41.77%{fill:var(--c1)}41.79%,100%{fill:var(--ce)}}.c.c1m{fill:var(--c1);animation-name:c1m}@keyframes c1n{41.49%{fill:var(--c1)}41.51%,100%{fill:var(--ce)}}.c.c1n{fill:var(--c1);animation-name:c1n}@keyframes c1o{50.41%{fill:var(--c2)}50.43%,100%{fill:var(--ce)}}.c.c1o{fill:var(--c2);animation-name:c1o}@keyframes c1p{38.43%{fill:var(--c1)}38.45%,100%{fill:var(--ce)}}.c.c1p{fill:var(--c1);animation-name:c1p}@keyframes c1q{39.27%{fill:var(--c1)}39.29%,100%{fill:var(--ce)}}.c.c1q{fill:var(--c1);animation-name:c1q}@keyframes c1r{39.54%{fill:var(--c1)}39.56%,100%{fill:var(--ce)}}.c.c1r{fill:var(--c1);animation-name:c1r}@keyframes c1s{47.62%{fill:var(--c1)}47.64%,100%{fill:var(--ce)}}.c.c1s{fill:var(--c1);animation-name:c1s}.u{transform-origin:0 0;transform:scale(0,1);animation:none linear 35900ms infinite}@keyframes u0{0.55%{transform:scale(0.000,1)}0.57%,1.38%{transform:scale(0.026,1)}1.4%,2.22%{transform:scale(0.051,1)}2.24%,3.05%{transform:scale(0.077,1)}3.07%,3.61%{transform:scale(0.103,1)}3.63%,3.89%{transform:scale(0.128,1)}3.91%,4.17%{transform:scale(0.154,1)}4.19%,4.45%{transform:scale(0.179,1)}4.47%,5%{transform:scale(0.205,1)}5.02%,5.56%{transform:scale(0.231,1)}5.58%,6.95%{transform:scale(0.256,1)}6.97%,7.51%{transform:scale(0.282,1)}7.53%,7.79%{transform:scale(0.308,1)}7.81%,10.02%{transform:scale(0.333,1)}10.04%,11.13%{transform:scale(0.359,1)}11.15%,11.41%{transform:scale(0.385,1)}11.43%,11.69%{transform:scale(0.410,1)}11.71%,12.8%{transform:scale(0.436,1)}12.82%,15.03%{transform:scale(0.462,1)}15.05%,15.59%{transform:scale(0.487,1)}15.61%,16.42%{transform:scale(0.513,1)}16.44%,18.93%{transform:scale(0.538,1)}18.95%,19.21%{transform:scale(0.564,1)}19.23%,22%{transform:scale(0.590,1)}22.02%,23.39%{transform:scale(0.615,1)}23.41%,25.06%{transform:scale(0.641,1)}25.08%,25.34%{transform:scale(0.667,1)}25.36%,25.9%{transform:scale(0.692,1)}25.92%,35.92%{transform:scale(0.718,1)}35.94%,37.32%{transform:scale(0.744,1)}37.34%,38.43%{transform:scale(0.769,1)}38.45%,39.27%{transform:scale(0.795,1)}39.29%,39.54%{transform:scale(0.821,1)}39.56%,41.49%{transform:scale(0.846,1)}41.51%,41.77%{transform:scale(0.872,1)}41.79%,42.33%{transform:scale(0.897,1)}42.35%,42.61%{transform:scale(0.923,1)}42.63%,43.44%{transform:scale(0.949,1)}43.46%,47.62%{transform:scale(0.974,1)}47.64%,100%{transform:scale(1.000,1)}}.u.u0{fill:var(--c1);animation-name:u0;transform-origin:0.0px 0}@keyframes u1{50.41%{transform:scale(0.000,1)}50.43%,52.36%{transform:scale(0.067,1)}52.38%,56.26%{transform:scale(0.133,1)}56.28%,56.54%{transform:scale(0.200,1)}56.56%,60.71%{transform:scale(0.267,1)}60.73%,61.27%{transform:scale(0.333,1)}61.29%,61.55%{transform:scale(0.400,1)}61.57%,62.11%{transform:scale(0.467,1)}62.13%,62.39%{transform:scale(0.533,1)}62.41%,63.22%{transform:scale(0.600,1)}63.24%,64.06%{transform:scale(0.667,1)}64.08%,64.61%{transform:scale(0.733,1)}64.63%,66.01%{transform:scale(0.800,1)}66.03%,66.56%{transform:scale(0.867,1)}66.58%,68.51%{transform:scale(0.933,1)}68.53%,100%{transform:scale(1.000,1)}}.u.u1{fill:var(--c2);animation-name:u1;transform-origin:508.8px 0}@keyframes u2{71.02%{transform:scale(0.000,1)}71.04%,72.69%{transform:scale(0.143,1)}72.71%,73.81%{transform:scale(0.286,1)}73.83%,75.2%{transform:scale(0.429,1)}75.22%,75.48%{transform:scale(0.571,1)}75.5%,77.43%{transform:scale(0.714,1)}77.45%,85.51%{transform:scale(0.857,1)}85.53%,100%{transform:scale(1.000,1)}}.u.u2{fill:var(--c3);animation-name:u2;transform-origin:704.5px 0}@keyframes u3{94.42%{transform:scale(0.000,1)}94.44%,95.53%{transform:scale(0.250,1)}95.55%,97.48%{transform:scale(0.500,1)}97.5%,98.32%{transform:scale(0.750,1)}98.34%,100%{transform:scale(1.000,1)}}.u.u3{fill:var(--c4);animation-name:u3;transform-origin:795.8px 0}.s{shape-rendering:geometricPrecision;fill:var(--cs);animation:none linear 35900ms infinite}@keyframes s0{0%,99.72%{transform:translate(0px,-16px)}0.56%{transform:translate(0px,16px)}1.11%{transform:translate(32px,16px)}1.39%{transform:translate(32px,0px)}1.67%{transform:translate(48px,0px)}1.95%{transform:translate(48px,16px)}2.23%{transform:translate(64px,16px)}2.51%{transform:translate(64px,32px)}2.79%{transform:translate(80px,32px)}3.06%{transform:translate(80px,48px)}3.34%{transform:translate(64px,48px)}3.62%{transform:translate(64px,64px)}3.9%{transform:translate(48px,64px)}4.18%{transform:translate(48px,80px)}4.74%{transform:translate(80px,80px)}5.01%{transform:translate(80px,96px)}5.57%,95.82%{transform:translate(112px,96px)}5.85%{transform:translate(112px,112px)}6.69%{transform:translate(160px,112px)}7.24%{transform:translate(160px,80px)}7.52%{transform:translate(144px,80px)}7.8%,76.88%{transform:translate(144px,64px)}8.08%,65.46%,76.6%{transform:translate(160px,64px)}8.64%,64.9%{transform:translate(160px,32px)}9.19%{transform:translate(192px,32px)}9.75%,61%{transform:translate(192px,64px)}10.86%{transform:translate(256px,64px)}11.42%{transform:translate(256px,96px)}14.21%{transform:translate(416px,96px)}15.04%{transform:translate(416px,48px)}15.32%{transform:translate(432px,48px)}15.88%{transform:translate(432px,16px)}16.43%{transform:translate(400px,16px)}16.71%{transform:translate(400px,0px)}19.22%{transform:translate(256px,0px)}19.5%{transform:translate(256px,-16px)}21.45%{transform:translate(144px,-16px)}22.01%,64.35%{transform:translate(144px,16px)}22.56%,97.21%{transform:translate(112px,16px)}23.4%,66.3%{transform:translate(112px,64px)}24.79%{transform:translate(32px,64px)}25.07%{transform:translate(32px,80px)}25.35%{transform:translate(16px,80px)}25.63%{transform:translate(16px,96px)}25.91%{transform:translate(0px,96px)}26.18%{transform:translate(0px,112px)}35.65%{transform:translate(544px,112px)}35.93%{transform:translate(544px,96px)}36.77%{transform:translate(592px,96px)}37.05%{transform:translate(592px,80px)}38.16%{transform:translate(656px,80px)}38.44%{transform:translate(656px,64px)}39.28%{transform:translate(704px,64px)}39.55%{transform:translate(704px,80px)}39.83%{transform:translate(688px,80px)}40.95%{transform:translate(688px,16px)}41.5%{transform:translate(656px,16px)}41.78%,51.25%{transform:translate(656px,0px)}42.34%{transform:translate(624px,0px)}42.62%{transform:translate(624px,16px)}43.18%{transform:translate(592px,16px)}43.45%{transform:translate(592px,32px)}47.35%{transform:translate(816px,32px)}47.63%{transform:translate(816px,48px)}50.42%{transform:translate(656px,48px)}55.15%{transform:translate(432px,0px)}56.55%{transform:translate(432px,80px)}60.72%{transform:translate(192px,80px)}61.28%{transform:translate(176px,64px)}62.4%{transform:translate(176px,0px)}62.95%{transform:translate(208px,0px)}63.23%{transform:translate(208px,16px)}64.62%{transform:translate(144px,32px)}66.57%{transform:translate(112px,80px)}68.52%{transform:translate(0px,80px)}68.8%{transform:translate(0px,64px)}70.19%{transform:translate(80px,64px)}71.31%{transform:translate(80px,0px)}72.7%{transform:translate(160px,0px)}72.98%{transform:translate(160px,16px)}73.54%{transform:translate(128px,16px)}73.82%{transform:translate(128px,32px)}75.21%{transform:translate(208px,32px)}75.49%{transform:translate(208px,48px)}76.32%{transform:translate(160px,48px)}77.44%{transform:translate(144px,96px)}85.52%{transform:translate(608px,96px)}86.35%{transform:translate(608px,48px)}94.71%{transform:translate(128px,48px)}95.54%{transform:translate(128px,96px)}97.49%{transform:translate(96px,16px)}97.77%{transform:translate(96px,0px)}98.33%{transform:translate(64px,0px)}98.61%{transform:translate(64px,-16px)}}.s.s0{transform:translate(0px,-16px);animation-name:s0}@keyframes s1{0%,99.72%{transform:translate(16px,-16px)}0.28%{transform:translate(0px,-16px)}0.84%{transform:translate(0px,16px)}1.39%{transform:translate(32px,16px)}1.67%{transform:translate(32px,0px)}1.95%{transform:translate(48px,0px)}2.23%{transform:translate(48px,16px)}2.51%{transform:translate(64px,16px)}2.79%{transform:translate(64px,32px)}3.06%{transform:translate(80px,32px)}3.34%{transform:translate(80px,48px)}3.62%{transform:translate(64px,48px)}3.9%{transform:translate(64px,64px)}4.18%{transform:translate(48px,64px)}4.46%{transform:translate(48px,80px)}5.01%{transform:translate(80px,80px)}5.29%{transform:translate(80px,96px)}5.85%,96.1%{transform:translate(112px,96px)}6.13%{transform:translate(112px,112px)}6.96%{transform:translate(160px,112px)}7.52%{transform:translate(160px,80px)}7.8%{transform:translate(144px,80px)}8.08%,77.16%{transform:translate(144px,64px)}8.36%,65.74%,76.88%{transform:translate(160px,64px)}8.91%,65.18%{transform:translate(160px,32px)}9.47%{transform:translate(192px,32px)}10.03%,61.28%{transform:translate(192px,64px)}11.14%{transform:translate(256px,64px)}11.7%{transform:translate(256px,96px)}14.48%{transform:translate(416px,96px)}15.32%{transform:translate(416px,48px)}15.6%{transform:translate(432px,48px)}16.16%{transform:translate(432px,16px)}16.71%{transform:translate(400px,16px)}16.99%{transform:translate(400px,0px)}19.5%{transform:translate(256px,0px)}19.78%{transform:translate(256px,-16px)}21.73%{transform:translate(144px,-16px)}22.28%,64.62%{transform:translate(144px,16px)}22.84%,97.49%{transform:translate(112px,16px)}23.68%,66.57%{transform:translate(112px,64px)}25.07%{transform:translate(32px,64px)}25.35%{transform:translate(32px,80px)}25.63%{transform:translate(16px,80px)}25.91%{transform:translate(16px,96px)}26.18%{transform:translate(0px,96px)}26.46%{transform:translate(0px,112px)}35.93%{transform:translate(544px,112px)}36.21%{transform:translate(544px,96px)}37.05%{transform:translate(592px,96px)}37.33%{transform:translate(592px,80px)}38.44%{transform:translate(656px,80px)}38.72%{transform:translate(656px,64px)}39.55%{transform:translate(704px,64px)}39.83%{transform:translate(704px,80px)}40.11%{transform:translate(688px,80px)}41.23%{transform:translate(688px,16px)}41.78%{transform:translate(656px,16px)}42.06%,51.53%{transform:translate(656px,0px)}42.62%{transform:translate(624px,0px)}42.9%{transform:translate(624px,16px)}43.45%{transform:translate(592px,16px)}43.73%{transform:translate(592px,32px)}47.63%{transform:translate(816px,32px)}47.91%{transform:translate(816px,48px)}50.7%{transform:translate(656px,48px)}55.43%{transform:translate(432px,0px)}56.82%{transform:translate(432px,80px)}61%{transform:translate(192px,80px)}61.56%{transform:translate(176px,64px)}62.67%{transform:translate(176px,0px)}63.23%{transform:translate(208px,0px)}63.51%{transform:translate(208px,16px)}64.9%{transform:translate(144px,32px)}66.85%{transform:translate(112px,80px)}68.8%{transform:translate(0px,80px)}69.08%{transform:translate(0px,64px)}70.47%{transform:translate(80px,64px)}71.59%{transform:translate(80px,0px)}72.98%{transform:translate(160px,0px)}73.26%{transform:translate(160px,16px)}73.82%{transform:translate(128px,16px)}74.09%{transform:translate(128px,32px)}75.49%{transform:translate(208px,32px)}75.77%{transform:translate(208px,48px)}76.6%{transform:translate(160px,48px)}77.72%{transform:translate(144px,96px)}85.79%{transform:translate(608px,96px)}86.63%{transform:translate(608px,48px)}94.99%{transform:translate(128px,48px)}95.82%{transform:translate(128px,96px)}97.77%{transform:translate(96px,16px)}98.05%{transform:translate(96px,0px)}98.61%{transform:translate(64px,0px)}98.89%{transform:translate(64px,-16px)}}.s.s1{transform:translate(16px,-16px);animation-name:s1}@keyframes s2{0%,99.72%{transform:translate(32px,-16px)}0.56%{transform:translate(0px,-16px)}1.11%{transform:translate(0px,16px)}1.67%{transform:translate(32px,16px)}1.95%{transform:translate(32px,0px)}2.23%{transform:translate(48px,0px)}2.51%{transform:translate(48px,16px)}2.79%{transform:translate(64px,16px)}3.06%{transform:translate(64px,32px)}3.34%{transform:translate(80px,32px)}3.62%{transform:translate(80px,48px)}3.9%{transform:translate(64px,48px)}4.18%{transform:translate(64px,64px)}4.46%{transform:translate(48px,64px)}4.74%{transform:translate(48px,80px)}5.29%{transform:translate(80px,80px)}5.57%{transform:translate(80px,96px)}6.13%,96.38%{transform:translate(112px,96px)}6.41%{transform:translate(112px,112px)}7.24%{transform:translate(160px,112px)}7.8%{transform:translate(160px,80px)}8.08%{transform:translate(144px,80px)}8.36%,77.44%{transform:translate(144px,64px)}8.64%,66.02%,77.16%{transform:translate(160px,64px)}9.19%,65.46%{transform:translate(160px,32px)}9.75%{transform:translate(192px,32px)}10.31%,61.56%{transform:translate(192px,64px)}11.42%{transform:translate(256px,64px)}11.98%{transform:translate(256px,96px)}14.76%{transform:translate(416px,96px)}15.6%{transform:translate(416px,48px)}15.88%{transform:translate(432px,48px)}16.43%{transform:translate(432px,16px)}16.99%{transform:translate(400px,16px)}17.27%{transform:translate(400px,0px)}19.78%{transform:translate(256px,0px)}20.06%{transform:translate(256px,-16px)}22.01%{transform:translate(144px,-16px)}22.56%,64.9%{transform:translate(144px,16px)}23.12%,97.77%{transform:translate(112px,16px)}23.96%,66.85%{transform:translate(112px,64px)}25.35%{transform:translate(32px,64px)}25.63%{transform:translate(32px,80px)}25.91%{transform:translate(16px,80px)}26.18%{transform:translate(16px,96px)}26.46%{transform:translate(0px,96px)}26.74%{transform:translate(0px,112px)}36.21%{transform:translate(544px,112px)}36.49%{transform:translate(544px,96px)}37.33%{transform:translate(592px,96px)}37.6%{transform:translate(592px,80px)}38.72%{transform:translate(656px,80px)}39%{transform:translate(656px,64px)}39.83%{transform:translate(704px,64px)}40.11%{transform:translate(704px,80px)}40.39%{transform:translate(688px,80px)}41.5%{transform:translate(688px,16px)}42.06%{transform:translate(656px,16px)}42.34%,51.81%{transform:translate(656px,0px)}42.9%{transform:translate(624px,0px)}43.18%{transform:translate(624px,16px)}43.73%{transform:translate(592px,16px)}44.01%{transform:translate(592px,32px)}47.91%{transform:translate(816px,32px)}48.19%{transform:translate(816px,48px)}50.97%{transform:translate(656px,48px)}55.71%{transform:translate(432px,0px)}57.1%{transform:translate(432px,80px)}61.28%{transform:translate(192px,80px)}61.84%{transform:translate(176px,64px)}62.95%{transform:translate(176px,0px)}63.51%{transform:translate(208px,0px)}63.79%{transform:translate(208px,16px)}65.18%{transform:translate(144px,32px)}67.13%{transform:translate(112px,80px)}69.08%{transform:translate(0px,80px)}69.36%{transform:translate(0px,64px)}70.75%{transform:translate(80px,64px)}71.87%{transform:translate(80px,0px)}73.26%{transform:translate(160px,0px)}73.54%{transform:translate(160px,16px)}74.09%{transform:translate(128px,16px)}74.37%{transform:translate(128px,32px)}75.77%{transform:translate(208px,32px)}76.04%{transform:translate(208px,48px)}76.88%{transform:translate(160px,48px)}77.99%{transform:translate(144px,96px)}86.07%{transform:translate(608px,96px)}86.91%{transform:translate(608px,48px)}95.26%{transform:translate(128px,48px)}96.1%{transform:translate(128px,96px)}98.05%{transform:translate(96px,16px)}98.33%{transform:translate(96px,0px)}98.89%{transform:translate(64px,0px)}99.16%{transform:translate(64px,-16px)}}.s.s2{transform:translate(32px,-16px);animation-name:s2}@keyframes s3{0%,99.72%{transform:translate(48px,-16px)}0.84%{transform:translate(0px,-16px)}1.39%{transform:translate(0px,16px)}1.95%{transform:translate(32px,16px)}2.23%{transform:translate(32px,0px)}2.51%{transform:translate(48px,0px)}2.79%{transform:translate(48px,16px)}3.06%{transform:translate(64px,16px)}3.34%{transform:translate(64px,32px)}3.62%{transform:translate(80px,32px)}3.9%{transform:translate(80px,48px)}4.18%{transform:translate(64px,48px)}4.46%{transform:translate(64px,64px)}4.74%{transform:translate(48px,64px)}5.01%{transform:translate(48px,80px)}5.57%{transform:translate(80px,80px)}5.85%{transform:translate(80px,96px)}6.41%,96.66%{transform:translate(112px,96px)}6.69%{transform:translate(112px,112px)}7.52%{transform:translate(160px,112px)}8.08%{transform:translate(160px,80px)}8.36%{transform:translate(144px,80px)}8.64%,77.72%{transform:translate(144px,64px)}8.91%,66.3%,77.44%{transform:translate(160px,64px)}9.47%,65.74%{transform:translate(160px,32px)}10.03%{transform:translate(192px,32px)}10.58%,61.84%{transform:translate(192px,64px)}11.7%{transform:translate(256px,64px)}12.26%{transform:translate(256px,96px)}15.04%{transform:translate(416px,96px)}15.88%{transform:translate(416px,48px)}16.16%{transform:translate(432px,48px)}16.71%{transform:translate(432px,16px)}17.27%{transform:translate(400px,16px)}17.55%{transform:translate(400px,0px)}20.06%{transform:translate(256px,0px)}20.33%{transform:translate(256px,-16px)}22.28%{transform:translate(144px,-16px)}22.84%,65.18%{transform:translate(144px,16px)}23.4%,98.05%{transform:translate(112px,16px)}24.23%,67.13%{transform:translate(112px,64px)}25.63%{transform:translate(32px,64px)}25.91%{transform:translate(32px,80px)}26.18%{transform:translate(16px,80px)}26.46%{transform:translate(16px,96px)}26.74%{transform:translate(0px,96px)}27.02%{transform:translate(0px,112px)}36.49%{transform:translate(544px,112px)}36.77%{transform:translate(544px,96px)}37.6%{transform:translate(592px,96px)}37.88%{transform:translate(592px,80px)}39%{transform:translate(656px,80px)}39.28%{transform:translate(656px,64px)}40.11%{transform:translate(704px,64px)}40.39%{transform:translate(704px,80px)}40.67%{transform:translate(688px,80px)}41.78%{transform:translate(688px,16px)}42.34%{transform:translate(656px,16px)}42.62%,52.09%{transform:translate(656px,0px)}43.18%{transform:translate(624px,0px)}43.45%{transform:translate(624px,16px)}44.01%{transform:translate(592px,16px)}44.29%{transform:translate(592px,32px)}48.19%{transform:translate(816px,32px)}48.47%{transform:translate(816px,48px)}51.25%{transform:translate(656px,48px)}55.99%{transform:translate(432px,0px)}57.38%{transform:translate(432px,80px)}61.56%{transform:translate(192px,80px)}62.12%{transform:translate(176px,64px)}63.23%{transform:translate(176px,0px)}63.79%{transform:translate(208px,0px)}64.07%{transform:translate(208px,16px)}65.46%{transform:translate(144px,32px)}67.41%{transform:translate(112px,80px)}69.36%{transform:translate(0px,80px)}69.64%{transform:translate(0px,64px)}71.03%{transform:translate(80px,64px)}72.14%{transform:translate(80px,0px)}73.54%{transform:translate(160px,0px)}73.82%{transform:translate(160px,16px)}74.37%{transform:translate(128px,16px)}74.65%{transform:translate(128px,32px)}76.04%{transform:translate(208px,32px)}76.32%{transform:translate(208px,48px)}77.16%{transform:translate(160px,48px)}78.27%{transform:translate(144px,96px)}86.35%{transform:translate(608px,96px)}87.19%{transform:translate(608px,48px)}95.54%{transform:translate(128px,48px)}96.38%{transform:translate(128px,96px)}98.33%{transform:translate(96px,16px)}98.61%{transform:translate(96px,0px)}99.16%{transform:translate(64px,0px)}99.44%{transform:translate(64px,-16px)}}.s.s3{transform:translate(48px,-16px);animation-name:s3}</style><rect class="c" x="2" y="2" rx="2" ry="2"/><rect class="c c0" x="2" y="18" rx="2" ry="2"/><rect class="c" x="2" y="34" rx="2" ry="2"/><rect class="c" x="2" y="50" rx="2" ry="2"/><rect class="c" x="2" y="66" rx="2" ry="2"/><rect class="c c1" x="2" y="82" rx="2" ry="2"/><rect class="c c2" x="2" y="98" rx="2" ry="2"/><rect class="c" x="18" y="2" rx="2" ry="2"/><rect class="c" x="18" y="18" rx="2" ry="2"/><rect class="c" x="18" y="34" rx="2" ry="2"/><rect class="c" x="18" y="50" rx="2" ry="2"/><rect class="c" x="18" y="66" rx="2" ry="2"/><rect class="c c3" x="18" y="82" rx="2" ry="2"/><rect class="c" x="18" y="98" rx="2" ry="2"/><rect class="c c4" x="34" y="2" rx="2" ry="2"/><rect class="c" x="34" y="18" rx="2" ry="2"/><rect class="c" x="34" y="34" rx="2" ry="2"/><rect class="c" x="34" y="50" rx="2" ry="2"/><rect class="c" x="34" y="66" rx="2" ry="2"/><rect class="c c5" x="34" y="82" rx="2" ry="2"/><rect class="c" x="34" y="98" rx="2" ry="2"/><rect class="c" x="50" y="2" rx="2" ry="2"/><rect class="c" x="50" y="18" rx="2" ry="2"/><rect class="c" x="50" y="34" rx="2" ry="2"/><rect class="c" x="50" y="50" rx="2" ry="2"/><rect class="c c6" x="50" y="66" rx="2" ry="2"/><rect class="c c7" x="50" y="82" rx="2" ry="2"/><rect class="c" x="50" y="98" rx="2" ry="2"/><rect class="c c8" x="66" y="2" rx="2" ry="2"/><rect class="c c9" x="66" y="18" rx="2" ry="2"/><rect class="c" x="66" y="34" rx="2" ry="2"/><rect class="c" x="66" y="50" rx="2" ry="2"/><rect class="c ca" x="66" y="66" rx="2" ry="2"/><rect class="c cb" x="66" y="82" rx="2" ry="2"/><rect class="c" x="66" y="98" rx="2" ry="2"/><rect class="c" x="82" y="2" rx="2" ry="2"/><rect class="c cc" x="82" y="18" rx="2" ry="2"/><rect class="c" x="82" y="34" rx="2" ry="2"/><rect class="c cd" x="82" y="50" rx="2" ry="2"/><rect class="c" x="82" y="66" rx="2" ry="2"/><rect class="c" x="82" y="82" rx="2" ry="2"/><rect class="c ce" x="82" y="98" rx="2" ry="2"/><rect class="c" x="98" y="2" rx="2" ry="2"/><rect class="c cf" x="98" y="18" rx="2" ry="2"/><rect class="c" x="98" y="34" rx="2" ry="2"/><rect class="c" x="98" y="50" rx="2" ry="2"/><rect class="c" x="98" y="66" rx="2" ry="2"/><rect class="c" x="98" y="82" rx="2" ry="2"/><rect class="c" x="98" y="98" rx="2" ry="2"/><rect class="c" x="114" y="2" rx="2" ry="2"/><rect class="c" x="114" y="18" rx="2" ry="2"/><rect class="c" x="114" y="34" rx="2" ry="2"/><rect class="c" x="114" y="50" rx="2" ry="2"/><rect class="c cg" x="114" y="66" rx="2" ry="2"/><rect class="c ch" x="114" y="82" rx="2" ry="2"/><rect class="c ci" x="114" y="98" rx="2" ry="2"/><rect class="c" x="130" y="2" rx="2" ry="2"/><rect class="c" x="130" y="18" rx="2" ry="2"/><rect class="c cj" x="130" y="34" rx="2" ry="2"/><rect class="c" x="130" y="50" rx="2" ry="2"/><rect class="c ck" x="130" y="66" rx="2" ry="2"/><rect class="c" x="130" y="82" rx="2" ry="2"/><rect class="c cl" x="130" y="98" rx="2" ry="2"/><rect class="c" x="146" y="2" rx="2" ry="2"/><rect class="c cm" x="146" y="18" rx="2" ry="2"/><rect class="c cn" x="146" y="34" rx="2" ry="2"/><rect class="c co" x="146" y="50" rx="2" ry="2"/><rect class="c cp" x="146" y="66" rx="2" ry="2"/><rect class="c cq" x="146" y="82" rx="2" ry="2"/><rect class="c cr" x="146" y="98" rx="2" ry="2"/><rect class="c cs" x="162" y="2" rx="2" ry="2"/><rect class="c ct" x="162" y="18" rx="2" ry="2"/><rect class="c" x="162" y="34" rx="2" ry="2"/><rect class="c" x="162" y="50" rx="2" ry="2"/><rect class="c" x="162" y="66" rx="2" ry="2"/><rect class="c" x="162" y="82" rx="2" ry="2"/><rect class="c cu" x="162" y="98" rx="2" ry="2"/><rect class="c cv" x="178" y="2" rx="2" ry="2"/><rect class="c cw" x="178" y="18" rx="2" ry="2"/><rect class="c" x="178" y="34" rx="2" ry="2"/><rect class="c cx" x="178" y="50" rx="2" ry="2"/><rect class="c cy" x="178" y="66" rx="2" ry="2"/><rect class="c" x="178" y="82" rx="2" ry="2"/><rect class="c" x="178" y="98" rx="2" ry="2"/><rect class="c" x="194" y="2" rx="2" ry="2"/><rect class="c" x="194" y="18" rx="2" ry="2"/><rect class="c" x="194" y="34" rx="2" ry="2"/><rect class="c" x="194" y="50" rx="2" ry="2"/><rect class="c" x="194" y="66" rx="2" ry="2"/><rect class="c cz" x="194" y="82" rx="2" ry="2"/><rect class="c" x="194" y="98" rx="2" ry="2"/><rect class="c" x="210" y="2" rx="2" ry="2"/><rect class="c c10" x="210" y="18" rx="2" ry="2"/><rect class="c c11" x="210" y="34" rx="2" ry="2"/><rect class="c c12" x="210" y="50" rx="2" ry="2"/><rect class="c c13" x="210" y="66" rx="2" ry="2"/><rect class="c" x="210" y="82" rx="2" ry="2"/><rect class="c" x="210" y="98" rx="2" ry="2"/><rect class="c" x="226" y="2" rx="2" ry="2"/><rect class="c" x="226" y="18" rx="2" ry="2"/><rect class="c" x="226" y="34" rx="2" ry="2"/><rect class="c" x="226" y="50" rx="2" ry="2"/><rect class="c" x="226" y="66" rx="2" ry="2"/><rect class="c" x="226" y="82" rx="2" ry="2"/><rect class="c" x="226" y="98" rx="2" ry="2"/><rect class="c" x="242" y="2" rx="2" ry="2"/><rect class="c" x="242" y="18" rx="2" ry="2"/><rect class="c" x="242" y="34" rx="2" ry="2"/><rect class="c" x="242" y="50" rx="2" ry="2"/><rect class="c" x="242" y="66" rx="2" ry="2"/><rect class="c" x="242" y="82" rx="2" ry="2"/><rect class="c" x="242" y="98" rx="2" ry="2"/><rect class="c c14" x="258" y="2" rx="2" ry="2"/><rect class="c" x="258" y="18" rx="2" ry="2"/><rect class="c" x="258" y="34" rx="2" ry="2"/><rect class="c" x="258" y="50" rx="2" ry="2"/><rect class="c" x="258" y="66" rx="2" ry="2"/><rect class="c c15" x="258" y="82" rx="2" ry="2"/><rect class="c c16" x="258" y="98" rx="2" ry="2"/><rect class="c c17" x="274" y="2" rx="2" ry="2"/><rect class="c" x="274" y="18" rx="2" ry="2"/><rect class="c" x="274" y="34" rx="2" ry="2"/><rect class="c" x="274" y="50" rx="2" ry="2"/><rect class="c" x="274" y="66" rx="2" ry="2"/><rect class="c" x="274" y="82" rx="2" ry="2"/><rect class="c c18" x="274" y="98" rx="2" ry="2"/><rect class="c" x="290" y="2" rx="2" ry="2"/><rect class="c" x="290" y="18" rx="2" ry="2"/><rect class="c" x="290" y="34" rx="2" ry="2"/><rect class="c" x="290" y="50" rx="2" ry="2"/><rect class="c" x="290" y="66" rx="2" ry="2"/><rect class="c" x="290" y="82" rx="2" ry="2"/><rect class="c" x="290" y="98" rx="2" ry="2"/><rect class="c" x="306" y="2" rx="2" ry="2"/><rect class="c" x="306" y="18" rx="2" ry="2"/><rect class="c" x="306" y="34" rx="2" ry="2"/><rect class="c" x="306" y="50" rx="2" ry="2"/><rect class="c" x="306" y="66" rx="2" ry="2"/><rect class="c" x="306" y="82" rx="2" ry="2"/><rect class="c" x="306" y="98" rx="2" ry="2"/><rect class="c" x="322" y="2" rx="2" ry="2"/><rect class="c" x="322" y="18" rx="2" ry="2"/><rect class="c" x="322" y="34" rx="2" ry="2"/><rect class="c" x="322" y="50" rx="2" ry="2"/><rect class="c" x="322" y="66" rx="2" ry="2"/><rect class="c" x="322" y="82" rx="2" ry="2"/><rect class="c" x="322" y="98" rx="2" ry="2"/><rect class="c" x="338" y="2" rx="2" ry="2"/><rect class="c" x="338" y="18" rx="2" ry="2"/><rect class="c" x="338" y="34" rx="2" ry="2"/><rect class="c" x="338" y="50" rx="2" ry="2"/><rect class="c" x="338" y="66" rx="2" ry="2"/><rect class="c" x="338" y="82" rx="2" ry="2"/><rect class="c c19" x="338" y="98" rx="2" ry="2"/><rect class="c" x="354" y="2" rx="2" ry="2"/><rect class="c" x="354" y="18" rx="2" ry="2"/><rect class="c" x="354" y="34" rx="2" ry="2"/><rect class="c" x="354" y="50" rx="2" ry="2"/><rect class="c" x="354" y="66" rx="2" ry="2"/><rect class="c" x="354" y="82" rx="2" ry="2"/><rect class="c" x="354" y="98" rx="2" ry="2"/><rect class="c" x="370" y="2" rx="2" ry="2"/><rect class="c" x="370" y="18" rx="2" ry="2"/><rect class="c" x="370" y="34" rx="2" ry="2"/><rect class="c" x="370" y="50" rx="2" ry="2"/><rect class="c" x="370" y="66" rx="2" ry="2"/><rect class="c" x="370" y="82" rx="2" ry="2"/><rect class="c" x="370" y="98" rx="2" ry="2"/><rect class="c" x="386" y="2" rx="2" ry="2"/><rect class="c" x="386" y="18" rx="2" ry="2"/><rect class="c" x="386" y="34" rx="2" ry="2"/><rect class="c" x="386" y="50" rx="2" ry="2"/><rect class="c" x="386" y="66" rx="2" ry="2"/><rect class="c" x="386" y="82" rx="2" ry="2"/><rect class="c" x="386" y="98" rx="2" ry="2"/><rect class="c" x="402" y="2" rx="2" ry="2"/><rect class="c c1a" x="402" y="18" rx="2" ry="2"/><rect class="c" x="402" y="34" rx="2" ry="2"/><rect class="c" x="402" y="50" rx="2" ry="2"/><rect class="c" x="402" y="66" rx="2" ry="2"/><rect class="c" x="402" y="82" rx="2" ry="2"/><rect class="c" x="402" y="98" rx="2" ry="2"/><rect class="c" x="418" y="2" rx="2" ry="2"/><rect class="c" x="418" y="18" rx="2" ry="2"/><rect class="c" x="418" y="34" rx="2" ry="2"/><rect class="c c1b" x="418" y="50" rx="2" ry="2"/><rect class="c" x="418" y="66" rx="2" ry="2"/><rect class="c" x="418" y="82" rx="2" ry="2"/><rect class="c" x="418" y="98" rx="2" ry="2"/><rect class="c" x="434" y="2" rx="2" ry="2"/><rect class="c" x="434" y="18" rx="2" ry="2"/><rect class="c c1c" x="434" y="34" rx="2" ry="2"/><rect class="c" x="434" y="50" rx="2" ry="2"/><rect class="c c1d" x="434" y="66" rx="2" ry="2"/><rect class="c c1e" x="434" y="82" rx="2" ry="2"/><rect class="c" x="434" y="98" rx="2" ry="2"/><rect class="c" x="450" y="2" rx="2" ry="2"/><rect class="c" x="450" y="18" rx="2" ry="2"/><rect class="c" x="450" y="34" rx="2" ry="2"/><rect class="c" x="450" y="50" rx="2" ry="2"/><rect class="c" x="450" y="66" rx="2" ry="2"/><rect class="c" x="450" y="82" rx="2" ry="2"/><rect class="c" x="450" y="98" rx="2" ry="2"/><rect class="c" x="466" y="2" rx="2" ry="2"/><rect class="c" x="466" y="18" rx="2" ry="2"/><rect class="c" x="466" y="34" rx="2" ry="2"/><rect class="c" x="466" y="50" rx="2" ry="2"/><rect class="c" x="466" y="66" rx="2" ry="2"/><rect class="c" x="466" y="82" rx="2" ry="2"/><rect class="c" x="466" y="98" rx="2" ry="2"/><rect class="c" x="482" y="2" rx="2" ry="2"/><rect class="c" x="482" y="18" rx="2" ry="2"/><rect class="c" x="482" y="34" rx="2" ry="2"/><rect class="c" x="482" y="50" rx="2" ry="2"/><rect class="c" x="482" y="66" rx="2" ry="2"/><rect class="c" x="482" y="82" rx="2" ry="2"/><rect class="c" x="482" y="98" rx="2" ry="2"/><rect class="c" x="498" y="2" rx="2" ry="2"/><rect class="c" x="498" y="18" rx="2" ry="2"/><rect class="c" x="498" y="34" rx="2" ry="2"/><rect class="c" x="498" y="50" rx="2" ry="2"/><rect class="c" x="498" y="66" rx="2" ry="2"/><rect class="c" x="498" y="82" rx="2" ry="2"/><rect class="c" x="498" y="98" rx="2" ry="2"/><rect class="c" x="514" y="2" rx="2" ry="2"/><rect class="c" x="514" y="18" rx="2" ry="2"/><rect class="c" x="514" y="34" rx="2" ry="2"/><rect class="c" x="514" y="50" rx="2" ry="2"/><rect class="c" x="514" y="66" rx="2" ry="2"/><rect class="c" x="514" y="82" rx="2" ry="2"/><rect class="c" x="514" y="98" rx="2" ry="2"/><rect class="c" x="530" y="2" rx="2" ry="2"/><rect class="c" x="530" y="18" rx="2" ry="2"/><rect class="c" x="530" y="34" rx="2" ry="2"/><rect class="c" x="530" y="50" rx="2" ry="2"/><rect class="c" x="530" y="66" rx="2" ry="2"/><rect class="c" x="530" y="82" rx="2" ry="2"/><rect class="c" x="530" y="98" rx="2" ry="2"/><rect class="c" x="546" y="2" rx="2" ry="2"/><rect class="c" x="546" y="18" rx="2" ry="2"/><rect class="c" x="546" y="34" rx="2" ry="2"/><rect class="c" x="546" y="50" rx="2" ry="2"/><rect class="c" x="546" y="66" rx="2" ry="2"/><rect class="c" x="546" y="82" rx="2" ry="2"/><rect class="c c1f" x="546" y="98" rx="2" ry="2"/><rect class="c" x="562" y="2" rx="2" ry="2"/><rect class="c" x="562" y="18" rx="2" ry="2"/><rect class="c" x="562" y="34" rx="2" ry="2"/><rect class="c" x="562" y="50" rx="2" ry="2"/><rect class="c" x="562" y="66" rx="2" ry="2"/><rect class="c" x="562" y="82" rx="2" ry="2"/><rect class="c" x="562" y="98" rx="2" ry="2"/><rect class="c" x="578" y="2" rx="2" ry="2"/><rect class="c" x="578" y="18" rx="2" ry="2"/><rect class="c" x="578" y="34" rx="2" ry="2"/><rect class="c" x="578" y="50" rx="2" ry="2"/><rect class="c" x="578" y="66" rx="2" ry="2"/><rect class="c" x="578" y="82" rx="2" ry="2"/><rect class="c" x="578" y="98" rx="2" ry="2"/><rect class="c c1g" x="594" y="2" rx="2" ry="2"/><rect class="c" x="594" y="18" rx="2" ry="2"/><rect class="c c1h" x="594" y="34" rx="2" ry="2"/><rect class="c" x="594" y="50" rx="2" ry="2"/><rect class="c" x="594" y="66" rx="2" ry="2"/><rect class="c" x="594" y="82" rx="2" ry="2"/><rect class="c" x="594" y="98" rx="2" ry="2"/><rect class="c" x="610" y="2" rx="2" ry="2"/><rect class="c" x="610" y="18" rx="2" ry="2"/><rect class="c" x="610" y="34" rx="2" ry="2"/><rect class="c" x="610" y="50" rx="2" ry="2"/><rect class="c" x="610" y="66" rx="2" ry="2"/><rect class="c c1i" x="610" y="82" rx="2" ry="2"/><rect class="c c1j" x="610" y="98" rx="2" ry="2"/><rect class="c c1k" x="626" y="2" rx="2" ry="2"/><rect class="c c1l" x="626" y="18" rx="2" ry="2"/><rect class="c" x="626" y="34" rx="2" ry="2"/><rect class="c" x="626" y="50" rx="2" ry="2"/><rect class="c" x="626" y="66" rx="2" ry="2"/><rect class="c" x="626" y="82" rx="2" ry="2"/><rect class="c" x="626" y="98" rx="2" ry="2"/><rect class="c" x="642" y="2" rx="2" ry="2"/><rect class="c" x="642" y="18" rx="2" ry="2"/><rect class="c" x="642" y="34" rx="2" ry="2"/><rect class="c" x="642" y="50" rx="2" ry="2"/><rect class="c" x="642" y="66" rx="2" ry="2"/><rect class="c" x="642" y="82" rx="2" ry="2"/><rect class="c" x="642" y="98" rx="2" ry="2"/><rect class="c c1m" x="658" y="2" rx="2" ry="2"/><rect class="c c1n" x="658" y="18" rx="2" ry="2"/><rect class="c" x="658" y="34" rx="2" ry="2"/><rect class="c c1o" x="658" y="50" rx="2" ry="2"/><rect class="c c1p" x="658" y="66" rx="2" ry="2"/><rect class="c" x="658" y="82" rx="2" ry="2"/><rect class="c" x="658" y="98" rx="2" ry="2"/><rect class="c" x="674" y="2" rx="2" ry="2"/><rect class="c" x="674" y="18" rx="2" ry="2"/><rect class="c" x="674" y="34" rx="2" ry="2"/><rect class="c" x="674" y="50" rx="2" ry="2"/><rect class="c" x="674" y="66" rx="2" ry="2"/><rect class="c" x="674" y="82" rx="2" ry="2"/><rect class="c" x="674" y="98" rx="2" ry="2"/><rect class="c" x="690" y="2" rx="2" ry="2"/><rect class="c" x="690" y="18" rx="2" ry="2"/><rect class="c" x="690" y="34" rx="2" ry="2"/><rect class="c" x="690" y="50" rx="2" ry="2"/><rect class="c" x="690" y="66" rx="2" ry="2"/><rect class="c" x="690" y="82" rx="2" ry="2"/><rect class="c" x="690" y="98" rx="2" ry="2"/><rect class="c" x="706" y="2" rx="2" ry="2"/><rect class="c" x="706" y="18" rx="2" ry="2"/><rect class="c" x="706" y="34" rx="2" ry="2"/><rect class="c" x="706" y="50" rx="2" ry="2"/><rect class="c c1q" x="706" y="66" rx="2" ry="2"/><rect class="c c1r" x="706" y="82" rx="2" ry="2"/><rect class="c" x="706" y="98" rx="2" ry="2"/><rect class="c" x="722" y="2" rx="2" ry="2"/><rect class="c" x="722" y="18" rx="2" ry="2"/><rect class="c" x="722" y="34" rx="2" ry="2"/><rect class="c" x="722" y="50" rx="2" ry="2"/><rect class="c" x="722" y="66" rx="2" ry="2"/><rect class="c" x="722" y="82" rx="2" ry="2"/><rect class="c" x="722" y="98" rx="2" ry="2"/><rect class="c" x="738" y="2" rx="2" ry="2"/><rect class="c" x="738" y="18" rx="2" ry="2"/><rect class="c" x="738" y="34" rx="2" ry="2"/><rect class="c" x="738" y="50" rx="2" ry="2"/><rect class="c" x="738" y="66" rx="2" ry="2"/><rect class="c" x="738" y="82" rx="2" ry="2"/><rect class="c" x="738" y="98" rx="2" ry="2"/><rect class="c" x="754" y="2" rx="2" ry="2"/><rect class="c" x="754" y="18" rx="2" ry="2"/><rect class="c" x="754" y="34" rx="2" ry="2"/><rect class="c" x="754" y="50" rx="2" ry="2"/><rect class="c" x="754" y="66" rx="2" ry="2"/><rect class="c" x="754" y="82" rx="2" ry="2"/><rect class="c" x="754" y="98" rx="2" ry="2"/><rect class="c" x="770" y="2" rx="2" ry="2"/><rect class="c" x="770" y="18" rx="2" ry="2"/><rect class="c" x="770" y="34" rx="2" ry="2"/><rect class="c" x="770" y="50" rx="2" ry="2"/><rect class="c" x="770" y="66" rx="2" ry="2"/><rect class="c" x="770" y="82" rx="2" ry="2"/><rect class="c" x="770" y="98" rx="2" ry="2"/><rect class="c" x="786" y="2" rx="2" ry="2"/><rect class="c" x="786" y="18" rx="2" ry="2"/><rect class="c" x="786" y="34" rx="2" ry="2"/><rect class="c" x="786" y="50" rx="2" ry="2"/><rect class="c" x="786" y="66" rx="2" ry="2"/><rect class="c" x="786" y="82" rx="2" ry="2"/><rect class="c" x="786" y="98" rx="2" ry="2"/><rect class="c" x="802" y="2" rx="2" ry="2"/><rect class="c" x="802" y="18" rx="2" ry="2"/><rect class="c" x="802" y="34" rx="2" ry="2"/><rect class="c" x="802" y="50" rx="2" ry="2"/><rect class="c" x="802" y="66" rx="2" ry="2"/><rect class="c" x="802" y="82" rx="2" ry="2"/><rect class="c" x="802" y="98" rx="2" ry="2"/><rect class="c" x="818" y="2" rx="2" ry="2"/><rect class="c" x="818" y="18" rx="2" ry="2"/><rect class="c" x="818" y="34" rx="2" ry="2"/><rect class="c c1s" x="818" y="50" rx="2" ry="2"/><rect class="c" x="818" y="66" rx="2" ry="2"/><rect class="c" x="818" y="82" rx="2" ry="2"/><rect class="c" x="818" y="98" rx="2" ry="2"/><rect class="c" x="834" y="2" rx="2" ry="2"/><rect class="c" x="834" y="18" rx="2" ry="2"/><rect class="u u0" height="12" width="509.4" x="0.0" y="144"/><rect class="u u1" height="12" width="196.3" x="508.8" y="144"/><rect class="u u2" height="12" width="91.9" x="704.5" y="144"/><rect class="u u3" height="12" width="52.8" x="795.8" y="144"/><rect class="s s0" x="0.8" y="0.8" width="14.4" height="14.4" rx="4.5" ry="4.5"/><rect class="s s1" x="1.8" y="1.8" width="12.3" height="12.3" rx="4.1" ry="4.1"/><rect class="s s2" x="2.6" y="2.6" width="10.8" height="10.8" rx="3.6" ry="3.6"/><rect class="s s3" x="3.0" y="3.0" width="9.9" height="9.9" rx="3.3" ry="3.3"/></svg>