<svg viewBox="-16 -32 880 192" width="880" height="192" xmlns="http://www.w3.org/2000/svg"><desc>Generated with https://github.com/Platane/snk</desc><style>:root{--cb:#1b1f230a;--cs:white;--ce:#0a0e12;--c0:#0a0e12;--c1:#1445a2;--c2:#1d65ee;--c3:#1f4eff;--c4:#466dff}.c{shape-rendering:geometricPrecision;fill:var(--ce);stroke-width:1px;stroke:var(--cb);animation:none 35500ms linear infinite;width:12px;height:12px}@keyframes c0{0.27%{fill:var(--c1)}0.29%,100%{fill:var(--ce)}}.c.c0{fill:var(--c1);animation-name:c0}@keyframes c1{24.22%{fill:var(--c1)}24.24%,100%{fill:var(--ce)}}.c.c1{fill:var(--c1);animation-name:c1}@keyframes c2{2.81%{fill:var(--c1)}2.83%,100%{fill:var(--ce)}}.c.c2{fill:var(--c1);animation-name:c2}@keyframes c3{3.09%{fill:var(--c1)}3.11%,100%{fill:var(--ce)}}.c.c3{fill:var(--c1);animation-name:c3}@keyframes c4{97.74%{fill:var(--c4)}97.76%,100%{fill:var(--ce)}}.c.c4{fill:var(--c4);animation-name:c4}@keyframes c5{1.12%{fill:var(--c1)}1.14%,100%{fill:var(--ce)}}.c.c5{fill:var(--c1);animation-name:c5}@keyframes c6{2.53%{fill:var(--c1)}2.55%,100%{fill:var(--ce)}}.c.c6{fill:var(--c1);animation-name:c6}@keyframes c7{3.37%{fill:var(--c1)}3.39%,100%{fill:var(--ce)}}.c.c7{fill:var(--c1);animation-name:c7}@keyframes c8{74.64%{fill:var(--c3)}74.66%,100%{fill:var(--ce)}}.c.c8{fill:var(--c3);animation-name:c8}@keyframes c9{1.96%{fill:var(--c1)}1.98%,100%{fill:var(--ce)}}.c.c9{fill:var(--c1);animation-name:c9}@keyframes ca{3.93%{fill:var(--c1)}3.95%,100%{fill:var(--ce)}}.c.ca{fill:var(--c1);animation-name:ca}@keyframes cb{96.89%{fill:var(--c4)}96.91%,100%{fill:var(--ce)}}.c.cb{fill:var(--c4);animation-name:cb}@keyframes cc{22.53%{fill:var(--c1)}22.55%,100%{fill:var(--ce)}}.c.cc{fill:var(--c1);animation-name:cc}@keyframes cd{67.88%{fill:var(--c2)}67.9%,100%{fill:var(--ce)}}.c.cd{fill:var(--c2);animation-name:cd}@keyframes ce{4.5%{fill:var(--c1)}4.52%,100%{fill:var(--ce)}}.c.ce{fill:var(--c1);animation-name:ce}@keyframes cf{73.51%{fill:var(--c3)}73.53%,100%{fill:var(--ce)}}.c.cf{fill:var(--c3);animation-name:cf}@keyframes cg{67.31%{fill:var(--c2)}67.33%,100%{fill:var(--ce)}}.c.cg{fill:var(--c2);animation-name:cg}@keyframes ch{94.36%{fill:var(--c4)}94.38%,100%{fill:var(--ce)}}.c.ch{fill:var(--c4);animation-name:ch}@keyframes ci{21.12%{fill:var(--c1)}21.14%,100%{fill:var(--ce)}}.c.ci{fill:var(--c1);animation-name:ci}@keyframes cj{65.91%{fill:var(--c2)}65.93%,100%{fill:var(--ce)}}.c.cj{fill:var(--c2);animation-name:cj}@keyframes ck{95.48%{fill:var(--c4)}95.5%,100%{fill:var(--ce)}}.c.ck{fill:var(--c4);animation-name:ck}@keyframes cl{6.75%{fill:var(--c1)}6.77%,100%{fill:var(--ce)}}.c.cl{fill:var(--c1);animation-name:cl}@keyframes cm{6.47%{fill:var(--c1)}6.49%,100%{fill:var(--ce)}}.c.cm{fill:var(--c1);animation-name:cm}@keyframes cn{68.72%{fill:var(--c3)}68.74%,100%{fill:var(--ce)}}.c.cn{fill:var(--c3);animation-name:cn}@keyframes co{72.38%{fill:var(--c3)}72.4%,100%{fill:var(--ce)}}.c.co{fill:var(--c3);animation-name:co}@keyframes cp{65.34%{fill:var(--c2)}65.36%,100%{fill:var(--ce)}}.c.cp{fill:var(--c2);animation-name:cp}@keyframes cq{5.91%{fill:var(--c1)}5.93%,100%{fill:var(--ce)}}.c.cq{fill:var(--c1);animation-name:cq}@keyframes cr{63.65%{fill:var(--c2)}63.67%,100%{fill:var(--ce)}}.c.cr{fill:var(--c2);animation-name:cr}@keyframes cs{63.37%{fill:var(--c2)}63.39%,100%{fill:var(--ce)}}.c.cs{fill:var(--c2);animation-name:cs}@keyframes ct{62.81%{fill:var(--c2)}62.83%,100%{fill:var(--ce)}}.c.ct{fill:var(--c2);animation-name:ct}@keyframes cu{62.53%{fill:var(--c2)}62.55%,100%{fill:var(--ce)}}.c.cu{fill:var(--c2);animation-name:cu}@keyframes cv{61.96%{fill:var(--c2)}61.98%,100%{fill:var(--ce)}}.c.cv{fill:var(--c2);animation-name:cv}@keyframes cw{64.5%{fill:var(--c2)}64.52%,100%{fill:var(--ce)}}.c.cw{fill:var(--c2);animation-name:cw}@keyframes cx{70.98%{fill:var(--c3)}71%,100%{fill:var(--ce)}}.c.cx{fill:var(--c3);animation-name:cx}@keyframes cy{70.69%{fill:var(--c3)}70.71%,100%{fill:var(--ce)}}.c.cy{fill:var(--c3);animation-name:cy}@keyframes cz{9%{fill:var(--c1)}9.02%,100%{fill:var(--ce)}}.c.cz{fill:var(--c1);animation-name:cz}@keyframes c10{18.3%{fill:var(--c1)}18.32%,100%{fill:var(--ce)}}.c.c10{fill:var(--c1);animation-name:c10}@keyframes c11{10.13%{fill:var(--c1)}10.15%,100%{fill:var(--ce)}}.c.c11{fill:var(--c1);animation-name:c11}@keyframes c12{10.41%{fill:var(--c1)}10.43%,100%{fill:var(--ce)}}.c.c12{fill:var(--c1);animation-name:c12}@keyframes c13{18.02%{fill:var(--c1)}18.04%,100%{fill:var(--ce)}}.c.c13{fill:var(--c1);animation-name:c13}@keyframes c14{10.69%{fill:var(--c1)}10.71%,100%{fill:var(--ce)}}.c.c14{fill:var(--c1);animation-name:c14}@keyframes c15{11.82%{fill:var(--c1)}11.84%,100%{fill:var(--ce)}}.c.c15{fill:var(--c1);animation-name:c15}@keyframes c16{15.48%{fill:var(--c1)}15.5%,100%{fill:var(--ce)}}.c.c16{fill:var(--c1);animation-name:c16}@keyframes c17{14.07%{fill:var(--c1)}14.09%,100%{fill:var(--ce)}}.c.c17{fill:var(--c1);animation-name:c17}@keyframes c18{14.64%{fill:var(--c1)}14.66%,100%{fill:var(--ce)}}.c.c18{fill:var(--c1);animation-name:c18}@keyframes c19{57.45%{fill:var(--c2)}57.47%,100%{fill:var(--ce)}}.c.c19{fill:var(--c2);animation-name:c19}@keyframes c1a{57.74%{fill:var(--c2)}57.76%,100%{fill:var(--ce)}}.c.c1a{fill:var(--c2);animation-name:c1a}@keyframes c1b{34.07%{fill:var(--c1)}34.09%,100%{fill:var(--ce)}}.c.c1b{fill:var(--c1);animation-name:c1b}@keyframes c1c{53.51%{fill:var(--c2)}53.53%,100%{fill:var(--ce)}}.c.c1c{fill:var(--c2);animation-name:c1c}@keyframes c1d{41.68%{fill:var(--c1)}41.7%,100%{fill:var(--ce)}}.c.c1d{fill:var(--c1);animation-name:c1d}@keyframes c1e{35.48%{fill:var(--c1)}35.5%,100%{fill:var(--ce)}}.c.c1e{fill:var(--c1);animation-name:c1e}@keyframes c1f{85.91%{fill:var(--c3)}85.93%,100%{fill:var(--ce)}}.c.c1f{fill:var(--c3);animation-name:c1f}@keyframes c1g{40.55%{fill:var(--c1)}40.57%,100%{fill:var(--ce)}}.c.c1g{fill:var(--c1);animation-name:c1g}@keyframes c1h{40.84%{fill:var(--c1)}40.86%,100%{fill:var(--ce)}}.c.c1h{fill:var(--c1);animation-name:c1h}@keyframes c1i{39.99%{fill:var(--c1)}40.01%,100%{fill:var(--ce)}}.c.c1i{fill:var(--c1);animation-name:c1i}@keyframes c1j{39.71%{fill:var(--c1)}39.73%,100%{fill:var(--ce)}}.c.c1j{fill:var(--c1);animation-name:c1j}@keyframes c1k{51.54%{fill:var(--c2)}51.56%,100%{fill:var(--ce)}}.c.c1k{fill:var(--c2);animation-name:c1k}@keyframes c1l{36.61%{fill:var(--c1)}36.63%,100%{fill:var(--ce)}}.c.c1l{fill:var(--c1);animation-name:c1l}@keyframes c1m{37.45%{fill:var(--c1)}37.47%,100%{fill:var(--ce)}}.c.c1m{fill:var(--c1);animation-name:c1m}@keyframes c1n{37.74%{fill:var(--c1)}37.76%,100%{fill:var(--ce)}}.c.c1n{fill:var(--c1);animation-name:c1n}@keyframes c1o{45.91%{fill:var(--c1)}45.93%,100%{fill:var(--ce)}}.c.c1o{fill:var(--c1);animation-name:c1o}@keyframes c1p{48.16%{fill:var(--c2)}48.18%,100%{fill:var(--ce)}}.c.c1p{fill:var(--c2);animation-name:c1p}@keyframes c1q{46.19%{fill:var(--c1)}46.21%,100%{fill:var(--ce)}}.c.c1q{fill:var(--c1);animation-name:c1q}@keyframes c1r{47.03%{fill:var(--c1)}47.05%,100%{fill:var(--ce)}}.c.c1r{fill:var(--c1);animation-name:c1r}.u{transform-origin:0 0;transform:scale(0,1);animation:none linear 35500ms infinite}@keyframes u0{0.27%{transform:scale(0.000,1)}0.29%,1.12%{transform:scale(0.026,1)}1.14%,1.96%{transform:scale(0.053,1)}1.98%,2.53%{transform:scale(0.079,1)}2.55%,2.81%{transform:scale(0.105,1)}2.83%,3.09%{transform:scale(0.132,1)}3.11%,3.37%{transform:scale(0.158,1)}3.39%,3.93%{transform:scale(0.184,1)}3.95%,4.5%{transform:scale(0.211,1)}4.52%,5.91%{transform:scale(0.237,1)}5.93%,6.47%{transform:scale(0.263,1)}6.49%,6.75%{transform:scale(0.289,1)}6.77%,9%{transform:scale(0.316,1)}9.02%,10.13%{transform:scale(0.342,1)}10.15%,10.41%{transform:scale(0.368,1)}10.43%,10.69%{transform:scale(0.395,1)}10.71%,11.82%{transform:scale(0.421,1)}11.84%,14.07%{transform:scale(0.447,1)}14.09%,14.64%{transform:scale(0.474,1)}14.66%,15.48%{transform:scale(0.500,1)}15.5%,18.02%{transform:scale(0.526,1)}18.04%,18.3%{transform:scale(0.553,1)}18.32%,21.12%{transform:scale(0.579,1)}21.14%,22.53%{transform:scale(0.605,1)}22.55%,24.22%{transform:scale(0.632,1)}24.24%,34.07%{transform:scale(0.658,1)}34.09%,35.48%{transform:scale(0.684,1)}35.5%,36.61%{transform:scale(0.711,1)}36.63%,37.45%{transform:scale(0.737,1)}37.47%,37.74%{transform:scale(0.763,1)}37.76%,39.71%{transform:scale(0.789,1)}39.73%,39.99%{transform:scale(0.816,1)}40.01%,40.55%{transform:scale(0.842,1)}40.57%,40.84%{transform:scale(0.868,1)}40.86%,41.68%{transform:scale(0.895,1)}41.7%,45.91%{transform:scale(0.921,1)}45.93%,46.19%{transform:scale(0.947,1)}46.21%,47.03%{transform:scale(0.974,1)}47.05%,100%{transform:scale(1.000,1)}}.u.u0{fill:var(--c1);animation-name:u0;transform-origin:0.0px 0}@keyframes u1{48.16%{transform:scale(0.000,1)}48.18%,51.54%{transform:scale(0.067,1)}51.56%,53.51%{transform:scale(0.133,1)}53.53%,57.45%{transform:scale(0.200,1)}57.47%,57.74%{transform:scale(0.267,1)}57.76%,61.96%{transform:scale(0.333,1)}61.98%,62.53%{transform:scale(0.400,1)}62.55%,62.81%{transform:scale(0.467,1)}62.83%,63.37%{transform:scale(0.533,1)}63.39%,63.65%{transform:scale(0.600,1)}63.67%,64.5%{transform:scale(0.667,1)}64.52%,65.34%{transform:scale(0.733,1)}65.36%,65.91%{transform:scale(0.800,1)}65.93%,67.31%{transform:scale(0.867,1)}67.33%,67.88%{transform:scale(0.933,1)}67.9%,100%{transform:scale(1.000,1)}}.u.u1{fill:var(--c2);animation-name:u1;transform-origin:503.5px 0}@keyframes u2{68.72%{transform:scale(0.000,1)}68.74%,70.69%{transform:scale(0.143,1)}70.71%,70.98%{transform:scale(0.286,1)}71%,72.38%{transform:scale(0.429,1)}72.4%,73.51%{transform:scale(0.571,1)}73.53%,74.64%{transform:scale(0.714,1)}74.66%,85.91%{transform:scale(0.857,1)}85.93%,100%{transform:scale(1.000,1)}}.u.u2{fill:var(--c3);animation-name:u2;transform-origin:702.3px 0}@keyframes u3{94.36%{transform:scale(0.000,1)}94.38%,95.48%{transform:scale(0.250,1)}95.5%,96.89%{transform:scale(0.500,1)}96.91%,97.74%{transform:scale(0.750,1)}97.76%,100%{transform:scale(1.000,1)}}.u.u3{fill:var(--c4);animation-name:u3;transform-origin:795.0px 0}.s{shape-rendering:geometricPrecision;fill:var(--cs);animation:none linear 35500ms infinite}@keyframes s0{0%,99.72%{transform:translate(0px,-16px)}0.28%{transform:translate(0px,0px)}0.56%{transform:translate(16px,0px)}0.85%{transform:translate(16px,16px)}1.13%,98.03%{transform:translate(32px,16px)}1.41%{transform:translate(32px,32px)}1.69%,74.37%{transform:translate(48px,32px)}1.97%{transform:translate(48px,48px)}2.25%{transform:translate(32px,48px)}2.54%{transform:translate(32px,64px)}2.82%{transform:translate(16px,64px)}3.1%{transform:translate(16px,80px)}3.66%{transform:translate(48px,80px)}3.94%{transform:translate(48px,96px)}4.51%,25.92%{transform:translate(80px,96px)}4.79%,26.2%{transform:translate(80px,112px)}5.63%{transform:translate(128px,112px)}6.2%{transform:translate(128px,80px)}6.48%,68.45%,94.93%{transform:translate(112px,80px)}6.76%{transform:translate(112px,64px)}7.04%,66.76%{transform:translate(128px,64px)}7.61%,66.2%{transform:translate(128px,32px)}8.17%{transform:translate(160px,32px)}8.73%,62.25%{transform:translate(160px,64px)}9.86%{transform:translate(224px,64px)}10.42%{transform:translate(224px,96px)}13.24%{transform:translate(384px,96px)}14.08%{transform:translate(384px,48px)}14.37%{transform:translate(400px,48px)}14.93%{transform:translate(400px,16px)}15.49%{transform:translate(368px,16px)}15.77%{transform:translate(368px,0px)}18.31%{transform:translate(224px,0px)}18.59%{transform:translate(224px,-16px)}20.56%{transform:translate(112px,-16px)}21.13%,65.63%,96.06%{transform:translate(112px,16px)}21.69%{transform:translate(80px,16px)}22.54%,67.61%{transform:translate(80px,64px)}23.94%{transform:translate(0px,64px)}24.23%{transform:translate(0px,80px)}25.35%{transform:translate(64px,80px)}25.63%{transform:translate(64px,96px)}33.8%{transform:translate(512px,112px)}34.08%{transform:translate(512px,96px)}34.93%{transform:translate(560px,96px)}35.21%{transform:translate(560px,80px)}36.34%{transform:translate(624px,80px)}36.62%{transform:translate(624px,64px)}37.46%{transform:translate(672px,64px)}37.75%{transform:translate(672px,80px)}38.03%{transform:translate(656px,80px)}39.15%{transform:translate(656px,16px)}39.72%{transform:translate(624px,16px)}40%{transform:translate(624px,0px)}40.56%{transform:translate(592px,0px)}40.85%{transform:translate(592px,16px)}41.41%{transform:translate(560px,16px)}41.69%{transform:translate(560px,32px)}45.63%{transform:translate(784px,32px)}45.92%{transform:translate(784px,48px)}46.48%{transform:translate(816px,48px)}47.04%{transform:translate(816px,80px)}47.32%{transform:translate(800px,80px)}48.17%{transform:translate(800px,32px)}51.27%{transform:translate(624px,32px)}51.55%{transform:translate(624px,48px)}51.83%{transform:translate(608px,48px)}52.68%{transform:translate(608px,0px)}56.34%{transform:translate(400px,0px)}57.75%{transform:translate(400px,80px)}61.97%{transform:translate(160px,80px)}62.54%{transform:translate(144px,64px)}63.66%{transform:translate(144px,0px)}64.23%,71.55%{transform:translate(176px,0px)}64.51%{transform:translate(176px,16px)}65.92%{transform:translate(112px,32px)}67.89%{transform:translate(80px,80px)}68.73%{transform:translate(112px,96px)}69.86%{transform:translate(176px,96px)}72.96%{transform:translate(96px,0px)}73.52%{transform:translate(96px,32px)}74.93%{transform:translate(48px,0px)}84.23%{transform:translate(576px,0px)}85.92%{transform:translate(576px,96px)}94.37%{transform:translate(96px,96px)}94.65%{transform:translate(96px,80px)}96.9%{transform:translate(64px,16px)}97.18%{transform:translate(64px,0px)}97.75%{transform:translate(32px,0px)}98.31%{transform:translate(48px,16px)}98.87%{transform:translate(48px,-16px)}}.s.s0{transform:translate(0px,-16px);animation-name:s0}@keyframes s1{0%,99.72%{transform:translate(16px,-16px)}0.28%{transform:translate(0px,-16px)}0.56%{transform:translate(0px,0px)}0.85%{transform:translate(16px,0px)}1.13%{transform:translate(16px,16px)}1.41%,98.31%{transform:translate(32px,16px)}1.69%{transform:translate(32px,32px)}1.97%,74.65%{transform:translate(48px,32px)}2.25%{transform:translate(48px,48px)}2.54%{transform:translate(32px,48px)}2.82%{transform:translate(32px,64px)}3.1%{transform:translate(16px,64px)}3.38%{transform:translate(16px,80px)}3.94%{transform:translate(48px,80px)}4.23%{transform:translate(48px,96px)}4.79%,26.2%{transform:translate(80px,96px)}5.07%,26.48%{transform:translate(80px,112px)}5.92%{transform:translate(128px,112px)}6.48%{transform:translate(128px,80px)}6.76%,68.73%,95.21%{transform:translate(112px,80px)}7.04%{transform:translate(112px,64px)}7.32%,67.04%{transform:translate(128px,64px)}7.89%,66.48%{transform:translate(128px,32px)}8.45%{transform:translate(160px,32px)}9.01%,62.54%{transform:translate(160px,64px)}10.14%{transform:translate(224px,64px)}10.7%{transform:translate(224px,96px)}13.52%{transform:translate(384px,96px)}14.37%{transform:translate(384px,48px)}14.65%{transform:translate(400px,48px)}15.21%{transform:translate(400px,16px)}15.77%{transform:translate(368px,16px)}16.06%{transform:translate(368px,0px)}18.59%{transform:translate(224px,0px)}18.87%{transform:translate(224px,-16px)}20.85%{transform:translate(112px,-16px)}21.41%,65.92%,96.34%{transform:translate(112px,16px)}21.97%{transform:translate(80px,16px)}22.82%,67.89%{transform:translate(80px,64px)}24.23%{transform:translate(0px,64px)}24.51%{transform:translate(0px,80px)}25.63%{transform:translate(64px,80px)}25.92%{transform:translate(64px,96px)}34.08%{transform:translate(512px,112px)}34.37%{transform:translate(512px,96px)}35.21%{transform:translate(560px,96px)}35.49%{transform:translate(560px,80px)}36.62%{transform:translate(624px,80px)}36.9%{transform:translate(624px,64px)}37.75%{transform:translate(672px,64px)}38.03%{transform:translate(672px,80px)}38.31%{transform:translate(656px,80px)}39.44%{transform:translate(656px,16px)}40%{transform:translate(624px,16px)}40.28%{transform:translate(624px,0px)}40.85%{transform:translate(592px,0px)}41.13%{transform:translate(592px,16px)}41.69%{transform:translate(560px,16px)}41.97%{transform:translate(560px,32px)}45.92%{transform:translate(784px,32px)}46.2%{transform:translate(784px,48px)}46.76%{transform:translate(816px,48px)}47.32%{transform:translate(816px,80px)}47.61%{transform:translate(800px,80px)}48.45%{transform:translate(800px,32px)}51.55%{transform:translate(624px,32px)}51.83%{transform:translate(624px,48px)}52.11%{transform:translate(608px,48px)}52.96%{transform:translate(608px,0px)}56.62%{transform:translate(400px,0px)}58.03%{transform:translate(400px,80px)}62.25%{transform:translate(160px,80px)}62.82%{transform:translate(144px,64px)}63.94%{transform:translate(144px,0px)}64.51%,71.83%{transform:translate(176px,0px)}64.79%{transform:translate(176px,16px)}66.2%{transform:translate(112px,32px)}68.17%{transform:translate(80px,80px)}69.01%{transform:translate(112px,96px)}70.14%{transform:translate(176px,96px)}73.24%{transform:translate(96px,0px)}73.8%{transform:translate(96px,32px)}75.21%{transform:translate(48px,0px)}84.51%{transform:translate(576px,0px)}86.2%{transform:translate(576px,96px)}94.65%{transform:translate(96px,96px)}94.93%{transform:translate(96px,80px)}97.18%{transform:translate(64px,16px)}97.46%{transform:translate(64px,0px)}98.03%{transform:translate(32px,0px)}98.59%{transform:translate(48px,16px)}99.15%{transform:translate(48px,-16px)}}.s.s1{transform:translate(16px,-16px);animation-name:s1}@keyframes s2{0%,99.72%{transform:translate(32px,-16px)}0.56%{transform:translate(0px,-16px)}0.85%{transform:translate(0px,0px)}1.13%{transform:translate(16px,0px)}1.41%{transform:translate(16px,16px)}1.69%,98.59%{transform:translate(32px,16px)}1.97%{transform:translate(32px,32px)}2.25%,74.93%{transform:translate(48px,32px)}2.54%{transform:translate(48px,48px)}2.82%{transform:translate(32px,48px)}3.1%{transform:translate(32px,64px)}3.38%{transform:translate(16px,64px)}3.66%{transform:translate(16px,80px)}4.23%{transform:translate(48px,80px)}4.51%{transform:translate(48px,96px)}5.07%,26.48%{transform:translate(80px,96px)}5.35%,26.76%{transform:translate(80px,112px)}6.2%{transform:translate(128px,112px)}6.76%{transform:translate(128px,80px)}7.04%,69.01%,95.49%{transform:translate(112px,80px)}7.32%{transform:translate(112px,64px)}7.61%,67.32%{transform:translate(128px,64px)}8.17%,66.76%{transform:translate(128px,32px)}8.73%{transform:translate(160px,32px)}9.3%,62.82%{transform:translate(160px,64px)}10.42%{transform:translate(224px,64px)}10.99%{transform:translate(224px,96px)}13.8%{transform:translate(384px,96px)}14.65%{transform:translate(384px,48px)}14.93%{transform:translate(400px,48px)}15.49%{transform:translate(400px,16px)}16.06%{transform:translate(368px,16px)}16.34%{transform:translate(368px,0px)}18.87%{transform:translate(224px,0px)}19.15%{transform:translate(224px,-16px)}21.13%{transform:translate(112px,-16px)}21.69%,66.2%,96.62%{transform:translate(112px,16px)}22.25%{transform:translate(80px,16px)}23.1%,68.17%{transform:translate(80px,64px)}24.51%{transform:translate(0px,64px)}24.79%{transform:translate(0px,80px)}25.92%{transform:translate(64px,80px)}26.2%{transform:translate(64px,96px)}34.37%{transform:translate(512px,112px)}34.65%{transform:translate(512px,96px)}35.49%{transform:translate(560px,96px)}35.77%{transform:translate(560px,80px)}36.9%{transform:translate(624px,80px)}37.18%{transform:translate(624px,64px)}38.03%{transform:translate(672px,64px)}38.31%{transform:translate(672px,80px)}38.59%{transform:translate(656px,80px)}39.72%{transform:translate(656px,16px)}40.28%{transform:translate(624px,16px)}40.56%{transform:translate(624px,0px)}41.13%{transform:translate(592px,0px)}41.41%{transform:translate(592px,16px)}41.97%{transform:translate(560px,16px)}42.25%{transform:translate(560px,32px)}46.2%{transform:translate(784px,32px)}46.48%{transform:translate(784px,48px)}47.04%{transform:translate(816px,48px)}47.61%{transform:translate(816px,80px)}47.89%{transform:translate(800px,80px)}48.73%{transform:translate(800px,32px)}51.83%{transform:translate(624px,32px)}52.11%{transform:translate(624px,48px)}52.39%{transform:translate(608px,48px)}53.24%{transform:translate(608px,0px)}56.9%{transform:translate(400px,0px)}58.31%{transform:translate(400px,80px)}62.54%{transform:translate(160px,80px)}63.1%{transform:translate(144px,64px)}64.23%{transform:translate(144px,0px)}64.79%,72.11%{transform:translate(176px,0px)}65.07%{transform:translate(176px,16px)}66.48%{transform:translate(112px,32px)}68.45%{transform:translate(80px,80px)}69.3%{transform:translate(112px,96px)}70.42%{transform:translate(176px,96px)}73.52%{transform:translate(96px,0px)}74.08%{transform:translate(96px,32px)}75.49%{transform:translate(48px,0px)}84.79%{transform:translate(576px,0px)}86.48%{transform:translate(576px,96px)}94.93%{transform:translate(96px,96px)}95.21%{transform:translate(96px,80px)}97.46%{transform:translate(64px,16px)}97.75%{transform:translate(64px,0px)}98.31%{transform:translate(32px,0px)}98.87%{transform:translate(48px,16px)}99.44%{transform:translate(48px,-16px)}}.s.s2{transform:translate(32px,-16px);animation-name:s2}@keyframes s3{0%,99.72%{transform:translate(48px,-16px)}0.85%{transform:translate(0px,-16px)}1.13%{transform:translate(0px,0px)}1.41%{transform:translate(16px,0px)}1.69%{transform:translate(16px,16px)}1.97%,98.87%{transform:translate(32px,16px)}2.25%{transform:translate(32px,32px)}2.54%,75.21%{transform:translate(48px,32px)}2.82%{transform:translate(48px,48px)}3.1%{transform:translate(32px,48px)}3.38%{transform:translate(32px,64px)}3.66%{transform:translate(16px,64px)}3.94%{transform:translate(16px,80px)}4.51%{transform:translate(48px,80px)}4.79%{transform:translate(48px,96px)}5.35%,26.76%{transform:translate(80px,96px)}5.63%,27.04%{transform:translate(80px,112px)}6.48%{transform:translate(128px,112px)}7.04%{transform:translate(128px,80px)}7.32%,69.3%,95.77%{transform:translate(112px,80px)}7.61%{transform:translate(112px,64px)}7.89%,67.61%{transform:translate(128px,64px)}8.45%,67.04%{transform:translate(128px,32px)}9.01%{transform:translate(160px,32px)}9.58%,63.1%{transform:translate(160px,64px)}10.7%{transform:translate(224px,64px)}11.27%{transform:translate(224px,96px)}14.08%{transform:translate(384px,96px)}14.93%{transform:translate(384px,48px)}15.21%{transform:translate(400px,48px)}15.77%{transform:translate(400px,16px)}16.34%{transform:translate(368px,16px)}16.62%{transform:translate(368px,0px)}19.15%{transform:translate(224px,0px)}19.44%{transform:translate(224px,-16px)}21.41%{transform:translate(112px,-16px)}21.97%,66.48%,96.9%{transform:translate(112px,16px)}22.54%{transform:translate(80px,16px)}23.38%,68.45%{transform:translate(80px,64px)}24.79%{transform:translate(0px,64px)}25.07%{transform:translate(0px,80px)}26.2%{transform:translate(64px,80px)}26.48%{transform:translate(64px,96px)}34.65%{transform:translate(512px,112px)}34.93%{transform:translate(512px,96px)}35.77%{transform:translate(560px,96px)}36.06%{transform:translate(560px,80px)}37.18%{transform:translate(624px,80px)}37.46%{transform:translate(624px,64px)}38.31%{transform:translate(672px,64px)}38.59%{transform:translate(672px,80px)}38.87%{transform:translate(656px,80px)}40%{transform:translate(656px,16px)}40.56%{transform:translate(624px,16px)}40.85%{transform:translate(624px,0px)}41.41%{transform:translate(592px,0px)}41.69%{transform:translate(592px,16px)}42.25%{transform:translate(560px,16px)}42.54%{transform:translate(560px,32px)}46.48%{transform:translate(784px,32px)}46.76%{transform:translate(784px,48px)}47.32%{transform:translate(816px,48px)}47.89%{transform:translate(816px,80px)}48.17%{transform:translate(800px,80px)}49.01%{transform:translate(800px,32px)}52.11%{transform:translate(624px,32px)}52.39%{transform:translate(624px,48px)}52.68%{transform:translate(608px,48px)}53.52%{transform:translate(608px,0px)}57.18%{transform:translate(400px,0px)}58.59%{transform:translate(400px,80px)}62.82%{transform:translate(160px,80px)}63.38%{transform:translate(144px,64px)}64.51%{transform:translate(144px,0px)}65.07%,72.39%{transform:translate(176px,0px)}65.35%{transform:translate(176px,16px)}66.76%{transform:translate(112px,32px)}68.73%{transform:translate(80px,80px)}69.58%{transform:translate(112px,96px)}70.7%{transform:translate(176px,96px)}73.8%{transform:translate(96px,0px)}74.37%{transform:translate(96px,32px)}75.77%{transform:translate(48px,0px)}85.07%{transform:translate(576px,0px)}86.76%{transform:translate(576px,96px)}95.21%{transform:translate(96px,96px)}95.49%{transform:translate(96px,80px)}97.75%{transform:translate(64px,16px)}98.03%{transform:translate(64px,0px)}98.59%{transform:translate(32px,0px)}99.15%{transform:translate(48px,16px)}}.s.s3{transform:translate(48px,-16px);animation-name:s3}</style><rect class="c c0" x="2" y="2" rx="2" ry="2"/><rect class="c" x="2" y="18" rx="2" ry="2"/><rect class="c" x="2" y="34" rx="2" ry="2"/><rect class="c" x="2" y="50" rx="2" ry="2"/><rect class="c" x="2" y="66" rx="2" ry="2"/><rect class="c c1" x="2" y="82" rx="2" ry="2"/><rect class="c" x="2" y="98" rx="2" ry="2"/><rect class="c" x="18" y="2" rx="2" ry="2"/><rect class="c" x="18" y="18" rx="2" ry="2"/><rect class="c" x="18" y="34" rx="2" ry="2"/><rect class="c" x="18" y="50" rx="2" ry="2"/><rect class="c c2" x="18" y="66" rx="2" ry="2"/><rect class="c c3" x="18" y="82" rx="2" ry="2"/><rect class="c" x="18" y="98" rx="2" ry="2"/><rect class="c c4" x="34" y="2" rx="2" ry="2"/><rect class="c c5" x="34" y="18" rx="2" ry="2"/><rect class="c" x="34" y="34" rx="2" ry="2"/><rect class="c" x="34" y="50" rx="2" ry="2"/><rect class="c c6" x="34" y="66" rx="2" ry="2"/><rect class="c c7" x="34" y="82" rx="2" ry="2"/><rect class="c" x="34" y="98" rx="2" ry="2"/><rect class="c" x="50" y="2" rx="2" ry="2"/><rect class="c c8" x="50" y="18" rx="2" ry="2"/><rect class="c" x="50" y="34" rx="2" ry="2"/><rect class="c c9" x="50" y="50" rx="2" ry="2"/><rect class="c" x="50" y="66" rx="2" ry="2"/><rect class="c" x="50" y="82" rx="2" ry="2"/><rect class="c ca" x="50" y="98" rx="2" ry="2"/><rect class="c" x="66" y="2" rx="2" ry="2"/><rect class="c cb" x="66" y="18" rx="2" ry="2"/><rect class="c" x="66" y="34" rx="2" ry="2"/><rect class="c" x="66" y="50" rx="2" ry="2"/><rect class="c" x="66" y="66" rx="2" ry="2"/><rect class="c" x="66" y="82" rx="2" ry="2"/><rect class="c" x="66" y="98" rx="2" ry="2"/><rect class="c" x="82" y="2" rx="2" ry="2"/><rect class="c" x="82" y="18" rx="2" ry="2"/><rect class="c" x="82" y="34" rx="2" ry="2"/><rect class="c" x="82" y="50" rx="2" ry="2"/><rect class="c cc" x="82" y="66" rx="2" ry="2"/><rect class="c cd" x="82" y="82" rx="2" ry="2"/><rect class="c ce" x="82" y="98" rx="2" ry="2"/><rect class="c" x="98" y="2" rx="2" ry="2"/><rect class="c" x="98" y="18" rx="2" ry="2"/><rect class="c cf" x="98" y="34" rx="2" ry="2"/><rect class="c" x="98" y="50" rx="2" ry="2"/><rect class="c cg" x="98" y="66" rx="2" ry="2"/><rect class="c" x="98" y="82" rx="2" ry="2"/><rect class="c ch" x="98" y="98" rx="2" ry="2"/><rect class="c" x="114" y="2" rx="2" ry="2"/><rect class="c ci" x="114" y="18" rx="2" ry="2"/><rect class="c cj" x="114" y="34" rx="2" ry="2"/><rect class="c ck" x="114" y="50" rx="2" ry="2"/><rect class="c cl" x="114" y="66" rx="2" ry="2"/><rect class="c cm" x="114" y="82" rx="2" ry="2"/><rect class="c cn" x="114" y="98" rx="2" ry="2"/><rect class="c co" x="130" y="2" rx="2" ry="2"/><rect class="c cp" x="130" y="18" rx="2" ry="2"/><rect class="c" x="130" y="34" rx="2" ry="2"/><rect class="c" x="130" y="50" rx="2" ry="2"/><rect class="c" x="130" y="66" rx="2" ry="2"/><rect class="c" x="130" y="82" rx="2" ry="2"/><rect class="c cq" x="130" y="98" rx="2" ry="2"/><rect class="c cr" x="146" y="2" rx="2" ry="2"/><rect class="c cs" x="146" y="18" rx="2" ry="2"/><rect class="c" x="146" y="34" rx="2" ry="2"/><rect class="c ct" x="146" y="50" rx="2" ry="2"/><rect class="c cu" x="146" y="66" rx="2" ry="2"/><rect class="c" x="146" y="82" rx="2" ry="2"/><rect class="c" x="146" y="98" rx="2" ry="2"/><rect class="c" x="162" y="2" rx="2" ry="2"/><rect class="c" x="162" y="18" rx="2" ry="2"/><rect class="c" x="162" y="34" rx="2" ry="2"/><rect class="c" x="162" y="50" rx="2" ry="2"/><rect class="c" x="162" y="66" rx="2" ry="2"/><rect class="c cv" x="162" y="82" rx="2" ry="2"/><rect class="c" x="162" y="98" rx="2" ry="2"/><rect class="c" x="178" y="2" rx="2" ry="2"/><rect class="c cw" x="178" y="18" rx="2" ry="2"/><rect class="c cx" x="178" y="34" rx="2" ry="2"/><rect class="c cy" x="178" y="50" rx="2" ry="2"/><rect class="c cz" x="178" y="66" rx="2" ry="2"/><rect class="c" x="178" y="82" rx="2" ry="2"/><rect class="c" x="178" y="98" rx="2" ry="2"/><rect class="c" x="194" y="2" rx="2" ry="2"/><rect class="c" x="194" y="18" rx="2" ry="2"/><rect class="c" x="194" y="34" rx="2" ry="2"/><rect class="c" x="194" y="50" rx="2" ry="2"/><rect class="c" x="194" y="66" rx="2" ry="2"/><rect class="c" x="194" y="82" rx="2" ry="2"/><rect class="c" x="194" y="98" rx="2" ry="2"/><rect class="c" x="210" y="2" rx="2" ry="2"/><rect class="c" x="210" y="18" rx="2" ry="2"/><rect class="c" x="210" y="34" rx="2" ry="2"/><rect class="c" x="210" y="50" rx="2" ry="2"/><rect class="c" x="210" y="66" rx="2" ry="2"/><rect class="c" x="210" y="82" rx="2" ry="2"/><rect class="c" x="210" y="98" rx="2" ry="2"/><rect class="c c10" x="226" y="2" rx="2" ry="2"/><rect class="c" x="226" y="18" rx="2" ry="2"/><rect class="c" x="226" y="34" rx="2" ry="2"/><rect class="c" x="226" y="50" rx="2" ry="2"/><rect class="c" x="226" y="66" rx="2" ry="2"/><rect class="c c11" x="226" y="82" rx="2" ry="2"/><rect class="c c12" x="226" y="98" rx="2" ry="2"/><rect class="c c13" x="242" y="2" rx="2" ry="2"/><rect class="c" x="242" y="18" rx="2" ry="2"/><rect class="c" x="242" y="34" rx="2" ry="2"/><rect class="c" x="242" y="50" rx="2" ry="2"/><rect class="c" x="242" y="66" rx="2" ry="2"/><rect class="c" x="242" y="82" rx="2" ry="2"/><rect class="c c14" x="242" y="98" rx="2" ry="2"/><rect class="c" x="258" y="2" rx="2" ry="2"/><rect class="c" x="258" y="18" rx="2" ry="2"/><rect class="c" x="258" y="34" rx="2" ry="2"/><rect class="c" x="258" y="50" rx="2" ry="2"/><rect class="c" x="258" y="66" rx="2" ry="2"/><rect class="c" x="258" y="82" rx="2" ry="2"/><rect class="c" x="258" y="98" rx="2" ry="2"/><rect class="c" x="274" y="2" rx="2" ry="2"/><rect class="c" x="274" y="18" rx="2" ry="2"/><rect class="c" x="274" y="34" rx="2" ry="2"/><rect class="c" x="274" y="50" rx="2" ry="2"/><rect class="c" x="274" y="66" rx="2" ry="2"/><rect class="c" x="274" y="82" rx="2" ry="2"/><rect class="c" x="274" y="98" rx="2" ry="2"/><rect class="c" x="290" y="2" rx="2" ry="2"/><rect class="c" x="290" y="18" rx="2" ry="2"/><rect class="c" x="290" y="34" rx="2" ry="2"/><rect class="c" x="290" y="50" rx="2" ry="2"/><rect class="c" x="290" y="66" rx="2" ry="2"/><rect class="c" x="290" y="82" rx="2" ry="2"/><rect class="c" x="290" y="98" rx="2" ry="2"/><rect class="c" x="306" y="2" rx="2" ry="2"/><rect class="c" x="306" y="18" rx="2" ry="2"/><rect class="c" x="306" y="34" rx="2" ry="2"/><rect class="c" x="306" y="50" rx="2" ry="2"/><rect class="c" x="306" y="66" rx="2" ry="2"/><rect class="c" x="306" y="82" rx="2" ry="2"/><rect class="c c15" x="306" y="98" rx="2" ry="2"/><rect class="c" x="322" y="2" rx="2" ry="2"/><rect class="c" x="322" y="18" rx="2" ry="2"/><rect class="c" x="322" y="34" rx="2" ry="2"/><rect class="c" x="322" y="50" rx="2" ry="2"/><rect class="c" x="322" y="66" rx="2" ry="2"/><rect class="c" x="322" y="82" rx="2" ry="2"/><rect class="c" x="322" y="98" rx="2" ry="2"/><rect class="c" x="338" y="2" rx="2" ry="2"/><rect class="c" x="338" y="18" rx="2" ry="2"/><rect class="c" x="338" y="34" rx="2" ry="2"/><rect class="c" x="338" y="50" rx="2" ry="2"/><rect class="c" x="338" y="66" rx="2" ry="2"/><rect class="c" x="338" y="82" rx="2" ry="2"/><rect class="c" x="338" y="98" rx="2" ry="2"/><rect class="c" x="354" y="2" rx="2" ry="2"/><rect class="c" x="354" y="18" rx="2" ry="2"/><rect class="c" x="354" y="34" rx="2" ry="2"/><rect class="c" x="354" y="50" rx="2" ry="2"/><rect class="c" x="354" y="66" rx="2" ry="2"/><rect class="c" x="354" y="82" rx="2" ry="2"/><rect class="c" x="354" y="98" rx="2" ry="2"/><rect class="c" x="370" y="2" rx="2" ry="2"/><rect class="c c16" x="370" y="18" rx="2" ry="2"/><rect class="c" x="370" y="34" rx="2" ry="2"/><rect class="c" x="370" y="50" rx="2" ry="2"/><rect class="c" x="370" y="66" rx="2" ry="2"/><rect class="c" x="370" y="82" rx="2" ry="2"/><rect class="c" x="370" y="98" rx="2" ry="2"/><rect class="c" x="386" y="2" rx="2" ry="2"/><rect class="c" x="386" y="18" rx="2" ry="2"/><rect class="c" x="386" y="34" rx="2" ry="2"/><rect class="c c17" x="386" y="50" rx="2" ry="2"/><rect class="c" x="386" y="66" rx="2" ry="2"/><rect class="c" x="386" y="82" rx="2" ry="2"/><rect class="c" x="386" y="98" rx="2" ry="2"/><rect class="c" x="402" y="2" rx="2" ry="2"/><rect class="c" x="402" y="18" rx="2" ry="2"/><rect class="c c18" x="402" y="34" rx="2" ry="2"/><rect class="c" x="402" y="50" rx="2" ry="2"/><rect class="c c19" x="402" y="66" rx="2" ry="2"/><rect class="c c1a" x="402" y="82" rx="2" ry="2"/><rect class="c" x="402" y="98" rx="2" ry="2"/><rect class="c" x="418" y="2" rx="2" ry="2"/><rect class="c" x="418" y="18" rx="2" ry="2"/><rect class="c" x="418" y="34" rx="2" ry="2"/><rect class="c" x="418" y="50" rx="2" ry="2"/><rect class="c" x="418" y="66" rx="2" ry="2"/><rect class="c" x="418" y="82" rx="2" ry="2"/><rect class="c" x="418" y="98" rx="2" ry="2"/><rect class="c" x="434" y="2" rx="2" ry="2"/><rect class="c" x="434" y="18" rx="2" ry="2"/><rect class="c" x="434" y="34" rx="2" ry="2"/><rect class="c" x="434" y="50" rx="2" ry="2"/><rect class="c" x="434" y="66" rx="2" ry="2"/><rect class="c" x="434" y="82" rx="2" ry="2"/><rect class="c" x="434" y="98" rx="2" ry="2"/><rect class="c" x="450" y="2" rx="2" ry="2"/><rect class="c" x="450" y="18" rx="2" ry="2"/><rect class="c" x="450" y="34" rx="2" ry="2"/><rect class="c" x="450" y="50" rx="2" ry="2"/><rect class="c" x="450" y="66" rx="2" ry="2"/><rect class="c" x="450" y="82" rx="2" ry="2"/><rect class="c" x="450" y="98" rx="2" ry="2"/><rect class="c" x="466" y="2" rx="2" ry="2"/><rect class="c" x="466" y="18" rx="2" ry="2"/><rect class="c" x="466" y="34" rx="2" ry="2"/><rect class="c" x="466" y="50" rx="2" ry="2"/><rect class="c" x="466" y="66" rx="2" ry="2"/><rect class="c" x="466" y="82" rx="2" ry="2"/><rect class="c" x="466" y="98" rx="2" ry="2"/><rect class="c" x="482" y="2" rx="2" ry="2"/><rect class="c" x="482" y="18" rx="2" ry="2"/><rect class="c" x="482" y="34" rx="2" ry="2"/><rect class="c" x="482" y="50" rx="2" ry="2"/><rect class="c" x="482" y="66" rx="2" ry="2"/><rect class="c" x="482" y="82" rx="2" ry="2"/><rect class="c" x="482" y="98" rx="2" ry="2"/><rect class="c" x="498" y="2" rx="2" ry="2"/><rect class="c" x="498" y="18" rx="2" ry="2"/><rect class="c" x="498" y="34" rx="2" ry="2"/><rect class="c" x="498" y="50" rx="2" ry="2"/><rect class="c" x="498" y="66" rx="2" ry="2"/><rect class="c" x="498" y="82" rx="2" ry="2"/><rect class="c" x="498" y="98" rx="2" ry="2"/><rect class="c" x="514" y="2" rx="2" ry="2"/><rect class="c" x="514" y="18" rx="2" ry="2"/><rect class="c" x="514" y="34" rx="2" ry="2"/><rect class="c" x="514" y="50" rx="2" ry="2"/><rect class="c" x="514" y="66" rx="2" ry="2"/><rect class="c" x="514" y="82" rx="2" ry="2"/><rect class="c c1b" x="514" y="98" rx="2" ry="2"/><rect class="c" x="530" y="2" rx="2" ry="2"/><rect class="c" x="530" y="18" rx="2" ry="2"/><rect class="c" x="530" y="34" rx="2" ry="2"/><rect class="c" x="530" y="50" rx="2" ry="2"/><rect class="c" x="530" y="66" rx="2" ry="2"/><rect class="c" x="530" y="82" rx="2" ry="2"/><rect class="c" x="530" y="98" rx="2" ry="2"/><rect class="c" x="546" y="2" rx="2" ry="2"/><rect class="c" x="546" y="18" rx="2" ry="2"/><rect class="c" x="546" y="34" rx="2" ry="2"/><rect class="c" x="546" y="50" rx="2" ry="2"/><rect class="c" x="546" y="66" rx="2" ry="2"/><rect class="c" x="546" y="82" rx="2" ry="2"/><rect class="c" x="546" y="98" rx="2" ry="2"/><rect class="c c1c" x="562" y="2" rx="2" ry="2"/><rect class="c" x="562" y="18" rx="2" ry="2"/><rect class="c c1d" x="562" y="34" rx="2" ry="2"/><rect class="c" x="562" y="50" rx="2" ry="2"/><rect class="c" x="562" y="66" rx="2" ry="2"/><rect class="c" x="562" y="82" rx="2" ry="2"/><rect class="c" x="562" y="98" rx="2" ry="2"/><rect class="c" x="578" y="2" rx="2" ry="2"/><rect class="c" x="578" y="18" rx="2" ry="2"/><rect class="c" x="578" y="34" rx="2" ry="2"/><rect class="c" x="578" y="50" rx="2" ry="2"/><rect class="c" x="578" y="66" rx="2" ry="2"/><rect class="c c1e" x="578" y="82" rx="2" ry="2"/><rect class="c c1f" x="578" y="98" rx="2" ry="2"/><rect class="c c1g" x="594" y="2" rx="2" ry="2"/><rect class="c c1h" x="594" y="18" rx="2" ry="2"/><rect class="c" x="594" y="34" rx="2" ry="2"/><rect class="c" x="594" y="50" rx="2" ry="2"/><rect class="c" x="594" y="66" rx="2" ry="2"/><rect class="c" x="594" y="82" rx="2" ry="2"/><rect class="c" x="594" y="98" rx="2" ry="2"/><rect class="c" x="610" y="2" rx="2" ry="2"/><rect class="c" x="610" y="18" rx="2" ry="2"/><rect class="c" x="610" y="34" rx="2" ry="2"/><rect class="c" x="610" y="50" rx="2" ry="2"/><rect class="c" x="610" y="66" rx="2" ry="2"/><rect class="c" x="610" y="82" rx="2" ry="2"/><rect class="c" x="610" y="98" rx="2" ry="2"/><rect class="c c1i" x="626" y="2" rx="2" ry="2"/><rect class="c c1j" x="626" y="18" rx="2" ry="2"/><rect class="c" x="626" y="34" rx="2" ry="2"/><rect class="c c1k" x="626" y="50" rx="2" ry="2"/><rect class="c c1l" x="626" y="66" rx="2" ry="2"/><rect class="c" x="626" y="82" rx="2" ry="2"/><rect class="c" x="626" y="98" rx="2" ry="2"/><rect class="c" x="642" y="2" rx="2" ry="2"/><rect class="c" x="642" y="18" rx="2" ry="2"/><rect class="c" x="642" y="34" rx="2" ry="2"/><rect class="c" x="642" y="50" rx="2" ry="2"/><rect class="c" x="642" y="66" rx="2" ry="2"/><rect class="c" x="642" y="82" rx="2" ry="2"/><rect class="c" x="642" y="98" rx="2" ry="2"/><rect class="c" x="658" y="2" rx="2" ry="2"/><rect class="c" x="658" y="18" rx="2" ry="2"/><rect class="c" x="658" y="34" rx="2" ry="2"/><rect class="c" x="658" y="50" rx="2" ry="2"/><rect class="c" x="658" y="66" rx="2" ry="2"/><rect class="c" x="658" y="82" rx="2" ry="2"/><rect class="c" x="658" y="98" rx="2" ry="2"/><rect class="c" x="674" y="2" rx="2" ry="2"/><rect class="c" x="674" y="18" rx="2" ry="2"/><rect class="c" x="674" y="34" rx="2" ry="2"/><rect class="c" x="674" y="50" rx="2" ry="2"/><rect class="c c1m" x="674" y="66" rx="2" ry="2"/><rect class="c c1n" x="674" y="82" rx="2" ry="2"/><rect class="c" x="674" y="98" rx="2" ry="2"/><rect class="c" x="690" y="2" rx="2" ry="2"/><rect class="c" x="690" y="18" rx="2" ry="2"/><rect class="c" x="690" y="34" rx="2" ry="2"/><rect class="c" x="690" y="50" rx="2" ry="2"/><rect class="c" x="690" y="66" rx="2" ry="2"/><rect class="c" x="690" y="82" rx="2" ry="2"/><rect class="c" x="690" y="98" rx="2" ry="2"/><rect class="c" x="706" y="2" rx="2" ry="2"/><rect class="c" x="706" y="18" rx="2" ry="2"/><rect class="c" x="706" y="34" rx="2" ry="2"/><rect class="c" x="706" y="50" rx="2" ry="2"/><rect class="c" x="706" y="66" rx="2" ry="2"/><rect class="c" x="706" y="82" rx="2" ry="2"/><rect class="c" x="706" y="98" rx="2" ry="2"/><rect class="c" x="722" y="2" rx="2" ry="2"/><rect class="c" x="722" y="18" rx="2" ry="2"/><rect class="c" x="722" y="34" rx="2" ry="2"/><rect class="c" x="722" y="50" rx="2" ry="2"/><rect class="c" x="722" y="66" rx="2" ry="2"/><rect class="c" x="722" y="82" rx="2" ry="2"/><rect class="c" x="722" y="98" rx="2" ry="2"/><rect class="c" x="738" y="2" rx="2" ry="2"/><rect class="c" x="738" y="18" rx="2" ry="2"/><rect class="c" x="738" y="34" rx="2" ry="2"/><rect class="c" x="738" y="50" rx="2" ry="2"/><rect class="c" x="738" y="66" rx="2" ry="2"/><rect class="c" x="738" y="82" rx="2" ry="2"/><rect class="c" x="738" y="98" rx="2" ry="2"/><rect class="c" x="754" y="2" rx="2" ry="2"/><rect class="c" x="754" y="18" rx="2" ry="2"/><rect class="c" x="754" y="34" rx="2" ry="2"/><rect class="c" x="754" y="50" rx="2" ry="2"/><rect class="c" x="754" y="66" rx="2" ry="2"/><rect class="c" x="754" y="82" rx="2" ry="2"/><rect class="c" x="754" y="98" rx="2" ry="2"/><rect class="c" x="770" y="2" rx="2" ry="2"/><rect class="c" x="770" y="18" rx="2" ry="2"/><rect class="c" x="770" y="34" rx="2" ry="2"/><rect class="c" x="770" y="50" rx="2" ry="2"/><rect class="c" x="770" y="66" rx="2" ry="2"/><rect class="c" x="770" y="82" rx="2" ry="2"/><rect class="c" x="770" y="98" rx="2" ry="2"/><rect class="c" x="786" y="2" rx="2" ry="2"/><rect class="c" x="786" y="18" rx="2" ry="2"/><rect class="c" x="786" y="34" rx="2" ry="2"/><rect class="c c1o" x="786" y="50" rx="2" ry="2"/><rect class="c" x="786" y="66" rx="2" ry="2"/><rect class="c" x="786" y="82" rx="2" ry="2"/><rect class="c" x="786" y="98" rx="2" ry="2"/><rect class="c" x="802" y="2" rx="2" ry="2"/><rect class="c" x="802" y="18" rx="2" ry="2"/><rect class="c c1p" x="802" y="34" rx="2" ry="2"/><rect class="c c1q" x="802" y="50" rx="2" ry="2"/><rect class="c" x="802" y="66" rx="2" ry="2"/><rect class="c" x="802" y="82" rx="2" ry="2"/><rect class="c" x="802" y="98" rx="2" ry="2"/><rect class="c" x="818" y="2" rx="2" ry="2"/><rect class="c" x="818" y="18" rx="2" ry="2"/><rect class="c" x="818" y="34" rx="2" ry="2"/><rect class="c" x="818" y="50" rx="2" ry="2"/><rect class="c" x="818" y="66" rx="2" ry="2"/><rect class="c c1r" x="818" y="82" rx="2" ry="2"/><rect class="c" x="818" y="98" rx="2" ry="2"/><rect class="c" x="834" y="2" rx="2" ry="2"/><rect class="c" x="834" y="18" rx="2" ry="2"/><rect class="u u0" height="12" width="504.1" x="0.0" y="144"/><rect class="u u1" height="12" width="199.3" x="503.5" y="144"/><rect class="u u2" height="12" width="93.3" x="702.3" y="144"/><rect class="u u3" height="12" width="53.6" x="795.0" y="144"/><rect class="s s0" x="0.8" y="0.8" width="14.4" height="14.4" rx="4.5" ry="4.5"/><rect class="s s1" x="1.8" y="1.8" width="12.3" height="12.3" rx="4.1" ry="4.1"/><rect class="s s2" x="2.6" y="2.6" width="10.8" height="10.8" rx="3.6" ry="3.6"/><rect class="s s3" x="3.0" y="3.0" width="9.9" height="9.9" rx="3.3" ry="3.3"/></svg>