<svg viewBox="-16 -32 880 192" width="880" height="192" xmlns="http://www.w3.org/2000/svg"><desc>Generated with https://github.com/Platane/snk</desc><style>:root{--cb:#1b1f230a;--cs:white;--ce:#0a0e12;--c0:#0a0e12;--c1:#1445a2;--c2:#1d65ee;--c3:#1f4eff;--c4:#466dff}.c{shape-rendering:geometricPrecision;fill:var(--ce);stroke-width:1px;stroke:var(--cb);animation:none 35900ms linear infinite;width:12px;height:12px}@keyframes c0{0.83%{fill:var(--c1)}0.85%,100%{fill:var(--ce)}}.c.c0{fill:var(--c1);animation-name:c0}@keyframes c1{6.4%{fill:var(--c1)}6.42%,100%{fill:var(--ce)}}.c.c1{fill:var(--c1);animation-name:c1}@keyframes c2{5.28%{fill:var(--c1)}5.3%,100%{fill:var(--ce)}}.c.c2{fill:var(--c1);animation-name:c2}@keyframes c3{68.51%{fill:var(--c2)}68.53%,100%{fill:var(--ce)}}.c.c3{fill:var(--c2);animation-name:c3}@keyframes c4{1.38%{fill:var(--c1)}1.4%,100%{fill:var(--ce)}}.c.c4{fill:var(--c1);animation-name:c4}@keyframes c5{1.66%{fill:var(--c1)}1.68%,100%{fill:var(--ce)}}.c.c5{fill:var(--c1);animation-name:c5}@keyframes c6{2.5%{fill:var(--c1)}2.52%,100%{fill:var(--ce)}}.c.c6{fill:var(--c1);animation-name:c6}@keyframes c7{2.22%{fill:var(--c1)}2.24%,100%{fill:var(--ce)}}.c.c7{fill:var(--c1);animation-name:c7}@keyframes c8{66.84%{fill:var(--c2)}66.86%,100%{fill:var(--ce)}}.c.c8{fill:var(--c2);animation-name:c8}@keyframes c9{4.17%{fill:var(--c1)}4.19%,100%{fill:var(--ce)}}.c.c9{fill:var(--c1);animation-name:c9}@keyframes ca{8.9%{fill:var(--c1)}8.92%,100%{fill:var(--ce)}}.c.ca{fill:var(--c1);animation-name:ca}@keyframes cb{9.18%{fill:var(--c1)}9.2%,100%{fill:var(--ce)}}.c.cb{fill:var(--c1);animation-name:cb}@keyframes cc{16.7%{fill:var(--c1)}16.72%,100%{fill:var(--ce)}}.c.cc{fill:var(--c1);animation-name:cc}@keyframes cd{63.5%{fill:var(--c2)}63.52%,100%{fill:var(--ce)}}.c.cd{fill:var(--c2);animation-name:cd}@keyframes ce{16.42%{fill:var(--c1)}16.44%,100%{fill:var(--ce)}}.c.ce{fill:var(--c1);animation-name:ce}@keyframes cf{11.69%{fill:var(--c1)}11.71%,100%{fill:var(--ce)}}.c.cf{fill:var(--c1);animation-name:cf}@keyframes cg{12.25%{fill:var(--c1)}12.27%,100%{fill:var(--ce)}}.c.cg{fill:var(--c1);animation-name:cg}@keyframes ch{14.47%{fill:var(--c1)}14.49%,100%{fill:var(--ce)}}.c.ch{fill:var(--c1);animation-name:ch}@keyframes ci{12.52%{fill:var(--c1)}12.54%,100%{fill:var(--ce)}}.c.ci{fill:var(--c1);animation-name:ci}@keyframes cj{14.2%{fill:var(--c1)}14.22%,100%{fill:var(--ce)}}.c.cj{fill:var(--c1);animation-name:cj}@keyframes ck{13.92%{fill:var(--c1)}13.94%,100%{fill:var(--ce)}}.c.ck{fill:var(--c1);animation-name:ck}@keyframes cl{13.36%{fill:var(--c1)}13.38%,100%{fill:var(--ce)}}.c.cl{fill:var(--c1);animation-name:cl}@keyframes cm{19.21%{fill:var(--c1)}19.23%,100%{fill:var(--ce)}}.c.cm{fill:var(--c1);animation-name:cm}@keyframes cn{58.21%{fill:var(--c1)}58.23%,100%{fill:var(--ce)}}.c.cn{fill:var(--c1);animation-name:cn}@keyframes co{19.49%{fill:var(--c1)}19.51%,100%{fill:var(--ce)}}.c.co{fill:var(--c1);animation-name:co}@keyframes cp{20.88%{fill:var(--c1)}20.9%,100%{fill:var(--ce)}}.c.cp{fill:var(--c1);animation-name:cp}@keyframes cq{21.72%{fill:var(--c1)}21.74%,100%{fill:var(--ce)}}.c.cq{fill:var(--c1);animation-name:cq}@keyframes cr{60.44%{fill:var(--c2)}60.46%,100%{fill:var(--ce)}}.c.cr{fill:var(--c2);animation-name:cr}@keyframes cs{20.05%{fill:var(--c1)}20.07%,100%{fill:var(--ce)}}.c.cs{fill:var(--c1);animation-name:cs}@keyframes ct{23.95%{fill:var(--c1)}23.97%,100%{fill:var(--ce)}}.c.ct{fill:var(--c1);animation-name:ct}@keyframes cu{24.5%{fill:var(--c1)}24.52%,100%{fill:var(--ce)}}.c.cu{fill:var(--c1);animation-name:cu}@keyframes cv{41.77%{fill:var(--c1)}41.79%,100%{fill:var(--ce)}}.c.cv{fill:var(--c1);animation-name:cv}@keyframes cw{26.45%{fill:var(--c1)}26.47%,100%{fill:var(--ce)}}.c.cw{fill:var(--c1);animation-name:cw}@keyframes cx{26.17%{fill:var(--c1)}26.19%,100%{fill:var(--ce)}}.c.cx{fill:var(--c1);animation-name:cx}@keyframes cy{41.49%{fill:var(--c1)}41.51%,100%{fill:var(--ce)}}.c.cy{fill:var(--c1);animation-name:cy}@keyframes cz{82.44%{fill:var(--c2)}82.46%,100%{fill:var(--ce)}}.c.cz{fill:var(--c2);animation-name:cz}@keyframes c10{41.22%{fill:var(--c1)}41.24%,100%{fill:var(--ce)}}.c.c10{fill:var(--c1);animation-name:c10}@keyframes c11{81.88%{fill:var(--c2)}81.9%,100%{fill:var(--ce)}}.c.c11{fill:var(--c2);animation-name:c11}@keyframes c12{27.01%{fill:var(--c1)}27.03%,100%{fill:var(--ce)}}.c.c12{fill:var(--c1);animation-name:c12}@keyframes c13{39.54%{fill:var(--c1)}39.56%,100%{fill:var(--ce)}}.c.c13{fill:var(--c1);animation-name:c13}@keyframes c14{39.82%{fill:var(--c1)}39.84%,100%{fill:var(--ce)}}.c.c14{fill:var(--c1);animation-name:c14}@keyframes c15{81.33%{fill:var(--c2)}81.35%,100%{fill:var(--ce)}}.c.c15{fill:var(--c2);animation-name:c15}@keyframes c16{27.57%{fill:var(--c1)}27.59%,100%{fill:var(--ce)}}.c.c16{fill:var(--c1);animation-name:c16}@keyframes c17{38.99%{fill:var(--c1)}39.01%,100%{fill:var(--ce)}}.c.c17{fill:var(--c1);animation-name:c17}@keyframes c18{39.27%{fill:var(--c1)}39.29%,100%{fill:var(--ce)}}.c.c18{fill:var(--c1);animation-name:c18}@keyframes c19{40.1%{fill:var(--c1)}40.12%,100%{fill:var(--ce)}}.c.c19{fill:var(--c1);animation-name:c19}@keyframes c1a{27.85%{fill:var(--c1)}27.87%,100%{fill:var(--ce)}}.c.c1a{fill:var(--c1);animation-name:c1a}@keyframes c1b{38.43%{fill:var(--c1)}38.45%,100%{fill:var(--ce)}}.c.c1b{fill:var(--c1);animation-name:c1b}@keyframes c1c{38.15%{fill:var(--c1)}38.17%,100%{fill:var(--ce)}}.c.c1c{fill:var(--c1);animation-name:c1c}@keyframes c1d{84.11%{fill:var(--c3)}84.13%,100%{fill:var(--ce)}}.c.c1d{fill:var(--c3);animation-name:c1d}@keyframes c1e{83.83%{fill:var(--c2)}83.85%,100%{fill:var(--ce)}}.c.c1e{fill:var(--c2);animation-name:c1e}@keyframes c1f{28.4%{fill:var(--c1)}28.42%,100%{fill:var(--ce)}}.c.c1f{fill:var(--c1);animation-name:c1f}@keyframes c1g{85.51%{fill:var(--c3)}85.53%,100%{fill:var(--ce)}}.c.c1g{fill:var(--c3);animation-name:c1g}@keyframes c1h{79.66%{fill:var(--c2)}79.68%,100%{fill:var(--ce)}}.c.c1h{fill:var(--c2);animation-name:c1h}@keyframes c1i{87.18%{fill:var(--c4)}87.2%,100%{fill:var(--ce)}}.c.c1i{fill:var(--c4);animation-name:c1i}@keyframes c1j{37.87%{fill:var(--c1)}37.89%,100%{fill:var(--ce)}}.c.c1j{fill:var(--c1);animation-name:c1j}@keyframes c1k{37.59%{fill:var(--c1)}37.61%,100%{fill:var(--ce)}}.c.c1k{fill:var(--c1);animation-name:c1k}@keyframes c1l{44.56%{fill:var(--c1)}44.58%,100%{fill:var(--ce)}}.c.c1l{fill:var(--c1);animation-name:c1l}@keyframes c1m{28.68%{fill:var(--c1)}28.7%,100%{fill:var(--ce)}}.c.c1m{fill:var(--c1);animation-name:c1m}@keyframes c1n{85.78%{fill:var(--c4)}85.8%,100%{fill:var(--ce)}}.c.c1n{fill:var(--c4);animation-name:c1n}@keyframes c1o{52.08%{fill:var(--c1)}52.1%,100%{fill:var(--ce)}}.c.c1o{fill:var(--c1);animation-name:c1o}@keyframes c1p{33.97%{fill:var(--c1)}33.99%,100%{fill:var(--ce)}}.c.c1p{fill:var(--c1);animation-name:c1p}@keyframes c1q{34.25%{fill:var(--c1)}34.27%,100%{fill:var(--ce)}}.c.c1q{fill:var(--c1);animation-name:c1q}@keyframes c1r{37.32%{fill:var(--c1)}37.34%,100%{fill:var(--ce)}}.c.c1r{fill:var(--c1);animation-name:c1r}@keyframes c1s{44.84%{fill:var(--c1)}44.86%,100%{fill:var(--ce)}}.c.c1s{fill:var(--c1);animation-name:c1s}@keyframes c1t{28.96%{fill:var(--c1)}28.98%,100%{fill:var(--ce)}}.c.c1t{fill:var(--c1);animation-name:c1t}@keyframes c1u{49.29%{fill:var(--c1)}49.31%,100%{fill:var(--ce)}}.c.c1u{fill:var(--c1);animation-name:c1u}@keyframes c1v{49.57%{fill:var(--c1)}49.59%,100%{fill:var(--ce)}}.c.c1v{fill:var(--c1);animation-name:c1v}@keyframes c1w{33.69%{fill:var(--c1)}33.71%,100%{fill:var(--ce)}}.c.c1w{fill:var(--c1);animation-name:c1w}@keyframes c1x{34.53%{fill:var(--c1)}34.55%,100%{fill:var(--ce)}}.c.c1x{fill:var(--c1);animation-name:c1x}@keyframes c1y{37.04%{fill:var(--c1)}37.06%,100%{fill:var(--ce)}}.c.c1y{fill:var(--c1);animation-name:c1y}@keyframes c1z{45.12%{fill:var(--c1)}45.14%,100%{fill:var(--ce)}}.c.c1z{fill:var(--c1);animation-name:c1z}@keyframes c20{29.24%{fill:var(--c1)}29.26%,100%{fill:var(--ce)}}.c.c20{fill:var(--c1);animation-name:c20}@keyframes c21{49.02%{fill:var(--c1)}49.04%,100%{fill:var(--ce)}}.c.c21{fill:var(--c1);animation-name:c21}@keyframes c22{49.85%{fill:var(--c1)}49.87%,100%{fill:var(--ce)}}.c.c22{fill:var(--c1);animation-name:c22}@keyframes c23{33.42%{fill:var(--c1)}33.44%,100%{fill:var(--ce)}}.c.c23{fill:var(--c1);animation-name:c23}@keyframes c24{34.81%{fill:var(--c1)}34.83%,100%{fill:var(--ce)}}.c.c24{fill:var(--c1);animation-name:c24}@keyframes c25{36.76%{fill:var(--c1)}36.78%,100%{fill:var(--ce)}}.c.c25{fill:var(--c1);animation-name:c25}@keyframes c26{45.39%{fill:var(--c1)}45.41%,100%{fill:var(--ce)}}.c.c26{fill:var(--c1);animation-name:c26}@keyframes c27{29.52%{fill:var(--c1)}29.54%,100%{fill:var(--ce)}}.c.c27{fill:var(--c1);animation-name:c27}@keyframes c28{48.74%{fill:var(--c1)}48.76%,100%{fill:var(--ce)}}.c.c28{fill:var(--c1);animation-name:c28}@keyframes c29{50.13%{fill:var(--c1)}50.15%,100%{fill:var(--ce)}}.c.c29{fill:var(--c1);animation-name:c29}@keyframes c2a{33.14%{fill:var(--c1)}33.16%,100%{fill:var(--ce)}}.c.c2a{fill:var(--c1);animation-name:c2a}@keyframes c2b{35.09%{fill:var(--c1)}35.11%,100%{fill:var(--ce)}}.c.c2b{fill:var(--c1);animation-name:c2b}@keyframes c2c{36.48%{fill:var(--c1)}36.5%,100%{fill:var(--ce)}}.c.c2c{fill:var(--c1);animation-name:c2c}@keyframes c2d{45.67%{fill:var(--c1)}45.69%,100%{fill:var(--ce)}}.c.c2d{fill:var(--c1);animation-name:c2d}@keyframes c2e{29.8%{fill:var(--c1)}29.82%,100%{fill:var(--ce)}}.c.c2e{fill:var(--c1);animation-name:c2e}@keyframes c2f{48.46%{fill:var(--c1)}48.48%,100%{fill:var(--ce)}}.c.c2f{fill:var(--c1);animation-name:c2f}@keyframes c2g{50.41%{fill:var(--c1)}50.43%,100%{fill:var(--ce)}}.c.c2g{fill:var(--c1);animation-name:c2g}@keyframes c2h{32.86%{fill:var(--c1)}32.88%,100%{fill:var(--ce)}}.c.c2h{fill:var(--c1);animation-name:c2h}@keyframes c2i{35.37%{fill:var(--c1)}35.39%,100%{fill:var(--ce)}}.c.c2i{fill:var(--c1);animation-name:c2i}@keyframes c2j{36.2%{fill:var(--c1)}36.22%,100%{fill:var(--ce)}}.c.c2j{fill:var(--c1);animation-name:c2j}@keyframes c2k{45.95%{fill:var(--c1)}45.97%,100%{fill:var(--ce)}}.c.c2k{fill:var(--c1);animation-name:c2k}@keyframes c2l{30.07%{fill:var(--c1)}30.09%,100%{fill:var(--ce)}}.c.c2l{fill:var(--c1);animation-name:c2l}@keyframes c2m{48.18%{fill:var(--c1)}48.2%,100%{fill:var(--ce)}}.c.c2m{fill:var(--c1);animation-name:c2m}@keyframes c2n{47.9%{fill:var(--c1)}47.92%,100%{fill:var(--ce)}}.c.c2n{fill:var(--c1);animation-name:c2n}@keyframes c2o{32.58%{fill:var(--c1)}32.6%,100%{fill:var(--ce)}}.c.c2o{fill:var(--c1);animation-name:c2o}@keyframes c2p{35.64%{fill:var(--c1)}35.66%,100%{fill:var(--ce)}}.c.c2p{fill:var(--c1);animation-name:c2p}@keyframes c2q{35.92%{fill:var(--c1)}35.94%,100%{fill:var(--ce)}}.c.c2q{fill:var(--c1);animation-name:c2q}@keyframes c2r{46.23%{fill:var(--c1)}46.25%,100%{fill:var(--ce)}}.c.c2r{fill:var(--c1);animation-name:c2r}@keyframes c2s{30.35%{fill:var(--c1)}30.37%,100%{fill:var(--ce)}}.c.c2s{fill:var(--c1);animation-name:c2s}@keyframes c2t{46.79%{fill:var(--c1)}46.81%,100%{fill:var(--ce)}}.c.c2t{fill:var(--c1);animation-name:c2t}@keyframes c2u{47.62%{fill:var(--c1)}47.64%,100%{fill:var(--ce)}}.c.c2u{fill:var(--c1);animation-name:c2u}@keyframes c2v{32.3%{fill:var(--c1)}32.32%,100%{fill:var(--ce)}}.c.c2v{fill:var(--c1);animation-name:c2v}@keyframes c2w{31.47%{fill:var(--c1)}31.49%,100%{fill:var(--ce)}}.c.c2w{fill:var(--c1);animation-name:c2w}@keyframes c2x{31.19%{fill:var(--c1)}31.21%,100%{fill:var(--ce)}}.c.c2x{fill:var(--c1);animation-name:c2x}@keyframes c2y{30.91%{fill:var(--c1)}30.93%,100%{fill:var(--ce)}}.c.c2y{fill:var(--c1);animation-name:c2y}@keyframes c2z{30.63%{fill:var(--c1)}30.65%,100%{fill:var(--ce)}}.c.c2z{fill:var(--c1);animation-name:c2z}@keyframes c30{47.07%{fill:var(--c1)}47.09%,100%{fill:var(--ce)}}.c.c30{fill:var(--c1);animation-name:c30}@keyframes c31{47.34%{fill:var(--c1)}47.36%,100%{fill:var(--ce)}}.c.c31{fill:var(--c1);animation-name:c31}@keyframes c32{32.02%{fill:var(--c1)}32.04%,100%{fill:var(--ce)}}.c.c32{fill:var(--c1);animation-name:c32}@keyframes c33{31.74%{fill:var(--c1)}31.76%,100%{fill:var(--ce)}}.c.c33{fill:var(--c1);animation-name:c33}.u{transform-origin:0 0;transform:scale(0,1);animation:none linear 35900ms infinite}@keyframes u0{0.83%{transform:scale(0.000,1)}0.85%,1.38%{transform:scale(0.010,1)}1.4%,1.66%{transform:scale(0.020,1)}1.68%,2.22%{transform:scale(0.030,1)}2.24%,2.5%{transform:scale(0.040,1)}2.52%,4.17%{transform:scale(0.051,1)}4.19%,5.28%{transform:scale(0.061,1)}5.3%,6.4%{transform:scale(0.071,1)}6.42%,8.9%{transform:scale(0.081,1)}8.92%,9.18%{transform:scale(0.091,1)}9.2%,11.69%{transform:scale(0.101,1)}11.71%,12.25%{transform:scale(0.111,1)}12.27%,12.52%{transform:scale(0.121,1)}12.54%,13.36%{transform:scale(0.131,1)}13.38%,13.92%{transform:scale(0.141,1)}13.94%,14.2%{transform:scale(0.152,1)}14.22%,14.47%{transform:scale(0.162,1)}14.49%,16.42%{transform:scale(0.172,1)}16.44%,16.7%{transform:scale(0.182,1)}16.72%,19.21%{transform:scale(0.192,1)}19.23%,19.49%{transform:scale(0.202,1)}19.51%,20.05%{transform:scale(0.212,1)}20.07%,20.88%{transform:scale(0.222,1)}20.9%,21.72%{transform:scale(0.232,1)}21.74%,23.95%{transform:scale(0.242,1)}23.97%,24.5%{transform:scale(0.253,1)}24.52%,26.17%{transform:scale(0.263,1)}26.19%,26.45%{transform:scale(0.273,1)}26.47%,27.01%{transform:scale(0.283,1)}27.03%,27.57%{transform:scale(0.293,1)}27.59%,27.85%{transform:scale(0.303,1)}27.87%,28.4%{transform:scale(0.313,1)}28.42%,28.68%{transform:scale(0.323,1)}28.7%,28.96%{transform:scale(0.333,1)}28.98%,29.24%{transform:scale(0.343,1)}29.26%,29.52%{transform:scale(0.354,1)}29.54%,29.8%{transform:scale(0.364,1)}29.82%,30.07%{transform:scale(0.374,1)}30.09%,30.35%{transform:scale(0.384,1)}30.37%,30.63%{transform:scale(0.394,1)}30.65%,30.91%{transform:scale(0.404,1)}30.93%,31.19%{transform:scale(0.414,1)}31.21%,31.47%{transform:scale(0.424,1)}31.49%,31.74%{transform:scale(0.434,1)}31.76%,32.02%{transform:scale(0.444,1)}32.04%,32.3%{transform:scale(0.455,1)}32.32%,32.58%{transform:scale(0.465,1)}32.6%,32.86%{transform:scale(0.475,1)}32.88%,33.14%{transform:scale(0.485,1)}33.16%,33.42%{transform:scale(0.495,1)}33.44%,33.69%{transform:scale(0.505,1)}33.71%,33.97%{transform:scale(0.515,1)}33.99%,34.25%{transform:scale(0.525,1)}34.27%,34.53%{transform:scale(0.535,1)}34.55%,34.81%{transform:scale(0.545,1)}34.83%,35.09%{transform:scale(0.556,1)}35.11%,35.37%{transform:scale(0.566,1)}35.39%,35.64%{transform:scale(0.576,1)}35.66%,35.92%{transform:scale(0.586,1)}35.94%,36.2%{transform:scale(0.596,1)}36.22%,36.48%{transform:scale(0.606,1)}36.5%,36.76%{transform:scale(0.616,1)}36.78%,37.04%{transform:scale(0.626,1)}37.06%,37.32%{transform:scale(0.636,1)}37.34%,37.59%{transform:scale(0.646,1)}37.61%,37.87%{transform:scale(0.657,1)}37.89%,38.15%{transform:scale(0.667,1)}38.17%,38.43%{transform:scale(0.677,1)}38.45%,38.99%{transform:scale(0.687,1)}39.01%,39.27%{transform:scale(0.697,1)}39.29%,39.54%{transform:scale(0.707,1)}39.56%,39.82%{transform:scale(0.717,1)}39.84%,40.1%{transform:scale(0.727,1)}40.12%,41.22%{transform:scale(0.737,1)}41.24%,41.49%{transform:scale(0.747,1)}41.51%,41.77%{transform:scale(0.758,1)}41.79%,44.56%{transform:scale(0.768,1)}44.58%,44.84%{transform:scale(0.778,1)}44.86%,45.12%{transform:scale(0.788,1)}45.14%,45.39%{transform:scale(0.798,1)}45.41%,45.67%{transform:scale(0.808,1)}45.69%,45.95%{transform:scale(0.818,1)}45.97%,46.23%{transform:scale(0.828,1)}46.25%,46.79%{transform:scale(0.838,1)}46.81%,47.07%{transform:scale(0.848,1)}47.09%,47.34%{transform:scale(0.859,1)}47.36%,47.62%{transform:scale(0.869,1)}47.64%,47.9%{transform:scale(0.879,1)}47.92%,48.18%{transform:scale(0.889,1)}48.2%,48.46%{transform:scale(0.899,1)}48.48%,48.74%{transform:scale(0.909,1)}48.76%,49.02%{transform:scale(0.919,1)}49.04%,49.29%{transform:scale(0.929,1)}49.31%,49.57%{transform:scale(0.939,1)}49.59%,49.85%{transform:scale(0.949,1)}49.87%,50.13%{transform:scale(0.960,1)}50.15%,50.41%{transform:scale(0.970,1)}50.43%,52.08%{transform:scale(0.980,1)}52.1%,58.21%{transform:scale(0.990,1)}58.23%,100%{transform:scale(1.000,1)}}.u.u0{fill:var(--c1);animation-name:u0;transform-origin:0.0px 0}@keyframes u1{60.44%{transform:scale(0.000,1)}60.46%,63.5%{transform:scale(0.111,1)}63.52%,66.84%{transform:scale(0.222,1)}66.86%,68.51%{transform:scale(0.333,1)}68.53%,79.66%{transform:scale(0.444,1)}79.68%,81.33%{transform:scale(0.556,1)}81.35%,81.88%{transform:scale(0.667,1)}81.9%,82.44%{transform:scale(0.778,1)}82.46%,83.83%{transform:scale(0.889,1)}83.85%,100%{transform:scale(1.000,1)}}.u.u1{fill:var(--c2);animation-name:u1;transform-origin:749.6px 0}@keyframes u2{84.11%{transform:scale(0.000,1)}84.13%,85.51%{transform:scale(0.500,1)}85.53%,100%{transform:scale(1.000,1)}}.u.u2{fill:var(--c3);animation-name:u2;transform-origin:817.7px 0}@keyframes u3{85.78%{transform:scale(0.000,1)}85.8%,87.18%{transform:scale(0.500,1)}87.2%,100%{transform:scale(1.000,1)}}.u.u3{fill:var(--c4);animation-name:u3;transform-origin:832.9px 0}.s{shape-rendering:geometricPrecision;fill:var(--cs);animation:none linear 35900ms infinite}@keyframes s0{0%,99.72%{transform:translate(0px,-16px)}0.28%{transform:translate(0px,0px)}1.39%,98.33%{transform:translate(64px,0px)}1.67%{transform:translate(64px,16px)}2.23%{transform:translate(96px,16px)}2.51%{transform:translate(96px,0px)}2.79%{transform:translate(112px,0px)}3.9%{transform:translate(112px,64px)}5.01%{transform:translate(48px,64px)}5.29%{transform:translate(48px,80px)}5.57%{transform:translate(32px,80px)}6.41%{transform:translate(32px,32px)}8.36%{transform:translate(144px,32px)}9.19%{transform:translate(144px,80px)}12.81%{transform:translate(352px,80px)}14.21%{transform:translate(352px,0px)}15.32%{transform:translate(288px,0px)}16.16%{transform:translate(288px,48px)}16.71%{transform:translate(256px,48px)}16.99%{transform:translate(256px,64px)}20.06%{transform:translate(432px,64px)}20.61%{transform:translate(432px,32px)}20.89%{transform:translate(416px,32px)}21.45%{transform:translate(416px,0px)}22.84%{transform:translate(496px,0px)}23.96%{transform:translate(496px,64px)}24.23%{transform:translate(512px,64px)}24.51%{transform:translate(512px,80px)}26.18%{transform:translate(608px,80px)}26.46%{transform:translate(608px,64px)}27.02%{transform:translate(640px,64px)}27.3%{transform:translate(640px,80px)}27.86%{transform:translate(672px,80px)}28.13%,81.06%{transform:translate(672px,64px)}30.64%{transform:translate(816px,64px)}31.48%{transform:translate(816px,16px)}31.75%{transform:translate(832px,16px)}32.03%{transform:translate(832px,0px)}33.98%{transform:translate(720px,0px)}34.26%{transform:translate(720px,16px)}35.65%{transform:translate(800px,16px)}35.93%{transform:translate(800px,32px)}37.6%,84.4%{transform:translate(704px,32px)}37.88%,44.01%{transform:translate(704px,16px)}38.16%,43.73%{transform:translate(688px,16px)}38.44%,43.45%{transform:translate(688px,0px)}38.72%{transform:translate(672px,0px)}39.28%{transform:translate(672px,32px)}39.55%{transform:translate(656px,32px)}39.83%,81.62%{transform:translate(656px,48px)}40.11%{transform:translate(672px,48px)}40.67%{transform:translate(672px,16px)}41.78%{transform:translate(608px,16px)}42.06%{transform:translate(608px,0px)}44.57%,84.68%{transform:translate(704px,48px)}46.24%{transform:translate(800px,48px)}46.8%{transform:translate(800px,80px)}47.08%{transform:translate(816px,80px)}47.35%{transform:translate(816px,96px)}47.91%{transform:translate(784px,96px)}48.19%{transform:translate(784px,80px)}49.3%,51.53%{transform:translate(720px,80px)}49.58%,51.81%{transform:translate(720px,96px)}50.42%{transform:translate(768px,96px)}50.7%{transform:translate(768px,80px)}52.09%{transform:translate(704px,96px)}52.37%{transform:translate(704px,112px)}52.92%,80.22%{transform:translate(672px,112px)}53.2%{transform:translate(672px,96px)}58.22%{transform:translate(384px,96px)}58.5%{transform:translate(384px,80px)}59.33%{transform:translate(432px,80px)}60.45%{transform:translate(432px,16px)}63.23%{transform:translate(272px,16px)}63.51%{transform:translate(272px,32px)}66.57%{transform:translate(96px,32px)}66.85%{transform:translate(96px,48px)}67.69%{transform:translate(48px,48px)}68.52%{transform:translate(48px,96px)}79.67%{transform:translate(688px,96px)}79.94%{transform:translate(688px,112px)}81.34%{transform:translate(656px,64px)}81.89%{transform:translate(640px,48px)}82.17%{transform:translate(640px,32px)}82.45%{transform:translate(624px,32px)}82.73%{transform:translate(624px,48px)}83.84%,84.96%{transform:translate(688px,48px)}84.12%{transform:translate(688px,32px)}85.52%{transform:translate(688px,80px)}85.79%{transform:translate(704px,80px)}87.19%{transform:translate(704px,0px)}98.61%{transform:translate(64px,-16px)}}.s.s0{transform:translate(0px,-16px);animation-name:s0}@keyframes s1{0%,99.72%{transform:translate(16px,-16px)}0.28%{transform:translate(0px,-16px)}0.56%{transform:translate(0px,0px)}1.67%,98.61%{transform:translate(64px,0px)}1.95%{transform:translate(64px,16px)}2.51%{transform:translate(96px,16px)}2.79%{transform:translate(96px,0px)}3.06%{transform:translate(112px,0px)}4.18%{transform:translate(112px,64px)}5.29%{transform:translate(48px,64px)}5.57%{transform:translate(48px,80px)}5.85%{transform:translate(32px,80px)}6.69%{transform:translate(32px,32px)}8.64%{transform:translate(144px,32px)}9.47%{transform:translate(144px,80px)}13.09%{transform:translate(352px,80px)}14.48%{transform:translate(352px,0px)}15.6%{transform:translate(288px,0px)}16.43%{transform:translate(288px,48px)}16.99%{transform:translate(256px,48px)}17.27%{transform:translate(256px,64px)}20.33%{transform:translate(432px,64px)}20.89%{transform:translate(432px,32px)}21.17%{transform:translate(416px,32px)}21.73%{transform:translate(416px,0px)}23.12%{transform:translate(496px,0px)}24.23%{transform:translate(496px,64px)}24.51%{transform:translate(512px,64px)}24.79%{transform:translate(512px,80px)}26.46%{transform:translate(608px,80px)}26.74%{transform:translate(608px,64px)}27.3%{transform:translate(640px,64px)}27.58%{transform:translate(640px,80px)}28.13%{transform:translate(672px,80px)}28.41%,81.34%{transform:translate(672px,64px)}30.92%{transform:translate(816px,64px)}31.75%{transform:translate(816px,16px)}32.03%{transform:translate(832px,16px)}32.31%{transform:translate(832px,0px)}34.26%{transform:translate(720px,0px)}34.54%{transform:translate(720px,16px)}35.93%{transform:translate(800px,16px)}36.21%{transform:translate(800px,32px)}37.88%,84.68%{transform:translate(704px,32px)}38.16%,44.29%{transform:translate(704px,16px)}38.44%,44.01%{transform:translate(688px,16px)}38.72%,43.73%{transform:translate(688px,0px)}39%{transform:translate(672px,0px)}39.55%{transform:translate(672px,32px)}39.83%{transform:translate(656px,32px)}40.11%,81.89%{transform:translate(656px,48px)}40.39%{transform:translate(672px,48px)}40.95%{transform:translate(672px,16px)}42.06%{transform:translate(608px,16px)}42.34%{transform:translate(608px,0px)}44.85%,84.96%{transform:translate(704px,48px)}46.52%{transform:translate(800px,48px)}47.08%{transform:translate(800px,80px)}47.35%{transform:translate(816px,80px)}47.63%{transform:translate(816px,96px)}48.19%{transform:translate(784px,96px)}48.47%{transform:translate(784px,80px)}49.58%,51.81%{transform:translate(720px,80px)}49.86%,52.09%{transform:translate(720px,96px)}50.7%{transform:translate(768px,96px)}50.97%{transform:translate(768px,80px)}52.37%{transform:translate(704px,96px)}52.65%{transform:translate(704px,112px)}53.2%,80.5%{transform:translate(672px,112px)}53.48%{transform:translate(672px,96px)}58.5%{transform:translate(384px,96px)}58.77%{transform:translate(384px,80px)}59.61%{transform:translate(432px,80px)}60.72%{transform:translate(432px,16px)}63.51%{transform:translate(272px,16px)}63.79%{transform:translate(272px,32px)}66.85%{transform:translate(96px,32px)}67.13%{transform:translate(96px,48px)}67.97%{transform:translate(48px,48px)}68.8%{transform:translate(48px,96px)}79.94%{transform:translate(688px,96px)}80.22%{transform:translate(688px,112px)}81.62%{transform:translate(656px,64px)}82.17%{transform:translate(640px,48px)}82.45%{transform:translate(640px,32px)}82.73%{transform:translate(624px,32px)}83.01%{transform:translate(624px,48px)}84.12%,85.24%{transform:translate(688px,48px)}84.4%{transform:translate(688px,32px)}85.79%{transform:translate(688px,80px)}86.07%{transform:translate(704px,80px)}87.47%{transform:translate(704px,0px)}98.89%{transform:translate(64px,-16px)}}.s.s1{transform:translate(16px,-16px);animation-name:s1}@keyframes s2{0%,99.72%{transform:translate(32px,-16px)}0.56%{transform:translate(0px,-16px)}0.84%{transform:translate(0px,0px)}1.95%,98.89%{transform:translate(64px,0px)}2.23%{transform:translate(64px,16px)}2.79%{transform:translate(96px,16px)}3.06%{transform:translate(96px,0px)}3.34%{transform:translate(112px,0px)}4.46%{transform:translate(112px,64px)}5.57%{transform:translate(48px,64px)}5.85%{transform:translate(48px,80px)}6.13%{transform:translate(32px,80px)}6.96%{transform:translate(32px,32px)}8.91%{transform:translate(144px,32px)}9.75%{transform:translate(144px,80px)}13.37%{transform:translate(352px,80px)}14.76%{transform:translate(352px,0px)}15.88%{transform:translate(288px,0px)}16.71%{transform:translate(288px,48px)}17.27%{transform:translate(256px,48px)}17.55%{transform:translate(256px,64px)}20.61%{transform:translate(432px,64px)}21.17%{transform:translate(432px,32px)}21.45%{transform:translate(416px,32px)}22.01%{transform:translate(416px,0px)}23.4%{transform:translate(496px,0px)}24.51%{transform:translate(496px,64px)}24.79%{transform:translate(512px,64px)}25.07%{transform:translate(512px,80px)}26.74%{transform:translate(608px,80px)}27.02%{transform:translate(608px,64px)}27.58%{transform:translate(640px,64px)}27.86%{transform:translate(640px,80px)}28.41%{transform:translate(672px,80px)}28.69%,81.62%{transform:translate(672px,64px)}31.2%{transform:translate(816px,64px)}32.03%{transform:translate(816px,16px)}32.31%{transform:translate(832px,16px)}32.59%{transform:translate(832px,0px)}34.54%{transform:translate(720px,0px)}34.82%{transform:translate(720px,16px)}36.21%{transform:translate(800px,16px)}36.49%{transform:translate(800px,32px)}38.16%,84.96%{transform:translate(704px,32px)}38.44%,44.57%{transform:translate(704px,16px)}38.72%,44.29%{transform:translate(688px,16px)}39%,44.01%{transform:translate(688px,0px)}39.28%{transform:translate(672px,0px)}39.83%{transform:translate(672px,32px)}40.11%{transform:translate(656px,32px)}40.39%,82.17%{transform:translate(656px,48px)}40.67%{transform:translate(672px,48px)}41.23%{transform:translate(672px,16px)}42.34%{transform:translate(608px,16px)}42.62%{transform:translate(608px,0px)}45.13%,85.24%{transform:translate(704px,48px)}46.8%{transform:translate(800px,48px)}47.35%{transform:translate(800px,80px)}47.63%{transform:translate(816px,80px)}47.91%{transform:translate(816px,96px)}48.47%{transform:translate(784px,96px)}48.75%{transform:translate(784px,80px)}49.86%,52.09%{transform:translate(720px,80px)}50.14%,52.37%{transform:translate(720px,96px)}50.97%{transform:translate(768px,96px)}51.25%{transform:translate(768px,80px)}52.65%{transform:translate(704px,96px)}52.92%{transform:translate(704px,112px)}53.48%,80.78%{transform:translate(672px,112px)}53.76%{transform:translate(672px,96px)}58.77%{transform:translate(384px,96px)}59.05%{transform:translate(384px,80px)}59.89%{transform:translate(432px,80px)}61%{transform:translate(432px,16px)}63.79%{transform:translate(272px,16px)}64.07%{transform:translate(272px,32px)}67.13%{transform:translate(96px,32px)}67.41%{transform:translate(96px,48px)}68.25%{transform:translate(48px,48px)}69.08%{transform:translate(48px,96px)}80.22%{transform:translate(688px,96px)}80.5%{transform:translate(688px,112px)}81.89%{transform:translate(656px,64px)}82.45%{transform:translate(640px,48px)}82.73%{transform:translate(640px,32px)}83.01%{transform:translate(624px,32px)}83.29%{transform:translate(624px,48px)}84.4%,85.52%{transform:translate(688px,48px)}84.68%{transform:translate(688px,32px)}86.07%{transform:translate(688px,80px)}86.35%{transform:translate(704px,80px)}87.74%{transform:translate(704px,0px)}99.16%{transform:translate(64px,-16px)}}.s.s2{transform:translate(32px,-16px);animation-name:s2}@keyframes s3{0%,99.72%{transform:translate(48px,-16px)}0.84%{transform:translate(0px,-16px)}1.11%{transform:translate(0px,0px)}2.23%,99.16%{transform:translate(64px,0px)}2.51%{transform:translate(64px,16px)}3.06%{transform:translate(96px,16px)}3.34%{transform:translate(96px,0px)}3.62%{transform:translate(112px,0px)}4.74%{transform:translate(112px,64px)}5.85%{transform:translate(48px,64px)}6.13%{transform:translate(48px,80px)}6.41%{transform:translate(32px,80px)}7.24%{transform:translate(32px,32px)}9.19%{transform:translate(144px,32px)}10.03%{transform:translate(144px,80px)}13.65%{transform:translate(352px,80px)}15.04%{transform:translate(352px,0px)}16.16%{transform:translate(288px,0px)}16.99%{transform:translate(288px,48px)}17.55%{transform:translate(256px,48px)}17.83%{transform:translate(256px,64px)}20.89%{transform:translate(432px,64px)}21.45%{transform:translate(432px,32px)}21.73%{transform:translate(416px,32px)}22.28%{transform:translate(416px,0px)}23.68%{transform:translate(496px,0px)}24.79%{transform:translate(496px,64px)}25.07%{transform:translate(512px,64px)}25.35%{transform:translate(512px,80px)}27.02%{transform:translate(608px,80px)}27.3%{transform:translate(608px,64px)}27.86%{transform:translate(640px,64px)}28.13%{transform:translate(640px,80px)}28.69%{transform:translate(672px,80px)}28.97%,81.89%{transform:translate(672px,64px)}31.48%{transform:translate(816px,64px)}32.31%{transform:translate(816px,16px)}32.59%{transform:translate(832px,16px)}32.87%{transform:translate(832px,0px)}34.82%{transform:translate(720px,0px)}35.1%{transform:translate(720px,16px)}36.49%{transform:translate(800px,16px)}36.77%{transform:translate(800px,32px)}38.44%,85.24%{transform:translate(704px,32px)}38.72%,44.85%{transform:translate(704px,16px)}39%,44.57%{transform:translate(688px,16px)}39.28%,44.29%{transform:translate(688px,0px)}39.55%{transform:translate(672px,0px)}40.11%{transform:translate(672px,32px)}40.39%{transform:translate(656px,32px)}40.67%,82.45%{transform:translate(656px,48px)}40.95%{transform:translate(672px,48px)}41.5%{transform:translate(672px,16px)}42.62%{transform:translate(608px,16px)}42.9%{transform:translate(608px,0px)}45.4%,85.52%{transform:translate(704px,48px)}47.08%{transform:translate(800px,48px)}47.63%{transform:translate(800px,80px)}47.91%{transform:translate(816px,80px)}48.19%{transform:translate(816px,96px)}48.75%{transform:translate(784px,96px)}49.03%{transform:translate(784px,80px)}50.14%,52.37%{transform:translate(720px,80px)}50.42%,52.65%{transform:translate(720px,96px)}51.25%{transform:translate(768px,96px)}51.53%{transform:translate(768px,80px)}52.92%{transform:translate(704px,96px)}53.2%{transform:translate(704px,112px)}53.76%,81.06%{transform:translate(672px,112px)}54.04%{transform:translate(672px,96px)}59.05%{transform:translate(384px,96px)}59.33%{transform:translate(384px,80px)}60.17%{transform:translate(432px,80px)}61.28%{transform:translate(432px,16px)}64.07%{transform:translate(272px,16px)}64.35%{transform:translate(272px,32px)}67.41%{transform:translate(96px,32px)}67.69%{transform:translate(96px,48px)}68.52%{transform:translate(48px,48px)}69.36%{transform:translate(48px,96px)}80.5%{transform:translate(688px,96px)}80.78%{transform:translate(688px,112px)}82.17%{transform:translate(656px,64px)}82.73%{transform:translate(640px,48px)}83.01%{transform:translate(640px,32px)}83.29%{transform:translate(624px,32px)}83.57%{transform:translate(624px,48px)}84.68%,85.79%{transform:translate(688px,48px)}84.96%{transform:translate(688px,32px)}86.35%{transform:translate(688px,80px)}86.63%{transform:translate(704px,80px)}88.02%{transform:translate(704px,0px)}99.44%{transform:translate(64px,-16px)}}.s.s3{transform:translate(48px,-16px);animation-name:s3}</style><rect class="c" x="2" y="2" rx="2" ry="2"/><rect class="c" x="2" y="18" rx="2" ry="2"/><rect class="c" x="2" y="34" rx="2" ry="2"/><rect class="c" x="2" y="50" rx="2" ry="2"/><rect class="c" x="2" y="66" rx="2" ry="2"/><rect class="c" x="2" y="82" rx="2" ry="2"/><rect class="c" x="2" y="98" rx="2" ry="2"/><rect class="c" x="18" y="2" rx="2" ry="2"/><rect class="c" x="18" y="18" rx="2" ry="2"/><rect class="c" x="18" y="34" rx="2" ry="2"/><rect class="c" x="18" y="50" rx="2" ry="2"/><rect class="c" x="18" y="66" rx="2" ry="2"/><rect class="c" x="18" y="82" rx="2" ry="2"/><rect class="c" x="18" y="98" rx="2" ry="2"/><rect class="c c0" x="34" y="2" rx="2" ry="2"/><rect class="c" x="34" y="18" rx="2" ry="2"/><rect class="c c1" x="34" y="34" rx="2" ry="2"/><rect class="c" x="34" y="50" rx="2" ry="2"/><rect class="c" x="34" y="66" rx="2" ry="2"/><rect class="c" x="34" y="82" rx="2" ry="2"/><rect class="c" x="34" y="98" rx="2" ry="2"/><rect class="c" x="50" y="2" rx="2" ry="2"/><rect class="c" x="50" y="18" rx="2" ry="2"/><rect class="c" x="50" y="34" rx="2" ry="2"/><rect class="c" x="50" y="50" rx="2" ry="2"/><rect class="c" x="50" y="66" rx="2" ry="2"/><rect class="c c2" x="50" y="82" rx="2" ry="2"/><rect class="c c3" x="50" y="98" rx="2" ry="2"/><rect class="c c4" x="66" y="2" rx="2" ry="2"/><rect class="c c5" x="66" y="18" rx="2" ry="2"/><rect class="c" x="66" y="34" rx="2" ry="2"/><rect class="c" x="66" y="50" rx="2" ry="2"/><rect class="c" x="66" y="66" rx="2" ry="2"/><rect class="c" x="66" y="82" rx="2" ry="2"/><rect class="c" x="66" y="98" rx="2" ry="2"/><rect class="c" x="82" y="2" rx="2" ry="2"/><rect class="c" x="82" y="18" rx="2" ry="2"/><rect class="c" x="82" y="34" rx="2" ry="2"/><rect class="c" x="82" y="50" rx="2" ry="2"/><rect class="c" x="82" y="66" rx="2" ry="2"/><rect class="c" x="82" y="82" rx="2" ry="2"/><rect class="c" x="82" y="98" rx="2" ry="2"/><rect class="c c6" x="98" y="2" rx="2" ry="2"/><rect class="c c7" x="98" y="18" rx="2" ry="2"/><rect class="c" x="98" y="34" rx="2" ry="2"/><rect class="c c8" x="98" y="50" rx="2" ry="2"/><rect class="c c9" x="98" y="66" rx="2" ry="2"/><rect class="c" x="98" y="82" rx="2" ry="2"/><rect class="c" x="98" y="98" rx="2" ry="2"/><rect class="c" x="114" y="2" rx="2" ry="2"/><rect class="c" x="114" y="18" rx="2" ry="2"/><rect class="c" x="114" y="34" rx="2" ry="2"/><rect class="c" x="114" y="50" rx="2" ry="2"/><rect class="c" x="114" y="66" rx="2" ry="2"/><rect class="c" x="114" y="82" rx="2" ry="2"/><rect class="c" x="114" y="98" rx="2" ry="2"/><rect class="c" x="130" y="2" rx="2" ry="2"/><rect class="c" x="130" y="18" rx="2" ry="2"/><rect class="c" x="130" y="34" rx="2" ry="2"/><rect class="c" x="130" y="50" rx="2" ry="2"/><rect class="c" x="130" y="66" rx="2" ry="2"/><rect class="c" x="130" y="82" rx="2" ry="2"/><rect class="c" x="130" y="98" rx="2" ry="2"/><rect class="c" x="146" y="2" rx="2" ry="2"/><rect class="c" x="146" y="18" rx="2" ry="2"/><rect class="c" x="146" y="34" rx="2" ry="2"/><rect class="c" x="146" y="50" rx="2" ry="2"/><rect class="c ca" x="146" y="66" rx="2" ry="2"/><rect class="c cb" x="146" y="82" rx="2" ry="2"/><rect class="c" x="146" y="98" rx="2" ry="2"/><rect class="c" x="162" y="2" rx="2" ry="2"/><rect class="c" x="162" y="18" rx="2" ry="2"/><rect class="c" x="162" y="34" rx="2" ry="2"/><rect class="c" x="162" y="50" rx="2" ry="2"/><rect class="c" x="162" y="66" rx="2" ry="2"/><rect class="c" x="162" y="82" rx="2" ry="2"/><rect class="c" x="162" y="98" rx="2" ry="2"/><rect class="c" x="178" y="2" rx="2" ry="2"/><rect class="c" x="178" y="18" rx="2" ry="2"/><rect class="c" x="178" y="34" rx="2" ry="2"/><rect class="c" x="178" y="50" rx="2" ry="2"/><rect class="c" x="178" y="66" rx="2" ry="2"/><rect class="c" x="178" y="82" rx="2" ry="2"/><rect class="c" x="178" y="98" rx="2" ry="2"/><rect class="c" x="194" y="2" rx="2" ry="2"/><rect class="c" x="194" y="18" rx="2" ry="2"/><rect class="c" x="194" y="34" rx="2" ry="2"/><rect class="c" x="194" y="50" rx="2" ry="2"/><rect class="c" x="194" y="66" rx="2" ry="2"/><rect class="c" x="194" y="82" rx="2" ry="2"/><rect class="c" x="194" y="98" rx="2" ry="2"/><rect class="c" x="210" y="2" rx="2" ry="2"/><rect class="c" x="210" y="18" rx="2" ry="2"/><rect class="c" x="210" y="34" rx="2" ry="2"/><rect class="c" x="210" y="50" rx="2" ry="2"/><rect class="c" x="210" y="66" rx="2" ry="2"/><rect class="c" x="210" y="82" rx="2" ry="2"/><rect class="c" x="210" y="98" rx="2" ry="2"/><rect class="c" x="226" y="2" rx="2" ry="2"/><rect class="c" x="226" y="18" rx="2" ry="2"/><rect class="c" x="226" y="34" rx="2" ry="2"/><rect class="c" x="226" y="50" rx="2" ry="2"/><rect class="c" x="226" y="66" rx="2" ry="2"/><rect class="c" x="226" y="82" rx="2" ry="2"/><rect class="c" x="226" y="98" rx="2" ry="2"/><rect class="c" x="242" y="2" rx="2" ry="2"/><rect class="c" x="242" y="18" rx="2" ry="2"/><rect class="c" x="242" y="34" rx="2" ry="2"/><rect class="c" x="242" y="50" rx="2" ry="2"/><rect class="c" x="242" y="66" rx="2" ry="2"/><rect class="c" x="242" y="82" rx="2" ry="2"/><rect class="c" x="242" y="98" rx="2" ry="2"/><rect class="c" x="258" y="2" rx="2" ry="2"/><rect class="c" x="258" y="18" rx="2" ry="2"/><rect class="c" x="258" y="34" rx="2" ry="2"/><rect class="c cc" x="258" y="50" rx="2" ry="2"/><rect class="c" x="258" y="66" rx="2" ry="2"/><rect class="c" x="258" y="82" rx="2" ry="2"/><rect class="c" x="258" y="98" rx="2" ry="2"/><rect class="c" x="274" y="2" rx="2" ry="2"/><rect class="c" x="274" y="18" rx="2" ry="2"/><rect class="c cd" x="274" y="34" rx="2" ry="2"/><rect class="c ce" x="274" y="50" rx="2" ry="2"/><rect class="c" x="274" y="66" rx="2" ry="2"/><rect class="c" x="274" y="82" rx="2" ry="2"/><rect class="c" x="274" y="98" rx="2" ry="2"/><rect class="c" x="290" y="2" rx="2" ry="2"/><rect class="c" x="290" y="18" rx="2" ry="2"/><rect class="c" x="290" y="34" rx="2" ry="2"/><rect class="c" x="290" y="50" rx="2" ry="2"/><rect class="c" x="290" y="66" rx="2" ry="2"/><rect class="c cf" x="290" y="82" rx="2" ry="2"/><rect class="c" x="290" y="98" rx="2" ry="2"/><rect class="c" x="306" y="2" rx="2" ry="2"/><rect class="c" x="306" y="18" rx="2" ry="2"/><rect class="c" x="306" y="34" rx="2" ry="2"/><rect class="c" x="306" y="50" rx="2" ry="2"/><rect class="c" x="306" y="66" rx="2" ry="2"/><rect class="c" x="306" y="82" rx="2" ry="2"/><rect class="c" x="306" y="98" rx="2" ry="2"/><rect class="c" x="322" y="2" rx="2" ry="2"/><rect class="c" x="322" y="18" rx="2" ry="2"/><rect class="c" x="322" y="34" rx="2" ry="2"/><rect class="c" x="322" y="50" rx="2" ry="2"/><rect class="c" x="322" y="66" rx="2" ry="2"/><rect class="c cg" x="322" y="82" rx="2" ry="2"/><rect class="c" x="322" y="98" rx="2" ry="2"/><rect class="c ch" x="338" y="2" rx="2" ry="2"/><rect class="c" x="338" y="18" rx="2" ry="2"/><rect class="c" x="338" y="34" rx="2" ry="2"/><rect class="c" x="338" y="50" rx="2" ry="2"/><rect class="c" x="338" y="66" rx="2" ry="2"/><rect class="c ci" x="338" y="82" rx="2" ry="2"/><rect class="c" x="338" y="98" rx="2" ry="2"/><rect class="c cj" x="354" y="2" rx="2" ry="2"/><rect class="c ck" x="354" y="18" rx="2" ry="2"/><rect class="c" x="354" y="34" rx="2" ry="2"/><rect class="c cl" x="354" y="50" rx="2" ry="2"/><rect class="c" x="354" y="66" rx="2" ry="2"/><rect class="c" x="354" y="82" rx="2" ry="2"/><rect class="c" x="354" y="98" rx="2" ry="2"/><rect class="c" x="370" y="2" rx="2" ry="2"/><rect class="c" x="370" y="18" rx="2" ry="2"/><rect class="c" x="370" y="34" rx="2" ry="2"/><rect class="c" x="370" y="50" rx="2" ry="2"/><rect class="c" x="370" y="66" rx="2" ry="2"/><rect class="c" x="370" y="82" rx="2" ry="2"/><rect class="c" x="370" y="98" rx="2" ry="2"/><rect class="c" x="386" y="2" rx="2" ry="2"/><rect class="c" x="386" y="18" rx="2" ry="2"/><rect class="c" x="386" y="34" rx="2" ry="2"/><rect class="c" x="386" y="50" rx="2" ry="2"/><rect class="c cm" x="386" y="66" rx="2" ry="2"/><rect class="c" x="386" y="82" rx="2" ry="2"/><rect class="c cn" x="386" y="98" rx="2" ry="2"/><rect class="c" x="402" y="2" rx="2" ry="2"/><rect class="c" x="402" y="18" rx="2" ry="2"/><rect class="c" x="402" y="34" rx="2" ry="2"/><rect class="c" x="402" y="50" rx="2" ry="2"/><rect class="c co" x="402" y="66" rx="2" ry="2"/><rect class="c" x="402" y="82" rx="2" ry="2"/><rect class="c" x="402" y="98" rx="2" ry="2"/><rect class="c" x="418" y="2" rx="2" ry="2"/><rect class="c" x="418" y="18" rx="2" ry="2"/><rect class="c cp" x="418" y="34" rx="2" ry="2"/><rect class="c" x="418" y="50" rx="2" ry="2"/><rect class="c" x="418" y="66" rx="2" ry="2"/><rect class="c" x="418" y="82" rx="2" ry="2"/><rect class="c" x="418" y="98" rx="2" ry="2"/><rect class="c cq" x="434" y="2" rx="2" ry="2"/><rect class="c cr" x="434" y="18" rx="2" ry="2"/><rect class="c" x="434" y="34" rx="2" ry="2"/><rect class="c" x="434" y="50" rx="2" ry="2"/><rect class="c cs" x="434" y="66" rx="2" ry="2"/><rect class="c" x="434" y="82" rx="2" ry="2"/><rect class="c" x="434" y="98" rx="2" ry="2"/><rect class="c" x="450" y="2" rx="2" ry="2"/><rect class="c" x="450" y="18" rx="2" ry="2"/><rect class="c" x="450" y="34" rx="2" ry="2"/><rect class="c" x="450" y="50" rx="2" ry="2"/><rect class="c" x="450" y="66" rx="2" ry="2"/><rect class="c" x="450" y="82" rx="2" ry="2"/><rect class="c" x="450" y="98" rx="2" ry="2"/><rect class="c" x="466" y="2" rx="2" ry="2"/><rect class="c" x="466" y="18" rx="2" ry="2"/><rect class="c" x="466" y="34" rx="2" ry="2"/><rect class="c" x="466" y="50" rx="2" ry="2"/><rect class="c" x="466" y="66" rx="2" ry="2"/><rect class="c" x="466" y="82" rx="2" ry="2"/><rect class="c" x="466" y="98" rx="2" ry="2"/><rect class="c" x="482" y="2" rx="2" ry="2"/><rect class="c" x="482" y="18" rx="2" ry="2"/><rect class="c" x="482" y="34" rx="2" ry="2"/><rect class="c" x="482" y="50" rx="2" ry="2"/><rect class="c" x="482" y="66" rx="2" ry="2"/><rect class="c" x="482" y="82" rx="2" ry="2"/><rect class="c" x="482" y="98" rx="2" ry="2"/><rect class="c" x="498" y="2" rx="2" ry="2"/><rect class="c" x="498" y="18" rx="2" ry="2"/><rect class="c" x="498" y="34" rx="2" ry="2"/><rect class="c" x="498" y="50" rx="2" ry="2"/><rect class="c ct" x="498" y="66" rx="2" ry="2"/><rect class="c" x="498" y="82" rx="2" ry="2"/><rect class="c" x="498" y="98" rx="2" ry="2"/><rect class="c" x="514" y="2" rx="2" ry="2"/><rect class="c" x="514" y="18" rx="2" ry="2"/><rect class="c" x="514" y="34" rx="2" ry="2"/><rect class="c" x="514" y="50" rx="2" ry="2"/><rect class="c" x="514" y="66" rx="2" ry="2"/><rect class="c cu" x="514" y="82" rx="2" ry="2"/><rect class="c" x="514" y="98" rx="2" ry="2"/><rect class="c" x="530" y="2" rx="2" ry="2"/><rect class="c" x="530" y="18" rx="2" ry="2"/><rect class="c" x="530" y="34" rx="2" ry="2"/><rect class="c" x="530" y="50" rx="2" ry="2"/><rect class="c" x="530" y="66" rx="2" ry="2"/><rect class="c" x="530" y="82" rx="2" ry="2"/><rect class="c" x="530" y="98" rx="2" ry="2"/><rect class="c" x="546" y="2" rx="2" ry="2"/><rect class="c" x="546" y="18" rx="2" ry="2"/><rect class="c" x="546" y="34" rx="2" ry="2"/><rect class="c" x="546" y="50" rx="2" ry="2"/><rect class="c" x="546" y="66" rx="2" ry="2"/><rect class="c" x="546" y="82" rx="2" ry="2"/><rect class="c" x="546" y="98" rx="2" ry="2"/><rect class="c" x="562" y="2" rx="2" ry="2"/><rect class="c" x="562" y="18" rx="2" ry="2"/><rect class="c" x="562" y="34" rx="2" ry="2"/><rect class="c" x="562" y="50" rx="2" ry="2"/><rect class="c" x="562" y="66" rx="2" ry="2"/><rect class="c" x="562" y="82" rx="2" ry="2"/><rect class="c" x="562" y="98" rx="2" ry="2"/><rect class="c" x="578" y="2" rx="2" ry="2"/><rect class="c" x="578" y="18" rx="2" ry="2"/><rect class="c" x="578" y="34" rx="2" ry="2"/><rect class="c" x="578" y="50" rx="2" ry="2"/><rect class="c" x="578" y="66" rx="2" ry="2"/><rect class="c" x="578" y="82" rx="2" ry="2"/><rect class="c" x="578" y="98" rx="2" ry="2"/><rect class="c" x="594" y="2" rx="2" ry="2"/><rect class="c" x="594" y="18" rx="2" ry="2"/><rect class="c" x="594" y="34" rx="2" ry="2"/><rect class="c" x="594" y="50" rx="2" ry="2"/><rect class="c" x="594" y="66" rx="2" ry="2"/><rect class="c" x="594" y="82" rx="2" ry="2"/><rect class="c" x="594" y="98" rx="2" ry="2"/><rect class="c" x="610" y="2" rx="2" ry="2"/><rect class="c cv" x="610" y="18" rx="2" ry="2"/><rect class="c" x="610" y="34" rx="2" ry="2"/><rect class="c" x="610" y="50" rx="2" ry="2"/><rect class="c cw" x="610" y="66" rx="2" ry="2"/><rect class="c cx" x="610" y="82" rx="2" ry="2"/><rect class="c" x="610" y="98" rx="2" ry="2"/><rect class="c" x="626" y="2" rx="2" ry="2"/><rect class="c cy" x="626" y="18" rx="2" ry="2"/><rect class="c cz" x="626" y="34" rx="2" ry="2"/><rect class="c" x="626" y="50" rx="2" ry="2"/><rect class="c" x="626" y="66" rx="2" ry="2"/><rect class="c" x="626" y="82" rx="2" ry="2"/><rect class="c" x="626" y="98" rx="2" ry="2"/><rect class="c" x="642" y="2" rx="2" ry="2"/><rect class="c c10" x="642" y="18" rx="2" ry="2"/><rect class="c" x="642" y="34" rx="2" ry="2"/><rect class="c c11" x="642" y="50" rx="2" ry="2"/><rect class="c c12" x="642" y="66" rx="2" ry="2"/><rect class="c" x="642" y="82" rx="2" ry="2"/><rect class="c" x="642" y="98" rx="2" ry="2"/><rect class="c" x="658" y="2" rx="2" ry="2"/><rect class="c" x="658" y="18" rx="2" ry="2"/><rect class="c c13" x="658" y="34" rx="2" ry="2"/><rect class="c c14" x="658" y="50" rx="2" ry="2"/><rect class="c c15" x="658" y="66" rx="2" ry="2"/><rect class="c c16" x="658" y="82" rx="2" ry="2"/><rect class="c" x="658" y="98" rx="2" ry="2"/><rect class="c" x="674" y="2" rx="2" ry="2"/><rect class="c c17" x="674" y="18" rx="2" ry="2"/><rect class="c c18" x="674" y="34" rx="2" ry="2"/><rect class="c c19" x="674" y="50" rx="2" ry="2"/><rect class="c" x="674" y="66" rx="2" ry="2"/><rect class="c c1a" x="674" y="82" rx="2" ry="2"/><rect class="c" x="674" y="98" rx="2" ry="2"/><rect class="c c1b" x="690" y="2" rx="2" ry="2"/><rect class="c c1c" x="690" y="18" rx="2" ry="2"/><rect class="c c1d" x="690" y="34" rx="2" ry="2"/><rect class="c c1e" x="690" y="50" rx="2" ry="2"/><rect class="c c1f" x="690" y="66" rx="2" ry="2"/><rect class="c c1g" x="690" y="82" rx="2" ry="2"/><rect class="c c1h" x="690" y="98" rx="2" ry="2"/><rect class="c c1i" x="706" y="2" rx="2" ry="2"/><rect class="c c1j" x="706" y="18" rx="2" ry="2"/><rect class="c c1k" x="706" y="34" rx="2" ry="2"/><rect class="c c1l" x="706" y="50" rx="2" ry="2"/><rect class="c c1m" x="706" y="66" rx="2" ry="2"/><rect class="c c1n" x="706" y="82" rx="2" ry="2"/><rect class="c c1o" x="706" y="98" rx="2" ry="2"/><rect class="c c1p" x="722" y="2" rx="2" ry="2"/><rect class="c c1q" x="722" y="18" rx="2" ry="2"/><rect class="c c1r" x="722" y="34" rx="2" ry="2"/><rect class="c c1s" x="722" y="50" rx="2" ry="2"/><rect class="c c1t" x="722" y="66" rx="2" ry="2"/><rect class="c c1u" x="722" y="82" rx="2" ry="2"/><rect class="c c1v" x="722" y="98" rx="2" ry="2"/><rect class="c c1w" x="738" y="2" rx="2" ry="2"/><rect class="c c1x" x="738" y="18" rx="2" ry="2"/><rect class="c c1y" x="738" y="34" rx="2" ry="2"/><rect class="c c1z" x="738" y="50" rx="2" ry="2"/><rect class="c c20" x="738" y="66" rx="2" ry="2"/><rect class="c c21" x="738" y="82" rx="2" ry="2"/><rect class="c c22" x="738" y="98" rx="2" ry="2"/><rect class="c c23" x="754" y="2" rx="2" ry="2"/><rect class="c c24" x="754" y="18" rx="2" ry="2"/><rect class="c c25" x="754" y="34" rx="2" ry="2"/><rect class="c c26" x="754" y="50" rx="2" ry="2"/><rect class="c c27" x="754" y="66" rx="2" ry="2"/><rect class="c c28" x="754" y="82" rx="2" ry="2"/><rect class="c c29" x="754" y="98" rx="2" ry="2"/><rect class="c c2a" x="770" y="2" rx="2" ry="2"/><rect class="c c2b" x="770" y="18" rx="2" ry="2"/><rect class="c c2c" x="770" y="34" rx="2" ry="2"/><rect class="c c2d" x="770" y="50" rx="2" ry="2"/><rect class="c c2e" x="770" y="66" rx="2" ry="2"/><rect class="c c2f" x="770" y="82" rx="2" ry="2"/><rect class="c c2g" x="770" y="98" rx="2" ry="2"/><rect class="c c2h" x="786" y="2" rx="2" ry="2"/><rect class="c c2i" x="786" y="18" rx="2" ry="2"/><rect class="c c2j" x="786" y="34" rx="2" ry="2"/><rect class="c c2k" x="786" y="50" rx="2" ry="2"/><rect class="c c2l" x="786" y="66" rx="2" ry="2"/><rect class="c c2m" x="786" y="82" rx="2" ry="2"/><rect class="c c2n" x="786" y="98" rx="2" ry="2"/><rect class="c c2o" x="802" y="2" rx="2" ry="2"/><rect class="c c2p" x="802" y="18" rx="2" ry="2"/><rect class="c c2q" x="802" y="34" rx="2" ry="2"/><rect class="c c2r" x="802" y="50" rx="2" ry="2"/><rect class="c c2s" x="802" y="66" rx="2" ry="2"/><rect class="c c2t" x="802" y="82" rx="2" ry="2"/><rect class="c c2u" x="802" y="98" rx="2" ry="2"/><rect class="c c2v" x="818" y="2" rx="2" ry="2"/><rect class="c c2w" x="818" y="18" rx="2" ry="2"/><rect class="c c2x" x="818" y="34" rx="2" ry="2"/><rect class="c c2y" x="818" y="50" rx="2" ry="2"/><rect class="c c2z" x="818" y="66" rx="2" ry="2"/><rect class="c c30" x="818" y="82" rx="2" ry="2"/><rect class="c c31" x="818" y="98" rx="2" ry="2"/><rect class="c c32" x="834" y="2" rx="2" ry="2"/><rect class="c c33" x="834" y="18" rx="2" ry="2"/><rect class="u u0" height="12" width="750.2" x="0.0" y="144"/><rect class="u u1" height="12" width="68.7" x="749.6" y="144"/><rect class="u u2" height="12" width="15.7" x="817.7" y="144"/><rect class="u u3" height="12" width="15.7" x="832.9" y="144"/><rect class="s s0" x="0.8" y="0.8" width="14.4" height="14.4" rx="4.5" ry="4.5"/><rect class="s s1" x="1.8" y="1.8" width="12.3" height="12.3" rx="4.1" ry="4.1"/><rect class="s s2" x="2.6" y="2.6" width="10.8" height="10.8" rx="3.6" ry="3.6"/><rect class="s s3" x="3.0" y="3.0" width="9.9" height="9.9" rx="3.3" ry="3.3"/></svg>