<svg viewBox="-16 -32 880 192" width="880" height="192" xmlns="http://www.w3.org/2000/svg"><desc>Generated with https://github.com/Platane/snk</desc><style>:root{--cb:#1b1f230a;--cs:white;--ce:#0a0e12;--c0:#0a0e12;--c1:#1445a2;--c2:#1d65ee;--c3:#1f4eff;--c4:#466dff}.c{shape-rendering:geometricPrecision;fill:var(--ce);stroke-width:1px;stroke:var(--cb);animation:none 41500ms linear infinite;width:12px;height:12px}@keyframes c0{2.16%{fill:var(--c1)}2.18%,100%{fill:var(--ce)}}.c.c0{fill:var(--c1);animation-name:c0}@keyframes c1{79.51%{fill:var(--c3)}79.53%,100%{fill:var(--ce)}}.c.c1{fill:var(--c3);animation-name:c1}@keyframes c2{3.12%{fill:var(--c1)}3.14%,100%{fill:var(--ce)}}.c.c2{fill:var(--c1);animation-name:c2}@keyframes c3{81.44%{fill:var(--c4)}81.46%,100%{fill:var(--ce)}}.c.c3{fill:var(--c4);animation-name:c3}@keyframes c4{50.11%{fill:var(--c2)}50.13%,100%{fill:var(--ce)}}.c.c4{fill:var(--c2);animation-name:c4}@keyframes c5{79.99%{fill:var(--c4)}80.01%,100%{fill:var(--ce)}}.c.c5{fill:var(--c4);animation-name:c5}@keyframes c6{0.95%{fill:var(--c1)}0.97%,100%{fill:var(--ce)}}.c.c6{fill:var(--c1);animation-name:c6}@keyframes c7{77.82%{fill:var(--c3)}77.84%,100%{fill:var(--ce)}}.c.c7{fill:var(--c3);animation-name:c7}@keyframes c8{80.95%{fill:var(--c4)}80.97%,100%{fill:var(--ce)}}.c.c8{fill:var(--c4);animation-name:c8}@keyframes c9{5.05%{fill:var(--c1)}5.07%,100%{fill:var(--ce)}}.c.c9{fill:var(--c1);animation-name:c9}@keyframes ca{4.81%{fill:var(--c1)}4.83%,100%{fill:var(--ce)}}.c.ca{fill:var(--c1);animation-name:ca}@keyframes cb{80.23%{fill:var(--c4)}80.25%,100%{fill:var(--ce)}}.c.cb{fill:var(--c4);animation-name:cb}@keyframes cc{82.4%{fill:var(--c4)}82.42%,100%{fill:var(--ce)}}.c.cc{fill:var(--c4);animation-name:cc}@keyframes cd{77.34%{fill:var(--c3)}77.36%,100%{fill:var(--ce)}}.c.cd{fill:var(--c3);animation-name:cd}@keyframes ce{4.33%{fill:var(--c1)}4.35%,100%{fill:var(--ce)}}.c.ce{fill:var(--c1);animation-name:ce}@keyframes cf{76.86%{fill:var(--c3)}76.88%,100%{fill:var(--ce)}}.c.cf{fill:var(--c3);animation-name:cf}@keyframes cg{47.22%{fill:var(--c2)}47.24%,100%{fill:var(--ce)}}.c.cg{fill:var(--c2);animation-name:cg}@keyframes ch{46.74%{fill:var(--c2)}46.76%,100%{fill:var(--ce)}}.c.ch{fill:var(--c2);animation-name:ch}@keyframes ci{46.5%{fill:var(--c2)}46.52%,100%{fill:var(--ce)}}.c.ci{fill:var(--c2);animation-name:ci}@keyframes cj{74.93%{fill:var(--c3)}74.95%,100%{fill:var(--ce)}}.c.cj{fill:var(--c3);animation-name:cj}@keyframes ck{47.7%{fill:var(--c2)}47.72%,100%{fill:var(--ce)}}.c.ck{fill:var(--c2);animation-name:ck}@keyframes cl{75.89%{fill:var(--c3)}75.91%,100%{fill:var(--ce)}}.c.cl{fill:var(--c3);animation-name:cl}@keyframes cm{75.65%{fill:var(--c3)}75.67%,100%{fill:var(--ce)}}.c.cm{fill:var(--c3);animation-name:cm}@keyframes cn{6.98%{fill:var(--c1)}7%,100%{fill:var(--ce)}}.c.cn{fill:var(--c1);animation-name:cn}@keyframes co{14.93%{fill:var(--c1)}14.95%,100%{fill:var(--ce)}}.c.co{fill:var(--c1);animation-name:co}@keyframes cp{7.94%{fill:var(--c1)}7.96%,100%{fill:var(--ce)}}.c.cp{fill:var(--c1);animation-name:cp}@keyframes cq{8.18%{fill:var(--c1)}8.2%,100%{fill:var(--ce)}}.c.cq{fill:var(--c1);animation-name:cq}@keyframes cr{14.69%{fill:var(--c1)}14.71%,100%{fill:var(--ce)}}.c.cr{fill:var(--c1);animation-name:cr}@keyframes cs{8.42%{fill:var(--c1)}8.44%,100%{fill:var(--ce)}}.c.cs{fill:var(--c1);animation-name:cs}@keyframes ct{9.39%{fill:var(--c1)}9.41%,100%{fill:var(--ce)}}.c.ct{fill:var(--c1);animation-name:ct}@keyframes cu{12.52%{fill:var(--c1)}12.54%,100%{fill:var(--ce)}}.c.cu{fill:var(--c1);animation-name:cu}@keyframes cv{11.32%{fill:var(--c1)}11.34%,100%{fill:var(--ce)}}.c.cv{fill:var(--c1);animation-name:cv}@keyframes cw{11.8%{fill:var(--c1)}11.82%,100%{fill:var(--ce)}}.c.cw{fill:var(--c1);animation-name:cw}@keyframes cx{42.64%{fill:var(--c2)}42.66%,100%{fill:var(--ce)}}.c.cx{fill:var(--c2);animation-name:cx}@keyframes cy{71.32%{fill:var(--c3)}71.34%,100%{fill:var(--ce)}}.c.cy{fill:var(--c3);animation-name:cy}@keyframes cz{36.62%{fill:var(--c1)}36.64%,100%{fill:var(--ce)}}.c.cz{fill:var(--c1);animation-name:cz}@keyframes c10{39.27%{fill:var(--c2)}39.29%,100%{fill:var(--ce)}}.c.c10{fill:var(--c2);animation-name:c10}@keyframes c11{20.47%{fill:var(--c1)}20.49%,100%{fill:var(--ce)}}.c.c11{fill:var(--c1);animation-name:c11}@keyframes c12{37.82%{fill:var(--c2)}37.84%,100%{fill:var(--ce)}}.c.c12{fill:var(--c2);animation-name:c12}@keyframes c13{90.59%{fill:var(--c4)}90.61%,100%{fill:var(--ce)}}.c.c13{fill:var(--c4);animation-name:c13}@keyframes c14{21.44%{fill:var(--c1)}21.46%,100%{fill:var(--ce)}}.c.c14{fill:var(--c1);animation-name:c14}@keyframes c15{21.19%{fill:var(--c1)}21.21%,100%{fill:var(--ce)}}.c.c15{fill:var(--c1);animation-name:c15}@keyframes c16{21.92%{fill:var(--c1)}21.94%,100%{fill:var(--ce)}}.c.c16{fill:var(--c1);animation-name:c16}@keyframes c17{22.16%{fill:var(--c1)}22.18%,100%{fill:var(--ce)}}.c.c17{fill:var(--c1);animation-name:c17}@keyframes c18{67.46%{fill:var(--c3)}67.48%,100%{fill:var(--ce)}}.c.c18{fill:var(--c3);animation-name:c18}@keyframes c19{23.36%{fill:var(--c1)}23.38%,100%{fill:var(--ce)}}.c.c19{fill:var(--c1);animation-name:c19}@keyframes c1a{24.57%{fill:var(--c1)}24.59%,100%{fill:var(--ce)}}.c.c1a{fill:var(--c1);animation-name:c1a}@keyframes c1b{24.33%{fill:var(--c1)}24.35%,100%{fill:var(--ce)}}.c.c1b{fill:var(--c1);animation-name:c1b}@keyframes c1c{26.5%{fill:var(--c1)}26.52%,100%{fill:var(--ce)}}.c.c1c{fill:var(--c1);animation-name:c1c}@keyframes c1d{61.68%{fill:var(--c2)}61.7%,100%{fill:var(--ce)}}.c.c1d{fill:var(--c2);animation-name:c1d}@keyframes c1e{26.74%{fill:var(--c1)}26.76%,100%{fill:var(--ce)}}.c.c1e{fill:var(--c1);animation-name:c1e}@keyframes c1f{27.46%{fill:var(--c1)}27.48%,100%{fill:var(--ce)}}.c.c1f{fill:var(--c1);animation-name:c1f}@keyframes c1g{27.94%{fill:var(--c1)}27.96%,100%{fill:var(--ce)}}.c.c1g{fill:var(--c1);animation-name:c1g}@keyframes c1h{29.87%{fill:var(--c1)}29.89%,100%{fill:var(--ce)}}.c.c1h{fill:var(--c1);animation-name:c1h}@keyframes c1i{63.36%{fill:var(--c2)}63.38%,100%{fill:var(--ce)}}.c.c1i{fill:var(--c2);animation-name:c1i}@keyframes c1j{29.63%{fill:var(--c1)}29.65%,100%{fill:var(--ce)}}.c.c1j{fill:var(--c1);animation-name:c1j}@keyframes c1k{29.39%{fill:var(--c1)}29.41%,100%{fill:var(--ce)}}.c.c1k{fill:var(--c1);animation-name:c1k}@keyframes c1l{28.91%{fill:var(--c1)}28.93%,100%{fill:var(--ce)}}.c.c1l{fill:var(--c1);animation-name:c1l}.u{transform-origin:0 0;transform:scale(0,1);animation:none linear 41500ms infinite}@keyframes u0{0.95%{transform:scale(0.000,1)}0.97%,2.16%{transform:scale(0.030,1)}2.18%,3.12%{transform:scale(0.061,1)}3.14%,4.33%{transform:scale(0.091,1)}4.35%,4.81%{transform:scale(0.121,1)}4.83%,5.05%{transform:scale(0.152,1)}5.07%,6.98%{transform:scale(0.182,1)}7%,7.94%{transform:scale(0.212,1)}7.96%,8.18%{transform:scale(0.242,1)}8.2%,8.42%{transform:scale(0.273,1)}8.44%,9.39%{transform:scale(0.303,1)}9.41%,11.32%{transform:scale(0.333,1)}11.34%,11.8%{transform:scale(0.364,1)}11.82%,12.52%{transform:scale(0.394,1)}12.54%,14.69%{transform:scale(0.424,1)}14.71%,14.93%{transform:scale(0.455,1)}14.95%,20.47%{transform:scale(0.485,1)}20.49%,21.19%{transform:scale(0.515,1)}21.21%,21.44%{transform:scale(0.545,1)}21.46%,21.92%{transform:scale(0.576,1)}21.94%,22.16%{transform:scale(0.606,1)}22.18%,23.36%{transform:scale(0.636,1)}23.38%,24.33%{transform:scale(0.667,1)}24.35%,24.57%{transform:scale(0.697,1)}24.59%,26.5%{transform:scale(0.727,1)}26.52%,26.74%{transform:scale(0.758,1)}26.76%,27.46%{transform:scale(0.788,1)}27.48%,27.94%{transform:scale(0.818,1)}27.96%,28.91%{transform:scale(0.848,1)}28.93%,29.39%{transform:scale(0.879,1)}29.41%,29.63%{transform:scale(0.909,1)}29.65%,29.87%{transform:scale(0.939,1)}29.89%,36.62%{transform:scale(0.970,1)}36.64%,100%{transform:scale(1.000,1)}}.u.u0{fill:var(--c1);animation-name:u0;transform-origin:0.0px 0}@keyframes u1{37.82%{transform:scale(0.000,1)}37.84%,39.27%{transform:scale(0.100,1)}39.29%,42.64%{transform:scale(0.200,1)}42.66%,46.5%{transform:scale(0.300,1)}46.52%,46.74%{transform:scale(0.400,1)}46.76%,47.22%{transform:scale(0.500,1)}47.24%,47.7%{transform:scale(0.600,1)}47.72%,50.11%{transform:scale(0.700,1)}50.13%,61.68%{transform:scale(0.800,1)}61.7%,63.36%{transform:scale(0.900,1)}63.38%,100%{transform:scale(1.000,1)}}.u.u1{fill:var(--c2);animation-name:u1;transform-origin:482.5px 0}@keyframes u2{67.46%{transform:scale(0.000,1)}67.48%,71.32%{transform:scale(0.111,1)}71.34%,74.93%{transform:scale(0.222,1)}74.95%,75.65%{transform:scale(0.333,1)}75.67%,75.89%{transform:scale(0.444,1)}75.91%,76.86%{transform:scale(0.556,1)}76.88%,77.34%{transform:scale(0.667,1)}77.36%,77.82%{transform:scale(0.778,1)}77.84%,79.51%{transform:scale(0.889,1)}79.53%,100%{transform:scale(1.000,1)}}.u.u2{fill:var(--c3);animation-name:u2;transform-origin:628.7px 0}@keyframes u3{79.99%{transform:scale(0.000,1)}80.01%,80.23%{transform:scale(0.167,1)}80.25%,80.95%{transform:scale(0.333,1)}80.97%,81.44%{transform:scale(0.500,1)}81.46%,82.4%{transform:scale(0.667,1)}82.42%,90.59%{transform:scale(0.833,1)}90.61%,100%{transform:scale(1.000,1)}}.u.u3{fill:var(--c4);animation-name:u3;transform-origin:760.3px 0}.s{shape-rendering:geometricPrecision;fill:var(--cs);animation:none linear 41500ms infinite}@keyframes s0{0%,99.76%{transform:translate(0px,-16px)}0.24%{transform:translate(0px,0px)}0.72%{transform:translate(32px,0px)}0.96%,77.59%{transform:translate(32px,16px)}1.45%{transform:translate(0px,16px)}2.17%,79.28%{transform:translate(0px,64px)}2.41%{transform:translate(-16px,64px)}2.89%{transform:translate(-16px,96px)}3.13%{transform:translate(0px,96px)}3.37%{transform:translate(0px,112px)}4.1%{transform:translate(48px,112px)}4.58%{transform:translate(48px,80px)}4.82%{transform:translate(32px,80px)}5.06%{transform:translate(32px,64px)}5.3%,78.55%{transform:translate(48px,64px)}5.78%,78.07%{transform:translate(48px,32px)}6.27%{transform:translate(80px,32px)}6.75%,75.18%{transform:translate(80px,64px)}7.71%{transform:translate(144px,64px)}8.19%{transform:translate(144px,96px)}10.6%{transform:translate(304px,96px)}11.33%{transform:translate(304px,48px)}11.57%,70.84%{transform:translate(320px,48px)}12.05%{transform:translate(320px,16px)}12.53%{transform:translate(288px,16px)}12.77%{transform:translate(288px,0px)}14.94%{transform:translate(144px,0px)}15.18%{transform:translate(144px,16px)}20.24%{transform:translate(480px,16px)}20.48%{transform:translate(480px,32px)}20.96%{transform:translate(512px,32px)}21.45%{transform:translate(512px,0px)}21.93%{transform:translate(544px,0px)}22.17%{transform:translate(544px,16px)}22.41%{transform:translate(560px,16px)}23.13%{transform:translate(560px,64px)}23.37%{transform:translate(544px,64px)}23.61%{transform:translate(544px,80px)}24.34%{transform:translate(592px,80px)}24.58%{transform:translate(592px,64px)}26.27%{transform:translate(704px,64px)}26.51%{transform:translate(704px,48px)}26.99%{transform:translate(736px,48px)}27.47%{transform:translate(736px,80px)}27.95%,63.61%{transform:translate(768px,80px)}28.19%{transform:translate(768px,64px)}28.67%{transform:translate(800px,64px)}29.64%{transform:translate(800px,0px)}34.22%,39.04%,89.16%{transform:translate(496px,0px)}34.46%{transform:translate(496px,16px)}35.42%{transform:translate(432px,16px)}36.63%{transform:translate(432px,96px)}37.35%{transform:translate(480px,96px)}37.59%{transform:translate(480px,80px)}37.83%{transform:translate(496px,80px)}41.69%{transform:translate(320px,0px)}42.65%{transform:translate(320px,64px)}46.51%,51.33%{transform:translate(64px,64px)}47.23%,77.11%{transform:translate(64px,16px)}47.95%{transform:translate(112px,16px)}48.67%,96.87%{transform:translate(112px,64px)}50.12%{transform:translate(16px,64px)}50.36%,79.76%{transform:translate(16px,80px)}51.08%{transform:translate(64px,80px)}61.2%{transform:translate(720px,64px)}61.69%{transform:translate(720px,32px)}62.65%{transform:translate(784px,32px)}63.37%{transform:translate(784px,80px)}64.1%{transform:translate(768px,48px)}71.33%{transform:translate(320px,80px)}74.94%{transform:translate(80px,80px)}75.42%,97.11%{transform:translate(96px,64px)}76.39%{transform:translate(96px,0px)}76.87%,98.55%{transform:translate(64px,0px)}77.83%,81.2%{transform:translate(32px,32px)}79.52%{transform:translate(0px,80px)}80%{transform:translate(16px,96px)}80.24%{transform:translate(32px,96px)}81.45%{transform:translate(16px,32px)}81.69%{transform:translate(16px,16px)}82.17%{transform:translate(48px,16px)}82.41%{transform:translate(48px,0px)}90.6%{transform:translate(496px,96px)}96.39%{transform:translate(112px,96px)}97.83%{transform:translate(96px,16px)}98.07%{transform:translate(80px,16px)}98.31%{transform:translate(80px,0px)}98.8%{transform:translate(64px,-16px)}}.s.s0{transform:translate(0px,-16px);animation-name:s0}@keyframes s1{0%,99.76%{transform:translate(16px,-16px)}0.24%{transform:translate(0px,-16px)}0.48%{transform:translate(0px,0px)}0.96%{transform:translate(32px,0px)}1.2%,77.83%{transform:translate(32px,16px)}1.69%{transform:translate(0px,16px)}2.41%,79.52%{transform:translate(0px,64px)}2.65%{transform:translate(-16px,64px)}3.13%{transform:translate(-16px,96px)}3.37%{transform:translate(0px,96px)}3.61%{transform:translate(0px,112px)}4.34%{transform:translate(48px,112px)}4.82%{transform:translate(48px,80px)}5.06%{transform:translate(32px,80px)}5.3%{transform:translate(32px,64px)}5.54%,78.8%{transform:translate(48px,64px)}6.02%,78.31%{transform:translate(48px,32px)}6.51%{transform:translate(80px,32px)}6.99%,75.42%{transform:translate(80px,64px)}7.95%{transform:translate(144px,64px)}8.43%{transform:translate(144px,96px)}10.84%{transform:translate(304px,96px)}11.57%{transform:translate(304px,48px)}11.81%,71.08%{transform:translate(320px,48px)}12.29%{transform:translate(320px,16px)}12.77%{transform:translate(288px,16px)}13.01%{transform:translate(288px,0px)}15.18%{transform:translate(144px,0px)}15.42%{transform:translate(144px,16px)}20.48%{transform:translate(480px,16px)}20.72%{transform:translate(480px,32px)}21.2%{transform:translate(512px,32px)}21.69%{transform:translate(512px,0px)}22.17%{transform:translate(544px,0px)}22.41%{transform:translate(544px,16px)}22.65%{transform:translate(560px,16px)}23.37%{transform:translate(560px,64px)}23.61%{transform:translate(544px,64px)}23.86%{transform:translate(544px,80px)}24.58%{transform:translate(592px,80px)}24.82%{transform:translate(592px,64px)}26.51%{transform:translate(704px,64px)}26.75%{transform:translate(704px,48px)}27.23%{transform:translate(736px,48px)}27.71%{transform:translate(736px,80px)}28.19%,63.86%{transform:translate(768px,80px)}28.43%{transform:translate(768px,64px)}28.92%{transform:translate(800px,64px)}29.88%{transform:translate(800px,0px)}34.46%,39.28%,89.4%{transform:translate(496px,0px)}34.7%{transform:translate(496px,16px)}35.66%{transform:translate(432px,16px)}36.87%{transform:translate(432px,96px)}37.59%{transform:translate(480px,96px)}37.83%{transform:translate(480px,80px)}38.07%{transform:translate(496px,80px)}41.93%{transform:translate(320px,0px)}42.89%{transform:translate(320px,64px)}46.75%,51.57%{transform:translate(64px,64px)}47.47%,77.35%{transform:translate(64px,16px)}48.19%{transform:translate(112px,16px)}48.92%,97.11%{transform:translate(112px,64px)}50.36%{transform:translate(16px,64px)}50.6%,80%{transform:translate(16px,80px)}51.33%{transform:translate(64px,80px)}61.45%{transform:translate(720px,64px)}61.93%{transform:translate(720px,32px)}62.89%{transform:translate(784px,32px)}63.61%{transform:translate(784px,80px)}64.34%{transform:translate(768px,48px)}71.57%{transform:translate(320px,80px)}75.18%{transform:translate(80px,80px)}75.66%,97.35%{transform:translate(96px,64px)}76.63%{transform:translate(96px,0px)}77.11%,98.8%{transform:translate(64px,0px)}78.07%,81.45%{transform:translate(32px,32px)}79.76%{transform:translate(0px,80px)}80.24%{transform:translate(16px,96px)}80.48%{transform:translate(32px,96px)}81.69%{transform:translate(16px,32px)}81.93%{transform:translate(16px,16px)}82.41%{transform:translate(48px,16px)}82.65%{transform:translate(48px,0px)}90.84%{transform:translate(496px,96px)}96.63%{transform:translate(112px,96px)}98.07%{transform:translate(96px,16px)}98.31%{transform:translate(80px,16px)}98.55%{transform:translate(80px,0px)}99.04%{transform:translate(64px,-16px)}}.s.s1{transform:translate(16px,-16px);animation-name:s1}@keyframes s2{0%,99.76%{transform:translate(32px,-16px)}0.48%{transform:translate(0px,-16px)}0.72%{transform:translate(0px,0px)}1.2%{transform:translate(32px,0px)}1.45%,78.07%{transform:translate(32px,16px)}1.93%{transform:translate(0px,16px)}2.65%,79.76%{transform:translate(0px,64px)}2.89%{transform:translate(-16px,64px)}3.37%{transform:translate(-16px,96px)}3.61%{transform:translate(0px,96px)}3.86%{transform:translate(0px,112px)}4.58%{transform:translate(48px,112px)}5.06%{transform:translate(48px,80px)}5.3%{transform:translate(32px,80px)}5.54%{transform:translate(32px,64px)}5.78%,79.04%{transform:translate(48px,64px)}6.27%,78.55%{transform:translate(48px,32px)}6.75%{transform:translate(80px,32px)}7.23%,75.66%{transform:translate(80px,64px)}8.19%{transform:translate(144px,64px)}8.67%{transform:translate(144px,96px)}11.08%{transform:translate(304px,96px)}11.81%{transform:translate(304px,48px)}12.05%,71.33%{transform:translate(320px,48px)}12.53%{transform:translate(320px,16px)}13.01%{transform:translate(288px,16px)}13.25%{transform:translate(288px,0px)}15.42%{transform:translate(144px,0px)}15.66%{transform:translate(144px,16px)}20.72%{transform:translate(480px,16px)}20.96%{transform:translate(480px,32px)}21.45%{transform:translate(512px,32px)}21.93%{transform:translate(512px,0px)}22.41%{transform:translate(544px,0px)}22.65%{transform:translate(544px,16px)}22.89%{transform:translate(560px,16px)}23.61%{transform:translate(560px,64px)}23.86%{transform:translate(544px,64px)}24.1%{transform:translate(544px,80px)}24.82%{transform:translate(592px,80px)}25.06%{transform:translate(592px,64px)}26.75%{transform:translate(704px,64px)}26.99%{transform:translate(704px,48px)}27.47%{transform:translate(736px,48px)}27.95%{transform:translate(736px,80px)}28.43%,64.1%{transform:translate(768px,80px)}28.67%{transform:translate(768px,64px)}29.16%{transform:translate(800px,64px)}30.12%{transform:translate(800px,0px)}34.7%,39.52%,89.64%{transform:translate(496px,0px)}34.94%{transform:translate(496px,16px)}35.9%{transform:translate(432px,16px)}37.11%{transform:translate(432px,96px)}37.83%{transform:translate(480px,96px)}38.07%{transform:translate(480px,80px)}38.31%{transform:translate(496px,80px)}42.17%{transform:translate(320px,0px)}43.13%{transform:translate(320px,64px)}46.99%,51.81%{transform:translate(64px,64px)}47.71%,77.59%{transform:translate(64px,16px)}48.43%{transform:translate(112px,16px)}49.16%,97.35%{transform:translate(112px,64px)}50.6%{transform:translate(16px,64px)}50.84%,80.24%{transform:translate(16px,80px)}51.57%{transform:translate(64px,80px)}61.69%{transform:translate(720px,64px)}62.17%{transform:translate(720px,32px)}63.13%{transform:translate(784px,32px)}63.86%{transform:translate(784px,80px)}64.58%{transform:translate(768px,48px)}71.81%{transform:translate(320px,80px)}75.42%{transform:translate(80px,80px)}75.9%,97.59%{transform:translate(96px,64px)}76.87%{transform:translate(96px,0px)}77.35%,99.04%{transform:translate(64px,0px)}78.31%,81.69%{transform:translate(32px,32px)}80%{transform:translate(0px,80px)}80.48%{transform:translate(16px,96px)}80.72%{transform:translate(32px,96px)}81.93%{transform:translate(16px,32px)}82.17%{transform:translate(16px,16px)}82.65%{transform:translate(48px,16px)}82.89%{transform:translate(48px,0px)}91.08%{transform:translate(496px,96px)}96.87%{transform:translate(112px,96px)}98.31%{transform:translate(96px,16px)}98.55%{transform:translate(80px,16px)}98.8%{transform:translate(80px,0px)}99.28%{transform:translate(64px,-16px)}}.s.s2{transform:translate(32px,-16px);animation-name:s2}@keyframes s3{0%,99.76%{transform:translate(48px,-16px)}0.72%{transform:translate(0px,-16px)}0.96%{transform:translate(0px,0px)}1.45%{transform:translate(32px,0px)}1.69%,78.31%{transform:translate(32px,16px)}2.17%{transform:translate(0px,16px)}2.89%,80%{transform:translate(0px,64px)}3.13%{transform:translate(-16px,64px)}3.61%{transform:translate(-16px,96px)}3.86%{transform:translate(0px,96px)}4.1%{transform:translate(0px,112px)}4.82%{transform:translate(48px,112px)}5.3%{transform:translate(48px,80px)}5.54%{transform:translate(32px,80px)}5.78%{transform:translate(32px,64px)}6.02%,79.28%{transform:translate(48px,64px)}6.51%,78.8%{transform:translate(48px,32px)}6.99%{transform:translate(80px,32px)}7.47%,75.9%{transform:translate(80px,64px)}8.43%{transform:translate(144px,64px)}8.92%{transform:translate(144px,96px)}11.33%{transform:translate(304px,96px)}12.05%{transform:translate(304px,48px)}12.29%,71.57%{transform:translate(320px,48px)}12.77%{transform:translate(320px,16px)}13.25%{transform:translate(288px,16px)}13.49%{transform:translate(288px,0px)}15.66%{transform:translate(144px,0px)}15.9%{transform:translate(144px,16px)}20.96%{transform:translate(480px,16px)}21.2%{transform:translate(480px,32px)}21.69%{transform:translate(512px,32px)}22.17%{transform:translate(512px,0px)}22.65%{transform:translate(544px,0px)}22.89%{transform:translate(544px,16px)}23.13%{transform:translate(560px,16px)}23.86%{transform:translate(560px,64px)}24.1%{transform:translate(544px,64px)}24.34%{transform:translate(544px,80px)}25.06%{transform:translate(592px,80px)}25.3%{transform:translate(592px,64px)}26.99%{transform:translate(704px,64px)}27.23%{transform:translate(704px,48px)}27.71%{transform:translate(736px,48px)}28.19%{transform:translate(736px,80px)}28.67%,64.34%{transform:translate(768px,80px)}28.92%{transform:translate(768px,64px)}29.4%{transform:translate(800px,64px)}30.36%{transform:translate(800px,0px)}34.94%,39.76%,89.88%{transform:translate(496px,0px)}35.18%{transform:translate(496px,16px)}36.14%{transform:translate(432px,16px)}37.35%{transform:translate(432px,96px)}38.07%{transform:translate(480px,96px)}38.31%{transform:translate(480px,80px)}38.55%{transform:translate(496px,80px)}42.41%{transform:translate(320px,0px)}43.37%{transform:translate(320px,64px)}47.23%,52.05%{transform:translate(64px,64px)}47.95%,77.83%{transform:translate(64px,16px)}48.67%{transform:translate(112px,16px)}49.4%,97.59%{transform:translate(112px,64px)}50.84%{transform:translate(16px,64px)}51.08%,80.48%{transform:translate(16px,80px)}51.81%{transform:translate(64px,80px)}61.93%{transform:translate(720px,64px)}62.41%{transform:translate(720px,32px)}63.37%{transform:translate(784px,32px)}64.1%{transform:translate(784px,80px)}64.82%{transform:translate(768px,48px)}72.05%{transform:translate(320px,80px)}75.66%{transform:translate(80px,80px)}76.14%,97.83%{transform:translate(96px,64px)}77.11%{transform:translate(96px,0px)}77.59%,99.28%{transform:translate(64px,0px)}78.55%,81.93%{transform:translate(32px,32px)}80.24%{transform:translate(0px,80px)}80.72%{transform:translate(16px,96px)}80.96%{transform:translate(32px,96px)}82.17%{transform:translate(16px,32px)}82.41%{transform:translate(16px,16px)}82.89%{transform:translate(48px,16px)}83.13%{transform:translate(48px,0px)}91.33%{transform:translate(496px,96px)}97.11%{transform:translate(112px,96px)}98.55%{transform:translate(96px,16px)}98.8%{transform:translate(80px,16px)}99.04%{transform:translate(80px,0px)}99.52%{transform:translate(64px,-16px)}}.s.s3{transform:translate(48px,-16px);animation-name:s3}</style><rect class="c" x="2" y="2" rx="2" ry="2"/><rect class="c" x="2" y="18" rx="2" ry="2"/><rect class="c" x="2" y="34" rx="2" ry="2"/><rect class="c" x="2" y="50" rx="2" ry="2"/><rect class="c c0" x="2" y="66" rx="2" ry="2"/><rect class="c c1" x="2" y="82" rx="2" ry="2"/><rect class="c c2" x="2" y="98" rx="2" ry="2"/><rect class="c" x="18" y="2" rx="2" ry="2"/><rect class="c" x="18" y="18" rx="2" ry="2"/><rect class="c c3" x="18" y="34" rx="2" ry="2"/><rect class="c" x="18" y="50" rx="2" ry="2"/><rect class="c c4" x="18" y="66" rx="2" ry="2"/><rect class="c" x="18" y="82" rx="2" ry="2"/><rect class="c c5" x="18" y="98" rx="2" ry="2"/><rect class="c" x="34" y="2" rx="2" ry="2"/><rect class="c c6" x="34" y="18" rx="2" ry="2"/><rect class="c c7" x="34" y="34" rx="2" ry="2"/><rect class="c c8" x="34" y="50" rx="2" ry="2"/><rect class="c c9" x="34" y="66" rx="2" ry="2"/><rect class="c ca" x="34" y="82" rx="2" ry="2"/><rect class="c cb" x="34" y="98" rx="2" ry="2"/><rect class="c cc" x="50" y="2" rx="2" ry="2"/><rect class="c cd" x="50" y="18" rx="2" ry="2"/><rect class="c" x="50" y="34" rx="2" ry="2"/><rect class="c" x="50" y="50" rx="2" ry="2"/><rect class="c" x="50" y="66" rx="2" ry="2"/><rect class="c" x="50" y="82" rx="2" ry="2"/><rect class="c ce" x="50" y="98" rx="2" ry="2"/><rect class="c cf" x="66" y="2" rx="2" ry="2"/><rect class="c cg" x="66" y="18" rx="2" ry="2"/><rect class="c" x="66" y="34" rx="2" ry="2"/><rect class="c ch" x="66" y="50" rx="2" ry="2"/><rect class="c ci" x="66" y="66" rx="2" ry="2"/><rect class="c" x="66" y="82" rx="2" ry="2"/><rect class="c" x="66" y="98" rx="2" ry="2"/><rect class="c" x="82" y="2" rx="2" ry="2"/><rect class="c" x="82" y="18" rx="2" ry="2"/><rect class="c" x="82" y="34" rx="2" ry="2"/><rect class="c" x="82" y="50" rx="2" ry="2"/><rect class="c" x="82" y="66" rx="2" ry="2"/><rect class="c cj" x="82" y="82" rx="2" ry="2"/><rect class="c" x="82" y="98" rx="2" ry="2"/><rect class="c" x="98" y="2" rx="2" ry="2"/><rect class="c ck" x="98" y="18" rx="2" ry="2"/><rect class="c cl" x="98" y="34" rx="2" ry="2"/><rect class="c cm" x="98" y="50" rx="2" ry="2"/><rect class="c cn" x="98" y="66" rx="2" ry="2"/><rect class="c" x="98" y="82" rx="2" ry="2"/><rect class="c" x="98" y="98" rx="2" ry="2"/><rect class="c" x="114" y="2" rx="2" ry="2"/><rect class="c" x="114" y="18" rx="2" ry="2"/><rect class="c" x="114" y="34" rx="2" ry="2"/><rect class="c" x="114" y="50" rx="2" ry="2"/><rect class="c" x="114" y="66" rx="2" ry="2"/><rect class="c" x="114" y="82" rx="2" ry="2"/><rect class="c" x="114" y="98" rx="2" ry="2"/><rect class="c" x="130" y="2" rx="2" ry="2"/><rect class="c" x="130" y="18" rx="2" ry="2"/><rect class="c" x="130" y="34" rx="2" ry="2"/><rect class="c" x="130" y="50" rx="2" ry="2"/><rect class="c" x="130" y="66" rx="2" ry="2"/><rect class="c" x="130" y="82" rx="2" ry="2"/><rect class="c" x="130" y="98" rx="2" ry="2"/><rect class="c co" x="146" y="2" rx="2" ry="2"/><rect class="c" x="146" y="18" rx="2" ry="2"/><rect class="c" x="146" y="34" rx="2" ry="2"/><rect class="c" x="146" y="50" rx="2" ry="2"/><rect class="c" x="146" y="66" rx="2" ry="2"/><rect class="c cp" x="146" y="82" rx="2" ry="2"/><rect class="c cq" x="146" y="98" rx="2" ry="2"/><rect class="c cr" x="162" y="2" rx="2" ry="2"/><rect class="c" x="162" y="18" rx="2" ry="2"/><rect class="c" x="162" y="34" rx="2" ry="2"/><rect class="c" x="162" y="50" rx="2" ry="2"/><rect class="c" x="162" y="66" rx="2" ry="2"/><rect class="c" x="162" y="82" rx="2" ry="2"/><rect class="c cs" x="162" y="98" rx="2" ry="2"/><rect class="c" x="178" y="2" rx="2" ry="2"/><rect class="c" x="178" y="18" rx="2" ry="2"/><rect class="c" x="178" y="34" rx="2" ry="2"/><rect class="c" x="178" y="50" rx="2" ry="2"/><rect class="c" x="178" y="66" rx="2" ry="2"/><rect class="c" x="178" y="82" rx="2" ry="2"/><rect class="c" x="178" y="98" rx="2" ry="2"/><rect class="c" x="194" y="2" rx="2" ry="2"/><rect class="c" x="194" y="18" rx="2" ry="2"/><rect class="c" x="194" y="34" rx="2" ry="2"/><rect class="c" x="194" y="50" rx="2" ry="2"/><rect class="c" x="194" y="66" rx="2" ry="2"/><rect class="c" x="194" y="82" rx="2" ry="2"/><rect class="c" x="194" y="98" rx="2" ry="2"/><rect class="c" x="210" y="2" rx="2" ry="2"/><rect class="c" x="210" y="18" rx="2" ry="2"/><rect class="c" x="210" y="34" rx="2" ry="2"/><rect class="c" x="210" y="50" rx="2" ry="2"/><rect class="c" x="210" y="66" rx="2" ry="2"/><rect class="c" x="210" y="82" rx="2" ry="2"/><rect class="c" x="210" y="98" rx="2" ry="2"/><rect class="c" x="226" y="2" rx="2" ry="2"/><rect class="c" x="226" y="18" rx="2" ry="2"/><rect class="c" x="226" y="34" rx="2" ry="2"/><rect class="c" x="226" y="50" rx="2" ry="2"/><rect class="c" x="226" y="66" rx="2" ry="2"/><rect class="c" x="226" y="82" rx="2" ry="2"/><rect class="c ct" x="226" y="98" rx="2" ry="2"/><rect class="c" x="242" y="2" rx="2" ry="2"/><rect class="c" x="242" y="18" rx="2" ry="2"/><rect class="c" x="242" y="34" rx="2" ry="2"/><rect class="c" x="242" y="50" rx="2" ry="2"/><rect class="c" x="242" y="66" rx="2" ry="2"/><rect class="c" x="242" y="82" rx="2" ry="2"/><rect class="c" x="242" y="98" rx="2" ry="2"/><rect class="c" x="258" y="2" rx="2" ry="2"/><rect class="c" x="258" y="18" rx="2" ry="2"/><rect class="c" x="258" y="34" rx="2" ry="2"/><rect class="c" x="258" y="50" rx="2" ry="2"/><rect class="c" x="258" y="66" rx="2" ry="2"/><rect class="c" x="258" y="82" rx="2" ry="2"/><rect class="c" x="258" y="98" rx="2" ry="2"/><rect class="c" x="274" y="2" rx="2" ry="2"/><rect class="c" x="274" y="18" rx="2" ry="2"/><rect class="c" x="274" y="34" rx="2" ry="2"/><rect class="c" x="274" y="50" rx="2" ry="2"/><rect class="c" x="274" y="66" rx="2" ry="2"/><rect class="c" x="274" y="82" rx="2" ry="2"/><rect class="c" x="274" y="98" rx="2" ry="2"/><rect class="c" x="290" y="2" rx="2" ry="2"/><rect class="c cu" x="290" y="18" rx="2" ry="2"/><rect class="c" x="290" y="34" rx="2" ry="2"/><rect class="c" x="290" y="50" rx="2" ry="2"/><rect class="c" x="290" y="66" rx="2" ry="2"/><rect class="c" x="290" y="82" rx="2" ry="2"/><rect class="c" x="290" y="98" rx="2" ry="2"/><rect class="c" x="306" y="2" rx="2" ry="2"/><rect class="c" x="306" y="18" rx="2" ry="2"/><rect class="c" x="306" y="34" rx="2" ry="2"/><rect class="c cv" x="306" y="50" rx="2" ry="2"/><rect class="c" x="306" y="66" rx="2" ry="2"/><rect class="c" x="306" y="82" rx="2" ry="2"/><rect class="c" x="306" y="98" rx="2" ry="2"/><rect class="c" x="322" y="2" rx="2" ry="2"/><rect class="c" x="322" y="18" rx="2" ry="2"/><rect class="c cw" x="322" y="34" rx="2" ry="2"/><rect class="c" x="322" y="50" rx="2" ry="2"/><rect class="c cx" x="322" y="66" rx="2" ry="2"/><rect class="c cy" x="322" y="82" rx="2" ry="2"/><rect class="c" x="322" y="98" rx="2" ry="2"/><rect class="c" x="338" y="2" rx="2" ry="2"/><rect class="c" x="338" y="18" rx="2" ry="2"/><rect class="c" x="338" y="34" rx="2" ry="2"/><rect class="c" x="338" y="50" rx="2" ry="2"/><rect class="c" x="338" y="66" rx="2" ry="2"/><rect class="c" x="338" y="82" rx="2" ry="2"/><rect class="c" x="338" y="98" rx="2" ry="2"/><rect class="c" x="354" y="2" rx="2" ry="2"/><rect class="c" x="354" y="18" rx="2" ry="2"/><rect class="c" x="354" y="34" rx="2" ry="2"/><rect class="c" x="354" y="50" rx="2" ry="2"/><rect class="c" x="354" y="66" rx="2" ry="2"/><rect class="c" x="354" y="82" rx="2" ry="2"/><rect class="c" x="354" y="98" rx="2" ry="2"/><rect class="c" x="370" y="2" rx="2" ry="2"/><rect class="c" x="370" y="18" rx="2" ry="2"/><rect class="c" x="370" y="34" rx="2" ry="2"/><rect class="c" x="370" y="50" rx="2" ry="2"/><rect class="c" x="370" y="66" rx="2" ry="2"/><rect class="c" x="370" y="82" rx="2" ry="2"/><rect class="c" x="370" y="98" rx="2" ry="2"/><rect class="c" x="386" y="2" rx="2" ry="2"/><rect class="c" x="386" y="18" rx="2" ry="2"/><rect class="c" x="386" y="34" rx="2" ry="2"/><rect class="c" x="386" y="50" rx="2" ry="2"/><rect class="c" x="386" y="66" rx="2" ry="2"/><rect class="c" x="386" y="82" rx="2" ry="2"/><rect class="c" x="386" y="98" rx="2" ry="2"/><rect class="c" x="402" y="2" rx="2" ry="2"/><rect class="c" x="402" y="18" rx="2" ry="2"/><rect class="c" x="402" y="34" rx="2" ry="2"/><rect class="c" x="402" y="50" rx="2" ry="2"/><rect class="c" x="402" y="66" rx="2" ry="2"/><rect class="c" x="402" y="82" rx="2" ry="2"/><rect class="c" x="402" y="98" rx="2" ry="2"/><rect class="c" x="418" y="2" rx="2" ry="2"/><rect class="c" x="418" y="18" rx="2" ry="2"/><rect class="c" x="418" y="34" rx="2" ry="2"/><rect class="c" x="418" y="50" rx="2" ry="2"/><rect class="c" x="418" y="66" rx="2" ry="2"/><rect class="c" x="418" y="82" rx="2" ry="2"/><rect class="c" x="418" y="98" rx="2" ry="2"/><rect class="c" x="434" y="2" rx="2" ry="2"/><rect class="c" x="434" y="18" rx="2" ry="2"/><rect class="c" x="434" y="34" rx="2" ry="2"/><rect class="c" x="434" y="50" rx="2" ry="2"/><rect class="c" x="434" y="66" rx="2" ry="2"/><rect class="c" x="434" y="82" rx="2" ry="2"/><rect class="c cz" x="434" y="98" rx="2" ry="2"/><rect class="c" x="450" y="2" rx="2" ry="2"/><rect class="c" x="450" y="18" rx="2" ry="2"/><rect class="c" x="450" y="34" rx="2" ry="2"/><rect class="c" x="450" y="50" rx="2" ry="2"/><rect class="c" x="450" y="66" rx="2" ry="2"/><rect class="c" x="450" y="82" rx="2" ry="2"/><rect class="c" x="450" y="98" rx="2" ry="2"/><rect class="c" x="466" y="2" rx="2" ry="2"/><rect class="c" x="466" y="18" rx="2" ry="2"/><rect class="c" x="466" y="34" rx="2" ry="2"/><rect class="c" x="466" y="50" rx="2" ry="2"/><rect class="c" x="466" y="66" rx="2" ry="2"/><rect class="c" x="466" y="82" rx="2" ry="2"/><rect class="c" x="466" y="98" rx="2" ry="2"/><rect class="c c10" x="482" y="2" rx="2" ry="2"/><rect class="c" x="482" y="18" rx="2" ry="2"/><rect class="c c11" x="482" y="34" rx="2" ry="2"/><rect class="c" x="482" y="50" rx="2" ry="2"/><rect class="c" x="482" y="66" rx="2" ry="2"/><rect class="c" x="482" y="82" rx="2" ry="2"/><rect class="c" x="482" y="98" rx="2" ry="2"/><rect class="c" x="498" y="2" rx="2" ry="2"/><rect class="c" x="498" y="18" rx="2" ry="2"/><rect class="c" x="498" y="34" rx="2" ry="2"/><rect class="c" x="498" y="50" rx="2" ry="2"/><rect class="c" x="498" y="66" rx="2" ry="2"/><rect class="c c12" x="498" y="82" rx="2" ry="2"/><rect class="c c13" x="498" y="98" rx="2" ry="2"/><rect class="c c14" x="514" y="2" rx="2" ry="2"/><rect class="c c15" x="514" y="18" rx="2" ry="2"/><rect class="c" x="514" y="34" rx="2" ry="2"/><rect class="c" x="514" y="50" rx="2" ry="2"/><rect class="c" x="514" y="66" rx="2" ry="2"/><rect class="c" x="514" y="82" rx="2" ry="2"/><rect class="c" x="514" y="98" rx="2" ry="2"/><rect class="c" x="530" y="2" rx="2" ry="2"/><rect class="c" x="530" y="18" rx="2" ry="2"/><rect class="c" x="530" y="34" rx="2" ry="2"/><rect class="c" x="530" y="50" rx="2" ry="2"/><rect class="c" x="530" y="66" rx="2" ry="2"/><rect class="c" x="530" y="82" rx="2" ry="2"/><rect class="c" x="530" y="98" rx="2" ry="2"/><rect class="c c16" x="546" y="2" rx="2" ry="2"/><rect class="c c17" x="546" y="18" rx="2" ry="2"/><rect class="c" x="546" y="34" rx="2" ry="2"/><rect class="c c18" x="546" y="50" rx="2" ry="2"/><rect class="c c19" x="546" y="66" rx="2" ry="2"/><rect class="c" x="546" y="82" rx="2" ry="2"/><rect class="c" x="546" y="98" rx="2" ry="2"/><rect class="c" x="562" y="2" rx="2" ry="2"/><rect class="c" x="562" y="18" rx="2" ry="2"/><rect class="c" x="562" y="34" rx="2" ry="2"/><rect class="c" x="562" y="50" rx="2" ry="2"/><rect class="c" x="562" y="66" rx="2" ry="2"/><rect class="c" x="562" y="82" rx="2" ry="2"/><rect class="c" x="562" y="98" rx="2" ry="2"/><rect class="c" x="578" y="2" rx="2" ry="2"/><rect class="c" x="578" y="18" rx="2" ry="2"/><rect class="c" x="578" y="34" rx="2" ry="2"/><rect class="c" x="578" y="50" rx="2" ry="2"/><rect class="c" x="578" y="66" rx="2" ry="2"/><rect class="c" x="578" y="82" rx="2" ry="2"/><rect class="c" x="578" y="98" rx="2" ry="2"/><rect class="c" x="594" y="2" rx="2" ry="2"/><rect class="c" x="594" y="18" rx="2" ry="2"/><rect class="c" x="594" y="34" rx="2" ry="2"/><rect class="c" x="594" y="50" rx="2" ry="2"/><rect class="c c1a" x="594" y="66" rx="2" ry="2"/><rect class="c c1b" x="594" y="82" rx="2" ry="2"/><rect class="c" x="594" y="98" rx="2" ry="2"/><rect class="c" x="610" y="2" rx="2" ry="2"/><rect class="c" x="610" y="18" rx="2" ry="2"/><rect class="c" x="610" y="34" rx="2" ry="2"/><rect class="c" x="610" y="50" rx="2" ry="2"/><rect class="c" x="610" y="66" rx="2" ry="2"/><rect class="c" x="610" y="82" rx="2" ry="2"/><rect class="c" x="610" y="98" rx="2" ry="2"/><rect class="c" x="626" y="2" rx="2" ry="2"/><rect class="c" x="626" y="18" rx="2" ry="2"/><rect class="c" x="626" y="34" rx="2" ry="2"/><rect class="c" x="626" y="50" rx="2" ry="2"/><rect class="c" x="626" y="66" rx="2" ry="2"/><rect class="c" x="626" y="82" rx="2" ry="2"/><rect class="c" x="626" y="98" rx="2" ry="2"/><rect class="c" x="642" y="2" rx="2" ry="2"/><rect class="c" x="642" y="18" rx="2" ry="2"/><rect class="c" x="642" y="34" rx="2" ry="2"/><rect class="c" x="642" y="50" rx="2" ry="2"/><rect class="c" x="642" y="66" rx="2" ry="2"/><rect class="c" x="642" y="82" rx="2" ry="2"/><rect class="c" x="642" y="98" rx="2" ry="2"/><rect class="c" x="658" y="2" rx="2" ry="2"/><rect class="c" x="658" y="18" rx="2" ry="2"/><rect class="c" x="658" y="34" rx="2" ry="2"/><rect class="c" x="658" y="50" rx="2" ry="2"/><rect class="c" x="658" y="66" rx="2" ry="2"/><rect class="c" x="658" y="82" rx="2" ry="2"/><rect class="c" x="658" y="98" rx="2" ry="2"/><rect class="c" x="674" y="2" rx="2" ry="2"/><rect class="c" x="674" y="18" rx="2" ry="2"/><rect class="c" x="674" y="34" rx="2" ry="2"/><rect class="c" x="674" y="50" rx="2" ry="2"/><rect class="c" x="674" y="66" rx="2" ry="2"/><rect class="c" x="674" y="82" rx="2" ry="2"/><rect class="c" x="674" y="98" rx="2" ry="2"/><rect class="c" x="690" y="2" rx="2" ry="2"/><rect class="c" x="690" y="18" rx="2" ry="2"/><rect class="c" x="690" y="34" rx="2" ry="2"/><rect class="c" x="690" y="50" rx="2" ry="2"/><rect class="c" x="690" y="66" rx="2" ry="2"/><rect class="c" x="690" y="82" rx="2" ry="2"/><rect class="c" x="690" y="98" rx="2" ry="2"/><rect class="c" x="706" y="2" rx="2" ry="2"/><rect class="c" x="706" y="18" rx="2" ry="2"/><rect class="c" x="706" y="34" rx="2" ry="2"/><rect class="c c1c" x="706" y="50" rx="2" ry="2"/><rect class="c" x="706" y="66" rx="2" ry="2"/><rect class="c" x="706" y="82" rx="2" ry="2"/><rect class="c" x="706" y="98" rx="2" ry="2"/><rect class="c" x="722" y="2" rx="2" ry="2"/><rect class="c" x="722" y="18" rx="2" ry="2"/><rect class="c c1d" x="722" y="34" rx="2" ry="2"/><rect class="c c1e" x="722" y="50" rx="2" ry="2"/><rect class="c" x="722" y="66" rx="2" ry="2"/><rect class="c" x="722" y="82" rx="2" ry="2"/><rect class="c" x="722" y="98" rx="2" ry="2"/><rect class="c" x="738" y="2" rx="2" ry="2"/><rect class="c" x="738" y="18" rx="2" ry="2"/><rect class="c" x="738" y="34" rx="2" ry="2"/><rect class="c" x="738" y="50" rx="2" ry="2"/><rect class="c" x="738" y="66" rx="2" ry="2"/><rect class="c c1f" x="738" y="82" rx="2" ry="2"/><rect class="c" x="738" y="98" rx="2" ry="2"/><rect class="c" x="754" y="2" rx="2" ry="2"/><rect class="c" x="754" y="18" rx="2" ry="2"/><rect class="c" x="754" y="34" rx="2" ry="2"/><rect class="c" x="754" y="50" rx="2" ry="2"/><rect class="c" x="754" y="66" rx="2" ry="2"/><rect class="c" x="754" y="82" rx="2" ry="2"/><rect class="c" x="754" y="98" rx="2" ry="2"/><rect class="c" x="770" y="2" rx="2" ry="2"/><rect class="c" x="770" y="18" rx="2" ry="2"/><rect class="c" x="770" y="34" rx="2" ry="2"/><rect class="c" x="770" y="50" rx="2" ry="2"/><rect class="c" x="770" y="66" rx="2" ry="2"/><rect class="c c1g" x="770" y="82" rx="2" ry="2"/><rect class="c" x="770" y="98" rx="2" ry="2"/><rect class="c c1h" x="786" y="2" rx="2" ry="2"/><rect class="c" x="786" y="18" rx="2" ry="2"/><rect class="c" x="786" y="34" rx="2" ry="2"/><rect class="c" x="786" y="50" rx="2" ry="2"/><rect class="c" x="786" y="66" rx="2" ry="2"/><rect class="c c1i" x="786" y="82" rx="2" ry="2"/><rect class="c" x="786" y="98" rx="2" ry="2"/><rect class="c c1j" x="802" y="2" rx="2" ry="2"/><rect class="c c1k" x="802" y="18" rx="2" ry="2"/><rect class="c" x="802" y="34" rx="2" ry="2"/><rect class="c c1l" x="802" y="50" rx="2" ry="2"/><rect class="c" x="802" y="66" rx="2" ry="2"/><rect class="c" x="802" y="82" rx="2" ry="2"/><rect class="c" x="802" y="98" rx="2" ry="2"/><rect class="c" x="818" y="2" rx="2" ry="2"/><rect class="c" x="818" y="18" rx="2" ry="2"/><rect class="c" x="818" y="34" rx="2" ry="2"/><rect class="c" x="818" y="50" rx="2" ry="2"/><rect class="c" x="818" y="66" rx="2" ry="2"/><rect class="c" x="818" y="82" rx="2" ry="2"/><rect class="c" x="818" y="98" rx="2" ry="2"/><rect class="c" x="834" y="2" rx="2" ry="2"/><rect class="c" x="834" y="18" rx="2" ry="2"/><rect class="c" x="834" y="34" rx="2" ry="2"/><rect class="c" x="834" y="50" rx="2" ry="2"/><rect class="c" x="834" y="66" rx="2" ry="2"/><rect class="u u0" height="12" width="483.1" x="0.0" y="144"/><rect class="u u1" height="12" width="146.8" x="482.5" y="144"/><rect class="u u2" height="12" width="132.2" x="628.7" y="144"/><rect class="u u3" height="12" width="88.3" x="760.3" y="144"/><rect class="s s0" x="0.8" y="0.8" width="14.4" height="14.4" rx="4.5" ry="4.5"/><rect class="s s1" x="1.8" y="1.8" width="12.3" height="12.3" rx="4.1" ry="4.1"/><rect class="s s2" x="2.6" y="2.6" width="10.8" height="10.8" rx="3.6" ry="3.6"/><rect class="s s3" x="3.0" y="3.0" width="9.9" height="9.9" rx="3.3" ry="3.3"/></svg>