<svg viewBox="-16 -32 880 192" width="880" height="192" xmlns="http://www.w3.org/2000/svg"><desc>Generated with https://github.com/Platane/snk</desc><style>:root{--cb:#1b1f230a;--cs:white;--ce:#0a0e12;--c0:#0a0e12;--c1:#1445a2;--c2:#1d65ee;--c3:#1f4eff;--c4:#466dff}.c{shape-rendering:geometricPrecision;fill:var(--ce);stroke-width:1px;stroke:var(--cb);animation:none 35500ms linear infinite;width:12px;height:12px}@keyframes c0{53.79%{fill:var(--c1)}53.81%,100%{fill:var(--ce)}}.c.c0{fill:var(--c1);animation-name:c0}@keyframes c1{6.19%{fill:var(--c1)}6.21%,100%{fill:var(--ce)}}.c.c1{fill:var(--c1);animation-name:c1}@keyframes c2{6.47%{fill:var(--c1)}6.49%,100%{fill:var(--ce)}}.c.c2{fill:var(--c1);animation-name:c2}@keyframes c3{50.41%{fill:var(--c1)}50.43%,100%{fill:var(--ce)}}.c.c3{fill:var(--c1);animation-name:c3}@keyframes c4{7.88%{fill:var(--c1)}7.9%,100%{fill:var(--ce)}}.c.c4{fill:var(--c1);animation-name:c4}@keyframes c5{56.61%{fill:var(--c2)}56.63%,100%{fill:var(--ce)}}.c.c5{fill:var(--c2);animation-name:c5}@keyframes c6{10.69%{fill:var(--c1)}10.71%,100%{fill:var(--ce)}}.c.c6{fill:var(--c1);animation-name:c6}@keyframes c7{10.41%{fill:var(--c1)}10.43%,100%{fill:var(--ce)}}.c.c7{fill:var(--c1);animation-name:c7}@keyframes c8{77.17%{fill:var(--c4)}77.19%,100%{fill:var(--ce)}}.c.c8{fill:var(--c4);animation-name:c8}@keyframes c9{8.16%{fill:var(--c1)}8.18%,100%{fill:var(--ce)}}.c.c9{fill:var(--c1);animation-name:c9}@keyframes ca{56.89%{fill:var(--c2)}56.91%,100%{fill:var(--ce)}}.c.ca{fill:var(--c2);animation-name:ca}@keyframes cb{9.85%{fill:var(--c1)}9.87%,100%{fill:var(--ce)}}.c.cb{fill:var(--c1);animation-name:cb}@keyframes cc{76.61%{fill:var(--c4)}76.63%,100%{fill:var(--ce)}}.c.cc{fill:var(--c4);animation-name:cc}@keyframes cd{76.33%{fill:var(--c4)}76.35%,100%{fill:var(--ce)}}.c.cd{fill:var(--c4);animation-name:cd}@keyframes ce{9%{fill:var(--c1)}9.02%,100%{fill:var(--ce)}}.c.ce{fill:var(--c1);animation-name:ce}@keyframes cf{9.29%{fill:var(--c1)}9.31%,100%{fill:var(--ce)}}.c.cf{fill:var(--c1);animation-name:cf}@keyframes cg{74.92%{fill:var(--c3)}74.94%,100%{fill:var(--ce)}}.c.cg{fill:var(--c3);animation-name:cg}@keyframes ch{12.1%{fill:var(--c1)}12.12%,100%{fill:var(--ce)}}.c.ch{fill:var(--c1);animation-name:ch}@keyframes ci{12.95%{fill:var(--c1)}12.97%,100%{fill:var(--ce)}}.c.ci{fill:var(--c1);animation-name:ci}@keyframes cj{14.07%{fill:var(--c1)}14.09%,100%{fill:var(--ce)}}.c.cj{fill:var(--c1);animation-name:cj}@keyframes ck{58.86%{fill:var(--c2)}58.88%,100%{fill:var(--ce)}}.c.ck{fill:var(--c2);animation-name:ck}@keyframes cl{13.79%{fill:var(--c1)}13.81%,100%{fill:var(--ce)}}.c.cl{fill:var(--c1);animation-name:cl}@keyframes cm{15.48%{fill:var(--c1)}15.5%,100%{fill:var(--ce)}}.c.cm{fill:var(--c1);animation-name:cm}@keyframes cn{20.27%{fill:var(--c1)}20.29%,100%{fill:var(--ce)}}.c.cn{fill:var(--c1);animation-name:cn}@keyframes co{19.99%{fill:var(--c1)}20.01%,100%{fill:var(--ce)}}.c.co{fill:var(--c1);animation-name:co}@keyframes cp{15.76%{fill:var(--c1)}15.78%,100%{fill:var(--ce)}}.c.cp{fill:var(--c1);animation-name:cp}@keyframes cq{19.71%{fill:var(--c1)}19.73%,100%{fill:var(--ce)}}.c.cq{fill:var(--c1);animation-name:cq}@keyframes cr{21.68%{fill:var(--c1)}21.7%,100%{fill:var(--ce)}}.c.cr{fill:var(--c1);animation-name:cr}@keyframes cs{16.05%{fill:var(--c1)}16.07%,100%{fill:var(--ce)}}.c.cs{fill:var(--c1);animation-name:cs}@keyframes ct{19.14%{fill:var(--c1)}19.16%,100%{fill:var(--ce)}}.c.ct{fill:var(--c1);animation-name:ct}@keyframes cu{16.61%{fill:var(--c1)}16.63%,100%{fill:var(--ce)}}.c.cu{fill:var(--c1);animation-name:cu}@keyframes cv{60.84%{fill:var(--c2)}60.86%,100%{fill:var(--ce)}}.c.cv{fill:var(--c2);animation-name:cv}@keyframes cw{18.58%{fill:var(--c1)}18.6%,100%{fill:var(--ce)}}.c.cw{fill:var(--c1);animation-name:cw}@keyframes cx{61.68%{fill:var(--c2)}61.7%,100%{fill:var(--ce)}}.c.cx{fill:var(--c2);animation-name:cx}@keyframes cy{16.89%{fill:var(--c1)}16.91%,100%{fill:var(--ce)}}.c.cy{fill:var(--c1);animation-name:cy}@keyframes cz{18.3%{fill:var(--c1)}18.32%,100%{fill:var(--ce)}}.c.cz{fill:var(--c1);animation-name:cz}@keyframes c10{17.45%{fill:var(--c1)}17.47%,100%{fill:var(--ce)}}.c.c10{fill:var(--c1);animation-name:c10}@keyframes c11{62.81%{fill:var(--c2)}62.83%,100%{fill:var(--ce)}}.c.c11{fill:var(--c2);animation-name:c11}@keyframes c12{33.23%{fill:var(--c1)}33.25%,100%{fill:var(--ce)}}.c.c12{fill:var(--c1);animation-name:c12}@keyframes c13{32.95%{fill:var(--c1)}32.97%,100%{fill:var(--ce)}}.c.c13{fill:var(--c1);animation-name:c13}@keyframes c14{24.5%{fill:var(--c1)}24.52%,100%{fill:var(--ce)}}.c.c14{fill:var(--c1);animation-name:c14}@keyframes c15{24.22%{fill:var(--c1)}24.24%,100%{fill:var(--ce)}}.c.c15{fill:var(--c1);animation-name:c15}@keyframes c16{25.06%{fill:var(--c1)}25.08%,100%{fill:var(--ce)}}.c.c16{fill:var(--c1);animation-name:c16}@keyframes c17{29.29%{fill:var(--c1)}29.31%,100%{fill:var(--ce)}}.c.c17{fill:var(--c1);animation-name:c17}@keyframes c18{29.57%{fill:var(--c1)}29.59%,100%{fill:var(--ce)}}.c.c18{fill:var(--c1);animation-name:c18}@keyframes c19{25.62%{fill:var(--c1)}25.64%,100%{fill:var(--ce)}}.c.c19{fill:var(--c1);animation-name:c19}@keyframes c1a{31.54%{fill:var(--c1)}31.56%,100%{fill:var(--ce)}}.c.c1a{fill:var(--c1);animation-name:c1a}@keyframes c1b{25.91%{fill:var(--c1)}25.93%,100%{fill:var(--ce)}}.c.c1b{fill:var(--c1);animation-name:c1b}@keyframes c1c{69%{fill:var(--c2)}69.02%,100%{fill:var(--ce)}}.c.c1c{fill:var(--c2);animation-name:c1c}@keyframes c1d{27.88%{fill:var(--c1)}27.9%,100%{fill:var(--ce)}}.c.c1d{fill:var(--c1);animation-name:c1d}@keyframes c1e{28.44%{fill:var(--c1)}28.46%,100%{fill:var(--ce)}}.c.c1e{fill:var(--c1);animation-name:c1e}@keyframes c1f{26.47%{fill:var(--c1)}26.49%,100%{fill:var(--ce)}}.c.c1f{fill:var(--c1);animation-name:c1f}@keyframes c1g{27.31%{fill:var(--c1)}27.33%,100%{fill:var(--ce)}}.c.c1g{fill:var(--c1);animation-name:c1g}@keyframes c1h{26.75%{fill:var(--c1)}26.77%,100%{fill:var(--ce)}}.c.c1h{fill:var(--c1);animation-name:c1h}@keyframes c1i{65.62%{fill:var(--c2)}65.64%,100%{fill:var(--ce)}}.c.c1i{fill:var(--c2);animation-name:c1i}@keyframes c1j{65.34%{fill:var(--c2)}65.36%,100%{fill:var(--ce)}}.c.c1j{fill:var(--c2);animation-name:c1j}@keyframes c1k{39.43%{fill:var(--c1)}39.45%,100%{fill:var(--ce)}}.c.c1k{fill:var(--c1);animation-name:c1k}@keyframes c1l{36.61%{fill:var(--c1)}36.63%,100%{fill:var(--ce)}}.c.c1l{fill:var(--c1);animation-name:c1l}@keyframes c1m{39.14%{fill:var(--c1)}39.16%,100%{fill:var(--ce)}}.c.c1m{fill:var(--c1);animation-name:c1m}@keyframes c1n{38.58%{fill:var(--c1)}38.6%,100%{fill:var(--ce)}}.c.c1n{fill:var(--c1);animation-name:c1n}@keyframes c1o{66.47%{fill:var(--c2)}66.49%,100%{fill:var(--ce)}}.c.c1o{fill:var(--c2);animation-name:c1o}@keyframes c1p{85.06%{fill:var(--c4)}85.08%,100%{fill:var(--ce)}}.c.c1p{fill:var(--c4);animation-name:c1p}@keyframes c1q{37.45%{fill:var(--c1)}37.47%,100%{fill:var(--ce)}}.c.c1q{fill:var(--c1);animation-name:c1q}@keyframes c1r{38.3%{fill:var(--c1)}38.32%,100%{fill:var(--ce)}}.c.c1r{fill:var(--c1);animation-name:c1r}@keyframes c1s{40.84%{fill:var(--c1)}40.86%,100%{fill:var(--ce)}}.c.c1s{fill:var(--c1);animation-name:c1s}.u{transform-origin:0 0;transform:scale(0,1);animation:none linear 35500ms infinite}@keyframes u0{6.19%{transform:scale(0.000,1)}6.21%,6.47%{transform:scale(0.020,1)}6.49%,7.88%{transform:scale(0.040,1)}7.9%,8.16%{transform:scale(0.060,1)}8.18%,9%{transform:scale(0.080,1)}9.02%,9.29%{transform:scale(0.100,1)}9.31%,9.85%{transform:scale(0.120,1)}9.87%,10.41%{transform:scale(0.140,1)}10.43%,10.69%{transform:scale(0.160,1)}10.71%,12.1%{transform:scale(0.180,1)}12.12%,12.95%{transform:scale(0.200,1)}12.97%,13.79%{transform:scale(0.220,1)}13.81%,14.07%{transform:scale(0.240,1)}14.09%,15.48%{transform:scale(0.260,1)}15.5%,15.76%{transform:scale(0.280,1)}15.78%,16.05%{transform:scale(0.300,1)}16.07%,16.61%{transform:scale(0.320,1)}16.63%,16.89%{transform:scale(0.340,1)}16.91%,17.45%{transform:scale(0.360,1)}17.47%,18.3%{transform:scale(0.380,1)}18.32%,18.58%{transform:scale(0.400,1)}18.6%,19.14%{transform:scale(0.420,1)}19.16%,19.71%{transform:scale(0.440,1)}19.73%,19.99%{transform:scale(0.460,1)}20.01%,20.27%{transform:scale(0.480,1)}20.29%,21.68%{transform:scale(0.500,1)}21.7%,24.22%{transform:scale(0.520,1)}24.24%,24.5%{transform:scale(0.540,1)}24.52%,25.06%{transform:scale(0.560,1)}25.08%,25.62%{transform:scale(0.580,1)}25.64%,25.91%{transform:scale(0.600,1)}25.93%,26.47%{transform:scale(0.620,1)}26.49%,26.75%{transform:scale(0.640,1)}26.77%,27.31%{transform:scale(0.660,1)}27.33%,27.88%{transform:scale(0.680,1)}27.9%,28.44%{transform:scale(0.700,1)}28.46%,29.29%{transform:scale(0.720,1)}29.31%,29.57%{transform:scale(0.740,1)}29.59%,31.54%{transform:scale(0.760,1)}31.56%,32.95%{transform:scale(0.780,1)}32.97%,33.23%{transform:scale(0.800,1)}33.25%,36.61%{transform:scale(0.820,1)}36.63%,37.45%{transform:scale(0.840,1)}37.47%,38.3%{transform:scale(0.860,1)}38.32%,38.58%{transform:scale(0.880,1)}38.6%,39.14%{transform:scale(0.900,1)}39.16%,39.43%{transform:scale(0.920,1)}39.45%,40.84%{transform:scale(0.940,1)}40.86%,50.41%{transform:scale(0.960,1)}50.43%,53.79%{transform:scale(0.980,1)}53.81%,100%{transform:scale(1.000,1)}}.u.u0{fill:var(--c1);animation-name:u0;transform-origin:0.0px 0}@keyframes u1{56.61%{transform:scale(0.000,1)}56.63%,56.89%{transform:scale(0.100,1)}56.91%,58.86%{transform:scale(0.200,1)}58.88%,60.84%{transform:scale(0.300,1)}60.86%,61.68%{transform:scale(0.400,1)}61.7%,62.81%{transform:scale(0.500,1)}62.83%,65.34%{transform:scale(0.600,1)}65.36%,65.62%{transform:scale(0.700,1)}65.64%,66.47%{transform:scale(0.800,1)}66.49%,69%{transform:scale(0.900,1)}69.02%,100%{transform:scale(1.000,1)}}.u.u1{fill:var(--c2);animation-name:u1;transform-origin:652.3px 0}@keyframes u2{74.92%{transform:scale(0.000,1)}74.94%,100%{transform:scale(1.000,1)}}.u.u2{fill:var(--c3);animation-name:u2;transform-origin:782.8px 0}@keyframes u3{76.33%{transform:scale(0.000,1)}76.35%,76.61%{transform:scale(0.250,1)}76.63%,77.17%{transform:scale(0.500,1)}77.19%,85.06%{transform:scale(0.750,1)}85.08%,100%{transform:scale(1.000,1)}}.u.u3{fill:var(--c4);animation-name:u3;transform-origin:795.8px 0}.s{shape-rendering:geometricPrecision;fill:var(--cs);animation:none linear 35500ms infinite}@keyframes s0{0%,99.72%{transform:translate(0px,-16px)}0.28%{transform:translate(0px,0px)}5.92%{transform:translate(320px,0px)}6.48%{transform:translate(320px,32px)}7.32%{transform:translate(368px,32px)}7.61%{transform:translate(368px,16px)}8.45%,49.58%{transform:translate(416px,16px)}8.73%,49.3%{transform:translate(416px,32px)}9.01%,74.37%{transform:translate(432px,32px)}9.3%{transform:translate(432px,48px)}9.58%,11.27%{transform:translate(416px,48px)}9.86%{transform:translate(416px,64px)}10.42%{transform:translate(384px,64px)}10.7%{transform:translate(384px,48px)}11.83%{transform:translate(416px,80px)}12.68%,14.37%{transform:translate(464px,80px)}12.96%{transform:translate(464px,64px)}13.24%{transform:translate(480px,64px)}13.8%{transform:translate(480px,96px)}14.08%{transform:translate(464px,96px)}15.21%{transform:translate(512px,80px)}15.49%{transform:translate(512px,96px)}16.34%{transform:translate(560px,96px)}16.62%{transform:translate(560px,80px)}17.46%{transform:translate(608px,80px)}18.03%{transform:translate(608px,48px)}18.59%{transform:translate(576px,48px)}18.87%{transform:translate(576px,32px)}19.15%{transform:translate(560px,32px)}19.44%{transform:translate(560px,16px)}20%{transform:translate(528px,16px)}20.28%{transform:translate(528px,0px)}20.56%{transform:translate(544px,0px)}21.69%{transform:translate(544px,64px)}21.97%{transform:translate(560px,64px)}22.25%{transform:translate(560px,48px)}23.94%{transform:translate(656px,48px)}24.51%{transform:translate(656px,16px)}24.79%{transform:translate(672px,16px)}25.07%{transform:translate(672px,0px)}26.2%{transform:translate(736px,0px)}26.48%{transform:translate(736px,16px)}26.76%{transform:translate(752px,16px)}27.04%{transform:translate(752px,32px)}27.61%{transform:translate(720px,32px)}28.45%{transform:translate(720px,80px)}29.3%{transform:translate(672px,80px)}29.58%{transform:translate(672px,96px)}30.14%{transform:translate(704px,96px)}31.83%{transform:translate(704px,0px)}33.24%{transform:translate(624px,0px)}33.52%{transform:translate(624px,-16px)}36.34%{transform:translate(784px,-16px)}36.62%{transform:translate(784px,0px)}36.9%{transform:translate(800px,0px)}37.18%,67.61%{transform:translate(800px,16px)}37.46%{transform:translate(816px,16px)}38.31%,40.56%{transform:translate(816px,64px)}38.87%{transform:translate(784px,64px)}39.15%{transform:translate(784px,80px)}39.44%{transform:translate(768px,80px)}39.72%{transform:translate(768px,64px)}40.85%{transform:translate(816px,80px)}41.13%{transform:translate(832px,80px)}41.97%{transform:translate(832px,32px)}50.14%{transform:translate(384px,16px)}50.42%{transform:translate(384px,0px)}52.11%{transform:translate(288px,0px)}53.8%{transform:translate(288px,96px)}55.49%{transform:translate(384px,96px)}56.62%{transform:translate(384px,32px)}58.31%{transform:translate(480px,32px)}58.87%{transform:translate(480px,0px)}60.56%{transform:translate(576px,0px)}61.69%{transform:translate(576px,64px)}62.25%{transform:translate(608px,64px)}62.82%{transform:translate(608px,96px)}65.35%{transform:translate(752px,96px)}65.63%{transform:translate(752px,80px)}66.48%{transform:translate(800px,80px)}73.8%,76.06%{transform:translate(448px,16px)}74.08%{transform:translate(448px,32px)}74.93%{transform:translate(432px,64px)}75.21%{transform:translate(448px,64px)}76.34%{transform:translate(432px,16px)}76.62%{transform:translate(432px,0px)}77.18%{transform:translate(400px,0px)}77.46%{transform:translate(400px,-16px)}84.79%{transform:translate(816px,-16px)}85.07%{transform:translate(816px,0px)}97.75%{transform:translate(96px,0px)}98.03%{transform:translate(96px,-16px)}}.s.s0{transform:translate(0px,-16px);animation-name:s0}@keyframes s1{0%,99.72%{transform:translate(16px,-16px)}0.28%{transform:translate(0px,-16px)}0.56%{transform:translate(0px,0px)}6.2%{transform:translate(320px,0px)}6.76%{transform:translate(320px,32px)}7.61%{transform:translate(368px,32px)}7.89%{transform:translate(368px,16px)}8.73%,49.86%{transform:translate(416px,16px)}9.01%,49.58%{transform:translate(416px,32px)}9.3%,74.65%{transform:translate(432px,32px)}9.58%{transform:translate(432px,48px)}9.86%,11.55%{transform:translate(416px,48px)}10.14%{transform:translate(416px,64px)}10.7%{transform:translate(384px,64px)}10.99%{transform:translate(384px,48px)}12.11%{transform:translate(416px,80px)}12.96%,14.65%{transform:translate(464px,80px)}13.24%{transform:translate(464px,64px)}13.52%{transform:translate(480px,64px)}14.08%{transform:translate(480px,96px)}14.37%{transform:translate(464px,96px)}15.49%{transform:translate(512px,80px)}15.77%{transform:translate(512px,96px)}16.62%{transform:translate(560px,96px)}16.9%{transform:translate(560px,80px)}17.75%{transform:translate(608px,80px)}18.31%{transform:translate(608px,48px)}18.87%{transform:translate(576px,48px)}19.15%{transform:translate(576px,32px)}19.44%{transform:translate(560px,32px)}19.72%{transform:translate(560px,16px)}20.28%{transform:translate(528px,16px)}20.56%{transform:translate(528px,0px)}20.85%{transform:translate(544px,0px)}21.97%{transform:translate(544px,64px)}22.25%{transform:translate(560px,64px)}22.54%{transform:translate(560px,48px)}24.23%{transform:translate(656px,48px)}24.79%{transform:translate(656px,16px)}25.07%{transform:translate(672px,16px)}25.35%{transform:translate(672px,0px)}26.48%{transform:translate(736px,0px)}26.76%{transform:translate(736px,16px)}27.04%{transform:translate(752px,16px)}27.32%{transform:translate(752px,32px)}27.89%{transform:translate(720px,32px)}28.73%{transform:translate(720px,80px)}29.58%{transform:translate(672px,80px)}29.86%{transform:translate(672px,96px)}30.42%{transform:translate(704px,96px)}32.11%{transform:translate(704px,0px)}33.52%{transform:translate(624px,0px)}33.8%{transform:translate(624px,-16px)}36.62%{transform:translate(784px,-16px)}36.9%{transform:translate(784px,0px)}37.18%{transform:translate(800px,0px)}37.46%,67.89%{transform:translate(800px,16px)}37.75%{transform:translate(816px,16px)}38.59%,40.85%{transform:translate(816px,64px)}39.15%{transform:translate(784px,64px)}39.44%{transform:translate(784px,80px)}39.72%{transform:translate(768px,80px)}40%{transform:translate(768px,64px)}41.13%{transform:translate(816px,80px)}41.41%{transform:translate(832px,80px)}42.25%{transform:translate(832px,32px)}50.42%{transform:translate(384px,16px)}50.7%{transform:translate(384px,0px)}52.39%{transform:translate(288px,0px)}54.08%{transform:translate(288px,96px)}55.77%{transform:translate(384px,96px)}56.9%{transform:translate(384px,32px)}58.59%{transform:translate(480px,32px)}59.15%{transform:translate(480px,0px)}60.85%{transform:translate(576px,0px)}61.97%{transform:translate(576px,64px)}62.54%{transform:translate(608px,64px)}63.1%{transform:translate(608px,96px)}65.63%{transform:translate(752px,96px)}65.92%{transform:translate(752px,80px)}66.76%{transform:translate(800px,80px)}74.08%,76.34%{transform:translate(448px,16px)}74.37%{transform:translate(448px,32px)}75.21%{transform:translate(432px,64px)}75.49%{transform:translate(448px,64px)}76.62%{transform:translate(432px,16px)}76.9%{transform:translate(432px,0px)}77.46%{transform:translate(400px,0px)}77.75%{transform:translate(400px,-16px)}85.07%{transform:translate(816px,-16px)}85.35%{transform:translate(816px,0px)}98.03%{transform:translate(96px,0px)}98.31%{transform:translate(96px,-16px)}}.s.s1{transform:translate(16px,-16px);animation-name:s1}@keyframes s2{0%,99.72%{transform:translate(32px,-16px)}0.56%{transform:translate(0px,-16px)}0.85%{transform:translate(0px,0px)}6.48%{transform:translate(320px,0px)}7.04%{transform:translate(320px,32px)}7.89%{transform:translate(368px,32px)}8.17%{transform:translate(368px,16px)}9.01%,50.14%{transform:translate(416px,16px)}9.3%,49.86%{transform:translate(416px,32px)}9.58%,74.93%{transform:translate(432px,32px)}9.86%{transform:translate(432px,48px)}10.14%,11.83%{transform:translate(416px,48px)}10.42%{transform:translate(416px,64px)}10.99%{transform:translate(384px,64px)}11.27%{transform:translate(384px,48px)}12.39%{transform:translate(416px,80px)}13.24%,14.93%{transform:translate(464px,80px)}13.52%{transform:translate(464px,64px)}13.8%{transform:translate(480px,64px)}14.37%{transform:translate(480px,96px)}14.65%{transform:translate(464px,96px)}15.77%{transform:translate(512px,80px)}16.06%{transform:translate(512px,96px)}16.9%{transform:translate(560px,96px)}17.18%{transform:translate(560px,80px)}18.03%{transform:translate(608px,80px)}18.59%{transform:translate(608px,48px)}19.15%{transform:translate(576px,48px)}19.44%{transform:translate(576px,32px)}19.72%{transform:translate(560px,32px)}20%{transform:translate(560px,16px)}20.56%{transform:translate(528px,16px)}20.85%{transform:translate(528px,0px)}21.13%{transform:translate(544px,0px)}22.25%{transform:translate(544px,64px)}22.54%{transform:translate(560px,64px)}22.82%{transform:translate(560px,48px)}24.51%{transform:translate(656px,48px)}25.07%{transform:translate(656px,16px)}25.35%{transform:translate(672px,16px)}25.63%{transform:translate(672px,0px)}26.76%{transform:translate(736px,0px)}27.04%{transform:translate(736px,16px)}27.32%{transform:translate(752px,16px)}27.61%{transform:translate(752px,32px)}28.17%{transform:translate(720px,32px)}29.01%{transform:translate(720px,80px)}29.86%{transform:translate(672px,80px)}30.14%{transform:translate(672px,96px)}30.7%{transform:translate(704px,96px)}32.39%{transform:translate(704px,0px)}33.8%{transform:translate(624px,0px)}34.08%{transform:translate(624px,-16px)}36.9%{transform:translate(784px,-16px)}37.18%{transform:translate(784px,0px)}37.46%{transform:translate(800px,0px)}37.75%,68.17%{transform:translate(800px,16px)}38.03%{transform:translate(816px,16px)}38.87%,41.13%{transform:translate(816px,64px)}39.44%{transform:translate(784px,64px)}39.72%{transform:translate(784px,80px)}40%{transform:translate(768px,80px)}40.28%{transform:translate(768px,64px)}41.41%{transform:translate(816px,80px)}41.69%{transform:translate(832px,80px)}42.54%{transform:translate(832px,32px)}50.7%{transform:translate(384px,16px)}50.99%{transform:translate(384px,0px)}52.68%{transform:translate(288px,0px)}54.37%{transform:translate(288px,96px)}56.06%{transform:translate(384px,96px)}57.18%{transform:translate(384px,32px)}58.87%{transform:translate(480px,32px)}59.44%{transform:translate(480px,0px)}61.13%{transform:translate(576px,0px)}62.25%{transform:translate(576px,64px)}62.82%{transform:translate(608px,64px)}63.38%{transform:translate(608px,96px)}65.92%{transform:translate(752px,96px)}66.2%{transform:translate(752px,80px)}67.04%{transform:translate(800px,80px)}74.37%,76.62%{transform:translate(448px,16px)}74.65%{transform:translate(448px,32px)}75.49%{transform:translate(432px,64px)}75.77%{transform:translate(448px,64px)}76.9%{transform:translate(432px,16px)}77.18%{transform:translate(432px,0px)}77.75%{transform:translate(400px,0px)}78.03%{transform:translate(400px,-16px)}85.35%{transform:translate(816px,-16px)}85.63%{transform:translate(816px,0px)}98.31%{transform:translate(96px,0px)}98.59%{transform:translate(96px,-16px)}}.s.s2{transform:translate(32px,-16px);animation-name:s2}@keyframes s3{0%,99.72%{transform:translate(48px,-16px)}0.85%{transform:translate(0px,-16px)}1.13%{transform:translate(0px,0px)}6.76%{transform:translate(320px,0px)}7.32%{transform:translate(320px,32px)}8.17%{transform:translate(368px,32px)}8.45%{transform:translate(368px,16px)}9.3%,50.42%{transform:translate(416px,16px)}9.58%,50.14%{transform:translate(416px,32px)}9.86%,75.21%{transform:translate(432px,32px)}10.14%{transform:translate(432px,48px)}10.42%,12.11%{transform:translate(416px,48px)}10.7%{transform:translate(416px,64px)}11.27%{transform:translate(384px,64px)}11.55%{transform:translate(384px,48px)}12.68%{transform:translate(416px,80px)}13.52%,15.21%{transform:translate(464px,80px)}13.8%{transform:translate(464px,64px)}14.08%{transform:translate(480px,64px)}14.65%{transform:translate(480px,96px)}14.93%{transform:translate(464px,96px)}16.06%{transform:translate(512px,80px)}16.34%{transform:translate(512px,96px)}17.18%{transform:translate(560px,96px)}17.46%{transform:translate(560px,80px)}18.31%{transform:translate(608px,80px)}18.87%{transform:translate(608px,48px)}19.44%{transform:translate(576px,48px)}19.72%{transform:translate(576px,32px)}20%{transform:translate(560px,32px)}20.28%{transform:translate(560px,16px)}20.85%{transform:translate(528px,16px)}21.13%{transform:translate(528px,0px)}21.41%{transform:translate(544px,0px)}22.54%{transform:translate(544px,64px)}22.82%{transform:translate(560px,64px)}23.1%{transform:translate(560px,48px)}24.79%{transform:translate(656px,48px)}25.35%{transform:translate(656px,16px)}25.63%{transform:translate(672px,16px)}25.92%{transform:translate(672px,0px)}27.04%{transform:translate(736px,0px)}27.32%{transform:translate(736px,16px)}27.61%{transform:translate(752px,16px)}27.89%{transform:translate(752px,32px)}28.45%{transform:translate(720px,32px)}29.3%{transform:translate(720px,80px)}30.14%{transform:translate(672px,80px)}30.42%{transform:translate(672px,96px)}30.99%{transform:translate(704px,96px)}32.68%{transform:translate(704px,0px)}34.08%{transform:translate(624px,0px)}34.37%{transform:translate(624px,-16px)}37.18%{transform:translate(784px,-16px)}37.46%{transform:translate(784px,0px)}37.75%{transform:translate(800px,0px)}38.03%,68.45%{transform:translate(800px,16px)}38.31%{transform:translate(816px,16px)}39.15%,41.41%{transform:translate(816px,64px)}39.72%{transform:translate(784px,64px)}40%{transform:translate(784px,80px)}40.28%{transform:translate(768px,80px)}40.56%{transform:translate(768px,64px)}41.69%{transform:translate(816px,80px)}41.97%{transform:translate(832px,80px)}42.82%{transform:translate(832px,32px)}50.99%{transform:translate(384px,16px)}51.27%{transform:translate(384px,0px)}52.96%{transform:translate(288px,0px)}54.65%{transform:translate(288px,96px)}56.34%{transform:translate(384px,96px)}57.46%{transform:translate(384px,32px)}59.15%{transform:translate(480px,32px)}59.72%{transform:translate(480px,0px)}61.41%{transform:translate(576px,0px)}62.54%{transform:translate(576px,64px)}63.1%{transform:translate(608px,64px)}63.66%{transform:translate(608px,96px)}66.2%{transform:translate(752px,96px)}66.48%{transform:translate(752px,80px)}67.32%{transform:translate(800px,80px)}74.65%,76.9%{transform:translate(448px,16px)}74.93%{transform:translate(448px,32px)}75.77%{transform:translate(432px,64px)}76.06%{transform:translate(448px,64px)}77.18%{transform:translate(432px,16px)}77.46%{transform:translate(432px,0px)}78.03%{transform:translate(400px,0px)}78.31%{transform:translate(400px,-16px)}85.63%{transform:translate(816px,-16px)}85.92%{transform:translate(816px,0px)}98.59%{transform:translate(96px,0px)}98.87%{transform:translate(96px,-16px)}}.s.s3{transform:translate(48px,-16px);animation-name:s3}</style><rect class="c" x="2" y="2" rx="2" ry="2"/><rect class="c" x="2" y="18" rx="2" ry="2"/><rect class="c" x="2" y="34" rx="2" ry="2"/><rect class="c" x="2" y="50" rx="2" ry="2"/><rect class="c" x="2" y="66" rx="2" ry="2"/><rect class="c" x="2" y="82" rx="2" ry="2"/><rect class="c" x="2" y="98" rx="2" ry="2"/><rect class="c" x="18" y="2" rx="2" ry="2"/><rect class="c" x="18" y="18" rx="2" ry="2"/><rect class="c" x="18" y="34" rx="2" ry="2"/><rect class="c" x="18" y="50" rx="2" ry="2"/><rect class="c" x="18" y="66" rx="2" ry="2"/><rect class="c" x="18" y="82" rx="2" ry="2"/><rect class="c" x="18" y="98" rx="2" ry="2"/><rect class="c" x="34" y="2" rx="2" ry="2"/><rect class="c" x="34" y="18" rx="2" ry="2"/><rect class="c" x="34" y="34" rx="2" ry="2"/><rect class="c" x="34" y="50" rx="2" ry="2"/><rect class="c" x="34" y="66" rx="2" ry="2"/><rect class="c" x="34" y="82" rx="2" ry="2"/><rect class="c" x="34" y="98" rx="2" ry="2"/><rect class="c" x="50" y="2" rx="2" ry="2"/><rect class="c" x="50" y="18" rx="2" ry="2"/><rect class="c" x="50" y="34" rx="2" ry="2"/><rect class="c" x="50" y="50" rx="2" ry="2"/><rect class="c" x="50" y="66" rx="2" ry="2"/><rect class="c" x="50" y="82" rx="2" ry="2"/><rect class="c" x="50" y="98" rx="2" ry="2"/><rect class="c" x="66" y="2" rx="2" ry="2"/><rect class="c" x="66" y="18" rx="2" ry="2"/><rect class="c" x="66" y="34" rx="2" ry="2"/><rect class="c" x="66" y="50" rx="2" ry="2"/><rect class="c" x="66" y="66" rx="2" ry="2"/><rect class="c" x="66" y="82" rx="2" ry="2"/><rect class="c" x="66" y="98" rx="2" ry="2"/><rect class="c" x="82" y="2" rx="2" ry="2"/><rect class="c" x="82" y="18" rx="2" ry="2"/><rect class="c" x="82" y="34" rx="2" ry="2"/><rect class="c" x="82" y="50" rx="2" ry="2"/><rect class="c" x="82" y="66" rx="2" ry="2"/><rect class="c" x="82" y="82" rx="2" ry="2"/><rect class="c" x="82" y="98" rx="2" ry="2"/><rect class="c" x="98" y="2" rx="2" ry="2"/><rect class="c" x="98" y="18" rx="2" ry="2"/><rect class="c" x="98" y="34" rx="2" ry="2"/><rect class="c" x="98" y="50" rx="2" ry="2"/><rect class="c" x="98" y="66" rx="2" ry="2"/><rect class="c" x="98" y="82" rx="2" ry="2"/><rect class="c" x="98" y="98" rx="2" ry="2"/><rect class="c" x="114" y="2" rx="2" ry="2"/><rect class="c" x="114" y="18" rx="2" ry="2"/><rect class="c" x="114" y="34" rx="2" ry="2"/><rect class="c" x="114" y="50" rx="2" ry="2"/><rect class="c" x="114" y="66" rx="2" ry="2"/><rect class="c" x="114" y="82" rx="2" ry="2"/><rect class="c" x="114" y="98" rx="2" ry="2"/><rect class="c" x="130" y="2" rx="2" ry="2"/><rect class="c" x="130" y="18" rx="2" ry="2"/><rect class="c" x="130" y="34" rx="2" ry="2"/><rect class="c" x="130" y="50" rx="2" ry="2"/><rect class="c" x="130" y="66" rx="2" ry="2"/><rect class="c" x="130" y="82" rx="2" ry="2"/><rect class="c" x="130" y="98" rx="2" ry="2"/><rect class="c" x="146" y="2" rx="2" ry="2"/><rect class="c" x="146" y="18" rx="2" ry="2"/><rect class="c" x="146" y="34" rx="2" ry="2"/><rect class="c" x="146" y="50" rx="2" ry="2"/><rect class="c" x="146" y="66" rx="2" ry="2"/><rect class="c" x="146" y="82" rx="2" ry="2"/><rect class="c" x="146" y="98" rx="2" ry="2"/><rect class="c" x="162" y="2" rx="2" ry="2"/><rect class="c" x="162" y="18" rx="2" ry="2"/><rect class="c" x="162" y="34" rx="2" ry="2"/><rect class="c" x="162" y="50" rx="2" ry="2"/><rect class="c" x="162" y="66" rx="2" ry="2"/><rect class="c" x="162" y="82" rx="2" ry="2"/><rect class="c" x="162" y="98" rx="2" ry="2"/><rect class="c" x="178" y="2" rx="2" ry="2"/><rect class="c" x="178" y="18" rx="2" ry="2"/><rect class="c" x="178" y="34" rx="2" ry="2"/><rect class="c" x="178" y="50" rx="2" ry="2"/><rect class="c" x="178" y="66" rx="2" ry="2"/><rect class="c" x="178" y="82" rx="2" ry="2"/><rect class="c" x="178" y="98" rx="2" ry="2"/><rect class="c" x="194" y="2" rx="2" ry="2"/><rect class="c" x="194" y="18" rx="2" ry="2"/><rect class="c" x="194" y="34" rx="2" ry="2"/><rect class="c" x="194" y="50" rx="2" ry="2"/><rect class="c" x="194" y="66" rx="2" ry="2"/><rect class="c" x="194" y="82" rx="2" ry="2"/><rect class="c" x="194" y="98" rx="2" ry="2"/><rect class="c" x="210" y="2" rx="2" ry="2"/><rect class="c" x="210" y="18" rx="2" ry="2"/><rect class="c" x="210" y="34" rx="2" ry="2"/><rect class="c" x="210" y="50" rx="2" ry="2"/><rect class="c" x="210" y="66" rx="2" ry="2"/><rect class="c" x="210" y="82" rx="2" ry="2"/><rect class="c" x="210" y="98" rx="2" ry="2"/><rect class="c" x="226" y="2" rx="2" ry="2"/><rect class="c" x="226" y="18" rx="2" ry="2"/><rect class="c" x="226" y="34" rx="2" ry="2"/><rect class="c" x="226" y="50" rx="2" ry="2"/><rect class="c" x="226" y="66" rx="2" ry="2"/><rect class="c" x="226" y="82" rx="2" ry="2"/><rect class="c" x="226" y="98" rx="2" ry="2"/><rect class="c" x="242" y="2" rx="2" ry="2"/><rect class="c" x="242" y="18" rx="2" ry="2"/><rect class="c" x="242" y="34" rx="2" ry="2"/><rect class="c" x="242" y="50" rx="2" ry="2"/><rect class="c" x="242" y="66" rx="2" ry="2"/><rect class="c" x="242" y="82" rx="2" ry="2"/><rect class="c" x="242" y="98" rx="2" ry="2"/><rect class="c" x="258" y="2" rx="2" ry="2"/><rect class="c" x="258" y="18" rx="2" ry="2"/><rect class="c" x="258" y="34" rx="2" ry="2"/><rect class="c" x="258" y="50" rx="2" ry="2"/><rect class="c" x="258" y="66" rx="2" ry="2"/><rect class="c" x="258" y="82" rx="2" ry="2"/><rect class="c" x="258" y="98" rx="2" ry="2"/><rect class="c" x="274" y="2" rx="2" ry="2"/><rect class="c" x="274" y="18" rx="2" ry="2"/><rect class="c" x="274" y="34" rx="2" ry="2"/><rect class="c" x="274" y="50" rx="2" ry="2"/><rect class="c" x="274" y="66" rx="2" ry="2"/><rect class="c" x="274" y="82" rx="2" ry="2"/><rect class="c" x="274" y="98" rx="2" ry="2"/><rect class="c" x="290" y="2" rx="2" ry="2"/><rect class="c" x="290" y="18" rx="2" ry="2"/><rect class="c" x="290" y="34" rx="2" ry="2"/><rect class="c" x="290" y="50" rx="2" ry="2"/><rect class="c" x="290" y="66" rx="2" ry="2"/><rect class="c" x="290" y="82" rx="2" ry="2"/><rect class="c c0" x="290" y="98" rx="2" ry="2"/><rect class="c" x="306" y="2" rx="2" ry="2"/><rect class="c" x="306" y="18" rx="2" ry="2"/><rect class="c" x="306" y="34" rx="2" ry="2"/><rect class="c" x="306" y="50" rx="2" ry="2"/><rect class="c" x="306" y="66" rx="2" ry="2"/><rect class="c" x="306" y="82" rx="2" ry="2"/><rect class="c" x="306" y="98" rx="2" ry="2"/><rect class="c" x="322" y="2" rx="2" ry="2"/><rect class="c c1" x="322" y="18" rx="2" ry="2"/><rect class="c c2" x="322" y="34" rx="2" ry="2"/><rect class="c" x="322" y="50" rx="2" ry="2"/><rect class="c" x="322" y="66" rx="2" ry="2"/><rect class="c" x="322" y="82" rx="2" ry="2"/><rect class="c" x="322" y="98" rx="2" ry="2"/><rect class="c" x="338" y="2" rx="2" ry="2"/><rect class="c" x="338" y="18" rx="2" ry="2"/><rect class="c" x="338" y="34" rx="2" ry="2"/><rect class="c" x="338" y="50" rx="2" ry="2"/><rect class="c" x="338" y="66" rx="2" ry="2"/><rect class="c" x="338" y="82" rx="2" ry="2"/><rect class="c" x="338" y="98" rx="2" ry="2"/><rect class="c" x="354" y="2" rx="2" ry="2"/><rect class="c" x="354" y="18" rx="2" ry="2"/><rect class="c" x="354" y="34" rx="2" ry="2"/><rect class="c" x="354" y="50" rx="2" ry="2"/><rect class="c" x="354" y="66" rx="2" ry="2"/><rect class="c" x="354" y="82" rx="2" ry="2"/><rect class="c" x="354" y="98" rx="2" ry="2"/><rect class="c" x="370" y="2" rx="2" ry="2"/><rect class="c" x="370" y="18" rx="2" ry="2"/><rect class="c" x="370" y="34" rx="2" ry="2"/><rect class="c" x="370" y="50" rx="2" ry="2"/><rect class="c" x="370" y="66" rx="2" ry="2"/><rect class="c" x="370" y="82" rx="2" ry="2"/><rect class="c" x="370" y="98" rx="2" ry="2"/><rect class="c c3" x="386" y="2" rx="2" ry="2"/><rect class="c c4" x="386" y="18" rx="2" ry="2"/><rect class="c c5" x="386" y="34" rx="2" ry="2"/><rect class="c c6" x="386" y="50" rx="2" ry="2"/><rect class="c c7" x="386" y="66" rx="2" ry="2"/><rect class="c" x="386" y="82" rx="2" ry="2"/><rect class="c" x="386" y="98" rx="2" ry="2"/><rect class="c c8" x="402" y="2" rx="2" ry="2"/><rect class="c c9" x="402" y="18" rx="2" ry="2"/><rect class="c ca" x="402" y="34" rx="2" ry="2"/><rect class="c" x="402" y="50" rx="2" ry="2"/><rect class="c" x="402" y="66" rx="2" ry="2"/><rect class="c" x="402" y="82" rx="2" ry="2"/><rect class="c" x="402" y="98" rx="2" ry="2"/><rect class="c" x="418" y="2" rx="2" ry="2"/><rect class="c" x="418" y="18" rx="2" ry="2"/><rect class="c" x="418" y="34" rx="2" ry="2"/><rect class="c" x="418" y="50" rx="2" ry="2"/><rect class="c cb" x="418" y="66" rx="2" ry="2"/><rect class="c" x="418" y="82" rx="2" ry="2"/><rect class="c" x="418" y="98" rx="2" ry="2"/><rect class="c cc" x="434" y="2" rx="2" ry="2"/><rect class="c cd" x="434" y="18" rx="2" ry="2"/><rect class="c ce" x="434" y="34" rx="2" ry="2"/><rect class="c cf" x="434" y="50" rx="2" ry="2"/><rect class="c cg" x="434" y="66" rx="2" ry="2"/><rect class="c ch" x="434" y="82" rx="2" ry="2"/><rect class="c" x="434" y="98" rx="2" ry="2"/><rect class="c" x="450" y="2" rx="2" ry="2"/><rect class="c" x="450" y="18" rx="2" ry="2"/><rect class="c" x="450" y="34" rx="2" ry="2"/><rect class="c" x="450" y="50" rx="2" ry="2"/><rect class="c" x="450" y="66" rx="2" ry="2"/><rect class="c" x="450" y="82" rx="2" ry="2"/><rect class="c" x="450" y="98" rx="2" ry="2"/><rect class="c" x="466" y="2" rx="2" ry="2"/><rect class="c" x="466" y="18" rx="2" ry="2"/><rect class="c" x="466" y="34" rx="2" ry="2"/><rect class="c" x="466" y="50" rx="2" ry="2"/><rect class="c ci" x="466" y="66" rx="2" ry="2"/><rect class="c" x="466" y="82" rx="2" ry="2"/><rect class="c cj" x="466" y="98" rx="2" ry="2"/><rect class="c ck" x="482" y="2" rx="2" ry="2"/><rect class="c" x="482" y="18" rx="2" ry="2"/><rect class="c" x="482" y="34" rx="2" ry="2"/><rect class="c" x="482" y="50" rx="2" ry="2"/><rect class="c" x="482" y="66" rx="2" ry="2"/><rect class="c" x="482" y="82" rx="2" ry="2"/><rect class="c cl" x="482" y="98" rx="2" ry="2"/><rect class="c" x="498" y="2" rx="2" ry="2"/><rect class="c" x="498" y="18" rx="2" ry="2"/><rect class="c" x="498" y="34" rx="2" ry="2"/><rect class="c" x="498" y="50" rx="2" ry="2"/><rect class="c" x="498" y="66" rx="2" ry="2"/><rect class="c" x="498" y="82" rx="2" ry="2"/><rect class="c" x="498" y="98" rx="2" ry="2"/><rect class="c" x="514" y="2" rx="2" ry="2"/><rect class="c" x="514" y="18" rx="2" ry="2"/><rect class="c" x="514" y="34" rx="2" ry="2"/><rect class="c" x="514" y="50" rx="2" ry="2"/><rect class="c" x="514" y="66" rx="2" ry="2"/><rect class="c" x="514" y="82" rx="2" ry="2"/><rect class="c cm" x="514" y="98" rx="2" ry="2"/><rect class="c cn" x="530" y="2" rx="2" ry="2"/><rect class="c co" x="530" y="18" rx="2" ry="2"/><rect class="c" x="530" y="34" rx="2" ry="2"/><rect class="c" x="530" y="50" rx="2" ry="2"/><rect class="c" x="530" y="66" rx="2" ry="2"/><rect class="c" x="530" y="82" rx="2" ry="2"/><rect class="c cp" x="530" y="98" rx="2" ry="2"/><rect class="c" x="546" y="2" rx="2" ry="2"/><rect class="c cq" x="546" y="18" rx="2" ry="2"/><rect class="c" x="546" y="34" rx="2" ry="2"/><rect class="c" x="546" y="50" rx="2" ry="2"/><rect class="c cr" x="546" y="66" rx="2" ry="2"/><rect class="c" x="546" y="82" rx="2" ry="2"/><rect class="c cs" x="546" y="98" rx="2" ry="2"/><rect class="c" x="562" y="2" rx="2" ry="2"/><rect class="c" x="562" y="18" rx="2" ry="2"/><rect class="c ct" x="562" y="34" rx="2" ry="2"/><rect class="c" x="562" y="50" rx="2" ry="2"/><rect class="c" x="562" y="66" rx="2" ry="2"/><rect class="c cu" x="562" y="82" rx="2" ry="2"/><rect class="c" x="562" y="98" rx="2" ry="2"/><rect class="c" x="578" y="2" rx="2" ry="2"/><rect class="c cv" x="578" y="18" rx="2" ry="2"/><rect class="c" x="578" y="34" rx="2" ry="2"/><rect class="c cw" x="578" y="50" rx="2" ry="2"/><rect class="c cx" x="578" y="66" rx="2" ry="2"/><rect class="c cy" x="578" y="82" rx="2" ry="2"/><rect class="c" x="578" y="98" rx="2" ry="2"/><rect class="c" x="594" y="2" rx="2" ry="2"/><rect class="c" x="594" y="18" rx="2" ry="2"/><rect class="c" x="594" y="34" rx="2" ry="2"/><rect class="c cz" x="594" y="50" rx="2" ry="2"/><rect class="c" x="594" y="66" rx="2" ry="2"/><rect class="c" x="594" y="82" rx="2" ry="2"/><rect class="c" x="594" y="98" rx="2" ry="2"/><rect class="c" x="610" y="2" rx="2" ry="2"/><rect class="c" x="610" y="18" rx="2" ry="2"/><rect class="c" x="610" y="34" rx="2" ry="2"/><rect class="c" x="610" y="50" rx="2" ry="2"/><rect class="c" x="610" y="66" rx="2" ry="2"/><rect class="c c10" x="610" y="82" rx="2" ry="2"/><rect class="c c11" x="610" y="98" rx="2" ry="2"/><rect class="c c12" x="626" y="2" rx="2" ry="2"/><rect class="c" x="626" y="18" rx="2" ry="2"/><rect class="c" x="626" y="34" rx="2" ry="2"/><rect class="c" x="626" y="50" rx="2" ry="2"/><rect class="c" x="626" y="66" rx="2" ry="2"/><rect class="c" x="626" y="82" rx="2" ry="2"/><rect class="c" x="626" y="98" rx="2" ry="2"/><rect class="c c13" x="642" y="2" rx="2" ry="2"/><rect class="c" x="642" y="18" rx="2" ry="2"/><rect class="c" x="642" y="34" rx="2" ry="2"/><rect class="c" x="642" y="50" rx="2" ry="2"/><rect class="c" x="642" y="66" rx="2" ry="2"/><rect class="c" x="642" y="82" rx="2" ry="2"/><rect class="c" x="642" y="98" rx="2" ry="2"/><rect class="c" x="658" y="2" rx="2" ry="2"/><rect class="c c14" x="658" y="18" rx="2" ry="2"/><rect class="c c15" x="658" y="34" rx="2" ry="2"/><rect class="c" x="658" y="50" rx="2" ry="2"/><rect class="c" x="658" y="66" rx="2" ry="2"/><rect class="c" x="658" y="82" rx="2" ry="2"/><rect class="c" x="658" y="98" rx="2" ry="2"/><rect class="c c16" x="674" y="2" rx="2" ry="2"/><rect class="c" x="674" y="18" rx="2" ry="2"/><rect class="c" x="674" y="34" rx="2" ry="2"/><rect class="c" x="674" y="50" rx="2" ry="2"/><rect class="c" x="674" y="66" rx="2" ry="2"/><rect class="c c17" x="674" y="82" rx="2" ry="2"/><rect class="c c18" x="674" y="98" rx="2" ry="2"/><rect class="c" x="690" y="2" rx="2" ry="2"/><rect class="c" x="690" y="18" rx="2" ry="2"/><rect class="c" x="690" y="34" rx="2" ry="2"/><rect class="c" x="690" y="50" rx="2" ry="2"/><rect class="c" x="690" y="66" rx="2" ry="2"/><rect class="c" x="690" y="82" rx="2" ry="2"/><rect class="c" x="690" y="98" rx="2" ry="2"/><rect class="c c19" x="706" y="2" rx="2" ry="2"/><rect class="c c1a" x="706" y="18" rx="2" ry="2"/><rect class="c" x="706" y="34" rx="2" ry="2"/><rect class="c" x="706" y="50" rx="2" ry="2"/><rect class="c" x="706" y="66" rx="2" ry="2"/><rect class="c" x="706" y="82" rx="2" ry="2"/><rect class="c" x="706" y="98" rx="2" ry="2"/><rect class="c c1b" x="722" y="2" rx="2" ry="2"/><rect class="c c1c" x="722" y="18" rx="2" ry="2"/><rect class="c" x="722" y="34" rx="2" ry="2"/><rect class="c c1d" x="722" y="50" rx="2" ry="2"/><rect class="c" x="722" y="66" rx="2" ry="2"/><rect class="c c1e" x="722" y="82" rx="2" ry="2"/><rect class="c" x="722" y="98" rx="2" ry="2"/><rect class="c" x="738" y="2" rx="2" ry="2"/><rect class="c c1f" x="738" y="18" rx="2" ry="2"/><rect class="c c1g" x="738" y="34" rx="2" ry="2"/><rect class="c" x="738" y="50" rx="2" ry="2"/><rect class="c" x="738" y="66" rx="2" ry="2"/><rect class="c" x="738" y="82" rx="2" ry="2"/><rect class="c" x="738" y="98" rx="2" ry="2"/><rect class="c" x="754" y="2" rx="2" ry="2"/><rect class="c c1h" x="754" y="18" rx="2" ry="2"/><rect class="c" x="754" y="34" rx="2" ry="2"/><rect class="c" x="754" y="50" rx="2" ry="2"/><rect class="c" x="754" y="66" rx="2" ry="2"/><rect class="c c1i" x="754" y="82" rx="2" ry="2"/><rect class="c c1j" x="754" y="98" rx="2" ry="2"/><rect class="c" x="770" y="2" rx="2" ry="2"/><rect class="c" x="770" y="18" rx="2" ry="2"/><rect class="c" x="770" y="34" rx="2" ry="2"/><rect class="c" x="770" y="50" rx="2" ry="2"/><rect class="c" x="770" y="66" rx="2" ry="2"/><rect class="c c1k" x="770" y="82" rx="2" ry="2"/><rect class="c" x="770" y="98" rx="2" ry="2"/><rect class="c c1l" x="786" y="2" rx="2" ry="2"/><rect class="c" x="786" y="18" rx="2" ry="2"/><rect class="c" x="786" y="34" rx="2" ry="2"/><rect class="c" x="786" y="50" rx="2" ry="2"/><rect class="c" x="786" y="66" rx="2" ry="2"/><rect class="c c1m" x="786" y="82" rx="2" ry="2"/><rect class="c" x="786" y="98" rx="2" ry="2"/><rect class="c" x="802" y="2" rx="2" ry="2"/><rect class="c" x="802" y="18" rx="2" ry="2"/><rect class="c" x="802" y="34" rx="2" ry="2"/><rect class="c" x="802" y="50" rx="2" ry="2"/><rect class="c c1n" x="802" y="66" rx="2" ry="2"/><rect class="c c1o" x="802" y="82" rx="2" ry="2"/><rect class="c" x="802" y="98" rx="2" ry="2"/><rect class="c c1p" x="818" y="2" rx="2" ry="2"/><rect class="c c1q" x="818" y="18" rx="2" ry="2"/><rect class="c" x="818" y="34" rx="2" ry="2"/><rect class="c" x="818" y="50" rx="2" ry="2"/><rect class="c c1r" x="818" y="66" rx="2" ry="2"/><rect class="c c1s" x="818" y="82" rx="2" ry="2"/><rect class="c" x="818" y="98" rx="2" ry="2"/><rect class="c" x="834" y="2" rx="2" ry="2"/><rect class="c" x="834" y="18" rx="2" ry="2"/><rect class="u u0" height="12" width="652.9" x="0.0" y="144"/><rect class="u u1" height="12" width="131.1" x="652.3" y="144"/><rect class="u u2" height="12" width="13.6" x="782.8" y="144"/><rect class="u u3" height="12" width="52.8" x="795.8" y="144"/><rect class="s s0" x="0.8" y="0.8" width="14.4" height="14.4" rx="4.5" ry="4.5"/><rect class="s s1" x="1.8" y="1.8" width="12.3" height="12.3" rx="4.1" ry="4.1"/><rect class="s s2" x="2.6" y="2.6" width="10.8" height="10.8" rx="3.6" ry="3.6"/><rect class="s s3" x="3.0" y="3.0" width="9.9" height="9.9" rx="3.3" ry="3.3"/></svg>