<svg viewBox="-16 -32 880 192" width="880" height="192" xmlns="http://www.w3.org/2000/svg"><desc>Generated with https://github.com/Platane/snk</desc><style>:root{--cb:#1b1f230a;--cs:white;--ce:#0a0e12;--c0:#0a0e12;--c1:#1445a2;--c2:#1d65ee;--c3:#1f4eff;--c4:#466dff}.c{shape-rendering:geometricPrecision;fill:var(--ce);stroke-width:1px;stroke:var(--cb);animation:none 39100ms linear infinite;width:12px;height:12px}@keyframes c0{32.73%{fill:var(--c1)}32.75%,100%{fill:var(--ce)}}.c.c0{fill:var(--c1);animation-name:c0}@keyframes c1{32.47%{fill:var(--c1)}32.49%,100%{fill:var(--ce)}}.c.c1{fill:var(--c1);animation-name:c1}@keyframes c2{0.76%{fill:var(--c1)}0.78%,100%{fill:var(--ce)}}.c.c2{fill:var(--c1);animation-name:c2}@keyframes c3{29.91%{fill:var(--c1)}29.93%,100%{fill:var(--ce)}}.c.c3{fill:var(--c1);animation-name:c3}@keyframes c4{30.17%{fill:var(--c1)}30.19%,100%{fill:var(--ce)}}.c.c4{fill:var(--c1);animation-name:c4}@keyframes c5{1.27%{fill:var(--c1)}1.29%,100%{fill:var(--ce)}}.c.c5{fill:var(--c1);animation-name:c5}@keyframes c6{31.19%{fill:var(--c1)}31.21%,100%{fill:var(--ce)}}.c.c6{fill:var(--c1);animation-name:c6}@keyframes c7{31.45%{fill:var(--c1)}31.47%,100%{fill:var(--ce)}}.c.c7{fill:var(--c1);animation-name:c7}@keyframes c8{1.78%{fill:var(--c1)}1.8%,100%{fill:var(--ce)}}.c.c8{fill:var(--c1);animation-name:c8}@keyframes c9{29.15%{fill:var(--c1)}29.17%,100%{fill:var(--ce)}}.c.c9{fill:var(--c1);animation-name:c9}@keyframes ca{2.04%{fill:var(--c1)}2.06%,100%{fill:var(--ce)}}.c.ca{fill:var(--c1);animation-name:ca}@keyframes cb{69.3%{fill:var(--c2)}69.32%,100%{fill:var(--ce)}}.c.cb{fill:var(--c2);animation-name:cb}@keyframes cc{3.83%{fill:var(--c1)}3.85%,100%{fill:var(--ce)}}.c.cc{fill:var(--c1);animation-name:cc}@keyframes cd{4.34%{fill:var(--c1)}4.36%,100%{fill:var(--ce)}}.c.cd{fill:var(--c1);animation-name:cd}@keyframes ce{2.55%{fill:var(--c1)}2.57%,100%{fill:var(--ce)}}.c.ce{fill:var(--c1);animation-name:ce}@keyframes cf{3.31%{fill:var(--c1)}3.33%,100%{fill:var(--ce)}}.c.cf{fill:var(--c1);animation-name:cf}@keyframes cg{2.8%{fill:var(--c1)}2.82%,100%{fill:var(--ce)}}.c.cg{fill:var(--c1);animation-name:cg}@keyframes ch{67.76%{fill:var(--c2)}67.78%,100%{fill:var(--ce)}}.c.ch{fill:var(--c2);animation-name:ch}@keyframes ci{5.11%{fill:var(--c1)}5.13%,100%{fill:var(--ce)}}.c.ci{fill:var(--c1);animation-name:ci}@keyframes cj{5.62%{fill:var(--c1)}5.64%,100%{fill:var(--ce)}}.c.cj{fill:var(--c1);animation-name:cj}@keyframes ck{27.61%{fill:var(--c1)}27.63%,100%{fill:var(--ce)}}.c.ck{fill:var(--c1);animation-name:ck}@keyframes cl{5.87%{fill:var(--c1)}5.89%,100%{fill:var(--ce)}}.c.cl{fill:var(--c1);animation-name:cl}@keyframes cm{6.9%{fill:var(--c1)}6.92%,100%{fill:var(--ce)}}.c.cm{fill:var(--c1);animation-name:cm}@keyframes cn{6.13%{fill:var(--c1)}6.15%,100%{fill:var(--ce)}}.c.cn{fill:var(--c1);animation-name:cn}@keyframes co{96.15%{fill:var(--c4)}96.17%,100%{fill:var(--ce)}}.c.co{fill:var(--c4);animation-name:co}@keyframes cp{26.84%{fill:var(--c1)}26.86%,100%{fill:var(--ce)}}.c.cp{fill:var(--c1);animation-name:cp}@keyframes cq{6.64%{fill:var(--c1)}6.66%,100%{fill:var(--ce)}}.c.cq{fill:var(--c1);animation-name:cq}@keyframes cr{6.38%{fill:var(--c1)}6.4%,100%{fill:var(--ce)}}.c.cr{fill:var(--c1);animation-name:cr}@keyframes cs{71.6%{fill:var(--c3)}71.62%,100%{fill:var(--ce)}}.c.cs{fill:var(--c3);animation-name:cs}@keyframes ct{7.66%{fill:var(--c1)}7.68%,100%{fill:var(--ce)}}.c.ct{fill:var(--c1);animation-name:ct}@keyframes cu{9.45%{fill:var(--c1)}9.47%,100%{fill:var(--ce)}}.c.cu{fill:var(--c1);animation-name:cu}@keyframes cv{95.39%{fill:var(--c4)}95.41%,100%{fill:var(--ce)}}.c.cv{fill:var(--c4);animation-name:cv}@keyframes cw{8.43%{fill:var(--c1)}8.45%,100%{fill:var(--ce)}}.c.cw{fill:var(--c1);animation-name:cw}@keyframes cx{65.97%{fill:var(--c2)}65.99%,100%{fill:var(--ce)}}.c.cx{fill:var(--c2);animation-name:cx}@keyframes cy{9.96%{fill:var(--c1)}9.98%,100%{fill:var(--ce)}}.c.cy{fill:var(--c1);animation-name:cy}@keyframes cz{72.62%{fill:var(--c3)}72.64%,100%{fill:var(--ce)}}.c.cz{fill:var(--c3);animation-name:cz}@keyframes c10{65.46%{fill:var(--c2)}65.48%,100%{fill:var(--ce)}}.c.c10{fill:var(--c2);animation-name:c10}@keyframes c11{93.6%{fill:var(--c4)}93.62%,100%{fill:var(--ce)}}.c.c11{fill:var(--c4);animation-name:c11}@keyframes c12{25.05%{fill:var(--c1)}25.07%,100%{fill:var(--ce)}}.c.c12{fill:var(--c1);animation-name:c12}@keyframes c13{64.18%{fill:var(--c2)}64.2%,100%{fill:var(--ce)}}.c.c13{fill:var(--c2);animation-name:c13}@keyframes c14{92.57%{fill:var(--c4)}92.59%,100%{fill:var(--ce)}}.c.c14{fill:var(--c4);animation-name:c14}@keyframes c15{12.01%{fill:var(--c1)}12.03%,100%{fill:var(--ce)}}.c.c15{fill:var(--c1);animation-name:c15}@keyframes c16{11.75%{fill:var(--c1)}11.77%,100%{fill:var(--ce)}}.c.c16{fill:var(--c1);animation-name:c16}@keyframes c17{76.97%{fill:var(--c3)}76.99%,100%{fill:var(--ce)}}.c.c17{fill:var(--c3);animation-name:c17}@keyframes c18{73.65%{fill:var(--c3)}73.67%,100%{fill:var(--ce)}}.c.c18{fill:var(--c3);animation-name:c18}@keyframes c19{63.67%{fill:var(--c2)}63.69%,100%{fill:var(--ce)}}.c.c19{fill:var(--c2);animation-name:c19}@keyframes c1a{11.24%{fill:var(--c1)}11.26%,100%{fill:var(--ce)}}.c.c1a{fill:var(--c1);animation-name:c1a}@keyframes c1b{62.14%{fill:var(--c2)}62.16%,100%{fill:var(--ce)}}.c.c1b{fill:var(--c2);animation-name:c1b}@keyframes c1c{61.88%{fill:var(--c2)}61.9%,100%{fill:var(--ce)}}.c.c1c{fill:var(--c2);animation-name:c1c}@keyframes c1d{61.37%{fill:var(--c2)}61.39%,100%{fill:var(--ce)}}.c.c1d{fill:var(--c2);animation-name:c1d}@keyframes c1e{61.12%{fill:var(--c2)}61.14%,100%{fill:var(--ce)}}.c.c1e{fill:var(--c2);animation-name:c1e}@keyframes c1f{60.6%{fill:var(--c2)}60.62%,100%{fill:var(--ce)}}.c.c1f{fill:var(--c2);animation-name:c1f}@keyframes c1g{62.91%{fill:var(--c2)}62.93%,100%{fill:var(--ce)}}.c.c1g{fill:var(--c2);animation-name:c1g}@keyframes c1h{74.93%{fill:var(--c3)}74.95%,100%{fill:var(--ce)}}.c.c1h{fill:var(--c3);animation-name:c1h}@keyframes c1i{75.18%{fill:var(--c3)}75.2%,100%{fill:var(--ce)}}.c.c1i{fill:var(--c3);animation-name:c1i}@keyframes c1j{14.06%{fill:var(--c1)}14.08%,100%{fill:var(--ce)}}.c.c1j{fill:var(--c1);animation-name:c1j}@keyframes c1k{22.5%{fill:var(--c1)}22.52%,100%{fill:var(--ce)}}.c.c1k{fill:var(--c1);animation-name:c1k}@keyframes c1l{15.08%{fill:var(--c1)}15.1%,100%{fill:var(--ce)}}.c.c1l{fill:var(--c1);animation-name:c1l}@keyframes c1m{15.34%{fill:var(--c1)}15.36%,100%{fill:var(--ce)}}.c.c1m{fill:var(--c1);animation-name:c1m}@keyframes c1n{22.24%{fill:var(--c1)}22.26%,100%{fill:var(--ce)}}.c.c1n{fill:var(--c1);animation-name:c1n}@keyframes c1o{15.59%{fill:var(--c1)}15.61%,100%{fill:var(--ce)}}.c.c1o{fill:var(--c1);animation-name:c1o}@keyframes c1p{16.61%{fill:var(--c1)}16.63%,100%{fill:var(--ce)}}.c.c1p{fill:var(--c1);animation-name:c1p}@keyframes c1q{19.94%{fill:var(--c1)}19.96%,100%{fill:var(--ce)}}.c.c1q{fill:var(--c1);animation-name:c1q}@keyframes c1r{18.66%{fill:var(--c1)}18.68%,100%{fill:var(--ce)}}.c.c1r{fill:var(--c1);animation-name:c1r}@keyframes c1s{19.17%{fill:var(--c1)}19.19%,100%{fill:var(--ce)}}.c.c1s{fill:var(--c1);animation-name:c1s}@keyframes c1t{56.51%{fill:var(--c2)}56.53%,100%{fill:var(--ce)}}.c.c1t{fill:var(--c2);animation-name:c1t}@keyframes c1u{56.77%{fill:var(--c2)}56.79%,100%{fill:var(--ce)}}.c.c1u{fill:var(--c2);animation-name:c1u}@keyframes c1v{44.49%{fill:var(--c1)}44.51%,100%{fill:var(--ce)}}.c.c1v{fill:var(--c1);animation-name:c1v}@keyframes c1w{50.89%{fill:var(--c2)}50.91%,100%{fill:var(--ce)}}.c.c1w{fill:var(--c2);animation-name:c1w}@keyframes c1x{49.86%{fill:var(--c1)}49.88%,100%{fill:var(--ce)}}.c.c1x{fill:var(--c1);animation-name:c1x}@keyframes c1y{45.77%{fill:var(--c1)}45.79%,100%{fill:var(--ce)}}.c.c1y{fill:var(--c1);animation-name:c1y}@keyframes c1z{84.39%{fill:var(--c3)}84.41%,100%{fill:var(--ce)}}.c.c1z{fill:var(--c3);animation-name:c1z}@keyframes c20{48.84%{fill:var(--c1)}48.86%,100%{fill:var(--ce)}}.c.c20{fill:var(--c1);animation-name:c20}@keyframes c21{49.09%{fill:var(--c1)}49.11%,100%{fill:var(--ce)}}.c.c21{fill:var(--c1);animation-name:c21}@keyframes c22{48.33%{fill:var(--c1)}48.35%,100%{fill:var(--ce)}}.c.c22{fill:var(--c1);animation-name:c22}@keyframes c23{48.07%{fill:var(--c1)}48.09%,100%{fill:var(--ce)}}.c.c23{fill:var(--c1);animation-name:c23}@keyframes c24{52.68%{fill:var(--c2)}52.7%,100%{fill:var(--ce)}}.c.c24{fill:var(--c2);animation-name:c24}@keyframes c25{46.79%{fill:var(--c1)}46.81%,100%{fill:var(--ce)}}.c.c25{fill:var(--c1);animation-name:c25}.u{transform-origin:0 0;transform:scale(0,1);animation:none linear 39100ms infinite}@keyframes u0{0.76%{transform:scale(0.000,1)}0.78%,1.27%{transform:scale(0.020,1)}1.29%,1.78%{transform:scale(0.039,1)}1.8%,2.04%{transform:scale(0.059,1)}2.06%,2.55%{transform:scale(0.078,1)}2.57%,2.8%{transform:scale(0.098,1)}2.82%,3.31%{transform:scale(0.118,1)}3.33%,3.83%{transform:scale(0.137,1)}3.85%,4.34%{transform:scale(0.157,1)}4.36%,5.11%{transform:scale(0.176,1)}5.13%,5.62%{transform:scale(0.196,1)}5.64%,5.87%{transform:scale(0.216,1)}5.89%,6.13%{transform:scale(0.235,1)}6.15%,6.38%{transform:scale(0.255,1)}6.4%,6.64%{transform:scale(0.275,1)}6.66%,6.9%{transform:scale(0.294,1)}6.92%,7.66%{transform:scale(0.314,1)}7.68%,8.43%{transform:scale(0.333,1)}8.45%,9.45%{transform:scale(0.353,1)}9.47%,9.96%{transform:scale(0.373,1)}9.98%,11.24%{transform:scale(0.392,1)}11.26%,11.75%{transform:scale(0.412,1)}11.77%,12.01%{transform:scale(0.431,1)}12.03%,14.06%{transform:scale(0.451,1)}14.08%,15.08%{transform:scale(0.471,1)}15.1%,15.34%{transform:scale(0.490,1)}15.36%,15.59%{transform:scale(0.510,1)}15.61%,16.61%{transform:scale(0.529,1)}16.63%,18.66%{transform:scale(0.549,1)}18.68%,19.17%{transform:scale(0.569,1)}19.19%,19.94%{transform:scale(0.588,1)}19.96%,22.24%{transform:scale(0.608,1)}22.26%,22.5%{transform:scale(0.627,1)}22.52%,25.05%{transform:scale(0.647,1)}25.07%,26.84%{transform:scale(0.667,1)}26.86%,27.61%{transform:scale(0.686,1)}27.63%,29.15%{transform:scale(0.706,1)}29.17%,29.91%{transform:scale(0.725,1)}29.93%,30.17%{transform:scale(0.745,1)}30.19%,31.19%{transform:scale(0.765,1)}31.21%,31.45%{transform:scale(0.784,1)}31.47%,32.47%{transform:scale(0.804,1)}32.49%,32.73%{transform:scale(0.824,1)}32.75%,44.49%{transform:scale(0.843,1)}44.51%,45.77%{transform:scale(0.863,1)}45.79%,46.79%{transform:scale(0.882,1)}46.81%,48.07%{transform:scale(0.902,1)}48.09%,48.33%{transform:scale(0.922,1)}48.35%,48.84%{transform:scale(0.941,1)}48.86%,49.09%{transform:scale(0.961,1)}49.11%,49.86%{transform:scale(0.980,1)}49.88%,100%{transform:scale(1.000,1)}}.u.u0{fill:var(--c1);animation-name:u0;transform-origin:0.0px 0}@keyframes u1{50.89%{transform:scale(0.000,1)}50.91%,52.68%{transform:scale(0.063,1)}52.7%,56.51%{transform:scale(0.125,1)}56.53%,56.77%{transform:scale(0.188,1)}56.79%,60.6%{transform:scale(0.250,1)}60.62%,61.12%{transform:scale(0.313,1)}61.14%,61.37%{transform:scale(0.375,1)}61.39%,61.88%{transform:scale(0.438,1)}61.9%,62.14%{transform:scale(0.500,1)}62.16%,62.91%{transform:scale(0.563,1)}62.93%,63.67%{transform:scale(0.625,1)}63.69%,64.18%{transform:scale(0.688,1)}64.2%,65.46%{transform:scale(0.750,1)}65.48%,65.97%{transform:scale(0.813,1)}65.99%,67.76%{transform:scale(0.875,1)}67.78%,69.3%{transform:scale(0.938,1)}69.32%,100%{transform:scale(1.000,1)}}.u.u1{fill:var(--c2);animation-name:u1;transform-origin:554.5px 0}@keyframes u2{71.6%{transform:scale(0.000,1)}71.62%,72.62%{transform:scale(0.143,1)}72.64%,73.65%{transform:scale(0.286,1)}73.67%,74.93%{transform:scale(0.429,1)}74.95%,75.18%{transform:scale(0.571,1)}75.2%,76.97%{transform:scale(0.714,1)}76.99%,84.39%{transform:scale(0.857,1)}84.41%,100%{transform:scale(1.000,1)}}.u.u2{fill:var(--c3);animation-name:u2;transform-origin:728.4px 0}@keyframes u3{92.57%{transform:scale(0.000,1)}92.59%,93.6%{transform:scale(0.250,1)}93.62%,95.39%{transform:scale(0.500,1)}95.41%,96.15%{transform:scale(0.750,1)}96.17%,100%{transform:scale(1.000,1)}}.u.u3{fill:var(--c4);animation-name:u3;transform-origin:804.5px 0}.s{shape-rendering:geometricPrecision;fill:var(--cs);animation:none linear 39100ms infinite}@keyframes s0{0%,99.74%{transform:translate(0px,-16px)}0.26%{transform:translate(0px,0px)}2.3%{transform:translate(128px,0px)}2.56%{transform:translate(128px,16px)}2.81%,68.8%{transform:translate(144px,16px)}3.07%{transform:translate(144px,32px)}3.58%{transform:translate(112px,32px)}4.35%{transform:translate(112px,80px)}4.6%,34.78%{transform:translate(128px,80px)}4.86%,35.04%{transform:translate(128px,96px)}5.37%{transform:translate(160px,96px)}5.63%{transform:translate(160px,80px)}6.39%{transform:translate(208px,80px)}6.65%{transform:translate(208px,64px)}6.91%{transform:translate(192px,64px)}7.16%{transform:translate(192px,48px)}8.18%{transform:translate(256px,48px)}8.44%,65.73%{transform:translate(256px,64px)}8.95%{transform:translate(224px,64px)}9.46%{transform:translate(224px,96px)}9.97%,37.08%,93.86%{transform:translate(256px,96px)}10.23%,37.34%{transform:translate(256px,112px)}11%{transform:translate(304px,112px)}11.51%{transform:translate(304px,80px)}11.76%{transform:translate(288px,80px)}12.02%,76.47%{transform:translate(288px,64px)}12.28%,64.96%,76.21%{transform:translate(304px,64px)}12.79%,64.45%,73.15%{transform:translate(304px,32px)}13.3%{transform:translate(336px,32px)}13.81%,60.87%{transform:translate(336px,64px)}14.83%{transform:translate(400px,64px)}15.35%{transform:translate(400px,96px)}17.9%{transform:translate(560px,96px)}18.67%{transform:translate(560px,48px)}18.93%,56.27%{transform:translate(576px,48px)}19.44%{transform:translate(576px,16px)}19.95%{transform:translate(544px,16px)}20.2%{transform:translate(544px,0px)}22.51%{transform:translate(400px,0px)}22.76%{transform:translate(400px,-16px)}24.55%{transform:translate(288px,-16px)}25.06%,63.94%{transform:translate(288px,16px)}25.58%,95.14%{transform:translate(256px,16px)}25.83%{transform:translate(256px,32px)}26.6%{transform:translate(208px,32px)}26.85%{transform:translate(208px,16px)}27.11%,71.1%{transform:translate(192px,16px)}27.37%,70.84%{transform:translate(192px,0px)}28.9%{transform:translate(96px,0px)}29.16%{transform:translate(96px,16px)}29.92%{transform:translate(48px,16px)}30.18%{transform:translate(48px,32px)}30.43%{transform:translate(64px,32px)}31.46%{transform:translate(64px,96px)}32.48%{transform:translate(0px,96px)}32.74%{transform:translate(0px,80px)}44.25%{transform:translate(688px,112px)}44.5%{transform:translate(688px,96px)}45.27%{transform:translate(736px,96px)}45.52%{transform:translate(736px,80px)}46.55%{transform:translate(800px,80px)}46.8%{transform:translate(800px,64px)}47.06%{transform:translate(816px,64px)}47.83%{transform:translate(816px,16px)}48.08%,52.17%{transform:translate(800px,16px)}48.34%{transform:translate(800px,0px)}48.85%{transform:translate(768px,0px)}49.1%{transform:translate(768px,16px)}49.62%,51.15%{transform:translate(736px,16px)}49.87%{transform:translate(736px,32px)}50.13%{transform:translate(752px,32px)}50.64%{transform:translate(752px,0px)}50.9%{transform:translate(736px,0px)}52.69%{transform:translate(800px,48px)}56.78%{transform:translate(576px,80px)}60.61%{transform:translate(336px,80px)}61.13%{transform:translate(320px,64px)}62.15%{transform:translate(320px,0px)}62.66%,74.42%{transform:translate(352px,0px)}62.92%{transform:translate(352px,16px)}64.19%{transform:translate(288px,32px)}65.98%{transform:translate(256px,80px)}67.77%{transform:translate(144px,80px)}69.31%{transform:translate(112px,16px)}69.57%{transform:translate(112px,0px)}71.61%{transform:translate(224px,16px)}71.87%{transform:translate(224px,32px)}73.66%{transform:translate(304px,0px)}75.19%{transform:translate(352px,48px)}75.96%{transform:translate(304px,48px)}76.98%{transform:translate(288px,96px)}84.4%{transform:translate(752px,96px)}85.17%{transform:translate(752px,48px)}92.84%{transform:translate(272px,48px)}93.61%{transform:translate(272px,96px)}95.4%{transform:translate(240px,16px)}95.65%{transform:translate(240px,0px)}98.72%{transform:translate(48px,0px)}98.98%{transform:translate(48px,-16px)}}.s.s0{transform:translate(0px,-16px);animation-name:s0}@keyframes s1{0%,99.74%{transform:translate(16px,-16px)}0.26%{transform:translate(0px,-16px)}0.51%{transform:translate(0px,0px)}2.56%{transform:translate(128px,0px)}2.81%{transform:translate(128px,16px)}3.07%,69.05%{transform:translate(144px,16px)}3.32%{transform:translate(144px,32px)}3.84%{transform:translate(112px,32px)}4.6%{transform:translate(112px,80px)}4.86%,35.04%{transform:translate(128px,80px)}5.12%,35.29%{transform:translate(128px,96px)}5.63%{transform:translate(160px,96px)}5.88%{transform:translate(160px,80px)}6.65%{transform:translate(208px,80px)}6.91%{transform:translate(208px,64px)}7.16%{transform:translate(192px,64px)}7.42%{transform:translate(192px,48px)}8.44%{transform:translate(256px,48px)}8.7%,65.98%{transform:translate(256px,64px)}9.21%{transform:translate(224px,64px)}9.72%{transform:translate(224px,96px)}10.23%,37.34%,94.12%{transform:translate(256px,96px)}10.49%,37.6%{transform:translate(256px,112px)}11.25%{transform:translate(304px,112px)}11.76%{transform:translate(304px,80px)}12.02%{transform:translate(288px,80px)}12.28%,76.73%{transform:translate(288px,64px)}12.53%,65.22%,76.47%{transform:translate(304px,64px)}13.04%,64.71%,73.4%{transform:translate(304px,32px)}13.55%{transform:translate(336px,32px)}14.07%,61.13%{transform:translate(336px,64px)}15.09%{transform:translate(400px,64px)}15.6%{transform:translate(400px,96px)}18.16%{transform:translate(560px,96px)}18.93%{transform:translate(560px,48px)}19.18%,56.52%{transform:translate(576px,48px)}19.69%{transform:translate(576px,16px)}20.2%{transform:translate(544px,16px)}20.46%{transform:translate(544px,0px)}22.76%{transform:translate(400px,0px)}23.02%{transform:translate(400px,-16px)}24.81%{transform:translate(288px,-16px)}25.32%,64.19%{transform:translate(288px,16px)}25.83%,95.4%{transform:translate(256px,16px)}26.09%{transform:translate(256px,32px)}26.85%{transform:translate(208px,32px)}27.11%{transform:translate(208px,16px)}27.37%,71.36%{transform:translate(192px,16px)}27.62%,71.1%{transform:translate(192px,0px)}29.16%{transform:translate(96px,0px)}29.41%{transform:translate(96px,16px)}30.18%{transform:translate(48px,16px)}30.43%{transform:translate(48px,32px)}30.69%{transform:translate(64px,32px)}31.71%{transform:translate(64px,96px)}32.74%{transform:translate(0px,96px)}32.99%{transform:translate(0px,80px)}44.5%{transform:translate(688px,112px)}44.76%{transform:translate(688px,96px)}45.52%{transform:translate(736px,96px)}45.78%{transform:translate(736px,80px)}46.8%{transform:translate(800px,80px)}47.06%{transform:translate(800px,64px)}47.31%{transform:translate(816px,64px)}48.08%{transform:translate(816px,16px)}48.34%,52.43%{transform:translate(800px,16px)}48.59%{transform:translate(800px,0px)}49.1%{transform:translate(768px,0px)}49.36%{transform:translate(768px,16px)}49.87%,51.41%{transform:translate(736px,16px)}50.13%{transform:translate(736px,32px)}50.38%{transform:translate(752px,32px)}50.9%{transform:translate(752px,0px)}51.15%{transform:translate(736px,0px)}52.94%{transform:translate(800px,48px)}57.03%{transform:translate(576px,80px)}60.87%{transform:translate(336px,80px)}61.38%{transform:translate(320px,64px)}62.4%{transform:translate(320px,0px)}62.92%,74.68%{transform:translate(352px,0px)}63.17%{transform:translate(352px,16px)}64.45%{transform:translate(288px,32px)}66.24%{transform:translate(256px,80px)}68.03%{transform:translate(144px,80px)}69.57%{transform:translate(112px,16px)}69.82%{transform:translate(112px,0px)}71.87%{transform:translate(224px,16px)}72.12%{transform:translate(224px,32px)}73.91%{transform:translate(304px,0px)}75.45%{transform:translate(352px,48px)}76.21%{transform:translate(304px,48px)}77.24%{transform:translate(288px,96px)}84.65%{transform:translate(752px,96px)}85.42%{transform:translate(752px,48px)}93.09%{transform:translate(272px,48px)}93.86%{transform:translate(272px,96px)}95.65%{transform:translate(240px,16px)}95.91%{transform:translate(240px,0px)}98.98%{transform:translate(48px,0px)}99.23%{transform:translate(48px,-16px)}}.s.s1{transform:translate(16px,-16px);animation-name:s1}@keyframes s2{0%,99.74%{transform:translate(32px,-16px)}0.51%{transform:translate(0px,-16px)}0.77%{transform:translate(0px,0px)}2.81%{transform:translate(128px,0px)}3.07%{transform:translate(128px,16px)}3.32%,69.31%{transform:translate(144px,16px)}3.58%{transform:translate(144px,32px)}4.09%{transform:translate(112px,32px)}4.86%{transform:translate(112px,80px)}5.12%,35.29%{transform:translate(128px,80px)}5.37%,35.55%{transform:translate(128px,96px)}5.88%{transform:translate(160px,96px)}6.14%{transform:translate(160px,80px)}6.91%{transform:translate(208px,80px)}7.16%{transform:translate(208px,64px)}7.42%{transform:translate(192px,64px)}7.67%{transform:translate(192px,48px)}8.7%{transform:translate(256px,48px)}8.95%,66.24%{transform:translate(256px,64px)}9.46%{transform:translate(224px,64px)}9.97%{transform:translate(224px,96px)}10.49%,37.6%,94.37%{transform:translate(256px,96px)}10.74%,37.85%{transform:translate(256px,112px)}11.51%{transform:translate(304px,112px)}12.02%{transform:translate(304px,80px)}12.28%{transform:translate(288px,80px)}12.53%,76.98%{transform:translate(288px,64px)}12.79%,65.47%,76.73%{transform:translate(304px,64px)}13.3%,64.96%,73.66%{transform:translate(304px,32px)}13.81%{transform:translate(336px,32px)}14.32%,61.38%{transform:translate(336px,64px)}15.35%{transform:translate(400px,64px)}15.86%{transform:translate(400px,96px)}18.41%{transform:translate(560px,96px)}19.18%{transform:translate(560px,48px)}19.44%,56.78%{transform:translate(576px,48px)}19.95%{transform:translate(576px,16px)}20.46%{transform:translate(544px,16px)}20.72%{transform:translate(544px,0px)}23.02%{transform:translate(400px,0px)}23.27%{transform:translate(400px,-16px)}25.06%{transform:translate(288px,-16px)}25.58%,64.45%{transform:translate(288px,16px)}26.09%,95.65%{transform:translate(256px,16px)}26.34%{transform:translate(256px,32px)}27.11%{transform:translate(208px,32px)}27.37%{transform:translate(208px,16px)}27.62%,71.61%{transform:translate(192px,16px)}27.88%,71.36%{transform:translate(192px,0px)}29.41%{transform:translate(96px,0px)}29.67%{transform:translate(96px,16px)}30.43%{transform:translate(48px,16px)}30.69%{transform:translate(48px,32px)}30.95%{transform:translate(64px,32px)}31.97%{transform:translate(64px,96px)}32.99%{transform:translate(0px,96px)}33.25%{transform:translate(0px,80px)}44.76%{transform:translate(688px,112px)}45.01%{transform:translate(688px,96px)}45.78%{transform:translate(736px,96px)}46.04%{transform:translate(736px,80px)}47.06%{transform:translate(800px,80px)}47.31%{transform:translate(800px,64px)}47.57%{transform:translate(816px,64px)}48.34%{transform:translate(816px,16px)}48.59%,52.69%{transform:translate(800px,16px)}48.85%{transform:translate(800px,0px)}49.36%{transform:translate(768px,0px)}49.62%{transform:translate(768px,16px)}50.13%,51.66%{transform:translate(736px,16px)}50.38%{transform:translate(736px,32px)}50.64%{transform:translate(752px,32px)}51.15%{transform:translate(752px,0px)}51.41%{transform:translate(736px,0px)}53.2%{transform:translate(800px,48px)}57.29%{transform:translate(576px,80px)}61.13%{transform:translate(336px,80px)}61.64%{transform:translate(320px,64px)}62.66%{transform:translate(320px,0px)}63.17%,74.94%{transform:translate(352px,0px)}63.43%{transform:translate(352px,16px)}64.71%{transform:translate(288px,32px)}66.5%{transform:translate(256px,80px)}68.29%{transform:translate(144px,80px)}69.82%{transform:translate(112px,16px)}70.08%{transform:translate(112px,0px)}72.12%{transform:translate(224px,16px)}72.38%{transform:translate(224px,32px)}74.17%{transform:translate(304px,0px)}75.7%{transform:translate(352px,48px)}76.47%{transform:translate(304px,48px)}77.49%{transform:translate(288px,96px)}84.91%{transform:translate(752px,96px)}85.68%{transform:translate(752px,48px)}93.35%{transform:translate(272px,48px)}94.12%{transform:translate(272px,96px)}95.91%{transform:translate(240px,16px)}96.16%{transform:translate(240px,0px)}99.23%{transform:translate(48px,0px)}99.49%{transform:translate(48px,-16px)}}.s.s2{transform:translate(32px,-16px);animation-name:s2}@keyframes s3{0%,99.74%{transform:translate(48px,-16px)}0.77%{transform:translate(0px,-16px)}1.02%{transform:translate(0px,0px)}3.07%{transform:translate(128px,0px)}3.32%{transform:translate(128px,16px)}3.58%,69.57%{transform:translate(144px,16px)}3.84%{transform:translate(144px,32px)}4.35%{transform:translate(112px,32px)}5.12%{transform:translate(112px,80px)}5.37%,35.55%{transform:translate(128px,80px)}5.63%,35.81%{transform:translate(128px,96px)}6.14%{transform:translate(160px,96px)}6.39%{transform:translate(160px,80px)}7.16%{transform:translate(208px,80px)}7.42%{transform:translate(208px,64px)}7.67%{transform:translate(192px,64px)}7.93%{transform:translate(192px,48px)}8.95%{transform:translate(256px,48px)}9.21%,66.5%{transform:translate(256px,64px)}9.72%{transform:translate(224px,64px)}10.23%{transform:translate(224px,96px)}10.74%,37.85%,94.63%{transform:translate(256px,96px)}11%,38.11%{transform:translate(256px,112px)}11.76%{transform:translate(304px,112px)}12.28%{transform:translate(304px,80px)}12.53%{transform:translate(288px,80px)}12.79%,77.24%{transform:translate(288px,64px)}13.04%,65.73%,76.98%{transform:translate(304px,64px)}13.55%,65.22%,73.91%{transform:translate(304px,32px)}14.07%{transform:translate(336px,32px)}14.58%,61.64%{transform:translate(336px,64px)}15.6%{transform:translate(400px,64px)}16.11%{transform:translate(400px,96px)}18.67%{transform:translate(560px,96px)}19.44%{transform:translate(560px,48px)}19.69%,57.03%{transform:translate(576px,48px)}20.2%{transform:translate(576px,16px)}20.72%{transform:translate(544px,16px)}20.97%{transform:translate(544px,0px)}23.27%{transform:translate(400px,0px)}23.53%{transform:translate(400px,-16px)}25.32%{transform:translate(288px,-16px)}25.83%,64.71%{transform:translate(288px,16px)}26.34%,95.91%{transform:translate(256px,16px)}26.6%{transform:translate(256px,32px)}27.37%{transform:translate(208px,32px)}27.62%{transform:translate(208px,16px)}27.88%,71.87%{transform:translate(192px,16px)}28.13%,71.61%{transform:translate(192px,0px)}29.67%{transform:translate(96px,0px)}29.92%{transform:translate(96px,16px)}30.69%{transform:translate(48px,16px)}30.95%{transform:translate(48px,32px)}31.2%{transform:translate(64px,32px)}32.23%{transform:translate(64px,96px)}33.25%{transform:translate(0px,96px)}33.5%{transform:translate(0px,80px)}45.01%{transform:translate(688px,112px)}45.27%{transform:translate(688px,96px)}46.04%{transform:translate(736px,96px)}46.29%{transform:translate(736px,80px)}47.31%{transform:translate(800px,80px)}47.57%{transform:translate(800px,64px)}47.83%{transform:translate(816px,64px)}48.59%{transform:translate(816px,16px)}48.85%,52.94%{transform:translate(800px,16px)}49.1%{transform:translate(800px,0px)}49.62%{transform:translate(768px,0px)}49.87%{transform:translate(768px,16px)}50.38%,51.92%{transform:translate(736px,16px)}50.64%{transform:translate(736px,32px)}50.9%{transform:translate(752px,32px)}51.41%{transform:translate(752px,0px)}51.66%{transform:translate(736px,0px)}53.45%{transform:translate(800px,48px)}57.54%{transform:translate(576px,80px)}61.38%{transform:translate(336px,80px)}61.89%{transform:translate(320px,64px)}62.92%{transform:translate(320px,0px)}63.43%,75.19%{transform:translate(352px,0px)}63.68%{transform:translate(352px,16px)}64.96%{transform:translate(288px,32px)}66.75%{transform:translate(256px,80px)}68.54%{transform:translate(144px,80px)}70.08%{transform:translate(112px,16px)}70.33%{transform:translate(112px,0px)}72.38%{transform:translate(224px,16px)}72.63%{transform:translate(224px,32px)}74.42%{transform:translate(304px,0px)}75.96%{transform:translate(352px,48px)}76.73%{transform:translate(304px,48px)}77.75%{transform:translate(288px,96px)}85.17%{transform:translate(752px,96px)}85.93%{transform:translate(752px,48px)}93.61%{transform:translate(272px,48px)}94.37%{transform:translate(272px,96px)}96.16%{transform:translate(240px,16px)}96.42%{transform:translate(240px,0px)}99.49%{transform:translate(48px,0px)}}.s.s3{transform:translate(48px,-16px);animation-name:s3}</style><rect class="c" x="2" y="2" rx="2" ry="2"/><rect class="c" x="2" y="18" rx="2" ry="2"/><rect class="c" x="2" y="34" rx="2" ry="2"/><rect class="c" x="2" y="50" rx="2" ry="2"/><rect class="c" x="2" y="66" rx="2" ry="2"/><rect class="c c0" x="2" y="82" rx="2" ry="2"/><rect class="c c1" x="2" y="98" rx="2" ry="2"/><rect class="c" x="18" y="2" rx="2" ry="2"/><rect class="c" x="18" y="18" rx="2" ry="2"/><rect class="c" x="18" y="34" rx="2" ry="2"/><rect class="c" x="18" y="50" rx="2" ry="2"/><rect class="c" x="18" y="66" rx="2" ry="2"/><rect class="c" x="18" y="82" rx="2" ry="2"/><rect class="c" x="18" y="98" rx="2" ry="2"/><rect class="c c2" x="34" y="2" rx="2" ry="2"/><rect class="c" x="34" y="18" rx="2" ry="2"/><rect class="c" x="34" y="34" rx="2" ry="2"/><rect class="c" x="34" y="50" rx="2" ry="2"/><rect class="c" x="34" y="66" rx="2" ry="2"/><rect class="c" x="34" y="82" rx="2" ry="2"/><rect class="c" x="34" y="98" rx="2" ry="2"/><rect class="c" x="50" y="2" rx="2" ry="2"/><rect class="c c3" x="50" y="18" rx="2" ry="2"/><rect class="c c4" x="50" y="34" rx="2" ry="2"/><rect class="c" x="50" y="50" rx="2" ry="2"/><rect class="c" x="50" y="66" rx="2" ry="2"/><rect class="c" x="50" y="82" rx="2" ry="2"/><rect class="c" x="50" y="98" rx="2" ry="2"/><rect class="c c5" x="66" y="2" rx="2" ry="2"/><rect class="c" x="66" y="18" rx="2" ry="2"/><rect class="c" x="66" y="34" rx="2" ry="2"/><rect class="c" x="66" y="50" rx="2" ry="2"/><rect class="c" x="66" y="66" rx="2" ry="2"/><rect class="c c6" x="66" y="82" rx="2" ry="2"/><rect class="c c7" x="66" y="98" rx="2" ry="2"/><rect class="c" x="82" y="2" rx="2" ry="2"/><rect class="c" x="82" y="18" rx="2" ry="2"/><rect class="c" x="82" y="34" rx="2" ry="2"/><rect class="c" x="82" y="50" rx="2" ry="2"/><rect class="c" x="82" y="66" rx="2" ry="2"/><rect class="c" x="82" y="82" rx="2" ry="2"/><rect class="c" x="82" y="98" rx="2" ry="2"/><rect class="c c8" x="98" y="2" rx="2" ry="2"/><rect class="c c9" x="98" y="18" rx="2" ry="2"/><rect class="c" x="98" y="34" rx="2" ry="2"/><rect class="c" x="98" y="50" rx="2" ry="2"/><rect class="c" x="98" y="66" rx="2" ry="2"/><rect class="c" x="98" y="82" rx="2" ry="2"/><rect class="c" x="98" y="98" rx="2" ry="2"/><rect class="c ca" x="114" y="2" rx="2" ry="2"/><rect class="c cb" x="114" y="18" rx="2" ry="2"/><rect class="c" x="114" y="34" rx="2" ry="2"/><rect class="c cc" x="114" y="50" rx="2" ry="2"/><rect class="c" x="114" y="66" rx="2" ry="2"/><rect class="c cd" x="114" y="82" rx="2" ry="2"/><rect class="c" x="114" y="98" rx="2" ry="2"/><rect class="c" x="130" y="2" rx="2" ry="2"/><rect class="c ce" x="130" y="18" rx="2" ry="2"/><rect class="c cf" x="130" y="34" rx="2" ry="2"/><rect class="c" x="130" y="50" rx="2" ry="2"/><rect class="c" x="130" y="66" rx="2" ry="2"/><rect class="c" x="130" y="82" rx="2" ry="2"/><rect class="c" x="130" y="98" rx="2" ry="2"/><rect class="c" x="146" y="2" rx="2" ry="2"/><rect class="c cg" x="146" y="18" rx="2" ry="2"/><rect class="c" x="146" y="34" rx="2" ry="2"/><rect class="c" x="146" y="50" rx="2" ry="2"/><rect class="c" x="146" y="66" rx="2" ry="2"/><rect class="c ch" x="146" y="82" rx="2" ry="2"/><rect class="c ci" x="146" y="98" rx="2" ry="2"/><rect class="c" x="162" y="2" rx="2" ry="2"/><rect class="c" x="162" y="18" rx="2" ry="2"/><rect class="c" x="162" y="34" rx="2" ry="2"/><rect class="c" x="162" y="50" rx="2" ry="2"/><rect class="c" x="162" y="66" rx="2" ry="2"/><rect class="c cj" x="162" y="82" rx="2" ry="2"/><rect class="c" x="162" y="98" rx="2" ry="2"/><rect class="c ck" x="178" y="2" rx="2" ry="2"/><rect class="c" x="178" y="18" rx="2" ry="2"/><rect class="c" x="178" y="34" rx="2" ry="2"/><rect class="c" x="178" y="50" rx="2" ry="2"/><rect class="c" x="178" y="66" rx="2" ry="2"/><rect class="c cl" x="178" y="82" rx="2" ry="2"/><rect class="c" x="178" y="98" rx="2" ry="2"/><rect class="c" x="194" y="2" rx="2" ry="2"/><rect class="c" x="194" y="18" rx="2" ry="2"/><rect class="c" x="194" y="34" rx="2" ry="2"/><rect class="c" x="194" y="50" rx="2" ry="2"/><rect class="c cm" x="194" y="66" rx="2" ry="2"/><rect class="c cn" x="194" y="82" rx="2" ry="2"/><rect class="c" x="194" y="98" rx="2" ry="2"/><rect class="c co" x="210" y="2" rx="2" ry="2"/><rect class="c cp" x="210" y="18" rx="2" ry="2"/><rect class="c" x="210" y="34" rx="2" ry="2"/><rect class="c" x="210" y="50" rx="2" ry="2"/><rect class="c cq" x="210" y="66" rx="2" ry="2"/><rect class="c cr" x="210" y="82" rx="2" ry="2"/><rect class="c" x="210" y="98" rx="2" ry="2"/><rect class="c" x="226" y="2" rx="2" ry="2"/><rect class="c cs" x="226" y="18" rx="2" ry="2"/><rect class="c" x="226" y="34" rx="2" ry="2"/><rect class="c ct" x="226" y="50" rx="2" ry="2"/><rect class="c" x="226" y="66" rx="2" ry="2"/><rect class="c" x="226" y="82" rx="2" ry="2"/><rect class="c cu" x="226" y="98" rx="2" ry="2"/><rect class="c" x="242" y="2" rx="2" ry="2"/><rect class="c cv" x="242" y="18" rx="2" ry="2"/><rect class="c" x="242" y="34" rx="2" ry="2"/><rect class="c" x="242" y="50" rx="2" ry="2"/><rect class="c" x="242" y="66" rx="2" ry="2"/><rect class="c" x="242" y="82" rx="2" ry="2"/><rect class="c" x="242" y="98" rx="2" ry="2"/><rect class="c" x="258" y="2" rx="2" ry="2"/><rect class="c" x="258" y="18" rx="2" ry="2"/><rect class="c" x="258" y="34" rx="2" ry="2"/><rect class="c" x="258" y="50" rx="2" ry="2"/><rect class="c cw" x="258" y="66" rx="2" ry="2"/><rect class="c cx" x="258" y="82" rx="2" ry="2"/><rect class="c cy" x="258" y="98" rx="2" ry="2"/><rect class="c" x="274" y="2" rx="2" ry="2"/><rect class="c" x="274" y="18" rx="2" ry="2"/><rect class="c cz" x="274" y="34" rx="2" ry="2"/><rect class="c" x="274" y="50" rx="2" ry="2"/><rect class="c c10" x="274" y="66" rx="2" ry="2"/><rect class="c" x="274" y="82" rx="2" ry="2"/><rect class="c c11" x="274" y="98" rx="2" ry="2"/><rect class="c" x="290" y="2" rx="2" ry="2"/><rect class="c c12" x="290" y="18" rx="2" ry="2"/><rect class="c c13" x="290" y="34" rx="2" ry="2"/><rect class="c c14" x="290" y="50" rx="2" ry="2"/><rect class="c c15" x="290" y="66" rx="2" ry="2"/><rect class="c c16" x="290" y="82" rx="2" ry="2"/><rect class="c c17" x="290" y="98" rx="2" ry="2"/><rect class="c c18" x="306" y="2" rx="2" ry="2"/><rect class="c c19" x="306" y="18" rx="2" ry="2"/><rect class="c" x="306" y="34" rx="2" ry="2"/><rect class="c" x="306" y="50" rx="2" ry="2"/><rect class="c" x="306" y="66" rx="2" ry="2"/><rect class="c" x="306" y="82" rx="2" ry="2"/><rect class="c c1a" x="306" y="98" rx="2" ry="2"/><rect class="c c1b" x="322" y="2" rx="2" ry="2"/><rect class="c c1c" x="322" y="18" rx="2" ry="2"/><rect class="c" x="322" y="34" rx="2" ry="2"/><rect class="c c1d" x="322" y="50" rx="2" ry="2"/><rect class="c c1e" x="322" y="66" rx="2" ry="2"/><rect class="c" x="322" y="82" rx="2" ry="2"/><rect class="c" x="322" y="98" rx="2" ry="2"/><rect class="c" x="338" y="2" rx="2" ry="2"/><rect class="c" x="338" y="18" rx="2" ry="2"/><rect class="c" x="338" y="34" rx="2" ry="2"/><rect class="c" x="338" y="50" rx="2" ry="2"/><rect class="c" x="338" y="66" rx="2" ry="2"/><rect class="c c1f" x="338" y="82" rx="2" ry="2"/><rect class="c" x="338" y="98" rx="2" ry="2"/><rect class="c" x="354" y="2" rx="2" ry="2"/><rect class="c c1g" x="354" y="18" rx="2" ry="2"/><rect class="c c1h" x="354" y="34" rx="2" ry="2"/><rect class="c c1i" x="354" y="50" rx="2" ry="2"/><rect class="c c1j" x="354" y="66" rx="2" ry="2"/><rect class="c" x="354" y="82" rx="2" ry="2"/><rect class="c" x="354" y="98" rx="2" ry="2"/><rect class="c" x="370" y="2" rx="2" ry="2"/><rect class="c" x="370" y="18" rx="2" ry="2"/><rect class="c" x="370" y="34" rx="2" ry="2"/><rect class="c" x="370" y="50" rx="2" ry="2"/><rect class="c" x="370" y="66" rx="2" ry="2"/><rect class="c" x="370" y="82" rx="2" ry="2"/><rect class="c" x="370" y="98" rx="2" ry="2"/><rect class="c" x="386" y="2" rx="2" ry="2"/><rect class="c" x="386" y="18" rx="2" ry="2"/><rect class="c" x="386" y="34" rx="2" ry="2"/><rect class="c" x="386" y="50" rx="2" ry="2"/><rect class="c" x="386" y="66" rx="2" ry="2"/><rect class="c" x="386" y="82" rx="2" ry="2"/><rect class="c" x="386" y="98" rx="2" ry="2"/><rect class="c c1k" x="402" y="2" rx="2" ry="2"/><rect class="c" x="402" y="18" rx="2" ry="2"/><rect class="c" x="402" y="34" rx="2" ry="2"/><rect class="c" x="402" y="50" rx="2" ry="2"/><rect class="c" x="402" y="66" rx="2" ry="2"/><rect class="c c1l" x="402" y="82" rx="2" ry="2"/><rect class="c c1m" x="402" y="98" rx="2" ry="2"/><rect class="c c1n" x="418" y="2" rx="2" ry="2"/><rect class="c" x="418" y="18" rx="2" ry="2"/><rect class="c" x="418" y="34" rx="2" ry="2"/><rect class="c" x="418" y="50" rx="2" ry="2"/><rect class="c" x="418" y="66" rx="2" ry="2"/><rect class="c" x="418" y="82" rx="2" ry="2"/><rect class="c c1o" x="418" y="98" rx="2" ry="2"/><rect class="c" x="434" y="2" rx="2" ry="2"/><rect class="c" x="434" y="18" rx="2" ry="2"/><rect class="c" x="434" y="34" rx="2" ry="2"/><rect class="c" x="434" y="50" rx="2" ry="2"/><rect class="c" x="434" y="66" rx="2" ry="2"/><rect class="c" x="434" y="82" rx="2" ry="2"/><rect class="c" x="434" y="98" rx="2" ry="2"/><rect class="c" x="450" y="2" rx="2" ry="2"/><rect class="c" x="450" y="18" rx="2" ry="2"/><rect class="c" x="450" y="34" rx="2" ry="2"/><rect class="c" x="450" y="50" rx="2" ry="2"/><rect class="c" x="450" y="66" rx="2" ry="2"/><rect class="c" x="450" y="82" rx="2" ry="2"/><rect class="c" x="450" y="98" rx="2" ry="2"/><rect class="c" x="466" y="2" rx="2" ry="2"/><rect class="c" x="466" y="18" rx="2" ry="2"/><rect class="c" x="466" y="34" rx="2" ry="2"/><rect class="c" x="466" y="50" rx="2" ry="2"/><rect class="c" x="466" y="66" rx="2" ry="2"/><rect class="c" x="466" y="82" rx="2" ry="2"/><rect class="c" x="466" y="98" rx="2" ry="2"/><rect class="c" x="482" y="2" rx="2" ry="2"/><rect class="c" x="482" y="18" rx="2" ry="2"/><rect class="c" x="482" y="34" rx="2" ry="2"/><rect class="c" x="482" y="50" rx="2" ry="2"/><rect class="c" x="482" y="66" rx="2" ry="2"/><rect class="c" x="482" y="82" rx="2" ry="2"/><rect class="c c1p" x="482" y="98" rx="2" ry="2"/><rect class="c" x="498" y="2" rx="2" ry="2"/><rect class="c" x="498" y="18" rx="2" ry="2"/><rect class="c" x="498" y="34" rx="2" ry="2"/><rect class="c" x="498" y="50" rx="2" ry="2"/><rect class="c" x="498" y="66" rx="2" ry="2"/><rect class="c" x="498" y="82" rx="2" ry="2"/><rect class="c" x="498" y="98" rx="2" ry="2"/><rect class="c" x="514" y="2" rx="2" ry="2"/><rect class="c" x="514" y="18" rx="2" ry="2"/><rect class="c" x="514" y="34" rx="2" ry="2"/><rect class="c" x="514" y="50" rx="2" ry="2"/><rect class="c" x="514" y="66" rx="2" ry="2"/><rect class="c" x="514" y="82" rx="2" ry="2"/><rect class="c" x="514" y="98" rx="2" ry="2"/><rect class="c" x="530" y="2" rx="2" ry="2"/><rect class="c" x="530" y="18" rx="2" ry="2"/><rect class="c" x="530" y="34" rx="2" ry="2"/><rect class="c" x="530" y="50" rx="2" ry="2"/><rect class="c" x="530" y="66" rx="2" ry="2"/><rect class="c" x="530" y="82" rx="2" ry="2"/><rect class="c" x="530" y="98" rx="2" ry="2"/><rect class="c" x="546" y="2" rx="2" ry="2"/><rect class="c c1q" x="546" y="18" rx="2" ry="2"/><rect class="c" x="546" y="34" rx="2" ry="2"/><rect class="c" x="546" y="50" rx="2" ry="2"/><rect class="c" x="546" y="66" rx="2" ry="2"/><rect class="c" x="546" y="82" rx="2" ry="2"/><rect class="c" x="546" y="98" rx="2" ry="2"/><rect class="c" x="562" y="2" rx="2" ry="2"/><rect class="c" x="562" y="18" rx="2" ry="2"/><rect class="c" x="562" y="34" rx="2" ry="2"/><rect class="c c1r" x="562" y="50" rx="2" ry="2"/><rect class="c" x="562" y="66" rx="2" ry="2"/><rect class="c" x="562" y="82" rx="2" ry="2"/><rect class="c" x="562" y="98" rx="2" ry="2"/><rect class="c" x="578" y="2" rx="2" ry="2"/><rect class="c" x="578" y="18" rx="2" ry="2"/><rect class="c c1s" x="578" y="34" rx="2" ry="2"/><rect class="c" x="578" y="50" rx="2" ry="2"/><rect class="c c1t" x="578" y="66" rx="2" ry="2"/><rect class="c c1u" x="578" y="82" rx="2" ry="2"/><rect class="c" x="578" y="98" rx="2" ry="2"/><rect class="c" x="594" y="2" rx="2" ry="2"/><rect class="c" x="594" y="18" rx="2" ry="2"/><rect class="c" x="594" y="34" rx="2" ry="2"/><rect class="c" x="594" y="50" rx="2" ry="2"/><rect class="c" x="594" y="66" rx="2" ry="2"/><rect class="c" x="594" y="82" rx="2" ry="2"/><rect class="c" x="594" y="98" rx="2" ry="2"/><rect class="c" x="610" y="2" rx="2" ry="2"/><rect class="c" x="610" y="18" rx="2" ry="2"/><rect class="c" x="610" y="34" rx="2" ry="2"/><rect class="c" x="610" y="50" rx="2" ry="2"/><rect class="c" x="610" y="66" rx="2" ry="2"/><rect class="c" x="610" y="82" rx="2" ry="2"/><rect class="c" x="610" y="98" rx="2" ry="2"/><rect class="c" x="626" y="2" rx="2" ry="2"/><rect class="c" x="626" y="18" rx="2" ry="2"/><rect class="c" x="626" y="34" rx="2" ry="2"/><rect class="c" x="626" y="50" rx="2" ry="2"/><rect class="c" x="626" y="66" rx="2" ry="2"/><rect class="c" x="626" y="82" rx="2" ry="2"/><rect class="c" x="626" y="98" rx="2" ry="2"/><rect class="c" x="642" y="2" rx="2" ry="2"/><rect class="c" x="642" y="18" rx="2" ry="2"/><rect class="c" x="642" y="34" rx="2" ry="2"/><rect class="c" x="642" y="50" rx="2" ry="2"/><rect class="c" x="642" y="66" rx="2" ry="2"/><rect class="c" x="642" y="82" rx="2" ry="2"/><rect class="c" x="642" y="98" rx="2" ry="2"/><rect class="c" x="658" y="2" rx="2" ry="2"/><rect class="c" x="658" y="18" rx="2" ry="2"/><rect class="c" x="658" y="34" rx="2" ry="2"/><rect class="c" x="658" y="50" rx="2" ry="2"/><rect class="c" x="658" y="66" rx="2" ry="2"/><rect class="c" x="658" y="82" rx="2" ry="2"/><rect class="c" x="658" y="98" rx="2" ry="2"/><rect class="c" x="674" y="2" rx="2" ry="2"/><rect class="c" x="674" y="18" rx="2" ry="2"/><rect class="c" x="674" y="34" rx="2" ry="2"/><rect class="c" x="674" y="50" rx="2" ry="2"/><rect class="c" x="674" y="66" rx="2" ry="2"/><rect class="c" x="674" y="82" rx="2" ry="2"/><rect class="c" x="674" y="98" rx="2" ry="2"/><rect class="c" x="690" y="2" rx="2" ry="2"/><rect class="c" x="690" y="18" rx="2" ry="2"/><rect class="c" x="690" y="34" rx="2" ry="2"/><rect class="c" x="690" y="50" rx="2" ry="2"/><rect class="c" x="690" y="66" rx="2" ry="2"/><rect class="c" x="690" y="82" rx="2" ry="2"/><rect class="c c1v" x="690" y="98" rx="2" ry="2"/><rect class="c" x="706" y="2" rx="2" ry="2"/><rect class="c" x="706" y="18" rx="2" ry="2"/><rect class="c" x="706" y="34" rx="2" ry="2"/><rect class="c" x="706" y="50" rx="2" ry="2"/><rect class="c" x="706" y="66" rx="2" ry="2"/><rect class="c" x="706" y="82" rx="2" ry="2"/><rect class="c" x="706" y="98" rx="2" ry="2"/><rect class="c" x="722" y="2" rx="2" ry="2"/><rect class="c" x="722" y="18" rx="2" ry="2"/><rect class="c" x="722" y="34" rx="2" ry="2"/><rect class="c" x="722" y="50" rx="2" ry="2"/><rect class="c" x="722" y="66" rx="2" ry="2"/><rect class="c" x="722" y="82" rx="2" ry="2"/><rect class="c" x="722" y="98" rx="2" ry="2"/><rect class="c c1w" x="738" y="2" rx="2" ry="2"/><rect class="c" x="738" y="18" rx="2" ry="2"/><rect class="c c1x" x="738" y="34" rx="2" ry="2"/><rect class="c" x="738" y="50" rx="2" ry="2"/><rect class="c" x="738" y="66" rx="2" ry="2"/><rect class="c" x="738" y="82" rx="2" ry="2"/><rect class="c" x="738" y="98" rx="2" ry="2"/><rect class="c" x="754" y="2" rx="2" ry="2"/><rect class="c" x="754" y="18" rx="2" ry="2"/><rect class="c" x="754" y="34" rx="2" ry="2"/><rect class="c" x="754" y="50" rx="2" ry="2"/><rect class="c" x="754" y="66" rx="2" ry="2"/><rect class="c c1y" x="754" y="82" rx="2" ry="2"/><rect class="c c1z" x="754" y="98" rx="2" ry="2"/><rect class="c c20" x="770" y="2" rx="2" ry="2"/><rect class="c c21" x="770" y="18" rx="2" ry="2"/><rect class="c" x="770" y="34" rx="2" ry="2"/><rect class="c" x="770" y="50" rx="2" ry="2"/><rect class="c" x="770" y="66" rx="2" ry="2"/><rect class="c" x="770" y="82" rx="2" ry="2"/><rect class="c" x="770" y="98" rx="2" ry="2"/><rect class="c" x="786" y="2" rx="2" ry="2"/><rect class="c" x="786" y="18" rx="2" ry="2"/><rect class="c" x="786" y="34" rx="2" ry="2"/><rect class="c" x="786" y="50" rx="2" ry="2"/><rect class="c" x="786" y="66" rx="2" ry="2"/><rect class="c" x="786" y="82" rx="2" ry="2"/><rect class="c" x="786" y="98" rx="2" ry="2"/><rect class="c c22" x="802" y="2" rx="2" ry="2"/><rect class="c c23" x="802" y="18" rx="2" ry="2"/><rect class="c" x="802" y="34" rx="2" ry="2"/><rect class="c c24" x="802" y="50" rx="2" ry="2"/><rect class="c c25" x="802" y="66" rx="2" ry="2"/><rect class="c" x="802" y="82" rx="2" ry="2"/><rect class="c" x="802" y="98" rx="2" ry="2"/><rect class="c" x="818" y="2" rx="2" ry="2"/><rect class="c" x="818" y="18" rx="2" ry="2"/><rect class="c" x="818" y="34" rx="2" ry="2"/><rect class="c" x="818" y="50" rx="2" ry="2"/><rect class="c" x="818" y="66" rx="2" ry="2"/><rect class="c" x="818" y="82" rx="2" ry="2"/><rect class="c" x="818" y="98" rx="2" ry="2"/><rect class="c" x="834" y="2" rx="2" ry="2"/><rect class="c" x="834" y="18" rx="2" ry="2"/><rect class="c" x="834" y="34" rx="2" ry="2"/><rect class="u u0" height="12" width="555.1" x="0.0" y="144"/><rect class="u u1" height="12" width="174.5" x="554.5" y="144"/><rect class="u u2" height="12" width="76.7" x="728.4" y="144"/><rect class="u u3" height="12" width="44.1" x="804.5" y="144"/><rect class="s s0" x="0.8" y="0.8" width="14.4" height="14.4" rx="4.5" ry="4.5"/><rect class="s s1" x="1.8" y="1.8" width="12.3" height="12.3" rx="4.1" ry="4.1"/><rect class="s s2" x="2.6" y="2.6" width="10.8" height="10.8" rx="3.6" ry="3.6"/><rect class="s s3" x="3.0" y="3.0" width="9.9" height="9.9" rx="3.3" ry="3.3"/></svg>