<svg viewBox="-16 -32 880 192" width="880" height="192" xmlns="http://www.w3.org/2000/svg"><desc>Generated with https://github.com/Platane/snk</desc><style>:root{--cb:#1b1f230a;--cs:white;--ce:#0a0e12;--c0:#0a0e12;--c1:#1445a2;--c2:#1d65ee;--c3:#1f4eff;--c4:#466dff}.c{shape-rendering:geometricPrecision;fill:var(--ce);stroke-width:1px;stroke:var(--cb);animation:none 41500ms linear infinite;width:12px;height:12px}@keyframes c0{1.44%{fill:var(--c1)}1.46%,100%{fill:var(--ce)}}.c.c0{fill:var(--c1);animation-name:c0}@keyframes c1{0.95%{fill:var(--c1)}0.97%,100%{fill:var(--ce)}}.c.c1{fill:var(--c1);animation-name:c1}@keyframes c2{45.29%{fill:var(--c2)}45.31%,100%{fill:var(--ce)}}.c.c2{fill:var(--c2);animation-name:c2}@keyframes c3{71.56%{fill:var(--c3)}71.58%,100%{fill:var(--ce)}}.c.c3{fill:var(--c3);animation-name:c3}@keyframes c4{4.09%{fill:var(--c1)}4.11%,100%{fill:var(--ce)}}.c.c4{fill:var(--c1);animation-name:c4}@keyframes c5{40.95%{fill:var(--c2)}40.97%,100%{fill:var(--ce)}}.c.c5{fill:var(--c2);animation-name:c5}@keyframes c6{5.77%{fill:var(--c1)}5.79%,100%{fill:var(--ce)}}.c.c6{fill:var(--c1);animation-name:c6}@keyframes c7{42.4%{fill:var(--c2)}42.42%,100%{fill:var(--ce)}}.c.c7{fill:var(--c2);animation-name:c7}@keyframes c8{74.45%{fill:var(--c4)}74.47%,100%{fill:var(--ce)}}.c.c8{fill:var(--c4);animation-name:c8}@keyframes c9{6.74%{fill:var(--c1)}6.76%,100%{fill:var(--ce)}}.c.c9{fill:var(--c1);animation-name:c9}@keyframes ca{6.5%{fill:var(--c1)}6.52%,100%{fill:var(--ce)}}.c.ca{fill:var(--c1);animation-name:ca}@keyframes cb{7.22%{fill:var(--c1)}7.24%,100%{fill:var(--ce)}}.c.cb{fill:var(--c1);animation-name:cb}@keyframes cc{7.46%{fill:var(--c1)}7.48%,100%{fill:var(--ce)}}.c.cc{fill:var(--c1);animation-name:cc}@keyframes cd{67.7%{fill:var(--c3)}67.72%,100%{fill:var(--ce)}}.c.cd{fill:var(--c3);animation-name:cd}@keyframes ce{8.66%{fill:var(--c1)}8.68%,100%{fill:var(--ce)}}.c.ce{fill:var(--c1);animation-name:ce}@keyframes cf{9.87%{fill:var(--c1)}9.89%,100%{fill:var(--ce)}}.c.cf{fill:var(--c1);animation-name:cf}@keyframes cg{9.63%{fill:var(--c1)}9.65%,100%{fill:var(--ce)}}.c.cg{fill:var(--c1);animation-name:cg}@keyframes ch{11.8%{fill:var(--c1)}11.82%,100%{fill:var(--ce)}}.c.ch{fill:var(--c1);animation-name:ch}@keyframes ci{36.86%{fill:var(--c2)}36.88%,100%{fill:var(--ce)}}.c.ci{fill:var(--c2);animation-name:ci}@keyframes cj{12.04%{fill:var(--c1)}12.06%,100%{fill:var(--ce)}}.c.cj{fill:var(--c1);animation-name:cj}@keyframes ck{12.76%{fill:var(--c1)}12.78%,100%{fill:var(--ce)}}.c.ck{fill:var(--c1);animation-name:ck}@keyframes cl{13.24%{fill:var(--c1)}13.26%,100%{fill:var(--ce)}}.c.cl{fill:var(--c1);animation-name:cl}@keyframes cm{15.17%{fill:var(--c1)}15.19%,100%{fill:var(--ce)}}.c.cm{fill:var(--c1);animation-name:cm}@keyframes cn{35.17%{fill:var(--c2)}35.19%,100%{fill:var(--ce)}}.c.cn{fill:var(--c2);animation-name:cn}@keyframes co{14.93%{fill:var(--c1)}14.95%,100%{fill:var(--ce)}}.c.co{fill:var(--c1);animation-name:co}@keyframes cp{14.69%{fill:var(--c1)}14.71%,100%{fill:var(--ce)}}.c.cp{fill:var(--c1);animation-name:cp}@keyframes cq{14.21%{fill:var(--c1)}14.23%,100%{fill:var(--ce)}}.c.cq{fill:var(--c1);animation-name:cq}@keyframes cr{18.3%{fill:var(--c1)}18.32%,100%{fill:var(--ce)}}.c.cr{fill:var(--c1);animation-name:cr}@keyframes cs{18.79%{fill:var(--c1)}18.81%,100%{fill:var(--ce)}}.c.cs{fill:var(--c1);animation-name:cs}@keyframes ct{18.06%{fill:var(--c1)}18.08%,100%{fill:var(--ce)}}.c.ct{fill:var(--c1);animation-name:ct}@keyframes cu{16.86%{fill:var(--c1)}16.88%,100%{fill:var(--ce)}}.c.cu{fill:var(--c1);animation-name:cu}@keyframes cv{32.52%{fill:var(--c1)}32.54%,100%{fill:var(--ce)}}.c.cv{fill:var(--c1);animation-name:cv}@keyframes cw{81.44%{fill:var(--c4)}81.46%,100%{fill:var(--ce)}}.c.cw{fill:var(--c4);animation-name:cw}@keyframes cx{17.58%{fill:var(--c1)}17.6%,100%{fill:var(--ce)}}.c.cx{fill:var(--c1);animation-name:cx}@keyframes cy{20.95%{fill:var(--c1)}20.97%,100%{fill:var(--ce)}}.c.cy{fill:var(--c1);animation-name:cy}@keyframes cz{55.65%{fill:var(--c2)}55.67%,100%{fill:var(--ce)}}.c.cz{fill:var(--c2);animation-name:cz}@keyframes c10{29.15%{fill:var(--c1)}29.17%,100%{fill:var(--ce)}}.c.c10{fill:var(--c1);animation-name:c10}@keyframes c11{22.64%{fill:var(--c1)}22.66%,100%{fill:var(--ce)}}.c.c11{fill:var(--c1);animation-name:c11}@keyframes c12{22.88%{fill:var(--c1)}22.9%,100%{fill:var(--ce)}}.c.c12{fill:var(--c1);animation-name:c12}@keyframes c13{29.39%{fill:var(--c1)}29.41%,100%{fill:var(--ce)}}.c.c13{fill:var(--c1);animation-name:c13}@keyframes c14{58.06%{fill:var(--c2)}58.08%,100%{fill:var(--ce)}}.c.c14{fill:var(--c2);animation-name:c14}@keyframes c15{58.54%{fill:var(--c2)}58.56%,100%{fill:var(--ce)}}.c.c15{fill:var(--c2);animation-name:c15}@keyframes c16{59.51%{fill:var(--c3)}59.53%,100%{fill:var(--ce)}}.c.c16{fill:var(--c3);animation-name:c16}@keyframes c17{27.94%{fill:var(--c1)}27.96%,100%{fill:var(--ce)}}.c.c17{fill:var(--c1);animation-name:c17}@keyframes c18{26.26%{fill:var(--c1)}26.28%,100%{fill:var(--ce)}}.c.c18{fill:var(--c1);animation-name:c18}@keyframes c19{26.5%{fill:var(--c1)}26.52%,100%{fill:var(--ce)}}.c.c19{fill:var(--c1);animation-name:c19}@keyframes c1a{86.5%{fill:var(--c4)}86.52%,100%{fill:var(--ce)}}.c.c1a{fill:var(--c4);animation-name:c1a}@keyframes c1b{23.6%{fill:var(--c1)}23.62%,100%{fill:var(--ce)}}.c.c1b{fill:var(--c1);animation-name:c1b}@keyframes c1c{24.81%{fill:var(--c1)}24.83%,100%{fill:var(--ce)}}.c.c1c{fill:var(--c1);animation-name:c1c}@keyframes c1d{24.57%{fill:var(--c1)}24.59%,100%{fill:var(--ce)}}.c.c1d{fill:var(--c1);animation-name:c1d}@keyframes c1e{24.33%{fill:var(--c1)}24.35%,100%{fill:var(--ce)}}.c.c1e{fill:var(--c1);animation-name:c1e}@keyframes c1f{23.85%{fill:var(--c1)}23.87%,100%{fill:var(--ce)}}.c.c1f{fill:var(--c1);animation-name:c1f}@keyframes c1g{25.29%{fill:var(--c1)}25.31%,100%{fill:var(--ce)}}.c.c1g{fill:var(--c1);animation-name:c1g}@keyframes c1h{25.05%{fill:var(--c1)}25.07%,100%{fill:var(--ce)}}.c.c1h{fill:var(--c1);animation-name:c1h}@keyframes c1i{85.53%{fill:var(--c4)}85.55%,100%{fill:var(--ce)}}.c.c1i{fill:var(--c4);animation-name:c1i}.u{transform-origin:0 0;transform:scale(0,1);animation:none linear 41500ms infinite}@keyframes u0{0.95%{transform:scale(0.000,1)}0.97%,1.44%{transform:scale(0.025,1)}1.46%,4.09%{transform:scale(0.050,1)}4.11%,5.77%{transform:scale(0.075,1)}5.79%,6.5%{transform:scale(0.100,1)}6.52%,6.74%{transform:scale(0.125,1)}6.76%,7.22%{transform:scale(0.150,1)}7.24%,7.46%{transform:scale(0.175,1)}7.48%,8.66%{transform:scale(0.200,1)}8.68%,9.63%{transform:scale(0.225,1)}9.65%,9.87%{transform:scale(0.250,1)}9.89%,11.8%{transform:scale(0.275,1)}11.82%,12.04%{transform:scale(0.300,1)}12.06%,12.76%{transform:scale(0.325,1)}12.78%,13.24%{transform:scale(0.350,1)}13.26%,14.21%{transform:scale(0.375,1)}14.23%,14.69%{transform:scale(0.400,1)}14.71%,14.93%{transform:scale(0.425,1)}14.95%,15.17%{transform:scale(0.450,1)}15.19%,16.86%{transform:scale(0.475,1)}16.88%,17.58%{transform:scale(0.500,1)}17.6%,18.06%{transform:scale(0.525,1)}18.08%,18.3%{transform:scale(0.550,1)}18.32%,18.79%{transform:scale(0.575,1)}18.81%,20.95%{transform:scale(0.600,1)}20.97%,22.64%{transform:scale(0.625,1)}22.66%,22.88%{transform:scale(0.650,1)}22.9%,23.6%{transform:scale(0.675,1)}23.62%,23.85%{transform:scale(0.700,1)}23.87%,24.33%{transform:scale(0.725,1)}24.35%,24.57%{transform:scale(0.750,1)}24.59%,24.81%{transform:scale(0.775,1)}24.83%,25.05%{transform:scale(0.800,1)}25.07%,25.29%{transform:scale(0.825,1)}25.31%,26.26%{transform:scale(0.850,1)}26.28%,26.5%{transform:scale(0.875,1)}26.52%,27.94%{transform:scale(0.900,1)}27.96%,29.15%{transform:scale(0.925,1)}29.17%,29.39%{transform:scale(0.950,1)}29.41%,32.52%{transform:scale(0.975,1)}32.54%,100%{transform:scale(1.000,1)}}.u.u0{fill:var(--c1);animation-name:u0;transform-origin:0.0px 0}@keyframes u1{35.17%{transform:scale(0.000,1)}35.19%,36.86%{transform:scale(0.125,1)}36.88%,40.95%{transform:scale(0.250,1)}40.97%,42.4%{transform:scale(0.375,1)}42.42%,45.29%{transform:scale(0.500,1)}45.31%,55.65%{transform:scale(0.625,1)}55.67%,58.06%{transform:scale(0.750,1)}58.08%,58.54%{transform:scale(0.875,1)}58.56%,100%{transform:scale(1.000,1)}}.u.u1{fill:var(--c2);animation-name:u1;transform-origin:616.7px 0}@keyframes u2{59.51%{transform:scale(0.000,1)}59.53%,67.7%{transform:scale(0.333,1)}67.72%,71.56%{transform:scale(0.667,1)}71.58%,100%{transform:scale(1.000,1)}}.u.u2{fill:var(--c3);animation-name:u2;transform-origin:740.1px 0}@keyframes u3{74.45%{transform:scale(0.000,1)}74.47%,81.44%{transform:scale(0.250,1)}81.46%,85.53%{transform:scale(0.500,1)}85.55%,86.5%{transform:scale(0.750,1)}86.52%,100%{transform:scale(1.000,1)}}.u.u3{fill:var(--c4);animation-name:u3;transform-origin:786.3px 0}.s{shape-rendering:geometricPrecision;fill:var(--cs);animation:none linear 41500ms infinite}@keyframes s0{0%,99.76%{transform:translate(0px,-16px)}0.24%{transform:translate(0px,0px)}0.48%{transform:translate(16px,0px)}0.96%{transform:translate(16px,32px)}1.2%{transform:translate(0px,32px)}1.45%{transform:translate(0px,48px)}3.37%{transform:translate(128px,48px)}4.1%{transform:translate(128px,96px)}4.82%{transform:translate(176px,96px)}5.78%{transform:translate(176px,32px)}6.27%{transform:translate(208px,32px)}6.75%{transform:translate(208px,0px)}7.23%{transform:translate(240px,0px)}7.47%{transform:translate(240px,16px)}7.71%{transform:translate(256px,16px)}8.43%{transform:translate(256px,64px)}8.67%{transform:translate(240px,64px)}8.92%{transform:translate(240px,80px)}9.64%{transform:translate(288px,80px)}9.88%{transform:translate(288px,64px)}11.57%{transform:translate(400px,64px)}11.81%{transform:translate(400px,48px)}12.29%{transform:translate(432px,48px)}12.77%{transform:translate(432px,80px)}13.25%,35.42%{transform:translate(464px,80px)}13.49%{transform:translate(464px,64px)}13.98%{transform:translate(496px,64px)}14.94%{transform:translate(496px,0px)}15.18%,33.98%{transform:translate(480px,0px)}15.42%{transform:translate(480px,16px)}16.63%{transform:translate(560px,16px)}16.87%{transform:translate(560px,32px)}17.11%{transform:translate(576px,32px)}17.59%{transform:translate(576px,64px)}18.31%{transform:translate(528px,64px)}18.8%{transform:translate(528px,96px)}20.48%{transform:translate(640px,96px)}20.96%{transform:translate(640px,64px)}22.65%{transform:translate(752px,64px)}22.89%{transform:translate(752px,80px)}23.86%,27.23%{transform:translate(816px,80px)}24.82%{transform:translate(816px,16px)}25.06%,85.3%{transform:translate(832px,16px)}25.3%{transform:translate(832px,0px)}25.78%{transform:translate(800px,0px)}26.51%{transform:translate(800px,48px)}26.75%{transform:translate(816px,48px)}27.71%{transform:translate(784px,80px)}27.95%{transform:translate(784px,64px)}28.19%{transform:translate(768px,64px)}28.43%{transform:translate(768px,48px)}28.67%{transform:translate(752px,48px)}29.16%{transform:translate(752px,16px)}29.4%{transform:translate(768px,16px)}29.64%{transform:translate(768px,0px)}35.18%{transform:translate(480px,80px)}36.14%{transform:translate(464px,32px)}36.87%{transform:translate(416px,32px)}37.35%{transform:translate(416px,0px)}40.96%{transform:translate(176px,0px)}41.2%{transform:translate(176px,16px)}41.45%{transform:translate(192px,16px)}42.41%,74.22%{transform:translate(192px,80px)}42.65%{transform:translate(176px,80px)}42.89%{transform:translate(176px,64px)}45.3%{transform:translate(16px,64px)}45.54%,71.08%{transform:translate(16px,48px)}48.67%{transform:translate(224px,48px)}48.92%{transform:translate(224px,64px)}55.42%{transform:translate(656px,64px)}55.66%{transform:translate(656px,80px)}57.35%{transform:translate(768px,80px)}58.07%{transform:translate(768px,32px)}58.31%,59.28%{transform:translate(784px,32px)}58.55%{transform:translate(784px,16px)}58.8%{transform:translate(800px,16px)}59.04%,86.02%{transform:translate(800px,32px)}59.52%{transform:translate(784px,48px)}71.57%{transform:translate(16px,80px)}74.46%{transform:translate(192px,96px)}80.24%{transform:translate(576px,96px)}81.45%{transform:translate(576px,16px)}85.54%{transform:translate(832px,32px)}86.51%{transform:translate(800px,64px)}97.83%{transform:translate(48px,64px)}99.04%{transform:translate(48px,-16px)}}.s.s0{transform:translate(0px,-16px);animation-name:s0}@keyframes s1{0%,99.76%{transform:translate(16px,-16px)}0.24%{transform:translate(0px,-16px)}0.48%{transform:translate(0px,0px)}0.72%{transform:translate(16px,0px)}1.2%{transform:translate(16px,32px)}1.45%{transform:translate(0px,32px)}1.69%{transform:translate(0px,48px)}3.61%{transform:translate(128px,48px)}4.34%{transform:translate(128px,96px)}5.06%{transform:translate(176px,96px)}6.02%{transform:translate(176px,32px)}6.51%{transform:translate(208px,32px)}6.99%{transform:translate(208px,0px)}7.47%{transform:translate(240px,0px)}7.71%{transform:translate(240px,16px)}7.95%{transform:translate(256px,16px)}8.67%{transform:translate(256px,64px)}8.92%{transform:translate(240px,64px)}9.16%{transform:translate(240px,80px)}9.88%{transform:translate(288px,80px)}10.12%{transform:translate(288px,64px)}11.81%{transform:translate(400px,64px)}12.05%{transform:translate(400px,48px)}12.53%{transform:translate(432px,48px)}13.01%{transform:translate(432px,80px)}13.49%,35.66%{transform:translate(464px,80px)}13.73%{transform:translate(464px,64px)}14.22%{transform:translate(496px,64px)}15.18%{transform:translate(496px,0px)}15.42%,34.22%{transform:translate(480px,0px)}15.66%{transform:translate(480px,16px)}16.87%{transform:translate(560px,16px)}17.11%{transform:translate(560px,32px)}17.35%{transform:translate(576px,32px)}17.83%{transform:translate(576px,64px)}18.55%{transform:translate(528px,64px)}19.04%{transform:translate(528px,96px)}20.72%{transform:translate(640px,96px)}21.2%{transform:translate(640px,64px)}22.89%{transform:translate(752px,64px)}23.13%{transform:translate(752px,80px)}24.1%,27.47%{transform:translate(816px,80px)}25.06%{transform:translate(816px,16px)}25.3%,85.54%{transform:translate(832px,16px)}25.54%{transform:translate(832px,0px)}26.02%{transform:translate(800px,0px)}26.75%{transform:translate(800px,48px)}26.99%{transform:translate(816px,48px)}27.95%{transform:translate(784px,80px)}28.19%{transform:translate(784px,64px)}28.43%{transform:translate(768px,64px)}28.67%{transform:translate(768px,48px)}28.92%{transform:translate(752px,48px)}29.4%{transform:translate(752px,16px)}29.64%{transform:translate(768px,16px)}29.88%{transform:translate(768px,0px)}35.42%{transform:translate(480px,80px)}36.39%{transform:translate(464px,32px)}37.11%{transform:translate(416px,32px)}37.59%{transform:translate(416px,0px)}41.2%{transform:translate(176px,0px)}41.45%{transform:translate(176px,16px)}41.69%{transform:translate(192px,16px)}42.65%,74.46%{transform:translate(192px,80px)}42.89%{transform:translate(176px,80px)}43.13%{transform:translate(176px,64px)}45.54%{transform:translate(16px,64px)}45.78%,71.33%{transform:translate(16px,48px)}48.92%{transform:translate(224px,48px)}49.16%{transform:translate(224px,64px)}55.66%{transform:translate(656px,64px)}55.9%{transform:translate(656px,80px)}57.59%{transform:translate(768px,80px)}58.31%{transform:translate(768px,32px)}58.55%,59.52%{transform:translate(784px,32px)}58.8%{transform:translate(784px,16px)}59.04%{transform:translate(800px,16px)}59.28%,86.27%{transform:translate(800px,32px)}59.76%{transform:translate(784px,48px)}71.81%{transform:translate(16px,80px)}74.7%{transform:translate(192px,96px)}80.48%{transform:translate(576px,96px)}81.69%{transform:translate(576px,16px)}85.78%{transform:translate(832px,32px)}86.75%{transform:translate(800px,64px)}98.07%{transform:translate(48px,64px)}99.28%{transform:translate(48px,-16px)}}.s.s1{transform:translate(16px,-16px);animation-name:s1}@keyframes s2{0%,99.76%{transform:translate(32px,-16px)}0.48%{transform:translate(0px,-16px)}0.72%{transform:translate(0px,0px)}0.96%{transform:translate(16px,0px)}1.45%{transform:translate(16px,32px)}1.69%{transform:translate(0px,32px)}1.93%{transform:translate(0px,48px)}3.86%{transform:translate(128px,48px)}4.58%{transform:translate(128px,96px)}5.3%{transform:translate(176px,96px)}6.27%{transform:translate(176px,32px)}6.75%{transform:translate(208px,32px)}7.23%{transform:translate(208px,0px)}7.71%{transform:translate(240px,0px)}7.95%{transform:translate(240px,16px)}8.19%{transform:translate(256px,16px)}8.92%{transform:translate(256px,64px)}9.16%{transform:translate(240px,64px)}9.4%{transform:translate(240px,80px)}10.12%{transform:translate(288px,80px)}10.36%{transform:translate(288px,64px)}12.05%{transform:translate(400px,64px)}12.29%{transform:translate(400px,48px)}12.77%{transform:translate(432px,48px)}13.25%{transform:translate(432px,80px)}13.73%,35.9%{transform:translate(464px,80px)}13.98%{transform:translate(464px,64px)}14.46%{transform:translate(496px,64px)}15.42%{transform:translate(496px,0px)}15.66%,34.46%{transform:translate(480px,0px)}15.9%{transform:translate(480px,16px)}17.11%{transform:translate(560px,16px)}17.35%{transform:translate(560px,32px)}17.59%{transform:translate(576px,32px)}18.07%{transform:translate(576px,64px)}18.8%{transform:translate(528px,64px)}19.28%{transform:translate(528px,96px)}20.96%{transform:translate(640px,96px)}21.45%{transform:translate(640px,64px)}23.13%{transform:translate(752px,64px)}23.37%{transform:translate(752px,80px)}24.34%,27.71%{transform:translate(816px,80px)}25.3%{transform:translate(816px,16px)}25.54%,85.78%{transform:translate(832px,16px)}25.78%{transform:translate(832px,0px)}26.27%{transform:translate(800px,0px)}26.99%{transform:translate(800px,48px)}27.23%{transform:translate(816px,48px)}28.19%{transform:translate(784px,80px)}28.43%{transform:translate(784px,64px)}28.67%{transform:translate(768px,64px)}28.92%{transform:translate(768px,48px)}29.16%{transform:translate(752px,48px)}29.64%{transform:translate(752px,16px)}29.88%{transform:translate(768px,16px)}30.12%{transform:translate(768px,0px)}35.66%{transform:translate(480px,80px)}36.63%{transform:translate(464px,32px)}37.35%{transform:translate(416px,32px)}37.83%{transform:translate(416px,0px)}41.45%{transform:translate(176px,0px)}41.69%{transform:translate(176px,16px)}41.93%{transform:translate(192px,16px)}42.89%,74.7%{transform:translate(192px,80px)}43.13%{transform:translate(176px,80px)}43.37%{transform:translate(176px,64px)}45.78%{transform:translate(16px,64px)}46.02%,71.57%{transform:translate(16px,48px)}49.16%{transform:translate(224px,48px)}49.4%{transform:translate(224px,64px)}55.9%{transform:translate(656px,64px)}56.14%{transform:translate(656px,80px)}57.83%{transform:translate(768px,80px)}58.55%{transform:translate(768px,32px)}58.8%,59.76%{transform:translate(784px,32px)}59.04%{transform:translate(784px,16px)}59.28%{transform:translate(800px,16px)}59.52%,86.51%{transform:translate(800px,32px)}60%{transform:translate(784px,48px)}72.05%{transform:translate(16px,80px)}74.94%{transform:translate(192px,96px)}80.72%{transform:translate(576px,96px)}81.93%{transform:translate(576px,16px)}86.02%{transform:translate(832px,32px)}86.99%{transform:translate(800px,64px)}98.31%{transform:translate(48px,64px)}99.52%{transform:translate(48px,-16px)}}.s.s2{transform:translate(32px,-16px);animation-name:s2}@keyframes s3{0%,99.76%{transform:translate(48px,-16px)}0.72%{transform:translate(0px,-16px)}0.96%{transform:translate(0px,0px)}1.2%{transform:translate(16px,0px)}1.69%{transform:translate(16px,32px)}1.93%{transform:translate(0px,32px)}2.17%{transform:translate(0px,48px)}4.1%{transform:translate(128px,48px)}4.82%{transform:translate(128px,96px)}5.54%{transform:translate(176px,96px)}6.51%{transform:translate(176px,32px)}6.99%{transform:translate(208px,32px)}7.47%{transform:translate(208px,0px)}7.95%{transform:translate(240px,0px)}8.19%{transform:translate(240px,16px)}8.43%{transform:translate(256px,16px)}9.16%{transform:translate(256px,64px)}9.4%{transform:translate(240px,64px)}9.64%{transform:translate(240px,80px)}10.36%{transform:translate(288px,80px)}10.6%{transform:translate(288px,64px)}12.29%{transform:translate(400px,64px)}12.53%{transform:translate(400px,48px)}13.01%{transform:translate(432px,48px)}13.49%{transform:translate(432px,80px)}13.98%,36.14%{transform:translate(464px,80px)}14.22%{transform:translate(464px,64px)}14.7%{transform:translate(496px,64px)}15.66%{transform:translate(496px,0px)}15.9%,34.7%{transform:translate(480px,0px)}16.14%{transform:translate(480px,16px)}17.35%{transform:translate(560px,16px)}17.59%{transform:translate(560px,32px)}17.83%{transform:translate(576px,32px)}18.31%{transform:translate(576px,64px)}19.04%{transform:translate(528px,64px)}19.52%{transform:translate(528px,96px)}21.2%{transform:translate(640px,96px)}21.69%{transform:translate(640px,64px)}23.37%{transform:translate(752px,64px)}23.61%{transform:translate(752px,80px)}24.58%,27.95%{transform:translate(816px,80px)}25.54%{transform:translate(816px,16px)}25.78%,86.02%{transform:translate(832px,16px)}26.02%{transform:translate(832px,0px)}26.51%{transform:translate(800px,0px)}27.23%{transform:translate(800px,48px)}27.47%{transform:translate(816px,48px)}28.43%{transform:translate(784px,80px)}28.67%{transform:translate(784px,64px)}28.92%{transform:translate(768px,64px)}29.16%{transform:translate(768px,48px)}29.4%{transform:translate(752px,48px)}29.88%{transform:translate(752px,16px)}30.12%{transform:translate(768px,16px)}30.36%{transform:translate(768px,0px)}35.9%{transform:translate(480px,80px)}36.87%{transform:translate(464px,32px)}37.59%{transform:translate(416px,32px)}38.07%{transform:translate(416px,0px)}41.69%{transform:translate(176px,0px)}41.93%{transform:translate(176px,16px)}42.17%{transform:translate(192px,16px)}43.13%,74.94%{transform:translate(192px,80px)}43.37%{transform:translate(176px,80px)}43.61%{transform:translate(176px,64px)}46.02%{transform:translate(16px,64px)}46.27%,71.81%{transform:translate(16px,48px)}49.4%{transform:translate(224px,48px)}49.64%{transform:translate(224px,64px)}56.14%{transform:translate(656px,64px)}56.39%{transform:translate(656px,80px)}58.07%{transform:translate(768px,80px)}58.8%{transform:translate(768px,32px)}59.04%,60%{transform:translate(784px,32px)}59.28%{transform:translate(784px,16px)}59.52%{transform:translate(800px,16px)}59.76%,86.75%{transform:translate(800px,32px)}60.24%{transform:translate(784px,48px)}72.29%{transform:translate(16px,80px)}75.18%{transform:translate(192px,96px)}80.96%{transform:translate(576px,96px)}82.17%{transform:translate(576px,16px)}86.27%{transform:translate(832px,32px)}87.23%{transform:translate(800px,64px)}98.55%{transform:translate(48px,64px)}}.s.s3{transform:translate(48px,-16px);animation-name:s3}</style><rect class="c" x="2" y="2" rx="2" ry="2"/><rect class="c" x="2" y="18" rx="2" ry="2"/><rect class="c" x="2" y="34" rx="2" ry="2"/><rect class="c c0" x="2" y="50" rx="2" ry="2"/><rect class="c" x="2" y="66" rx="2" ry="2"/><rect class="c" x="2" y="82" rx="2" ry="2"/><rect class="c" x="2" y="98" rx="2" ry="2"/><rect class="c" x="18" y="2" rx="2" ry="2"/><rect class="c" x="18" y="18" rx="2" ry="2"/><rect class="c c1" x="18" y="34" rx="2" ry="2"/><rect class="c" x="18" y="50" rx="2" ry="2"/><rect class="c c2" x="18" y="66" rx="2" ry="2"/><rect class="c c3" x="18" y="82" rx="2" ry="2"/><rect class="c" x="18" y="98" rx="2" ry="2"/><rect class="c" x="34" y="2" rx="2" ry="2"/><rect class="c" x="34" y="18" rx="2" ry="2"/><rect class="c" x="34" y="34" rx="2" ry="2"/><rect class="c" x="34" y="50" rx="2" ry="2"/><rect class="c" x="34" y="66" rx="2" ry="2"/><rect class="c" x="34" y="82" rx="2" ry="2"/><rect class="c" x="34" y="98" rx="2" ry="2"/><rect class="c" x="50" y="2" rx="2" ry="2"/><rect class="c" x="50" y="18" rx="2" ry="2"/><rect class="c" x="50" y="34" rx="2" ry="2"/><rect class="c" x="50" y="50" rx="2" ry="2"/><rect class="c" x="50" y="66" rx="2" ry="2"/><rect class="c" x="50" y="82" rx="2" ry="2"/><rect class="c" x="50" y="98" rx="2" ry="2"/><rect class="c" x="66" y="2" rx="2" ry="2"/><rect class="c" x="66" y="18" rx="2" ry="2"/><rect class="c" x="66" y="34" rx="2" ry="2"/><rect class="c" x="66" y="50" rx="2" ry="2"/><rect class="c" x="66" y="66" rx="2" ry="2"/><rect class="c" x="66" y="82" rx="2" ry="2"/><rect class="c" x="66" y="98" rx="2" ry="2"/><rect class="c" x="82" y="2" rx="2" ry="2"/><rect class="c" x="82" y="18" rx="2" ry="2"/><rect class="c" x="82" y="34" rx="2" ry="2"/><rect class="c" x="82" y="50" rx="2" ry="2"/><rect class="c" x="82" y="66" rx="2" ry="2"/><rect class="c" x="82" y="82" rx="2" ry="2"/><rect class="c" x="82" y="98" rx="2" ry="2"/><rect class="c" x="98" y="2" rx="2" ry="2"/><rect class="c" x="98" y="18" rx="2" ry="2"/><rect class="c" x="98" y="34" rx="2" ry="2"/><rect class="c" x="98" y="50" rx="2" ry="2"/><rect class="c" x="98" y="66" rx="2" ry="2"/><rect class="c" x="98" y="82" rx="2" ry="2"/><rect class="c" x="98" y="98" rx="2" ry="2"/><rect class="c" x="114" y="2" rx="2" ry="2"/><rect class="c" x="114" y="18" rx="2" ry="2"/><rect class="c" x="114" y="34" rx="2" ry="2"/><rect class="c" x="114" y="50" rx="2" ry="2"/><rect class="c" x="114" y="66" rx="2" ry="2"/><rect class="c" x="114" y="82" rx="2" ry="2"/><rect class="c" x="114" y="98" rx="2" ry="2"/><rect class="c" x="130" y="2" rx="2" ry="2"/><rect class="c" x="130" y="18" rx="2" ry="2"/><rect class="c" x="130" y="34" rx="2" ry="2"/><rect class="c" x="130" y="50" rx="2" ry="2"/><rect class="c" x="130" y="66" rx="2" ry="2"/><rect class="c" x="130" y="82" rx="2" ry="2"/><rect class="c c4" x="130" y="98" rx="2" ry="2"/><rect class="c" x="146" y="2" rx="2" ry="2"/><rect class="c" x="146" y="18" rx="2" ry="2"/><rect class="c" x="146" y="34" rx="2" ry="2"/><rect class="c" x="146" y="50" rx="2" ry="2"/><rect class="c" x="146" y="66" rx="2" ry="2"/><rect class="c" x="146" y="82" rx="2" ry="2"/><rect class="c" x="146" y="98" rx="2" ry="2"/><rect class="c" x="162" y="2" rx="2" ry="2"/><rect class="c" x="162" y="18" rx="2" ry="2"/><rect class="c" x="162" y="34" rx="2" ry="2"/><rect class="c" x="162" y="50" rx="2" ry="2"/><rect class="c" x="162" y="66" rx="2" ry="2"/><rect class="c" x="162" y="82" rx="2" ry="2"/><rect class="c" x="162" y="98" rx="2" ry="2"/><rect class="c c5" x="178" y="2" rx="2" ry="2"/><rect class="c" x="178" y="18" rx="2" ry="2"/><rect class="c c6" x="178" y="34" rx="2" ry="2"/><rect class="c" x="178" y="50" rx="2" ry="2"/><rect class="c" x="178" y="66" rx="2" ry="2"/><rect class="c" x="178" y="82" rx="2" ry="2"/><rect class="c" x="178" y="98" rx="2" ry="2"/><rect class="c" x="194" y="2" rx="2" ry="2"/><rect class="c" x="194" y="18" rx="2" ry="2"/><rect class="c" x="194" y="34" rx="2" ry="2"/><rect class="c" x="194" y="50" rx="2" ry="2"/><rect class="c" x="194" y="66" rx="2" ry="2"/><rect class="c c7" x="194" y="82" rx="2" ry="2"/><rect class="c c8" x="194" y="98" rx="2" ry="2"/><rect class="c c9" x="210" y="2" rx="2" ry="2"/><rect class="c ca" x="210" y="18" rx="2" ry="2"/><rect class="c" x="210" y="34" rx="2" ry="2"/><rect class="c" x="210" y="50" rx="2" ry="2"/><rect class="c" x="210" y="66" rx="2" ry="2"/><rect class="c" x="210" y="82" rx="2" ry="2"/><rect class="c" x="210" y="98" rx="2" ry="2"/><rect class="c" x="226" y="2" rx="2" ry="2"/><rect class="c" x="226" y="18" rx="2" ry="2"/><rect class="c" x="226" y="34" rx="2" ry="2"/><rect class="c" x="226" y="50" rx="2" ry="2"/><rect class="c" x="226" y="66" rx="2" ry="2"/><rect class="c" x="226" y="82" rx="2" ry="2"/><rect class="c" x="226" y="98" rx="2" ry="2"/><rect class="c cb" x="242" y="2" rx="2" ry="2"/><rect class="c cc" x="242" y="18" rx="2" ry="2"/><rect class="c" x="242" y="34" rx="2" ry="2"/><rect class="c cd" x="242" y="50" rx="2" ry="2"/><rect class="c ce" x="242" y="66" rx="2" ry="2"/><rect class="c" x="242" y="82" rx="2" ry="2"/><rect class="c" x="242" y="98" rx="2" ry="2"/><rect class="c" x="258" y="2" rx="2" ry="2"/><rect class="c" x="258" y="18" rx="2" ry="2"/><rect class="c" x="258" y="34" rx="2" ry="2"/><rect class="c" x="258" y="50" rx="2" ry="2"/><rect class="c" x="258" y="66" rx="2" ry="2"/><rect class="c" x="258" y="82" rx="2" ry="2"/><rect class="c" x="258" y="98" rx="2" ry="2"/><rect class="c" x="274" y="2" rx="2" ry="2"/><rect class="c" x="274" y="18" rx="2" ry="2"/><rect class="c" x="274" y="34" rx="2" ry="2"/><rect class="c" x="274" y="50" rx="2" ry="2"/><rect class="c" x="274" y="66" rx="2" ry="2"/><rect class="c" x="274" y="82" rx="2" ry="2"/><rect class="c" x="274" y="98" rx="2" ry="2"/><rect class="c" x="290" y="2" rx="2" ry="2"/><rect class="c" x="290" y="18" rx="2" ry="2"/><rect class="c" x="290" y="34" rx="2" ry="2"/><rect class="c" x="290" y="50" rx="2" ry="2"/><rect class="c cf" x="290" y="66" rx="2" ry="2"/><rect class="c cg" x="290" y="82" rx="2" ry="2"/><rect class="c" x="290" y="98" rx="2" ry="2"/><rect class="c" x="306" y="2" rx="2" ry="2"/><rect class="c" x="306" y="18" rx="2" ry="2"/><rect class="c" x="306" y="34" rx="2" ry="2"/><rect class="c" x="306" y="50" rx="2" ry="2"/><rect class="c" x="306" y="66" rx="2" ry="2"/><rect class="c" x="306" y="82" rx="2" ry="2"/><rect class="c" x="306" y="98" rx="2" ry="2"/><rect class="c" x="322" y="2" rx="2" ry="2"/><rect class="c" x="322" y="18" rx="2" ry="2"/><rect class="c" x="322" y="34" rx="2" ry="2"/><rect class="c" x="322" y="50" rx="2" ry="2"/><rect class="c" x="322" y="66" rx="2" ry="2"/><rect class="c" x="322" y="82" rx="2" ry="2"/><rect class="c" x="322" y="98" rx="2" ry="2"/><rect class="c" x="338" y="2" rx="2" ry="2"/><rect class="c" x="338" y="18" rx="2" ry="2"/><rect class="c" x="338" y="34" rx="2" ry="2"/><rect class="c" x="338" y="50" rx="2" ry="2"/><rect class="c" x="338" y="66" rx="2" ry="2"/><rect class="c" x="338" y="82" rx="2" ry="2"/><rect class="c" x="338" y="98" rx="2" ry="2"/><rect class="c" x="354" y="2" rx="2" ry="2"/><rect class="c" x="354" y="18" rx="2" ry="2"/><rect class="c" x="354" y="34" rx="2" ry="2"/><rect class="c" x="354" y="50" rx="2" ry="2"/><rect class="c" x="354" y="66" rx="2" ry="2"/><rect class="c" x="354" y="82" rx="2" ry="2"/><rect class="c" x="354" y="98" rx="2" ry="2"/><rect class="c" x="370" y="2" rx="2" ry="2"/><rect class="c" x="370" y="18" rx="2" ry="2"/><rect class="c" x="370" y="34" rx="2" ry="2"/><rect class="c" x="370" y="50" rx="2" ry="2"/><rect class="c" x="370" y="66" rx="2" ry="2"/><rect class="c" x="370" y="82" rx="2" ry="2"/><rect class="c" x="370" y="98" rx="2" ry="2"/><rect class="c" x="386" y="2" rx="2" ry="2"/><rect class="c" x="386" y="18" rx="2" ry="2"/><rect class="c" x="386" y="34" rx="2" ry="2"/><rect class="c" x="386" y="50" rx="2" ry="2"/><rect class="c" x="386" y="66" rx="2" ry="2"/><rect class="c" x="386" y="82" rx="2" ry="2"/><rect class="c" x="386" y="98" rx="2" ry="2"/><rect class="c" x="402" y="2" rx="2" ry="2"/><rect class="c" x="402" y="18" rx="2" ry="2"/><rect class="c" x="402" y="34" rx="2" ry="2"/><rect class="c ch" x="402" y="50" rx="2" ry="2"/><rect class="c" x="402" y="66" rx="2" ry="2"/><rect class="c" x="402" y="82" rx="2" ry="2"/><rect class="c" x="402" y="98" rx="2" ry="2"/><rect class="c" x="418" y="2" rx="2" ry="2"/><rect class="c" x="418" y="18" rx="2" ry="2"/><rect class="c ci" x="418" y="34" rx="2" ry="2"/><rect class="c cj" x="418" y="50" rx="2" ry="2"/><rect class="c" x="418" y="66" rx="2" ry="2"/><rect class="c" x="418" y="82" rx="2" ry="2"/><rect class="c" x="418" y="98" rx="2" ry="2"/><rect class="c" x="434" y="2" rx="2" ry="2"/><rect class="c" x="434" y="18" rx="2" ry="2"/><rect class="c" x="434" y="34" rx="2" ry="2"/><rect class="c" x="434" y="50" rx="2" ry="2"/><rect class="c" x="434" y="66" rx="2" ry="2"/><rect class="c ck" x="434" y="82" rx="2" ry="2"/><rect class="c" x="434" y="98" rx="2" ry="2"/><rect class="c" x="450" y="2" rx="2" ry="2"/><rect class="c" x="450" y="18" rx="2" ry="2"/><rect class="c" x="450" y="34" rx="2" ry="2"/><rect class="c" x="450" y="50" rx="2" ry="2"/><rect class="c" x="450" y="66" rx="2" ry="2"/><rect class="c" x="450" y="82" rx="2" ry="2"/><rect class="c" x="450" y="98" rx="2" ry="2"/><rect class="c" x="466" y="2" rx="2" ry="2"/><rect class="c" x="466" y="18" rx="2" ry="2"/><rect class="c" x="466" y="34" rx="2" ry="2"/><rect class="c" x="466" y="50" rx="2" ry="2"/><rect class="c" x="466" y="66" rx="2" ry="2"/><rect class="c cl" x="466" y="82" rx="2" ry="2"/><rect class="c" x="466" y="98" rx="2" ry="2"/><rect class="c cm" x="482" y="2" rx="2" ry="2"/><rect class="c" x="482" y="18" rx="2" ry="2"/><rect class="c" x="482" y="34" rx="2" ry="2"/><rect class="c" x="482" y="50" rx="2" ry="2"/><rect class="c" x="482" y="66" rx="2" ry="2"/><rect class="c cn" x="482" y="82" rx="2" ry="2"/><rect class="c" x="482" y="98" rx="2" ry="2"/><rect class="c co" x="498" y="2" rx="2" ry="2"/><rect class="c cp" x="498" y="18" rx="2" ry="2"/><rect class="c" x="498" y="34" rx="2" ry="2"/><rect class="c cq" x="498" y="50" rx="2" ry="2"/><rect class="c" x="498" y="66" rx="2" ry="2"/><rect class="c" x="498" y="82" rx="2" ry="2"/><rect class="c" x="498" y="98" rx="2" ry="2"/><rect class="c" x="514" y="2" rx="2" ry="2"/><rect class="c" x="514" y="18" rx="2" ry="2"/><rect class="c" x="514" y="34" rx="2" ry="2"/><rect class="c" x="514" y="50" rx="2" ry="2"/><rect class="c" x="514" y="66" rx="2" ry="2"/><rect class="c" x="514" y="82" rx="2" ry="2"/><rect class="c" x="514" y="98" rx="2" ry="2"/><rect class="c" x="530" y="2" rx="2" ry="2"/><rect class="c" x="530" y="18" rx="2" ry="2"/><rect class="c" x="530" y="34" rx="2" ry="2"/><rect class="c" x="530" y="50" rx="2" ry="2"/><rect class="c cr" x="530" y="66" rx="2" ry="2"/><rect class="c" x="530" y="82" rx="2" ry="2"/><rect class="c cs" x="530" y="98" rx="2" ry="2"/><rect class="c" x="546" y="2" rx="2" ry="2"/><rect class="c" x="546" y="18" rx="2" ry="2"/><rect class="c" x="546" y="34" rx="2" ry="2"/><rect class="c" x="546" y="50" rx="2" ry="2"/><rect class="c ct" x="546" y="66" rx="2" ry="2"/><rect class="c" x="546" y="82" rx="2" ry="2"/><rect class="c" x="546" y="98" rx="2" ry="2"/><rect class="c" x="562" y="2" rx="2" ry="2"/><rect class="c" x="562" y="18" rx="2" ry="2"/><rect class="c cu" x="562" y="34" rx="2" ry="2"/><rect class="c" x="562" y="50" rx="2" ry="2"/><rect class="c" x="562" y="66" rx="2" ry="2"/><rect class="c" x="562" y="82" rx="2" ry="2"/><rect class="c" x="562" y="98" rx="2" ry="2"/><rect class="c cv" x="578" y="2" rx="2" ry="2"/><rect class="c cw" x="578" y="18" rx="2" ry="2"/><rect class="c" x="578" y="34" rx="2" ry="2"/><rect class="c" x="578" y="50" rx="2" ry="2"/><rect class="c cx" x="578" y="66" rx="2" ry="2"/><rect class="c" x="578" y="82" rx="2" ry="2"/><rect class="c" x="578" y="98" rx="2" ry="2"/><rect class="c" x="594" y="2" rx="2" ry="2"/><rect class="c" x="594" y="18" rx="2" ry="2"/><rect class="c" x="594" y="34" rx="2" ry="2"/><rect class="c" x="594" y="50" rx="2" ry="2"/><rect class="c" x="594" y="66" rx="2" ry="2"/><rect class="c" x="594" y="82" rx="2" ry="2"/><rect class="c" x="594" y="98" rx="2" ry="2"/><rect class="c" x="610" y="2" rx="2" ry="2"/><rect class="c" x="610" y="18" rx="2" ry="2"/><rect class="c" x="610" y="34" rx="2" ry="2"/><rect class="c" x="610" y="50" rx="2" ry="2"/><rect class="c" x="610" y="66" rx="2" ry="2"/><rect class="c" x="610" y="82" rx="2" ry="2"/><rect class="c" x="610" y="98" rx="2" ry="2"/><rect class="c" x="626" y="2" rx="2" ry="2"/><rect class="c" x="626" y="18" rx="2" ry="2"/><rect class="c" x="626" y="34" rx="2" ry="2"/><rect class="c" x="626" y="50" rx="2" ry="2"/><rect class="c" x="626" y="66" rx="2" ry="2"/><rect class="c" x="626" y="82" rx="2" ry="2"/><rect class="c" x="626" y="98" rx="2" ry="2"/><rect class="c" x="642" y="2" rx="2" ry="2"/><rect class="c" x="642" y="18" rx="2" ry="2"/><rect class="c" x="642" y="34" rx="2" ry="2"/><rect class="c" x="642" y="50" rx="2" ry="2"/><rect class="c cy" x="642" y="66" rx="2" ry="2"/><rect class="c" x="642" y="82" rx="2" ry="2"/><rect class="c" x="642" y="98" rx="2" ry="2"/><rect class="c" x="658" y="2" rx="2" ry="2"/><rect class="c" x="658" y="18" rx="2" ry="2"/><rect class="c" x="658" y="34" rx="2" ry="2"/><rect class="c" x="658" y="50" rx="2" ry="2"/><rect class="c" x="658" y="66" rx="2" ry="2"/><rect class="c cz" x="658" y="82" rx="2" ry="2"/><rect class="c" x="658" y="98" rx="2" ry="2"/><rect class="c" x="674" y="2" rx="2" ry="2"/><rect class="c" x="674" y="18" rx="2" ry="2"/><rect class="c" x="674" y="34" rx="2" ry="2"/><rect class="c" x="674" y="50" rx="2" ry="2"/><rect class="c" x="674" y="66" rx="2" ry="2"/><rect class="c" x="674" y="82" rx="2" ry="2"/><rect class="c" x="674" y="98" rx="2" ry="2"/><rect class="c" x="690" y="2" rx="2" ry="2"/><rect class="c" x="690" y="18" rx="2" ry="2"/><rect class="c" x="690" y="34" rx="2" ry="2"/><rect class="c" x="690" y="50" rx="2" ry="2"/><rect class="c" x="690" y="66" rx="2" ry="2"/><rect class="c" x="690" y="82" rx="2" ry="2"/><rect class="c" x="690" y="98" rx="2" ry="2"/><rect class="c" x="706" y="2" rx="2" ry="2"/><rect class="c" x="706" y="18" rx="2" ry="2"/><rect class="c" x="706" y="34" rx="2" ry="2"/><rect class="c" x="706" y="50" rx="2" ry="2"/><rect class="c" x="706" y="66" rx="2" ry="2"/><rect class="c" x="706" y="82" rx="2" ry="2"/><rect class="c" x="706" y="98" rx="2" ry="2"/><rect class="c" x="722" y="2" rx="2" ry="2"/><rect class="c" x="722" y="18" rx="2" ry="2"/><rect class="c" x="722" y="34" rx="2" ry="2"/><rect class="c" x="722" y="50" rx="2" ry="2"/><rect class="c" x="722" y="66" rx="2" ry="2"/><rect class="c" x="722" y="82" rx="2" ry="2"/><rect class="c" x="722" y="98" rx="2" ry="2"/><rect class="c" x="738" y="2" rx="2" ry="2"/><rect class="c" x="738" y="18" rx="2" ry="2"/><rect class="c" x="738" y="34" rx="2" ry="2"/><rect class="c" x="738" y="50" rx="2" ry="2"/><rect class="c" x="738" y="66" rx="2" ry="2"/><rect class="c" x="738" y="82" rx="2" ry="2"/><rect class="c" x="738" y="98" rx="2" ry="2"/><rect class="c" x="754" y="2" rx="2" ry="2"/><rect class="c c10" x="754" y="18" rx="2" ry="2"/><rect class="c" x="754" y="34" rx="2" ry="2"/><rect class="c" x="754" y="50" rx="2" ry="2"/><rect class="c c11" x="754" y="66" rx="2" ry="2"/><rect class="c c12" x="754" y="82" rx="2" ry="2"/><rect class="c" x="754" y="98" rx="2" ry="2"/><rect class="c" x="770" y="2" rx="2" ry="2"/><rect class="c c13" x="770" y="18" rx="2" ry="2"/><rect class="c c14" x="770" y="34" rx="2" ry="2"/><rect class="c" x="770" y="50" rx="2" ry="2"/><rect class="c" x="770" y="66" rx="2" ry="2"/><rect class="c" x="770" y="82" rx="2" ry="2"/><rect class="c" x="770" y="98" rx="2" ry="2"/><rect class="c" x="786" y="2" rx="2" ry="2"/><rect class="c c15" x="786" y="18" rx="2" ry="2"/><rect class="c" x="786" y="34" rx="2" ry="2"/><rect class="c c16" x="786" y="50" rx="2" ry="2"/><rect class="c c17" x="786" y="66" rx="2" ry="2"/><rect class="c" x="786" y="82" rx="2" ry="2"/><rect class="c" x="786" y="98" rx="2" ry="2"/><rect class="c" x="802" y="2" rx="2" ry="2"/><rect class="c" x="802" y="18" rx="2" ry="2"/><rect class="c c18" x="802" y="34" rx="2" ry="2"/><rect class="c c19" x="802" y="50" rx="2" ry="2"/><rect class="c c1a" x="802" y="66" rx="2" ry="2"/><rect class="c c1b" x="802" y="82" rx="2" ry="2"/><rect class="c" x="802" y="98" rx="2" ry="2"/><rect class="c" x="818" y="2" rx="2" ry="2"/><rect class="c c1c" x="818" y="18" rx="2" ry="2"/><rect class="c c1d" x="818" y="34" rx="2" ry="2"/><rect class="c c1e" x="818" y="50" rx="2" ry="2"/><rect class="c" x="818" y="66" rx="2" ry="2"/><rect class="c c1f" x="818" y="82" rx="2" ry="2"/><rect class="c" x="818" y="98" rx="2" ry="2"/><rect class="c c1g" x="834" y="2" rx="2" ry="2"/><rect class="c c1h" x="834" y="18" rx="2" ry="2"/><rect class="c c1i" x="834" y="34" rx="2" ry="2"/><rect class="u u0" height="12" width="617.3" x="0.0" y="144"/><rect class="u u1" height="12" width="123.9" x="616.7" y="144"/><rect class="u u2" height="12" width="46.9" x="740.1" y="144"/><rect class="u u3" height="12" width="62.3" x="786.3" y="144"/><rect class="s s0" x="0.8" y="0.8" width="14.4" height="14.4" rx="4.5" ry="4.5"/><rect class="s s1" x="1.8" y="1.8" width="12.3" height="12.3" rx="4.1" ry="4.1"/><rect class="s s2" x="2.6" y="2.6" width="10.8" height="10.8" rx="3.6" ry="3.6"/><rect class="s s3" x="3.0" y="3.0" width="9.9" height="9.9" rx="3.3" ry="3.3"/></svg>