<svg viewBox="-16 -32 880 192" width="880" height="192" xmlns="http://www.w3.org/2000/svg"><desc>Generated with https://github.com/Platane/snk</desc><style>:root{--cb:#1b1f230a;--cs:white;--ce:#0a0e12;--c0:#0a0e12;--c1:#1445a2;--c2:#1d65ee;--c3:#1f4eff;--c4:#466dff}.c{shape-rendering:geometricPrecision;fill:var(--ce);stroke-width:1px;stroke:var(--cb);animation:none 26900ms linear infinite;width:12px;height:12px}@keyframes c0{1.85%{fill:var(--c1)}1.87%,100%{fill:var(--ce)}}.c.c0{fill:var(--c1);animation-name:c0}@keyframes c1{3.71%{fill:var(--c1)}3.73%,100%{fill:var(--ce)}}.c.c1{fill:var(--c1);animation-name:c1}@keyframes c2{2.96%{fill:var(--c1)}2.98%,100%{fill:var(--ce)}}.c.c2{fill:var(--c1);animation-name:c2}@keyframes c3{65.42%{fill:var(--c2)}65.44%,100%{fill:var(--ce)}}.c.c3{fill:var(--c2);animation-name:c3}@keyframes c4{65.79%{fill:var(--c3)}65.81%,100%{fill:var(--ce)}}.c.c4{fill:var(--c3);animation-name:c4}@keyframes c5{62.07%{fill:var(--c2)}62.09%,100%{fill:var(--ce)}}.c.c5{fill:var(--c2);animation-name:c5}@keyframes c6{57.98%{fill:var(--c2)}58%,100%{fill:var(--ce)}}.c.c6{fill:var(--c2);animation-name:c6}@keyframes c7{8.17%{fill:var(--c1)}8.19%,100%{fill:var(--ce)}}.c.c7{fill:var(--c1);animation-name:c7}@keyframes c8{60.21%{fill:var(--c2)}60.23%,100%{fill:var(--ce)}}.c.c8{fill:var(--c2);animation-name:c8}@keyframes c9{91.07%{fill:var(--c4)}91.09%,100%{fill:var(--ce)}}.c.c9{fill:var(--c4);animation-name:c9}@keyframes ca{9.66%{fill:var(--c1)}9.68%,100%{fill:var(--ce)}}.c.ca{fill:var(--c1);animation-name:ca}@keyframes cb{9.28%{fill:var(--c1)}9.3%,100%{fill:var(--ce)}}.c.cb{fill:var(--c1);animation-name:cb}@keyframes cc{10.4%{fill:var(--c1)}10.42%,100%{fill:var(--ce)}}.c.cc{fill:var(--c1);animation-name:cc}@keyframes cd{10.77%{fill:var(--c1)}10.79%,100%{fill:var(--ce)}}.c.cd{fill:var(--c1);animation-name:cd}@keyframes ce{71.74%{fill:var(--c3)}71.76%,100%{fill:var(--ce)}}.c.ce{fill:var(--c3);animation-name:ce}@keyframes cf{12.63%{fill:var(--c1)}12.65%,100%{fill:var(--ce)}}.c.cf{fill:var(--c1);animation-name:cf}@keyframes cg{14.49%{fill:var(--c1)}14.51%,100%{fill:var(--ce)}}.c.cg{fill:var(--c1);animation-name:cg}@keyframes ch{14.12%{fill:var(--c1)}14.14%,100%{fill:var(--ce)}}.c.ch{fill:var(--c1);animation-name:ch}@keyframes ci{17.46%{fill:var(--c1)}17.48%,100%{fill:var(--ce)}}.c.ci{fill:var(--c1);animation-name:ci}@keyframes cj{76.2%{fill:var(--c3)}76.22%,100%{fill:var(--ce)}}.c.cj{fill:var(--c3);animation-name:cj}@keyframes ck{17.83%{fill:var(--c1)}17.85%,100%{fill:var(--ce)}}.c.ck{fill:var(--c1);animation-name:ck}@keyframes cl{18.95%{fill:var(--c1)}18.97%,100%{fill:var(--ce)}}.c.cl{fill:var(--c1);animation-name:cl}@keyframes cm{19.69%{fill:var(--c1)}19.71%,100%{fill:var(--ce)}}.c.cm{fill:var(--c1);animation-name:cm}@keyframes cn{45.71%{fill:var(--c2)}45.73%,100%{fill:var(--ce)}}.c.cn{fill:var(--c2);animation-name:cn}@keyframes co{43.86%{fill:var(--c2)}43.88%,100%{fill:var(--ce)}}.c.co{fill:var(--c2);animation-name:co}@keyframes cp{22.29%{fill:var(--c1)}22.31%,100%{fill:var(--ce)}}.c.cp{fill:var(--c1);animation-name:cp}@keyframes cq{21.92%{fill:var(--c1)}21.94%,100%{fill:var(--ce)}}.c.cq{fill:var(--c1);animation-name:cq}@keyframes cr{21.18%{fill:var(--c1)}21.2%,100%{fill:var(--ce)}}.c.cr{fill:var(--c1);animation-name:cr}@keyframes cs{26.01%{fill:var(--c1)}26.03%,100%{fill:var(--ce)}}.c.cs{fill:var(--c1);animation-name:cs}@keyframes ct{42.37%{fill:var(--c2)}42.39%,100%{fill:var(--ce)}}.c.ct{fill:var(--c2);animation-name:ct}@keyframes cu{41.25%{fill:var(--c2)}41.27%,100%{fill:var(--ce)}}.c.cu{fill:var(--c2);animation-name:cu}@keyframes cv{24.53%{fill:var(--c1)}24.55%,100%{fill:var(--ce)}}.c.cv{fill:var(--c1);animation-name:cv}@keyframes cw{47.95%{fill:var(--c2)}47.97%,100%{fill:var(--ce)}}.c.cw{fill:var(--c2);animation-name:cw}@keyframes cx{80.29%{fill:var(--c4)}80.31%,100%{fill:var(--ce)}}.c.cx{fill:var(--c4);animation-name:cx}@keyframes cy{40.51%{fill:var(--c2)}40.53%,100%{fill:var(--ce)}}.c.cy{fill:var(--c2);animation-name:cy}@keyframes cz{29.36%{fill:var(--c1)}29.38%,100%{fill:var(--ce)}}.c.cz{fill:var(--c1);animation-name:cz}@keyframes c10{38.28%{fill:var(--c2)}38.3%,100%{fill:var(--ce)}}.c.c10{fill:var(--c2);animation-name:c10}@keyframes c11{34.56%{fill:var(--c1)}34.58%,100%{fill:var(--ce)}}.c.c11{fill:var(--c1);animation-name:c11}@keyframes c12{35.68%{fill:var(--c2)}35.7%,100%{fill:var(--ce)}}.c.c12{fill:var(--c2);animation-name:c12}@keyframes c13{32.33%{fill:var(--c1)}32.35%,100%{fill:var(--ce)}}.c.c13{fill:var(--c1);animation-name:c13}@keyframes c14{34.19%{fill:var(--c1)}34.21%,100%{fill:var(--ce)}}.c.c14{fill:var(--c1);animation-name:c14}.u{transform-origin:0 0;transform:scale(0,1);animation:none linear 26900ms infinite}@keyframes u0{1.85%{transform:scale(0.000,1)}1.87%,2.96%{transform:scale(0.042,1)}2.98%,3.71%{transform:scale(0.083,1)}3.73%,8.17%{transform:scale(0.125,1)}8.19%,9.28%{transform:scale(0.167,1)}9.3%,9.66%{transform:scale(0.208,1)}9.68%,10.4%{transform:scale(0.250,1)}10.42%,10.77%{transform:scale(0.292,1)}10.79%,12.63%{transform:scale(0.333,1)}12.65%,14.12%{transform:scale(0.375,1)}14.14%,14.49%{transform:scale(0.417,1)}14.51%,17.46%{transform:scale(0.458,1)}17.48%,17.83%{transform:scale(0.500,1)}17.85%,18.95%{transform:scale(0.542,1)}18.97%,19.69%{transform:scale(0.583,1)}19.71%,21.18%{transform:scale(0.625,1)}21.2%,21.92%{transform:scale(0.667,1)}21.94%,22.29%{transform:scale(0.708,1)}22.31%,24.53%{transform:scale(0.750,1)}24.55%,26.01%{transform:scale(0.792,1)}26.03%,29.36%{transform:scale(0.833,1)}29.38%,32.33%{transform:scale(0.875,1)}32.35%,34.19%{transform:scale(0.917,1)}34.21%,34.56%{transform:scale(0.958,1)}34.58%,100%{transform:scale(1.000,1)}}.u.u0{fill:var(--c1);animation-name:u0;transform-origin:0.0px 0}@keyframes u1{35.68%{transform:scale(0.000,1)}35.7%,38.28%{transform:scale(0.083,1)}38.3%,40.51%{transform:scale(0.167,1)}40.53%,41.25%{transform:scale(0.250,1)}41.27%,42.37%{transform:scale(0.333,1)}42.39%,43.86%{transform:scale(0.417,1)}43.88%,45.71%{transform:scale(0.500,1)}45.73%,47.95%{transform:scale(0.583,1)}47.97%,57.98%{transform:scale(0.667,1)}58%,60.21%{transform:scale(0.750,1)}60.23%,62.07%{transform:scale(0.833,1)}62.09%,65.42%{transform:scale(0.917,1)}65.44%,100%{transform:scale(1.000,1)}}.u.u1{fill:var(--c2);animation-name:u1;transform-origin:496.4px 0}@keyframes u2{65.79%{transform:scale(0.000,1)}65.81%,71.74%{transform:scale(0.333,1)}71.76%,76.2%{transform:scale(0.667,1)}76.22%,100%{transform:scale(1.000,1)}}.u.u2{fill:var(--c3);animation-name:u2;transform-origin:744.6px 0}@keyframes u3{80.29%{transform:scale(0.000,1)}80.31%,91.07%{transform:scale(0.500,1)}91.09%,100%{transform:scale(1.000,1)}}.u.u3{fill:var(--c4);animation-name:u3;transform-origin:806.6px 0}.s{shape-rendering:geometricPrecision;fill:var(--cs);animation:none linear 26900ms infinite}@keyframes s0{0%,99.63%{transform:translate(0px,-16px)}0.37%{transform:translate(0px,0px)}1.49%{transform:translate(48px,0px)}1.86%{transform:translate(48px,16px)}2.6%{transform:translate(80px,16px)}2.97%{transform:translate(80px,32px)}3.35%{transform:translate(64px,32px)}3.72%{transform:translate(64px,48px)}7.81%{transform:translate(240px,48px)}8.18%{transform:translate(240px,32px)}8.92%{transform:translate(272px,32px)}9.67%{transform:translate(272px,0px)}10.41%{transform:translate(304px,0px)}10.78%{transform:translate(304px,16px)}11.15%{transform:translate(320px,16px)}12.27%{transform:translate(320px,64px)}12.64%{transform:translate(304px,64px)}13.01%,71%{transform:translate(304px,80px)}14.13%{transform:translate(352px,80px)}14.5%{transform:translate(352px,64px)}17.1%{transform:translate(464px,64px)}17.47%{transform:translate(464px,48px)}18.22%{transform:translate(496px,48px)}18.96%{transform:translate(496px,80px)}19.7%{transform:translate(528px,80px)}20.07%{transform:translate(528px,64px)}20.82%{transform:translate(560px,64px)}22.3%{transform:translate(560px,0px)}23.79%{transform:translate(624px,0px)}24.54%{transform:translate(624px,32px)}25.28%{transform:translate(592px,32px)}26.39%{transform:translate(592px,80px)}29%,38.66%{transform:translate(704px,80px)}29.37%,39.03%{transform:translate(704px,64px)}31.6%{transform:translate(800px,64px)}31.97%{transform:translate(800px,80px)}32.71%{transform:translate(832px,80px)}34.2%{transform:translate(832px,16px)}34.57%{transform:translate(816px,16px)}35.69%{transform:translate(816px,64px)}37.92%{transform:translate(720px,64px)}38.29%{transform:translate(720px,80px)}41.64%{transform:translate(592px,64px)}42.38%{transform:translate(592px,96px)}42.75%{transform:translate(576px,96px)}43.12%{transform:translate(576px,80px)}43.87%{transform:translate(544px,80px)}45.72%{transform:translate(544px,0px)}47.96%{transform:translate(640px,0px)}48.33%{transform:translate(640px,-16px)}57.62%{transform:translate(240px,-16px)}57.99%{transform:translate(240px,0px)}58.36%{transform:translate(256px,0px)}60.22%{transform:translate(256px,80px)}61.71%{transform:translate(192px,80px)}62.08%{transform:translate(192px,96px)}62.45%{transform:translate(176px,96px)}63.2%{transform:translate(176px,64px)}65.43%{transform:translate(80px,64px)}65.8%{transform:translate(80px,80px)}71.75%{transform:translate(304px,48px)}75.84%{transform:translate(480px,48px)}76.21%{transform:translate(480px,32px)}79.93%{transform:translate(640px,32px)}80.3%{transform:translate(640px,16px)}89.22%{transform:translate(256px,16px)}91.08%{transform:translate(256px,96px)}92.19%{transform:translate(208px,96px)}93.31%{transform:translate(208px,48px)}94.8%{transform:translate(144px,48px)}95.54%{transform:translate(144px,16px)}95.91%{transform:translate(128px,16px)}96.28%{transform:translate(128px,0px)}97.4%{transform:translate(80px,0px)}97.77%{transform:translate(80px,-16px)}}.s.s0{transform:translate(0px,-16px);animation-name:s0}@keyframes s1{0%,99.63%{transform:translate(16px,-16px)}0.37%{transform:translate(0px,-16px)}0.74%{transform:translate(0px,0px)}1.86%{transform:translate(48px,0px)}2.23%{transform:translate(48px,16px)}2.97%{transform:translate(80px,16px)}3.35%{transform:translate(80px,32px)}3.72%{transform:translate(64px,32px)}4.09%{transform:translate(64px,48px)}8.18%{transform:translate(240px,48px)}8.55%{transform:translate(240px,32px)}9.29%{transform:translate(272px,32px)}10.04%{transform:translate(272px,0px)}10.78%{transform:translate(304px,0px)}11.15%{transform:translate(304px,16px)}11.52%{transform:translate(320px,16px)}12.64%{transform:translate(320px,64px)}13.01%{transform:translate(304px,64px)}13.38%,71.38%{transform:translate(304px,80px)}14.5%{transform:translate(352px,80px)}14.87%{transform:translate(352px,64px)}17.47%{transform:translate(464px,64px)}17.84%{transform:translate(464px,48px)}18.59%{transform:translate(496px,48px)}19.33%{transform:translate(496px,80px)}20.07%{transform:translate(528px,80px)}20.45%{transform:translate(528px,64px)}21.19%{transform:translate(560px,64px)}22.68%{transform:translate(560px,0px)}24.16%{transform:translate(624px,0px)}24.91%{transform:translate(624px,32px)}25.65%{transform:translate(592px,32px)}26.77%{transform:translate(592px,80px)}29.37%,39.03%{transform:translate(704px,80px)}29.74%,39.41%{transform:translate(704px,64px)}31.97%{transform:translate(800px,64px)}32.34%{transform:translate(800px,80px)}33.09%{transform:translate(832px,80px)}34.57%{transform:translate(832px,16px)}34.94%{transform:translate(816px,16px)}36.06%{transform:translate(816px,64px)}38.29%{transform:translate(720px,64px)}38.66%{transform:translate(720px,80px)}42.01%{transform:translate(592px,64px)}42.75%{transform:translate(592px,96px)}43.12%{transform:translate(576px,96px)}43.49%{transform:translate(576px,80px)}44.24%{transform:translate(544px,80px)}46.1%{transform:translate(544px,0px)}48.33%{transform:translate(640px,0px)}48.7%{transform:translate(640px,-16px)}57.99%{transform:translate(240px,-16px)}58.36%{transform:translate(240px,0px)}58.74%{transform:translate(256px,0px)}60.59%{transform:translate(256px,80px)}62.08%{transform:translate(192px,80px)}62.45%{transform:translate(192px,96px)}62.83%{transform:translate(176px,96px)}63.57%{transform:translate(176px,64px)}65.8%{transform:translate(80px,64px)}66.17%{transform:translate(80px,80px)}72.12%{transform:translate(304px,48px)}76.21%{transform:translate(480px,48px)}76.58%{transform:translate(480px,32px)}80.3%{transform:translate(640px,32px)}80.67%{transform:translate(640px,16px)}89.59%{transform:translate(256px,16px)}91.45%{transform:translate(256px,96px)}92.57%{transform:translate(208px,96px)}93.68%{transform:translate(208px,48px)}95.17%{transform:translate(144px,48px)}95.91%{transform:translate(144px,16px)}96.28%{transform:translate(128px,16px)}96.65%{transform:translate(128px,0px)}97.77%{transform:translate(80px,0px)}98.14%{transform:translate(80px,-16px)}}.s.s1{transform:translate(16px,-16px);animation-name:s1}@keyframes s2{0%,99.63%{transform:translate(32px,-16px)}0.74%{transform:translate(0px,-16px)}1.12%{transform:translate(0px,0px)}2.23%{transform:translate(48px,0px)}2.6%{transform:translate(48px,16px)}3.35%{transform:translate(80px,16px)}3.72%{transform:translate(80px,32px)}4.09%{transform:translate(64px,32px)}4.46%{transform:translate(64px,48px)}8.55%{transform:translate(240px,48px)}8.92%{transform:translate(240px,32px)}9.67%{transform:translate(272px,32px)}10.41%{transform:translate(272px,0px)}11.15%{transform:translate(304px,0px)}11.52%{transform:translate(304px,16px)}11.9%{transform:translate(320px,16px)}13.01%{transform:translate(320px,64px)}13.38%{transform:translate(304px,64px)}13.75%,71.75%{transform:translate(304px,80px)}14.87%{transform:translate(352px,80px)}15.24%{transform:translate(352px,64px)}17.84%{transform:translate(464px,64px)}18.22%{transform:translate(464px,48px)}18.96%{transform:translate(496px,48px)}19.7%{transform:translate(496px,80px)}20.45%{transform:translate(528px,80px)}20.82%{transform:translate(528px,64px)}21.56%{transform:translate(560px,64px)}23.05%{transform:translate(560px,0px)}24.54%{transform:translate(624px,0px)}25.28%{transform:translate(624px,32px)}26.02%{transform:translate(592px,32px)}27.14%{transform:translate(592px,80px)}29.74%,39.41%{transform:translate(704px,80px)}30.11%,39.78%{transform:translate(704px,64px)}32.34%{transform:translate(800px,64px)}32.71%{transform:translate(800px,80px)}33.46%{transform:translate(832px,80px)}34.94%{transform:translate(832px,16px)}35.32%{transform:translate(816px,16px)}36.43%{transform:translate(816px,64px)}38.66%{transform:translate(720px,64px)}39.03%{transform:translate(720px,80px)}42.38%{transform:translate(592px,64px)}43.12%{transform:translate(592px,96px)}43.49%{transform:translate(576px,96px)}43.87%{transform:translate(576px,80px)}44.61%{transform:translate(544px,80px)}46.47%{transform:translate(544px,0px)}48.7%{transform:translate(640px,0px)}49.07%{transform:translate(640px,-16px)}58.36%{transform:translate(240px,-16px)}58.74%{transform:translate(240px,0px)}59.11%{transform:translate(256px,0px)}60.97%{transform:translate(256px,80px)}62.45%{transform:translate(192px,80px)}62.83%{transform:translate(192px,96px)}63.2%{transform:translate(176px,96px)}63.94%{transform:translate(176px,64px)}66.17%{transform:translate(80px,64px)}66.54%{transform:translate(80px,80px)}72.49%{transform:translate(304px,48px)}76.58%{transform:translate(480px,48px)}76.95%{transform:translate(480px,32px)}80.67%{transform:translate(640px,32px)}81.04%{transform:translate(640px,16px)}89.96%{transform:translate(256px,16px)}91.82%{transform:translate(256px,96px)}92.94%{transform:translate(208px,96px)}94.05%{transform:translate(208px,48px)}95.54%{transform:translate(144px,48px)}96.28%{transform:translate(144px,16px)}96.65%{transform:translate(128px,16px)}97.03%{transform:translate(128px,0px)}98.14%{transform:translate(80px,0px)}98.51%{transform:translate(80px,-16px)}}.s.s2{transform:translate(32px,-16px);animation-name:s2}@keyframes s3{0%,99.63%{transform:translate(48px,-16px)}1.12%{transform:translate(0px,-16px)}1.49%{transform:translate(0px,0px)}2.6%{transform:translate(48px,0px)}2.97%{transform:translate(48px,16px)}3.72%{transform:translate(80px,16px)}4.09%{transform:translate(80px,32px)}4.46%{transform:translate(64px,32px)}4.83%{transform:translate(64px,48px)}8.92%{transform:translate(240px,48px)}9.29%{transform:translate(240px,32px)}10.04%{transform:translate(272px,32px)}10.78%{transform:translate(272px,0px)}11.52%{transform:translate(304px,0px)}11.9%{transform:translate(304px,16px)}12.27%{transform:translate(320px,16px)}13.38%{transform:translate(320px,64px)}13.75%{transform:translate(304px,64px)}14.13%,72.12%{transform:translate(304px,80px)}15.24%{transform:translate(352px,80px)}15.61%{transform:translate(352px,64px)}18.22%{transform:translate(464px,64px)}18.59%{transform:translate(464px,48px)}19.33%{transform:translate(496px,48px)}20.07%{transform:translate(496px,80px)}20.82%{transform:translate(528px,80px)}21.19%{transform:translate(528px,64px)}21.93%{transform:translate(560px,64px)}23.42%{transform:translate(560px,0px)}24.91%{transform:translate(624px,0px)}25.65%{transform:translate(624px,32px)}26.39%{transform:translate(592px,32px)}27.51%{transform:translate(592px,80px)}30.11%,39.78%{transform:translate(704px,80px)}30.48%,40.15%{transform:translate(704px,64px)}32.71%{transform:translate(800px,64px)}33.09%{transform:translate(800px,80px)}33.83%{transform:translate(832px,80px)}35.32%{transform:translate(832px,16px)}35.69%{transform:translate(816px,16px)}36.8%{transform:translate(816px,64px)}39.03%{transform:translate(720px,64px)}39.41%{transform:translate(720px,80px)}42.75%{transform:translate(592px,64px)}43.49%{transform:translate(592px,96px)}43.87%{transform:translate(576px,96px)}44.24%{transform:translate(576px,80px)}44.98%{transform:translate(544px,80px)}46.84%{transform:translate(544px,0px)}49.07%{transform:translate(640px,0px)}49.44%{transform:translate(640px,-16px)}58.74%{transform:translate(240px,-16px)}59.11%{transform:translate(240px,0px)}59.48%{transform:translate(256px,0px)}61.34%{transform:translate(256px,80px)}62.83%{transform:translate(192px,80px)}63.2%{transform:translate(192px,96px)}63.57%{transform:translate(176px,96px)}64.31%{transform:translate(176px,64px)}66.54%{transform:translate(80px,64px)}66.91%{transform:translate(80px,80px)}72.86%{transform:translate(304px,48px)}76.95%{transform:translate(480px,48px)}77.32%{transform:translate(480px,32px)}81.04%{transform:translate(640px,32px)}81.41%{transform:translate(640px,16px)}90.33%{transform:translate(256px,16px)}92.19%{transform:translate(256px,96px)}93.31%{transform:translate(208px,96px)}94.42%{transform:translate(208px,48px)}95.91%{transform:translate(144px,48px)}96.65%{transform:translate(144px,16px)}97.03%{transform:translate(128px,16px)}97.4%{transform:translate(128px,0px)}98.51%{transform:translate(80px,0px)}98.88%{transform:translate(80px,-16px)}}.s.s3{transform:translate(48px,-16px);animation-name:s3}</style><rect class="c" x="2" y="2" rx="2" ry="2"/><rect class="c" x="2" y="18" rx="2" ry="2"/><rect class="c" x="2" y="34" rx="2" ry="2"/><rect class="c" x="2" y="50" rx="2" ry="2"/><rect class="c" x="2" y="66" rx="2" ry="2"/><rect class="c" x="2" y="82" rx="2" ry="2"/><rect class="c" x="2" y="98" rx="2" ry="2"/><rect class="c" x="18" y="2" rx="2" ry="2"/><rect class="c" x="18" y="18" rx="2" ry="2"/><rect class="c" x="18" y="34" rx="2" ry="2"/><rect class="c" x="18" y="50" rx="2" ry="2"/><rect class="c" x="18" y="66" rx="2" ry="2"/><rect class="c" x="18" y="82" rx="2" ry="2"/><rect class="c" x="18" y="98" rx="2" ry="2"/><rect class="c" x="34" y="2" rx="2" ry="2"/><rect class="c" x="34" y="18" rx="2" ry="2"/><rect class="c" x="34" y="34" rx="2" ry="2"/><rect class="c" x="34" y="50" rx="2" ry="2"/><rect class="c" x="34" y="66" rx="2" ry="2"/><rect class="c" x="34" y="82" rx="2" ry="2"/><rect class="c" x="34" y="98" rx="2" ry="2"/><rect class="c" x="50" y="2" rx="2" ry="2"/><rect class="c c0" x="50" y="18" rx="2" ry="2"/><rect class="c" x="50" y="34" rx="2" ry="2"/><rect class="c" x="50" y="50" rx="2" ry="2"/><rect class="c" x="50" y="66" rx="2" ry="2"/><rect class="c" x="50" y="82" rx="2" ry="2"/><rect class="c" x="50" y="98" rx="2" ry="2"/><rect class="c" x="66" y="2" rx="2" ry="2"/><rect class="c" x="66" y="18" rx="2" ry="2"/><rect class="c" x="66" y="34" rx="2" ry="2"/><rect class="c c1" x="66" y="50" rx="2" ry="2"/><rect class="c" x="66" y="66" rx="2" ry="2"/><rect class="c" x="66" y="82" rx="2" ry="2"/><rect class="c" x="66" y="98" rx="2" ry="2"/><rect class="c" x="82" y="2" rx="2" ry="2"/><rect class="c" x="82" y="18" rx="2" ry="2"/><rect class="c c2" x="82" y="34" rx="2" ry="2"/><rect class="c" x="82" y="50" rx="2" ry="2"/><rect class="c c3" x="82" y="66" rx="2" ry="2"/><rect class="c c4" x="82" y="82" rx="2" ry="2"/><rect class="c" x="82" y="98" rx="2" ry="2"/><rect class="c" x="98" y="2" rx="2" ry="2"/><rect class="c" x="98" y="18" rx="2" ry="2"/><rect class="c" x="98" y="34" rx="2" ry="2"/><rect class="c" x="98" y="50" rx="2" ry="2"/><rect class="c" x="98" y="66" rx="2" ry="2"/><rect class="c" x="98" y="82" rx="2" ry="2"/><rect class="c" x="98" y="98" rx="2" ry="2"/><rect class="c" x="114" y="2" rx="2" ry="2"/><rect class="c" x="114" y="18" rx="2" ry="2"/><rect class="c" x="114" y="34" rx="2" ry="2"/><rect class="c" x="114" y="50" rx="2" ry="2"/><rect class="c" x="114" y="66" rx="2" ry="2"/><rect class="c" x="114" y="82" rx="2" ry="2"/><rect class="c" x="114" y="98" rx="2" ry="2"/><rect class="c" x="130" y="2" rx="2" ry="2"/><rect class="c" x="130" y="18" rx="2" ry="2"/><rect class="c" x="130" y="34" rx="2" ry="2"/><rect class="c" x="130" y="50" rx="2" ry="2"/><rect class="c" x="130" y="66" rx="2" ry="2"/><rect class="c" x="130" y="82" rx="2" ry="2"/><rect class="c" x="130" y="98" rx="2" ry="2"/><rect class="c" x="146" y="2" rx="2" ry="2"/><rect class="c" x="146" y="18" rx="2" ry="2"/><rect class="c" x="146" y="34" rx="2" ry="2"/><rect class="c" x="146" y="50" rx="2" ry="2"/><rect class="c" x="146" y="66" rx="2" ry="2"/><rect class="c" x="146" y="82" rx="2" ry="2"/><rect class="c" x="146" y="98" rx="2" ry="2"/><rect class="c" x="162" y="2" rx="2" ry="2"/><rect class="c" x="162" y="18" rx="2" ry="2"/><rect class="c" x="162" y="34" rx="2" ry="2"/><rect class="c" x="162" y="50" rx="2" ry="2"/><rect class="c" x="162" y="66" rx="2" ry="2"/><rect class="c" x="162" y="82" rx="2" ry="2"/><rect class="c" x="162" y="98" rx="2" ry="2"/><rect class="c" x="178" y="2" rx="2" ry="2"/><rect class="c" x="178" y="18" rx="2" ry="2"/><rect class="c" x="178" y="34" rx="2" ry="2"/><rect class="c" x="178" y="50" rx="2" ry="2"/><rect class="c" x="178" y="66" rx="2" ry="2"/><rect class="c" x="178" y="82" rx="2" ry="2"/><rect class="c" x="178" y="98" rx="2" ry="2"/><rect class="c" x="194" y="2" rx="2" ry="2"/><rect class="c" x="194" y="18" rx="2" ry="2"/><rect class="c" x="194" y="34" rx="2" ry="2"/><rect class="c" x="194" y="50" rx="2" ry="2"/><rect class="c" x="194" y="66" rx="2" ry="2"/><rect class="c" x="194" y="82" rx="2" ry="2"/><rect class="c c5" x="194" y="98" rx="2" ry="2"/><rect class="c" x="210" y="2" rx="2" ry="2"/><rect class="c" x="210" y="18" rx="2" ry="2"/><rect class="c" x="210" y="34" rx="2" ry="2"/><rect class="c" x="210" y="50" rx="2" ry="2"/><rect class="c" x="210" y="66" rx="2" ry="2"/><rect class="c" x="210" y="82" rx="2" ry="2"/><rect class="c" x="210" y="98" rx="2" ry="2"/><rect class="c" x="226" y="2" rx="2" ry="2"/><rect class="c" x="226" y="18" rx="2" ry="2"/><rect class="c" x="226" y="34" rx="2" ry="2"/><rect class="c" x="226" y="50" rx="2" ry="2"/><rect class="c" x="226" y="66" rx="2" ry="2"/><rect class="c" x="226" y="82" rx="2" ry="2"/><rect class="c" x="226" y="98" rx="2" ry="2"/><rect class="c c6" x="242" y="2" rx="2" ry="2"/><rect class="c" x="242" y="18" rx="2" ry="2"/><rect class="c c7" x="242" y="34" rx="2" ry="2"/><rect class="c" x="242" y="50" rx="2" ry="2"/><rect class="c" x="242" y="66" rx="2" ry="2"/><rect class="c" x="242" y="82" rx="2" ry="2"/><rect class="c" x="242" y="98" rx="2" ry="2"/><rect class="c" x="258" y="2" rx="2" ry="2"/><rect class="c" x="258" y="18" rx="2" ry="2"/><rect class="c" x="258" y="34" rx="2" ry="2"/><rect class="c" x="258" y="50" rx="2" ry="2"/><rect class="c" x="258" y="66" rx="2" ry="2"/><rect class="c c8" x="258" y="82" rx="2" ry="2"/><rect class="c c9" x="258" y="98" rx="2" ry="2"/><rect class="c ca" x="274" y="2" rx="2" ry="2"/><rect class="c cb" x="274" y="18" rx="2" ry="2"/><rect class="c" x="274" y="34" rx="2" ry="2"/><rect class="c" x="274" y="50" rx="2" ry="2"/><rect class="c" x="274" y="66" rx="2" ry="2"/><rect class="c" x="274" y="82" rx="2" ry="2"/><rect class="c" x="274" y="98" rx="2" ry="2"/><rect class="c" x="290" y="2" rx="2" ry="2"/><rect class="c" x="290" y="18" rx="2" ry="2"/><rect class="c" x="290" y="34" rx="2" ry="2"/><rect class="c" x="290" y="50" rx="2" ry="2"/><rect class="c" x="290" y="66" rx="2" ry="2"/><rect class="c" x="290" y="82" rx="2" ry="2"/><rect class="c" x="290" y="98" rx="2" ry="2"/><rect class="c cc" x="306" y="2" rx="2" ry="2"/><rect class="c cd" x="306" y="18" rx="2" ry="2"/><rect class="c" x="306" y="34" rx="2" ry="2"/><rect class="c ce" x="306" y="50" rx="2" ry="2"/><rect class="c cf" x="306" y="66" rx="2" ry="2"/><rect class="c" x="306" y="82" rx="2" ry="2"/><rect class="c" x="306" y="98" rx="2" ry="2"/><rect class="c" x="322" y="2" rx="2" ry="2"/><rect class="c" x="322" y="18" rx="2" ry="2"/><rect class="c" x="322" y="34" rx="2" ry="2"/><rect class="c" x="322" y="50" rx="2" ry="2"/><rect class="c" x="322" y="66" rx="2" ry="2"/><rect class="c" x="322" y="82" rx="2" ry="2"/><rect class="c" x="322" y="98" rx="2" ry="2"/><rect class="c" x="338" y="2" rx="2" ry="2"/><rect class="c" x="338" y="18" rx="2" ry="2"/><rect class="c" x="338" y="34" rx="2" ry="2"/><rect class="c" x="338" y="50" rx="2" ry="2"/><rect class="c" x="338" y="66" rx="2" ry="2"/><rect class="c" x="338" y="82" rx="2" ry="2"/><rect class="c" x="338" y="98" rx="2" ry="2"/><rect class="c" x="354" y="2" rx="2" ry="2"/><rect class="c" x="354" y="18" rx="2" ry="2"/><rect class="c" x="354" y="34" rx="2" ry="2"/><rect class="c" x="354" y="50" rx="2" ry="2"/><rect class="c cg" x="354" y="66" rx="2" ry="2"/><rect class="c ch" x="354" y="82" rx="2" ry="2"/><rect class="c" x="354" y="98" rx="2" ry="2"/><rect class="c" x="370" y="2" rx="2" ry="2"/><rect class="c" x="370" y="18" rx="2" ry="2"/><rect class="c" x="370" y="34" rx="2" ry="2"/><rect class="c" x="370" y="50" rx="2" ry="2"/><rect class="c" x="370" y="66" rx="2" ry="2"/><rect class="c" x="370" y="82" rx="2" ry="2"/><rect class="c" x="370" y="98" rx="2" ry="2"/><rect class="c" x="386" y="2" rx="2" ry="2"/><rect class="c" x="386" y="18" rx="2" ry="2"/><rect class="c" x="386" y="34" rx="2" ry="2"/><rect class="c" x="386" y="50" rx="2" ry="2"/><rect class="c" x="386" y="66" rx="2" ry="2"/><rect class="c" x="386" y="82" rx="2" ry="2"/><rect class="c" x="386" y="98" rx="2" ry="2"/><rect class="c" x="402" y="2" rx="2" ry="2"/><rect class="c" x="402" y="18" rx="2" ry="2"/><rect class="c" x="402" y="34" rx="2" ry="2"/><rect class="c" x="402" y="50" rx="2" ry="2"/><rect class="c" x="402" y="66" rx="2" ry="2"/><rect class="c" x="402" y="82" rx="2" ry="2"/><rect class="c" x="402" y="98" rx="2" ry="2"/><rect class="c" x="418" y="2" rx="2" ry="2"/><rect class="c" x="418" y="18" rx="2" ry="2"/><rect class="c" x="418" y="34" rx="2" ry="2"/><rect class="c" x="418" y="50" rx="2" ry="2"/><rect class="c" x="418" y="66" rx="2" ry="2"/><rect class="c" x="418" y="82" rx="2" ry="2"/><rect class="c" x="418" y="98" rx="2" ry="2"/><rect class="c" x="434" y="2" rx="2" ry="2"/><rect class="c" x="434" y="18" rx="2" ry="2"/><rect class="c" x="434" y="34" rx="2" ry="2"/><rect class="c" x="434" y="50" rx="2" ry="2"/><rect class="c" x="434" y="66" rx="2" ry="2"/><rect class="c" x="434" y="82" rx="2" ry="2"/><rect class="c" x="434" y="98" rx="2" ry="2"/><rect class="c" x="450" y="2" rx="2" ry="2"/><rect class="c" x="450" y="18" rx="2" ry="2"/><rect class="c" x="450" y="34" rx="2" ry="2"/><rect class="c" x="450" y="50" rx="2" ry="2"/><rect class="c" x="450" y="66" rx="2" ry="2"/><rect class="c" x="450" y="82" rx="2" ry="2"/><rect class="c" x="450" y="98" rx="2" ry="2"/><rect class="c" x="466" y="2" rx="2" ry="2"/><rect class="c" x="466" y="18" rx="2" ry="2"/><rect class="c" x="466" y="34" rx="2" ry="2"/><rect class="c ci" x="466" y="50" rx="2" ry="2"/><rect class="c" x="466" y="66" rx="2" ry="2"/><rect class="c" x="466" y="82" rx="2" ry="2"/><rect class="c" x="466" y="98" rx="2" ry="2"/><rect class="c" x="482" y="2" rx="2" ry="2"/><rect class="c" x="482" y="18" rx="2" ry="2"/><rect class="c cj" x="482" y="34" rx="2" ry="2"/><rect class="c ck" x="482" y="50" rx="2" ry="2"/><rect class="c" x="482" y="66" rx="2" ry="2"/><rect class="c" x="482" y="82" rx="2" ry="2"/><rect class="c" x="482" y="98" rx="2" ry="2"/><rect class="c" x="498" y="2" rx="2" ry="2"/><rect class="c" x="498" y="18" rx="2" ry="2"/><rect class="c" x="498" y="34" rx="2" ry="2"/><rect class="c" x="498" y="50" rx="2" ry="2"/><rect class="c" x="498" y="66" rx="2" ry="2"/><rect class="c cl" x="498" y="82" rx="2" ry="2"/><rect class="c" x="498" y="98" rx="2" ry="2"/><rect class="c" x="514" y="2" rx="2" ry="2"/><rect class="c" x="514" y="18" rx="2" ry="2"/><rect class="c" x="514" y="34" rx="2" ry="2"/><rect class="c" x="514" y="50" rx="2" ry="2"/><rect class="c" x="514" y="66" rx="2" ry="2"/><rect class="c" x="514" y="82" rx="2" ry="2"/><rect class="c" x="514" y="98" rx="2" ry="2"/><rect class="c" x="530" y="2" rx="2" ry="2"/><rect class="c" x="530" y="18" rx="2" ry="2"/><rect class="c" x="530" y="34" rx="2" ry="2"/><rect class="c" x="530" y="50" rx="2" ry="2"/><rect class="c" x="530" y="66" rx="2" ry="2"/><rect class="c cm" x="530" y="82" rx="2" ry="2"/><rect class="c" x="530" y="98" rx="2" ry="2"/><rect class="c cn" x="546" y="2" rx="2" ry="2"/><rect class="c" x="546" y="18" rx="2" ry="2"/><rect class="c" x="546" y="34" rx="2" ry="2"/><rect class="c" x="546" y="50" rx="2" ry="2"/><rect class="c" x="546" y="66" rx="2" ry="2"/><rect class="c co" x="546" y="82" rx="2" ry="2"/><rect class="c" x="546" y="98" rx="2" ry="2"/><rect class="c cp" x="562" y="2" rx="2" ry="2"/><rect class="c cq" x="562" y="18" rx="2" ry="2"/><rect class="c" x="562" y="34" rx="2" ry="2"/><rect class="c cr" x="562" y="50" rx="2" ry="2"/><rect class="c" x="562" y="66" rx="2" ry="2"/><rect class="c" x="562" y="82" rx="2" ry="2"/><rect class="c" x="562" y="98" rx="2" ry="2"/><rect class="c" x="578" y="2" rx="2" ry="2"/><rect class="c" x="578" y="18" rx="2" ry="2"/><rect class="c" x="578" y="34" rx="2" ry="2"/><rect class="c" x="578" y="50" rx="2" ry="2"/><rect class="c" x="578" y="66" rx="2" ry="2"/><rect class="c" x="578" y="82" rx="2" ry="2"/><rect class="c" x="578" y="98" rx="2" ry="2"/><rect class="c" x="594" y="2" rx="2" ry="2"/><rect class="c" x="594" y="18" rx="2" ry="2"/><rect class="c" x="594" y="34" rx="2" ry="2"/><rect class="c" x="594" y="50" rx="2" ry="2"/><rect class="c cs" x="594" y="66" rx="2" ry="2"/><rect class="c" x="594" y="82" rx="2" ry="2"/><rect class="c ct" x="594" y="98" rx="2" ry="2"/><rect class="c" x="610" y="2" rx="2" ry="2"/><rect class="c" x="610" y="18" rx="2" ry="2"/><rect class="c" x="610" y="34" rx="2" ry="2"/><rect class="c" x="610" y="50" rx="2" ry="2"/><rect class="c cu" x="610" y="66" rx="2" ry="2"/><rect class="c" x="610" y="82" rx="2" ry="2"/><rect class="c" x="610" y="98" rx="2" ry="2"/><rect class="c" x="626" y="2" rx="2" ry="2"/><rect class="c" x="626" y="18" rx="2" ry="2"/><rect class="c cv" x="626" y="34" rx="2" ry="2"/><rect class="c" x="626" y="50" rx="2" ry="2"/><rect class="c" x="626" y="66" rx="2" ry="2"/><rect class="c" x="626" y="82" rx="2" ry="2"/><rect class="c" x="626" y="98" rx="2" ry="2"/><rect class="c cw" x="642" y="2" rx="2" ry="2"/><rect class="c cx" x="642" y="18" rx="2" ry="2"/><rect class="c" x="642" y="34" rx="2" ry="2"/><rect class="c" x="642" y="50" rx="2" ry="2"/><rect class="c cy" x="642" y="66" rx="2" ry="2"/><rect class="c" x="642" y="82" rx="2" ry="2"/><rect class="c" x="642" y="98" rx="2" ry="2"/><rect class="c" x="658" y="2" rx="2" ry="2"/><rect class="c" x="658" y="18" rx="2" ry="2"/><rect class="c" x="658" y="34" rx="2" ry="2"/><rect class="c" x="658" y="50" rx="2" ry="2"/><rect class="c" x="658" y="66" rx="2" ry="2"/><rect class="c" x="658" y="82" rx="2" ry="2"/><rect class="c" x="658" y="98" rx="2" ry="2"/><rect class="c" x="674" y="2" rx="2" ry="2"/><rect class="c" x="674" y="18" rx="2" ry="2"/><rect class="c" x="674" y="34" rx="2" ry="2"/><rect class="c" x="674" y="50" rx="2" ry="2"/><rect class="c" x="674" y="66" rx="2" ry="2"/><rect class="c" x="674" y="82" rx="2" ry="2"/><rect class="c" x="674" y="98" rx="2" ry="2"/><rect class="c" x="690" y="2" rx="2" ry="2"/><rect class="c" x="690" y="18" rx="2" ry="2"/><rect class="c" x="690" y="34" rx="2" ry="2"/><rect class="c" x="690" y="50" rx="2" ry="2"/><rect class="c" x="690" y="66" rx="2" ry="2"/><rect class="c" x="690" y="82" rx="2" ry="2"/><rect class="c" x="690" y="98" rx="2" ry="2"/><rect class="c" x="706" y="2" rx="2" ry="2"/><rect class="c" x="706" y="18" rx="2" ry="2"/><rect class="c" x="706" y="34" rx="2" ry="2"/><rect class="c" x="706" y="50" rx="2" ry="2"/><rect class="c cz" x="706" y="66" rx="2" ry="2"/><rect class="c" x="706" y="82" rx="2" ry="2"/><rect class="c" x="706" y="98" rx="2" ry="2"/><rect class="c" x="722" y="2" rx="2" ry="2"/><rect class="c" x="722" y="18" rx="2" ry="2"/><rect class="c" x="722" y="34" rx="2" ry="2"/><rect class="c" x="722" y="50" rx="2" ry="2"/><rect class="c" x="722" y="66" rx="2" ry="2"/><rect class="c c10" x="722" y="82" rx="2" ry="2"/><rect class="c" x="722" y="98" rx="2" ry="2"/><rect class="c" x="738" y="2" rx="2" ry="2"/><rect class="c" x="738" y="18" rx="2" ry="2"/><rect class="c" x="738" y="34" rx="2" ry="2"/><rect class="c" x="738" y="50" rx="2" ry="2"/><rect class="c" x="738" y="66" rx="2" ry="2"/><rect class="c" x="738" y="82" rx="2" ry="2"/><rect class="c" x="738" y="98" rx="2" ry="2"/><rect class="c" x="754" y="2" rx="2" ry="2"/><rect class="c" x="754" y="18" rx="2" ry="2"/><rect class="c" x="754" y="34" rx="2" ry="2"/><rect class="c" x="754" y="50" rx="2" ry="2"/><rect class="c" x="754" y="66" rx="2" ry="2"/><rect class="c" x="754" y="82" rx="2" ry="2"/><rect class="c" x="754" y="98" rx="2" ry="2"/><rect class="c" x="770" y="2" rx="2" ry="2"/><rect class="c" x="770" y="18" rx="2" ry="2"/><rect class="c" x="770" y="34" rx="2" ry="2"/><rect class="c" x="770" y="50" rx="2" ry="2"/><rect class="c" x="770" y="66" rx="2" ry="2"/><rect class="c" x="770" y="82" rx="2" ry="2"/><rect class="c" x="770" y="98" rx="2" ry="2"/><rect class="c" x="786" y="2" rx="2" ry="2"/><rect class="c" x="786" y="18" rx="2" ry="2"/><rect class="c" x="786" y="34" rx="2" ry="2"/><rect class="c" x="786" y="50" rx="2" ry="2"/><rect class="c" x="786" y="66" rx="2" ry="2"/><rect class="c" x="786" y="82" rx="2" ry="2"/><rect class="c" x="786" y="98" rx="2" ry="2"/><rect class="c" x="802" y="2" rx="2" ry="2"/><rect class="c" x="802" y="18" rx="2" ry="2"/><rect class="c" x="802" y="34" rx="2" ry="2"/><rect class="c" x="802" y="50" rx="2" ry="2"/><rect class="c" x="802" y="66" rx="2" ry="2"/><rect class="c" x="802" y="82" rx="2" ry="2"/><rect class="c" x="802" y="98" rx="2" ry="2"/><rect class="c" x="818" y="2" rx="2" ry="2"/><rect class="c c11" x="818" y="18" rx="2" ry="2"/><rect class="c" x="818" y="34" rx="2" ry="2"/><rect class="c" x="818" y="50" rx="2" ry="2"/><rect class="c c12" x="818" y="66" rx="2" ry="2"/><rect class="c c13" x="818" y="82" rx="2" ry="2"/><rect class="c" x="818" y="98" rx="2" ry="2"/><rect class="c" x="834" y="2" rx="2" ry="2"/><rect class="c c14" x="834" y="18" rx="2" ry="2"/><rect class="u u0" height="12" width="497.0" x="0.0" y="144"/><rect class="u u1" height="12" width="248.8" x="496.4" y="144"/><rect class="u u2" height="12" width="62.6" x="744.6" y="144"/><rect class="u u3" height="12" width="42.0" x="806.6" y="144"/><rect class="s s0" x="0.8" y="0.8" width="14.4" height="14.4" rx="4.5" ry="4.5"/><rect class="s s1" x="1.8" y="1.8" width="12.3" height="12.3" rx="4.1" ry="4.1"/><rect class="s s2" x="2.6" y="2.6" width="10.8" height="10.8" rx="3.6" ry="3.6"/><rect class="s s3" x="3.0" y="3.0" width="9.9" height="9.9" rx="3.3" ry="3.3"/></svg>