<svg viewBox="-16 -32 880 192" width="880" height="192" xmlns="http://www.w3.org/2000/svg"><desc>Generated with https://github.com/Platane/snk</desc><style>:root{--cb:#1b1f230a;--cs:white;--ce:#0a0e12;--c0:#0a0e12;--c1:#1445a2;--c2:#1d65ee;--c3:#1f4eff;--c4:#466dff}.c{shape-rendering:geometricPrecision;fill:var(--ce);stroke-width:1px;stroke:var(--cb);animation:none 38900ms linear infinite;width:12px;height:12px}@keyframes c0{7.96%{fill:var(--c1)}7.98%,100%{fill:var(--ce)}}.c.c0{fill:var(--c1);animation-name:c0}@keyframes c1{1.02%{fill:var(--c1)}1.04%,100%{fill:var(--ce)}}.c.c1{fill:var(--c1);animation-name:c1}@keyframes c2{6.16%{fill:var(--c1)}6.18%,100%{fill:var(--ce)}}.c.c2{fill:var(--c1);animation-name:c2}@keyframes c3{5.13%{fill:var(--c1)}5.15%,100%{fill:var(--ce)}}.c.c3{fill:var(--c1);animation-name:c3}@keyframes c4{72.74%{fill:var(--c2)}72.76%,100%{fill:var(--ce)}}.c.c4{fill:var(--c2);animation-name:c4}@keyframes c5{1.53%{fill:var(--c1)}1.55%,100%{fill:var(--ce)}}.c.c5{fill:var(--c1);animation-name:c5}@keyframes c6{1.79%{fill:var(--c1)}1.81%,100%{fill:var(--ce)}}.c.c6{fill:var(--c1);animation-name:c6}@keyframes c7{2.56%{fill:var(--c1)}2.58%,100%{fill:var(--ce)}}.c.c7{fill:var(--c1);animation-name:c7}@keyframes c8{2.3%{fill:var(--c1)}2.32%,100%{fill:var(--ce)}}.c.c8{fill:var(--c1);animation-name:c8}@keyframes c9{71.2%{fill:var(--c2)}71.22%,100%{fill:var(--ce)}}.c.c9{fill:var(--c2);animation-name:c9}@keyframes ca{4.1%{fill:var(--c1)}4.12%,100%{fill:var(--ce)}}.c.ca{fill:var(--c1);animation-name:ca}@keyframes cb{11.04%{fill:var(--c1)}11.06%,100%{fill:var(--ce)}}.c.cb{fill:var(--c1);animation-name:cb}@keyframes cc{10.79%{fill:var(--c1)}10.81%,100%{fill:var(--ce)}}.c.cc{fill:var(--c1);animation-name:cc}@keyframes cd{13.1%{fill:var(--c1)}13.12%,100%{fill:var(--ce)}}.c.cd{fill:var(--c1);animation-name:cd}@keyframes ce{68.11%{fill:var(--c2)}68.13%,100%{fill:var(--ce)}}.c.ce{fill:var(--c2);animation-name:ce}@keyframes cf{13.36%{fill:var(--c1)}13.38%,100%{fill:var(--ce)}}.c.cf{fill:var(--c1);animation-name:cf}@keyframes cg{14.13%{fill:var(--c1)}14.15%,100%{fill:var(--ce)}}.c.cg{fill:var(--c1);animation-name:cg}@keyframes ch{14.64%{fill:var(--c1)}14.66%,100%{fill:var(--ce)}}.c.ch{fill:var(--c1);animation-name:ch}@keyframes ci{16.7%{fill:var(--c1)}16.72%,100%{fill:var(--ce)}}.c.ci{fill:var(--c1);animation-name:ci}@keyframes cj{14.9%{fill:var(--c1)}14.92%,100%{fill:var(--ce)}}.c.cj{fill:var(--c1);animation-name:cj}@keyframes ck{16.44%{fill:var(--c1)}16.46%,100%{fill:var(--ce)}}.c.ck{fill:var(--c1);animation-name:ck}@keyframes cl{16.19%{fill:var(--c1)}16.21%,100%{fill:var(--ce)}}.c.cl{fill:var(--c1);animation-name:cl}@keyframes cm{15.67%{fill:var(--c1)}15.69%,100%{fill:var(--ce)}}.c.cm{fill:var(--c1);animation-name:cm}@keyframes cn{20.04%{fill:var(--c1)}20.06%,100%{fill:var(--ce)}}.c.cn{fill:var(--c1);animation-name:cn}@keyframes co{20.56%{fill:var(--c1)}20.58%,100%{fill:var(--ce)}}.c.co{fill:var(--c1);animation-name:co}@keyframes cp{19.78%{fill:var(--c1)}19.8%,100%{fill:var(--ce)}}.c.cp{fill:var(--c1);animation-name:cp}@keyframes cq{18.5%{fill:var(--c1)}18.52%,100%{fill:var(--ce)}}.c.cq{fill:var(--c1);animation-name:cq}@keyframes cr{25.44%{fill:var(--c1)}25.46%,100%{fill:var(--ce)}}.c.cr{fill:var(--c1);animation-name:cr}@keyframes cs{65.29%{fill:var(--c2)}65.31%,100%{fill:var(--ce)}}.c.cs{fill:var(--c2);animation-name:cs}@keyframes ct{19.27%{fill:var(--c1)}19.29%,100%{fill:var(--ce)}}.c.ct{fill:var(--c1);animation-name:ct}@keyframes cu{23.38%{fill:var(--c1)}23.4%,100%{fill:var(--ce)}}.c.cu{fill:var(--c1);animation-name:cu}@keyframes cv{22.87%{fill:var(--c1)}22.89%,100%{fill:var(--ce)}}.c.cv{fill:var(--c1);animation-name:cv}@keyframes cw{29.04%{fill:var(--c1)}29.06%,100%{fill:var(--ce)}}.c.cw{fill:var(--c1);animation-name:cw}@keyframes cx{49.35%{fill:var(--c1)}49.37%,100%{fill:var(--ce)}}.c.cx{fill:var(--c1);animation-name:cx}@keyframes cy{49.6%{fill:var(--c1)}49.62%,100%{fill:var(--ce)}}.c.cy{fill:var(--c1);animation-name:cy}@keyframes cz{29.3%{fill:var(--c1)}29.32%,100%{fill:var(--ce)}}.c.cz{fill:var(--c1);animation-name:cz}@keyframes c10{57.32%{fill:var(--c2)}57.34%,100%{fill:var(--ce)}}.c.c10{fill:var(--c2);animation-name:c10}@keyframes c11{29.55%{fill:var(--c1)}29.57%,100%{fill:var(--ce)}}.c.c11{fill:var(--c1);animation-name:c11}@keyframes c12{56.8%{fill:var(--c2)}56.82%,100%{fill:var(--ce)}}.c.c12{fill:var(--c2);animation-name:c12}@keyframes c13{48.83%{fill:var(--c1)}48.85%,100%{fill:var(--ce)}}.c.c13{fill:var(--c1);animation-name:c13}@keyframes c14{47.03%{fill:var(--c1)}47.05%,100%{fill:var(--ce)}}.c.c14{fill:var(--c1);animation-name:c14}@keyframes c15{47.29%{fill:var(--c1)}47.31%,100%{fill:var(--ce)}}.c.c15{fill:var(--c1);animation-name:c15}@keyframes c16{56.29%{fill:var(--c2)}56.31%,100%{fill:var(--ce)}}.c.c16{fill:var(--c2);animation-name:c16}@keyframes c17{48.32%{fill:var(--c1)}48.34%,100%{fill:var(--ce)}}.c.c17{fill:var(--c1);animation-name:c17}@keyframes c18{30.07%{fill:var(--c1)}30.09%,100%{fill:var(--ce)}}.c.c18{fill:var(--c1);animation-name:c18}@keyframes c19{46.78%{fill:var(--c1)}46.8%,100%{fill:var(--ce)}}.c.c19{fill:var(--c1);animation-name:c19}@keyframes c1a{46.52%{fill:var(--c1)}46.54%,100%{fill:var(--ce)}}.c.c1a{fill:var(--c1);animation-name:c1a}@keyframes c1b{48.06%{fill:var(--c1)}48.08%,100%{fill:var(--ce)}}.c.c1b{fill:var(--c1);animation-name:c1b}@keyframes c1c{54.23%{fill:var(--c1)}54.25%,100%{fill:var(--ce)}}.c.c1c{fill:var(--c1);animation-name:c1c}@keyframes c1d{30.32%{fill:var(--c1)}30.34%,100%{fill:var(--ce)}}.c.c1d{fill:var(--c1);animation-name:c1d}@keyframes c1e{84.05%{fill:var(--c3)}84.07%,100%{fill:var(--ce)}}.c.c1e{fill:var(--c3);animation-name:c1e}@keyframes c1f{55.52%{fill:var(--c2)}55.54%,100%{fill:var(--ce)}}.c.c1f{fill:var(--c2);animation-name:c1f}@keyframes c1g{46.01%{fill:var(--c1)}46.03%,100%{fill:var(--ce)}}.c.c1g{fill:var(--c1);animation-name:c1g}@keyframes c1h{83.28%{fill:var(--c3)}83.3%,100%{fill:var(--ce)}}.c.c1h{fill:var(--c3);animation-name:c1h}@keyframes c1i{59.37%{fill:var(--c2)}59.39%,100%{fill:var(--ce)}}.c.c1i{fill:var(--c2);animation-name:c1i}@keyframes c1j{84.82%{fill:var(--c4)}84.84%,100%{fill:var(--ce)}}.c.c1j{fill:var(--c4);animation-name:c1j}@keyframes c1k{30.58%{fill:var(--c1)}30.6%,100%{fill:var(--ce)}}.c.c1k{fill:var(--c1);animation-name:c1k}@keyframes c1l{38.55%{fill:var(--c1)}38.57%,100%{fill:var(--ce)}}.c.c1l{fill:var(--c1);animation-name:c1l}@keyframes c1m{38.29%{fill:var(--c1)}38.31%,100%{fill:var(--ce)}}.c.c1m{fill:var(--c1);animation-name:c1m}@keyframes c1n{45.75%{fill:var(--c1)}45.77%,100%{fill:var(--ce)}}.c.c1n{fill:var(--c1);animation-name:c1n}@keyframes c1o{86.62%{fill:var(--c4)}86.64%,100%{fill:var(--ce)}}.c.c1o{fill:var(--c4);animation-name:c1o}@keyframes c1p{51.92%{fill:var(--c1)}51.94%,100%{fill:var(--ce)}}.c.c1p{fill:var(--c1);animation-name:c1p}@keyframes c1q{34.18%{fill:var(--c1)}34.2%,100%{fill:var(--ce)}}.c.c1q{fill:var(--c1);animation-name:c1q}@keyframes c1r{30.84%{fill:var(--c1)}30.86%,100%{fill:var(--ce)}}.c.c1r{fill:var(--c1);animation-name:c1r}@keyframes c1s{34.69%{fill:var(--c1)}34.71%,100%{fill:var(--ce)}}.c.c1s{fill:var(--c1);animation-name:c1s}@keyframes c1t{38.04%{fill:var(--c1)}38.06%,100%{fill:var(--ce)}}.c.c1t{fill:var(--c1);animation-name:c1t}@keyframes c1u{39.32%{fill:var(--c1)}39.34%,100%{fill:var(--ce)}}.c.c1u{fill:var(--c1);animation-name:c1u}@keyframes c1v{42.15%{fill:var(--c1)}42.17%,100%{fill:var(--ce)}}.c.c1v{fill:var(--c1);animation-name:c1v}@keyframes c1w{42.41%{fill:var(--c1)}42.43%,100%{fill:var(--ce)}}.c.c1w{fill:var(--c1);animation-name:c1w}@keyframes c1x{33.92%{fill:var(--c1)}33.94%,100%{fill:var(--ce)}}.c.c1x{fill:var(--c1);animation-name:c1x}@keyframes c1y{31.1%{fill:var(--c1)}31.12%,100%{fill:var(--ce)}}.c.c1y{fill:var(--c1);animation-name:c1y}@keyframes c1z{34.95%{fill:var(--c1)}34.97%,100%{fill:var(--ce)}}.c.c1z{fill:var(--c1);animation-name:c1z}@keyframes c20{37.78%{fill:var(--c1)}37.8%,100%{fill:var(--ce)}}.c.c20{fill:var(--c1);animation-name:c20}@keyframes c21{39.58%{fill:var(--c1)}39.6%,100%{fill:var(--ce)}}.c.c21{fill:var(--c1);animation-name:c21}@keyframes c22{41.89%{fill:var(--c1)}41.91%,100%{fill:var(--ce)}}.c.c22{fill:var(--c1);animation-name:c22}@keyframes c23{42.66%{fill:var(--c1)}42.68%,100%{fill:var(--ce)}}.c.c23{fill:var(--c1);animation-name:c23}@keyframes c24{33.67%{fill:var(--c1)}33.69%,100%{fill:var(--ce)}}.c.c24{fill:var(--c1);animation-name:c24}@keyframes c25{31.35%{fill:var(--c1)}31.37%,100%{fill:var(--ce)}}.c.c25{fill:var(--c1);animation-name:c25}@keyframes c26{35.21%{fill:var(--c1)}35.23%,100%{fill:var(--ce)}}.c.c26{fill:var(--c1);animation-name:c26}@keyframes c27{37.52%{fill:var(--c1)}37.54%,100%{fill:var(--ce)}}.c.c27{fill:var(--c1);animation-name:c27}@keyframes c28{39.84%{fill:var(--c1)}39.86%,100%{fill:var(--ce)}}.c.c28{fill:var(--c1);animation-name:c28}@keyframes c29{41.64%{fill:var(--c1)}41.66%,100%{fill:var(--ce)}}.c.c29{fill:var(--c1);animation-name:c29}@keyframes c2a{42.92%{fill:var(--c1)}42.94%,100%{fill:var(--ce)}}.c.c2a{fill:var(--c1);animation-name:c2a}@keyframes c2b{33.41%{fill:var(--c1)}33.43%,100%{fill:var(--ce)}}.c.c2b{fill:var(--c1);animation-name:c2b}@keyframes c2c{31.61%{fill:var(--c1)}31.63%,100%{fill:var(--ce)}}.c.c2c{fill:var(--c1);animation-name:c2c}@keyframes c2d{35.47%{fill:var(--c1)}35.49%,100%{fill:var(--ce)}}.c.c2d{fill:var(--c1);animation-name:c2d}@keyframes c2e{37.27%{fill:var(--c1)}37.29%,100%{fill:var(--ce)}}.c.c2e{fill:var(--c1);animation-name:c2e}@keyframes c2f{40.09%{fill:var(--c1)}40.11%,100%{fill:var(--ce)}}.c.c2f{fill:var(--c1);animation-name:c2f}@keyframes c2g{41.38%{fill:var(--c1)}41.4%,100%{fill:var(--ce)}}.c.c2g{fill:var(--c1);animation-name:c2g}@keyframes c2h{43.18%{fill:var(--c1)}43.2%,100%{fill:var(--ce)}}.c.c2h{fill:var(--c1);animation-name:c2h}@keyframes c2i{33.15%{fill:var(--c1)}33.17%,100%{fill:var(--ce)}}.c.c2i{fill:var(--c1);animation-name:c2i}@keyframes c2j{31.87%{fill:var(--c1)}31.89%,100%{fill:var(--ce)}}.c.c2j{fill:var(--c1);animation-name:c2j}@keyframes c2k{35.72%{fill:var(--c1)}35.74%,100%{fill:var(--ce)}}.c.c2k{fill:var(--c1);animation-name:c2k}@keyframes c2l{37.01%{fill:var(--c1)}37.03%,100%{fill:var(--ce)}}.c.c2l{fill:var(--c1);animation-name:c2l}@keyframes c2m{40.35%{fill:var(--c1)}40.37%,100%{fill:var(--ce)}}.c.c2m{fill:var(--c1);animation-name:c2m}@keyframes c2n{41.12%{fill:var(--c1)}41.14%,100%{fill:var(--ce)}}.c.c2n{fill:var(--c1);animation-name:c2n}@keyframes c2o{43.43%{fill:var(--c1)}43.45%,100%{fill:var(--ce)}}.c.c2o{fill:var(--c1);animation-name:c2o}@keyframes c2p{32.89%{fill:var(--c1)}32.91%,100%{fill:var(--ce)}}.c.c2p{fill:var(--c1);animation-name:c2p}@keyframes c2q{32.12%{fill:var(--c1)}32.14%,100%{fill:var(--ce)}}.c.c2q{fill:var(--c1);animation-name:c2q}@keyframes c2r{35.98%{fill:var(--c1)}36%,100%{fill:var(--ce)}}.c.c2r{fill:var(--c1);animation-name:c2r}@keyframes c2s{36.75%{fill:var(--c1)}36.77%,100%{fill:var(--ce)}}.c.c2s{fill:var(--c1);animation-name:c2s}@keyframes c2t{40.61%{fill:var(--c1)}40.63%,100%{fill:var(--ce)}}.c.c2t{fill:var(--c1);animation-name:c2t}@keyframes c2u{40.86%{fill:var(--c1)}40.88%,100%{fill:var(--ce)}}.c.c2u{fill:var(--c1);animation-name:c2u}@keyframes c2v{43.69%{fill:var(--c1)}43.71%,100%{fill:var(--ce)}}.c.c2v{fill:var(--c1);animation-name:c2v}@keyframes c2w{32.64%{fill:var(--c1)}32.66%,100%{fill:var(--ce)}}.c.c2w{fill:var(--c1);animation-name:c2w}@keyframes c2x{32.38%{fill:var(--c1)}32.4%,100%{fill:var(--ce)}}.c.c2x{fill:var(--c1);animation-name:c2x}@keyframes c2y{36.24%{fill:var(--c1)}36.26%,100%{fill:var(--ce)}}.c.c2y{fill:var(--c1);animation-name:c2y}.u{transform-origin:0 0;transform:scale(0,1);animation:none linear 38900ms infinite}@keyframes u0{1.02%{transform:scale(0.000,1)}1.04%,1.53%{transform:scale(0.011,1)}1.55%,1.79%{transform:scale(0.021,1)}1.81%,2.3%{transform:scale(0.032,1)}2.32%,2.56%{transform:scale(0.043,1)}2.58%,4.1%{transform:scale(0.053,1)}4.12%,5.13%{transform:scale(0.064,1)}5.15%,6.16%{transform:scale(0.074,1)}6.18%,7.96%{transform:scale(0.085,1)}7.98%,10.79%{transform:scale(0.096,1)}10.81%,11.04%{transform:scale(0.106,1)}11.06%,13.1%{transform:scale(0.117,1)}13.12%,13.36%{transform:scale(0.128,1)}13.38%,14.13%{transform:scale(0.138,1)}14.15%,14.64%{transform:scale(0.149,1)}14.66%,14.9%{transform:scale(0.160,1)}14.92%,15.67%{transform:scale(0.170,1)}15.69%,16.19%{transform:scale(0.181,1)}16.21%,16.44%{transform:scale(0.191,1)}16.46%,16.7%{transform:scale(0.202,1)}16.72%,18.5%{transform:scale(0.213,1)}18.52%,19.27%{transform:scale(0.223,1)}19.29%,19.78%{transform:scale(0.234,1)}19.8%,20.04%{transform:scale(0.245,1)}20.06%,20.56%{transform:scale(0.255,1)}20.58%,22.87%{transform:scale(0.266,1)}22.89%,23.38%{transform:scale(0.277,1)}23.4%,25.44%{transform:scale(0.287,1)}25.46%,29.04%{transform:scale(0.298,1)}29.06%,29.3%{transform:scale(0.309,1)}29.32%,29.55%{transform:scale(0.319,1)}29.57%,30.07%{transform:scale(0.330,1)}30.09%,30.32%{transform:scale(0.340,1)}30.34%,30.58%{transform:scale(0.351,1)}30.6%,30.84%{transform:scale(0.362,1)}30.86%,31.1%{transform:scale(0.372,1)}31.12%,31.35%{transform:scale(0.383,1)}31.37%,31.61%{transform:scale(0.394,1)}31.63%,31.87%{transform:scale(0.404,1)}31.89%,32.12%{transform:scale(0.415,1)}32.14%,32.38%{transform:scale(0.426,1)}32.4%,32.64%{transform:scale(0.436,1)}32.66%,32.89%{transform:scale(0.447,1)}32.91%,33.15%{transform:scale(0.457,1)}33.17%,33.41%{transform:scale(0.468,1)}33.43%,33.67%{transform:scale(0.479,1)}33.69%,33.92%{transform:scale(0.489,1)}33.94%,34.18%{transform:scale(0.500,1)}34.2%,34.69%{transform:scale(0.511,1)}34.71%,34.95%{transform:scale(0.521,1)}34.97%,35.21%{transform:scale(0.532,1)}35.23%,35.47%{transform:scale(0.543,1)}35.49%,35.72%{transform:scale(0.553,1)}35.74%,35.98%{transform:scale(0.564,1)}36%,36.24%{transform:scale(0.574,1)}36.26%,36.75%{transform:scale(0.585,1)}36.77%,37.01%{transform:scale(0.596,1)}37.03%,37.27%{transform:scale(0.606,1)}37.29%,37.52%{transform:scale(0.617,1)}37.54%,37.78%{transform:scale(0.628,1)}37.8%,38.04%{transform:scale(0.638,1)}38.06%,38.29%{transform:scale(0.649,1)}38.31%,38.55%{transform:scale(0.660,1)}38.57%,39.32%{transform:scale(0.670,1)}39.34%,39.58%{transform:scale(0.681,1)}39.6%,39.84%{transform:scale(0.691,1)}39.86%,40.09%{transform:scale(0.702,1)}40.11%,40.35%{transform:scale(0.713,1)}40.37%,40.61%{transform:scale(0.723,1)}40.63%,40.86%{transform:scale(0.734,1)}40.88%,41.12%{transform:scale(0.745,1)}41.14%,41.38%{transform:scale(0.755,1)}41.4%,41.64%{transform:scale(0.766,1)}41.66%,41.89%{transform:scale(0.777,1)}41.91%,42.15%{transform:scale(0.787,1)}42.17%,42.41%{transform:scale(0.798,1)}42.43%,42.66%{transform:scale(0.809,1)}42.68%,42.92%{transform:scale(0.819,1)}42.94%,43.18%{transform:scale(0.830,1)}43.2%,43.43%{transform:scale(0.840,1)}43.45%,43.69%{transform:scale(0.851,1)}43.71%,45.75%{transform:scale(0.862,1)}45.77%,46.01%{transform:scale(0.872,1)}46.03%,46.52%{transform:scale(0.883,1)}46.54%,46.78%{transform:scale(0.894,1)}46.8%,47.03%{transform:scale(0.904,1)}47.05%,47.29%{transform:scale(0.915,1)}47.31%,48.06%{transform:scale(0.926,1)}48.08%,48.32%{transform:scale(0.936,1)}48.34%,48.83%{transform:scale(0.947,1)}48.85%,49.35%{transform:scale(0.957,1)}49.37%,49.6%{transform:scale(0.968,1)}49.62%,51.92%{transform:scale(0.979,1)}51.94%,54.23%{transform:scale(0.989,1)}54.25%,100%{transform:scale(1.000,1)}}.u.u0{fill:var(--c1);animation-name:u0;transform-origin:0.0px 0}@keyframes u1{55.52%{transform:scale(0.000,1)}55.54%,56.29%{transform:scale(0.111,1)}56.31%,56.8%{transform:scale(0.222,1)}56.82%,57.32%{transform:scale(0.333,1)}57.34%,59.37%{transform:scale(0.444,1)}59.39%,65.29%{transform:scale(0.556,1)}65.31%,68.11%{transform:scale(0.667,1)}68.13%,71.2%{transform:scale(0.778,1)}71.22%,72.74%{transform:scale(0.889,1)}72.76%,100%{transform:scale(1.000,1)}}.u.u1{fill:var(--c2);animation-name:u1;transform-origin:745.0px 0}@keyframes u2{83.28%{transform:scale(0.000,1)}83.3%,84.05%{transform:scale(0.500,1)}84.07%,100%{transform:scale(1.000,1)}}.u.u2{fill:var(--c3);animation-name:u2;transform-origin:816.3px 0}@keyframes u3{84.82%{transform:scale(0.000,1)}84.84%,86.62%{transform:scale(0.500,1)}86.64%,100%{transform:scale(1.000,1)}}.u.u3{fill:var(--c4);animation-name:u3;transform-origin:832.1px 0}.s{shape-rendering:geometricPrecision;fill:var(--cs);animation:none linear 38900ms infinite}@keyframes s0{0%,99.74%{transform:translate(0px,-16px)}0.26%{transform:translate(0px,0px)}1.54%,98.2%{transform:translate(80px,0px)}1.8%{transform:translate(80px,16px)}2.31%{transform:translate(112px,16px)}2.57%{transform:translate(112px,0px)}2.83%{transform:translate(128px,0px)}3.86%{transform:translate(128px,64px)}4.88%{transform:translate(64px,64px)}5.14%{transform:translate(64px,80px)}5.4%,9%{transform:translate(48px,80px)}6.17%{transform:translate(48px,32px)}6.94%{transform:translate(0px,32px)}7.97%{transform:translate(0px,96px)}8.74%{transform:translate(48px,96px)}10.8%{transform:translate(160px,80px)}11.05%{transform:translate(160px,64px)}12.85%{transform:translate(272px,64px)}13.11%{transform:translate(272px,48px)}13.62%{transform:translate(304px,48px)}14.14%{transform:translate(304px,80px)}15.17%{transform:translate(368px,80px)}16.45%{transform:translate(368px,0px)}16.71%{transform:translate(352px,0px)}16.97%{transform:translate(352px,16px)}18.25%{transform:translate(432px,16px)}18.51%{transform:translate(432px,32px)}18.77%{transform:translate(448px,32px)}19.28%{transform:translate(448px,64px)}20.05%{transform:translate(400px,64px)}20.57%{transform:translate(400px,96px)}22.62%{transform:translate(528px,96px)}23.14%{transform:translate(528px,64px)}23.39%{transform:translate(512px,64px)}24.42%{transform:translate(512px,0px)}25.45%{transform:translate(448px,0px)}25.71%{transform:translate(448px,-16px)}28.53%{transform:translate(624px,-16px)}29.05%{transform:translate(624px,16px)}32.39%{transform:translate(832px,16px)}32.65%{transform:translate(832px,0px)}34.19%,85.09%{transform:translate(736px,0px)}34.7%,38.82%{transform:translate(736px,32px)}36.25%{transform:translate(832px,32px)}36.5%{transform:translate(832px,48px)}38.3%{transform:translate(720px,48px)}38.56%,84.32%{transform:translate(720px,32px)}39.33%{transform:translate(736px,64px)}40.62%,44.22%{transform:translate(816px,64px)}40.87%{transform:translate(816px,80px)}42.16%{transform:translate(736px,80px)}42.42%,52.19%{transform:translate(736px,96px)}43.7%{transform:translate(816px,96px)}46.27%{transform:translate(688px,64px)}46.79%{transform:translate(688px,32px)}47.04%{transform:translate(672px,32px)}47.3%,56.56%{transform:translate(672px,48px)}47.56%,55.27%,58.35%{transform:translate(688px,48px)}48.07%,50.64%{transform:translate(688px,80px)}48.59%{transform:translate(656px,80px)}48.84%{transform:translate(656px,64px)}49.36%{transform:translate(624px,64px)}49.61%{transform:translate(624px,80px)}51.16%,59.9%{transform:translate(688px,112px)}51.67%{transform:translate(720px,112px)}51.93%{transform:translate(720px,96px)}53.47%,85.35%{transform:translate(736px,16px)}53.98%{transform:translate(704px,16px)}54.24%{transform:translate(704px,0px)}54.5%{transform:translate(688px,0px)}55.53%{transform:translate(704px,48px)}55.78%{transform:translate(704px,64px)}56.3%{transform:translate(672px,64px)}56.81%{transform:translate(656px,48px)}57.07%{transform:translate(656px,32px)}57.33%{transform:translate(640px,32px)}57.58%{transform:translate(640px,48px)}59.13%{transform:translate(688px,96px)}59.38%,83.03%{transform:translate(704px,96px)}59.64%{transform:translate(704px,112px)}61.44%{transform:translate(688px,16px)}67.87%{transform:translate(288px,16px)}68.12%{transform:translate(288px,32px)}70.95%{transform:translate(112px,32px)}71.21%{transform:translate(112px,48px)}71.98%{transform:translate(64px,48px)}72.75%{transform:translate(64px,96px)}84.06%{transform:translate(704px,32px)}84.83%{transform:translate(720px,0px)}85.6%{transform:translate(720px,16px)}86.63%{transform:translate(720px,80px)}96.66%{transform:translate(96px,80px)}97.43%{transform:translate(96px,32px)}97.69%{transform:translate(80px,32px)}98.71%{transform:translate(48px,0px)}98.97%{transform:translate(48px,-16px)}}.s.s0{transform:translate(0px,-16px);animation-name:s0}@keyframes s1{0%,99.74%{transform:translate(16px,-16px)}0.26%{transform:translate(0px,-16px)}0.51%{transform:translate(0px,0px)}1.8%,98.46%{transform:translate(80px,0px)}2.06%{transform:translate(80px,16px)}2.57%{transform:translate(112px,16px)}2.83%{transform:translate(112px,0px)}3.08%{transform:translate(128px,0px)}4.11%{transform:translate(128px,64px)}5.14%{transform:translate(64px,64px)}5.4%{transform:translate(64px,80px)}5.66%,9.25%{transform:translate(48px,80px)}6.43%{transform:translate(48px,32px)}7.2%{transform:translate(0px,32px)}8.23%{transform:translate(0px,96px)}9%{transform:translate(48px,96px)}11.05%{transform:translate(160px,80px)}11.31%{transform:translate(160px,64px)}13.11%{transform:translate(272px,64px)}13.37%{transform:translate(272px,48px)}13.88%{transform:translate(304px,48px)}14.4%{transform:translate(304px,80px)}15.42%{transform:translate(368px,80px)}16.71%{transform:translate(368px,0px)}16.97%{transform:translate(352px,0px)}17.22%{transform:translate(352px,16px)}18.51%{transform:translate(432px,16px)}18.77%{transform:translate(432px,32px)}19.02%{transform:translate(448px,32px)}19.54%{transform:translate(448px,64px)}20.31%{transform:translate(400px,64px)}20.82%{transform:translate(400px,96px)}22.88%{transform:translate(528px,96px)}23.39%{transform:translate(528px,64px)}23.65%{transform:translate(512px,64px)}24.68%{transform:translate(512px,0px)}25.71%{transform:translate(448px,0px)}25.96%{transform:translate(448px,-16px)}28.79%{transform:translate(624px,-16px)}29.31%{transform:translate(624px,16px)}32.65%{transform:translate(832px,16px)}32.9%{transform:translate(832px,0px)}34.45%,85.35%{transform:translate(736px,0px)}34.96%,39.07%{transform:translate(736px,32px)}36.5%{transform:translate(832px,32px)}36.76%{transform:translate(832px,48px)}38.56%{transform:translate(720px,48px)}38.82%,84.58%{transform:translate(720px,32px)}39.59%{transform:translate(736px,64px)}40.87%,44.47%{transform:translate(816px,64px)}41.13%{transform:translate(816px,80px)}42.42%{transform:translate(736px,80px)}42.67%,52.44%{transform:translate(736px,96px)}43.96%{transform:translate(816px,96px)}46.53%{transform:translate(688px,64px)}47.04%{transform:translate(688px,32px)}47.3%{transform:translate(672px,32px)}47.56%,56.81%{transform:translate(672px,48px)}47.81%,55.53%,58.61%{transform:translate(688px,48px)}48.33%,50.9%{transform:translate(688px,80px)}48.84%{transform:translate(656px,80px)}49.1%{transform:translate(656px,64px)}49.61%{transform:translate(624px,64px)}49.87%{transform:translate(624px,80px)}51.41%,60.15%{transform:translate(688px,112px)}51.93%{transform:translate(720px,112px)}52.19%{transform:translate(720px,96px)}53.73%,85.6%{transform:translate(736px,16px)}54.24%{transform:translate(704px,16px)}54.5%{transform:translate(704px,0px)}54.76%{transform:translate(688px,0px)}55.78%{transform:translate(704px,48px)}56.04%{transform:translate(704px,64px)}56.56%{transform:translate(672px,64px)}57.07%{transform:translate(656px,48px)}57.33%{transform:translate(656px,32px)}57.58%{transform:translate(640px,32px)}57.84%{transform:translate(640px,48px)}59.38%{transform:translate(688px,96px)}59.64%,83.29%{transform:translate(704px,96px)}59.9%{transform:translate(704px,112px)}61.7%{transform:translate(688px,16px)}68.12%{transform:translate(288px,16px)}68.38%{transform:translate(288px,32px)}71.21%{transform:translate(112px,32px)}71.47%{transform:translate(112px,48px)}72.24%{transform:translate(64px,48px)}73.01%{transform:translate(64px,96px)}84.32%{transform:translate(704px,32px)}85.09%{transform:translate(720px,0px)}85.86%{transform:translate(720px,16px)}86.89%{transform:translate(720px,80px)}96.92%{transform:translate(96px,80px)}97.69%{transform:translate(96px,32px)}97.94%{transform:translate(80px,32px)}98.97%{transform:translate(48px,0px)}99.23%{transform:translate(48px,-16px)}}.s.s1{transform:translate(16px,-16px);animation-name:s1}@keyframes s2{0%,99.74%{transform:translate(32px,-16px)}0.51%{transform:translate(0px,-16px)}0.77%{transform:translate(0px,0px)}2.06%,98.71%{transform:translate(80px,0px)}2.31%{transform:translate(80px,16px)}2.83%{transform:translate(112px,16px)}3.08%{transform:translate(112px,0px)}3.34%{transform:translate(128px,0px)}4.37%{transform:translate(128px,64px)}5.4%{transform:translate(64px,64px)}5.66%{transform:translate(64px,80px)}5.91%,9.51%{transform:translate(48px,80px)}6.68%{transform:translate(48px,32px)}7.46%{transform:translate(0px,32px)}8.48%{transform:translate(0px,96px)}9.25%{transform:translate(48px,96px)}11.31%{transform:translate(160px,80px)}11.57%{transform:translate(160px,64px)}13.37%{transform:translate(272px,64px)}13.62%{transform:translate(272px,48px)}14.14%{transform:translate(304px,48px)}14.65%{transform:translate(304px,80px)}15.68%{transform:translate(368px,80px)}16.97%{transform:translate(368px,0px)}17.22%{transform:translate(352px,0px)}17.48%{transform:translate(352px,16px)}18.77%{transform:translate(432px,16px)}19.02%{transform:translate(432px,32px)}19.28%{transform:translate(448px,32px)}19.79%{transform:translate(448px,64px)}20.57%{transform:translate(400px,64px)}21.08%{transform:translate(400px,96px)}23.14%{transform:translate(528px,96px)}23.65%{transform:translate(528px,64px)}23.91%{transform:translate(512px,64px)}24.94%{transform:translate(512px,0px)}25.96%{transform:translate(448px,0px)}26.22%{transform:translate(448px,-16px)}29.05%{transform:translate(624px,-16px)}29.56%{transform:translate(624px,16px)}32.9%{transform:translate(832px,16px)}33.16%{transform:translate(832px,0px)}34.7%,85.6%{transform:translate(736px,0px)}35.22%,39.33%{transform:translate(736px,32px)}36.76%{transform:translate(832px,32px)}37.02%{transform:translate(832px,48px)}38.82%{transform:translate(720px,48px)}39.07%,84.83%{transform:translate(720px,32px)}39.85%{transform:translate(736px,64px)}41.13%,44.73%{transform:translate(816px,64px)}41.39%{transform:translate(816px,80px)}42.67%{transform:translate(736px,80px)}42.93%,52.7%{transform:translate(736px,96px)}44.22%{transform:translate(816px,96px)}46.79%{transform:translate(688px,64px)}47.3%{transform:translate(688px,32px)}47.56%{transform:translate(672px,32px)}47.81%,57.07%{transform:translate(672px,48px)}48.07%,55.78%,58.87%{transform:translate(688px,48px)}48.59%,51.16%{transform:translate(688px,80px)}49.1%{transform:translate(656px,80px)}49.36%{transform:translate(656px,64px)}49.87%{transform:translate(624px,64px)}50.13%{transform:translate(624px,80px)}51.67%,60.41%{transform:translate(688px,112px)}52.19%{transform:translate(720px,112px)}52.44%{transform:translate(720px,96px)}53.98%,85.86%{transform:translate(736px,16px)}54.5%{transform:translate(704px,16px)}54.76%{transform:translate(704px,0px)}55.01%{transform:translate(688px,0px)}56.04%{transform:translate(704px,48px)}56.3%{transform:translate(704px,64px)}56.81%{transform:translate(672px,64px)}57.33%{transform:translate(656px,48px)}57.58%{transform:translate(656px,32px)}57.84%{transform:translate(640px,32px)}58.1%{transform:translate(640px,48px)}59.64%{transform:translate(688px,96px)}59.9%,83.55%{transform:translate(704px,96px)}60.15%{transform:translate(704px,112px)}61.95%{transform:translate(688px,16px)}68.38%{transform:translate(288px,16px)}68.64%{transform:translate(288px,32px)}71.47%{transform:translate(112px,32px)}71.72%{transform:translate(112px,48px)}72.49%{transform:translate(64px,48px)}73.26%{transform:translate(64px,96px)}84.58%{transform:translate(704px,32px)}85.35%{transform:translate(720px,0px)}86.12%{transform:translate(720px,16px)}87.15%{transform:translate(720px,80px)}97.17%{transform:translate(96px,80px)}97.94%{transform:translate(96px,32px)}98.2%{transform:translate(80px,32px)}99.23%{transform:translate(48px,0px)}99.49%{transform:translate(48px,-16px)}}.s.s2{transform:translate(32px,-16px);animation-name:s2}@keyframes s3{0%,99.74%{transform:translate(48px,-16px)}0.77%{transform:translate(0px,-16px)}1.03%{transform:translate(0px,0px)}2.31%,98.97%{transform:translate(80px,0px)}2.57%{transform:translate(80px,16px)}3.08%{transform:translate(112px,16px)}3.34%{transform:translate(112px,0px)}3.6%{transform:translate(128px,0px)}4.63%{transform:translate(128px,64px)}5.66%{transform:translate(64px,64px)}5.91%{transform:translate(64px,80px)}6.17%,9.77%{transform:translate(48px,80px)}6.94%{transform:translate(48px,32px)}7.71%{transform:translate(0px,32px)}8.74%{transform:translate(0px,96px)}9.51%{transform:translate(48px,96px)}11.57%{transform:translate(160px,80px)}11.83%{transform:translate(160px,64px)}13.62%{transform:translate(272px,64px)}13.88%{transform:translate(272px,48px)}14.4%{transform:translate(304px,48px)}14.91%{transform:translate(304px,80px)}15.94%{transform:translate(368px,80px)}17.22%{transform:translate(368px,0px)}17.48%{transform:translate(352px,0px)}17.74%{transform:translate(352px,16px)}19.02%{transform:translate(432px,16px)}19.28%{transform:translate(432px,32px)}19.54%{transform:translate(448px,32px)}20.05%{transform:translate(448px,64px)}20.82%{transform:translate(400px,64px)}21.34%{transform:translate(400px,96px)}23.39%{transform:translate(528px,96px)}23.91%{transform:translate(528px,64px)}24.16%{transform:translate(512px,64px)}25.19%{transform:translate(512px,0px)}26.22%{transform:translate(448px,0px)}26.48%{transform:translate(448px,-16px)}29.31%{transform:translate(624px,-16px)}29.82%{transform:translate(624px,16px)}33.16%{transform:translate(832px,16px)}33.42%{transform:translate(832px,0px)}34.96%,85.86%{transform:translate(736px,0px)}35.48%,39.59%{transform:translate(736px,32px)}37.02%{transform:translate(832px,32px)}37.28%{transform:translate(832px,48px)}39.07%{transform:translate(720px,48px)}39.33%,85.09%{transform:translate(720px,32px)}40.1%{transform:translate(736px,64px)}41.39%,44.99%{transform:translate(816px,64px)}41.65%{transform:translate(816px,80px)}42.93%{transform:translate(736px,80px)}43.19%,52.96%{transform:translate(736px,96px)}44.47%{transform:translate(816px,96px)}47.04%{transform:translate(688px,64px)}47.56%{transform:translate(688px,32px)}47.81%{transform:translate(672px,32px)}48.07%,57.33%{transform:translate(672px,48px)}48.33%,56.04%,59.13%{transform:translate(688px,48px)}48.84%,51.41%{transform:translate(688px,80px)}49.36%{transform:translate(656px,80px)}49.61%{transform:translate(656px,64px)}50.13%{transform:translate(624px,64px)}50.39%{transform:translate(624px,80px)}51.93%,60.67%{transform:translate(688px,112px)}52.44%{transform:translate(720px,112px)}52.7%{transform:translate(720px,96px)}54.24%,86.12%{transform:translate(736px,16px)}54.76%{transform:translate(704px,16px)}55.01%{transform:translate(704px,0px)}55.27%{transform:translate(688px,0px)}56.3%{transform:translate(704px,48px)}56.56%{transform:translate(704px,64px)}57.07%{transform:translate(672px,64px)}57.58%{transform:translate(656px,48px)}57.84%{transform:translate(656px,32px)}58.1%{transform:translate(640px,32px)}58.35%{transform:translate(640px,48px)}59.9%{transform:translate(688px,96px)}60.15%,83.8%{transform:translate(704px,96px)}60.41%{transform:translate(704px,112px)}62.21%{transform:translate(688px,16px)}68.64%{transform:translate(288px,16px)}68.89%{transform:translate(288px,32px)}71.72%{transform:translate(112px,32px)}71.98%{transform:translate(112px,48px)}72.75%{transform:translate(64px,48px)}73.52%{transform:translate(64px,96px)}84.83%{transform:translate(704px,32px)}85.6%{transform:translate(720px,0px)}86.38%{transform:translate(720px,16px)}87.4%{transform:translate(720px,80px)}97.43%{transform:translate(96px,80px)}98.2%{transform:translate(96px,32px)}98.46%{transform:translate(80px,32px)}99.49%{transform:translate(48px,0px)}}.s.s3{transform:translate(48px,-16px);animation-name:s3}</style><rect class="c" x="2" y="2" rx="2" ry="2"/><rect class="c" x="2" y="18" rx="2" ry="2"/><rect class="c" x="2" y="34" rx="2" ry="2"/><rect class="c" x="2" y="50" rx="2" ry="2"/><rect class="c" x="2" y="66" rx="2" ry="2"/><rect class="c" x="2" y="82" rx="2" ry="2"/><rect class="c c0" x="2" y="98" rx="2" ry="2"/><rect class="c" x="18" y="2" rx="2" ry="2"/><rect class="c" x="18" y="18" rx="2" ry="2"/><rect class="c" x="18" y="34" rx="2" ry="2"/><rect class="c" x="18" y="50" rx="2" ry="2"/><rect class="c" x="18" y="66" rx="2" ry="2"/><rect class="c" x="18" y="82" rx="2" ry="2"/><rect class="c" x="18" y="98" rx="2" ry="2"/><rect class="c" x="34" y="2" rx="2" ry="2"/><rect class="c" x="34" y="18" rx="2" ry="2"/><rect class="c" x="34" y="34" rx="2" ry="2"/><rect class="c" x="34" y="50" rx="2" ry="2"/><rect class="c" x="34" y="66" rx="2" ry="2"/><rect class="c" x="34" y="82" rx="2" ry="2"/><rect class="c" x="34" y="98" rx="2" ry="2"/><rect class="c c1" x="50" y="2" rx="2" ry="2"/><rect class="c" x="50" y="18" rx="2" ry="2"/><rect class="c c2" x="50" y="34" rx="2" ry="2"/><rect class="c" x="50" y="50" rx="2" ry="2"/><rect class="c" x="50" y="66" rx="2" ry="2"/><rect class="c" x="50" y="82" rx="2" ry="2"/><rect class="c" x="50" y="98" rx="2" ry="2"/><rect class="c" x="66" y="2" rx="2" ry="2"/><rect class="c" x="66" y="18" rx="2" ry="2"/><rect class="c" x="66" y="34" rx="2" ry="2"/><rect class="c" x="66" y="50" rx="2" ry="2"/><rect class="c" x="66" y="66" rx="2" ry="2"/><rect class="c c3" x="66" y="82" rx="2" ry="2"/><rect class="c c4" x="66" y="98" rx="2" ry="2"/><rect class="c c5" x="82" y="2" rx="2" ry="2"/><rect class="c c6" x="82" y="18" rx="2" ry="2"/><rect class="c" x="82" y="34" rx="2" ry="2"/><rect class="c" x="82" y="50" rx="2" ry="2"/><rect class="c" x="82" y="66" rx="2" ry="2"/><rect class="c" x="82" y="82" rx="2" ry="2"/><rect class="c" x="82" y="98" rx="2" ry="2"/><rect class="c" x="98" y="2" rx="2" ry="2"/><rect class="c" x="98" y="18" rx="2" ry="2"/><rect class="c" x="98" y="34" rx="2" ry="2"/><rect class="c" x="98" y="50" rx="2" ry="2"/><rect class="c" x="98" y="66" rx="2" ry="2"/><rect class="c" x="98" y="82" rx="2" ry="2"/><rect class="c" x="98" y="98" rx="2" ry="2"/><rect class="c c7" x="114" y="2" rx="2" ry="2"/><rect class="c c8" x="114" y="18" rx="2" ry="2"/><rect class="c" x="114" y="34" rx="2" ry="2"/><rect class="c c9" x="114" y="50" rx="2" ry="2"/><rect class="c ca" x="114" y="66" rx="2" ry="2"/><rect class="c" x="114" y="82" rx="2" ry="2"/><rect class="c" x="114" y="98" rx="2" ry="2"/><rect class="c" x="130" y="2" rx="2" ry="2"/><rect class="c" x="130" y="18" rx="2" ry="2"/><rect class="c" x="130" y="34" rx="2" ry="2"/><rect class="c" x="130" y="50" rx="2" ry="2"/><rect class="c" x="130" y="66" rx="2" ry="2"/><rect class="c" x="130" y="82" rx="2" ry="2"/><rect class="c" x="130" y="98" rx="2" ry="2"/><rect class="c" x="146" y="2" rx="2" ry="2"/><rect class="c" x="146" y="18" rx="2" ry="2"/><rect class="c" x="146" y="34" rx="2" ry="2"/><rect class="c" x="146" y="50" rx="2" ry="2"/><rect class="c" x="146" y="66" rx="2" ry="2"/><rect class="c" x="146" y="82" rx="2" ry="2"/><rect class="c" x="146" y="98" rx="2" ry="2"/><rect class="c" x="162" y="2" rx="2" ry="2"/><rect class="c" x="162" y="18" rx="2" ry="2"/><rect class="c" x="162" y="34" rx="2" ry="2"/><rect class="c" x="162" y="50" rx="2" ry="2"/><rect class="c cb" x="162" y="66" rx="2" ry="2"/><rect class="c cc" x="162" y="82" rx="2" ry="2"/><rect class="c" x="162" y="98" rx="2" ry="2"/><rect class="c" x="178" y="2" rx="2" ry="2"/><rect class="c" x="178" y="18" rx="2" ry="2"/><rect class="c" x="178" y="34" rx="2" ry="2"/><rect class="c" x="178" y="50" rx="2" ry="2"/><rect class="c" x="178" y="66" rx="2" ry="2"/><rect class="c" x="178" y="82" rx="2" ry="2"/><rect class="c" x="178" y="98" rx="2" ry="2"/><rect class="c" x="194" y="2" rx="2" ry="2"/><rect class="c" x="194" y="18" rx="2" ry="2"/><rect class="c" x="194" y="34" rx="2" ry="2"/><rect class="c" x="194" y="50" rx="2" ry="2"/><rect class="c" x="194" y="66" rx="2" ry="2"/><rect class="c" x="194" y="82" rx="2" ry="2"/><rect class="c" x="194" y="98" rx="2" ry="2"/><rect class="c" x="210" y="2" rx="2" ry="2"/><rect class="c" x="210" y="18" rx="2" ry="2"/><rect class="c" x="210" y="34" rx="2" ry="2"/><rect class="c" x="210" y="50" rx="2" ry="2"/><rect class="c" x="210" y="66" rx="2" ry="2"/><rect class="c" x="210" y="82" rx="2" ry="2"/><rect class="c" x="210" y="98" rx="2" ry="2"/><rect class="c" x="226" y="2" rx="2" ry="2"/><rect class="c" x="226" y="18" rx="2" ry="2"/><rect class="c" x="226" y="34" rx="2" ry="2"/><rect class="c" x="226" y="50" rx="2" ry="2"/><rect class="c" x="226" y="66" rx="2" ry="2"/><rect class="c" x="226" y="82" rx="2" ry="2"/><rect class="c" x="226" y="98" rx="2" ry="2"/><rect class="c" x="242" y="2" rx="2" ry="2"/><rect class="c" x="242" y="18" rx="2" ry="2"/><rect class="c" x="242" y="34" rx="2" ry="2"/><rect class="c" x="242" y="50" rx="2" ry="2"/><rect class="c" x="242" y="66" rx="2" ry="2"/><rect class="c" x="242" y="82" rx="2" ry="2"/><rect class="c" x="242" y="98" rx="2" ry="2"/><rect class="c" x="258" y="2" rx="2" ry="2"/><rect class="c" x="258" y="18" rx="2" ry="2"/><rect class="c" x="258" y="34" rx="2" ry="2"/><rect class="c" x="258" y="50" rx="2" ry="2"/><rect class="c" x="258" y="66" rx="2" ry="2"/><rect class="c" x="258" y="82" rx="2" ry="2"/><rect class="c" x="258" y="98" rx="2" ry="2"/><rect class="c" x="274" y="2" rx="2" ry="2"/><rect class="c" x="274" y="18" rx="2" ry="2"/><rect class="c" x="274" y="34" rx="2" ry="2"/><rect class="c cd" x="274" y="50" rx="2" ry="2"/><rect class="c" x="274" y="66" rx="2" ry="2"/><rect class="c" x="274" y="82" rx="2" ry="2"/><rect class="c" x="274" y="98" rx="2" ry="2"/><rect class="c" x="290" y="2" rx="2" ry="2"/><rect class="c" x="290" y="18" rx="2" ry="2"/><rect class="c ce" x="290" y="34" rx="2" ry="2"/><rect class="c cf" x="290" y="50" rx="2" ry="2"/><rect class="c" x="290" y="66" rx="2" ry="2"/><rect class="c" x="290" y="82" rx="2" ry="2"/><rect class="c" x="290" y="98" rx="2" ry="2"/><rect class="c" x="306" y="2" rx="2" ry="2"/><rect class="c" x="306" y="18" rx="2" ry="2"/><rect class="c" x="306" y="34" rx="2" ry="2"/><rect class="c" x="306" y="50" rx="2" ry="2"/><rect class="c" x="306" y="66" rx="2" ry="2"/><rect class="c cg" x="306" y="82" rx="2" ry="2"/><rect class="c" x="306" y="98" rx="2" ry="2"/><rect class="c" x="322" y="2" rx="2" ry="2"/><rect class="c" x="322" y="18" rx="2" ry="2"/><rect class="c" x="322" y="34" rx="2" ry="2"/><rect class="c" x="322" y="50" rx="2" ry="2"/><rect class="c" x="322" y="66" rx="2" ry="2"/><rect class="c" x="322" y="82" rx="2" ry="2"/><rect class="c" x="322" y="98" rx="2" ry="2"/><rect class="c" x="338" y="2" rx="2" ry="2"/><rect class="c" x="338" y="18" rx="2" ry="2"/><rect class="c" x="338" y="34" rx="2" ry="2"/><rect class="c" x="338" y="50" rx="2" ry="2"/><rect class="c" x="338" y="66" rx="2" ry="2"/><rect class="c ch" x="338" y="82" rx="2" ry="2"/><rect class="c" x="338" y="98" rx="2" ry="2"/><rect class="c ci" x="354" y="2" rx="2" ry="2"/><rect class="c" x="354" y="18" rx="2" ry="2"/><rect class="c" x="354" y="34" rx="2" ry="2"/><rect class="c" x="354" y="50" rx="2" ry="2"/><rect class="c" x="354" y="66" rx="2" ry="2"/><rect class="c cj" x="354" y="82" rx="2" ry="2"/><rect class="c" x="354" y="98" rx="2" ry="2"/><rect class="c ck" x="370" y="2" rx="2" ry="2"/><rect class="c cl" x="370" y="18" rx="2" ry="2"/><rect class="c" x="370" y="34" rx="2" ry="2"/><rect class="c cm" x="370" y="50" rx="2" ry="2"/><rect class="c" x="370" y="66" rx="2" ry="2"/><rect class="c" x="370" y="82" rx="2" ry="2"/><rect class="c" x="370" y="98" rx="2" ry="2"/><rect class="c" x="386" y="2" rx="2" ry="2"/><rect class="c" x="386" y="18" rx="2" ry="2"/><rect class="c" x="386" y="34" rx="2" ry="2"/><rect class="c" x="386" y="50" rx="2" ry="2"/><rect class="c" x="386" y="66" rx="2" ry="2"/><rect class="c" x="386" y="82" rx="2" ry="2"/><rect class="c" x="386" y="98" rx="2" ry="2"/><rect class="c" x="402" y="2" rx="2" ry="2"/><rect class="c" x="402" y="18" rx="2" ry="2"/><rect class="c" x="402" y="34" rx="2" ry="2"/><rect class="c" x="402" y="50" rx="2" ry="2"/><rect class="c cn" x="402" y="66" rx="2" ry="2"/><rect class="c" x="402" y="82" rx="2" ry="2"/><rect class="c co" x="402" y="98" rx="2" ry="2"/><rect class="c" x="418" y="2" rx="2" ry="2"/><rect class="c" x="418" y="18" rx="2" ry="2"/><rect class="c" x="418" y="34" rx="2" ry="2"/><rect class="c" x="418" y="50" rx="2" ry="2"/><rect class="c cp" x="418" y="66" rx="2" ry="2"/><rect class="c" x="418" y="82" rx="2" ry="2"/><rect class="c" x="418" y="98" rx="2" ry="2"/><rect class="c" x="434" y="2" rx="2" ry="2"/><rect class="c" x="434" y="18" rx="2" ry="2"/><rect class="c cq" x="434" y="34" rx="2" ry="2"/><rect class="c" x="434" y="50" rx="2" ry="2"/><rect class="c" x="434" y="66" rx="2" ry="2"/><rect class="c" x="434" y="82" rx="2" ry="2"/><rect class="c" x="434" y="98" rx="2" ry="2"/><rect class="c cr" x="450" y="2" rx="2" ry="2"/><rect class="c cs" x="450" y="18" rx="2" ry="2"/><rect class="c" x="450" y="34" rx="2" ry="2"/><rect class="c" x="450" y="50" rx="2" ry="2"/><rect class="c ct" x="450" y="66" rx="2" ry="2"/><rect class="c" x="450" y="82" rx="2" ry="2"/><rect class="c" x="450" y="98" rx="2" ry="2"/><rect class="c" x="466" y="2" rx="2" ry="2"/><rect class="c" x="466" y="18" rx="2" ry="2"/><rect class="c" x="466" y="34" rx="2" ry="2"/><rect class="c" x="466" y="50" rx="2" ry="2"/><rect class="c" x="466" y="66" rx="2" ry="2"/><rect class="c" x="466" y="82" rx="2" ry="2"/><rect class="c" x="466" y="98" rx="2" ry="2"/><rect class="c" x="482" y="2" rx="2" ry="2"/><rect class="c" x="482" y="18" rx="2" ry="2"/><rect class="c" x="482" y="34" rx="2" ry="2"/><rect class="c" x="482" y="50" rx="2" ry="2"/><rect class="c" x="482" y="66" rx="2" ry="2"/><rect class="c" x="482" y="82" rx="2" ry="2"/><rect class="c" x="482" y="98" rx="2" ry="2"/><rect class="c" x="498" y="2" rx="2" ry="2"/><rect class="c" x="498" y="18" rx="2" ry="2"/><rect class="c" x="498" y="34" rx="2" ry="2"/><rect class="c" x="498" y="50" rx="2" ry="2"/><rect class="c" x="498" y="66" rx="2" ry="2"/><rect class="c" x="498" y="82" rx="2" ry="2"/><rect class="c" x="498" y="98" rx="2" ry="2"/><rect class="c" x="514" y="2" rx="2" ry="2"/><rect class="c" x="514" y="18" rx="2" ry="2"/><rect class="c" x="514" y="34" rx="2" ry="2"/><rect class="c" x="514" y="50" rx="2" ry="2"/><rect class="c cu" x="514" y="66" rx="2" ry="2"/><rect class="c" x="514" y="82" rx="2" ry="2"/><rect class="c" x="514" y="98" rx="2" ry="2"/><rect class="c" x="530" y="2" rx="2" ry="2"/><rect class="c" x="530" y="18" rx="2" ry="2"/><rect class="c" x="530" y="34" rx="2" ry="2"/><rect class="c" x="530" y="50" rx="2" ry="2"/><rect class="c" x="530" y="66" rx="2" ry="2"/><rect class="c cv" x="530" y="82" rx="2" ry="2"/><rect class="c" x="530" y="98" rx="2" ry="2"/><rect class="c" x="546" y="2" rx="2" ry="2"/><rect class="c" x="546" y="18" rx="2" ry="2"/><rect class="c" x="546" y="34" rx="2" ry="2"/><rect class="c" x="546" y="50" rx="2" ry="2"/><rect class="c" x="546" y="66" rx="2" ry="2"/><rect class="c" x="546" y="82" rx="2" ry="2"/><rect class="c" x="546" y="98" rx="2" ry="2"/><rect class="c" x="562" y="2" rx="2" ry="2"/><rect class="c" x="562" y="18" rx="2" ry="2"/><rect class="c" x="562" y="34" rx="2" ry="2"/><rect class="c" x="562" y="50" rx="2" ry="2"/><rect class="c" x="562" y="66" rx="2" ry="2"/><rect class="c" x="562" y="82" rx="2" ry="2"/><rect class="c" x="562" y="98" rx="2" ry="2"/><rect class="c" x="578" y="2" rx="2" ry="2"/><rect class="c" x="578" y="18" rx="2" ry="2"/><rect class="c" x="578" y="34" rx="2" ry="2"/><rect class="c" x="578" y="50" rx="2" ry="2"/><rect class="c" x="578" y="66" rx="2" ry="2"/><rect class="c" x="578" y="82" rx="2" ry="2"/><rect class="c" x="578" y="98" rx="2" ry="2"/><rect class="c" x="594" y="2" rx="2" ry="2"/><rect class="c" x="594" y="18" rx="2" ry="2"/><rect class="c" x="594" y="34" rx="2" ry="2"/><rect class="c" x="594" y="50" rx="2" ry="2"/><rect class="c" x="594" y="66" rx="2" ry="2"/><rect class="c" x="594" y="82" rx="2" ry="2"/><rect class="c" x="594" y="98" rx="2" ry="2"/><rect class="c" x="610" y="2" rx="2" ry="2"/><rect class="c" x="610" y="18" rx="2" ry="2"/><rect class="c" x="610" y="34" rx="2" ry="2"/><rect class="c" x="610" y="50" rx="2" ry="2"/><rect class="c" x="610" y="66" rx="2" ry="2"/><rect class="c" x="610" y="82" rx="2" ry="2"/><rect class="c" x="610" y="98" rx="2" ry="2"/><rect class="c" x="626" y="2" rx="2" ry="2"/><rect class="c cw" x="626" y="18" rx="2" ry="2"/><rect class="c" x="626" y="34" rx="2" ry="2"/><rect class="c" x="626" y="50" rx="2" ry="2"/><rect class="c cx" x="626" y="66" rx="2" ry="2"/><rect class="c cy" x="626" y="82" rx="2" ry="2"/><rect class="c" x="626" y="98" rx="2" ry="2"/><rect class="c" x="642" y="2" rx="2" ry="2"/><rect class="c cz" x="642" y="18" rx="2" ry="2"/><rect class="c c10" x="642" y="34" rx="2" ry="2"/><rect class="c" x="642" y="50" rx="2" ry="2"/><rect class="c" x="642" y="66" rx="2" ry="2"/><rect class="c" x="642" y="82" rx="2" ry="2"/><rect class="c" x="642" y="98" rx="2" ry="2"/><rect class="c" x="658" y="2" rx="2" ry="2"/><rect class="c c11" x="658" y="18" rx="2" ry="2"/><rect class="c" x="658" y="34" rx="2" ry="2"/><rect class="c c12" x="658" y="50" rx="2" ry="2"/><rect class="c c13" x="658" y="66" rx="2" ry="2"/><rect class="c" x="658" y="82" rx="2" ry="2"/><rect class="c" x="658" y="98" rx="2" ry="2"/><rect class="c" x="674" y="2" rx="2" ry="2"/><rect class="c" x="674" y="18" rx="2" ry="2"/><rect class="c c14" x="674" y="34" rx="2" ry="2"/><rect class="c c15" x="674" y="50" rx="2" ry="2"/><rect class="c c16" x="674" y="66" rx="2" ry="2"/><rect class="c c17" x="674" y="82" rx="2" ry="2"/><rect class="c" x="674" y="98" rx="2" ry="2"/><rect class="c" x="690" y="2" rx="2" ry="2"/><rect class="c c18" x="690" y="18" rx="2" ry="2"/><rect class="c c19" x="690" y="34" rx="2" ry="2"/><rect class="c c1a" x="690" y="50" rx="2" ry="2"/><rect class="c" x="690" y="66" rx="2" ry="2"/><rect class="c c1b" x="690" y="82" rx="2" ry="2"/><rect class="c" x="690" y="98" rx="2" ry="2"/><rect class="c c1c" x="706" y="2" rx="2" ry="2"/><rect class="c c1d" x="706" y="18" rx="2" ry="2"/><rect class="c c1e" x="706" y="34" rx="2" ry="2"/><rect class="c c1f" x="706" y="50" rx="2" ry="2"/><rect class="c c1g" x="706" y="66" rx="2" ry="2"/><rect class="c c1h" x="706" y="82" rx="2" ry="2"/><rect class="c c1i" x="706" y="98" rx="2" ry="2"/><rect class="c c1j" x="722" y="2" rx="2" ry="2"/><rect class="c c1k" x="722" y="18" rx="2" ry="2"/><rect class="c c1l" x="722" y="34" rx="2" ry="2"/><rect class="c c1m" x="722" y="50" rx="2" ry="2"/><rect class="c c1n" x="722" y="66" rx="2" ry="2"/><rect class="c c1o" x="722" y="82" rx="2" ry="2"/><rect class="c c1p" x="722" y="98" rx="2" ry="2"/><rect class="c c1q" x="738" y="2" rx="2" ry="2"/><rect class="c c1r" x="738" y="18" rx="2" ry="2"/><rect class="c c1s" x="738" y="34" rx="2" ry="2"/><rect class="c c1t" x="738" y="50" rx="2" ry="2"/><rect class="c c1u" x="738" y="66" rx="2" ry="2"/><rect class="c c1v" x="738" y="82" rx="2" ry="2"/><rect class="c c1w" x="738" y="98" rx="2" ry="2"/><rect class="c c1x" x="754" y="2" rx="2" ry="2"/><rect class="c c1y" x="754" y="18" rx="2" ry="2"/><rect class="c c1z" x="754" y="34" rx="2" ry="2"/><rect class="c c20" x="754" y="50" rx="2" ry="2"/><rect class="c c21" x="754" y="66" rx="2" ry="2"/><rect class="c c22" x="754" y="82" rx="2" ry="2"/><rect class="c c23" x="754" y="98" rx="2" ry="2"/><rect class="c c24" x="770" y="2" rx="2" ry="2"/><rect class="c c25" x="770" y="18" rx="2" ry="2"/><rect class="c c26" x="770" y="34" rx="2" ry="2"/><rect class="c c27" x="770" y="50" rx="2" ry="2"/><rect class="c c28" x="770" y="66" rx="2" ry="2"/><rect class="c c29" x="770" y="82" rx="2" ry="2"/><rect class="c c2a" x="770" y="98" rx="2" ry="2"/><rect class="c c2b" x="786" y="2" rx="2" ry="2"/><rect class="c c2c" x="786" y="18" rx="2" ry="2"/><rect class="c c2d" x="786" y="34" rx="2" ry="2"/><rect class="c c2e" x="786" y="50" rx="2" ry="2"/><rect class="c c2f" x="786" y="66" rx="2" ry="2"/><rect class="c c2g" x="786" y="82" rx="2" ry="2"/><rect class="c c2h" x="786" y="98" rx="2" ry="2"/><rect class="c c2i" x="802" y="2" rx="2" ry="2"/><rect class="c c2j" x="802" y="18" rx="2" ry="2"/><rect class="c c2k" x="802" y="34" rx="2" ry="2"/><rect class="c c2l" x="802" y="50" rx="2" ry="2"/><rect class="c c2m" x="802" y="66" rx="2" ry="2"/><rect class="c c2n" x="802" y="82" rx="2" ry="2"/><rect class="c c2o" x="802" y="98" rx="2" ry="2"/><rect class="c c2p" x="818" y="2" rx="2" ry="2"/><rect class="c c2q" x="818" y="18" rx="2" ry="2"/><rect class="c c2r" x="818" y="34" rx="2" ry="2"/><rect class="c c2s" x="818" y="50" rx="2" ry="2"/><rect class="c c2t" x="818" y="66" rx="2" ry="2"/><rect class="c c2u" x="818" y="82" rx="2" ry="2"/><rect class="c c2v" x="818" y="98" rx="2" ry="2"/><rect class="c c2w" x="834" y="2" rx="2" ry="2"/><rect class="c c2x" x="834" y="18" rx="2" ry="2"/><rect class="c c2y" x="834" y="34" rx="2" ry="2"/><rect class="u u0" height="12" width="745.6" x="0.0" y="144"/><rect class="u u1" height="12" width="71.9" x="745.0" y="144"/><rect class="u u2" height="12" width="16.5" x="816.3" y="144"/><rect class="u u3" height="12" width="16.5" x="832.1" y="144"/><rect class="s s0" x="0.8" y="0.8" width="14.4" height="14.4" rx="4.5" ry="4.5"/><rect class="s s1" x="1.8" y="1.8" width="12.3" height="12.3" rx="4.1" ry="4.1"/><rect class="s s2" x="2.6" y="2.6" width="10.8" height="10.8" rx="3.6" ry="3.6"/><rect class="s s3" x="3.0" y="3.0" width="9.9" height="9.9" rx="3.3" ry="3.3"/></svg>