<svg viewBox="-16 -32 880 192" width="880" height="192" xmlns="http://www.w3.org/2000/svg"><desc>Generated with https://github.com/Platane/snk</desc><style>:root{--cb:#1b1f230a;--cs:white;--ce:#0a0e12;--c0:#0a0e12;--c1:#1445a2;--c2:#1d65ee;--c3:#1f4eff;--c4:#466dff}.c{shape-rendering:geometricPrecision;fill:var(--ce);stroke-width:1px;stroke:var(--cb);animation:none 30300ms linear infinite;width:12px;height:12px}@keyframes c0{1.31%{fill:var(--c1)}1.33%,100%{fill:var(--ce)}}.c.c0{fill:var(--c1);animation-name:c0}@keyframes c1{2.96%{fill:var(--c1)}2.98%,100%{fill:var(--ce)}}.c.c1{fill:var(--c1);animation-name:c1}@keyframes c2{2.3%{fill:var(--c1)}2.32%,100%{fill:var(--ce)}}.c.c2{fill:var(--c1);animation-name:c2}@keyframes c3{60.39%{fill:var(--c2)}60.41%,100%{fill:var(--ce)}}.c.c3{fill:var(--c2);animation-name:c3}@keyframes c4{60.72%{fill:var(--c3)}60.74%,100%{fill:var(--ce)}}.c.c4{fill:var(--c3);animation-name:c4}@keyframes c5{57.42%{fill:var(--c2)}57.44%,100%{fill:var(--ce)}}.c.c5{fill:var(--c2);animation-name:c5}@keyframes c6{53.79%{fill:var(--c2)}53.81%,100%{fill:var(--ce)}}.c.c6{fill:var(--c2);animation-name:c6}@keyframes c7{6.92%{fill:var(--c1)}6.94%,100%{fill:var(--ce)}}.c.c7{fill:var(--c1);animation-name:c7}@keyframes c8{55.77%{fill:var(--c2)}55.79%,100%{fill:var(--ce)}}.c.c8{fill:var(--c2);animation-name:c8}@keyframes c9{92.4%{fill:var(--c4)}92.42%,100%{fill:var(--ce)}}.c.c9{fill:var(--c4);animation-name:c9}@keyframes ca{8.24%{fill:var(--c1)}8.26%,100%{fill:var(--ce)}}.c.ca{fill:var(--c1);animation-name:ca}@keyframes cb{7.91%{fill:var(--c1)}7.93%,100%{fill:var(--ce)}}.c.cb{fill:var(--c1);animation-name:cb}@keyframes cc{8.9%{fill:var(--c1)}8.92%,100%{fill:var(--ce)}}.c.cc{fill:var(--c1);animation-name:cc}@keyframes cd{9.23%{fill:var(--c1)}9.25%,100%{fill:var(--ce)}}.c.cd{fill:var(--c1);animation-name:cd}@keyframes ce{66%{fill:var(--c3)}66.02%,100%{fill:var(--ce)}}.c.ce{fill:var(--c3);animation-name:ce}@keyframes cf{10.88%{fill:var(--c1)}10.9%,100%{fill:var(--ce)}}.c.cf{fill:var(--c1);animation-name:cf}@keyframes cg{12.53%{fill:var(--c1)}12.55%,100%{fill:var(--ce)}}.c.cg{fill:var(--c1);animation-name:cg}@keyframes ch{12.2%{fill:var(--c1)}12.22%,100%{fill:var(--ce)}}.c.ch{fill:var(--c1);animation-name:ch}@keyframes ci{15.17%{fill:var(--c1)}15.19%,100%{fill:var(--ce)}}.c.ci{fill:var(--c1);animation-name:ci}@keyframes cj{69.96%{fill:var(--c3)}69.98%,100%{fill:var(--ce)}}.c.cj{fill:var(--c3);animation-name:cj}@keyframes ck{15.5%{fill:var(--c1)}15.52%,100%{fill:var(--ce)}}.c.ck{fill:var(--c1);animation-name:ck}@keyframes cl{16.49%{fill:var(--c1)}16.51%,100%{fill:var(--ce)}}.c.cl{fill:var(--c1);animation-name:cl}@keyframes cm{17.15%{fill:var(--c1)}17.17%,100%{fill:var(--ce)}}.c.cm{fill:var(--c1);animation-name:cm}@keyframes cn{42.89%{fill:var(--c2)}42.91%,100%{fill:var(--ce)}}.c.cn{fill:var(--c2);animation-name:cn}@keyframes co{41.24%{fill:var(--c2)}41.26%,100%{fill:var(--ce)}}.c.co{fill:var(--c2);animation-name:co}@keyframes cp{19.46%{fill:var(--c1)}19.48%,100%{fill:var(--ce)}}.c.cp{fill:var(--c1);animation-name:cp}@keyframes cq{19.13%{fill:var(--c1)}19.15%,100%{fill:var(--ce)}}.c.cq{fill:var(--c1);animation-name:cq}@keyframes cr{18.47%{fill:var(--c1)}18.49%,100%{fill:var(--ce)}}.c.cr{fill:var(--c1);animation-name:cr}@keyframes cs{22.76%{fill:var(--c1)}22.78%,100%{fill:var(--ce)}}.c.cs{fill:var(--c1);animation-name:cs}@keyframes ct{39.92%{fill:var(--c2)}39.94%,100%{fill:var(--ce)}}.c.ct{fill:var(--c2);animation-name:ct}@keyframes cu{38.93%{fill:var(--c2)}38.95%,100%{fill:var(--ce)}}.c.cu{fill:var(--c2);animation-name:cu}@keyframes cv{21.44%{fill:var(--c1)}21.46%,100%{fill:var(--ce)}}.c.cv{fill:var(--c1);animation-name:cv}@keyframes cw{44.87%{fill:var(--c2)}44.89%,100%{fill:var(--ce)}}.c.cw{fill:var(--c2);animation-name:cw}@keyframes cx{82.83%{fill:var(--c4)}82.85%,100%{fill:var(--ce)}}.c.cx{fill:var(--c4);animation-name:cx}@keyframes cy{38.27%{fill:var(--c2)}38.29%,100%{fill:var(--ce)}}.c.cy{fill:var(--c2);animation-name:cy}@keyframes cz{25.73%{fill:var(--c1)}25.75%,100%{fill:var(--ce)}}.c.cz{fill:var(--c1);animation-name:cz}@keyframes c10{36.29%{fill:var(--c2)}36.31%,100%{fill:var(--ce)}}.c.c10{fill:var(--c2);animation-name:c10}@keyframes c11{31.01%{fill:var(--c1)}31.03%,100%{fill:var(--ce)}}.c.c11{fill:var(--c1);animation-name:c11}@keyframes c12{33.98%{fill:var(--c2)}34%,100%{fill:var(--ce)}}.c.c12{fill:var(--c2);animation-name:c12}@keyframes c13{28.37%{fill:var(--c1)}28.39%,100%{fill:var(--ce)}}.c.c13{fill:var(--c1);animation-name:c13}@keyframes c14{31.34%{fill:var(--c2)}31.36%,100%{fill:var(--ce)}}.c.c14{fill:var(--c2);animation-name:c14}@keyframes c15{77.22%{fill:var(--c3)}77.24%,100%{fill:var(--ce)}}.c.c15{fill:var(--c3);animation-name:c15}@keyframes c16{31.67%{fill:var(--c2)}31.69%,100%{fill:var(--ce)}}.c.c16{fill:var(--c2);animation-name:c16}@keyframes c17{77.88%{fill:var(--c4)}77.9%,100%{fill:var(--ce)}}.c.c17{fill:var(--c4);animation-name:c17}@keyframes c18{29.36%{fill:var(--c1)}29.38%,100%{fill:var(--ce)}}.c.c18{fill:var(--c1);animation-name:c18}.u{transform-origin:0 0;transform:scale(0,1);animation:none linear 30300ms infinite}@keyframes u0{1.31%{transform:scale(0.000,1)}1.33%,2.3%{transform:scale(0.042,1)}2.32%,2.96%{transform:scale(0.083,1)}2.98%,6.92%{transform:scale(0.125,1)}6.94%,7.91%{transform:scale(0.167,1)}7.93%,8.24%{transform:scale(0.208,1)}8.26%,8.9%{transform:scale(0.250,1)}8.92%,9.23%{transform:scale(0.292,1)}9.25%,10.88%{transform:scale(0.333,1)}10.9%,12.2%{transform:scale(0.375,1)}12.22%,12.53%{transform:scale(0.417,1)}12.55%,15.17%{transform:scale(0.458,1)}15.19%,15.5%{transform:scale(0.500,1)}15.52%,16.49%{transform:scale(0.542,1)}16.51%,17.15%{transform:scale(0.583,1)}17.17%,18.47%{transform:scale(0.625,1)}18.49%,19.13%{transform:scale(0.667,1)}19.15%,19.46%{transform:scale(0.708,1)}19.48%,21.44%{transform:scale(0.750,1)}21.46%,22.76%{transform:scale(0.792,1)}22.78%,25.73%{transform:scale(0.833,1)}25.75%,28.37%{transform:scale(0.875,1)}28.39%,29.36%{transform:scale(0.917,1)}29.38%,31.01%{transform:scale(0.958,1)}31.03%,100%{transform:scale(1.000,1)}}.u.u0{fill:var(--c1);animation-name:u0;transform-origin:0.0px 0}@keyframes u1{31.34%{transform:scale(0.000,1)}31.36%,31.67%{transform:scale(0.071,1)}31.69%,33.98%{transform:scale(0.143,1)}34%,36.29%{transform:scale(0.214,1)}36.31%,38.27%{transform:scale(0.286,1)}38.29%,38.93%{transform:scale(0.357,1)}38.95%,39.92%{transform:scale(0.429,1)}39.94%,41.24%{transform:scale(0.500,1)}41.26%,42.89%{transform:scale(0.571,1)}42.91%,44.87%{transform:scale(0.643,1)}44.89%,53.79%{transform:scale(0.714,1)}53.81%,55.77%{transform:scale(0.786,1)}55.79%,57.42%{transform:scale(0.857,1)}57.44%,60.39%{transform:scale(0.929,1)}60.41%,100%{transform:scale(1.000,1)}}.u.u1{fill:var(--c2);animation-name:u1;transform-origin:452.3px 0}@keyframes u2{60.72%{transform:scale(0.000,1)}60.74%,66%{transform:scale(0.250,1)}66.02%,69.96%{transform:scale(0.500,1)}69.98%,77.22%{transform:scale(0.750,1)}77.24%,100%{transform:scale(1.000,1)}}.u.u2{fill:var(--c3);animation-name:u2;transform-origin:716.1px 0}@keyframes u3{77.88%{transform:scale(0.000,1)}77.9%,82.83%{transform:scale(0.333,1)}82.85%,92.4%{transform:scale(0.667,1)}92.42%,100%{transform:scale(1.000,1)}}.u.u3{fill:var(--c4);animation-name:u3;transform-origin:791.5px 0}.s{shape-rendering:geometricPrecision;fill:var(--cs);animation:none linear 30300ms infinite}@keyframes s0{0%,99.67%{transform:translate(0px,-16px)}0.33%{transform:translate(0px,0px)}0.99%{transform:translate(32px,0px)}1.32%{transform:translate(32px,16px)}1.98%{transform:translate(64px,16px)}2.31%{transform:translate(64px,32px)}2.64%{transform:translate(48px,32px)}2.97%{transform:translate(48px,48px)}6.6%{transform:translate(224px,48px)}6.93%{transform:translate(224px,32px)}7.59%{transform:translate(256px,32px)}8.25%{transform:translate(256px,0px)}8.91%{transform:translate(288px,0px)}9.24%{transform:translate(288px,16px)}9.57%{transform:translate(304px,16px)}10.56%{transform:translate(304px,64px)}10.89%{transform:translate(288px,64px)}11.22%,65.35%{transform:translate(288px,80px)}12.21%{transform:translate(336px,80px)}12.54%{transform:translate(336px,64px)}14.85%{transform:translate(448px,64px)}15.18%{transform:translate(448px,48px)}15.84%{transform:translate(480px,48px)}16.5%{transform:translate(480px,80px)}17.16%{transform:translate(512px,80px)}17.49%{transform:translate(512px,64px)}18.15%{transform:translate(544px,64px)}19.47%{transform:translate(544px,0px)}20.79%{transform:translate(608px,0px)}21.45%{transform:translate(608px,32px)}22.11%{transform:translate(576px,32px)}23.1%{transform:translate(576px,80px)}25.41%,36.63%{transform:translate(688px,80px)}25.74%,36.96%{transform:translate(688px,64px)}27.72%{transform:translate(784px,64px)}28.05%{transform:translate(784px,80px)}29.04%{transform:translate(832px,80px)}29.37%{transform:translate(832px,64px)}29.7%{transform:translate(816px,64px)}30.03%,78.22%{transform:translate(816px,48px)}30.36%{transform:translate(800px,48px)}31.02%{transform:translate(800px,16px)}32.01%{transform:translate(848px,16px)}33%{transform:translate(848px,64px)}35.97%{transform:translate(704px,64px)}36.3%{transform:translate(704px,80px)}39.27%{transform:translate(576px,64px)}39.93%{transform:translate(576px,96px)}40.26%{transform:translate(560px,96px)}40.59%{transform:translate(560px,80px)}41.25%{transform:translate(528px,80px)}42.9%{transform:translate(528px,0px)}44.88%{transform:translate(624px,0px)}45.21%{transform:translate(624px,-16px)}53.47%{transform:translate(224px,-16px)}53.8%{transform:translate(224px,0px)}54.13%{transform:translate(240px,0px)}55.78%{transform:translate(240px,80px)}57.1%{transform:translate(176px,80px)}57.43%{transform:translate(176px,96px)}57.76%{transform:translate(160px,96px)}58.42%{transform:translate(160px,64px)}60.4%{transform:translate(64px,64px)}60.73%{transform:translate(64px,80px)}66.01%{transform:translate(288px,48px)}69.64%{transform:translate(464px,48px)}69.97%{transform:translate(464px,32px)}77.56%{transform:translate(832px,32px)}77.89%{transform:translate(832px,48px)}78.88%{transform:translate(816px,16px)}90.76%{transform:translate(240px,16px)}92.41%{transform:translate(240px,96px)}93.4%{transform:translate(192px,96px)}94.39%{transform:translate(192px,48px)}95.71%{transform:translate(128px,48px)}96.37%{transform:translate(128px,16px)}96.7%{transform:translate(112px,16px)}97.03%{transform:translate(112px,0px)}98.02%{transform:translate(64px,0px)}98.35%{transform:translate(64px,-16px)}}.s.s0{transform:translate(0px,-16px);animation-name:s0}@keyframes s1{0%,99.67%{transform:translate(16px,-16px)}0.33%{transform:translate(0px,-16px)}0.66%{transform:translate(0px,0px)}1.32%{transform:translate(32px,0px)}1.65%{transform:translate(32px,16px)}2.31%{transform:translate(64px,16px)}2.64%{transform:translate(64px,32px)}2.97%{transform:translate(48px,32px)}3.3%{transform:translate(48px,48px)}6.93%{transform:translate(224px,48px)}7.26%{transform:translate(224px,32px)}7.92%{transform:translate(256px,32px)}8.58%{transform:translate(256px,0px)}9.24%{transform:translate(288px,0px)}9.57%{transform:translate(288px,16px)}9.9%{transform:translate(304px,16px)}10.89%{transform:translate(304px,64px)}11.22%{transform:translate(288px,64px)}11.55%,65.68%{transform:translate(288px,80px)}12.54%{transform:translate(336px,80px)}12.87%{transform:translate(336px,64px)}15.18%{transform:translate(448px,64px)}15.51%{transform:translate(448px,48px)}16.17%{transform:translate(480px,48px)}16.83%{transform:translate(480px,80px)}17.49%{transform:translate(512px,80px)}17.82%{transform:translate(512px,64px)}18.48%{transform:translate(544px,64px)}19.8%{transform:translate(544px,0px)}21.12%{transform:translate(608px,0px)}21.78%{transform:translate(608px,32px)}22.44%{transform:translate(576px,32px)}23.43%{transform:translate(576px,80px)}25.74%,36.96%{transform:translate(688px,80px)}26.07%,37.29%{transform:translate(688px,64px)}28.05%{transform:translate(784px,64px)}28.38%{transform:translate(784px,80px)}29.37%{transform:translate(832px,80px)}29.7%{transform:translate(832px,64px)}30.03%{transform:translate(816px,64px)}30.36%,78.55%{transform:translate(816px,48px)}30.69%{transform:translate(800px,48px)}31.35%{transform:translate(800px,16px)}32.34%{transform:translate(848px,16px)}33.33%{transform:translate(848px,64px)}36.3%{transform:translate(704px,64px)}36.63%{transform:translate(704px,80px)}39.6%{transform:translate(576px,64px)}40.26%{transform:translate(576px,96px)}40.59%{transform:translate(560px,96px)}40.92%{transform:translate(560px,80px)}41.58%{transform:translate(528px,80px)}43.23%{transform:translate(528px,0px)}45.21%{transform:translate(624px,0px)}45.54%{transform:translate(624px,-16px)}53.8%{transform:translate(224px,-16px)}54.13%{transform:translate(224px,0px)}54.46%{transform:translate(240px,0px)}56.11%{transform:translate(240px,80px)}57.43%{transform:translate(176px,80px)}57.76%{transform:translate(176px,96px)}58.09%{transform:translate(160px,96px)}58.75%{transform:translate(160px,64px)}60.73%{transform:translate(64px,64px)}61.06%{transform:translate(64px,80px)}66.34%{transform:translate(288px,48px)}69.97%{transform:translate(464px,48px)}70.3%{transform:translate(464px,32px)}77.89%{transform:translate(832px,32px)}78.22%{transform:translate(832px,48px)}79.21%{transform:translate(816px,16px)}91.09%{transform:translate(240px,16px)}92.74%{transform:translate(240px,96px)}93.73%{transform:translate(192px,96px)}94.72%{transform:translate(192px,48px)}96.04%{transform:translate(128px,48px)}96.7%{transform:translate(128px,16px)}97.03%{transform:translate(112px,16px)}97.36%{transform:translate(112px,0px)}98.35%{transform:translate(64px,0px)}98.68%{transform:translate(64px,-16px)}}.s.s1{transform:translate(16px,-16px);animation-name:s1}@keyframes s2{0%,99.67%{transform:translate(32px,-16px)}0.66%{transform:translate(0px,-16px)}0.99%{transform:translate(0px,0px)}1.65%{transform:translate(32px,0px)}1.98%{transform:translate(32px,16px)}2.64%{transform:translate(64px,16px)}2.97%{transform:translate(64px,32px)}3.3%{transform:translate(48px,32px)}3.63%{transform:translate(48px,48px)}7.26%{transform:translate(224px,48px)}7.59%{transform:translate(224px,32px)}8.25%{transform:translate(256px,32px)}8.91%{transform:translate(256px,0px)}9.57%{transform:translate(288px,0px)}9.9%{transform:translate(288px,16px)}10.23%{transform:translate(304px,16px)}11.22%{transform:translate(304px,64px)}11.55%{transform:translate(288px,64px)}11.88%,66.01%{transform:translate(288px,80px)}12.87%{transform:translate(336px,80px)}13.2%{transform:translate(336px,64px)}15.51%{transform:translate(448px,64px)}15.84%{transform:translate(448px,48px)}16.5%{transform:translate(480px,48px)}17.16%{transform:translate(480px,80px)}17.82%{transform:translate(512px,80px)}18.15%{transform:translate(512px,64px)}18.81%{transform:translate(544px,64px)}20.13%{transform:translate(544px,0px)}21.45%{transform:translate(608px,0px)}22.11%{transform:translate(608px,32px)}22.77%{transform:translate(576px,32px)}23.76%{transform:translate(576px,80px)}26.07%,37.29%{transform:translate(688px,80px)}26.4%,37.62%{transform:translate(688px,64px)}28.38%{transform:translate(784px,64px)}28.71%{transform:translate(784px,80px)}29.7%{transform:translate(832px,80px)}30.03%{transform:translate(832px,64px)}30.36%{transform:translate(816px,64px)}30.69%,78.88%{transform:translate(816px,48px)}31.02%{transform:translate(800px,48px)}31.68%{transform:translate(800px,16px)}32.67%{transform:translate(848px,16px)}33.66%{transform:translate(848px,64px)}36.63%{transform:translate(704px,64px)}36.96%{transform:translate(704px,80px)}39.93%{transform:translate(576px,64px)}40.59%{transform:translate(576px,96px)}40.92%{transform:translate(560px,96px)}41.25%{transform:translate(560px,80px)}41.91%{transform:translate(528px,80px)}43.56%{transform:translate(528px,0px)}45.54%{transform:translate(624px,0px)}45.87%{transform:translate(624px,-16px)}54.13%{transform:translate(224px,-16px)}54.46%{transform:translate(224px,0px)}54.79%{transform:translate(240px,0px)}56.44%{transform:translate(240px,80px)}57.76%{transform:translate(176px,80px)}58.09%{transform:translate(176px,96px)}58.42%{transform:translate(160px,96px)}59.08%{transform:translate(160px,64px)}61.06%{transform:translate(64px,64px)}61.39%{transform:translate(64px,80px)}66.67%{transform:translate(288px,48px)}70.3%{transform:translate(464px,48px)}70.63%{transform:translate(464px,32px)}78.22%{transform:translate(832px,32px)}78.55%{transform:translate(832px,48px)}79.54%{transform:translate(816px,16px)}91.42%{transform:translate(240px,16px)}93.07%{transform:translate(240px,96px)}94.06%{transform:translate(192px,96px)}95.05%{transform:translate(192px,48px)}96.37%{transform:translate(128px,48px)}97.03%{transform:translate(128px,16px)}97.36%{transform:translate(112px,16px)}97.69%{transform:translate(112px,0px)}98.68%{transform:translate(64px,0px)}99.01%{transform:translate(64px,-16px)}}.s.s2{transform:translate(32px,-16px);animation-name:s2}@keyframes s3{0%,99.67%{transform:translate(48px,-16px)}0.99%{transform:translate(0px,-16px)}1.32%{transform:translate(0px,0px)}1.98%{transform:translate(32px,0px)}2.31%{transform:translate(32px,16px)}2.97%{transform:translate(64px,16px)}3.3%{transform:translate(64px,32px)}3.63%{transform:translate(48px,32px)}3.96%{transform:translate(48px,48px)}7.59%{transform:translate(224px,48px)}7.92%{transform:translate(224px,32px)}8.58%{transform:translate(256px,32px)}9.24%{transform:translate(256px,0px)}9.9%{transform:translate(288px,0px)}10.23%{transform:translate(288px,16px)}10.56%{transform:translate(304px,16px)}11.55%{transform:translate(304px,64px)}11.88%{transform:translate(288px,64px)}12.21%,66.34%{transform:translate(288px,80px)}13.2%{transform:translate(336px,80px)}13.53%{transform:translate(336px,64px)}15.84%{transform:translate(448px,64px)}16.17%{transform:translate(448px,48px)}16.83%{transform:translate(480px,48px)}17.49%{transform:translate(480px,80px)}18.15%{transform:translate(512px,80px)}18.48%{transform:translate(512px,64px)}19.14%{transform:translate(544px,64px)}20.46%{transform:translate(544px,0px)}21.78%{transform:translate(608px,0px)}22.44%{transform:translate(608px,32px)}23.1%{transform:translate(576px,32px)}24.09%{transform:translate(576px,80px)}26.4%,37.62%{transform:translate(688px,80px)}26.73%,37.95%{transform:translate(688px,64px)}28.71%{transform:translate(784px,64px)}29.04%{transform:translate(784px,80px)}30.03%{transform:translate(832px,80px)}30.36%{transform:translate(832px,64px)}30.69%{transform:translate(816px,64px)}31.02%,79.21%{transform:translate(816px,48px)}31.35%{transform:translate(800px,48px)}32.01%{transform:translate(800px,16px)}33%{transform:translate(848px,16px)}33.99%{transform:translate(848px,64px)}36.96%{transform:translate(704px,64px)}37.29%{transform:translate(704px,80px)}40.26%{transform:translate(576px,64px)}40.92%{transform:translate(576px,96px)}41.25%{transform:translate(560px,96px)}41.58%{transform:translate(560px,80px)}42.24%{transform:translate(528px,80px)}43.89%{transform:translate(528px,0px)}45.87%{transform:translate(624px,0px)}46.2%{transform:translate(624px,-16px)}54.46%{transform:translate(224px,-16px)}54.79%{transform:translate(224px,0px)}55.12%{transform:translate(240px,0px)}56.77%{transform:translate(240px,80px)}58.09%{transform:translate(176px,80px)}58.42%{transform:translate(176px,96px)}58.75%{transform:translate(160px,96px)}59.41%{transform:translate(160px,64px)}61.39%{transform:translate(64px,64px)}61.72%{transform:translate(64px,80px)}67%{transform:translate(288px,48px)}70.63%{transform:translate(464px,48px)}70.96%{transform:translate(464px,32px)}78.55%{transform:translate(832px,32px)}78.88%{transform:translate(832px,48px)}79.87%{transform:translate(816px,16px)}91.75%{transform:translate(240px,16px)}93.4%{transform:translate(240px,96px)}94.39%{transform:translate(192px,96px)}95.38%{transform:translate(192px,48px)}96.7%{transform:translate(128px,48px)}97.36%{transform:translate(128px,16px)}97.69%{transform:translate(112px,16px)}98.02%{transform:translate(112px,0px)}99.01%{transform:translate(64px,0px)}99.34%{transform:translate(64px,-16px)}}.s.s3{transform:translate(48px,-16px);animation-name:s3}</style><rect class="c" x="2" y="2" rx="2" ry="2"/><rect class="c" x="2" y="18" rx="2" ry="2"/><rect class="c" x="2" y="34" rx="2" ry="2"/><rect class="c" x="2" y="50" rx="2" ry="2"/><rect class="c" x="2" y="66" rx="2" ry="2"/><rect class="c" x="2" y="82" rx="2" ry="2"/><rect class="c" x="2" y="98" rx="2" ry="2"/><rect class="c" x="18" y="2" rx="2" ry="2"/><rect class="c" x="18" y="18" rx="2" ry="2"/><rect class="c" x="18" y="34" rx="2" ry="2"/><rect class="c" x="18" y="50" rx="2" ry="2"/><rect class="c" x="18" y="66" rx="2" ry="2"/><rect class="c" x="18" y="82" rx="2" ry="2"/><rect class="c" x="18" y="98" rx="2" ry="2"/><rect class="c" x="34" y="2" rx="2" ry="2"/><rect class="c c0" x="34" y="18" rx="2" ry="2"/><rect class="c" x="34" y="34" rx="2" ry="2"/><rect class="c" x="34" y="50" rx="2" ry="2"/><rect class="c" x="34" y="66" rx="2" ry="2"/><rect class="c" x="34" y="82" rx="2" ry="2"/><rect class="c" x="34" y="98" rx="2" ry="2"/><rect class="c" x="50" y="2" rx="2" ry="2"/><rect class="c" x="50" y="18" rx="2" ry="2"/><rect class="c" x="50" y="34" rx="2" ry="2"/><rect class="c c1" x="50" y="50" rx="2" ry="2"/><rect class="c" x="50" y="66" rx="2" ry="2"/><rect class="c" x="50" y="82" rx="2" ry="2"/><rect class="c" x="50" y="98" rx="2" ry="2"/><rect class="c" x="66" y="2" rx="2" ry="2"/><rect class="c" x="66" y="18" rx="2" ry="2"/><rect class="c c2" x="66" y="34" rx="2" ry="2"/><rect class="c" x="66" y="50" rx="2" ry="2"/><rect class="c c3" x="66" y="66" rx="2" ry="2"/><rect class="c c4" x="66" y="82" rx="2" ry="2"/><rect class="c" x="66" y="98" rx="2" ry="2"/><rect class="c" x="82" y="2" rx="2" ry="2"/><rect class="c" x="82" y="18" rx="2" ry="2"/><rect class="c" x="82" y="34" rx="2" ry="2"/><rect class="c" x="82" y="50" rx="2" ry="2"/><rect class="c" x="82" y="66" rx="2" ry="2"/><rect class="c" x="82" y="82" rx="2" ry="2"/><rect class="c" x="82" y="98" rx="2" ry="2"/><rect class="c" x="98" y="2" rx="2" ry="2"/><rect class="c" x="98" y="18" rx="2" ry="2"/><rect class="c" x="98" y="34" rx="2" ry="2"/><rect class="c" x="98" y="50" rx="2" ry="2"/><rect class="c" x="98" y="66" rx="2" ry="2"/><rect class="c" x="98" y="82" rx="2" ry="2"/><rect class="c" x="98" y="98" rx="2" ry="2"/><rect class="c" x="114" y="2" rx="2" ry="2"/><rect class="c" x="114" y="18" rx="2" ry="2"/><rect class="c" x="114" y="34" rx="2" ry="2"/><rect class="c" x="114" y="50" rx="2" ry="2"/><rect class="c" x="114" y="66" rx="2" ry="2"/><rect class="c" x="114" y="82" rx="2" ry="2"/><rect class="c" x="114" y="98" rx="2" ry="2"/><rect class="c" x="130" y="2" rx="2" ry="2"/><rect class="c" x="130" y="18" rx="2" ry="2"/><rect class="c" x="130" y="34" rx="2" ry="2"/><rect class="c" x="130" y="50" rx="2" ry="2"/><rect class="c" x="130" y="66" rx="2" ry="2"/><rect class="c" x="130" y="82" rx="2" ry="2"/><rect class="c" x="130" y="98" rx="2" ry="2"/><rect class="c" x="146" y="2" rx="2" ry="2"/><rect class="c" x="146" y="18" rx="2" ry="2"/><rect class="c" x="146" y="34" rx="2" ry="2"/><rect class="c" x="146" y="50" rx="2" ry="2"/><rect class="c" x="146" y="66" rx="2" ry="2"/><rect class="c" x="146" y="82" rx="2" ry="2"/><rect class="c" x="146" y="98" rx="2" ry="2"/><rect class="c" x="162" y="2" rx="2" ry="2"/><rect class="c" x="162" y="18" rx="2" ry="2"/><rect class="c" x="162" y="34" rx="2" ry="2"/><rect class="c" x="162" y="50" rx="2" ry="2"/><rect class="c" x="162" y="66" rx="2" ry="2"/><rect class="c" x="162" y="82" rx="2" ry="2"/><rect class="c" x="162" y="98" rx="2" ry="2"/><rect class="c" x="178" y="2" rx="2" ry="2"/><rect class="c" x="178" y="18" rx="2" ry="2"/><rect class="c" x="178" y="34" rx="2" ry="2"/><rect class="c" x="178" y="50" rx="2" ry="2"/><rect class="c" x="178" y="66" rx="2" ry="2"/><rect class="c" x="178" y="82" rx="2" ry="2"/><rect class="c c5" x="178" y="98" rx="2" ry="2"/><rect class="c" x="194" y="2" rx="2" ry="2"/><rect class="c" x="194" y="18" rx="2" ry="2"/><rect class="c" x="194" y="34" rx="2" ry="2"/><rect class="c" x="194" y="50" rx="2" ry="2"/><rect class="c" x="194" y="66" rx="2" ry="2"/><rect class="c" x="194" y="82" rx="2" ry="2"/><rect class="c" x="194" y="98" rx="2" ry="2"/><rect class="c" x="210" y="2" rx="2" ry="2"/><rect class="c" x="210" y="18" rx="2" ry="2"/><rect class="c" x="210" y="34" rx="2" ry="2"/><rect class="c" x="210" y="50" rx="2" ry="2"/><rect class="c" x="210" y="66" rx="2" ry="2"/><rect class="c" x="210" y="82" rx="2" ry="2"/><rect class="c" x="210" y="98" rx="2" ry="2"/><rect class="c c6" x="226" y="2" rx="2" ry="2"/><rect class="c" x="226" y="18" rx="2" ry="2"/><rect class="c c7" x="226" y="34" rx="2" ry="2"/><rect class="c" x="226" y="50" rx="2" ry="2"/><rect class="c" x="226" y="66" rx="2" ry="2"/><rect class="c" x="226" y="82" rx="2" ry="2"/><rect class="c" x="226" y="98" rx="2" ry="2"/><rect class="c" x="242" y="2" rx="2" ry="2"/><rect class="c" x="242" y="18" rx="2" ry="2"/><rect class="c" x="242" y="34" rx="2" ry="2"/><rect class="c" x="242" y="50" rx="2" ry="2"/><rect class="c" x="242" y="66" rx="2" ry="2"/><rect class="c c8" x="242" y="82" rx="2" ry="2"/><rect class="c c9" x="242" y="98" rx="2" ry="2"/><rect class="c ca" x="258" y="2" rx="2" ry="2"/><rect class="c cb" x="258" y="18" rx="2" ry="2"/><rect class="c" x="258" y="34" rx="2" ry="2"/><rect class="c" x="258" y="50" rx="2" ry="2"/><rect class="c" x="258" y="66" rx="2" ry="2"/><rect class="c" x="258" y="82" rx="2" ry="2"/><rect class="c" x="258" y="98" rx="2" ry="2"/><rect class="c" x="274" y="2" rx="2" ry="2"/><rect class="c" x="274" y="18" rx="2" ry="2"/><rect class="c" x="274" y="34" rx="2" ry="2"/><rect class="c" x="274" y="50" rx="2" ry="2"/><rect class="c" x="274" y="66" rx="2" ry="2"/><rect class="c" x="274" y="82" rx="2" ry="2"/><rect class="c" x="274" y="98" rx="2" ry="2"/><rect class="c cc" x="290" y="2" rx="2" ry="2"/><rect class="c cd" x="290" y="18" rx="2" ry="2"/><rect class="c" x="290" y="34" rx="2" ry="2"/><rect class="c ce" x="290" y="50" rx="2" ry="2"/><rect class="c cf" x="290" y="66" rx="2" ry="2"/><rect class="c" x="290" y="82" rx="2" ry="2"/><rect class="c" x="290" y="98" rx="2" ry="2"/><rect class="c" x="306" y="2" rx="2" ry="2"/><rect class="c" x="306" y="18" rx="2" ry="2"/><rect class="c" x="306" y="34" rx="2" ry="2"/><rect class="c" x="306" y="50" rx="2" ry="2"/><rect class="c" x="306" y="66" rx="2" ry="2"/><rect class="c" x="306" y="82" rx="2" ry="2"/><rect class="c" x="306" y="98" rx="2" ry="2"/><rect class="c" x="322" y="2" rx="2" ry="2"/><rect class="c" x="322" y="18" rx="2" ry="2"/><rect class="c" x="322" y="34" rx="2" ry="2"/><rect class="c" x="322" y="50" rx="2" ry="2"/><rect class="c" x="322" y="66" rx="2" ry="2"/><rect class="c" x="322" y="82" rx="2" ry="2"/><rect class="c" x="322" y="98" rx="2" ry="2"/><rect class="c" x="338" y="2" rx="2" ry="2"/><rect class="c" x="338" y="18" rx="2" ry="2"/><rect class="c" x="338" y="34" rx="2" ry="2"/><rect class="c" x="338" y="50" rx="2" ry="2"/><rect class="c cg" x="338" y="66" rx="2" ry="2"/><rect class="c ch" x="338" y="82" rx="2" ry="2"/><rect class="c" x="338" y="98" rx="2" ry="2"/><rect class="c" x="354" y="2" rx="2" ry="2"/><rect class="c" x="354" y="18" rx="2" ry="2"/><rect class="c" x="354" y="34" rx="2" ry="2"/><rect class="c" x="354" y="50" rx="2" ry="2"/><rect class="c" x="354" y="66" rx="2" ry="2"/><rect class="c" x="354" y="82" rx="2" ry="2"/><rect class="c" x="354" y="98" rx="2" ry="2"/><rect class="c" x="370" y="2" rx="2" ry="2"/><rect class="c" x="370" y="18" rx="2" ry="2"/><rect class="c" x="370" y="34" rx="2" ry="2"/><rect class="c" x="370" y="50" rx="2" ry="2"/><rect class="c" x="370" y="66" rx="2" ry="2"/><rect class="c" x="370" y="82" rx="2" ry="2"/><rect class="c" x="370" y="98" rx="2" ry="2"/><rect class="c" x="386" y="2" rx="2" ry="2"/><rect class="c" x="386" y="18" rx="2" ry="2"/><rect class="c" x="386" y="34" rx="2" ry="2"/><rect class="c" x="386" y="50" rx="2" ry="2"/><rect class="c" x="386" y="66" rx="2" ry="2"/><rect class="c" x="386" y="82" rx="2" ry="2"/><rect class="c" x="386" y="98" rx="2" ry="2"/><rect class="c" x="402" y="2" rx="2" ry="2"/><rect class="c" x="402" y="18" rx="2" ry="2"/><rect class="c" x="402" y="34" rx="2" ry="2"/><rect class="c" x="402" y="50" rx="2" ry="2"/><rect class="c" x="402" y="66" rx="2" ry="2"/><rect class="c" x="402" y="82" rx="2" ry="2"/><rect class="c" x="402" y="98" rx="2" ry="2"/><rect class="c" x="418" y="2" rx="2" ry="2"/><rect class="c" x="418" y="18" rx="2" ry="2"/><rect class="c" x="418" y="34" rx="2" ry="2"/><rect class="c" x="418" y="50" rx="2" ry="2"/><rect class="c" x="418" y="66" rx="2" ry="2"/><rect class="c" x="418" y="82" rx="2" ry="2"/><rect class="c" x="418" y="98" rx="2" ry="2"/><rect class="c" x="434" y="2" rx="2" ry="2"/><rect class="c" x="434" y="18" rx="2" ry="2"/><rect class="c" x="434" y="34" rx="2" ry="2"/><rect class="c" x="434" y="50" rx="2" ry="2"/><rect class="c" x="434" y="66" rx="2" ry="2"/><rect class="c" x="434" y="82" rx="2" ry="2"/><rect class="c" x="434" y="98" rx="2" ry="2"/><rect class="c" x="450" y="2" rx="2" ry="2"/><rect class="c" x="450" y="18" rx="2" ry="2"/><rect class="c" x="450" y="34" rx="2" ry="2"/><rect class="c ci" x="450" y="50" rx="2" ry="2"/><rect class="c" x="450" y="66" rx="2" ry="2"/><rect class="c" x="450" y="82" rx="2" ry="2"/><rect class="c" x="450" y="98" rx="2" ry="2"/><rect class="c" x="466" y="2" rx="2" ry="2"/><rect class="c" x="466" y="18" rx="2" ry="2"/><rect class="c cj" x="466" y="34" rx="2" ry="2"/><rect class="c ck" x="466" y="50" rx="2" ry="2"/><rect class="c" x="466" y="66" rx="2" ry="2"/><rect class="c" x="466" y="82" rx="2" ry="2"/><rect class="c" x="466" y="98" rx="2" ry="2"/><rect class="c" x="482" y="2" rx="2" ry="2"/><rect class="c" x="482" y="18" rx="2" ry="2"/><rect class="c" x="482" y="34" rx="2" ry="2"/><rect class="c" x="482" y="50" rx="2" ry="2"/><rect class="c" x="482" y="66" rx="2" ry="2"/><rect class="c cl" x="482" y="82" rx="2" ry="2"/><rect class="c" x="482" y="98" rx="2" ry="2"/><rect class="c" x="498" y="2" rx="2" ry="2"/><rect class="c" x="498" y="18" rx="2" ry="2"/><rect class="c" x="498" y="34" rx="2" ry="2"/><rect class="c" x="498" y="50" rx="2" ry="2"/><rect class="c" x="498" y="66" rx="2" ry="2"/><rect class="c" x="498" y="82" rx="2" ry="2"/><rect class="c" x="498" y="98" rx="2" ry="2"/><rect class="c" x="514" y="2" rx="2" ry="2"/><rect class="c" x="514" y="18" rx="2" ry="2"/><rect class="c" x="514" y="34" rx="2" ry="2"/><rect class="c" x="514" y="50" rx="2" ry="2"/><rect class="c" x="514" y="66" rx="2" ry="2"/><rect class="c cm" x="514" y="82" rx="2" ry="2"/><rect class="c" x="514" y="98" rx="2" ry="2"/><rect class="c cn" x="530" y="2" rx="2" ry="2"/><rect class="c" x="530" y="18" rx="2" ry="2"/><rect class="c" x="530" y="34" rx="2" ry="2"/><rect class="c" x="530" y="50" rx="2" ry="2"/><rect class="c" x="530" y="66" rx="2" ry="2"/><rect class="c co" x="530" y="82" rx="2" ry="2"/><rect class="c" x="530" y="98" rx="2" ry="2"/><rect class="c cp" x="546" y="2" rx="2" ry="2"/><rect class="c cq" x="546" y="18" rx="2" ry="2"/><rect class="c" x="546" y="34" rx="2" ry="2"/><rect class="c cr" x="546" y="50" rx="2" ry="2"/><rect class="c" x="546" y="66" rx="2" ry="2"/><rect class="c" x="546" y="82" rx="2" ry="2"/><rect class="c" x="546" y="98" rx="2" ry="2"/><rect class="c" x="562" y="2" rx="2" ry="2"/><rect class="c" x="562" y="18" rx="2" ry="2"/><rect class="c" x="562" y="34" rx="2" ry="2"/><rect class="c" x="562" y="50" rx="2" ry="2"/><rect class="c" x="562" y="66" rx="2" ry="2"/><rect class="c" x="562" y="82" rx="2" ry="2"/><rect class="c" x="562" y="98" rx="2" ry="2"/><rect class="c" x="578" y="2" rx="2" ry="2"/><rect class="c" x="578" y="18" rx="2" ry="2"/><rect class="c" x="578" y="34" rx="2" ry="2"/><rect class="c" x="578" y="50" rx="2" ry="2"/><rect class="c cs" x="578" y="66" rx="2" ry="2"/><rect class="c" x="578" y="82" rx="2" ry="2"/><rect class="c ct" x="578" y="98" rx="2" ry="2"/><rect class="c" x="594" y="2" rx="2" ry="2"/><rect class="c" x="594" y="18" rx="2" ry="2"/><rect class="c" x="594" y="34" rx="2" ry="2"/><rect class="c" x="594" y="50" rx="2" ry="2"/><rect class="c cu" x="594" y="66" rx="2" ry="2"/><rect class="c" x="594" y="82" rx="2" ry="2"/><rect class="c" x="594" y="98" rx="2" ry="2"/><rect class="c" x="610" y="2" rx="2" ry="2"/><rect class="c" x="610" y="18" rx="2" ry="2"/><rect class="c cv" x="610" y="34" rx="2" ry="2"/><rect class="c" x="610" y="50" rx="2" ry="2"/><rect class="c" x="610" y="66" rx="2" ry="2"/><rect class="c" x="610" y="82" rx="2" ry="2"/><rect class="c" x="610" y="98" rx="2" ry="2"/><rect class="c cw" x="626" y="2" rx="2" ry="2"/><rect class="c cx" x="626" y="18" rx="2" ry="2"/><rect class="c" x="626" y="34" rx="2" ry="2"/><rect class="c" x="626" y="50" rx="2" ry="2"/><rect class="c cy" x="626" y="66" rx="2" ry="2"/><rect class="c" x="626" y="82" rx="2" ry="2"/><rect class="c" x="626" y="98" rx="2" ry="2"/><rect class="c" x="642" y="2" rx="2" ry="2"/><rect class="c" x="642" y="18" rx="2" ry="2"/><rect class="c" x="642" y="34" rx="2" ry="2"/><rect class="c" x="642" y="50" rx="2" ry="2"/><rect class="c" x="642" y="66" rx="2" ry="2"/><rect class="c" x="642" y="82" rx="2" ry="2"/><rect class="c" x="642" y="98" rx="2" ry="2"/><rect class="c" x="658" y="2" rx="2" ry="2"/><rect class="c" x="658" y="18" rx="2" ry="2"/><rect class="c" x="658" y="34" rx="2" ry="2"/><rect class="c" x="658" y="50" rx="2" ry="2"/><rect class="c" x="658" y="66" rx="2" ry="2"/><rect class="c" x="658" y="82" rx="2" ry="2"/><rect class="c" x="658" y="98" rx="2" ry="2"/><rect class="c" x="674" y="2" rx="2" ry="2"/><rect class="c" x="674" y="18" rx="2" ry="2"/><rect class="c" x="674" y="34" rx="2" ry="2"/><rect class="c" x="674" y="50" rx="2" ry="2"/><rect class="c" x="674" y="66" rx="2" ry="2"/><rect class="c" x="674" y="82" rx="2" ry="2"/><rect class="c" x="674" y="98" rx="2" ry="2"/><rect class="c" x="690" y="2" rx="2" ry="2"/><rect class="c" x="690" y="18" rx="2" ry="2"/><rect class="c" x="690" y="34" rx="2" ry="2"/><rect class="c" x="690" y="50" rx="2" ry="2"/><rect class="c cz" x="690" y="66" rx="2" ry="2"/><rect class="c" x="690" y="82" rx="2" ry="2"/><rect class="c" x="690" y="98" rx="2" ry="2"/><rect class="c" x="706" y="2" rx="2" ry="2"/><rect class="c" x="706" y="18" rx="2" ry="2"/><rect class="c" x="706" y="34" rx="2" ry="2"/><rect class="c" x="706" y="50" rx="2" ry="2"/><rect class="c" x="706" y="66" rx="2" ry="2"/><rect class="c c10" x="706" y="82" rx="2" ry="2"/><rect class="c" x="706" y="98" rx="2" ry="2"/><rect class="c" x="722" y="2" rx="2" ry="2"/><rect class="c" x="722" y="18" rx="2" ry="2"/><rect class="c" x="722" y="34" rx="2" ry="2"/><rect class="c" x="722" y="50" rx="2" ry="2"/><rect class="c" x="722" y="66" rx="2" ry="2"/><rect class="c" x="722" y="82" rx="2" ry="2"/><rect class="c" x="722" y="98" rx="2" ry="2"/><rect class="c" x="738" y="2" rx="2" ry="2"/><rect class="c" x="738" y="18" rx="2" ry="2"/><rect class="c" x="738" y="34" rx="2" ry="2"/><rect class="c" x="738" y="50" rx="2" ry="2"/><rect class="c" x="738" y="66" rx="2" ry="2"/><rect class="c" x="738" y="82" rx="2" ry="2"/><rect class="c" x="738" y="98" rx="2" ry="2"/><rect class="c" x="754" y="2" rx="2" ry="2"/><rect class="c" x="754" y="18" rx="2" ry="2"/><rect class="c" x="754" y="34" rx="2" ry="2"/><rect class="c" x="754" y="50" rx="2" ry="2"/><rect class="c" x="754" y="66" rx="2" ry="2"/><rect class="c" x="754" y="82" rx="2" ry="2"/><rect class="c" x="754" y="98" rx="2" ry="2"/><rect class="c" x="770" y="2" rx="2" ry="2"/><rect class="c" x="770" y="18" rx="2" ry="2"/><rect class="c" x="770" y="34" rx="2" ry="2"/><rect class="c" x="770" y="50" rx="2" ry="2"/><rect class="c" x="770" y="66" rx="2" ry="2"/><rect class="c" x="770" y="82" rx="2" ry="2"/><rect class="c" x="770" y="98" rx="2" ry="2"/><rect class="c" x="786" y="2" rx="2" ry="2"/><rect class="c" x="786" y="18" rx="2" ry="2"/><rect class="c" x="786" y="34" rx="2" ry="2"/><rect class="c" x="786" y="50" rx="2" ry="2"/><rect class="c" x="786" y="66" rx="2" ry="2"/><rect class="c" x="786" y="82" rx="2" ry="2"/><rect class="c" x="786" y="98" rx="2" ry="2"/><rect class="c" x="802" y="2" rx="2" ry="2"/><rect class="c c11" x="802" y="18" rx="2" ry="2"/><rect class="c" x="802" y="34" rx="2" ry="2"/><rect class="c" x="802" y="50" rx="2" ry="2"/><rect class="c c12" x="802" y="66" rx="2" ry="2"/><rect class="c c13" x="802" y="82" rx="2" ry="2"/><rect class="c" x="802" y="98" rx="2" ry="2"/><rect class="c" x="818" y="2" rx="2" ry="2"/><rect class="c c14" x="818" y="18" rx="2" ry="2"/><rect class="c c15" x="818" y="34" rx="2" ry="2"/><rect class="c" x="818" y="50" rx="2" ry="2"/><rect class="c" x="818" y="66" rx="2" ry="2"/><rect class="c" x="818" y="82" rx="2" ry="2"/><rect class="c" x="818" y="98" rx="2" ry="2"/><rect class="c" x="834" y="2" rx="2" ry="2"/><rect class="c c16" x="834" y="18" rx="2" ry="2"/><rect class="c" x="834" y="34" rx="2" ry="2"/><rect class="c c17" x="834" y="50" rx="2" ry="2"/><rect class="c c18" x="834" y="66" rx="2" ry="2"/><rect class="c" x="834" y="82" rx="2" ry="2"/><rect class="u u0" height="12" width="452.9" x="0.0" y="144"/><rect class="u u1" height="12" width="264.4" x="452.3" y="144"/><rect class="u u2" height="12" width="76.0" x="716.1" y="144"/><rect class="u u3" height="12" width="57.1" x="791.5" y="144"/><rect class="s s0" x="0.8" y="0.8" width="14.4" height="14.4" rx="4.5" ry="4.5"/><rect class="s s1" x="1.8" y="1.8" width="12.3" height="12.3" rx="4.1" ry="4.1"/><rect class="s s2" x="2.6" y="2.6" width="10.8" height="10.8" rx="3.6" ry="3.6"/><rect class="s s3" x="3.0" y="3.0" width="9.9" height="9.9" rx="3.3" ry="3.3"/></svg>