<svg viewBox="-16 -32 880 192" width="880" height="192" xmlns="http://www.w3.org/2000/svg"><desc>Generated with https://github.com/Platane/snk</desc><style>:root{--cb:#1b1f230a;--cs:white;--ce:#0a0e12;--c0:#0a0e12;--c1:#1445a2;--c2:#1d65ee;--c3:#1f4eff;--c4:#466dff}.c{shape-rendering:geometricPrecision;fill:var(--ce);stroke-width:1px;stroke:var(--cb);animation:none 35500ms linear infinite;width:12px;height:12px}@keyframes c0{24.78%{fill:var(--c1)}24.8%,100%{fill:var(--ce)}}.c.c0{fill:var(--c1);animation-name:c0}@keyframes c1{0.55%{fill:var(--c1)}0.57%,100%{fill:var(--ce)}}.c.c1{fill:var(--c1);animation-name:c1}@keyframes c2{24.5%{fill:var(--c1)}24.52%,100%{fill:var(--ce)}}.c.c2{fill:var(--c1);animation-name:c2}@keyframes c3{3.09%{fill:var(--c1)}3.11%,100%{fill:var(--ce)}}.c.c3{fill:var(--c1);animation-name:c3}@keyframes c4{3.37%{fill:var(--c1)}3.39%,100%{fill:var(--ce)}}.c.c4{fill:var(--c1);animation-name:c4}@keyframes c5{98.58%{fill:var(--c4)}98.6%,100%{fill:var(--ce)}}.c.c5{fill:var(--c4);animation-name:c5}@keyframes c6{1.4%{fill:var(--c1)}1.42%,100%{fill:var(--ce)}}.c.c6{fill:var(--c1);animation-name:c6}@keyframes c7{2.81%{fill:var(--c1)}2.83%,100%{fill:var(--ce)}}.c.c7{fill:var(--c1);animation-name:c7}@keyframes c8{3.65%{fill:var(--c1)}3.67%,100%{fill:var(--ce)}}.c.c8{fill:var(--c1);animation-name:c8}@keyframes c9{75.48%{fill:var(--c3)}75.5%,100%{fill:var(--ce)}}.c.c9{fill:var(--c3);animation-name:c9}@keyframes ca{2.24%{fill:var(--c1)}2.26%,100%{fill:var(--ce)}}.c.ca{fill:var(--c1);animation-name:ca}@keyframes cb{4.22%{fill:var(--c1)}4.24%,100%{fill:var(--ce)}}.c.cb{fill:var(--c1);animation-name:cb}@keyframes cc{97.74%{fill:var(--c4)}97.76%,100%{fill:var(--ce)}}.c.cc{fill:var(--c4);animation-name:cc}@keyframes cd{22.81%{fill:var(--c1)}22.83%,100%{fill:var(--ce)}}.c.cd{fill:var(--c1);animation-name:cd}@keyframes ce{68.72%{fill:var(--c2)}68.74%,100%{fill:var(--ce)}}.c.ce{fill:var(--c2);animation-name:ce}@keyframes cf{4.78%{fill:var(--c1)}4.8%,100%{fill:var(--ce)}}.c.cf{fill:var(--c1);animation-name:cf}@keyframes cg{74.36%{fill:var(--c3)}74.38%,100%{fill:var(--ce)}}.c.cg{fill:var(--c3);animation-name:cg}@keyframes ch{68.16%{fill:var(--c2)}68.18%,100%{fill:var(--ce)}}.c.ch{fill:var(--c2);animation-name:ch}@keyframes ci{95.2%{fill:var(--c4)}95.22%,100%{fill:var(--ce)}}.c.ci{fill:var(--c4);animation-name:ci}@keyframes cj{21.4%{fill:var(--c1)}21.42%,100%{fill:var(--ce)}}.c.cj{fill:var(--c1);animation-name:cj}@keyframes ck{66.75%{fill:var(--c2)}66.77%,100%{fill:var(--ce)}}.c.ck{fill:var(--c2);animation-name:ck}@keyframes cl{96.33%{fill:var(--c4)}96.35%,100%{fill:var(--ce)}}.c.cl{fill:var(--c4);animation-name:cl}@keyframes cm{7.03%{fill:var(--c1)}7.05%,100%{fill:var(--ce)}}.c.cm{fill:var(--c1);animation-name:cm}@keyframes cn{6.75%{fill:var(--c1)}6.77%,100%{fill:var(--ce)}}.c.cn{fill:var(--c1);animation-name:cn}@keyframes co{69.57%{fill:var(--c3)}69.59%,100%{fill:var(--ce)}}.c.co{fill:var(--c3);animation-name:co}@keyframes cp{73.23%{fill:var(--c3)}73.25%,100%{fill:var(--ce)}}.c.cp{fill:var(--c3);animation-name:cp}@keyframes cq{66.19%{fill:var(--c2)}66.21%,100%{fill:var(--ce)}}.c.cq{fill:var(--c2);animation-name:cq}@keyframes cr{6.19%{fill:var(--c1)}6.21%,100%{fill:var(--ce)}}.c.cr{fill:var(--c1);animation-name:cr}@keyframes cs{64.5%{fill:var(--c2)}64.52%,100%{fill:var(--ce)}}.c.cs{fill:var(--c2);animation-name:cs}@keyframes ct{64.22%{fill:var(--c2)}64.24%,100%{fill:var(--ce)}}.c.ct{fill:var(--c2);animation-name:ct}@keyframes cu{63.65%{fill:var(--c2)}63.67%,100%{fill:var(--ce)}}.c.cu{fill:var(--c2);animation-name:cu}@keyframes cv{63.37%{fill:var(--c2)}63.39%,100%{fill:var(--ce)}}.c.cv{fill:var(--c2);animation-name:cv}@keyframes cw{62.81%{fill:var(--c2)}62.83%,100%{fill:var(--ce)}}.c.cw{fill:var(--c2);animation-name:cw}@keyframes cx{65.34%{fill:var(--c2)}65.36%,100%{fill:var(--ce)}}.c.cx{fill:var(--c2);animation-name:cx}@keyframes cy{71.82%{fill:var(--c3)}71.84%,100%{fill:var(--ce)}}.c.cy{fill:var(--c3);animation-name:cy}@keyframes cz{71.54%{fill:var(--c3)}71.56%,100%{fill:var(--ce)}}.c.cz{fill:var(--c3);animation-name:cz}@keyframes c10{9.29%{fill:var(--c1)}9.31%,100%{fill:var(--ce)}}.c.c10{fill:var(--c1);animation-name:c10}@keyframes c11{18.58%{fill:var(--c1)}18.6%,100%{fill:var(--ce)}}.c.c11{fill:var(--c1);animation-name:c11}@keyframes c12{10.41%{fill:var(--c1)}10.43%,100%{fill:var(--ce)}}.c.c12{fill:var(--c1);animation-name:c12}@keyframes c13{10.69%{fill:var(--c1)}10.71%,100%{fill:var(--ce)}}.c.c13{fill:var(--c1);animation-name:c13}@keyframes c14{18.3%{fill:var(--c1)}18.32%,100%{fill:var(--ce)}}.c.c14{fill:var(--c1);animation-name:c14}@keyframes c15{10.98%{fill:var(--c1)}11%,100%{fill:var(--ce)}}.c.c15{fill:var(--c1);animation-name:c15}@keyframes c16{12.1%{fill:var(--c1)}12.12%,100%{fill:var(--ce)}}.c.c16{fill:var(--c1);animation-name:c16}@keyframes c17{15.76%{fill:var(--c1)}15.78%,100%{fill:var(--ce)}}.c.c17{fill:var(--c1);animation-name:c17}@keyframes c18{14.36%{fill:var(--c1)}14.38%,100%{fill:var(--ce)}}.c.c18{fill:var(--c1);animation-name:c18}@keyframes c19{14.92%{fill:var(--c1)}14.94%,100%{fill:var(--ce)}}.c.c19{fill:var(--c1);animation-name:c19}@keyframes c1a{58.3%{fill:var(--c2)}58.32%,100%{fill:var(--ce)}}.c.c1a{fill:var(--c2);animation-name:c1a}@keyframes c1b{58.58%{fill:var(--c2)}58.6%,100%{fill:var(--ce)}}.c.c1b{fill:var(--c2);animation-name:c1b}@keyframes c1c{34.92%{fill:var(--c1)}34.94%,100%{fill:var(--ce)}}.c.c1c{fill:var(--c1);animation-name:c1c}@keyframes c1d{54.36%{fill:var(--c2)}54.38%,100%{fill:var(--ce)}}.c.c1d{fill:var(--c2);animation-name:c1d}@keyframes c1e{42.53%{fill:var(--c1)}42.55%,100%{fill:var(--ce)}}.c.c1e{fill:var(--c1);animation-name:c1e}@keyframes c1f{36.33%{fill:var(--c1)}36.35%,100%{fill:var(--ce)}}.c.c1f{fill:var(--c1);animation-name:c1f}@keyframes c1g{86.75%{fill:var(--c3)}86.77%,100%{fill:var(--ce)}}.c.c1g{fill:var(--c3);animation-name:c1g}@keyframes c1h{41.4%{fill:var(--c1)}41.42%,100%{fill:var(--ce)}}.c.c1h{fill:var(--c1);animation-name:c1h}@keyframes c1i{41.68%{fill:var(--c1)}41.7%,100%{fill:var(--ce)}}.c.c1i{fill:var(--c1);animation-name:c1i}@keyframes c1j{40.84%{fill:var(--c1)}40.86%,100%{fill:var(--ce)}}.c.c1j{fill:var(--c1);animation-name:c1j}@keyframes c1k{40.55%{fill:var(--c1)}40.57%,100%{fill:var(--ce)}}.c.c1k{fill:var(--c1);animation-name:c1k}@keyframes c1l{52.38%{fill:var(--c2)}52.4%,100%{fill:var(--ce)}}.c.c1l{fill:var(--c2);animation-name:c1l}@keyframes c1m{37.45%{fill:var(--c1)}37.47%,100%{fill:var(--ce)}}.c.c1m{fill:var(--c1);animation-name:c1m}@keyframes c1n{38.3%{fill:var(--c1)}38.32%,100%{fill:var(--ce)}}.c.c1n{fill:var(--c1);animation-name:c1n}@keyframes c1o{38.58%{fill:var(--c1)}38.6%,100%{fill:var(--ce)}}.c.c1o{fill:var(--c1);animation-name:c1o}@keyframes c1p{46.75%{fill:var(--c1)}46.77%,100%{fill:var(--ce)}}.c.c1p{fill:var(--c1);animation-name:c1p}@keyframes c1q{49%{fill:var(--c2)}49.02%,100%{fill:var(--ce)}}.c.c1q{fill:var(--c2);animation-name:c1q}@keyframes c1r{47.03%{fill:var(--c1)}47.05%,100%{fill:var(--ce)}}.c.c1r{fill:var(--c1);animation-name:c1r}@keyframes c1s{47.88%{fill:var(--c1)}47.9%,100%{fill:var(--ce)}}.c.c1s{fill:var(--c1);animation-name:c1s}.u{transform-origin:0 0;transform:scale(0,1);animation:none linear 35500ms infinite}@keyframes u0{0.55%{transform:scale(0.000,1)}0.57%,1.4%{transform:scale(0.026,1)}1.42%,2.24%{transform:scale(0.051,1)}2.26%,2.81%{transform:scale(0.077,1)}2.83%,3.09%{transform:scale(0.103,1)}3.11%,3.37%{transform:scale(0.128,1)}3.39%,3.65%{transform:scale(0.154,1)}3.67%,4.22%{transform:scale(0.179,1)}4.24%,4.78%{transform:scale(0.205,1)}4.8%,6.19%{transform:scale(0.231,1)}6.21%,6.75%{transform:scale(0.256,1)}6.77%,7.03%{transform:scale(0.282,1)}7.05%,9.29%{transform:scale(0.308,1)}9.31%,10.41%{transform:scale(0.333,1)}10.43%,10.69%{transform:scale(0.359,1)}10.71%,10.98%{transform:scale(0.385,1)}11%,12.1%{transform:scale(0.410,1)}12.12%,14.36%{transform:scale(0.436,1)}14.38%,14.92%{transform:scale(0.462,1)}14.94%,15.76%{transform:scale(0.487,1)}15.78%,18.3%{transform:scale(0.513,1)}18.32%,18.58%{transform:scale(0.538,1)}18.6%,21.4%{transform:scale(0.564,1)}21.42%,22.81%{transform:scale(0.590,1)}22.83%,24.5%{transform:scale(0.615,1)}24.52%,24.78%{transform:scale(0.641,1)}24.8%,34.92%{transform:scale(0.667,1)}34.94%,36.33%{transform:scale(0.692,1)}36.35%,37.45%{transform:scale(0.718,1)}37.47%,38.3%{transform:scale(0.744,1)}38.32%,38.58%{transform:scale(0.769,1)}38.6%,40.55%{transform:scale(0.795,1)}40.57%,40.84%{transform:scale(0.821,1)}40.86%,41.4%{transform:scale(0.846,1)}41.42%,41.68%{transform:scale(0.872,1)}41.7%,42.53%{transform:scale(0.897,1)}42.55%,46.75%{transform:scale(0.923,1)}46.77%,47.03%{transform:scale(0.949,1)}47.05%,47.88%{transform:scale(0.974,1)}47.9%,100%{transform:scale(1.000,1)}}.u.u0{fill:var(--c1);animation-name:u0;transform-origin:0.0px 0}@keyframes u1{49%{transform:scale(0.000,1)}49.02%,52.38%{transform:scale(0.067,1)}52.4%,54.36%{transform:scale(0.133,1)}54.38%,58.3%{transform:scale(0.200,1)}58.32%,58.58%{transform:scale(0.267,1)}58.6%,62.81%{transform:scale(0.333,1)}62.83%,63.37%{transform:scale(0.400,1)}63.39%,63.65%{transform:scale(0.467,1)}63.67%,64.22%{transform:scale(0.533,1)}64.24%,64.5%{transform:scale(0.600,1)}64.52%,65.34%{transform:scale(0.667,1)}65.36%,66.19%{transform:scale(0.733,1)}66.21%,66.75%{transform:scale(0.800,1)}66.77%,68.16%{transform:scale(0.867,1)}68.18%,68.72%{transform:scale(0.933,1)}68.74%,100%{transform:scale(1.000,1)}}.u.u1{fill:var(--c2);animation-name:u1;transform-origin:508.8px 0}@keyframes u2{69.57%{transform:scale(0.000,1)}69.59%,71.54%{transform:scale(0.143,1)}71.56%,71.82%{transform:scale(0.286,1)}71.84%,73.23%{transform:scale(0.429,1)}73.25%,74.36%{transform:scale(0.571,1)}74.38%,75.48%{transform:scale(0.714,1)}75.5%,86.75%{transform:scale(0.857,1)}86.77%,100%{transform:scale(1.000,1)}}.u.u2{fill:var(--c3);animation-name:u2;transform-origin:704.5px 0}@keyframes u3{95.2%{transform:scale(0.000,1)}95.22%,96.33%{transform:scale(0.250,1)}96.35%,97.74%{transform:scale(0.500,1)}97.76%,98.58%{transform:scale(0.750,1)}98.6%,100%{transform:scale(1.000,1)}}.u.u3{fill:var(--c4);animation-name:u3;transform-origin:795.8px 0}.s{shape-rendering:geometricPrecision;fill:var(--cs);animation:none linear 35500ms infinite}@keyframes s0{0%,99.72%{transform:translate(0px,-16px)}0.28%{transform:translate(0px,0px)}0.85%{transform:translate(32px,0px)}1.13%{transform:translate(32px,16px)}1.41%{transform:translate(48px,16px)}1.69%{transform:translate(48px,32px)}1.97%,75.21%{transform:translate(64px,32px)}2.25%{transform:translate(64px,48px)}2.54%{transform:translate(48px,48px)}2.82%{transform:translate(48px,64px)}3.1%{transform:translate(32px,64px)}3.38%{transform:translate(32px,80px)}3.94%{transform:translate(64px,80px)}4.23%{transform:translate(64px,96px)}4.79%,26.76%{transform:translate(96px,96px)}5.07%,27.04%{transform:translate(96px,112px)}5.92%{transform:translate(144px,112px)}6.48%{transform:translate(144px,80px)}6.76%,69.3%,95.77%{transform:translate(128px,80px)}7.04%{transform:translate(128px,64px)}7.32%,67.61%{transform:translate(144px,64px)}7.89%,67.04%{transform:translate(144px,32px)}8.45%{transform:translate(176px,32px)}9.01%,63.1%{transform:translate(176px,64px)}10.14%{transform:translate(240px,64px)}10.7%{transform:translate(240px,96px)}13.52%{transform:translate(400px,96px)}14.37%{transform:translate(400px,48px)}14.65%{transform:translate(416px,48px)}15.21%{transform:translate(416px,16px)}15.77%{transform:translate(384px,16px)}16.06%{transform:translate(384px,0px)}18.59%{transform:translate(240px,0px)}18.87%{transform:translate(240px,-16px)}20.85%{transform:translate(128px,-16px)}21.41%,66.48%,96.9%{transform:translate(128px,16px)}21.97%{transform:translate(96px,16px)}22.82%,68.45%{transform:translate(96px,64px)}24.23%{transform:translate(16px,64px)}24.51%{transform:translate(16px,80px)}24.79%{transform:translate(0px,80px)}25.07%{transform:translate(0px,96px)}34.65%{transform:translate(528px,112px)}34.93%{transform:translate(528px,96px)}35.77%{transform:translate(576px,96px)}36.06%{transform:translate(576px,80px)}37.18%{transform:translate(640px,80px)}37.46%{transform:translate(640px,64px)}38.31%{transform:translate(688px,64px)}38.59%{transform:translate(688px,80px)}38.87%{transform:translate(672px,80px)}40%{transform:translate(672px,16px)}40.56%{transform:translate(640px,16px)}40.85%{transform:translate(640px,0px)}41.41%{transform:translate(608px,0px)}41.69%{transform:translate(608px,16px)}42.25%{transform:translate(576px,16px)}42.54%{transform:translate(576px,32px)}46.48%{transform:translate(800px,32px)}46.76%{transform:translate(800px,48px)}47.32%{transform:translate(832px,48px)}47.89%{transform:translate(832px,80px)}48.17%{transform:translate(816px,80px)}49.01%{transform:translate(816px,32px)}52.11%{transform:translate(640px,32px)}52.39%{transform:translate(640px,48px)}52.68%{transform:translate(624px,48px)}53.52%{transform:translate(624px,0px)}57.18%{transform:translate(416px,0px)}58.59%{transform:translate(416px,80px)}62.82%{transform:translate(176px,80px)}63.38%{transform:translate(160px,64px)}64.51%{transform:translate(160px,0px)}65.07%,72.39%{transform:translate(192px,0px)}65.35%{transform:translate(192px,16px)}66.76%{transform:translate(128px,32px)}68.73%{transform:translate(96px,80px)}69.58%{transform:translate(128px,96px)}70.7%{transform:translate(192px,96px)}73.8%{transform:translate(112px,0px)}74.37%{transform:translate(112px,32px)}75.77%{transform:translate(64px,0px)}85.07%{transform:translate(592px,0px)}86.76%{transform:translate(592px,96px)}95.21%{transform:translate(112px,96px)}95.49%{transform:translate(112px,80px)}97.75%{transform:translate(80px,16px)}98.03%{transform:translate(80px,0px)}98.59%{transform:translate(48px,0px)}98.87%{transform:translate(48px,-16px)}}.s.s0{transform:translate(0px,-16px);animation-name:s0}@keyframes s1{0%,99.72%{transform:translate(16px,-16px)}0.28%{transform:translate(0px,-16px)}0.56%{transform:translate(0px,0px)}1.13%{transform:translate(32px,0px)}1.41%{transform:translate(32px,16px)}1.69%{transform:translate(48px,16px)}1.97%{transform:translate(48px,32px)}2.25%,75.49%{transform:translate(64px,32px)}2.54%{transform:translate(64px,48px)}2.82%{transform:translate(48px,48px)}3.1%{transform:translate(48px,64px)}3.38%{transform:translate(32px,64px)}3.66%{transform:translate(32px,80px)}4.23%{transform:translate(64px,80px)}4.51%{transform:translate(64px,96px)}5.07%,27.04%{transform:translate(96px,96px)}5.35%,27.32%{transform:translate(96px,112px)}6.2%{transform:translate(144px,112px)}6.76%{transform:translate(144px,80px)}7.04%,69.58%,96.06%{transform:translate(128px,80px)}7.32%{transform:translate(128px,64px)}7.61%,67.89%{transform:translate(144px,64px)}8.17%,67.32%{transform:translate(144px,32px)}8.73%{transform:translate(176px,32px)}9.3%,63.38%{transform:translate(176px,64px)}10.42%{transform:translate(240px,64px)}10.99%{transform:translate(240px,96px)}13.8%{transform:translate(400px,96px)}14.65%{transform:translate(400px,48px)}14.93%{transform:translate(416px,48px)}15.49%{transform:translate(416px,16px)}16.06%{transform:translate(384px,16px)}16.34%{transform:translate(384px,0px)}18.87%{transform:translate(240px,0px)}19.15%{transform:translate(240px,-16px)}21.13%{transform:translate(128px,-16px)}21.69%,66.76%,97.18%{transform:translate(128px,16px)}22.25%{transform:translate(96px,16px)}23.1%,68.73%{transform:translate(96px,64px)}24.51%{transform:translate(16px,64px)}24.79%{transform:translate(16px,80px)}25.07%{transform:translate(0px,80px)}25.35%{transform:translate(0px,96px)}34.93%{transform:translate(528px,112px)}35.21%{transform:translate(528px,96px)}36.06%{transform:translate(576px,96px)}36.34%{transform:translate(576px,80px)}37.46%{transform:translate(640px,80px)}37.75%{transform:translate(640px,64px)}38.59%{transform:translate(688px,64px)}38.87%{transform:translate(688px,80px)}39.15%{transform:translate(672px,80px)}40.28%{transform:translate(672px,16px)}40.85%{transform:translate(640px,16px)}41.13%{transform:translate(640px,0px)}41.69%{transform:translate(608px,0px)}41.97%{transform:translate(608px,16px)}42.54%{transform:translate(576px,16px)}42.82%{transform:translate(576px,32px)}46.76%{transform:translate(800px,32px)}47.04%{transform:translate(800px,48px)}47.61%{transform:translate(832px,48px)}48.17%{transform:translate(832px,80px)}48.45%{transform:translate(816px,80px)}49.3%{transform:translate(816px,32px)}52.39%{transform:translate(640px,32px)}52.68%{transform:translate(640px,48px)}52.96%{transform:translate(624px,48px)}53.8%{transform:translate(624px,0px)}57.46%{transform:translate(416px,0px)}58.87%{transform:translate(416px,80px)}63.1%{transform:translate(176px,80px)}63.66%{transform:translate(160px,64px)}64.79%{transform:translate(160px,0px)}65.35%,72.68%{transform:translate(192px,0px)}65.63%{transform:translate(192px,16px)}67.04%{transform:translate(128px,32px)}69.01%{transform:translate(96px,80px)}69.86%{transform:translate(128px,96px)}70.99%{transform:translate(192px,96px)}74.08%{transform:translate(112px,0px)}74.65%{transform:translate(112px,32px)}76.06%{transform:translate(64px,0px)}85.35%{transform:translate(592px,0px)}87.04%{transform:translate(592px,96px)}95.49%{transform:translate(112px,96px)}95.77%{transform:translate(112px,80px)}98.03%{transform:translate(80px,16px)}98.31%{transform:translate(80px,0px)}98.87%{transform:translate(48px,0px)}99.15%{transform:translate(48px,-16px)}}.s.s1{transform:translate(16px,-16px);animation-name:s1}@keyframes s2{0%,99.72%{transform:translate(32px,-16px)}0.56%{transform:translate(0px,-16px)}0.85%{transform:translate(0px,0px)}1.41%{transform:translate(32px,0px)}1.69%{transform:translate(32px,16px)}1.97%{transform:translate(48px,16px)}2.25%{transform:translate(48px,32px)}2.54%,75.77%{transform:translate(64px,32px)}2.82%{transform:translate(64px,48px)}3.1%{transform:translate(48px,48px)}3.38%{transform:translate(48px,64px)}3.66%{transform:translate(32px,64px)}3.94%{transform:translate(32px,80px)}4.51%{transform:translate(64px,80px)}4.79%{transform:translate(64px,96px)}5.35%,27.32%{transform:translate(96px,96px)}5.63%,27.61%{transform:translate(96px,112px)}6.48%{transform:translate(144px,112px)}7.04%{transform:translate(144px,80px)}7.32%,69.86%,96.34%{transform:translate(128px,80px)}7.61%{transform:translate(128px,64px)}7.89%,68.17%{transform:translate(144px,64px)}8.45%,67.61%{transform:translate(144px,32px)}9.01%{transform:translate(176px,32px)}9.58%,63.66%{transform:translate(176px,64px)}10.7%{transform:translate(240px,64px)}11.27%{transform:translate(240px,96px)}14.08%{transform:translate(400px,96px)}14.93%{transform:translate(400px,48px)}15.21%{transform:translate(416px,48px)}15.77%{transform:translate(416px,16px)}16.34%{transform:translate(384px,16px)}16.62%{transform:translate(384px,0px)}19.15%{transform:translate(240px,0px)}19.44%{transform:translate(240px,-16px)}21.41%{transform:translate(128px,-16px)}21.97%,67.04%,97.46%{transform:translate(128px,16px)}22.54%{transform:translate(96px,16px)}23.38%,69.01%{transform:translate(96px,64px)}24.79%{transform:translate(16px,64px)}25.07%{transform:translate(16px,80px)}25.35%{transform:translate(0px,80px)}25.63%{transform:translate(0px,96px)}35.21%{transform:translate(528px,112px)}35.49%{transform:translate(528px,96px)}36.34%{transform:translate(576px,96px)}36.62%{transform:translate(576px,80px)}37.75%{transform:translate(640px,80px)}38.03%{transform:translate(640px,64px)}38.87%{transform:translate(688px,64px)}39.15%{transform:translate(688px,80px)}39.44%{transform:translate(672px,80px)}40.56%{transform:translate(672px,16px)}41.13%{transform:translate(640px,16px)}41.41%{transform:translate(640px,0px)}41.97%{transform:translate(608px,0px)}42.25%{transform:translate(608px,16px)}42.82%{transform:translate(576px,16px)}43.1%{transform:translate(576px,32px)}47.04%{transform:translate(800px,32px)}47.32%{transform:translate(800px,48px)}47.89%{transform:translate(832px,48px)}48.45%{transform:translate(832px,80px)}48.73%{transform:translate(816px,80px)}49.58%{transform:translate(816px,32px)}52.68%{transform:translate(640px,32px)}52.96%{transform:translate(640px,48px)}53.24%{transform:translate(624px,48px)}54.08%{transform:translate(624px,0px)}57.75%{transform:translate(416px,0px)}59.15%{transform:translate(416px,80px)}63.38%{transform:translate(176px,80px)}63.94%{transform:translate(160px,64px)}65.07%{transform:translate(160px,0px)}65.63%,72.96%{transform:translate(192px,0px)}65.92%{transform:translate(192px,16px)}67.32%{transform:translate(128px,32px)}69.3%{transform:translate(96px,80px)}70.14%{transform:translate(128px,96px)}71.27%{transform:translate(192px,96px)}74.37%{transform:translate(112px,0px)}74.93%{transform:translate(112px,32px)}76.34%{transform:translate(64px,0px)}85.63%{transform:translate(592px,0px)}87.32%{transform:translate(592px,96px)}95.77%{transform:translate(112px,96px)}96.06%{transform:translate(112px,80px)}98.31%{transform:translate(80px,16px)}98.59%{transform:translate(80px,0px)}99.15%{transform:translate(48px,0px)}99.44%{transform:translate(48px,-16px)}}.s.s2{transform:translate(32px,-16px);animation-name:s2}@keyframes s3{0%,99.72%{transform:translate(48px,-16px)}0.85%{transform:translate(0px,-16px)}1.13%{transform:translate(0px,0px)}1.69%{transform:translate(32px,0px)}1.97%{transform:translate(32px,16px)}2.25%{transform:translate(48px,16px)}2.54%{transform:translate(48px,32px)}2.82%,76.06%{transform:translate(64px,32px)}3.1%{transform:translate(64px,48px)}3.38%{transform:translate(48px,48px)}3.66%{transform:translate(48px,64px)}3.94%{transform:translate(32px,64px)}4.23%{transform:translate(32px,80px)}4.79%{transform:translate(64px,80px)}5.07%{transform:translate(64px,96px)}5.63%,27.61%{transform:translate(96px,96px)}5.92%,27.89%{transform:translate(96px,112px)}6.76%{transform:translate(144px,112px)}7.32%{transform:translate(144px,80px)}7.61%,70.14%,96.62%{transform:translate(128px,80px)}7.89%{transform:translate(128px,64px)}8.17%,68.45%{transform:translate(144px,64px)}8.73%,67.89%{transform:translate(144px,32px)}9.3%{transform:translate(176px,32px)}9.86%,63.94%{transform:translate(176px,64px)}10.99%{transform:translate(240px,64px)}11.55%{transform:translate(240px,96px)}14.37%{transform:translate(400px,96px)}15.21%{transform:translate(400px,48px)}15.49%{transform:translate(416px,48px)}16.06%{transform:translate(416px,16px)}16.62%{transform:translate(384px,16px)}16.9%{transform:translate(384px,0px)}19.44%{transform:translate(240px,0px)}19.72%{transform:translate(240px,-16px)}21.69%{transform:translate(128px,-16px)}22.25%,67.32%,97.75%{transform:translate(128px,16px)}22.82%{transform:translate(96px,16px)}23.66%,69.3%{transform:translate(96px,64px)}25.07%{transform:translate(16px,64px)}25.35%{transform:translate(16px,80px)}25.63%{transform:translate(0px,80px)}25.92%{transform:translate(0px,96px)}35.49%{transform:translate(528px,112px)}35.77%{transform:translate(528px,96px)}36.62%{transform:translate(576px,96px)}36.9%{transform:translate(576px,80px)}38.03%{transform:translate(640px,80px)}38.31%{transform:translate(640px,64px)}39.15%{transform:translate(688px,64px)}39.44%{transform:translate(688px,80px)}39.72%{transform:translate(672px,80px)}40.85%{transform:translate(672px,16px)}41.41%{transform:translate(640px,16px)}41.69%{transform:translate(640px,0px)}42.25%{transform:translate(608px,0px)}42.54%{transform:translate(608px,16px)}43.1%{transform:translate(576px,16px)}43.38%{transform:translate(576px,32px)}47.32%{transform:translate(800px,32px)}47.61%{transform:translate(800px,48px)}48.17%{transform:translate(832px,48px)}48.73%{transform:translate(832px,80px)}49.01%{transform:translate(816px,80px)}49.86%{transform:translate(816px,32px)}52.96%{transform:translate(640px,32px)}53.24%{transform:translate(640px,48px)}53.52%{transform:translate(624px,48px)}54.37%{transform:translate(624px,0px)}58.03%{transform:translate(416px,0px)}59.44%{transform:translate(416px,80px)}63.66%{transform:translate(176px,80px)}64.23%{transform:translate(160px,64px)}65.35%{transform:translate(160px,0px)}65.92%,73.24%{transform:translate(192px,0px)}66.2%{transform:translate(192px,16px)}67.61%{transform:translate(128px,32px)}69.58%{transform:translate(96px,80px)}70.42%{transform:translate(128px,96px)}71.55%{transform:translate(192px,96px)}74.65%{transform:translate(112px,0px)}75.21%{transform:translate(112px,32px)}76.62%{transform:translate(64px,0px)}85.92%{transform:translate(592px,0px)}87.61%{transform:translate(592px,96px)}96.06%{transform:translate(112px,96px)}96.34%{transform:translate(112px,80px)}98.59%{transform:translate(80px,16px)}98.87%{transform:translate(80px,0px)}99.44%{transform:translate(48px,0px)}}.s.s3{transform:translate(48px,-16px);animation-name:s3}</style><rect class="c" x="2" y="2" rx="2" ry="2"/><rect class="c" x="2" y="18" rx="2" ry="2"/><rect class="c" x="2" y="34" rx="2" ry="2"/><rect class="c" x="2" y="50" rx="2" ry="2"/><rect class="c" x="2" y="66" rx="2" ry="2"/><rect class="c c0" x="2" y="82" rx="2" ry="2"/><rect class="c" x="2" y="98" rx="2" ry="2"/><rect class="c c1" x="18" y="2" rx="2" ry="2"/><rect class="c" x="18" y="18" rx="2" ry="2"/><rect class="c" x="18" y="34" rx="2" ry="2"/><rect class="c" x="18" y="50" rx="2" ry="2"/><rect class="c" x="18" y="66" rx="2" ry="2"/><rect class="c c2" x="18" y="82" rx="2" ry="2"/><rect class="c" x="18" y="98" rx="2" ry="2"/><rect class="c" x="34" y="2" rx="2" ry="2"/><rect class="c" x="34" y="18" rx="2" ry="2"/><rect class="c" x="34" y="34" rx="2" ry="2"/><rect class="c" x="34" y="50" rx="2" ry="2"/><rect class="c c3" x="34" y="66" rx="2" ry="2"/><rect class="c c4" x="34" y="82" rx="2" ry="2"/><rect class="c" x="34" y="98" rx="2" ry="2"/><rect class="c c5" x="50" y="2" rx="2" ry="2"/><rect class="c c6" x="50" y="18" rx="2" ry="2"/><rect class="c" x="50" y="34" rx="2" ry="2"/><rect class="c" x="50" y="50" rx="2" ry="2"/><rect class="c c7" x="50" y="66" rx="2" ry="2"/><rect class="c c8" x="50" y="82" rx="2" ry="2"/><rect class="c" x="50" y="98" rx="2" ry="2"/><rect class="c" x="66" y="2" rx="2" ry="2"/><rect class="c c9" x="66" y="18" rx="2" ry="2"/><rect class="c" x="66" y="34" rx="2" ry="2"/><rect class="c ca" x="66" y="50" rx="2" ry="2"/><rect class="c" x="66" y="66" rx="2" ry="2"/><rect class="c" x="66" y="82" rx="2" ry="2"/><rect class="c cb" x="66" y="98" rx="2" ry="2"/><rect class="c" x="82" y="2" rx="2" ry="2"/><rect class="c cc" x="82" y="18" rx="2" ry="2"/><rect class="c" x="82" y="34" rx="2" ry="2"/><rect class="c" x="82" y="50" rx="2" ry="2"/><rect class="c" x="82" y="66" rx="2" ry="2"/><rect class="c" x="82" y="82" rx="2" ry="2"/><rect class="c" x="82" y="98" rx="2" ry="2"/><rect class="c" x="98" y="2" rx="2" ry="2"/><rect class="c" x="98" y="18" rx="2" ry="2"/><rect class="c" x="98" y="34" rx="2" ry="2"/><rect class="c" x="98" y="50" rx="2" ry="2"/><rect class="c cd" x="98" y="66" rx="2" ry="2"/><rect class="c ce" x="98" y="82" rx="2" ry="2"/><rect class="c cf" x="98" y="98" rx="2" ry="2"/><rect class="c" x="114" y="2" rx="2" ry="2"/><rect class="c" x="114" y="18" rx="2" ry="2"/><rect class="c cg" x="114" y="34" rx="2" ry="2"/><rect class="c" x="114" y="50" rx="2" ry="2"/><rect class="c ch" x="114" y="66" rx="2" ry="2"/><rect class="c" x="114" y="82" rx="2" ry="2"/><rect class="c ci" x="114" y="98" rx="2" ry="2"/><rect class="c" x="130" y="2" rx="2" ry="2"/><rect class="c cj" x="130" y="18" rx="2" ry="2"/><rect class="c ck" x="130" y="34" rx="2" ry="2"/><rect class="c cl" x="130" y="50" rx="2" ry="2"/><rect class="c cm" x="130" y="66" rx="2" ry="2"/><rect class="c cn" x="130" y="82" rx="2" ry="2"/><rect class="c co" x="130" y="98" rx="2" ry="2"/><rect class="c cp" x="146" y="2" rx="2" ry="2"/><rect class="c cq" x="146" y="18" rx="2" ry="2"/><rect class="c" x="146" y="34" rx="2" ry="2"/><rect class="c" x="146" y="50" rx="2" ry="2"/><rect class="c" x="146" y="66" rx="2" ry="2"/><rect class="c" x="146" y="82" rx="2" ry="2"/><rect class="c cr" x="146" y="98" rx="2" ry="2"/><rect class="c cs" x="162" y="2" rx="2" ry="2"/><rect class="c ct" x="162" y="18" rx="2" ry="2"/><rect class="c" x="162" y="34" rx="2" ry="2"/><rect class="c cu" x="162" y="50" rx="2" ry="2"/><rect class="c cv" x="162" y="66" rx="2" ry="2"/><rect class="c" x="162" y="82" rx="2" ry="2"/><rect class="c" x="162" y="98" rx="2" ry="2"/><rect class="c" x="178" y="2" rx="2" ry="2"/><rect class="c" x="178" y="18" rx="2" ry="2"/><rect class="c" x="178" y="34" rx="2" ry="2"/><rect class="c" x="178" y="50" rx="2" ry="2"/><rect class="c" x="178" y="66" rx="2" ry="2"/><rect class="c cw" x="178" y="82" rx="2" ry="2"/><rect class="c" x="178" y="98" rx="2" ry="2"/><rect class="c" x="194" y="2" rx="2" ry="2"/><rect class="c cx" x="194" y="18" rx="2" ry="2"/><rect class="c cy" x="194" y="34" rx="2" ry="2"/><rect class="c cz" x="194" y="50" rx="2" ry="2"/><rect class="c c10" x="194" y="66" rx="2" ry="2"/><rect class="c" x="194" y="82" rx="2" ry="2"/><rect class="c" x="194" y="98" rx="2" ry="2"/><rect class="c" x="210" y="2" rx="2" ry="2"/><rect class="c" x="210" y="18" rx="2" ry="2"/><rect class="c" x="210" y="34" rx="2" ry="2"/><rect class="c" x="210" y="50" rx="2" ry="2"/><rect class="c" x="210" y="66" rx="2" ry="2"/><rect class="c" x="210" y="82" rx="2" ry="2"/><rect class="c" x="210" y="98" rx="2" ry="2"/><rect class="c" x="226" y="2" rx="2" ry="2"/><rect class="c" x="226" y="18" rx="2" ry="2"/><rect class="c" x="226" y="34" rx="2" ry="2"/><rect class="c" x="226" y="50" rx="2" ry="2"/><rect class="c" x="226" y="66" rx="2" ry="2"/><rect class="c" x="226" y="82" rx="2" ry="2"/><rect class="c" x="226" y="98" rx="2" ry="2"/><rect class="c c11" x="242" y="2" rx="2" ry="2"/><rect class="c" x="242" y="18" rx="2" ry="2"/><rect class="c" x="242" y="34" rx="2" ry="2"/><rect class="c" x="242" y="50" rx="2" ry="2"/><rect class="c" x="242" y="66" rx="2" ry="2"/><rect class="c c12" x="242" y="82" rx="2" ry="2"/><rect class="c c13" x="242" y="98" rx="2" ry="2"/><rect class="c c14" x="258" y="2" rx="2" ry="2"/><rect class="c" x="258" y="18" rx="2" ry="2"/><rect class="c" x="258" y="34" rx="2" ry="2"/><rect class="c" x="258" y="50" rx="2" ry="2"/><rect class="c" x="258" y="66" rx="2" ry="2"/><rect class="c" x="258" y="82" rx="2" ry="2"/><rect class="c c15" x="258" y="98" rx="2" ry="2"/><rect class="c" x="274" y="2" rx="2" ry="2"/><rect class="c" x="274" y="18" rx="2" ry="2"/><rect class="c" x="274" y="34" rx="2" ry="2"/><rect class="c" x="274" y="50" rx="2" ry="2"/><rect class="c" x="274" y="66" rx="2" ry="2"/><rect class="c" x="274" y="82" rx="2" ry="2"/><rect class="c" x="274" y="98" rx="2" ry="2"/><rect class="c" x="290" y="2" rx="2" ry="2"/><rect class="c" x="290" y="18" rx="2" ry="2"/><rect class="c" x="290" y="34" rx="2" ry="2"/><rect class="c" x="290" y="50" rx="2" ry="2"/><rect class="c" x="290" y="66" rx="2" ry="2"/><rect class="c" x="290" y="82" rx="2" ry="2"/><rect class="c" x="290" y="98" rx="2" ry="2"/><rect class="c" x="306" y="2" rx="2" ry="2"/><rect class="c" x="306" y="18" rx="2" ry="2"/><rect class="c" x="306" y="34" rx="2" ry="2"/><rect class="c" x="306" y="50" rx="2" ry="2"/><rect class="c" x="306" y="66" rx="2" ry="2"/><rect class="c" x="306" y="82" rx="2" ry="2"/><rect class="c" x="306" y="98" rx="2" ry="2"/><rect class="c" x="322" y="2" rx="2" ry="2"/><rect class="c" x="322" y="18" rx="2" ry="2"/><rect class="c" x="322" y="34" rx="2" ry="2"/><rect class="c" x="322" y="50" rx="2" ry="2"/><rect class="c" x="322" y="66" rx="2" ry="2"/><rect class="c" x="322" y="82" rx="2" ry="2"/><rect class="c c16" x="322" y="98" rx="2" ry="2"/><rect class="c" x="338" y="2" rx="2" ry="2"/><rect class="c" x="338" y="18" rx="2" ry="2"/><rect class="c" x="338" y="34" rx="2" ry="2"/><rect class="c" x="338" y="50" rx="2" ry="2"/><rect class="c" x="338" y="66" rx="2" ry="2"/><rect class="c" x="338" y="82" rx="2" ry="2"/><rect class="c" x="338" y="98" rx="2" ry="2"/><rect class="c" x="354" y="2" rx="2" ry="2"/><rect class="c" x="354" y="18" rx="2" ry="2"/><rect class="c" x="354" y="34" rx="2" ry="2"/><rect class="c" x="354" y="50" rx="2" ry="2"/><rect class="c" x="354" y="66" rx="2" ry="2"/><rect class="c" x="354" y="82" rx="2" ry="2"/><rect class="c" x="354" y="98" rx="2" ry="2"/><rect class="c" x="370" y="2" rx="2" ry="2"/><rect class="c" x="370" y="18" rx="2" ry="2"/><rect class="c" x="370" y="34" rx="2" ry="2"/><rect class="c" x="370" y="50" rx="2" ry="2"/><rect class="c" x="370" y="66" rx="2" ry="2"/><rect class="c" x="370" y="82" rx="2" ry="2"/><rect class="c" x="370" y="98" rx="2" ry="2"/><rect class="c" x="386" y="2" rx="2" ry="2"/><rect class="c c17" x="386" y="18" rx="2" ry="2"/><rect class="c" x="386" y="34" rx="2" ry="2"/><rect class="c" x="386" y="50" rx="2" ry="2"/><rect class="c" x="386" y="66" rx="2" ry="2"/><rect class="c" x="386" y="82" rx="2" ry="2"/><rect class="c" x="386" y="98" rx="2" ry="2"/><rect class="c" x="402" y="2" rx="2" ry="2"/><rect class="c" x="402" y="18" rx="2" ry="2"/><rect class="c" x="402" y="34" rx="2" ry="2"/><rect class="c c18" x="402" y="50" rx="2" ry="2"/><rect class="c" x="402" y="66" rx="2" ry="2"/><rect class="c" x="402" y="82" rx="2" ry="2"/><rect class="c" x="402" y="98" rx="2" ry="2"/><rect class="c" x="418" y="2" rx="2" ry="2"/><rect class="c" x="418" y="18" rx="2" ry="2"/><rect class="c c19" x="418" y="34" rx="2" ry="2"/><rect class="c" x="418" y="50" rx="2" ry="2"/><rect class="c c1a" x="418" y="66" rx="2" ry="2"/><rect class="c c1b" x="418" y="82" rx="2" ry="2"/><rect class="c" x="418" y="98" rx="2" ry="2"/><rect class="c" x="434" y="2" rx="2" ry="2"/><rect class="c" x="434" y="18" rx="2" ry="2"/><rect class="c" x="434" y="34" rx="2" ry="2"/><rect class="c" x="434" y="50" rx="2" ry="2"/><rect class="c" x="434" y="66" rx="2" ry="2"/><rect class="c" x="434" y="82" rx="2" ry="2"/><rect class="c" x="434" y="98" rx="2" ry="2"/><rect class="c" x="450" y="2" rx="2" ry="2"/><rect class="c" x="450" y="18" rx="2" ry="2"/><rect class="c" x="450" y="34" rx="2" ry="2"/><rect class="c" x="450" y="50" rx="2" ry="2"/><rect class="c" x="450" y="66" rx="2" ry="2"/><rect class="c" x="450" y="82" rx="2" ry="2"/><rect class="c" x="450" y="98" rx="2" ry="2"/><rect class="c" x="466" y="2" rx="2" ry="2"/><rect class="c" x="466" y="18" rx="2" ry="2"/><rect class="c" x="466" y="34" rx="2" ry="2"/><rect class="c" x="466" y="50" rx="2" ry="2"/><rect class="c" x="466" y="66" rx="2" ry="2"/><rect class="c" x="466" y="82" rx="2" ry="2"/><rect class="c" x="466" y="98" rx="2" ry="2"/><rect class="c" x="482" y="2" rx="2" ry="2"/><rect class="c" x="482" y="18" rx="2" ry="2"/><rect class="c" x="482" y="34" rx="2" ry="2"/><rect class="c" x="482" y="50" rx="2" ry="2"/><rect class="c" x="482" y="66" rx="2" ry="2"/><rect class="c" x="482" y="82" rx="2" ry="2"/><rect class="c" x="482" y="98" rx="2" ry="2"/><rect class="c" x="498" y="2" rx="2" ry="2"/><rect class="c" x="498" y="18" rx="2" ry="2"/><rect class="c" x="498" y="34" rx="2" ry="2"/><rect class="c" x="498" y="50" rx="2" ry="2"/><rect class="c" x="498" y="66" rx="2" ry="2"/><rect class="c" x="498" y="82" rx="2" ry="2"/><rect class="c" x="498" y="98" rx="2" ry="2"/><rect class="c" x="514" y="2" rx="2" ry="2"/><rect class="c" x="514" y="18" rx="2" ry="2"/><rect class="c" x="514" y="34" rx="2" ry="2"/><rect class="c" x="514" y="50" rx="2" ry="2"/><rect class="c" x="514" y="66" rx="2" ry="2"/><rect class="c" x="514" y="82" rx="2" ry="2"/><rect class="c" x="514" y="98" rx="2" ry="2"/><rect class="c" x="530" y="2" rx="2" ry="2"/><rect class="c" x="530" y="18" rx="2" ry="2"/><rect class="c" x="530" y="34" rx="2" ry="2"/><rect class="c" x="530" y="50" rx="2" ry="2"/><rect class="c" x="530" y="66" rx="2" ry="2"/><rect class="c" x="530" y="82" rx="2" ry="2"/><rect class="c c1c" x="530" y="98" rx="2" ry="2"/><rect class="c" x="546" y="2" rx="2" ry="2"/><rect class="c" x="546" y="18" rx="2" ry="2"/><rect class="c" x="546" y="34" rx="2" ry="2"/><rect class="c" x="546" y="50" rx="2" ry="2"/><rect class="c" x="546" y="66" rx="2" ry="2"/><rect class="c" x="546" y="82" rx="2" ry="2"/><rect class="c" x="546" y="98" rx="2" ry="2"/><rect class="c" x="562" y="2" rx="2" ry="2"/><rect class="c" x="562" y="18" rx="2" ry="2"/><rect class="c" x="562" y="34" rx="2" ry="2"/><rect class="c" x="562" y="50" rx="2" ry="2"/><rect class="c" x="562" y="66" rx="2" ry="2"/><rect class="c" x="562" y="82" rx="2" ry="2"/><rect class="c" x="562" y="98" rx="2" ry="2"/><rect class="c c1d" x="578" y="2" rx="2" ry="2"/><rect class="c" x="578" y="18" rx="2" ry="2"/><rect class="c c1e" x="578" y="34" rx="2" ry="2"/><rect class="c" x="578" y="50" rx="2" ry="2"/><rect class="c" x="578" y="66" rx="2" ry="2"/><rect class="c" x="578" y="82" rx="2" ry="2"/><rect class="c" x="578" y="98" rx="2" ry="2"/><rect class="c" x="594" y="2" rx="2" ry="2"/><rect class="c" x="594" y="18" rx="2" ry="2"/><rect class="c" x="594" y="34" rx="2" ry="2"/><rect class="c" x="594" y="50" rx="2" ry="2"/><rect class="c" x="594" y="66" rx="2" ry="2"/><rect class="c c1f" x="594" y="82" rx="2" ry="2"/><rect class="c c1g" x="594" y="98" rx="2" ry="2"/><rect class="c c1h" x="610" y="2" rx="2" ry="2"/><rect class="c c1i" x="610" y="18" rx="2" ry="2"/><rect class="c" x="610" y="34" rx="2" ry="2"/><rect class="c" x="610" y="50" rx="2" ry="2"/><rect class="c" x="610" y="66" rx="2" ry="2"/><rect class="c" x="610" y="82" rx="2" ry="2"/><rect class="c" x="610" y="98" rx="2" ry="2"/><rect class="c" x="626" y="2" rx="2" ry="2"/><rect class="c" x="626" y="18" rx="2" ry="2"/><rect class="c" x="626" y="34" rx="2" ry="2"/><rect class="c" x="626" y="50" rx="2" ry="2"/><rect class="c" x="626" y="66" rx="2" ry="2"/><rect class="c" x="626" y="82" rx="2" ry="2"/><rect class="c" x="626" y="98" rx="2" ry="2"/><rect class="c c1j" x="642" y="2" rx="2" ry="2"/><rect class="c c1k" x="642" y="18" rx="2" ry="2"/><rect class="c" x="642" y="34" rx="2" ry="2"/><rect class="c c1l" x="642" y="50" rx="2" ry="2"/><rect class="c c1m" x="642" y="66" rx="2" ry="2"/><rect class="c" x="642" y="82" rx="2" ry="2"/><rect class="c" x="642" y="98" rx="2" ry="2"/><rect class="c" x="658" y="2" rx="2" ry="2"/><rect class="c" x="658" y="18" rx="2" ry="2"/><rect class="c" x="658" y="34" rx="2" ry="2"/><rect class="c" x="658" y="50" rx="2" ry="2"/><rect class="c" x="658" y="66" rx="2" ry="2"/><rect class="c" x="658" y="82" rx="2" ry="2"/><rect class="c" x="658" y="98" rx="2" ry="2"/><rect class="c" x="674" y="2" rx="2" ry="2"/><rect class="c" x="674" y="18" rx="2" ry="2"/><rect class="c" x="674" y="34" rx="2" ry="2"/><rect class="c" x="674" y="50" rx="2" ry="2"/><rect class="c" x="674" y="66" rx="2" ry="2"/><rect class="c" x="674" y="82" rx="2" ry="2"/><rect class="c" x="674" y="98" rx="2" ry="2"/><rect class="c" x="690" y="2" rx="2" ry="2"/><rect class="c" x="690" y="18" rx="2" ry="2"/><rect class="c" x="690" y="34" rx="2" ry="2"/><rect class="c" x="690" y="50" rx="2" ry="2"/><rect class="c c1n" x="690" y="66" rx="2" ry="2"/><rect class="c c1o" x="690" y="82" rx="2" ry="2"/><rect class="c" x="690" y="98" rx="2" ry="2"/><rect class="c" x="706" y="2" rx="2" ry="2"/><rect class="c" x="706" y="18" rx="2" ry="2"/><rect class="c" x="706" y="34" rx="2" ry="2"/><rect class="c" x="706" y="50" rx="2" ry="2"/><rect class="c" x="706" y="66" rx="2" ry="2"/><rect class="c" x="706" y="82" rx="2" ry="2"/><rect class="c" x="706" y="98" rx="2" ry="2"/><rect class="c" x="722" y="2" rx="2" ry="2"/><rect class="c" x="722" y="18" rx="2" ry="2"/><rect class="c" x="722" y="34" rx="2" ry="2"/><rect class="c" x="722" y="50" rx="2" ry="2"/><rect class="c" x="722" y="66" rx="2" ry="2"/><rect class="c" x="722" y="82" rx="2" ry="2"/><rect class="c" x="722" y="98" rx="2" ry="2"/><rect class="c" x="738" y="2" rx="2" ry="2"/><rect class="c" x="738" y="18" rx="2" ry="2"/><rect class="c" x="738" y="34" rx="2" ry="2"/><rect class="c" x="738" y="50" rx="2" ry="2"/><rect class="c" x="738" y="66" rx="2" ry="2"/><rect class="c" x="738" y="82" rx="2" ry="2"/><rect class="c" x="738" y="98" rx="2" ry="2"/><rect class="c" x="754" y="2" rx="2" ry="2"/><rect class="c" x="754" y="18" rx="2" ry="2"/><rect class="c" x="754" y="34" rx="2" ry="2"/><rect class="c" x="754" y="50" rx="2" ry="2"/><rect class="c" x="754" y="66" rx="2" ry="2"/><rect class="c" x="754" y="82" rx="2" ry="2"/><rect class="c" x="754" y="98" rx="2" ry="2"/><rect class="c" x="770" y="2" rx="2" ry="2"/><rect class="c" x="770" y="18" rx="2" ry="2"/><rect class="c" x="770" y="34" rx="2" ry="2"/><rect class="c" x="770" y="50" rx="2" ry="2"/><rect class="c" x="770" y="66" rx="2" ry="2"/><rect class="c" x="770" y="82" rx="2" ry="2"/><rect class="c" x="770" y="98" rx="2" ry="2"/><rect class="c" x="786" y="2" rx="2" ry="2"/><rect class="c" x="786" y="18" rx="2" ry="2"/><rect class="c" x="786" y="34" rx="2" ry="2"/><rect class="c" x="786" y="50" rx="2" ry="2"/><rect class="c" x="786" y="66" rx="2" ry="2"/><rect class="c" x="786" y="82" rx="2" ry="2"/><rect class="c" x="786" y="98" rx="2" ry="2"/><rect class="c" x="802" y="2" rx="2" ry="2"/><rect class="c" x="802" y="18" rx="2" ry="2"/><rect class="c" x="802" y="34" rx="2" ry="2"/><rect class="c c1p" x="802" y="50" rx="2" ry="2"/><rect class="c" x="802" y="66" rx="2" ry="2"/><rect class="c" x="802" y="82" rx="2" ry="2"/><rect class="c" x="802" y="98" rx="2" ry="2"/><rect class="c" x="818" y="2" rx="2" ry="2"/><rect class="c" x="818" y="18" rx="2" ry="2"/><rect class="c c1q" x="818" y="34" rx="2" ry="2"/><rect class="c c1r" x="818" y="50" rx="2" ry="2"/><rect class="c" x="818" y="66" rx="2" ry="2"/><rect class="c" x="818" y="82" rx="2" ry="2"/><rect class="c" x="818" y="98" rx="2" ry="2"/><rect class="c" x="834" y="2" rx="2" ry="2"/><rect class="c" x="834" y="18" rx="2" ry="2"/><rect class="c" x="834" y="34" rx="2" ry="2"/><rect class="c" x="834" y="50" rx="2" ry="2"/><rect class="c" x="834" y="66" rx="2" ry="2"/><rect class="c c1s" x="834" y="82" rx="2" ry="2"/><rect class="u u0" height="12" width="509.4" x="0.0" y="144"/><rect class="u u1" height="12" width="196.3" x="508.8" y="144"/><rect class="u u2" height="12" width="91.9" x="704.5" y="144"/><rect class="u u3" height="12" width="52.8" x="795.8" y="144"/><rect class="s s0" x="0.8" y="0.8" width="14.4" height="14.4" rx="4.5" ry="4.5"/><rect class="s s1" x="1.8" y="1.8" width="12.3" height="12.3" rx="4.1" ry="4.1"/><rect class="s s2" x="2.6" y="2.6" width="10.8" height="10.8" rx="3.6" ry="3.6"/><rect class="s s3" x="3.0" y="3.0" width="9.9" height="9.9" rx="3.3" ry="3.3"/></svg>