<svg viewBox="-16 -32 880 192" width="880" height="192" xmlns="http://www.w3.org/2000/svg"><desc>Generated with https://github.com/Platane/snk</desc><style>:root{--cb:#1b1f230a;--cs:white;--ce:#0a0e12;--c0:#0a0e12;--c1:#1445a2;--c2:#1d65ee;--c3:#1f4eff;--c4:#466dff}.c{shape-rendering:geometricPrecision;fill:var(--ce);stroke-width:1px;stroke:var(--cb);animation:none 37100ms linear infinite;width:12px;height:12px}@keyframes c0{9.15%{fill:var(--c1)}9.17%,100%{fill:var(--ce)}}.c.c0{fill:var(--c1);animation-name:c0}@keyframes c1{1.88%{fill:var(--c1)}1.9%,100%{fill:var(--ce)}}.c.c1{fill:var(--c1);animation-name:c1}@keyframes c2{7.27%{fill:var(--c1)}7.29%,100%{fill:var(--ce)}}.c.c2{fill:var(--c1);animation-name:c2}@keyframes c3{6.19%{fill:var(--c1)}6.21%,100%{fill:var(--ce)}}.c.c3{fill:var(--c1);animation-name:c3}@keyframes c4{70.61%{fill:var(--c2)}70.63%,100%{fill:var(--ce)}}.c.c4{fill:var(--c2);animation-name:c4}@keyframes c5{2.42%{fill:var(--c1)}2.44%,100%{fill:var(--ce)}}.c.c5{fill:var(--c1);animation-name:c5}@keyframes c6{2.69%{fill:var(--c1)}2.71%,100%{fill:var(--ce)}}.c.c6{fill:var(--c1);animation-name:c6}@keyframes c7{3.49%{fill:var(--c1)}3.51%,100%{fill:var(--ce)}}.c.c7{fill:var(--c1);animation-name:c7}@keyframes c8{3.22%{fill:var(--c1)}3.24%,100%{fill:var(--ce)}}.c.c8{fill:var(--c1);animation-name:c8}@keyframes c9{68.99%{fill:var(--c2)}69.01%,100%{fill:var(--ce)}}.c.c9{fill:var(--c2);animation-name:c9}@keyframes ca{5.11%{fill:var(--c1)}5.13%,100%{fill:var(--ce)}}.c.ca{fill:var(--c1);animation-name:ca}@keyframes cb{12.39%{fill:var(--c1)}12.41%,100%{fill:var(--ce)}}.c.cb{fill:var(--c1);animation-name:cb}@keyframes cc{12.12%{fill:var(--c1)}12.14%,100%{fill:var(--ce)}}.c.cc{fill:var(--c1);animation-name:cc}@keyframes cd{14.55%{fill:var(--c1)}14.57%,100%{fill:var(--ce)}}.c.cd{fill:var(--c1);animation-name:cd}@keyframes ce{65.76%{fill:var(--c2)}65.78%,100%{fill:var(--ce)}}.c.ce{fill:var(--c2);animation-name:ce}@keyframes cf{14.81%{fill:var(--c1)}14.83%,100%{fill:var(--ce)}}.c.cf{fill:var(--c1);animation-name:cf}@keyframes cg{15.62%{fill:var(--c1)}15.64%,100%{fill:var(--ce)}}.c.cg{fill:var(--c1);animation-name:cg}@keyframes ch{16.16%{fill:var(--c1)}16.18%,100%{fill:var(--ce)}}.c.ch{fill:var(--c1);animation-name:ch}@keyframes ci{18.32%{fill:var(--c1)}18.34%,100%{fill:var(--ce)}}.c.ci{fill:var(--c1);animation-name:ci}@keyframes cj{16.43%{fill:var(--c1)}16.45%,100%{fill:var(--ce)}}.c.cj{fill:var(--c1);animation-name:cj}@keyframes ck{18.05%{fill:var(--c1)}18.07%,100%{fill:var(--ce)}}.c.ck{fill:var(--c1);animation-name:ck}@keyframes cl{17.78%{fill:var(--c1)}17.8%,100%{fill:var(--ce)}}.c.cl{fill:var(--c1);animation-name:cl}@keyframes cm{17.24%{fill:var(--c1)}17.26%,100%{fill:var(--ce)}}.c.cm{fill:var(--c1);animation-name:cm}@keyframes cn{21.82%{fill:var(--c1)}21.84%,100%{fill:var(--ce)}}.c.cn{fill:var(--c1);animation-name:cn}@keyframes co{22.36%{fill:var(--c1)}22.38%,100%{fill:var(--ce)}}.c.co{fill:var(--c1);animation-name:co}@keyframes cp{21.55%{fill:var(--c1)}21.57%,100%{fill:var(--ce)}}.c.cp{fill:var(--c1);animation-name:cp}@keyframes cq{20.21%{fill:var(--c1)}20.23%,100%{fill:var(--ce)}}.c.cq{fill:var(--c1);animation-name:cq}@keyframes cr{27.48%{fill:var(--c1)}27.5%,100%{fill:var(--ce)}}.c.cr{fill:var(--c1);animation-name:cr}@keyframes cs{62.79%{fill:var(--c2)}62.81%,100%{fill:var(--ce)}}.c.cs{fill:var(--c2);animation-name:cs}@keyframes ct{21.01%{fill:var(--c1)}21.03%,100%{fill:var(--ce)}}.c.ct{fill:var(--c1);animation-name:ct}@keyframes cu{25.33%{fill:var(--c1)}25.35%,100%{fill:var(--ce)}}.c.cu{fill:var(--c1);animation-name:cu}@keyframes cv{24.79%{fill:var(--c1)}24.81%,100%{fill:var(--ce)}}.c.cv{fill:var(--c1);animation-name:cv}@keyframes cw{31.26%{fill:var(--c1)}31.28%,100%{fill:var(--ce)}}.c.cw{fill:var(--c1);animation-name:cw}@keyframes cx{46.08%{fill:var(--c1)}46.1%,100%{fill:var(--ce)}}.c.cx{fill:var(--c1);animation-name:cx}@keyframes cy{46.35%{fill:var(--c1)}46.37%,100%{fill:var(--ce)}}.c.cy{fill:var(--c1);animation-name:cy}@keyframes cz{31.53%{fill:var(--c1)}31.55%,100%{fill:var(--ce)}}.c.cz{fill:var(--c1);animation-name:cz}@keyframes c10{54.44%{fill:var(--c2)}54.46%,100%{fill:var(--ce)}}.c.c10{fill:var(--c2);animation-name:c10}@keyframes c11{31.8%{fill:var(--c1)}31.82%,100%{fill:var(--ce)}}.c.c11{fill:var(--c1);animation-name:c11}@keyframes c12{53.9%{fill:var(--c2)}53.92%,100%{fill:var(--ce)}}.c.c12{fill:var(--c2);animation-name:c12}@keyframes c13{45.54%{fill:var(--c1)}45.56%,100%{fill:var(--ce)}}.c.c13{fill:var(--c1);animation-name:c13}@keyframes c14{43.66%{fill:var(--c1)}43.68%,100%{fill:var(--ce)}}.c.c14{fill:var(--c1);animation-name:c14}@keyframes c15{43.93%{fill:var(--c1)}43.95%,100%{fill:var(--ce)}}.c.c15{fill:var(--c1);animation-name:c15}@keyframes c16{53.36%{fill:var(--c2)}53.38%,100%{fill:var(--ce)}}.c.c16{fill:var(--c2);animation-name:c16}@keyframes c17{45%{fill:var(--c1)}45.02%,100%{fill:var(--ce)}}.c.c17{fill:var(--c1);animation-name:c17}@keyframes c18{32.34%{fill:var(--c1)}32.36%,100%{fill:var(--ce)}}.c.c18{fill:var(--c1);animation-name:c18}@keyframes c19{43.39%{fill:var(--c1)}43.41%,100%{fill:var(--ce)}}.c.c19{fill:var(--c1);animation-name:c19}@keyframes c1a{43.12%{fill:var(--c1)}43.14%,100%{fill:var(--ce)}}.c.c1a{fill:var(--c1);animation-name:c1a}@keyframes c1b{44.73%{fill:var(--c1)}44.75%,100%{fill:var(--ce)}}.c.c1b{fill:var(--c1);animation-name:c1b}@keyframes c1c{51.2%{fill:var(--c1)}51.22%,100%{fill:var(--ce)}}.c.c1c{fill:var(--c1);animation-name:c1c}@keyframes c1d{32.6%{fill:var(--c1)}32.62%,100%{fill:var(--ce)}}.c.c1d{fill:var(--c1);animation-name:c1d}@keyframes c1e{82.47%{fill:var(--c3)}82.49%,100%{fill:var(--ce)}}.c.c1e{fill:var(--c3);animation-name:c1e}@keyframes c1f{52.55%{fill:var(--c2)}52.57%,100%{fill:var(--ce)}}.c.c1f{fill:var(--c2);animation-name:c1f}@keyframes c1g{42.58%{fill:var(--c1)}42.6%,100%{fill:var(--ce)}}.c.c1g{fill:var(--c1);animation-name:c1g}@keyframes c1h{81.66%{fill:var(--c3)}81.68%,100%{fill:var(--ce)}}.c.c1h{fill:var(--c3);animation-name:c1h}@keyframes c1i{56.59%{fill:var(--c2)}56.61%,100%{fill:var(--ce)}}.c.c1i{fill:var(--c2);animation-name:c1i}@keyframes c1j{83.28%{fill:var(--c4)}83.3%,100%{fill:var(--ce)}}.c.c1j{fill:var(--c4);animation-name:c1j}@keyframes c1k{32.87%{fill:var(--c1)}32.89%,100%{fill:var(--ce)}}.c.c1k{fill:var(--c1);animation-name:c1k}@keyframes c1l{38%{fill:var(--c1)}38.02%,100%{fill:var(--ce)}}.c.c1l{fill:var(--c1);animation-name:c1l}@keyframes c1m{37.73%{fill:var(--c1)}37.75%,100%{fill:var(--ce)}}.c.c1m{fill:var(--c1);animation-name:c1m}@keyframes c1n{42.31%{fill:var(--c1)}42.33%,100%{fill:var(--ce)}}.c.c1n{fill:var(--c1);animation-name:c1n}@keyframes c1o{85.17%{fill:var(--c4)}85.19%,100%{fill:var(--ce)}}.c.c1o{fill:var(--c4);animation-name:c1o}@keyframes c1p{48.78%{fill:var(--c1)}48.8%,100%{fill:var(--ce)}}.c.c1p{fill:var(--c1);animation-name:c1p}@keyframes c1q{35.03%{fill:var(--c1)}35.05%,100%{fill:var(--ce)}}.c.c1q{fill:var(--c1);animation-name:c1q}@keyframes c1r{33.14%{fill:var(--c1)}33.16%,100%{fill:var(--ce)}}.c.c1r{fill:var(--c1);animation-name:c1r}@keyframes c1s{35.57%{fill:var(--c1)}35.59%,100%{fill:var(--ce)}}.c.c1s{fill:var(--c1);animation-name:c1s}@keyframes c1t{37.46%{fill:var(--c1)}37.48%,100%{fill:var(--ce)}}.c.c1t{fill:var(--c1);animation-name:c1t}@keyframes c1u{38.8%{fill:var(--c1)}38.82%,100%{fill:var(--ce)}}.c.c1u{fill:var(--c1);animation-name:c1u}@keyframes c1v{40.15%{fill:var(--c1)}40.17%,100%{fill:var(--ce)}}.c.c1v{fill:var(--c1);animation-name:c1v}@keyframes c1w{40.42%{fill:var(--c1)}40.44%,100%{fill:var(--ce)}}.c.c1w{fill:var(--c1);animation-name:c1w}@keyframes c1x{34.76%{fill:var(--c1)}34.78%,100%{fill:var(--ce)}}.c.c1x{fill:var(--c1);animation-name:c1x}@keyframes c1y{33.41%{fill:var(--c1)}33.43%,100%{fill:var(--ce)}}.c.c1y{fill:var(--c1);animation-name:c1y}@keyframes c1z{35.84%{fill:var(--c1)}35.86%,100%{fill:var(--ce)}}.c.c1z{fill:var(--c1);animation-name:c1z}@keyframes c20{37.19%{fill:var(--c1)}37.21%,100%{fill:var(--ce)}}.c.c20{fill:var(--c1);animation-name:c20}@keyframes c21{39.07%{fill:var(--c1)}39.09%,100%{fill:var(--ce)}}.c.c21{fill:var(--c1);animation-name:c21}@keyframes c22{39.88%{fill:var(--c1)}39.9%,100%{fill:var(--ce)}}.c.c22{fill:var(--c1);animation-name:c22}@keyframes c23{40.69%{fill:var(--c1)}40.71%,100%{fill:var(--ce)}}.c.c23{fill:var(--c1);animation-name:c23}@keyframes c24{34.49%{fill:var(--c1)}34.51%,100%{fill:var(--ce)}}.c.c24{fill:var(--c1);animation-name:c24}@keyframes c25{33.68%{fill:var(--c1)}33.7%,100%{fill:var(--ce)}}.c.c25{fill:var(--c1);animation-name:c25}@keyframes c26{36.11%{fill:var(--c1)}36.13%,100%{fill:var(--ce)}}.c.c26{fill:var(--c1);animation-name:c26}@keyframes c27{36.92%{fill:var(--c1)}36.94%,100%{fill:var(--ce)}}.c.c27{fill:var(--c1);animation-name:c27}@keyframes c28{39.34%{fill:var(--c1)}39.36%,100%{fill:var(--ce)}}.c.c28{fill:var(--c1);animation-name:c28}@keyframes c29{39.61%{fill:var(--c1)}39.63%,100%{fill:var(--ce)}}.c.c29{fill:var(--c1);animation-name:c29}@keyframes c2a{40.96%{fill:var(--c1)}40.98%,100%{fill:var(--ce)}}.c.c2a{fill:var(--c1);animation-name:c2a}@keyframes c2b{34.22%{fill:var(--c1)}34.24%,100%{fill:var(--ce)}}.c.c2b{fill:var(--c1);animation-name:c2b}@keyframes c2c{33.95%{fill:var(--c1)}33.97%,100%{fill:var(--ce)}}.c.c2c{fill:var(--c1);animation-name:c2c}@keyframes c2d{36.38%{fill:var(--c1)}36.4%,100%{fill:var(--ce)}}.c.c2d{fill:var(--c1);animation-name:c2d}@keyframes c2e{36.65%{fill:var(--c1)}36.67%,100%{fill:var(--ce)}}.c.c2e{fill:var(--c1);animation-name:c2e}.u{transform-origin:0 0;transform:scale(0,1);animation:none linear 37100ms infinite}@keyframes u0{1.88%{transform:scale(0.000,1)}1.9%,2.42%{transform:scale(0.014,1)}2.44%,2.69%{transform:scale(0.027,1)}2.71%,3.22%{transform:scale(0.041,1)}3.24%,3.49%{transform:scale(0.054,1)}3.51%,5.11%{transform:scale(0.068,1)}5.13%,6.19%{transform:scale(0.081,1)}6.21%,7.27%{transform:scale(0.095,1)}7.29%,9.15%{transform:scale(0.108,1)}9.17%,12.12%{transform:scale(0.122,1)}12.14%,12.39%{transform:scale(0.135,1)}12.41%,14.55%{transform:scale(0.149,1)}14.57%,14.81%{transform:scale(0.162,1)}14.83%,15.62%{transform:scale(0.176,1)}15.64%,16.16%{transform:scale(0.189,1)}16.18%,16.43%{transform:scale(0.203,1)}16.45%,17.24%{transform:scale(0.216,1)}17.26%,17.78%{transform:scale(0.230,1)}17.8%,18.05%{transform:scale(0.243,1)}18.07%,18.32%{transform:scale(0.257,1)}18.34%,20.21%{transform:scale(0.270,1)}20.23%,21.01%{transform:scale(0.284,1)}21.03%,21.55%{transform:scale(0.297,1)}21.57%,21.82%{transform:scale(0.311,1)}21.84%,22.36%{transform:scale(0.324,1)}22.38%,24.79%{transform:scale(0.338,1)}24.81%,25.33%{transform:scale(0.351,1)}25.35%,27.48%{transform:scale(0.365,1)}27.5%,31.26%{transform:scale(0.378,1)}31.28%,31.53%{transform:scale(0.392,1)}31.55%,31.8%{transform:scale(0.405,1)}31.82%,32.34%{transform:scale(0.419,1)}32.36%,32.6%{transform:scale(0.432,1)}32.62%,32.87%{transform:scale(0.446,1)}32.89%,33.14%{transform:scale(0.459,1)}33.16%,33.41%{transform:scale(0.473,1)}33.43%,33.68%{transform:scale(0.486,1)}33.7%,33.95%{transform:scale(0.500,1)}33.97%,34.22%{transform:scale(0.514,1)}34.24%,34.49%{transform:scale(0.527,1)}34.51%,34.76%{transform:scale(0.541,1)}34.78%,35.03%{transform:scale(0.554,1)}35.05%,35.57%{transform:scale(0.568,1)}35.59%,35.84%{transform:scale(0.581,1)}35.86%,36.11%{transform:scale(0.595,1)}36.13%,36.38%{transform:scale(0.608,1)}36.4%,36.65%{transform:scale(0.622,1)}36.67%,36.92%{transform:scale(0.635,1)}36.94%,37.19%{transform:scale(0.649,1)}37.21%,37.46%{transform:scale(0.662,1)}37.48%,37.73%{transform:scale(0.676,1)}37.75%,38%{transform:scale(0.689,1)}38.02%,38.8%{transform:scale(0.703,1)}38.82%,39.07%{transform:scale(0.716,1)}39.09%,39.34%{transform:scale(0.730,1)}39.36%,39.61%{transform:scale(0.743,1)}39.63%,39.88%{transform:scale(0.757,1)}39.9%,40.15%{transform:scale(0.770,1)}40.17%,40.42%{transform:scale(0.784,1)}40.44%,40.69%{transform:scale(0.797,1)}40.71%,40.96%{transform:scale(0.811,1)}40.98%,42.31%{transform:scale(0.824,1)}42.33%,42.58%{transform:scale(0.838,1)}42.6%,43.12%{transform:scale(0.851,1)}43.14%,43.39%{transform:scale(0.865,1)}43.41%,43.66%{transform:scale(0.878,1)}43.68%,43.93%{transform:scale(0.892,1)}43.95%,44.73%{transform:scale(0.905,1)}44.75%,45%{transform:scale(0.919,1)}45.02%,45.54%{transform:scale(0.932,1)}45.56%,46.08%{transform:scale(0.946,1)}46.1%,46.35%{transform:scale(0.959,1)}46.37%,48.78%{transform:scale(0.973,1)}48.8%,51.2%{transform:scale(0.986,1)}51.22%,100%{transform:scale(1.000,1)}}.u.u0{fill:var(--c1);animation-name:u0;transform-origin:0.0px 0}@keyframes u1{52.55%{transform:scale(0.000,1)}52.57%,53.36%{transform:scale(0.111,1)}53.38%,53.9%{transform:scale(0.222,1)}53.92%,54.44%{transform:scale(0.333,1)}54.46%,56.59%{transform:scale(0.444,1)}56.61%,62.79%{transform:scale(0.556,1)}62.81%,65.76%{transform:scale(0.667,1)}65.78%,68.99%{transform:scale(0.778,1)}69.01%,70.61%{transform:scale(0.889,1)}70.63%,100%{transform:scale(1.000,1)}}.u.u1{fill:var(--c2);animation-name:u1;transform-origin:721.3px 0}@keyframes u2{81.66%{transform:scale(0.000,1)}81.68%,82.47%{transform:scale(0.500,1)}82.49%,100%{transform:scale(1.000,1)}}.u.u2{fill:var(--c3);animation-name:u2;transform-origin:809.0px 0}@keyframes u3{83.28%{transform:scale(0.000,1)}83.3%,85.17%{transform:scale(0.500,1)}85.19%,100%{transform:scale(1.000,1)}}.u.u3{fill:var(--c4);animation-name:u3;transform-origin:828.5px 0}.s{shape-rendering:geometricPrecision;fill:var(--cs);animation:none linear 37100ms infinite}@keyframes s0{0%,99.73%{transform:translate(0px,-16px)}0.27%{transform:translate(0px,0px)}2.43%{transform:translate(128px,0px)}2.7%{transform:translate(128px,16px)}3.23%{transform:translate(160px,16px)}3.5%{transform:translate(160px,0px)}3.77%{transform:translate(176px,0px)}4.85%{transform:translate(176px,64px)}5.93%{transform:translate(112px,64px)}6.2%{transform:translate(112px,80px)}6.47%,10.24%{transform:translate(96px,80px)}7.28%{transform:translate(96px,32px)}8.09%{transform:translate(48px,32px)}9.16%{transform:translate(48px,96px)}9.97%{transform:translate(96px,96px)}12.13%{transform:translate(208px,80px)}12.4%{transform:translate(208px,64px)}14.29%{transform:translate(320px,64px)}14.56%{transform:translate(320px,48px)}15.09%{transform:translate(352px,48px)}15.63%{transform:translate(352px,80px)}16.71%{transform:translate(416px,80px)}18.06%{transform:translate(416px,0px)}18.33%{transform:translate(400px,0px)}18.6%{transform:translate(400px,16px)}19.95%{transform:translate(480px,16px)}20.22%{transform:translate(480px,32px)}20.49%{transform:translate(496px,32px)}21.02%{transform:translate(496px,64px)}21.83%{transform:translate(448px,64px)}22.37%{transform:translate(448px,96px)}24.53%{transform:translate(576px,96px)}25.07%{transform:translate(576px,64px)}25.34%{transform:translate(560px,64px)}26.42%{transform:translate(560px,0px)}27.49%{transform:translate(496px,0px)}27.76%{transform:translate(496px,-16px)}30.73%{transform:translate(672px,-16px)}31.27%{transform:translate(672px,16px)}33.96%{transform:translate(832px,16px)}34.23%{transform:translate(832px,0px)}35.04%,83.56%{transform:translate(784px,0px)}35.58%,38.27%{transform:translate(784px,32px)}36.39%{transform:translate(832px,32px)}36.66%{transform:translate(832px,48px)}37.74%{transform:translate(768px,48px)}38.01%,82.75%{transform:translate(768px,32px)}38.81%{transform:translate(784px,64px)}39.35%,41.51%{transform:translate(816px,64px)}39.62%{transform:translate(816px,80px)}40.16%{transform:translate(784px,80px)}40.43%,49.06%{transform:translate(784px,96px)}40.97%{transform:translate(816px,96px)}42.86%{transform:translate(736px,64px)}43.4%{transform:translate(736px,32px)}43.67%{transform:translate(720px,32px)}43.94%,53.64%{transform:translate(720px,48px)}44.2%,52.29%,55.53%{transform:translate(736px,48px)}44.74%,47.44%{transform:translate(736px,80px)}45.28%{transform:translate(704px,80px)}45.55%{transform:translate(704px,64px)}46.09%{transform:translate(672px,64px)}46.36%{transform:translate(672px,80px)}47.98%,57.14%{transform:translate(736px,112px)}48.52%{transform:translate(768px,112px)}48.79%{transform:translate(768px,96px)}50.4%,83.83%{transform:translate(784px,16px)}50.94%{transform:translate(752px,16px)}51.21%{transform:translate(752px,0px)}51.48%{transform:translate(736px,0px)}52.56%{transform:translate(752px,48px)}52.83%{transform:translate(752px,64px)}53.37%{transform:translate(720px,64px)}53.91%{transform:translate(704px,48px)}54.18%{transform:translate(704px,32px)}54.45%{transform:translate(688px,32px)}54.72%{transform:translate(688px,48px)}56.33%{transform:translate(736px,96px)}56.6%,81.4%{transform:translate(752px,96px)}56.87%{transform:translate(752px,112px)}58.76%{transform:translate(736px,16px)}65.5%{transform:translate(336px,16px)}65.77%{transform:translate(336px,32px)}68.73%{transform:translate(160px,32px)}69%{transform:translate(160px,48px)}69.81%{transform:translate(112px,48px)}70.62%{transform:translate(112px,96px)}82.48%{transform:translate(752px,32px)}83.29%{transform:translate(768px,0px)}84.1%{transform:translate(768px,16px)}85.18%{transform:translate(768px,80px)}95.69%{transform:translate(144px,80px)}95.96%{transform:translate(144px,64px)}96.77%{transform:translate(96px,64px)}97.04%{transform:translate(96px,48px)}97.3%{transform:translate(80px,48px)}97.57%{transform:translate(80px,32px)}97.84%{transform:translate(64px,32px)}98.65%{transform:translate(64px,-16px)}}.s.s0{transform:translate(0px,-16px);animation-name:s0}@keyframes s1{0%,99.73%{transform:translate(16px,-16px)}0.27%{transform:translate(0px,-16px)}0.54%{transform:translate(0px,0px)}2.7%{transform:translate(128px,0px)}2.96%{transform:translate(128px,16px)}3.5%{transform:translate(160px,16px)}3.77%{transform:translate(160px,0px)}4.04%{transform:translate(176px,0px)}5.12%{transform:translate(176px,64px)}6.2%{transform:translate(112px,64px)}6.47%{transform:translate(112px,80px)}6.74%,10.51%{transform:translate(96px,80px)}7.55%{transform:translate(96px,32px)}8.36%{transform:translate(48px,32px)}9.43%{transform:translate(48px,96px)}10.24%{transform:translate(96px,96px)}12.4%{transform:translate(208px,80px)}12.67%{transform:translate(208px,64px)}14.56%{transform:translate(320px,64px)}14.82%{transform:translate(320px,48px)}15.36%{transform:translate(352px,48px)}15.9%{transform:translate(352px,80px)}16.98%{transform:translate(416px,80px)}18.33%{transform:translate(416px,0px)}18.6%{transform:translate(400px,0px)}18.87%{transform:translate(400px,16px)}20.22%{transform:translate(480px,16px)}20.49%{transform:translate(480px,32px)}20.75%{transform:translate(496px,32px)}21.29%{transform:translate(496px,64px)}22.1%{transform:translate(448px,64px)}22.64%{transform:translate(448px,96px)}24.8%{transform:translate(576px,96px)}25.34%{transform:translate(576px,64px)}25.61%{transform:translate(560px,64px)}26.68%{transform:translate(560px,0px)}27.76%{transform:translate(496px,0px)}28.03%{transform:translate(496px,-16px)}31%{transform:translate(672px,-16px)}31.54%{transform:translate(672px,16px)}34.23%{transform:translate(832px,16px)}34.5%{transform:translate(832px,0px)}35.31%,83.83%{transform:translate(784px,0px)}35.85%,38.54%{transform:translate(784px,32px)}36.66%{transform:translate(832px,32px)}36.93%{transform:translate(832px,48px)}38.01%{transform:translate(768px,48px)}38.27%,83.02%{transform:translate(768px,32px)}39.08%{transform:translate(784px,64px)}39.62%,41.78%{transform:translate(816px,64px)}39.89%{transform:translate(816px,80px)}40.43%{transform:translate(784px,80px)}40.7%,49.33%{transform:translate(784px,96px)}41.24%{transform:translate(816px,96px)}43.13%{transform:translate(736px,64px)}43.67%{transform:translate(736px,32px)}43.94%{transform:translate(720px,32px)}44.2%,53.91%{transform:translate(720px,48px)}44.47%,52.56%,55.8%{transform:translate(736px,48px)}45.01%,47.71%{transform:translate(736px,80px)}45.55%{transform:translate(704px,80px)}45.82%{transform:translate(704px,64px)}46.36%{transform:translate(672px,64px)}46.63%{transform:translate(672px,80px)}48.25%,57.41%{transform:translate(736px,112px)}48.79%{transform:translate(768px,112px)}49.06%{transform:translate(768px,96px)}50.67%,84.1%{transform:translate(784px,16px)}51.21%{transform:translate(752px,16px)}51.48%{transform:translate(752px,0px)}51.75%{transform:translate(736px,0px)}52.83%{transform:translate(752px,48px)}53.1%{transform:translate(752px,64px)}53.64%{transform:translate(720px,64px)}54.18%{transform:translate(704px,48px)}54.45%{transform:translate(704px,32px)}54.72%{transform:translate(688px,32px)}54.99%{transform:translate(688px,48px)}56.6%{transform:translate(736px,96px)}56.87%,81.67%{transform:translate(752px,96px)}57.14%{transform:translate(752px,112px)}59.03%{transform:translate(736px,16px)}65.77%{transform:translate(336px,16px)}66.04%{transform:translate(336px,32px)}69%{transform:translate(160px,32px)}69.27%{transform:translate(160px,48px)}70.08%{transform:translate(112px,48px)}70.89%{transform:translate(112px,96px)}82.75%{transform:translate(752px,32px)}83.56%{transform:translate(768px,0px)}84.37%{transform:translate(768px,16px)}85.44%{transform:translate(768px,80px)}95.96%{transform:translate(144px,80px)}96.23%{transform:translate(144px,64px)}97.04%{transform:translate(96px,64px)}97.3%{transform:translate(96px,48px)}97.57%{transform:translate(80px,48px)}97.84%{transform:translate(80px,32px)}98.11%{transform:translate(64px,32px)}98.92%{transform:translate(64px,-16px)}}.s.s1{transform:translate(16px,-16px);animation-name:s1}@keyframes s2{0%,99.73%{transform:translate(32px,-16px)}0.54%{transform:translate(0px,-16px)}0.81%{transform:translate(0px,0px)}2.96%{transform:translate(128px,0px)}3.23%{transform:translate(128px,16px)}3.77%{transform:translate(160px,16px)}4.04%{transform:translate(160px,0px)}4.31%{transform:translate(176px,0px)}5.39%{transform:translate(176px,64px)}6.47%{transform:translate(112px,64px)}6.74%{transform:translate(112px,80px)}7.01%,10.78%{transform:translate(96px,80px)}7.82%{transform:translate(96px,32px)}8.63%{transform:translate(48px,32px)}9.7%{transform:translate(48px,96px)}10.51%{transform:translate(96px,96px)}12.67%{transform:translate(208px,80px)}12.94%{transform:translate(208px,64px)}14.82%{transform:translate(320px,64px)}15.09%{transform:translate(320px,48px)}15.63%{transform:translate(352px,48px)}16.17%{transform:translate(352px,80px)}17.25%{transform:translate(416px,80px)}18.6%{transform:translate(416px,0px)}18.87%{transform:translate(400px,0px)}19.14%{transform:translate(400px,16px)}20.49%{transform:translate(480px,16px)}20.75%{transform:translate(480px,32px)}21.02%{transform:translate(496px,32px)}21.56%{transform:translate(496px,64px)}22.37%{transform:translate(448px,64px)}22.91%{transform:translate(448px,96px)}25.07%{transform:translate(576px,96px)}25.61%{transform:translate(576px,64px)}25.88%{transform:translate(560px,64px)}26.95%{transform:translate(560px,0px)}28.03%{transform:translate(496px,0px)}28.3%{transform:translate(496px,-16px)}31.27%{transform:translate(672px,-16px)}31.81%{transform:translate(672px,16px)}34.5%{transform:translate(832px,16px)}34.77%{transform:translate(832px,0px)}35.58%,84.1%{transform:translate(784px,0px)}36.12%,38.81%{transform:translate(784px,32px)}36.93%{transform:translate(832px,32px)}37.2%{transform:translate(832px,48px)}38.27%{transform:translate(768px,48px)}38.54%,83.29%{transform:translate(768px,32px)}39.35%{transform:translate(784px,64px)}39.89%,42.05%{transform:translate(816px,64px)}40.16%{transform:translate(816px,80px)}40.7%{transform:translate(784px,80px)}40.97%,49.6%{transform:translate(784px,96px)}41.51%{transform:translate(816px,96px)}43.4%{transform:translate(736px,64px)}43.94%{transform:translate(736px,32px)}44.2%{transform:translate(720px,32px)}44.47%,54.18%{transform:translate(720px,48px)}44.74%,52.83%,56.06%{transform:translate(736px,48px)}45.28%,47.98%{transform:translate(736px,80px)}45.82%{transform:translate(704px,80px)}46.09%{transform:translate(704px,64px)}46.63%{transform:translate(672px,64px)}46.9%{transform:translate(672px,80px)}48.52%,57.68%{transform:translate(736px,112px)}49.06%{transform:translate(768px,112px)}49.33%{transform:translate(768px,96px)}50.94%,84.37%{transform:translate(784px,16px)}51.48%{transform:translate(752px,16px)}51.75%{transform:translate(752px,0px)}52.02%{transform:translate(736px,0px)}53.1%{transform:translate(752px,48px)}53.37%{transform:translate(752px,64px)}53.91%{transform:translate(720px,64px)}54.45%{transform:translate(704px,48px)}54.72%{transform:translate(704px,32px)}54.99%{transform:translate(688px,32px)}55.26%{transform:translate(688px,48px)}56.87%{transform:translate(736px,96px)}57.14%,81.94%{transform:translate(752px,96px)}57.41%{transform:translate(752px,112px)}59.3%{transform:translate(736px,16px)}66.04%{transform:translate(336px,16px)}66.31%{transform:translate(336px,32px)}69.27%{transform:translate(160px,32px)}69.54%{transform:translate(160px,48px)}70.35%{transform:translate(112px,48px)}71.16%{transform:translate(112px,96px)}83.02%{transform:translate(752px,32px)}83.83%{transform:translate(768px,0px)}84.64%{transform:translate(768px,16px)}85.71%{transform:translate(768px,80px)}96.23%{transform:translate(144px,80px)}96.5%{transform:translate(144px,64px)}97.3%{transform:translate(96px,64px)}97.57%{transform:translate(96px,48px)}97.84%{transform:translate(80px,48px)}98.11%{transform:translate(80px,32px)}98.38%{transform:translate(64px,32px)}99.19%{transform:translate(64px,-16px)}}.s.s2{transform:translate(32px,-16px);animation-name:s2}@keyframes s3{0%,99.73%{transform:translate(48px,-16px)}0.81%{transform:translate(0px,-16px)}1.08%{transform:translate(0px,0px)}3.23%{transform:translate(128px,0px)}3.5%{transform:translate(128px,16px)}4.04%{transform:translate(160px,16px)}4.31%{transform:translate(160px,0px)}4.58%{transform:translate(176px,0px)}5.66%{transform:translate(176px,64px)}6.74%{transform:translate(112px,64px)}7.01%{transform:translate(112px,80px)}7.28%,11.05%{transform:translate(96px,80px)}8.09%{transform:translate(96px,32px)}8.89%{transform:translate(48px,32px)}9.97%{transform:translate(48px,96px)}10.78%{transform:translate(96px,96px)}12.94%{transform:translate(208px,80px)}13.21%{transform:translate(208px,64px)}15.09%{transform:translate(320px,64px)}15.36%{transform:translate(320px,48px)}15.9%{transform:translate(352px,48px)}16.44%{transform:translate(352px,80px)}17.52%{transform:translate(416px,80px)}18.87%{transform:translate(416px,0px)}19.14%{transform:translate(400px,0px)}19.41%{transform:translate(400px,16px)}20.75%{transform:translate(480px,16px)}21.02%{transform:translate(480px,32px)}21.29%{transform:translate(496px,32px)}21.83%{transform:translate(496px,64px)}22.64%{transform:translate(448px,64px)}23.18%{transform:translate(448px,96px)}25.34%{transform:translate(576px,96px)}25.88%{transform:translate(576px,64px)}26.15%{transform:translate(560px,64px)}27.22%{transform:translate(560px,0px)}28.3%{transform:translate(496px,0px)}28.57%{transform:translate(496px,-16px)}31.54%{transform:translate(672px,-16px)}32.08%{transform:translate(672px,16px)}34.77%{transform:translate(832px,16px)}35.04%{transform:translate(832px,0px)}35.85%,84.37%{transform:translate(784px,0px)}36.39%,39.08%{transform:translate(784px,32px)}37.2%{transform:translate(832px,32px)}37.47%{transform:translate(832px,48px)}38.54%{transform:translate(768px,48px)}38.81%,83.56%{transform:translate(768px,32px)}39.62%{transform:translate(784px,64px)}40.16%,42.32%{transform:translate(816px,64px)}40.43%{transform:translate(816px,80px)}40.97%{transform:translate(784px,80px)}41.24%,49.87%{transform:translate(784px,96px)}41.78%{transform:translate(816px,96px)}43.67%{transform:translate(736px,64px)}44.2%{transform:translate(736px,32px)}44.47%{transform:translate(720px,32px)}44.74%,54.45%{transform:translate(720px,48px)}45.01%,53.1%,56.33%{transform:translate(736px,48px)}45.55%,48.25%{transform:translate(736px,80px)}46.09%{transform:translate(704px,80px)}46.36%{transform:translate(704px,64px)}46.9%{transform:translate(672px,64px)}47.17%{transform:translate(672px,80px)}48.79%,57.95%{transform:translate(736px,112px)}49.33%{transform:translate(768px,112px)}49.6%{transform:translate(768px,96px)}51.21%,84.64%{transform:translate(784px,16px)}51.75%{transform:translate(752px,16px)}52.02%{transform:translate(752px,0px)}52.29%{transform:translate(736px,0px)}53.37%{transform:translate(752px,48px)}53.64%{transform:translate(752px,64px)}54.18%{transform:translate(720px,64px)}54.72%{transform:translate(704px,48px)}54.99%{transform:translate(704px,32px)}55.26%{transform:translate(688px,32px)}55.53%{transform:translate(688px,48px)}57.14%{transform:translate(736px,96px)}57.41%,82.21%{transform:translate(752px,96px)}57.68%{transform:translate(752px,112px)}59.57%{transform:translate(736px,16px)}66.31%{transform:translate(336px,16px)}66.58%{transform:translate(336px,32px)}69.54%{transform:translate(160px,32px)}69.81%{transform:translate(160px,48px)}70.62%{transform:translate(112px,48px)}71.43%{transform:translate(112px,96px)}83.29%{transform:translate(752px,32px)}84.1%{transform:translate(768px,0px)}84.91%{transform:translate(768px,16px)}85.98%{transform:translate(768px,80px)}96.5%{transform:translate(144px,80px)}96.77%{transform:translate(144px,64px)}97.57%{transform:translate(96px,64px)}97.84%{transform:translate(96px,48px)}98.11%{transform:translate(80px,48px)}98.38%{transform:translate(80px,32px)}98.65%{transform:translate(64px,32px)}99.46%{transform:translate(64px,-16px)}}.s.s3{transform:translate(48px,-16px);animation-name:s3}</style><rect class="c" x="2" y="2" rx="2" ry="2"/><rect class="c" x="2" y="18" rx="2" ry="2"/><rect class="c" x="2" y="34" rx="2" ry="2"/><rect class="c" x="2" y="50" rx="2" ry="2"/><rect class="c" x="2" y="66" rx="2" ry="2"/><rect class="c" x="2" y="82" rx="2" ry="2"/><rect class="c" x="2" y="98" rx="2" ry="2"/><rect class="c" x="18" y="2" rx="2" ry="2"/><rect class="c" x="18" y="18" rx="2" ry="2"/><rect class="c" x="18" y="34" rx="2" ry="2"/><rect class="c" x="18" y="50" rx="2" ry="2"/><rect class="c" x="18" y="66" rx="2" ry="2"/><rect class="c" x="18" y="82" rx="2" ry="2"/><rect class="c" x="18" y="98" rx="2" ry="2"/><rect class="c" x="34" y="2" rx="2" ry="2"/><rect class="c" x="34" y="18" rx="2" ry="2"/><rect class="c" x="34" y="34" rx="2" ry="2"/><rect class="c" x="34" y="50" rx="2" ry="2"/><rect class="c" x="34" y="66" rx="2" ry="2"/><rect class="c" x="34" y="82" rx="2" ry="2"/><rect class="c" x="34" y="98" rx="2" ry="2"/><rect class="c" x="50" y="2" rx="2" ry="2"/><rect class="c" x="50" y="18" rx="2" ry="2"/><rect class="c" x="50" y="34" rx="2" ry="2"/><rect class="c" x="50" y="50" rx="2" ry="2"/><rect class="c" x="50" y="66" rx="2" ry="2"/><rect class="c" x="50" y="82" rx="2" ry="2"/><rect class="c c0" x="50" y="98" rx="2" ry="2"/><rect class="c" x="66" y="2" rx="2" ry="2"/><rect class="c" x="66" y="18" rx="2" ry="2"/><rect class="c" x="66" y="34" rx="2" ry="2"/><rect class="c" x="66" y="50" rx="2" ry="2"/><rect class="c" x="66" y="66" rx="2" ry="2"/><rect class="c" x="66" y="82" rx="2" ry="2"/><rect class="c" x="66" y="98" rx="2" ry="2"/><rect class="c" x="82" y="2" rx="2" ry="2"/><rect class="c" x="82" y="18" rx="2" ry="2"/><rect class="c" x="82" y="34" rx="2" ry="2"/><rect class="c" x="82" y="50" rx="2" ry="2"/><rect class="c" x="82" y="66" rx="2" ry="2"/><rect class="c" x="82" y="82" rx="2" ry="2"/><rect class="c" x="82" y="98" rx="2" ry="2"/><rect class="c c1" x="98" y="2" rx="2" ry="2"/><rect class="c" x="98" y="18" rx="2" ry="2"/><rect class="c c2" x="98" y="34" rx="2" ry="2"/><rect class="c" x="98" y="50" rx="2" ry="2"/><rect class="c" x="98" y="66" rx="2" ry="2"/><rect class="c" x="98" y="82" rx="2" ry="2"/><rect class="c" x="98" y="98" rx="2" ry="2"/><rect class="c" x="114" y="2" rx="2" ry="2"/><rect class="c" x="114" y="18" rx="2" ry="2"/><rect class="c" x="114" y="34" rx="2" ry="2"/><rect class="c" x="114" y="50" rx="2" ry="2"/><rect class="c" x="114" y="66" rx="2" ry="2"/><rect class="c c3" x="114" y="82" rx="2" ry="2"/><rect class="c c4" x="114" y="98" rx="2" ry="2"/><rect class="c c5" x="130" y="2" rx="2" ry="2"/><rect class="c c6" x="130" y="18" rx="2" ry="2"/><rect class="c" x="130" y="34" rx="2" ry="2"/><rect class="c" x="130" y="50" rx="2" ry="2"/><rect class="c" x="130" y="66" rx="2" ry="2"/><rect class="c" x="130" y="82" rx="2" ry="2"/><rect class="c" x="130" y="98" rx="2" ry="2"/><rect class="c" x="146" y="2" rx="2" ry="2"/><rect class="c" x="146" y="18" rx="2" ry="2"/><rect class="c" x="146" y="34" rx="2" ry="2"/><rect class="c" x="146" y="50" rx="2" ry="2"/><rect class="c" x="146" y="66" rx="2" ry="2"/><rect class="c" x="146" y="82" rx="2" ry="2"/><rect class="c" x="146" y="98" rx="2" ry="2"/><rect class="c c7" x="162" y="2" rx="2" ry="2"/><rect class="c c8" x="162" y="18" rx="2" ry="2"/><rect class="c" x="162" y="34" rx="2" ry="2"/><rect class="c c9" x="162" y="50" rx="2" ry="2"/><rect class="c ca" x="162" y="66" rx="2" ry="2"/><rect class="c" x="162" y="82" rx="2" ry="2"/><rect class="c" x="162" y="98" rx="2" ry="2"/><rect class="c" x="178" y="2" rx="2" ry="2"/><rect class="c" x="178" y="18" rx="2" ry="2"/><rect class="c" x="178" y="34" rx="2" ry="2"/><rect class="c" x="178" y="50" rx="2" ry="2"/><rect class="c" x="178" y="66" rx="2" ry="2"/><rect class="c" x="178" y="82" rx="2" ry="2"/><rect class="c" x="178" y="98" rx="2" ry="2"/><rect class="c" x="194" y="2" rx="2" ry="2"/><rect class="c" x="194" y="18" rx="2" ry="2"/><rect class="c" x="194" y="34" rx="2" ry="2"/><rect class="c" x="194" y="50" rx="2" ry="2"/><rect class="c" x="194" y="66" rx="2" ry="2"/><rect class="c" x="194" y="82" rx="2" ry="2"/><rect class="c" x="194" y="98" rx="2" ry="2"/><rect class="c" x="210" y="2" rx="2" ry="2"/><rect class="c" x="210" y="18" rx="2" ry="2"/><rect class="c" x="210" y="34" rx="2" ry="2"/><rect class="c" x="210" y="50" rx="2" ry="2"/><rect class="c cb" x="210" y="66" rx="2" ry="2"/><rect class="c cc" x="210" y="82" rx="2" ry="2"/><rect class="c" x="210" y="98" rx="2" ry="2"/><rect class="c" x="226" y="2" rx="2" ry="2"/><rect class="c" x="226" y="18" rx="2" ry="2"/><rect class="c" x="226" y="34" rx="2" ry="2"/><rect class="c" x="226" y="50" rx="2" ry="2"/><rect class="c" x="226" y="66" rx="2" ry="2"/><rect class="c" x="226" y="82" rx="2" ry="2"/><rect class="c" x="226" y="98" rx="2" ry="2"/><rect class="c" x="242" y="2" rx="2" ry="2"/><rect class="c" x="242" y="18" rx="2" ry="2"/><rect class="c" x="242" y="34" rx="2" ry="2"/><rect class="c" x="242" y="50" rx="2" ry="2"/><rect class="c" x="242" y="66" rx="2" ry="2"/><rect class="c" x="242" y="82" rx="2" ry="2"/><rect class="c" x="242" y="98" rx="2" ry="2"/><rect class="c" x="258" y="2" rx="2" ry="2"/><rect class="c" x="258" y="18" rx="2" ry="2"/><rect class="c" x="258" y="34" rx="2" ry="2"/><rect class="c" x="258" y="50" rx="2" ry="2"/><rect class="c" x="258" y="66" rx="2" ry="2"/><rect class="c" x="258" y="82" rx="2" ry="2"/><rect class="c" x="258" y="98" rx="2" ry="2"/><rect class="c" x="274" y="2" rx="2" ry="2"/><rect class="c" x="274" y="18" rx="2" ry="2"/><rect class="c" x="274" y="34" rx="2" ry="2"/><rect class="c" x="274" y="50" rx="2" ry="2"/><rect class="c" x="274" y="66" rx="2" ry="2"/><rect class="c" x="274" y="82" rx="2" ry="2"/><rect class="c" x="274" y="98" rx="2" ry="2"/><rect class="c" x="290" y="2" rx="2" ry="2"/><rect class="c" x="290" y="18" rx="2" ry="2"/><rect class="c" x="290" y="34" rx="2" ry="2"/><rect class="c" x="290" y="50" rx="2" ry="2"/><rect class="c" x="290" y="66" rx="2" ry="2"/><rect class="c" x="290" y="82" rx="2" ry="2"/><rect class="c" x="290" y="98" rx="2" ry="2"/><rect class="c" x="306" y="2" rx="2" ry="2"/><rect class="c" x="306" y="18" rx="2" ry="2"/><rect class="c" x="306" y="34" rx="2" ry="2"/><rect class="c" x="306" y="50" rx="2" ry="2"/><rect class="c" x="306" y="66" rx="2" ry="2"/><rect class="c" x="306" y="82" rx="2" ry="2"/><rect class="c" x="306" y="98" rx="2" ry="2"/><rect class="c" x="322" y="2" rx="2" ry="2"/><rect class="c" x="322" y="18" rx="2" ry="2"/><rect class="c" x="322" y="34" rx="2" ry="2"/><rect class="c cd" x="322" y="50" rx="2" ry="2"/><rect class="c" x="322" y="66" rx="2" ry="2"/><rect class="c" x="322" y="82" rx="2" ry="2"/><rect class="c" x="322" y="98" rx="2" ry="2"/><rect class="c" x="338" y="2" rx="2" ry="2"/><rect class="c" x="338" y="18" rx="2" ry="2"/><rect class="c ce" x="338" y="34" rx="2" ry="2"/><rect class="c cf" x="338" y="50" rx="2" ry="2"/><rect class="c" x="338" y="66" rx="2" ry="2"/><rect class="c" x="338" y="82" rx="2" ry="2"/><rect class="c" x="338" y="98" rx="2" ry="2"/><rect class="c" x="354" y="2" rx="2" ry="2"/><rect class="c" x="354" y="18" rx="2" ry="2"/><rect class="c" x="354" y="34" rx="2" ry="2"/><rect class="c" x="354" y="50" rx="2" ry="2"/><rect class="c" x="354" y="66" rx="2" ry="2"/><rect class="c cg" x="354" y="82" rx="2" ry="2"/><rect class="c" x="354" y="98" rx="2" ry="2"/><rect class="c" x="370" y="2" rx="2" ry="2"/><rect class="c" x="370" y="18" rx="2" ry="2"/><rect class="c" x="370" y="34" rx="2" ry="2"/><rect class="c" x="370" y="50" rx="2" ry="2"/><rect class="c" x="370" y="66" rx="2" ry="2"/><rect class="c" x="370" y="82" rx="2" ry="2"/><rect class="c" x="370" y="98" rx="2" ry="2"/><rect class="c" x="386" y="2" rx="2" ry="2"/><rect class="c" x="386" y="18" rx="2" ry="2"/><rect class="c" x="386" y="34" rx="2" ry="2"/><rect class="c" x="386" y="50" rx="2" ry="2"/><rect class="c" x="386" y="66" rx="2" ry="2"/><rect class="c ch" x="386" y="82" rx="2" ry="2"/><rect class="c" x="386" y="98" rx="2" ry="2"/><rect class="c ci" x="402" y="2" rx="2" ry="2"/><rect class="c" x="402" y="18" rx="2" ry="2"/><rect class="c" x="402" y="34" rx="2" ry="2"/><rect class="c" x="402" y="50" rx="2" ry="2"/><rect class="c" x="402" y="66" rx="2" ry="2"/><rect class="c cj" x="402" y="82" rx="2" ry="2"/><rect class="c" x="402" y="98" rx="2" ry="2"/><rect class="c ck" x="418" y="2" rx="2" ry="2"/><rect class="c cl" x="418" y="18" rx="2" ry="2"/><rect class="c" x="418" y="34" rx="2" ry="2"/><rect class="c cm" x="418" y="50" rx="2" ry="2"/><rect class="c" x="418" y="66" rx="2" ry="2"/><rect class="c" x="418" y="82" rx="2" ry="2"/><rect class="c" x="418" y="98" rx="2" ry="2"/><rect class="c" x="434" y="2" rx="2" ry="2"/><rect class="c" x="434" y="18" rx="2" ry="2"/><rect class="c" x="434" y="34" rx="2" ry="2"/><rect class="c" x="434" y="50" rx="2" ry="2"/><rect class="c" x="434" y="66" rx="2" ry="2"/><rect class="c" x="434" y="82" rx="2" ry="2"/><rect class="c" x="434" y="98" rx="2" ry="2"/><rect class="c" x="450" y="2" rx="2" ry="2"/><rect class="c" x="450" y="18" rx="2" ry="2"/><rect class="c" x="450" y="34" rx="2" ry="2"/><rect class="c" x="450" y="50" rx="2" ry="2"/><rect class="c cn" x="450" y="66" rx="2" ry="2"/><rect class="c" x="450" y="82" rx="2" ry="2"/><rect class="c co" x="450" y="98" rx="2" ry="2"/><rect class="c" x="466" y="2" rx="2" ry="2"/><rect class="c" x="466" y="18" rx="2" ry="2"/><rect class="c" x="466" y="34" rx="2" ry="2"/><rect class="c" x="466" y="50" rx="2" ry="2"/><rect class="c cp" x="466" y="66" rx="2" ry="2"/><rect class="c" x="466" y="82" rx="2" ry="2"/><rect class="c" x="466" y="98" rx="2" ry="2"/><rect class="c" x="482" y="2" rx="2" ry="2"/><rect class="c" x="482" y="18" rx="2" ry="2"/><rect class="c cq" x="482" y="34" rx="2" ry="2"/><rect class="c" x="482" y="50" rx="2" ry="2"/><rect class="c" x="482" y="66" rx="2" ry="2"/><rect class="c" x="482" y="82" rx="2" ry="2"/><rect class="c" x="482" y="98" rx="2" ry="2"/><rect class="c cr" x="498" y="2" rx="2" ry="2"/><rect class="c cs" x="498" y="18" rx="2" ry="2"/><rect class="c" x="498" y="34" rx="2" ry="2"/><rect class="c" x="498" y="50" rx="2" ry="2"/><rect class="c ct" x="498" y="66" rx="2" ry="2"/><rect class="c" x="498" y="82" rx="2" ry="2"/><rect class="c" x="498" y="98" rx="2" ry="2"/><rect class="c" x="514" y="2" rx="2" ry="2"/><rect class="c" x="514" y="18" rx="2" ry="2"/><rect class="c" x="514" y="34" rx="2" ry="2"/><rect class="c" x="514" y="50" rx="2" ry="2"/><rect class="c" x="514" y="66" rx="2" ry="2"/><rect class="c" x="514" y="82" rx="2" ry="2"/><rect class="c" x="514" y="98" rx="2" ry="2"/><rect class="c" x="530" y="2" rx="2" ry="2"/><rect class="c" x="530" y="18" rx="2" ry="2"/><rect class="c" x="530" y="34" rx="2" ry="2"/><rect class="c" x="530" y="50" rx="2" ry="2"/><rect class="c" x="530" y="66" rx="2" ry="2"/><rect class="c" x="530" y="82" rx="2" ry="2"/><rect class="c" x="530" y="98" rx="2" ry="2"/><rect class="c" x="546" y="2" rx="2" ry="2"/><rect class="c" x="546" y="18" rx="2" ry="2"/><rect class="c" x="546" y="34" rx="2" ry="2"/><rect class="c" x="546" y="50" rx="2" ry="2"/><rect class="c" x="546" y="66" rx="2" ry="2"/><rect class="c" x="546" y="82" rx="2" ry="2"/><rect class="c" x="546" y="98" rx="2" ry="2"/><rect class="c" x="562" y="2" rx="2" ry="2"/><rect class="c" x="562" y="18" rx="2" ry="2"/><rect class="c" x="562" y="34" rx="2" ry="2"/><rect class="c" x="562" y="50" rx="2" ry="2"/><rect class="c cu" x="562" y="66" rx="2" ry="2"/><rect class="c" x="562" y="82" rx="2" ry="2"/><rect class="c" x="562" y="98" rx="2" ry="2"/><rect class="c" x="578" y="2" rx="2" ry="2"/><rect class="c" x="578" y="18" rx="2" ry="2"/><rect class="c" x="578" y="34" rx="2" ry="2"/><rect class="c" x="578" y="50" rx="2" ry="2"/><rect class="c" x="578" y="66" rx="2" ry="2"/><rect class="c cv" x="578" y="82" rx="2" ry="2"/><rect class="c" x="578" y="98" rx="2" ry="2"/><rect class="c" x="594" y="2" rx="2" ry="2"/><rect class="c" x="594" y="18" rx="2" ry="2"/><rect class="c" x="594" y="34" rx="2" ry="2"/><rect class="c" x="594" y="50" rx="2" ry="2"/><rect class="c" x="594" y="66" rx="2" ry="2"/><rect class="c" x="594" y="82" rx="2" ry="2"/><rect class="c" x="594" y="98" rx="2" ry="2"/><rect class="c" x="610" y="2" rx="2" ry="2"/><rect class="c" x="610" y="18" rx="2" ry="2"/><rect class="c" x="610" y="34" rx="2" ry="2"/><rect class="c" x="610" y="50" rx="2" ry="2"/><rect class="c" x="610" y="66" rx="2" ry="2"/><rect class="c" x="610" y="82" rx="2" ry="2"/><rect class="c" x="610" y="98" rx="2" ry="2"/><rect class="c" x="626" y="2" rx="2" ry="2"/><rect class="c" x="626" y="18" rx="2" ry="2"/><rect class="c" x="626" y="34" rx="2" ry="2"/><rect class="c" x="626" y="50" rx="2" ry="2"/><rect class="c" x="626" y="66" rx="2" ry="2"/><rect class="c" x="626" y="82" rx="2" ry="2"/><rect class="c" x="626" y="98" rx="2" ry="2"/><rect class="c" x="642" y="2" rx="2" ry="2"/><rect class="c" x="642" y="18" rx="2" ry="2"/><rect class="c" x="642" y="34" rx="2" ry="2"/><rect class="c" x="642" y="50" rx="2" ry="2"/><rect class="c" x="642" y="66" rx="2" ry="2"/><rect class="c" x="642" y="82" rx="2" ry="2"/><rect class="c" x="642" y="98" rx="2" ry="2"/><rect class="c" x="658" y="2" rx="2" ry="2"/><rect class="c" x="658" y="18" rx="2" ry="2"/><rect class="c" x="658" y="34" rx="2" ry="2"/><rect class="c" x="658" y="50" rx="2" ry="2"/><rect class="c" x="658" y="66" rx="2" ry="2"/><rect class="c" x="658" y="82" rx="2" ry="2"/><rect class="c" x="658" y="98" rx="2" ry="2"/><rect class="c" x="674" y="2" rx="2" ry="2"/><rect class="c cw" x="674" y="18" rx="2" ry="2"/><rect class="c" x="674" y="34" rx="2" ry="2"/><rect class="c" x="674" y="50" rx="2" ry="2"/><rect class="c cx" x="674" y="66" rx="2" ry="2"/><rect class="c cy" x="674" y="82" rx="2" ry="2"/><rect class="c" x="674" y="98" rx="2" ry="2"/><rect class="c" x="690" y="2" rx="2" ry="2"/><rect class="c cz" x="690" y="18" rx="2" ry="2"/><rect class="c c10" x="690" y="34" rx="2" ry="2"/><rect class="c" x="690" y="50" rx="2" ry="2"/><rect class="c" x="690" y="66" rx="2" ry="2"/><rect class="c" x="690" y="82" rx="2" ry="2"/><rect class="c" x="690" y="98" rx="2" ry="2"/><rect class="c" x="706" y="2" rx="2" ry="2"/><rect class="c c11" x="706" y="18" rx="2" ry="2"/><rect class="c" x="706" y="34" rx="2" ry="2"/><rect class="c c12" x="706" y="50" rx="2" ry="2"/><rect class="c c13" x="706" y="66" rx="2" ry="2"/><rect class="c" x="706" y="82" rx="2" ry="2"/><rect class="c" x="706" y="98" rx="2" ry="2"/><rect class="c" x="722" y="2" rx="2" ry="2"/><rect class="c" x="722" y="18" rx="2" ry="2"/><rect class="c c14" x="722" y="34" rx="2" ry="2"/><rect class="c c15" x="722" y="50" rx="2" ry="2"/><rect class="c c16" x="722" y="66" rx="2" ry="2"/><rect class="c c17" x="722" y="82" rx="2" ry="2"/><rect class="c" x="722" y="98" rx="2" ry="2"/><rect class="c" x="738" y="2" rx="2" ry="2"/><rect class="c c18" x="738" y="18" rx="2" ry="2"/><rect class="c c19" x="738" y="34" rx="2" ry="2"/><rect class="c c1a" x="738" y="50" rx="2" ry="2"/><rect class="c" x="738" y="66" rx="2" ry="2"/><rect class="c c1b" x="738" y="82" rx="2" ry="2"/><rect class="c" x="738" y="98" rx="2" ry="2"/><rect class="c c1c" x="754" y="2" rx="2" ry="2"/><rect class="c c1d" x="754" y="18" rx="2" ry="2"/><rect class="c c1e" x="754" y="34" rx="2" ry="2"/><rect class="c c1f" x="754" y="50" rx="2" ry="2"/><rect class="c c1g" x="754" y="66" rx="2" ry="2"/><rect class="c c1h" x="754" y="82" rx="2" ry="2"/><rect class="c c1i" x="754" y="98" rx="2" ry="2"/><rect class="c c1j" x="770" y="2" rx="2" ry="2"/><rect class="c c1k" x="770" y="18" rx="2" ry="2"/><rect class="c c1l" x="770" y="34" rx="2" ry="2"/><rect class="c c1m" x="770" y="50" rx="2" ry="2"/><rect class="c c1n" x="770" y="66" rx="2" ry="2"/><rect class="c c1o" x="770" y="82" rx="2" ry="2"/><rect class="c c1p" x="770" y="98" rx="2" ry="2"/><rect class="c c1q" x="786" y="2" rx="2" ry="2"/><rect class="c c1r" x="786" y="18" rx="2" ry="2"/><rect class="c c1s" x="786" y="34" rx="2" ry="2"/><rect class="c c1t" x="786" y="50" rx="2" ry="2"/><rect class="c c1u" x="786" y="66" rx="2" ry="2"/><rect class="c c1v" x="786" y="82" rx="2" ry="2"/><rect class="c c1w" x="786" y="98" rx="2" ry="2"/><rect class="c c1x" x="802" y="2" rx="2" ry="2"/><rect class="c c1y" x="802" y="18" rx="2" ry="2"/><rect class="c c1z" x="802" y="34" rx="2" ry="2"/><rect class="c c20" x="802" y="50" rx="2" ry="2"/><rect class="c c21" x="802" y="66" rx="2" ry="2"/><rect class="c c22" x="802" y="82" rx="2" ry="2"/><rect class="c c23" x="802" y="98" rx="2" ry="2"/><rect class="c c24" x="818" y="2" rx="2" ry="2"/><rect class="c c25" x="818" y="18" rx="2" ry="2"/><rect class="c c26" x="818" y="34" rx="2" ry="2"/><rect class="c c27" x="818" y="50" rx="2" ry="2"/><rect class="c c28" x="818" y="66" rx="2" ry="2"/><rect class="c c29" x="818" y="82" rx="2" ry="2"/><rect class="c c2a" x="818" y="98" rx="2" ry="2"/><rect class="c c2b" x="834" y="2" rx="2" ry="2"/><rect class="c c2c" x="834" y="18" rx="2" ry="2"/><rect class="c c2d" x="834" y="34" rx="2" ry="2"/><rect class="c c2e" x="834" y="50" rx="2" ry="2"/><rect class="u u0" height="12" width="721.9" x="0.0" y="144"/><rect class="u u1" height="12" width="88.3" x="721.3" y="144"/><rect class="u u2" height="12" width="20.1" x="809.0" y="144"/><rect class="u u3" height="12" width="20.1" x="828.5" y="144"/><rect class="s s0" x="0.8" y="0.8" width="14.4" height="14.4" rx="4.5" ry="4.5"/><rect class="s s1" x="1.8" y="1.8" width="12.3" height="12.3" rx="4.1" ry="4.1"/><rect class="s s2" x="2.6" y="2.6" width="10.8" height="10.8" rx="3.6" ry="3.6"/><rect class="s s3" x="3.0" y="3.0" width="9.9" height="9.9" rx="3.3" ry="3.3"/></svg>