<svg viewBox="-16 -32 880 192" width="880" height="192" xmlns="http://www.w3.org/2000/svg"><desc>Generated with https://github.com/Platane/snk</desc><style>:root{--cb:#1b1f230a;--cs:white;--ce:#0a0e12;--c0:#0a0e12;--c1:#1445a2;--c2:#1d65ee;--c3:#1f4eff;--c4:#466dff}.c{shape-rendering:geometricPrecision;fill:var(--ce);stroke-width:1px;stroke:var(--cb);animation:none 37700ms linear infinite;width:12px;height:12px}@keyframes c0{53.57%{fill:var(--c1)}53.59%,100%{fill:var(--ce)}}.c.c0{fill:var(--c1);animation-name:c0}@keyframes c1{5.03%{fill:var(--c1)}5.05%,100%{fill:var(--ce)}}.c.c1{fill:var(--c1);animation-name:c1}@keyframes c2{5.3%{fill:var(--c1)}5.32%,100%{fill:var(--ce)}}.c.c2{fill:var(--c1);animation-name:c2}@keyframes c3{50.39%{fill:var(--c1)}50.41%,100%{fill:var(--ce)}}.c.c3{fill:var(--c1);animation-name:c3}@keyframes c4{6.62%{fill:var(--c1)}6.64%,100%{fill:var(--ce)}}.c.c4{fill:var(--c1);animation-name:c4}@keyframes c5{56.22%{fill:var(--c2)}56.24%,100%{fill:var(--ce)}}.c.c5{fill:var(--c2);animation-name:c5}@keyframes c6{9.27%{fill:var(--c1)}9.29%,100%{fill:var(--ce)}}.c.c6{fill:var(--c1);animation-name:c6}@keyframes c7{9.01%{fill:var(--c1)}9.03%,100%{fill:var(--ce)}}.c.c7{fill:var(--c1);animation-name:c7}@keyframes c8{77.71%{fill:var(--c4)}77.73%,100%{fill:var(--ce)}}.c.c8{fill:var(--c4);animation-name:c8}@keyframes c9{6.89%{fill:var(--c1)}6.91%,100%{fill:var(--ce)}}.c.c9{fill:var(--c1);animation-name:c9}@keyframes ca{56.49%{fill:var(--c2)}56.51%,100%{fill:var(--ce)}}.c.ca{fill:var(--c2);animation-name:ca}@keyframes cb{8.48%{fill:var(--c1)}8.5%,100%{fill:var(--ce)}}.c.cb{fill:var(--c1);animation-name:cb}@keyframes cc{77.18%{fill:var(--c4)}77.2%,100%{fill:var(--ce)}}.c.cc{fill:var(--c4);animation-name:cc}@keyframes cd{76.91%{fill:var(--c4)}76.93%,100%{fill:var(--ce)}}.c.cd{fill:var(--c4);animation-name:cd}@keyframes ce{7.68%{fill:var(--c1)}7.7%,100%{fill:var(--ce)}}.c.ce{fill:var(--c1);animation-name:ce}@keyframes cf{7.95%{fill:var(--c1)}7.97%,100%{fill:var(--ce)}}.c.cf{fill:var(--c1);animation-name:cf}@keyframes cg{75.59%{fill:var(--c3)}75.61%,100%{fill:var(--ce)}}.c.cg{fill:var(--c3);animation-name:cg}@keyframes ch{10.6%{fill:var(--c1)}10.62%,100%{fill:var(--ce)}}.c.ch{fill:var(--c1);animation-name:ch}@keyframes ci{11.4%{fill:var(--c1)}11.42%,100%{fill:var(--ce)}}.c.ci{fill:var(--c1);animation-name:ci}@keyframes cj{12.46%{fill:var(--c1)}12.48%,100%{fill:var(--ce)}}.c.cj{fill:var(--c1);animation-name:cj}@keyframes ck{58.35%{fill:var(--c2)}58.37%,100%{fill:var(--ce)}}.c.ck{fill:var(--c2);animation-name:ck}@keyframes cl{12.19%{fill:var(--c1)}12.21%,100%{fill:var(--ce)}}.c.cl{fill:var(--c1);animation-name:cl}@keyframes cm{13.78%{fill:var(--c1)}13.8%,100%{fill:var(--ce)}}.c.cm{fill:var(--c1);animation-name:cm}@keyframes cn{18.29%{fill:var(--c1)}18.31%,100%{fill:var(--ce)}}.c.cn{fill:var(--c1);animation-name:cn}@keyframes co{18.03%{fill:var(--c1)}18.05%,100%{fill:var(--ce)}}.c.co{fill:var(--c1);animation-name:co}@keyframes cp{14.05%{fill:var(--c1)}14.07%,100%{fill:var(--ce)}}.c.cp{fill:var(--c1);animation-name:cp}@keyframes cq{17.76%{fill:var(--c1)}17.78%,100%{fill:var(--ce)}}.c.cq{fill:var(--c1);animation-name:cq}@keyframes cr{19.62%{fill:var(--c1)}19.64%,100%{fill:var(--ce)}}.c.cr{fill:var(--c1);animation-name:cr}@keyframes cs{14.31%{fill:var(--c1)}14.33%,100%{fill:var(--ce)}}.c.cs{fill:var(--c1);animation-name:cs}@keyframes ct{17.23%{fill:var(--c1)}17.25%,100%{fill:var(--ce)}}.c.ct{fill:var(--c1);animation-name:ct}@keyframes cu{14.84%{fill:var(--c1)}14.86%,100%{fill:var(--ce)}}.c.cu{fill:var(--c1);animation-name:cu}@keyframes cv{60.2%{fill:var(--c2)}60.22%,100%{fill:var(--ce)}}.c.cv{fill:var(--c2);animation-name:cv}@keyframes cw{16.7%{fill:var(--c1)}16.72%,100%{fill:var(--ce)}}.c.cw{fill:var(--c1);animation-name:cw}@keyframes cx{61%{fill:var(--c2)}61.02%,100%{fill:var(--ce)}}.c.cx{fill:var(--c2);animation-name:cx}@keyframes cy{15.11%{fill:var(--c1)}15.13%,100%{fill:var(--ce)}}.c.cy{fill:var(--c1);animation-name:cy}@keyframes cz{16.44%{fill:var(--c1)}16.46%,100%{fill:var(--ce)}}.c.cz{fill:var(--c1);animation-name:cz}@keyframes c10{15.64%{fill:var(--c1)}15.66%,100%{fill:var(--ce)}}.c.c10{fill:var(--c1);animation-name:c10}@keyframes c11{62.06%{fill:var(--c2)}62.08%,100%{fill:var(--ce)}}.c.c11{fill:var(--c2);animation-name:c11}@keyframes c12{30.49%{fill:var(--c1)}30.51%,100%{fill:var(--ce)}}.c.c12{fill:var(--c1);animation-name:c12}@keyframes c13{30.23%{fill:var(--c1)}30.25%,100%{fill:var(--ce)}}.c.c13{fill:var(--c1);animation-name:c13}@keyframes c14{22.27%{fill:var(--c1)}22.29%,100%{fill:var(--ce)}}.c.c14{fill:var(--c1);animation-name:c14}@keyframes c15{22.01%{fill:var(--c1)}22.03%,100%{fill:var(--ce)}}.c.c15{fill:var(--c1);animation-name:c15}@keyframes c16{22.8%{fill:var(--c1)}22.82%,100%{fill:var(--ce)}}.c.c16{fill:var(--c1);animation-name:c16}@keyframes c17{26.78%{fill:var(--c1)}26.8%,100%{fill:var(--ce)}}.c.c17{fill:var(--c1);animation-name:c17}@keyframes c18{27.05%{fill:var(--c1)}27.07%,100%{fill:var(--ce)}}.c.c18{fill:var(--c1);animation-name:c18}@keyframes c19{23.33%{fill:var(--c1)}23.35%,100%{fill:var(--ce)}}.c.c19{fill:var(--c1);animation-name:c19}@keyframes c1a{28.9%{fill:var(--c1)}28.92%,100%{fill:var(--ce)}}.c.c1a{fill:var(--c1);animation-name:c1a}@keyframes c1b{23.6%{fill:var(--c1)}23.62%,100%{fill:var(--ce)}}.c.c1b{fill:var(--c1);animation-name:c1b}@keyframes c1c{70.02%{fill:var(--c2)}70.04%,100%{fill:var(--ce)}}.c.c1c{fill:var(--c2);animation-name:c1c}@keyframes c1d{25.45%{fill:var(--c1)}25.47%,100%{fill:var(--ce)}}.c.c1d{fill:var(--c1);animation-name:c1d}@keyframes c1e{25.98%{fill:var(--c1)}26%,100%{fill:var(--ce)}}.c.c1e{fill:var(--c1);animation-name:c1e}@keyframes c1f{24.13%{fill:var(--c1)}24.15%,100%{fill:var(--ce)}}.c.c1f{fill:var(--c1);animation-name:c1f}@keyframes c1g{24.92%{fill:var(--c1)}24.94%,100%{fill:var(--ce)}}.c.c1g{fill:var(--c1);animation-name:c1g}@keyframes c1h{24.39%{fill:var(--c1)}24.41%,100%{fill:var(--ce)}}.c.c1h{fill:var(--c1);animation-name:c1h}@keyframes c1i{64.71%{fill:var(--c2)}64.73%,100%{fill:var(--ce)}}.c.c1i{fill:var(--c2);animation-name:c1i}@keyframes c1j{64.45%{fill:var(--c2)}64.47%,100%{fill:var(--ce)}}.c.c1j{fill:var(--c2);animation-name:c1j}@keyframes c1k{36.86%{fill:var(--c1)}36.88%,100%{fill:var(--ce)}}.c.c1k{fill:var(--c1);animation-name:c1k}@keyframes c1l{33.68%{fill:var(--c1)}33.7%,100%{fill:var(--ce)}}.c.c1l{fill:var(--c1);animation-name:c1l}@keyframes c1m{36.59%{fill:var(--c1)}36.61%,100%{fill:var(--ce)}}.c.c1m{fill:var(--c1);animation-name:c1m}@keyframes c1n{36.06%{fill:var(--c1)}36.08%,100%{fill:var(--ce)}}.c.c1n{fill:var(--c1);animation-name:c1n}@keyframes c1o{65.51%{fill:var(--c2)}65.53%,100%{fill:var(--ce)}}.c.c1o{fill:var(--c2);animation-name:c1o}@keyframes c1p{85.14%{fill:var(--c4)}85.16%,100%{fill:var(--ce)}}.c.c1p{fill:var(--c4);animation-name:c1p}@keyframes c1q{34.47%{fill:var(--c1)}34.49%,100%{fill:var(--ce)}}.c.c1q{fill:var(--c1);animation-name:c1q}@keyframes c1r{35.8%{fill:var(--c1)}35.82%,100%{fill:var(--ce)}}.c.c1r{fill:var(--c1);animation-name:c1r}@keyframes c1s{38.19%{fill:var(--c1)}38.21%,100%{fill:var(--ce)}}.c.c1s{fill:var(--c1);animation-name:c1s}@keyframes c1t{85.67%{fill:var(--c4)}85.69%,100%{fill:var(--ce)}}.c.c1t{fill:var(--c4);animation-name:c1t}@keyframes c1u{35.27%{fill:var(--c1)}35.29%,100%{fill:var(--ce)}}.c.c1u{fill:var(--c1);animation-name:c1u}@keyframes c1v{38.72%{fill:var(--c1)}38.74%,100%{fill:var(--ce)}}.c.c1v{fill:var(--c1);animation-name:c1v}@keyframes c1w{85.93%{fill:var(--c4)}85.95%,100%{fill:var(--ce)}}.c.c1w{fill:var(--c4);animation-name:c1w}@keyframes c1x{40.31%{fill:var(--c1)}40.33%,100%{fill:var(--ce)}}.c.c1x{fill:var(--c1);animation-name:c1x}@keyframes c1y{66.57%{fill:var(--c2)}66.59%,100%{fill:var(--ce)}}.c.c1y{fill:var(--c2);animation-name:c1y}@keyframes c1z{39.25%{fill:var(--c1)}39.27%,100%{fill:var(--ce)}}.c.c1z{fill:var(--c1);animation-name:c1z}@keyframes c20{41.63%{fill:var(--c1)}41.65%,100%{fill:var(--ce)}}.c.c20{fill:var(--c1);animation-name:c20}.u{transform-origin:0 0;transform:scale(0,1);animation:none linear 37700ms infinite}@keyframes u0{5.03%{transform:scale(0.000,1)}5.05%,5.3%{transform:scale(0.018,1)}5.32%,6.62%{transform:scale(0.036,1)}6.64%,6.89%{transform:scale(0.055,1)}6.91%,7.68%{transform:scale(0.073,1)}7.7%,7.95%{transform:scale(0.091,1)}7.97%,8.48%{transform:scale(0.109,1)}8.5%,9.01%{transform:scale(0.127,1)}9.03%,9.27%{transform:scale(0.145,1)}9.29%,10.6%{transform:scale(0.164,1)}10.62%,11.4%{transform:scale(0.182,1)}11.42%,12.19%{transform:scale(0.200,1)}12.21%,12.46%{transform:scale(0.218,1)}12.48%,13.78%{transform:scale(0.236,1)}13.8%,14.05%{transform:scale(0.255,1)}14.07%,14.31%{transform:scale(0.273,1)}14.33%,14.84%{transform:scale(0.291,1)}14.86%,15.11%{transform:scale(0.309,1)}15.13%,15.64%{transform:scale(0.327,1)}15.66%,16.44%{transform:scale(0.345,1)}16.46%,16.7%{transform:scale(0.364,1)}16.72%,17.23%{transform:scale(0.382,1)}17.25%,17.76%{transform:scale(0.400,1)}17.78%,18.03%{transform:scale(0.418,1)}18.05%,18.29%{transform:scale(0.436,1)}18.31%,19.62%{transform:scale(0.455,1)}19.64%,22.01%{transform:scale(0.473,1)}22.03%,22.27%{transform:scale(0.491,1)}22.29%,22.8%{transform:scale(0.509,1)}22.82%,23.33%{transform:scale(0.527,1)}23.35%,23.6%{transform:scale(0.545,1)}23.62%,24.13%{transform:scale(0.564,1)}24.15%,24.39%{transform:scale(0.582,1)}24.41%,24.92%{transform:scale(0.600,1)}24.94%,25.45%{transform:scale(0.618,1)}25.47%,25.98%{transform:scale(0.636,1)}26%,26.78%{transform:scale(0.655,1)}26.8%,27.05%{transform:scale(0.673,1)}27.07%,28.9%{transform:scale(0.691,1)}28.92%,30.23%{transform:scale(0.709,1)}30.25%,30.49%{transform:scale(0.727,1)}30.51%,33.68%{transform:scale(0.745,1)}33.7%,34.47%{transform:scale(0.764,1)}34.49%,35.27%{transform:scale(0.782,1)}35.29%,35.8%{transform:scale(0.800,1)}35.82%,36.06%{transform:scale(0.818,1)}36.08%,36.59%{transform:scale(0.836,1)}36.61%,36.86%{transform:scale(0.855,1)}36.88%,38.19%{transform:scale(0.873,1)}38.21%,38.72%{transform:scale(0.891,1)}38.74%,39.25%{transform:scale(0.909,1)}39.27%,40.31%{transform:scale(0.927,1)}40.33%,41.63%{transform:scale(0.945,1)}41.65%,50.39%{transform:scale(0.964,1)}50.41%,53.57%{transform:scale(0.982,1)}53.59%,100%{transform:scale(1.000,1)}}.u.u0{fill:var(--c1);animation-name:u0;transform-origin:0.0px 0}@keyframes u1{56.22%{transform:scale(0.000,1)}56.24%,56.49%{transform:scale(0.091,1)}56.51%,58.35%{transform:scale(0.182,1)}58.37%,60.2%{transform:scale(0.273,1)}60.22%,61%{transform:scale(0.364,1)}61.02%,62.06%{transform:scale(0.455,1)}62.08%,64.45%{transform:scale(0.545,1)}64.47%,64.71%{transform:scale(0.636,1)}64.73%,65.51%{transform:scale(0.727,1)}65.53%,66.57%{transform:scale(0.818,1)}66.59%,70.02%{transform:scale(0.909,1)}70.04%,100%{transform:scale(1.000,1)}}.u.u1{fill:var(--c2);animation-name:u1;transform-origin:638.9px 0}@keyframes u2{75.59%{transform:scale(0.000,1)}75.61%,100%{transform:scale(1.000,1)}}.u.u2{fill:var(--c3);animation-name:u2;transform-origin:766.7px 0}@keyframes u3{76.91%{transform:scale(0.000,1)}76.93%,77.18%{transform:scale(0.167,1)}77.2%,77.71%{transform:scale(0.333,1)}77.73%,85.14%{transform:scale(0.500,1)}85.16%,85.67%{transform:scale(0.667,1)}85.69%,85.93%{transform:scale(0.833,1)}85.95%,100%{transform:scale(1.000,1)}}.u.u3{fill:var(--c4);animation-name:u3;transform-origin:778.3px 0}.s{shape-rendering:geometricPrecision;fill:var(--cs);animation:none linear 37700ms infinite}@keyframes s0{0%,99.73%{transform:translate(0px,-16px)}0.27%{transform:translate(0px,0px)}4.77%{transform:translate(272px,0px)}5.31%{transform:translate(272px,32px)}6.1%{transform:translate(320px,32px)}6.37%{transform:translate(320px,16px)}7.16%{transform:translate(368px,16px)}7.43%{transform:translate(368px,32px)}7.69%,75.07%{transform:translate(384px,32px)}7.96%{transform:translate(384px,48px)}8.22%,9.81%{transform:translate(368px,48px)}8.49%{transform:translate(368px,64px)}9.02%{transform:translate(336px,64px)}9.28%{transform:translate(336px,48px)}10.34%{transform:translate(368px,80px)}11.14%,12.73%{transform:translate(416px,80px)}11.41%{transform:translate(416px,64px)}11.67%{transform:translate(432px,64px)}12.2%{transform:translate(432px,96px)}12.47%{transform:translate(416px,96px)}13.53%{transform:translate(464px,80px)}13.79%{transform:translate(464px,96px)}14.59%{transform:translate(512px,96px)}14.85%{transform:translate(512px,80px)}15.65%{transform:translate(560px,80px)}16.18%{transform:translate(560px,48px)}16.71%{transform:translate(528px,48px)}16.98%{transform:translate(528px,32px)}17.24%{transform:translate(512px,32px)}17.51%{transform:translate(512px,16px)}18.04%{transform:translate(480px,16px)}18.3%{transform:translate(480px,0px)}18.57%{transform:translate(496px,0px)}19.63%{transform:translate(496px,64px)}19.89%{transform:translate(512px,64px)}20.16%{transform:translate(512px,48px)}21.75%{transform:translate(608px,48px)}22.28%{transform:translate(608px,16px)}22.55%{transform:translate(624px,16px)}22.81%{transform:translate(624px,0px)}23.87%{transform:translate(688px,0px)}24.14%{transform:translate(688px,16px)}24.4%{transform:translate(704px,16px)}24.67%{transform:translate(704px,32px)}25.2%{transform:translate(672px,32px)}25.99%{transform:translate(672px,80px)}26.79%{transform:translate(624px,80px)}27.06%{transform:translate(624px,96px)}27.59%{transform:translate(656px,96px)}29.18%{transform:translate(656px,0px)}30.5%{transform:translate(576px,0px)}30.77%{transform:translate(576px,-16px)}33.42%{transform:translate(736px,-16px)}33.69%{transform:translate(736px,0px)}33.95%{transform:translate(752px,0px)}34.22%{transform:translate(752px,16px)}34.48%,68.44%{transform:translate(768px,16px)}34.75%,68.17%{transform:translate(768px,32px)}35.01%{transform:translate(784px,32px)}35.28%{transform:translate(784px,48px)}35.54%{transform:translate(768px,48px)}35.81%,37.93%{transform:translate(768px,64px)}36.34%{transform:translate(736px,64px)}36.6%{transform:translate(736px,80px)}36.87%{transform:translate(720px,80px)}37.14%{transform:translate(720px,64px)}38.2%{transform:translate(768px,80px)}38.46%{transform:translate(784px,80px)}38.73%{transform:translate(784px,96px)}39.52%{transform:translate(832px,96px)}40.05%{transform:translate(832px,64px)}40.32%{transform:translate(816px,64px)}40.58%{transform:translate(816px,48px)}40.85%{transform:translate(832px,48px)}41.91%{transform:translate(832px,-16px)}50.13%{transform:translate(336px,-16px)}50.4%{transform:translate(336px,0px)}51.99%{transform:translate(240px,0px)}53.58%{transform:translate(240px,96px)}55.17%{transform:translate(336px,96px)}56.23%{transform:translate(336px,32px)}57.82%{transform:translate(432px,32px)}58.36%{transform:translate(432px,0px)}59.95%{transform:translate(528px,0px)}61.01%{transform:translate(528px,64px)}61.54%{transform:translate(560px,64px)}62.07%{transform:translate(560px,96px)}64.46%{transform:translate(704px,96px)}64.72%{transform:translate(704px,80px)}66.58%{transform:translate(816px,80px)}67.37%{transform:translate(816px,32px)}74.54%,76.66%{transform:translate(400px,16px)}74.8%{transform:translate(400px,32px)}75.6%{transform:translate(384px,64px)}75.86%{transform:translate(400px,64px)}76.92%{transform:translate(384px,16px)}77.19%{transform:translate(384px,0px)}77.72%{transform:translate(352px,0px)}77.98%{transform:translate(352px,-16px)}84.88%{transform:translate(768px,-16px)}85.15%{transform:translate(768px,0px)}85.41%{transform:translate(784px,0px)}85.68%{transform:translate(784px,16px)}85.94%{transform:translate(800px,16px)}86.21%{transform:translate(800px,0px)}98.41%{transform:translate(64px,0px)}98.67%{transform:translate(64px,-16px)}}.s.s0{transform:translate(0px,-16px);animation-name:s0}@keyframes s1{0%,99.73%{transform:translate(16px,-16px)}0.27%{transform:translate(0px,-16px)}0.53%{transform:translate(0px,0px)}5.04%{transform:translate(272px,0px)}5.57%{transform:translate(272px,32px)}6.37%{transform:translate(320px,32px)}6.63%{transform:translate(320px,16px)}7.43%{transform:translate(368px,16px)}7.69%{transform:translate(368px,32px)}7.96%,75.33%{transform:translate(384px,32px)}8.22%{transform:translate(384px,48px)}8.49%,10.08%{transform:translate(368px,48px)}8.75%{transform:translate(368px,64px)}9.28%{transform:translate(336px,64px)}9.55%{transform:translate(336px,48px)}10.61%{transform:translate(368px,80px)}11.41%,13%{transform:translate(416px,80px)}11.67%{transform:translate(416px,64px)}11.94%{transform:translate(432px,64px)}12.47%{transform:translate(432px,96px)}12.73%{transform:translate(416px,96px)}13.79%{transform:translate(464px,80px)}14.06%{transform:translate(464px,96px)}14.85%{transform:translate(512px,96px)}15.12%{transform:translate(512px,80px)}15.92%{transform:translate(560px,80px)}16.45%{transform:translate(560px,48px)}16.98%{transform:translate(528px,48px)}17.24%{transform:translate(528px,32px)}17.51%{transform:translate(512px,32px)}17.77%{transform:translate(512px,16px)}18.3%{transform:translate(480px,16px)}18.57%{transform:translate(480px,0px)}18.83%{transform:translate(496px,0px)}19.89%{transform:translate(496px,64px)}20.16%{transform:translate(512px,64px)}20.42%{transform:translate(512px,48px)}22.02%{transform:translate(608px,48px)}22.55%{transform:translate(608px,16px)}22.81%{transform:translate(624px,16px)}23.08%{transform:translate(624px,0px)}24.14%{transform:translate(688px,0px)}24.4%{transform:translate(688px,16px)}24.67%{transform:translate(704px,16px)}24.93%{transform:translate(704px,32px)}25.46%{transform:translate(672px,32px)}26.26%{transform:translate(672px,80px)}27.06%{transform:translate(624px,80px)}27.32%{transform:translate(624px,96px)}27.85%{transform:translate(656px,96px)}29.44%{transform:translate(656px,0px)}30.77%{transform:translate(576px,0px)}31.03%{transform:translate(576px,-16px)}33.69%{transform:translate(736px,-16px)}33.95%{transform:translate(736px,0px)}34.22%{transform:translate(752px,0px)}34.48%{transform:translate(752px,16px)}34.75%,68.7%{transform:translate(768px,16px)}35.01%,68.44%{transform:translate(768px,32px)}35.28%{transform:translate(784px,32px)}35.54%{transform:translate(784px,48px)}35.81%{transform:translate(768px,48px)}36.07%,38.2%{transform:translate(768px,64px)}36.6%{transform:translate(736px,64px)}36.87%{transform:translate(736px,80px)}37.14%{transform:translate(720px,80px)}37.4%{transform:translate(720px,64px)}38.46%{transform:translate(768px,80px)}38.73%{transform:translate(784px,80px)}38.99%{transform:translate(784px,96px)}39.79%{transform:translate(832px,96px)}40.32%{transform:translate(832px,64px)}40.58%{transform:translate(816px,64px)}40.85%{transform:translate(816px,48px)}41.11%{transform:translate(832px,48px)}42.18%{transform:translate(832px,-16px)}50.4%{transform:translate(336px,-16px)}50.66%{transform:translate(336px,0px)}52.25%{transform:translate(240px,0px)}53.85%{transform:translate(240px,96px)}55.44%{transform:translate(336px,96px)}56.5%{transform:translate(336px,32px)}58.09%{transform:translate(432px,32px)}58.62%{transform:translate(432px,0px)}60.21%{transform:translate(528px,0px)}61.27%{transform:translate(528px,64px)}61.8%{transform:translate(560px,64px)}62.33%{transform:translate(560px,96px)}64.72%{transform:translate(704px,96px)}64.99%{transform:translate(704px,80px)}66.84%{transform:translate(816px,80px)}67.64%{transform:translate(816px,32px)}74.8%,76.92%{transform:translate(400px,16px)}75.07%{transform:translate(400px,32px)}75.86%{transform:translate(384px,64px)}76.13%{transform:translate(400px,64px)}77.19%{transform:translate(384px,16px)}77.45%{transform:translate(384px,0px)}77.98%{transform:translate(352px,0px)}78.25%{transform:translate(352px,-16px)}85.15%{transform:translate(768px,-16px)}85.41%{transform:translate(768px,0px)}85.68%{transform:translate(784px,0px)}85.94%{transform:translate(784px,16px)}86.21%{transform:translate(800px,16px)}86.47%{transform:translate(800px,0px)}98.67%{transform:translate(64px,0px)}98.94%{transform:translate(64px,-16px)}}.s.s1{transform:translate(16px,-16px);animation-name:s1}@keyframes s2{0%,99.73%{transform:translate(32px,-16px)}0.53%{transform:translate(0px,-16px)}0.8%{transform:translate(0px,0px)}5.31%{transform:translate(272px,0px)}5.84%{transform:translate(272px,32px)}6.63%{transform:translate(320px,32px)}6.9%{transform:translate(320px,16px)}7.69%{transform:translate(368px,16px)}7.96%{transform:translate(368px,32px)}8.22%,75.6%{transform:translate(384px,32px)}8.49%{transform:translate(384px,48px)}8.75%,10.34%{transform:translate(368px,48px)}9.02%{transform:translate(368px,64px)}9.55%{transform:translate(336px,64px)}9.81%{transform:translate(336px,48px)}10.88%{transform:translate(368px,80px)}11.67%,13.26%{transform:translate(416px,80px)}11.94%{transform:translate(416px,64px)}12.2%{transform:translate(432px,64px)}12.73%{transform:translate(432px,96px)}13%{transform:translate(416px,96px)}14.06%{transform:translate(464px,80px)}14.32%{transform:translate(464px,96px)}15.12%{transform:translate(512px,96px)}15.38%{transform:translate(512px,80px)}16.18%{transform:translate(560px,80px)}16.71%{transform:translate(560px,48px)}17.24%{transform:translate(528px,48px)}17.51%{transform:translate(528px,32px)}17.77%{transform:translate(512px,32px)}18.04%{transform:translate(512px,16px)}18.57%{transform:translate(480px,16px)}18.83%{transform:translate(480px,0px)}19.1%{transform:translate(496px,0px)}20.16%{transform:translate(496px,64px)}20.42%{transform:translate(512px,64px)}20.69%{transform:translate(512px,48px)}22.28%{transform:translate(608px,48px)}22.81%{transform:translate(608px,16px)}23.08%{transform:translate(624px,16px)}23.34%{transform:translate(624px,0px)}24.4%{transform:translate(688px,0px)}24.67%{transform:translate(688px,16px)}24.93%{transform:translate(704px,16px)}25.2%{transform:translate(704px,32px)}25.73%{transform:translate(672px,32px)}26.53%{transform:translate(672px,80px)}27.32%{transform:translate(624px,80px)}27.59%{transform:translate(624px,96px)}28.12%{transform:translate(656px,96px)}29.71%{transform:translate(656px,0px)}31.03%{transform:translate(576px,0px)}31.3%{transform:translate(576px,-16px)}33.95%{transform:translate(736px,-16px)}34.22%{transform:translate(736px,0px)}34.48%{transform:translate(752px,0px)}34.75%{transform:translate(752px,16px)}35.01%,68.97%{transform:translate(768px,16px)}35.28%,68.7%{transform:translate(768px,32px)}35.54%{transform:translate(784px,32px)}35.81%{transform:translate(784px,48px)}36.07%{transform:translate(768px,48px)}36.34%,38.46%{transform:translate(768px,64px)}36.87%{transform:translate(736px,64px)}37.14%{transform:translate(736px,80px)}37.4%{transform:translate(720px,80px)}37.67%{transform:translate(720px,64px)}38.73%{transform:translate(768px,80px)}38.99%{transform:translate(784px,80px)}39.26%{transform:translate(784px,96px)}40.05%{transform:translate(832px,96px)}40.58%{transform:translate(832px,64px)}40.85%{transform:translate(816px,64px)}41.11%{transform:translate(816px,48px)}41.38%{transform:translate(832px,48px)}42.44%{transform:translate(832px,-16px)}50.66%{transform:translate(336px,-16px)}50.93%{transform:translate(336px,0px)}52.52%{transform:translate(240px,0px)}54.11%{transform:translate(240px,96px)}55.7%{transform:translate(336px,96px)}56.76%{transform:translate(336px,32px)}58.36%{transform:translate(432px,32px)}58.89%{transform:translate(432px,0px)}60.48%{transform:translate(528px,0px)}61.54%{transform:translate(528px,64px)}62.07%{transform:translate(560px,64px)}62.6%{transform:translate(560px,96px)}64.99%{transform:translate(704px,96px)}65.25%{transform:translate(704px,80px)}67.11%{transform:translate(816px,80px)}67.9%{transform:translate(816px,32px)}75.07%,77.19%{transform:translate(400px,16px)}75.33%{transform:translate(400px,32px)}76.13%{transform:translate(384px,64px)}76.39%{transform:translate(400px,64px)}77.45%{transform:translate(384px,16px)}77.72%{transform:translate(384px,0px)}78.25%{transform:translate(352px,0px)}78.51%{transform:translate(352px,-16px)}85.41%{transform:translate(768px,-16px)}85.68%{transform:translate(768px,0px)}85.94%{transform:translate(784px,0px)}86.21%{transform:translate(784px,16px)}86.47%{transform:translate(800px,16px)}86.74%{transform:translate(800px,0px)}98.94%{transform:translate(64px,0px)}99.2%{transform:translate(64px,-16px)}}.s.s2{transform:translate(32px,-16px);animation-name:s2}@keyframes s3{0%,99.73%{transform:translate(48px,-16px)}0.8%{transform:translate(0px,-16px)}1.06%{transform:translate(0px,0px)}5.57%{transform:translate(272px,0px)}6.1%{transform:translate(272px,32px)}6.9%{transform:translate(320px,32px)}7.16%{transform:translate(320px,16px)}7.96%{transform:translate(368px,16px)}8.22%{transform:translate(368px,32px)}8.49%,75.86%{transform:translate(384px,32px)}8.75%{transform:translate(384px,48px)}9.02%,10.61%{transform:translate(368px,48px)}9.28%{transform:translate(368px,64px)}9.81%{transform:translate(336px,64px)}10.08%{transform:translate(336px,48px)}11.14%{transform:translate(368px,80px)}11.94%,13.53%{transform:translate(416px,80px)}12.2%{transform:translate(416px,64px)}12.47%{transform:translate(432px,64px)}13%{transform:translate(432px,96px)}13.26%{transform:translate(416px,96px)}14.32%{transform:translate(464px,80px)}14.59%{transform:translate(464px,96px)}15.38%{transform:translate(512px,96px)}15.65%{transform:translate(512px,80px)}16.45%{transform:translate(560px,80px)}16.98%{transform:translate(560px,48px)}17.51%{transform:translate(528px,48px)}17.77%{transform:translate(528px,32px)}18.04%{transform:translate(512px,32px)}18.3%{transform:translate(512px,16px)}18.83%{transform:translate(480px,16px)}19.1%{transform:translate(480px,0px)}19.36%{transform:translate(496px,0px)}20.42%{transform:translate(496px,64px)}20.69%{transform:translate(512px,64px)}20.95%{transform:translate(512px,48px)}22.55%{transform:translate(608px,48px)}23.08%{transform:translate(608px,16px)}23.34%{transform:translate(624px,16px)}23.61%{transform:translate(624px,0px)}24.67%{transform:translate(688px,0px)}24.93%{transform:translate(688px,16px)}25.2%{transform:translate(704px,16px)}25.46%{transform:translate(704px,32px)}25.99%{transform:translate(672px,32px)}26.79%{transform:translate(672px,80px)}27.59%{transform:translate(624px,80px)}27.85%{transform:translate(624px,96px)}28.38%{transform:translate(656px,96px)}29.97%{transform:translate(656px,0px)}31.3%{transform:translate(576px,0px)}31.56%{transform:translate(576px,-16px)}34.22%{transform:translate(736px,-16px)}34.48%{transform:translate(736px,0px)}34.75%{transform:translate(752px,0px)}35.01%{transform:translate(752px,16px)}35.28%,69.23%{transform:translate(768px,16px)}35.54%,68.97%{transform:translate(768px,32px)}35.81%{transform:translate(784px,32px)}36.07%{transform:translate(784px,48px)}36.34%{transform:translate(768px,48px)}36.6%,38.73%{transform:translate(768px,64px)}37.14%{transform:translate(736px,64px)}37.4%{transform:translate(736px,80px)}37.67%{transform:translate(720px,80px)}37.93%{transform:translate(720px,64px)}38.99%{transform:translate(768px,80px)}39.26%{transform:translate(784px,80px)}39.52%{transform:translate(784px,96px)}40.32%{transform:translate(832px,96px)}40.85%{transform:translate(832px,64px)}41.11%{transform:translate(816px,64px)}41.38%{transform:translate(816px,48px)}41.64%{transform:translate(832px,48px)}42.71%{transform:translate(832px,-16px)}50.93%{transform:translate(336px,-16px)}51.19%{transform:translate(336px,0px)}52.79%{transform:translate(240px,0px)}54.38%{transform:translate(240px,96px)}55.97%{transform:translate(336px,96px)}57.03%{transform:translate(336px,32px)}58.62%{transform:translate(432px,32px)}59.15%{transform:translate(432px,0px)}60.74%{transform:translate(528px,0px)}61.8%{transform:translate(528px,64px)}62.33%{transform:translate(560px,64px)}62.86%{transform:translate(560px,96px)}65.25%{transform:translate(704px,96px)}65.52%{transform:translate(704px,80px)}67.37%{transform:translate(816px,80px)}68.17%{transform:translate(816px,32px)}75.33%,77.45%{transform:translate(400px,16px)}75.6%{transform:translate(400px,32px)}76.39%{transform:translate(384px,64px)}76.66%{transform:translate(400px,64px)}77.72%{transform:translate(384px,16px)}77.98%{transform:translate(384px,0px)}78.51%{transform:translate(352px,0px)}78.78%{transform:translate(352px,-16px)}85.68%{transform:translate(768px,-16px)}85.94%{transform:translate(768px,0px)}86.21%{transform:translate(784px,0px)}86.47%{transform:translate(784px,16px)}86.74%{transform:translate(800px,16px)}87%{transform:translate(800px,0px)}99.2%{transform:translate(64px,0px)}99.47%{transform:translate(64px,-16px)}}.s.s3{transform:translate(48px,-16px);animation-name:s3}</style><rect class="c" x="2" y="2" rx="2" ry="2"/><rect class="c" x="2" y="18" rx="2" ry="2"/><rect class="c" x="2" y="34" rx="2" ry="2"/><rect class="c" x="2" y="50" rx="2" ry="2"/><rect class="c" x="2" y="66" rx="2" ry="2"/><rect class="c" x="2" y="82" rx="2" ry="2"/><rect class="c" x="2" y="98" rx="2" ry="2"/><rect class="c" x="18" y="2" rx="2" ry="2"/><rect class="c" x="18" y="18" rx="2" ry="2"/><rect class="c" x="18" y="34" rx="2" ry="2"/><rect class="c" x="18" y="50" rx="2" ry="2"/><rect class="c" x="18" y="66" rx="2" ry="2"/><rect class="c" x="18" y="82" rx="2" ry="2"/><rect class="c" x="18" y="98" rx="2" ry="2"/><rect class="c" x="34" y="2" rx="2" ry="2"/><rect class="c" x="34" y="18" rx="2" ry="2"/><rect class="c" x="34" y="34" rx="2" ry="2"/><rect class="c" x="34" y="50" rx="2" ry="2"/><rect class="c" x="34" y="66" rx="2" ry="2"/><rect class="c" x="34" y="82" rx="2" ry="2"/><rect class="c" x="34" y="98" rx="2" ry="2"/><rect class="c" x="50" y="2" rx="2" ry="2"/><rect class="c" x="50" y="18" rx="2" ry="2"/><rect class="c" x="50" y="34" rx="2" ry="2"/><rect class="c" x="50" y="50" rx="2" ry="2"/><rect class="c" x="50" y="66" rx="2" ry="2"/><rect class="c" x="50" y="82" rx="2" ry="2"/><rect class="c" x="50" y="98" rx="2" ry="2"/><rect class="c" x="66" y="2" rx="2" ry="2"/><rect class="c" x="66" y="18" rx="2" ry="2"/><rect class="c" x="66" y="34" rx="2" ry="2"/><rect class="c" x="66" y="50" rx="2" ry="2"/><rect class="c" x="66" y="66" rx="2" ry="2"/><rect class="c" x="66" y="82" rx="2" ry="2"/><rect class="c" x="66" y="98" rx="2" ry="2"/><rect class="c" x="82" y="2" rx="2" ry="2"/><rect class="c" x="82" y="18" rx="2" ry="2"/><rect class="c" x="82" y="34" rx="2" ry="2"/><rect class="c" x="82" y="50" rx="2" ry="2"/><rect class="c" x="82" y="66" rx="2" ry="2"/><rect class="c" x="82" y="82" rx="2" ry="2"/><rect class="c" x="82" y="98" rx="2" ry="2"/><rect class="c" x="98" y="2" rx="2" ry="2"/><rect class="c" x="98" y="18" rx="2" ry="2"/><rect class="c" x="98" y="34" rx="2" ry="2"/><rect class="c" x="98" y="50" rx="2" ry="2"/><rect class="c" x="98" y="66" rx="2" ry="2"/><rect class="c" x="98" y="82" rx="2" ry="2"/><rect class="c" x="98" y="98" rx="2" ry="2"/><rect class="c" x="114" y="2" rx="2" ry="2"/><rect class="c" x="114" y="18" rx="2" ry="2"/><rect class="c" x="114" y="34" rx="2" ry="2"/><rect class="c" x="114" y="50" rx="2" ry="2"/><rect class="c" x="114" y="66" rx="2" ry="2"/><rect class="c" x="114" y="82" rx="2" ry="2"/><rect class="c" x="114" y="98" rx="2" ry="2"/><rect class="c" x="130" y="2" rx="2" ry="2"/><rect class="c" x="130" y="18" rx="2" ry="2"/><rect class="c" x="130" y="34" rx="2" ry="2"/><rect class="c" x="130" y="50" rx="2" ry="2"/><rect class="c" x="130" y="66" rx="2" ry="2"/><rect class="c" x="130" y="82" rx="2" ry="2"/><rect class="c" x="130" y="98" rx="2" ry="2"/><rect class="c" x="146" y="2" rx="2" ry="2"/><rect class="c" x="146" y="18" rx="2" ry="2"/><rect class="c" x="146" y="34" rx="2" ry="2"/><rect class="c" x="146" y="50" rx="2" ry="2"/><rect class="c" x="146" y="66" rx="2" ry="2"/><rect class="c" x="146" y="82" rx="2" ry="2"/><rect class="c" x="146" y="98" rx="2" ry="2"/><rect class="c" x="162" y="2" rx="2" ry="2"/><rect class="c" x="162" y="18" rx="2" ry="2"/><rect class="c" x="162" y="34" rx="2" ry="2"/><rect class="c" x="162" y="50" rx="2" ry="2"/><rect class="c" x="162" y="66" rx="2" ry="2"/><rect class="c" x="162" y="82" rx="2" ry="2"/><rect class="c" x="162" y="98" rx="2" ry="2"/><rect class="c" x="178" y="2" rx="2" ry="2"/><rect class="c" x="178" y="18" rx="2" ry="2"/><rect class="c" x="178" y="34" rx="2" ry="2"/><rect class="c" x="178" y="50" rx="2" ry="2"/><rect class="c" x="178" y="66" rx="2" ry="2"/><rect class="c" x="178" y="82" rx="2" ry="2"/><rect class="c" x="178" y="98" rx="2" ry="2"/><rect class="c" x="194" y="2" rx="2" ry="2"/><rect class="c" x="194" y="18" rx="2" ry="2"/><rect class="c" x="194" y="34" rx="2" ry="2"/><rect class="c" x="194" y="50" rx="2" ry="2"/><rect class="c" x="194" y="66" rx="2" ry="2"/><rect class="c" x="194" y="82" rx="2" ry="2"/><rect class="c" x="194" y="98" rx="2" ry="2"/><rect class="c" x="210" y="2" rx="2" ry="2"/><rect class="c" x="210" y="18" rx="2" ry="2"/><rect class="c" x="210" y="34" rx="2" ry="2"/><rect class="c" x="210" y="50" rx="2" ry="2"/><rect class="c" x="210" y="66" rx="2" ry="2"/><rect class="c" x="210" y="82" rx="2" ry="2"/><rect class="c" x="210" y="98" rx="2" ry="2"/><rect class="c" x="226" y="2" rx="2" ry="2"/><rect class="c" x="226" y="18" rx="2" ry="2"/><rect class="c" x="226" y="34" rx="2" ry="2"/><rect class="c" x="226" y="50" rx="2" ry="2"/><rect class="c" x="226" y="66" rx="2" ry="2"/><rect class="c" x="226" y="82" rx="2" ry="2"/><rect class="c" x="226" y="98" rx="2" ry="2"/><rect class="c" x="242" y="2" rx="2" ry="2"/><rect class="c" x="242" y="18" rx="2" ry="2"/><rect class="c" x="242" y="34" rx="2" ry="2"/><rect class="c" x="242" y="50" rx="2" ry="2"/><rect class="c" x="242" y="66" rx="2" ry="2"/><rect class="c" x="242" y="82" rx="2" ry="2"/><rect class="c c0" x="242" y="98" rx="2" ry="2"/><rect class="c" x="258" y="2" rx="2" ry="2"/><rect class="c" x="258" y="18" rx="2" ry="2"/><rect class="c" x="258" y="34" rx="2" ry="2"/><rect class="c" x="258" y="50" rx="2" ry="2"/><rect class="c" x="258" y="66" rx="2" ry="2"/><rect class="c" x="258" y="82" rx="2" ry="2"/><rect class="c" x="258" y="98" rx="2" ry="2"/><rect class="c" x="274" y="2" rx="2" ry="2"/><rect class="c c1" x="274" y="18" rx="2" ry="2"/><rect class="c c2" x="274" y="34" rx="2" ry="2"/><rect class="c" x="274" y="50" rx="2" ry="2"/><rect class="c" x="274" y="66" rx="2" ry="2"/><rect class="c" x="274" y="82" rx="2" ry="2"/><rect class="c" x="274" y="98" rx="2" ry="2"/><rect class="c" x="290" y="2" rx="2" ry="2"/><rect class="c" x="290" y="18" rx="2" ry="2"/><rect class="c" x="290" y="34" rx="2" ry="2"/><rect class="c" x="290" y="50" rx="2" ry="2"/><rect class="c" x="290" y="66" rx="2" ry="2"/><rect class="c" x="290" y="82" rx="2" ry="2"/><rect class="c" x="290" y="98" rx="2" ry="2"/><rect class="c" x="306" y="2" rx="2" ry="2"/><rect class="c" x="306" y="18" rx="2" ry="2"/><rect class="c" x="306" y="34" rx="2" ry="2"/><rect class="c" x="306" y="50" rx="2" ry="2"/><rect class="c" x="306" y="66" rx="2" ry="2"/><rect class="c" x="306" y="82" rx="2" ry="2"/><rect class="c" x="306" y="98" rx="2" ry="2"/><rect class="c" x="322" y="2" rx="2" ry="2"/><rect class="c" x="322" y="18" rx="2" ry="2"/><rect class="c" x="322" y="34" rx="2" ry="2"/><rect class="c" x="322" y="50" rx="2" ry="2"/><rect class="c" x="322" y="66" rx="2" ry="2"/><rect class="c" x="322" y="82" rx="2" ry="2"/><rect class="c" x="322" y="98" rx="2" ry="2"/><rect class="c c3" x="338" y="2" rx="2" ry="2"/><rect class="c c4" x="338" y="18" rx="2" ry="2"/><rect class="c c5" x="338" y="34" rx="2" ry="2"/><rect class="c c6" x="338" y="50" rx="2" ry="2"/><rect class="c c7" x="338" y="66" rx="2" ry="2"/><rect class="c" x="338" y="82" rx="2" ry="2"/><rect class="c" x="338" y="98" rx="2" ry="2"/><rect class="c c8" x="354" y="2" rx="2" ry="2"/><rect class="c c9" x="354" y="18" rx="2" ry="2"/><rect class="c ca" x="354" y="34" rx="2" ry="2"/><rect class="c" x="354" y="50" rx="2" ry="2"/><rect class="c" x="354" y="66" rx="2" ry="2"/><rect class="c" x="354" y="82" rx="2" ry="2"/><rect class="c" x="354" y="98" rx="2" ry="2"/><rect class="c" x="370" y="2" rx="2" ry="2"/><rect class="c" x="370" y="18" rx="2" ry="2"/><rect class="c" x="370" y="34" rx="2" ry="2"/><rect class="c" x="370" y="50" rx="2" ry="2"/><rect class="c cb" x="370" y="66" rx="2" ry="2"/><rect class="c" x="370" y="82" rx="2" ry="2"/><rect class="c" x="370" y="98" rx="2" ry="2"/><rect class="c cc" x="386" y="2" rx="2" ry="2"/><rect class="c cd" x="386" y="18" rx="2" ry="2"/><rect class="c ce" x="386" y="34" rx="2" ry="2"/><rect class="c cf" x="386" y="50" rx="2" ry="2"/><rect class="c cg" x="386" y="66" rx="2" ry="2"/><rect class="c ch" x="386" y="82" rx="2" ry="2"/><rect class="c" x="386" y="98" rx="2" ry="2"/><rect class="c" x="402" y="2" rx="2" ry="2"/><rect class="c" x="402" y="18" rx="2" ry="2"/><rect class="c" x="402" y="34" rx="2" ry="2"/><rect class="c" x="402" y="50" rx="2" ry="2"/><rect class="c" x="402" y="66" rx="2" ry="2"/><rect class="c" x="402" y="82" rx="2" ry="2"/><rect class="c" x="402" y="98" rx="2" ry="2"/><rect class="c" x="418" y="2" rx="2" ry="2"/><rect class="c" x="418" y="18" rx="2" ry="2"/><rect class="c" x="418" y="34" rx="2" ry="2"/><rect class="c" x="418" y="50" rx="2" ry="2"/><rect class="c ci" x="418" y="66" rx="2" ry="2"/><rect class="c" x="418" y="82" rx="2" ry="2"/><rect class="c cj" x="418" y="98" rx="2" ry="2"/><rect class="c ck" x="434" y="2" rx="2" ry="2"/><rect class="c" x="434" y="18" rx="2" ry="2"/><rect class="c" x="434" y="34" rx="2" ry="2"/><rect class="c" x="434" y="50" rx="2" ry="2"/><rect class="c" x="434" y="66" rx="2" ry="2"/><rect class="c" x="434" y="82" rx="2" ry="2"/><rect class="c cl" x="434" y="98" rx="2" ry="2"/><rect class="c" x="450" y="2" rx="2" ry="2"/><rect class="c" x="450" y="18" rx="2" ry="2"/><rect class="c" x="450" y="34" rx="2" ry="2"/><rect class="c" x="450" y="50" rx="2" ry="2"/><rect class="c" x="450" y="66" rx="2" ry="2"/><rect class="c" x="450" y="82" rx="2" ry="2"/><rect class="c" x="450" y="98" rx="2" ry="2"/><rect class="c" x="466" y="2" rx="2" ry="2"/><rect class="c" x="466" y="18" rx="2" ry="2"/><rect class="c" x="466" y="34" rx="2" ry="2"/><rect class="c" x="466" y="50" rx="2" ry="2"/><rect class="c" x="466" y="66" rx="2" ry="2"/><rect class="c" x="466" y="82" rx="2" ry="2"/><rect class="c cm" x="466" y="98" rx="2" ry="2"/><rect class="c cn" x="482" y="2" rx="2" ry="2"/><rect class="c co" x="482" y="18" rx="2" ry="2"/><rect class="c" x="482" y="34" rx="2" ry="2"/><rect class="c" x="482" y="50" rx="2" ry="2"/><rect class="c" x="482" y="66" rx="2" ry="2"/><rect class="c" x="482" y="82" rx="2" ry="2"/><rect class="c cp" x="482" y="98" rx="2" ry="2"/><rect class="c" x="498" y="2" rx="2" ry="2"/><rect class="c cq" x="498" y="18" rx="2" ry="2"/><rect class="c" x="498" y="34" rx="2" ry="2"/><rect class="c" x="498" y="50" rx="2" ry="2"/><rect class="c cr" x="498" y="66" rx="2" ry="2"/><rect class="c" x="498" y="82" rx="2" ry="2"/><rect class="c cs" x="498" y="98" rx="2" ry="2"/><rect class="c" x="514" y="2" rx="2" ry="2"/><rect class="c" x="514" y="18" rx="2" ry="2"/><rect class="c ct" x="514" y="34" rx="2" ry="2"/><rect class="c" x="514" y="50" rx="2" ry="2"/><rect class="c" x="514" y="66" rx="2" ry="2"/><rect class="c cu" x="514" y="82" rx="2" ry="2"/><rect class="c" x="514" y="98" rx="2" ry="2"/><rect class="c" x="530" y="2" rx="2" ry="2"/><rect class="c cv" x="530" y="18" rx="2" ry="2"/><rect class="c" x="530" y="34" rx="2" ry="2"/><rect class="c cw" x="530" y="50" rx="2" ry="2"/><rect class="c cx" x="530" y="66" rx="2" ry="2"/><rect class="c cy" x="530" y="82" rx="2" ry="2"/><rect class="c" x="530" y="98" rx="2" ry="2"/><rect class="c" x="546" y="2" rx="2" ry="2"/><rect class="c" x="546" y="18" rx="2" ry="2"/><rect class="c" x="546" y="34" rx="2" ry="2"/><rect class="c cz" x="546" y="50" rx="2" ry="2"/><rect class="c" x="546" y="66" rx="2" ry="2"/><rect class="c" x="546" y="82" rx="2" ry="2"/><rect class="c" x="546" y="98" rx="2" ry="2"/><rect class="c" x="562" y="2" rx="2" ry="2"/><rect class="c" x="562" y="18" rx="2" ry="2"/><rect class="c" x="562" y="34" rx="2" ry="2"/><rect class="c" x="562" y="50" rx="2" ry="2"/><rect class="c" x="562" y="66" rx="2" ry="2"/><rect class="c c10" x="562" y="82" rx="2" ry="2"/><rect class="c c11" x="562" y="98" rx="2" ry="2"/><rect class="c c12" x="578" y="2" rx="2" ry="2"/><rect class="c" x="578" y="18" rx="2" ry="2"/><rect class="c" x="578" y="34" rx="2" ry="2"/><rect class="c" x="578" y="50" rx="2" ry="2"/><rect class="c" x="578" y="66" rx="2" ry="2"/><rect class="c" x="578" y="82" rx="2" ry="2"/><rect class="c" x="578" y="98" rx="2" ry="2"/><rect class="c c13" x="594" y="2" rx="2" ry="2"/><rect class="c" x="594" y="18" rx="2" ry="2"/><rect class="c" x="594" y="34" rx="2" ry="2"/><rect class="c" x="594" y="50" rx="2" ry="2"/><rect class="c" x="594" y="66" rx="2" ry="2"/><rect class="c" x="594" y="82" rx="2" ry="2"/><rect class="c" x="594" y="98" rx="2" ry="2"/><rect class="c" x="610" y="2" rx="2" ry="2"/><rect class="c c14" x="610" y="18" rx="2" ry="2"/><rect class="c c15" x="610" y="34" rx="2" ry="2"/><rect class="c" x="610" y="50" rx="2" ry="2"/><rect class="c" x="610" y="66" rx="2" ry="2"/><rect class="c" x="610" y="82" rx="2" ry="2"/><rect class="c" x="610" y="98" rx="2" ry="2"/><rect class="c c16" x="626" y="2" rx="2" ry="2"/><rect class="c" x="626" y="18" rx="2" ry="2"/><rect class="c" x="626" y="34" rx="2" ry="2"/><rect class="c" x="626" y="50" rx="2" ry="2"/><rect class="c" x="626" y="66" rx="2" ry="2"/><rect class="c c17" x="626" y="82" rx="2" ry="2"/><rect class="c c18" x="626" y="98" rx="2" ry="2"/><rect class="c" x="642" y="2" rx="2" ry="2"/><rect class="c" x="642" y="18" rx="2" ry="2"/><rect class="c" x="642" y="34" rx="2" ry="2"/><rect class="c" x="642" y="50" rx="2" ry="2"/><rect class="c" x="642" y="66" rx="2" ry="2"/><rect class="c" x="642" y="82" rx="2" ry="2"/><rect class="c" x="642" y="98" rx="2" ry="2"/><rect class="c c19" x="658" y="2" rx="2" ry="2"/><rect class="c c1a" x="658" y="18" rx="2" ry="2"/><rect class="c" x="658" y="34" rx="2" ry="2"/><rect class="c" x="658" y="50" rx="2" ry="2"/><rect class="c" x="658" y="66" rx="2" ry="2"/><rect class="c" x="658" y="82" rx="2" ry="2"/><rect class="c" x="658" y="98" rx="2" ry="2"/><rect class="c c1b" x="674" y="2" rx="2" ry="2"/><rect class="c c1c" x="674" y="18" rx="2" ry="2"/><rect class="c" x="674" y="34" rx="2" ry="2"/><rect class="c c1d" x="674" y="50" rx="2" ry="2"/><rect class="c" x="674" y="66" rx="2" ry="2"/><rect class="c c1e" x="674" y="82" rx="2" ry="2"/><rect class="c" x="674" y="98" rx="2" ry="2"/><rect class="c" x="690" y="2" rx="2" ry="2"/><rect class="c c1f" x="690" y="18" rx="2" ry="2"/><rect class="c c1g" x="690" y="34" rx="2" ry="2"/><rect class="c" x="690" y="50" rx="2" ry="2"/><rect class="c" x="690" y="66" rx="2" ry="2"/><rect class="c" x="690" y="82" rx="2" ry="2"/><rect class="c" x="690" y="98" rx="2" ry="2"/><rect class="c" x="706" y="2" rx="2" ry="2"/><rect class="c c1h" x="706" y="18" rx="2" ry="2"/><rect class="c" x="706" y="34" rx="2" ry="2"/><rect class="c" x="706" y="50" rx="2" ry="2"/><rect class="c" x="706" y="66" rx="2" ry="2"/><rect class="c c1i" x="706" y="82" rx="2" ry="2"/><rect class="c c1j" x="706" y="98" rx="2" ry="2"/><rect class="c" x="722" y="2" rx="2" ry="2"/><rect class="c" x="722" y="18" rx="2" ry="2"/><rect class="c" x="722" y="34" rx="2" ry="2"/><rect class="c" x="722" y="50" rx="2" ry="2"/><rect class="c" x="722" y="66" rx="2" ry="2"/><rect class="c c1k" x="722" y="82" rx="2" ry="2"/><rect class="c" x="722" y="98" rx="2" ry="2"/><rect class="c c1l" x="738" y="2" rx="2" ry="2"/><rect class="c" x="738" y="18" rx="2" ry="2"/><rect class="c" x="738" y="34" rx="2" ry="2"/><rect class="c" x="738" y="50" rx="2" ry="2"/><rect class="c" x="738" y="66" rx="2" ry="2"/><rect class="c c1m" x="738" y="82" rx="2" ry="2"/><rect class="c" x="738" y="98" rx="2" ry="2"/><rect class="c" x="754" y="2" rx="2" ry="2"/><rect class="c" x="754" y="18" rx="2" ry="2"/><rect class="c" x="754" y="34" rx="2" ry="2"/><rect class="c" x="754" y="50" rx="2" ry="2"/><rect class="c c1n" x="754" y="66" rx="2" ry="2"/><rect class="c c1o" x="754" y="82" rx="2" ry="2"/><rect class="c" x="754" y="98" rx="2" ry="2"/><rect class="c c1p" x="770" y="2" rx="2" ry="2"/><rect class="c c1q" x="770" y="18" rx="2" ry="2"/><rect class="c" x="770" y="34" rx="2" ry="2"/><rect class="c" x="770" y="50" rx="2" ry="2"/><rect class="c c1r" x="770" y="66" rx="2" ry="2"/><rect class="c c1s" x="770" y="82" rx="2" ry="2"/><rect class="c" x="770" y="98" rx="2" ry="2"/><rect class="c" x="786" y="2" rx="2" ry="2"/><rect class="c c1t" x="786" y="18" rx="2" ry="2"/><rect class="c" x="786" y="34" rx="2" ry="2"/><rect class="c c1u" x="786" y="50" rx="2" ry="2"/><rect class="c" x="786" y="66" rx="2" ry="2"/><rect class="c" x="786" y="82" rx="2" ry="2"/><rect class="c c1v" x="786" y="98" rx="2" ry="2"/><rect class="c" x="802" y="2" rx="2" ry="2"/><rect class="c c1w" x="802" y="18" rx="2" ry="2"/><rect class="c" x="802" y="34" rx="2" ry="2"/><rect class="c" x="802" y="50" rx="2" ry="2"/><rect class="c" x="802" y="66" rx="2" ry="2"/><rect class="c" x="802" y="82" rx="2" ry="2"/><rect class="c" x="802" y="98" rx="2" ry="2"/><rect class="c" x="818" y="2" rx="2" ry="2"/><rect class="c" x="818" y="18" rx="2" ry="2"/><rect class="c" x="818" y="34" rx="2" ry="2"/><rect class="c" x="818" y="50" rx="2" ry="2"/><rect class="c c1x" x="818" y="66" rx="2" ry="2"/><rect class="c c1y" x="818" y="82" rx="2" ry="2"/><rect class="c c1z" x="818" y="98" rx="2" ry="2"/><rect class="c c20" x="834" y="2" rx="2" ry="2"/><rect class="c" x="834" y="18" rx="2" ry="2"/><rect class="u u0" height="12" width="639.5" x="0.0" y="144"/><rect class="u u1" height="12" width="128.4" x="638.9" y="144"/><rect class="u u2" height="12" width="12.2" x="766.7" y="144"/><rect class="u u3" height="12" width="70.3" x="778.3" y="144"/><rect class="s s0" x="0.8" y="0.8" width="14.4" height="14.4" rx="4.5" ry="4.5"/><rect class="s s1" x="1.8" y="1.8" width="12.3" height="12.3" rx="4.1" ry="4.1"/><rect class="s s2" x="2.6" y="2.6" width="10.8" height="10.8" rx="3.6" ry="3.6"/><rect class="s s3" x="3.0" y="3.0" width="9.9" height="9.9" rx="3.3" ry="3.3"/></svg>