<svg viewBox="-16 -32 880 192" width="880" height="192" xmlns="http://www.w3.org/2000/svg"><desc>Generated with https://github.com/Platane/snk</desc><style>:root{--cb:#1b1f230a;--cs:white;--ce:#0a0e12;--c0:#0a0e12;--c1:#1445a2;--c2:#1d65ee;--c3:#1f4eff;--c4:#466dff}.c{shape-rendering:geometricPrecision;fill:var(--ce);stroke-width:1px;stroke:var(--cb);animation:none 35100ms linear infinite;width:12px;height:12px}@keyframes c0{97.14%{fill:var(--c4)}97.16%,100%{fill:var(--ce)}}.c.c0{fill:var(--c4);animation-name:c0}@keyframes c1{62.1%{fill:var(--c3)}62.12%,100%{fill:var(--ce)}}.c.c1{fill:var(--c3);animation-name:c1}@keyframes c2{2.55%{fill:var(--c1)}2.57%,100%{fill:var(--ce)}}.c.c2{fill:var(--c1);animation-name:c2}@keyframes c3{60.96%{fill:var(--c3)}60.98%,100%{fill:var(--ce)}}.c.c3{fill:var(--c3);animation-name:c3}@keyframes c4{60.67%{fill:var(--c3)}60.69%,100%{fill:var(--ce)}}.c.c4{fill:var(--c3);animation-name:c4}@keyframes c5{58.39%{fill:var(--c2)}58.41%,100%{fill:var(--ce)}}.c.c5{fill:var(--c2);animation-name:c5}@keyframes c6{58.68%{fill:var(--c3)}58.7%,100%{fill:var(--ce)}}.c.c6{fill:var(--c3);animation-name:c6}@keyframes c7{59.25%{fill:var(--c3)}59.27%,100%{fill:var(--ce)}}.c.c7{fill:var(--c3);animation-name:c7}@keyframes c8{57.25%{fill:var(--c2)}57.27%,100%{fill:var(--ce)}}.c.c8{fill:var(--c2);animation-name:c8}@keyframes c9{95.72%{fill:var(--c4)}95.74%,100%{fill:var(--ce)}}.c.c9{fill:var(--c4);animation-name:c9}@keyframes ca{95.43%{fill:var(--c4)}95.45%,100%{fill:var(--ce)}}.c.ca{fill:var(--c4);animation-name:ca}@keyframes cb{3.98%{fill:var(--c1)}4%,100%{fill:var(--ce)}}.c.cb{fill:var(--c1);animation-name:cb}@keyframes cc{56.12%{fill:var(--c2)}56.14%,100%{fill:var(--ce)}}.c.cc{fill:var(--c2);animation-name:cc}@keyframes cd{5.12%{fill:var(--c1)}5.14%,100%{fill:var(--ce)}}.c.cd{fill:var(--c1);animation-name:cd}@keyframes ce{5.4%{fill:var(--c1)}5.42%,100%{fill:var(--ce)}}.c.ce{fill:var(--c1);animation-name:ce}@keyframes cf{13.1%{fill:var(--c1)}13.12%,100%{fill:var(--ce)}}.c.cf{fill:var(--c1);animation-name:cf}@keyframes cg{5.69%{fill:var(--c1)}5.71%,100%{fill:var(--ce)}}.c.cg{fill:var(--c1);animation-name:cg}@keyframes ch{6.83%{fill:var(--c1)}6.85%,100%{fill:var(--ce)}}.c.ch{fill:var(--c1);animation-name:ch}@keyframes ci{10.53%{fill:var(--c1)}10.55%,100%{fill:var(--ce)}}.c.ci{fill:var(--c1);animation-name:ci}@keyframes cj{9.11%{fill:var(--c1)}9.13%,100%{fill:var(--ce)}}.c.cj{fill:var(--c1);animation-name:cj}@keyframes ck{9.68%{fill:var(--c1)}9.7%,100%{fill:var(--ce)}}.c.ck{fill:var(--c1);animation-name:ck}@keyframes cl{51.84%{fill:var(--c2)}51.86%,100%{fill:var(--ce)}}.c.cl{fill:var(--c2);animation-name:cl}@keyframes cm{68.08%{fill:var(--c3)}68.1%,100%{fill:var(--ce)}}.c.cm{fill:var(--c3);animation-name:cm}@keyframes cn{49.28%{fill:var(--c2)}49.3%,100%{fill:var(--ce)}}.c.cn{fill:var(--c2);animation-name:cn}@keyframes co{46.14%{fill:var(--c2)}46.16%,100%{fill:var(--ce)}}.c.co{fill:var(--c2);animation-name:co}@keyframes cp{19.36%{fill:var(--c1)}19.38%,100%{fill:var(--ce)}}.c.cp{fill:var(--c1);animation-name:cp}@keyframes cq{47.85%{fill:var(--c2)}47.87%,100%{fill:var(--ce)}}.c.cq{fill:var(--c2);animation-name:cq}@keyframes cr{87.45%{fill:var(--c4)}87.47%,100%{fill:var(--ce)}}.c.cr{fill:var(--c4);animation-name:cr}@keyframes cs{20.5%{fill:var(--c1)}20.52%,100%{fill:var(--ce)}}.c.cs{fill:var(--c1);animation-name:cs}@keyframes ct{20.22%{fill:var(--c1)}20.24%,100%{fill:var(--ce)}}.c.ct{fill:var(--c1);animation-name:ct}@keyframes cu{21.07%{fill:var(--c1)}21.09%,100%{fill:var(--ce)}}.c.cu{fill:var(--c1);animation-name:cu}@keyframes cv{21.36%{fill:var(--c1)}21.38%,100%{fill:var(--ce)}}.c.cv{fill:var(--c1);animation-name:cv}@keyframes cw{72.64%{fill:var(--c3)}72.66%,100%{fill:var(--ce)}}.c.cw{fill:var(--c3);animation-name:cw}@keyframes cx{22.78%{fill:var(--c1)}22.8%,100%{fill:var(--ce)}}.c.cx{fill:var(--c1);animation-name:cx}@keyframes cy{24.21%{fill:var(--c1)}24.23%,100%{fill:var(--ce)}}.c.cy{fill:var(--c1);animation-name:cy}@keyframes cz{23.92%{fill:var(--c1)}23.94%,100%{fill:var(--ce)}}.c.cz{fill:var(--c1);animation-name:cz}@keyframes c10{26.49%{fill:var(--c1)}26.51%,100%{fill:var(--ce)}}.c.c10{fill:var(--c1);animation-name:c10}@keyframes c11{76.06%{fill:var(--c3)}76.08%,100%{fill:var(--ce)}}.c.c11{fill:var(--c3);animation-name:c11}@keyframes c12{26.77%{fill:var(--c1)}26.79%,100%{fill:var(--ce)}}.c.c12{fill:var(--c1);animation-name:c12}@keyframes c13{27.63%{fill:var(--c1)}27.65%,100%{fill:var(--ce)}}.c.c13{fill:var(--c1);animation-name:c13}@keyframes c14{28.2%{fill:var(--c1)}28.22%,100%{fill:var(--ce)}}.c.c14{fill:var(--c1);animation-name:c14}@keyframes c15{36.74%{fill:var(--c2)}36.76%,100%{fill:var(--ce)}}.c.c15{fill:var(--c2);animation-name:c15}@keyframes c16{35.32%{fill:var(--c2)}35.34%,100%{fill:var(--ce)}}.c.c16{fill:var(--c2);animation-name:c16}@keyframes c17{30.19%{fill:var(--c1)}30.21%,100%{fill:var(--ce)}}.c.c17{fill:var(--c1);animation-name:c17}@keyframes c18{29.9%{fill:var(--c1)}29.92%,100%{fill:var(--ce)}}.c.c18{fill:var(--c1);animation-name:c18}@keyframes c19{29.33%{fill:var(--c1)}29.35%,100%{fill:var(--ce)}}.c.c19{fill:var(--c1);animation-name:c19}@keyframes c1a{33.04%{fill:var(--c1)}33.06%,100%{fill:var(--ce)}}.c.c1a{fill:var(--c1);animation-name:c1a}@keyframes c1b{34.18%{fill:var(--c2)}34.2%,100%{fill:var(--ce)}}.c.c1b{fill:var(--c2);animation-name:c1b}@keyframes c1c{33.32%{fill:var(--c2)}33.34%,100%{fill:var(--ce)}}.c.c1c{fill:var(--c2);animation-name:c1c}@keyframes c1d{31.9%{fill:var(--c1)}31.92%,100%{fill:var(--ce)}}.c.c1d{fill:var(--c1);animation-name:c1d}@keyframes c1e{38.45%{fill:var(--c2)}38.47%,100%{fill:var(--ce)}}.c.c1e{fill:var(--c2);animation-name:c1e}@keyframes c1f{79.19%{fill:var(--c4)}79.21%,100%{fill:var(--ce)}}.c.c1f{fill:var(--c4);animation-name:c1f}.u{transform-origin:0 0;transform:scale(0,1);animation:none linear 35100ms infinite}@keyframes u0{2.55%{transform:scale(0.000,1)}2.57%,3.98%{transform:scale(0.037,1)}4%,5.12%{transform:scale(0.074,1)}5.14%,5.4%{transform:scale(0.111,1)}5.42%,5.69%{transform:scale(0.148,1)}5.71%,6.83%{transform:scale(0.185,1)}6.85%,9.11%{transform:scale(0.222,1)}9.13%,9.68%{transform:scale(0.259,1)}9.7%,10.53%{transform:scale(0.296,1)}10.55%,13.1%{transform:scale(0.333,1)}13.12%,19.36%{transform:scale(0.370,1)}19.38%,20.22%{transform:scale(0.407,1)}20.24%,20.5%{transform:scale(0.444,1)}20.52%,21.07%{transform:scale(0.481,1)}21.09%,21.36%{transform:scale(0.519,1)}21.38%,22.78%{transform:scale(0.556,1)}22.8%,23.92%{transform:scale(0.593,1)}23.94%,24.21%{transform:scale(0.630,1)}24.23%,26.49%{transform:scale(0.667,1)}26.51%,26.77%{transform:scale(0.704,1)}26.79%,27.63%{transform:scale(0.741,1)}27.65%,28.2%{transform:scale(0.778,1)}28.22%,29.33%{transform:scale(0.815,1)}29.35%,29.9%{transform:scale(0.852,1)}29.92%,30.19%{transform:scale(0.889,1)}30.21%,31.9%{transform:scale(0.926,1)}31.92%,33.04%{transform:scale(0.963,1)}33.06%,100%{transform:scale(1.000,1)}}.u.u0{fill:var(--c1);animation-name:u0;transform-origin:0.0px 0}@keyframes u1{33.32%{transform:scale(0.000,1)}33.34%,34.18%{transform:scale(0.083,1)}34.2%,35.32%{transform:scale(0.167,1)}35.34%,36.74%{transform:scale(0.250,1)}36.76%,38.45%{transform:scale(0.333,1)}38.47%,46.14%{transform:scale(0.417,1)}46.16%,47.85%{transform:scale(0.500,1)}47.87%,49.28%{transform:scale(0.583,1)}49.3%,51.84%{transform:scale(0.667,1)}51.86%,56.12%{transform:scale(0.750,1)}56.14%,57.25%{transform:scale(0.833,1)}57.27%,58.39%{transform:scale(0.917,1)}58.41%,100%{transform:scale(1.000,1)}}.u.u1{fill:var(--c2);animation-name:u1;transform-origin:440.3px 0}@keyframes u2{58.68%{transform:scale(0.000,1)}58.7%,59.25%{transform:scale(0.125,1)}59.27%,60.67%{transform:scale(0.250,1)}60.69%,60.96%{transform:scale(0.375,1)}60.98%,62.1%{transform:scale(0.500,1)}62.12%,68.08%{transform:scale(0.625,1)}68.1%,72.64%{transform:scale(0.750,1)}72.66%,76.06%{transform:scale(0.875,1)}76.08%,100%{transform:scale(1.000,1)}}.u.u2{fill:var(--c3);animation-name:u2;transform-origin:636.0px 0}@keyframes u3{79.19%{transform:scale(0.000,1)}79.21%,87.45%{transform:scale(0.200,1)}87.47%,95.43%{transform:scale(0.400,1)}95.45%,95.72%{transform:scale(0.600,1)}95.74%,97.14%{transform:scale(0.800,1)}97.16%,100%{transform:scale(1.000,1)}}.u.u3{fill:var(--c4);animation-name:u3;transform-origin:766.5px 0}.s{shape-rendering:geometricPrecision;fill:var(--cs);animation:none linear 35100ms infinite}@keyframes s0{0%,99.72%{transform:translate(0px,-16px)}0.28%{transform:translate(-16px,-16px)}1.14%{transform:translate(-16px,32px)}1.42%,62.39%{transform:translate(0px,32px)}2.56%{transform:translate(0px,96px)}3.42%{transform:translate(48px,96px)}3.99%{transform:translate(48px,64px)}4.84%{transform:translate(96px,64px)}5.41%{transform:translate(96px,96px)}8.26%{transform:translate(256px,96px)}9.12%{transform:translate(256px,48px)}9.4%{transform:translate(272px,48px)}9.97%{transform:translate(272px,16px)}10.54%{transform:translate(240px,16px)}10.83%{transform:translate(240px,0px)}13.11%{transform:translate(112px,0px)}13.39%{transform:translate(112px,16px)}19.09%{transform:translate(432px,16px)}19.37%{transform:translate(432px,32px)}19.94%{transform:translate(464px,32px)}20.51%{transform:translate(464px,0px)}21.08%{transform:translate(496px,0px)}21.37%{transform:translate(496px,16px)}21.65%{transform:translate(512px,16px)}22.51%{transform:translate(512px,64px)}22.79%{transform:translate(496px,64px)}23.08%,72.08%{transform:translate(496px,80px)}23.93%{transform:translate(544px,80px)}24.22%{transform:translate(544px,64px)}26.21%{transform:translate(656px,64px)}26.5%{transform:translate(656px,48px)}27.07%{transform:translate(688px,48px)}27.64%{transform:translate(688px,80px)}28.21%{transform:translate(720px,80px)}28.49%{transform:translate(720px,64px)}29.06%{transform:translate(752px,64px)}30.2%{transform:translate(752px,0px)}31.34%{transform:translate(816px,0px)}31.91%{transform:translate(816px,32px)}32.48%{transform:translate(784px,32px)}33.05%{transform:translate(784px,64px)}33.33%{transform:translate(800px,64px)}33.62%{transform:translate(800px,80px)}33.9%{transform:translate(784px,80px)}34.19%{transform:translate(784px,96px)}34.47%{transform:translate(768px,96px)}34.76%{transform:translate(768px,80px)}35.33%{transform:translate(736px,80px)}36.75%{transform:translate(736px,0px)}38.46%{transform:translate(832px,0px)}38.75%{transform:translate(832px,-16px)}45.87%{transform:translate(432px,-16px)}46.15%{transform:translate(432px,0px)}46.44%{transform:translate(448px,0px)}47.86%{transform:translate(448px,80px)}49%{transform:translate(384px,80px)}49.29%{transform:translate(384px,96px)}49.57%{transform:translate(368px,96px)}50.14%{transform:translate(368px,64px)}51.85%,67.81%{transform:translate(272px,64px)}52.99%{transform:translate(272px,0px)}56.98%,96.3%,98.58%{transform:translate(48px,0px)}57.26%{transform:translate(48px,16px)}57.55%,61.54%{transform:translate(32px,16px)}57.83%,62.96%{transform:translate(32px,32px)}58.12%{transform:translate(16px,32px)}58.69%{transform:translate(16px,64px)}58.97%,63.53%{transform:translate(32px,64px)}59.26%{transform:translate(32px,80px)}59.54%{transform:translate(16px,80px)}60.97%,98.01%{transform:translate(16px,0px)}61.25%{transform:translate(32px,0px)}62.11%,97.44%{transform:translate(0px,16px)}68.09%{transform:translate(272px,80px)}72.65%{transform:translate(496px,48px)}75.78%{transform:translate(672px,48px)}76.07%{transform:translate(672px,32px)}78.92%{transform:translate(832px,32px)}79.2%{transform:translate(832px,16px)}86.04%{transform:translate(448px,16px)}87.46%{transform:translate(448px,96px)}87.75%{transform:translate(432px,96px)}88.6%{transform:translate(432px,48px)}95.44%{transform:translate(48px,48px)}97.15%{transform:translate(0px,0px)}97.72%{transform:translate(16px,16px)}98.86%{transform:translate(48px,-16px)}}.s.s0{transform:translate(0px,-16px);animation-name:s0}@keyframes s1{0%,99.72%{transform:translate(16px,-16px)}0.57%{transform:translate(-16px,-16px)}1.42%{transform:translate(-16px,32px)}1.71%,62.68%{transform:translate(0px,32px)}2.85%{transform:translate(0px,96px)}3.7%{transform:translate(48px,96px)}4.27%{transform:translate(48px,64px)}5.13%{transform:translate(96px,64px)}5.7%{transform:translate(96px,96px)}8.55%{transform:translate(256px,96px)}9.4%{transform:translate(256px,48px)}9.69%{transform:translate(272px,48px)}10.26%{transform:translate(272px,16px)}10.83%{transform:translate(240px,16px)}11.11%{transform:translate(240px,0px)}13.39%{transform:translate(112px,0px)}13.68%{transform:translate(112px,16px)}19.37%{transform:translate(432px,16px)}19.66%{transform:translate(432px,32px)}20.23%{transform:translate(464px,32px)}20.8%{transform:translate(464px,0px)}21.37%{transform:translate(496px,0px)}21.65%{transform:translate(496px,16px)}21.94%{transform:translate(512px,16px)}22.79%{transform:translate(512px,64px)}23.08%{transform:translate(496px,64px)}23.36%,72.36%{transform:translate(496px,80px)}24.22%{transform:translate(544px,80px)}24.5%{transform:translate(544px,64px)}26.5%{transform:translate(656px,64px)}26.78%{transform:translate(656px,48px)}27.35%{transform:translate(688px,48px)}27.92%{transform:translate(688px,80px)}28.49%{transform:translate(720px,80px)}28.77%{transform:translate(720px,64px)}29.34%{transform:translate(752px,64px)}30.48%{transform:translate(752px,0px)}31.62%{transform:translate(816px,0px)}32.19%{transform:translate(816px,32px)}32.76%{transform:translate(784px,32px)}33.33%{transform:translate(784px,64px)}33.62%{transform:translate(800px,64px)}33.9%{transform:translate(800px,80px)}34.19%{transform:translate(784px,80px)}34.47%{transform:translate(784px,96px)}34.76%{transform:translate(768px,96px)}35.04%{transform:translate(768px,80px)}35.61%{transform:translate(736px,80px)}37.04%{transform:translate(736px,0px)}38.75%{transform:translate(832px,0px)}39.03%{transform:translate(832px,-16px)}46.15%{transform:translate(432px,-16px)}46.44%{transform:translate(432px,0px)}46.72%{transform:translate(448px,0px)}48.15%{transform:translate(448px,80px)}49.29%{transform:translate(384px,80px)}49.57%{transform:translate(384px,96px)}49.86%{transform:translate(368px,96px)}50.43%{transform:translate(368px,64px)}52.14%,68.09%{transform:translate(272px,64px)}53.28%{transform:translate(272px,0px)}57.26%,96.58%,98.86%{transform:translate(48px,0px)}57.55%{transform:translate(48px,16px)}57.83%,61.82%{transform:translate(32px,16px)}58.12%,63.25%{transform:translate(32px,32px)}58.4%{transform:translate(16px,32px)}58.97%{transform:translate(16px,64px)}59.26%,63.82%{transform:translate(32px,64px)}59.54%{transform:translate(32px,80px)}59.83%{transform:translate(16px,80px)}61.25%,98.29%{transform:translate(16px,0px)}61.54%{transform:translate(32px,0px)}62.39%,97.72%{transform:translate(0px,16px)}68.38%{transform:translate(272px,80px)}72.93%{transform:translate(496px,48px)}76.07%{transform:translate(672px,48px)}76.35%{transform:translate(672px,32px)}79.2%{transform:translate(832px,32px)}79.49%{transform:translate(832px,16px)}86.32%{transform:translate(448px,16px)}87.75%{transform:translate(448px,96px)}88.03%{transform:translate(432px,96px)}88.89%{transform:translate(432px,48px)}95.73%{transform:translate(48px,48px)}97.44%{transform:translate(0px,0px)}98.01%{transform:translate(16px,16px)}99.15%{transform:translate(48px,-16px)}}.s.s1{transform:translate(16px,-16px);animation-name:s1}@keyframes s2{0%,99.72%{transform:translate(32px,-16px)}0.85%{transform:translate(-16px,-16px)}1.71%{transform:translate(-16px,32px)}1.99%,62.96%{transform:translate(0px,32px)}3.13%{transform:translate(0px,96px)}3.99%{transform:translate(48px,96px)}4.56%{transform:translate(48px,64px)}5.41%{transform:translate(96px,64px)}5.98%{transform:translate(96px,96px)}8.83%{transform:translate(256px,96px)}9.69%{transform:translate(256px,48px)}9.97%{transform:translate(272px,48px)}10.54%{transform:translate(272px,16px)}11.11%{transform:translate(240px,16px)}11.4%{transform:translate(240px,0px)}13.68%{transform:translate(112px,0px)}13.96%{transform:translate(112px,16px)}19.66%{transform:translate(432px,16px)}19.94%{transform:translate(432px,32px)}20.51%{transform:translate(464px,32px)}21.08%{transform:translate(464px,0px)}21.65%{transform:translate(496px,0px)}21.94%{transform:translate(496px,16px)}22.22%{transform:translate(512px,16px)}23.08%{transform:translate(512px,64px)}23.36%{transform:translate(496px,64px)}23.65%,72.65%{transform:translate(496px,80px)}24.5%{transform:translate(544px,80px)}24.79%{transform:translate(544px,64px)}26.78%{transform:translate(656px,64px)}27.07%{transform:translate(656px,48px)}27.64%{transform:translate(688px,48px)}28.21%{transform:translate(688px,80px)}28.77%{transform:translate(720px,80px)}29.06%{transform:translate(720px,64px)}29.63%{transform:translate(752px,64px)}30.77%{transform:translate(752px,0px)}31.91%{transform:translate(816px,0px)}32.48%{transform:translate(816px,32px)}33.05%{transform:translate(784px,32px)}33.62%{transform:translate(784px,64px)}33.9%{transform:translate(800px,64px)}34.19%{transform:translate(800px,80px)}34.47%{transform:translate(784px,80px)}34.76%{transform:translate(784px,96px)}35.04%{transform:translate(768px,96px)}35.33%{transform:translate(768px,80px)}35.9%{transform:translate(736px,80px)}37.32%{transform:translate(736px,0px)}39.03%{transform:translate(832px,0px)}39.32%{transform:translate(832px,-16px)}46.44%{transform:translate(432px,-16px)}46.72%{transform:translate(432px,0px)}47.01%{transform:translate(448px,0px)}48.43%{transform:translate(448px,80px)}49.57%{transform:translate(384px,80px)}49.86%{transform:translate(384px,96px)}50.14%{transform:translate(368px,96px)}50.71%{transform:translate(368px,64px)}52.42%,68.38%{transform:translate(272px,64px)}53.56%{transform:translate(272px,0px)}57.55%,96.87%,99.15%{transform:translate(48px,0px)}57.83%{transform:translate(48px,16px)}58.12%,62.11%{transform:translate(32px,16px)}58.4%,63.53%{transform:translate(32px,32px)}58.69%{transform:translate(16px,32px)}59.26%{transform:translate(16px,64px)}59.54%,64.1%{transform:translate(32px,64px)}59.83%{transform:translate(32px,80px)}60.11%{transform:translate(16px,80px)}61.54%,98.58%{transform:translate(16px,0px)}61.82%{transform:translate(32px,0px)}62.68%,98.01%{transform:translate(0px,16px)}68.66%{transform:translate(272px,80px)}73.22%{transform:translate(496px,48px)}76.35%{transform:translate(672px,48px)}76.64%{transform:translate(672px,32px)}79.49%{transform:translate(832px,32px)}79.77%{transform:translate(832px,16px)}86.61%{transform:translate(448px,16px)}88.03%{transform:translate(448px,96px)}88.32%{transform:translate(432px,96px)}89.17%{transform:translate(432px,48px)}96.01%{transform:translate(48px,48px)}97.72%{transform:translate(0px,0px)}98.29%{transform:translate(16px,16px)}99.43%{transform:translate(48px,-16px)}}.s.s2{transform:translate(32px,-16px);animation-name:s2}@keyframes s3{0%,99.72%{transform:translate(48px,-16px)}1.14%{transform:translate(-16px,-16px)}1.99%{transform:translate(-16px,32px)}2.28%,63.25%{transform:translate(0px,32px)}3.42%{transform:translate(0px,96px)}4.27%{transform:translate(48px,96px)}4.84%{transform:translate(48px,64px)}5.7%{transform:translate(96px,64px)}6.27%{transform:translate(96px,96px)}9.12%{transform:translate(256px,96px)}9.97%{transform:translate(256px,48px)}10.26%{transform:translate(272px,48px)}10.83%{transform:translate(272px,16px)}11.4%{transform:translate(240px,16px)}11.68%{transform:translate(240px,0px)}13.96%{transform:translate(112px,0px)}14.25%{transform:translate(112px,16px)}19.94%{transform:translate(432px,16px)}20.23%{transform:translate(432px,32px)}20.8%{transform:translate(464px,32px)}21.37%{transform:translate(464px,0px)}21.94%{transform:translate(496px,0px)}22.22%{transform:translate(496px,16px)}22.51%{transform:translate(512px,16px)}23.36%{transform:translate(512px,64px)}23.65%{transform:translate(496px,64px)}23.93%,72.93%{transform:translate(496px,80px)}24.79%{transform:translate(544px,80px)}25.07%{transform:translate(544px,64px)}27.07%{transform:translate(656px,64px)}27.35%{transform:translate(656px,48px)}27.92%{transform:translate(688px,48px)}28.49%{transform:translate(688px,80px)}29.06%{transform:translate(720px,80px)}29.34%{transform:translate(720px,64px)}29.91%{transform:translate(752px,64px)}31.05%{transform:translate(752px,0px)}32.19%{transform:translate(816px,0px)}32.76%{transform:translate(816px,32px)}33.33%{transform:translate(784px,32px)}33.9%{transform:translate(784px,64px)}34.19%{transform:translate(800px,64px)}34.47%{transform:translate(800px,80px)}34.76%{transform:translate(784px,80px)}35.04%{transform:translate(784px,96px)}35.33%{transform:translate(768px,96px)}35.61%{transform:translate(768px,80px)}36.18%{transform:translate(736px,80px)}37.61%{transform:translate(736px,0px)}39.32%{transform:translate(832px,0px)}39.6%{transform:translate(832px,-16px)}46.72%{transform:translate(432px,-16px)}47.01%{transform:translate(432px,0px)}47.29%{transform:translate(448px,0px)}48.72%{transform:translate(448px,80px)}49.86%{transform:translate(384px,80px)}50.14%{transform:translate(384px,96px)}50.43%{transform:translate(368px,96px)}51%{transform:translate(368px,64px)}52.71%,68.66%{transform:translate(272px,64px)}53.85%{transform:translate(272px,0px)}57.83%,97.15%,99.43%{transform:translate(48px,0px)}58.12%{transform:translate(48px,16px)}58.4%,62.39%{transform:translate(32px,16px)}58.69%,63.82%{transform:translate(32px,32px)}58.97%{transform:translate(16px,32px)}59.54%{transform:translate(16px,64px)}59.83%,64.39%{transform:translate(32px,64px)}60.11%{transform:translate(32px,80px)}60.4%{transform:translate(16px,80px)}61.82%,98.86%{transform:translate(16px,0px)}62.11%{transform:translate(32px,0px)}62.96%,98.29%{transform:translate(0px,16px)}68.95%{transform:translate(272px,80px)}73.5%{transform:translate(496px,48px)}76.64%{transform:translate(672px,48px)}76.92%{transform:translate(672px,32px)}79.77%{transform:translate(832px,32px)}80.06%{transform:translate(832px,16px)}86.89%{transform:translate(448px,16px)}88.32%{transform:translate(448px,96px)}88.6%{transform:translate(432px,96px)}89.46%{transform:translate(432px,48px)}96.3%{transform:translate(48px,48px)}98.01%{transform:translate(0px,0px)}98.58%{transform:translate(16px,16px)}}.s.s3{transform:translate(48px,-16px);animation-name:s3}</style><rect class="c c0" x="2" y="2" rx="2" ry="2"/><rect class="c c1" x="2" y="18" rx="2" ry="2"/><rect class="c" x="2" y="34" rx="2" ry="2"/><rect class="c" x="2" y="50" rx="2" ry="2"/><rect class="c" x="2" y="66" rx="2" ry="2"/><rect class="c" x="2" y="82" rx="2" ry="2"/><rect class="c c2" x="2" y="98" rx="2" ry="2"/><rect class="c c3" x="18" y="2" rx="2" ry="2"/><rect class="c c4" x="18" y="18" rx="2" ry="2"/><rect class="c" x="18" y="34" rx="2" ry="2"/><rect class="c c5" x="18" y="50" rx="2" ry="2"/><rect class="c c6" x="18" y="66" rx="2" ry="2"/><rect class="c" x="18" y="82" rx="2" ry="2"/><rect class="c" x="18" y="98" rx="2" ry="2"/><rect class="c" x="34" y="2" rx="2" ry="2"/><rect class="c" x="34" y="18" rx="2" ry="2"/><rect class="c" x="34" y="34" rx="2" ry="2"/><rect class="c" x="34" y="50" rx="2" ry="2"/><rect class="c" x="34" y="66" rx="2" ry="2"/><rect class="c c7" x="34" y="82" rx="2" ry="2"/><rect class="c" x="34" y="98" rx="2" ry="2"/><rect class="c" x="50" y="2" rx="2" ry="2"/><rect class="c c8" x="50" y="18" rx="2" ry="2"/><rect class="c c9" x="50" y="34" rx="2" ry="2"/><rect class="c ca" x="50" y="50" rx="2" ry="2"/><rect class="c cb" x="50" y="66" rx="2" ry="2"/><rect class="c" x="50" y="82" rx="2" ry="2"/><rect class="c" x="50" y="98" rx="2" ry="2"/><rect class="c" x="66" y="2" rx="2" ry="2"/><rect class="c" x="66" y="18" rx="2" ry="2"/><rect class="c" x="66" y="34" rx="2" ry="2"/><rect class="c" x="66" y="50" rx="2" ry="2"/><rect class="c" x="66" y="66" rx="2" ry="2"/><rect class="c" x="66" y="82" rx="2" ry="2"/><rect class="c" x="66" y="98" rx="2" ry="2"/><rect class="c" x="82" y="2" rx="2" ry="2"/><rect class="c" x="82" y="18" rx="2" ry="2"/><rect class="c" x="82" y="34" rx="2" ry="2"/><rect class="c" x="82" y="50" rx="2" ry="2"/><rect class="c" x="82" y="66" rx="2" ry="2"/><rect class="c" x="82" y="82" rx="2" ry="2"/><rect class="c" x="82" y="98" rx="2" ry="2"/><rect class="c cc" x="98" y="2" rx="2" ry="2"/><rect class="c" x="98" y="18" rx="2" ry="2"/><rect class="c" x="98" y="34" rx="2" ry="2"/><rect class="c" x="98" y="50" rx="2" ry="2"/><rect class="c" x="98" y="66" rx="2" ry="2"/><rect class="c cd" x="98" y="82" rx="2" ry="2"/><rect class="c ce" x="98" y="98" rx="2" ry="2"/><rect class="c cf" x="114" y="2" rx="2" ry="2"/><rect class="c" x="114" y="18" rx="2" ry="2"/><rect class="c" x="114" y="34" rx="2" ry="2"/><rect class="c" x="114" y="50" rx="2" ry="2"/><rect class="c" x="114" y="66" rx="2" ry="2"/><rect class="c" x="114" y="82" rx="2" ry="2"/><rect class="c cg" x="114" y="98" rx="2" ry="2"/><rect class="c" x="130" y="2" rx="2" ry="2"/><rect class="c" x="130" y="18" rx="2" ry="2"/><rect class="c" x="130" y="34" rx="2" ry="2"/><rect class="c" x="130" y="50" rx="2" ry="2"/><rect class="c" x="130" y="66" rx="2" ry="2"/><rect class="c" x="130" y="82" rx="2" ry="2"/><rect class="c" x="130" y="98" rx="2" ry="2"/><rect class="c" x="146" y="2" rx="2" ry="2"/><rect class="c" x="146" y="18" rx="2" ry="2"/><rect class="c" x="146" y="34" rx="2" ry="2"/><rect class="c" x="146" y="50" rx="2" ry="2"/><rect class="c" x="146" y="66" rx="2" ry="2"/><rect class="c" x="146" y="82" rx="2" ry="2"/><rect class="c" x="146" y="98" rx="2" ry="2"/><rect class="c" x="162" y="2" rx="2" ry="2"/><rect class="c" x="162" y="18" rx="2" ry="2"/><rect class="c" x="162" y="34" rx="2" ry="2"/><rect class="c" x="162" y="50" rx="2" ry="2"/><rect class="c" x="162" y="66" rx="2" ry="2"/><rect class="c" x="162" y="82" rx="2" ry="2"/><rect class="c" x="162" y="98" rx="2" ry="2"/><rect class="c" x="178" y="2" rx="2" ry="2"/><rect class="c" x="178" y="18" rx="2" ry="2"/><rect class="c" x="178" y="34" rx="2" ry="2"/><rect class="c" x="178" y="50" rx="2" ry="2"/><rect class="c" x="178" y="66" rx="2" ry="2"/><rect class="c" x="178" y="82" rx="2" ry="2"/><rect class="c ch" x="178" y="98" rx="2" ry="2"/><rect class="c" x="194" y="2" rx="2" ry="2"/><rect class="c" x="194" y="18" rx="2" ry="2"/><rect class="c" x="194" y="34" rx="2" ry="2"/><rect class="c" x="194" y="50" rx="2" ry="2"/><rect class="c" x="194" y="66" rx="2" ry="2"/><rect class="c" x="194" y="82" rx="2" ry="2"/><rect class="c" x="194" y="98" rx="2" ry="2"/><rect class="c" x="210" y="2" rx="2" ry="2"/><rect class="c" x="210" y="18" rx="2" ry="2"/><rect class="c" x="210" y="34" rx="2" ry="2"/><rect class="c" x="210" y="50" rx="2" ry="2"/><rect class="c" x="210" y="66" rx="2" ry="2"/><rect class="c" x="210" y="82" rx="2" ry="2"/><rect class="c" x="210" y="98" rx="2" ry="2"/><rect class="c" x="226" y="2" rx="2" ry="2"/><rect class="c" x="226" y="18" rx="2" ry="2"/><rect class="c" x="226" y="34" rx="2" ry="2"/><rect class="c" x="226" y="50" rx="2" ry="2"/><rect class="c" x="226" y="66" rx="2" ry="2"/><rect class="c" x="226" y="82" rx="2" ry="2"/><rect class="c" x="226" y="98" rx="2" ry="2"/><rect class="c" x="242" y="2" rx="2" ry="2"/><rect class="c ci" x="242" y="18" rx="2" ry="2"/><rect class="c" x="242" y="34" rx="2" ry="2"/><rect class="c" x="242" y="50" rx="2" ry="2"/><rect class="c" x="242" y="66" rx="2" ry="2"/><rect class="c" x="242" y="82" rx="2" ry="2"/><rect class="c" x="242" y="98" rx="2" ry="2"/><rect class="c" x="258" y="2" rx="2" ry="2"/><rect class="c" x="258" y="18" rx="2" ry="2"/><rect class="c" x="258" y="34" rx="2" ry="2"/><rect class="c cj" x="258" y="50" rx="2" ry="2"/><rect class="c" x="258" y="66" rx="2" ry="2"/><rect class="c" x="258" y="82" rx="2" ry="2"/><rect class="c" x="258" y="98" rx="2" ry="2"/><rect class="c" x="274" y="2" rx="2" ry="2"/><rect class="c" x="274" y="18" rx="2" ry="2"/><rect class="c ck" x="274" y="34" rx="2" ry="2"/><rect class="c" x="274" y="50" rx="2" ry="2"/><rect class="c cl" x="274" y="66" rx="2" ry="2"/><rect class="c cm" x="274" y="82" rx="2" ry="2"/><rect class="c" x="274" y="98" rx="2" ry="2"/><rect class="c" x="290" y="2" rx="2" ry="2"/><rect class="c" x="290" y="18" rx="2" ry="2"/><rect class="c" x="290" y="34" rx="2" ry="2"/><rect class="c" x="290" y="50" rx="2" ry="2"/><rect class="c" x="290" y="66" rx="2" ry="2"/><rect class="c" x="290" y="82" rx="2" ry="2"/><rect class="c" x="290" y="98" rx="2" ry="2"/><rect class="c" x="306" y="2" rx="2" ry="2"/><rect class="c" x="306" y="18" rx="2" ry="2"/><rect class="c" x="306" y="34" rx="2" ry="2"/><rect class="c" x="306" y="50" rx="2" ry="2"/><rect class="c" x="306" y="66" rx="2" ry="2"/><rect class="c" x="306" y="82" rx="2" ry="2"/><rect class="c" x="306" y="98" rx="2" ry="2"/><rect class="c" x="322" y="2" rx="2" ry="2"/><rect class="c" x="322" y="18" rx="2" ry="2"/><rect class="c" x="322" y="34" rx="2" ry="2"/><rect class="c" x="322" y="50" rx="2" ry="2"/><rect class="c" x="322" y="66" rx="2" ry="2"/><rect class="c" x="322" y="82" rx="2" ry="2"/><rect class="c" x="322" y="98" rx="2" ry="2"/><rect class="c" x="338" y="2" rx="2" ry="2"/><rect class="c" x="338" y="18" rx="2" ry="2"/><rect class="c" x="338" y="34" rx="2" ry="2"/><rect class="c" x="338" y="50" rx="2" ry="2"/><rect class="c" x="338" y="66" rx="2" ry="2"/><rect class="c" x="338" y="82" rx="2" ry="2"/><rect class="c" x="338" y="98" rx="2" ry="2"/><rect class="c" x="354" y="2" rx="2" ry="2"/><rect class="c" x="354" y="18" rx="2" ry="2"/><rect class="c" x="354" y="34" rx="2" ry="2"/><rect class="c" x="354" y="50" rx="2" ry="2"/><rect class="c" x="354" y="66" rx="2" ry="2"/><rect class="c" x="354" y="82" rx="2" ry="2"/><rect class="c" x="354" y="98" rx="2" ry="2"/><rect class="c" x="370" y="2" rx="2" ry="2"/><rect class="c" x="370" y="18" rx="2" ry="2"/><rect class="c" x="370" y="34" rx="2" ry="2"/><rect class="c" x="370" y="50" rx="2" ry="2"/><rect class="c" x="370" y="66" rx="2" ry="2"/><rect class="c" x="370" y="82" rx="2" ry="2"/><rect class="c" x="370" y="98" rx="2" ry="2"/><rect class="c" x="386" y="2" rx="2" ry="2"/><rect class="c" x="386" y="18" rx="2" ry="2"/><rect class="c" x="386" y="34" rx="2" ry="2"/><rect class="c" x="386" y="50" rx="2" ry="2"/><rect class="c" x="386" y="66" rx="2" ry="2"/><rect class="c" x="386" y="82" rx="2" ry="2"/><rect class="c cn" x="386" y="98" rx="2" ry="2"/><rect class="c" x="402" y="2" rx="2" ry="2"/><rect class="c" x="402" y="18" rx="2" ry="2"/><rect class="c" x="402" y="34" rx="2" ry="2"/><rect class="c" x="402" y="50" rx="2" ry="2"/><rect class="c" x="402" y="66" rx="2" ry="2"/><rect class="c" x="402" y="82" rx="2" ry="2"/><rect class="c" x="402" y="98" rx="2" ry="2"/><rect class="c" x="418" y="2" rx="2" ry="2"/><rect class="c" x="418" y="18" rx="2" ry="2"/><rect class="c" x="418" y="34" rx="2" ry="2"/><rect class="c" x="418" y="50" rx="2" ry="2"/><rect class="c" x="418" y="66" rx="2" ry="2"/><rect class="c" x="418" y="82" rx="2" ry="2"/><rect class="c" x="418" y="98" rx="2" ry="2"/><rect class="c co" x="434" y="2" rx="2" ry="2"/><rect class="c" x="434" y="18" rx="2" ry="2"/><rect class="c cp" x="434" y="34" rx="2" ry="2"/><rect class="c" x="434" y="50" rx="2" ry="2"/><rect class="c" x="434" y="66" rx="2" ry="2"/><rect class="c" x="434" y="82" rx="2" ry="2"/><rect class="c" x="434" y="98" rx="2" ry="2"/><rect class="c" x="450" y="2" rx="2" ry="2"/><rect class="c" x="450" y="18" rx="2" ry="2"/><rect class="c" x="450" y="34" rx="2" ry="2"/><rect class="c" x="450" y="50" rx="2" ry="2"/><rect class="c" x="450" y="66" rx="2" ry="2"/><rect class="c cq" x="450" y="82" rx="2" ry="2"/><rect class="c cr" x="450" y="98" rx="2" ry="2"/><rect class="c cs" x="466" y="2" rx="2" ry="2"/><rect class="c ct" x="466" y="18" rx="2" ry="2"/><rect class="c" x="466" y="34" rx="2" ry="2"/><rect class="c" x="466" y="50" rx="2" ry="2"/><rect class="c" x="466" y="66" rx="2" ry="2"/><rect class="c" x="466" y="82" rx="2" ry="2"/><rect class="c" x="466" y="98" rx="2" ry="2"/><rect class="c" x="482" y="2" rx="2" ry="2"/><rect class="c" x="482" y="18" rx="2" ry="2"/><rect class="c" x="482" y="34" rx="2" ry="2"/><rect class="c" x="482" y="50" rx="2" ry="2"/><rect class="c" x="482" y="66" rx="2" ry="2"/><rect class="c" x="482" y="82" rx="2" ry="2"/><rect class="c" x="482" y="98" rx="2" ry="2"/><rect class="c cu" x="498" y="2" rx="2" ry="2"/><rect class="c cv" x="498" y="18" rx="2" ry="2"/><rect class="c" x="498" y="34" rx="2" ry="2"/><rect class="c cw" x="498" y="50" rx="2" ry="2"/><rect class="c cx" x="498" y="66" rx="2" ry="2"/><rect class="c" x="498" y="82" rx="2" ry="2"/><rect class="c" x="498" y="98" rx="2" ry="2"/><rect class="c" x="514" y="2" rx="2" ry="2"/><rect class="c" x="514" y="18" rx="2" ry="2"/><rect class="c" x="514" y="34" rx="2" ry="2"/><rect class="c" x="514" y="50" rx="2" ry="2"/><rect class="c" x="514" y="66" rx="2" ry="2"/><rect class="c" x="514" y="82" rx="2" ry="2"/><rect class="c" x="514" y="98" rx="2" ry="2"/><rect class="c" x="530" y="2" rx="2" ry="2"/><rect class="c" x="530" y="18" rx="2" ry="2"/><rect class="c" x="530" y="34" rx="2" ry="2"/><rect class="c" x="530" y="50" rx="2" ry="2"/><rect class="c" x="530" y="66" rx="2" ry="2"/><rect class="c" x="530" y="82" rx="2" ry="2"/><rect class="c" x="530" y="98" rx="2" ry="2"/><rect class="c" x="546" y="2" rx="2" ry="2"/><rect class="c" x="546" y="18" rx="2" ry="2"/><rect class="c" x="546" y="34" rx="2" ry="2"/><rect class="c" x="546" y="50" rx="2" ry="2"/><rect class="c cy" x="546" y="66" rx="2" ry="2"/><rect class="c cz" x="546" y="82" rx="2" ry="2"/><rect class="c" x="546" y="98" rx="2" ry="2"/><rect class="c" x="562" y="2" rx="2" ry="2"/><rect class="c" x="562" y="18" rx="2" ry="2"/><rect class="c" x="562" y="34" rx="2" ry="2"/><rect class="c" x="562" y="50" rx="2" ry="2"/><rect class="c" x="562" y="66" rx="2" ry="2"/><rect class="c" x="562" y="82" rx="2" ry="2"/><rect class="c" x="562" y="98" rx="2" ry="2"/><rect class="c" x="578" y="2" rx="2" ry="2"/><rect class="c" x="578" y="18" rx="2" ry="2"/><rect class="c" x="578" y="34" rx="2" ry="2"/><rect class="c" x="578" y="50" rx="2" ry="2"/><rect class="c" x="578" y="66" rx="2" ry="2"/><rect class="c" x="578" y="82" rx="2" ry="2"/><rect class="c" x="578" y="98" rx="2" ry="2"/><rect class="c" x="594" y="2" rx="2" ry="2"/><rect class="c" x="594" y="18" rx="2" ry="2"/><rect class="c" x="594" y="34" rx="2" ry="2"/><rect class="c" x="594" y="50" rx="2" ry="2"/><rect class="c" x="594" y="66" rx="2" ry="2"/><rect class="c" x="594" y="82" rx="2" ry="2"/><rect class="c" x="594" y="98" rx="2" ry="2"/><rect class="c" x="610" y="2" rx="2" ry="2"/><rect class="c" x="610" y="18" rx="2" ry="2"/><rect class="c" x="610" y="34" rx="2" ry="2"/><rect class="c" x="610" y="50" rx="2" ry="2"/><rect class="c" x="610" y="66" rx="2" ry="2"/><rect class="c" x="610" y="82" rx="2" ry="2"/><rect class="c" x="610" y="98" rx="2" ry="2"/><rect class="c" x="626" y="2" rx="2" ry="2"/><rect class="c" x="626" y="18" rx="2" ry="2"/><rect class="c" x="626" y="34" rx="2" ry="2"/><rect class="c" x="626" y="50" rx="2" ry="2"/><rect class="c" x="626" y="66" rx="2" ry="2"/><rect class="c" x="626" y="82" rx="2" ry="2"/><rect class="c" x="626" y="98" rx="2" ry="2"/><rect class="c" x="642" y="2" rx="2" ry="2"/><rect class="c" x="642" y="18" rx="2" ry="2"/><rect class="c" x="642" y="34" rx="2" ry="2"/><rect class="c" x="642" y="50" rx="2" ry="2"/><rect class="c" x="642" y="66" rx="2" ry="2"/><rect class="c" x="642" y="82" rx="2" ry="2"/><rect class="c" x="642" y="98" rx="2" ry="2"/><rect class="c" x="658" y="2" rx="2" ry="2"/><rect class="c" x="658" y="18" rx="2" ry="2"/><rect class="c" x="658" y="34" rx="2" ry="2"/><rect class="c c10" x="658" y="50" rx="2" ry="2"/><rect class="c" x="658" y="66" rx="2" ry="2"/><rect class="c" x="658" y="82" rx="2" ry="2"/><rect class="c" x="658" y="98" rx="2" ry="2"/><rect class="c" x="674" y="2" rx="2" ry="2"/><rect class="c" x="674" y="18" rx="2" ry="2"/><rect class="c c11" x="674" y="34" rx="2" ry="2"/><rect class="c c12" x="674" y="50" rx="2" ry="2"/><rect class="c" x="674" y="66" rx="2" ry="2"/><rect class="c" x="674" y="82" rx="2" ry="2"/><rect class="c" x="674" y="98" rx="2" ry="2"/><rect class="c" x="690" y="2" rx="2" ry="2"/><rect class="c" x="690" y="18" rx="2" ry="2"/><rect class="c" x="690" y="34" rx="2" ry="2"/><rect class="c" x="690" y="50" rx="2" ry="2"/><rect class="c" x="690" y="66" rx="2" ry="2"/><rect class="c c13" x="690" y="82" rx="2" ry="2"/><rect class="c" x="690" y="98" rx="2" ry="2"/><rect class="c" x="706" y="2" rx="2" ry="2"/><rect class="c" x="706" y="18" rx="2" ry="2"/><rect class="c" x="706" y="34" rx="2" ry="2"/><rect class="c" x="706" y="50" rx="2" ry="2"/><rect class="c" x="706" y="66" rx="2" ry="2"/><rect class="c" x="706" y="82" rx="2" ry="2"/><rect class="c" x="706" y="98" rx="2" ry="2"/><rect class="c" x="722" y="2" rx="2" ry="2"/><rect class="c" x="722" y="18" rx="2" ry="2"/><rect class="c" x="722" y="34" rx="2" ry="2"/><rect class="c" x="722" y="50" rx="2" ry="2"/><rect class="c" x="722" y="66" rx="2" ry="2"/><rect class="c c14" x="722" y="82" rx="2" ry="2"/><rect class="c" x="722" y="98" rx="2" ry="2"/><rect class="c c15" x="738" y="2" rx="2" ry="2"/><rect class="c" x="738" y="18" rx="2" ry="2"/><rect class="c" x="738" y="34" rx="2" ry="2"/><rect class="c" x="738" y="50" rx="2" ry="2"/><rect class="c" x="738" y="66" rx="2" ry="2"/><rect class="c c16" x="738" y="82" rx="2" ry="2"/><rect class="c" x="738" y="98" rx="2" ry="2"/><rect class="c c17" x="754" y="2" rx="2" ry="2"/><rect class="c c18" x="754" y="18" rx="2" ry="2"/><rect class="c" x="754" y="34" rx="2" ry="2"/><rect class="c c19" x="754" y="50" rx="2" ry="2"/><rect class="c" x="754" y="66" rx="2" ry="2"/><rect class="c" x="754" y="82" rx="2" ry="2"/><rect class="c" x="754" y="98" rx="2" ry="2"/><rect class="c" x="770" y="2" rx="2" ry="2"/><rect class="c" x="770" y="18" rx="2" ry="2"/><rect class="c" x="770" y="34" rx="2" ry="2"/><rect class="c" x="770" y="50" rx="2" ry="2"/><rect class="c" x="770" y="66" rx="2" ry="2"/><rect class="c" x="770" y="82" rx="2" ry="2"/><rect class="c" x="770" y="98" rx="2" ry="2"/><rect class="c" x="786" y="2" rx="2" ry="2"/><rect class="c" x="786" y="18" rx="2" ry="2"/><rect class="c" x="786" y="34" rx="2" ry="2"/><rect class="c" x="786" y="50" rx="2" ry="2"/><rect class="c c1a" x="786" y="66" rx="2" ry="2"/><rect class="c" x="786" y="82" rx="2" ry="2"/><rect class="c c1b" x="786" y="98" rx="2" ry="2"/><rect class="c" x="802" y="2" rx="2" ry="2"/><rect class="c" x="802" y="18" rx="2" ry="2"/><rect class="c" x="802" y="34" rx="2" ry="2"/><rect class="c" x="802" y="50" rx="2" ry="2"/><rect class="c c1c" x="802" y="66" rx="2" ry="2"/><rect class="c" x="802" y="82" rx="2" ry="2"/><rect class="c" x="802" y="98" rx="2" ry="2"/><rect class="c" x="818" y="2" rx="2" ry="2"/><rect class="c" x="818" y="18" rx="2" ry="2"/><rect class="c c1d" x="818" y="34" rx="2" ry="2"/><rect class="c" x="818" y="50" rx="2" ry="2"/><rect class="c" x="818" y="66" rx="2" ry="2"/><rect class="c" x="818" y="82" rx="2" ry="2"/><rect class="c" x="818" y="98" rx="2" ry="2"/><rect class="c c1e" x="834" y="2" rx="2" ry="2"/><rect class="c c1f" x="834" y="18" rx="2" ry="2"/><rect class="c" x="834" y="34" rx="2" ry="2"/><rect class="c" x="834" y="50" rx="2" ry="2"/><rect class="c" x="834" y="66" rx="2" ry="2"/><rect class="u u0" height="12" width="440.9" x="0.0" y="144"/><rect class="u u1" height="12" width="196.3" x="440.3" y="144"/><rect class="u u2" height="12" width="131.1" x="636.0" y="144"/><rect class="u u3" height="12" width="82.1" x="766.5" y="144"/><rect class="s s0" x="0.8" y="0.8" width="14.4" height="14.4" rx="4.5" ry="4.5"/><rect class="s s1" x="1.8" y="1.8" width="12.3" height="12.3" rx="4.1" ry="4.1"/><rect class="s s2" x="2.6" y="2.6" width="10.8" height="10.8" rx="3.6" ry="3.6"/><rect class="s s3" x="3.0" y="3.0" width="9.9" height="9.9" rx="3.3" ry="3.3"/></svg>