<svg viewBox="-16 -32 880 192" width="880" height="192" xmlns="http://www.w3.org/2000/svg"><desc>Generated with https://github.com/Platane/snk</desc><style>:root{--cb:#1b1f230a;--cs:white;--ce:#0a0e12;--c0:#0a0e12;--c1:#1445a2;--c2:#1d65ee;--c3:#1f4eff;--c4:#466dff}.c{shape-rendering:geometricPrecision;fill:var(--ce);stroke-width:1px;stroke:var(--cb);animation:none 40700ms linear infinite;width:12px;height:12px}@keyframes c0{71.49%{fill:var(--c3)}71.51%,100%{fill:var(--ce)}}.c.c0{fill:var(--c3);animation-name:c0}@keyframes c1{71.24%{fill:var(--c3)}71.26%,100%{fill:var(--ce)}}.c.c1{fill:var(--c3);animation-name:c1}@keyframes c2{35.86%{fill:var(--c2)}35.88%,100%{fill:var(--ce)}}.c.c2{fill:var(--c2);animation-name:c2}@keyframes c3{70.51%{fill:var(--c3)}70.53%,100%{fill:var(--ce)}}.c.c3{fill:var(--c3);animation-name:c3}@keyframes c4{70.01%{fill:var(--c3)}70.03%,100%{fill:var(--ce)}}.c.c4{fill:var(--c3);animation-name:c4}@keyframes c5{36.85%{fill:var(--c2)}36.87%,100%{fill:var(--ce)}}.c.c5{fill:var(--c2);animation-name:c5}@keyframes c6{72.47%{fill:var(--c4)}72.49%,100%{fill:var(--ce)}}.c.c6{fill:var(--c4);animation-name:c6}@keyframes c7{72.72%{fill:var(--c4)}72.74%,100%{fill:var(--ce)}}.c.c7{fill:var(--c4);animation-name:c7}@keyframes c8{35.13%{fill:var(--c1)}35.15%,100%{fill:var(--ce)}}.c.c8{fill:var(--c1);animation-name:c8}@keyframes c9{37.83%{fill:var(--c2)}37.85%,100%{fill:var(--ce)}}.c.c9{fill:var(--c2);animation-name:c9}@keyframes ca{3.68%{fill:var(--c1)}3.7%,100%{fill:var(--ce)}}.c.ca{fill:var(--c1);animation-name:ca}@keyframes cb{3.92%{fill:var(--c1)}3.94%,100%{fill:var(--ce)}}.c.cb{fill:var(--c1);animation-name:cb}@keyframes cc{2.2%{fill:var(--c1)}2.22%,100%{fill:var(--ce)}}.c.cc{fill:var(--c1);animation-name:cc}@keyframes cd{4.17%{fill:var(--c1)}4.19%,100%{fill:var(--ce)}}.c.cd{fill:var(--c1);animation-name:cd}@keyframes ce{5.15%{fill:var(--c1)}5.17%,100%{fill:var(--ce)}}.c.ce{fill:var(--c1);animation-name:ce}@keyframes cf{8.34%{fill:var(--c1)}8.36%,100%{fill:var(--ce)}}.c.cf{fill:var(--c1);animation-name:cf}@keyframes cg{7.12%{fill:var(--c1)}7.14%,100%{fill:var(--ce)}}.c.cg{fill:var(--c1);animation-name:cg}@keyframes ch{7.61%{fill:var(--c1)}7.63%,100%{fill:var(--ce)}}.c.ch{fill:var(--c1);animation-name:ch}@keyframes ci{41.51%{fill:var(--c2)}41.53%,100%{fill:var(--ce)}}.c.ci{fill:var(--c2);animation-name:ci}@keyframes cj{66.33%{fill:var(--c3)}66.35%,100%{fill:var(--ce)}}.c.cj{fill:var(--c3);animation-name:cj}@keyframes ck{43.72%{fill:var(--c2)}43.74%,100%{fill:var(--ce)}}.c.ck{fill:var(--c2);animation-name:ck}@keyframes cl{46.43%{fill:var(--c2)}46.45%,100%{fill:var(--ce)}}.c.cl{fill:var(--c2);animation-name:cl}@keyframes cm{11.54%{fill:var(--c1)}11.56%,100%{fill:var(--ce)}}.c.cm{fill:var(--c1);animation-name:cm}@keyframes cn{44.95%{fill:var(--c2)}44.97%,100%{fill:var(--ce)}}.c.cn{fill:var(--c2);animation-name:cn}@keyframes co{79.6%{fill:var(--c4)}79.62%,100%{fill:var(--ce)}}.c.co{fill:var(--c4);animation-name:co}@keyframes cp{12.52%{fill:var(--c1)}12.54%,100%{fill:var(--ce)}}.c.cp{fill:var(--c1);animation-name:cp}@keyframes cq{12.28%{fill:var(--c1)}12.3%,100%{fill:var(--ce)}}.c.cq{fill:var(--c1);animation-name:cq}@keyframes cr{13.01%{fill:var(--c1)}13.03%,100%{fill:var(--ce)}}.c.cr{fill:var(--c1);animation-name:cr}@keyframes cs{13.26%{fill:var(--c1)}13.28%,100%{fill:var(--ce)}}.c.cs{fill:var(--c1);animation-name:cs}@keyframes ct{62.4%{fill:var(--c3)}62.42%,100%{fill:var(--ce)}}.c.ct{fill:var(--c3);animation-name:ct}@keyframes cu{14.49%{fill:var(--c1)}14.51%,100%{fill:var(--ce)}}.c.cu{fill:var(--c1);animation-name:cu}@keyframes cv{15.71%{fill:var(--c1)}15.73%,100%{fill:var(--ce)}}.c.cv{fill:var(--c1);animation-name:cv}@keyframes cw{15.47%{fill:var(--c1)}15.49%,100%{fill:var(--ce)}}.c.cw{fill:var(--c1);animation-name:cw}@keyframes cx{17.68%{fill:var(--c1)}17.7%,100%{fill:var(--ce)}}.c.cx{fill:var(--c1);animation-name:cx}@keyframes cy{59.45%{fill:var(--c3)}59.47%,100%{fill:var(--ce)}}.c.cy{fill:var(--c3);animation-name:cy}@keyframes cz{17.93%{fill:var(--c1)}17.95%,100%{fill:var(--ce)}}.c.cz{fill:var(--c1);animation-name:cz}@keyframes c10{18.66%{fill:var(--c1)}18.68%,100%{fill:var(--ce)}}.c.c10{fill:var(--c1);animation-name:c10}@keyframes c11{19.15%{fill:var(--c1)}19.17%,100%{fill:var(--ce)}}.c.c11{fill:var(--c1);animation-name:c11}@keyframes c12{51.59%{fill:var(--c2)}51.61%,100%{fill:var(--ce)}}.c.c12{fill:var(--c2);animation-name:c12}@keyframes c13{52.82%{fill:var(--c2)}52.84%,100%{fill:var(--ce)}}.c.c13{fill:var(--c2);animation-name:c13}@keyframes c14{20.87%{fill:var(--c1)}20.89%,100%{fill:var(--ce)}}.c.c14{fill:var(--c1);animation-name:c14}@keyframes c15{20.63%{fill:var(--c1)}20.65%,100%{fill:var(--ce)}}.c.c15{fill:var(--c1);animation-name:c15}@keyframes c16{20.14%{fill:var(--c1)}20.16%,100%{fill:var(--ce)}}.c.c16{fill:var(--c1);animation-name:c16}@keyframes c17{23.33%{fill:var(--c1)}23.35%,100%{fill:var(--ce)}}.c.c17{fill:var(--c1);animation-name:c17}@keyframes c18{53.8%{fill:var(--c2)}53.82%,100%{fill:var(--ce)}}.c.c18{fill:var(--c2);animation-name:c18}@keyframes c19{54.54%{fill:var(--c2)}54.56%,100%{fill:var(--ce)}}.c.c19{fill:var(--c2);animation-name:c19}@keyframes c1a{22.35%{fill:var(--c1)}22.37%,100%{fill:var(--ce)}}.c.c1a{fill:var(--c1);animation-name:c1a}@keyframes c1b{56.5%{fill:var(--c2)}56.52%,100%{fill:var(--ce)}}.c.c1b{fill:var(--c2);animation-name:c1b}@keyframes c1c{86.72%{fill:var(--c4)}86.74%,100%{fill:var(--ce)}}.c.c1c{fill:var(--c4);animation-name:c1c}@keyframes c1d{55.03%{fill:var(--c2)}55.05%,100%{fill:var(--ce)}}.c.c1d{fill:var(--c2);animation-name:c1d}.u{transform-origin:0 0;transform:scale(0,1);animation:none linear 40700ms infinite}@keyframes u0{2.2%{transform:scale(0.000,1)}2.22%,3.68%{transform:scale(0.038,1)}3.7%,3.92%{transform:scale(0.077,1)}3.94%,4.17%{transform:scale(0.115,1)}4.19%,5.15%{transform:scale(0.154,1)}5.17%,7.12%{transform:scale(0.192,1)}7.14%,7.61%{transform:scale(0.231,1)}7.63%,8.34%{transform:scale(0.269,1)}8.36%,11.54%{transform:scale(0.308,1)}11.56%,12.28%{transform:scale(0.346,1)}12.3%,12.52%{transform:scale(0.385,1)}12.54%,13.01%{transform:scale(0.423,1)}13.03%,13.26%{transform:scale(0.462,1)}13.28%,14.49%{transform:scale(0.500,1)}14.51%,15.47%{transform:scale(0.538,1)}15.49%,15.71%{transform:scale(0.577,1)}15.73%,17.68%{transform:scale(0.615,1)}17.7%,17.93%{transform:scale(0.654,1)}17.95%,18.66%{transform:scale(0.692,1)}18.68%,19.15%{transform:scale(0.731,1)}19.17%,20.14%{transform:scale(0.769,1)}20.16%,20.63%{transform:scale(0.808,1)}20.65%,20.87%{transform:scale(0.846,1)}20.89%,22.35%{transform:scale(0.885,1)}22.37%,23.33%{transform:scale(0.923,1)}23.35%,35.13%{transform:scale(0.962,1)}35.15%,100%{transform:scale(1.000,1)}}.u.u0{fill:var(--c1);animation-name:u0;transform-origin:0.0px 0}@keyframes u1{35.86%{transform:scale(0.000,1)}35.88%,36.85%{transform:scale(0.077,1)}36.87%,37.83%{transform:scale(0.154,1)}37.85%,41.51%{transform:scale(0.231,1)}41.53%,43.72%{transform:scale(0.308,1)}43.74%,44.95%{transform:scale(0.385,1)}44.97%,46.43%{transform:scale(0.462,1)}46.45%,51.59%{transform:scale(0.538,1)}51.61%,52.82%{transform:scale(0.615,1)}52.84%,53.8%{transform:scale(0.692,1)}53.82%,54.54%{transform:scale(0.769,1)}54.56%,55.03%{transform:scale(0.846,1)}55.05%,56.5%{transform:scale(0.923,1)}56.52%,100%{transform:scale(1.000,1)}}.u.u1{fill:var(--c2);animation-name:u1;transform-origin:441.0px 0}@keyframes u2{59.45%{transform:scale(0.000,1)}59.47%,62.4%{transform:scale(0.143,1)}62.42%,66.33%{transform:scale(0.286,1)}66.35%,70.01%{transform:scale(0.429,1)}70.03%,70.51%{transform:scale(0.571,1)}70.53%,71.24%{transform:scale(0.714,1)}71.26%,71.49%{transform:scale(0.857,1)}71.51%,100%{transform:scale(1.000,1)}}.u.u2{fill:var(--c3);animation-name:u2;transform-origin:661.4px 0}@keyframes u3{72.47%{transform:scale(0.000,1)}72.49%,72.72%{transform:scale(0.250,1)}72.74%,79.6%{transform:scale(0.500,1)}79.62%,86.72%{transform:scale(0.750,1)}86.74%,100%{transform:scale(1.000,1)}}.u.u3{fill:var(--c4);animation-name:u3;transform-origin:780.2px 0}.s{shape-rendering:geometricPrecision;fill:var(--cs);animation:none linear 40700ms infinite}@keyframes s0{0%,99.75%{transform:translate(0px,-16px)}0.25%{transform:translate(0px,-32px)}1.72%{transform:translate(96px,-32px)}2.46%{transform:translate(96px,16px)}2.7%,37.59%{transform:translate(80px,16px)}3.93%{transform:translate(80px,96px)}6.39%{transform:translate(240px,96px)}7.13%{transform:translate(240px,48px)}7.37%,65.85%{transform:translate(256px,48px)}7.86%{transform:translate(256px,16px)}8.35%{transform:translate(224px,16px)}8.6%{transform:translate(224px,32px)}12.04%{transform:translate(448px,32px)}12.53%{transform:translate(448px,0px)}13.02%{transform:translate(480px,0px)}13.27%{transform:translate(480px,16px)}13.51%{transform:translate(496px,16px)}14.25%{transform:translate(496px,64px)}14.5%{transform:translate(480px,64px)}14.74%{transform:translate(480px,80px)}15.48%{transform:translate(528px,80px)}15.72%{transform:translate(528px,64px)}17.44%{transform:translate(640px,64px)}17.69%{transform:translate(640px,48px)}18.18%{transform:translate(672px,48px)}18.67%{transform:translate(672px,80px)}19.16%{transform:translate(704px,80px)}19.41%{transform:translate(704px,64px)}19.9%{transform:translate(736px,64px)}20.88%{transform:translate(736px,0px)}21.87%{transform:translate(800px,0px)}22.36%{transform:translate(800px,32px)}22.85%{transform:translate(768px,32px)}23.34%{transform:translate(768px,64px)}28.01%{transform:translate(464px,64px)}28.26%{transform:translate(464px,48px)}34.64%{transform:translate(48px,48px)}34.89%{transform:translate(48px,64px)}35.38%,70.27%{transform:translate(16px,64px)}35.63%{transform:translate(16px,48px)}35.87%{transform:translate(0px,48px)}36.12%{transform:translate(0px,32px)}36.36%{transform:translate(16px,32px)}36.61%{transform:translate(16px,16px)}37.84%{transform:translate(80px,0px)}40.54%{transform:translate(256px,0px)}41.52%{transform:translate(256px,64px)}43.24%{transform:translate(368px,64px)}43.73%{transform:translate(368px,96px)}44.47%{transform:translate(416px,96px)}44.72%{transform:translate(416px,80px)}44.96%{transform:translate(432px,80px)}46.19%{transform:translate(432px,0px)}46.44%{transform:translate(416px,0px)}46.68%{transform:translate(416px,-16px)}51.35%{transform:translate(720px,-16px)}52.83%{transform:translate(720px,80px)}53.56%{transform:translate(768px,80px)}53.81%{transform:translate(768px,96px)}54.05%{transform:translate(784px,96px)}54.55%{transform:translate(784px,64px)}55.28%{transform:translate(832px,64px)}56.27%{transform:translate(832px,0px)}58.97%{transform:translate(656px,0px)}59.46%{transform:translate(656px,32px)}62.16%{transform:translate(480px,32px)}62.41%{transform:translate(480px,48px)}66.34%{transform:translate(256px,80px)}70.02%{transform:translate(16px,80px)}70.52%{transform:translate(0px,64px)}71.5%{transform:translate(0px,0px)}71.99%{transform:translate(32px,0px)}72.73%{transform:translate(32px,48px)}78.87%{transform:translate(432px,48px)}79.61%{transform:translate(432px,96px)}85.5%{transform:translate(816px,96px)}86.73%{transform:translate(816px,16px)}98.28%{transform:translate(64px,16px)}98.77%{transform:translate(64px,-16px)}}.s.s0{transform:translate(0px,-16px);animation-name:s0}@keyframes s1{0%,99.75%{transform:translate(16px,-16px)}0.25%{transform:translate(0px,-16px)}0.49%{transform:translate(0px,-32px)}1.97%{transform:translate(96px,-32px)}2.7%{transform:translate(96px,16px)}2.95%,37.84%{transform:translate(80px,16px)}4.18%{transform:translate(80px,96px)}6.63%{transform:translate(240px,96px)}7.37%{transform:translate(240px,48px)}7.62%,66.09%{transform:translate(256px,48px)}8.11%{transform:translate(256px,16px)}8.6%{transform:translate(224px,16px)}8.85%{transform:translate(224px,32px)}12.29%{transform:translate(448px,32px)}12.78%{transform:translate(448px,0px)}13.27%{transform:translate(480px,0px)}13.51%{transform:translate(480px,16px)}13.76%{transform:translate(496px,16px)}14.5%{transform:translate(496px,64px)}14.74%{transform:translate(480px,64px)}14.99%{transform:translate(480px,80px)}15.72%{transform:translate(528px,80px)}15.97%{transform:translate(528px,64px)}17.69%{transform:translate(640px,64px)}17.94%{transform:translate(640px,48px)}18.43%{transform:translate(672px,48px)}18.92%{transform:translate(672px,80px)}19.41%{transform:translate(704px,80px)}19.66%{transform:translate(704px,64px)}20.15%{transform:translate(736px,64px)}21.13%{transform:translate(736px,0px)}22.11%{transform:translate(800px,0px)}22.6%{transform:translate(800px,32px)}23.1%{transform:translate(768px,32px)}23.59%{transform:translate(768px,64px)}28.26%{transform:translate(464px,64px)}28.5%{transform:translate(464px,48px)}34.89%{transform:translate(48px,48px)}35.14%{transform:translate(48px,64px)}35.63%,70.52%{transform:translate(16px,64px)}35.87%{transform:translate(16px,48px)}36.12%{transform:translate(0px,48px)}36.36%{transform:translate(0px,32px)}36.61%{transform:translate(16px,32px)}36.86%{transform:translate(16px,16px)}38.08%{transform:translate(80px,0px)}40.79%{transform:translate(256px,0px)}41.77%{transform:translate(256px,64px)}43.49%{transform:translate(368px,64px)}43.98%{transform:translate(368px,96px)}44.72%{transform:translate(416px,96px)}44.96%{transform:translate(416px,80px)}45.21%{transform:translate(432px,80px)}46.44%{transform:translate(432px,0px)}46.68%{transform:translate(416px,0px)}46.93%{transform:translate(416px,-16px)}51.6%{transform:translate(720px,-16px)}53.07%{transform:translate(720px,80px)}53.81%{transform:translate(768px,80px)}54.05%{transform:translate(768px,96px)}54.3%{transform:translate(784px,96px)}54.79%{transform:translate(784px,64px)}55.53%{transform:translate(832px,64px)}56.51%{transform:translate(832px,0px)}59.21%{transform:translate(656px,0px)}59.71%{transform:translate(656px,32px)}62.41%{transform:translate(480px,32px)}62.65%{transform:translate(480px,48px)}66.58%{transform:translate(256px,80px)}70.27%{transform:translate(16px,80px)}70.76%{transform:translate(0px,64px)}71.74%{transform:translate(0px,0px)}72.24%{transform:translate(32px,0px)}72.97%{transform:translate(32px,48px)}79.12%{transform:translate(432px,48px)}79.85%{transform:translate(432px,96px)}85.75%{transform:translate(816px,96px)}86.98%{transform:translate(816px,16px)}98.53%{transform:translate(64px,16px)}99.02%{transform:translate(64px,-16px)}}.s.s1{transform:translate(16px,-16px);animation-name:s1}@keyframes s2{0%,99.75%{transform:translate(32px,-16px)}0.49%{transform:translate(0px,-16px)}0.74%{transform:translate(0px,-32px)}2.21%{transform:translate(96px,-32px)}2.95%{transform:translate(96px,16px)}3.19%,38.08%{transform:translate(80px,16px)}4.42%{transform:translate(80px,96px)}6.88%{transform:translate(240px,96px)}7.62%{transform:translate(240px,48px)}7.86%,66.34%{transform:translate(256px,48px)}8.35%{transform:translate(256px,16px)}8.85%{transform:translate(224px,16px)}9.09%{transform:translate(224px,32px)}12.53%{transform:translate(448px,32px)}13.02%{transform:translate(448px,0px)}13.51%{transform:translate(480px,0px)}13.76%{transform:translate(480px,16px)}14%{transform:translate(496px,16px)}14.74%{transform:translate(496px,64px)}14.99%{transform:translate(480px,64px)}15.23%{transform:translate(480px,80px)}15.97%{transform:translate(528px,80px)}16.22%{transform:translate(528px,64px)}17.94%{transform:translate(640px,64px)}18.18%{transform:translate(640px,48px)}18.67%{transform:translate(672px,48px)}19.16%{transform:translate(672px,80px)}19.66%{transform:translate(704px,80px)}19.9%{transform:translate(704px,64px)}20.39%{transform:translate(736px,64px)}21.38%{transform:translate(736px,0px)}22.36%{transform:translate(800px,0px)}22.85%{transform:translate(800px,32px)}23.34%{transform:translate(768px,32px)}23.83%{transform:translate(768px,64px)}28.5%{transform:translate(464px,64px)}28.75%{transform:translate(464px,48px)}35.14%{transform:translate(48px,48px)}35.38%{transform:translate(48px,64px)}35.87%,70.76%{transform:translate(16px,64px)}36.12%{transform:translate(16px,48px)}36.36%{transform:translate(0px,48px)}36.61%{transform:translate(0px,32px)}36.86%{transform:translate(16px,32px)}37.1%{transform:translate(16px,16px)}38.33%{transform:translate(80px,0px)}41.03%{transform:translate(256px,0px)}42.01%{transform:translate(256px,64px)}43.73%{transform:translate(368px,64px)}44.23%{transform:translate(368px,96px)}44.96%{transform:translate(416px,96px)}45.21%{transform:translate(416px,80px)}45.45%{transform:translate(432px,80px)}46.68%{transform:translate(432px,0px)}46.93%{transform:translate(416px,0px)}47.17%{transform:translate(416px,-16px)}51.84%{transform:translate(720px,-16px)}53.32%{transform:translate(720px,80px)}54.05%{transform:translate(768px,80px)}54.3%{transform:translate(768px,96px)}54.55%{transform:translate(784px,96px)}55.04%{transform:translate(784px,64px)}55.77%{transform:translate(832px,64px)}56.76%{transform:translate(832px,0px)}59.46%{transform:translate(656px,0px)}59.95%{transform:translate(656px,32px)}62.65%{transform:translate(480px,32px)}62.9%{transform:translate(480px,48px)}66.83%{transform:translate(256px,80px)}70.52%{transform:translate(16px,80px)}71.01%{transform:translate(0px,64px)}71.99%{transform:translate(0px,0px)}72.48%{transform:translate(32px,0px)}73.22%{transform:translate(32px,48px)}79.36%{transform:translate(432px,48px)}80.1%{transform:translate(432px,96px)}86%{transform:translate(816px,96px)}87.22%{transform:translate(816px,16px)}98.77%{transform:translate(64px,16px)}99.26%{transform:translate(64px,-16px)}}.s.s2{transform:translate(32px,-16px);animation-name:s2}@keyframes s3{0%,99.75%{transform:translate(48px,-16px)}0.74%{transform:translate(0px,-16px)}0.98%{transform:translate(0px,-32px)}2.46%{transform:translate(96px,-32px)}3.19%{transform:translate(96px,16px)}3.44%,38.33%{transform:translate(80px,16px)}4.67%{transform:translate(80px,96px)}7.13%{transform:translate(240px,96px)}7.86%{transform:translate(240px,48px)}8.11%,66.58%{transform:translate(256px,48px)}8.6%{transform:translate(256px,16px)}9.09%{transform:translate(224px,16px)}9.34%{transform:translate(224px,32px)}12.78%{transform:translate(448px,32px)}13.27%{transform:translate(448px,0px)}13.76%{transform:translate(480px,0px)}14%{transform:translate(480px,16px)}14.25%{transform:translate(496px,16px)}14.99%{transform:translate(496px,64px)}15.23%{transform:translate(480px,64px)}15.48%{transform:translate(480px,80px)}16.22%{transform:translate(528px,80px)}16.46%{transform:translate(528px,64px)}18.18%{transform:translate(640px,64px)}18.43%{transform:translate(640px,48px)}18.92%{transform:translate(672px,48px)}19.41%{transform:translate(672px,80px)}19.9%{transform:translate(704px,80px)}20.15%{transform:translate(704px,64px)}20.64%{transform:translate(736px,64px)}21.62%{transform:translate(736px,0px)}22.6%{transform:translate(800px,0px)}23.1%{transform:translate(800px,32px)}23.59%{transform:translate(768px,32px)}24.08%{transform:translate(768px,64px)}28.75%{transform:translate(464px,64px)}28.99%{transform:translate(464px,48px)}35.38%{transform:translate(48px,48px)}35.63%{transform:translate(48px,64px)}36.12%,71.01%{transform:translate(16px,64px)}36.36%{transform:translate(16px,48px)}36.61%{transform:translate(0px,48px)}36.86%{transform:translate(0px,32px)}37.1%{transform:translate(16px,32px)}37.35%{transform:translate(16px,16px)}38.57%{transform:translate(80px,0px)}41.28%{transform:translate(256px,0px)}42.26%{transform:translate(256px,64px)}43.98%{transform:translate(368px,64px)}44.47%{transform:translate(368px,96px)}45.21%{transform:translate(416px,96px)}45.45%{transform:translate(416px,80px)}45.7%{transform:translate(432px,80px)}46.93%{transform:translate(432px,0px)}47.17%{transform:translate(416px,0px)}47.42%{transform:translate(416px,-16px)}52.09%{transform:translate(720px,-16px)}53.56%{transform:translate(720px,80px)}54.3%{transform:translate(768px,80px)}54.55%{transform:translate(768px,96px)}54.79%{transform:translate(784px,96px)}55.28%{transform:translate(784px,64px)}56.02%{transform:translate(832px,64px)}57%{transform:translate(832px,0px)}59.71%{transform:translate(656px,0px)}60.2%{transform:translate(656px,32px)}62.9%{transform:translate(480px,32px)}63.14%{transform:translate(480px,48px)}67.08%{transform:translate(256px,80px)}70.76%{transform:translate(16px,80px)}71.25%{transform:translate(0px,64px)}72.24%{transform:translate(0px,0px)}72.73%{transform:translate(32px,0px)}73.46%{transform:translate(32px,48px)}79.61%{transform:translate(432px,48px)}80.34%{transform:translate(432px,96px)}86.24%{transform:translate(816px,96px)}87.47%{transform:translate(816px,16px)}99.02%{transform:translate(64px,16px)}99.51%{transform:translate(64px,-16px)}}.s.s3{transform:translate(48px,-16px);animation-name:s3}</style><rect class="c c0" x="2" y="2" rx="2" ry="2"/><rect class="c c1" x="2" y="18" rx="2" ry="2"/><rect class="c" x="2" y="34" rx="2" ry="2"/><rect class="c c2" x="2" y="50" rx="2" ry="2"/><rect class="c c3" x="2" y="66" rx="2" ry="2"/><rect class="c" x="2" y="82" rx="2" ry="2"/><rect class="c" x="2" y="98" rx="2" ry="2"/><rect class="c" x="18" y="2" rx="2" ry="2"/><rect class="c" x="18" y="18" rx="2" ry="2"/><rect class="c" x="18" y="34" rx="2" ry="2"/><rect class="c" x="18" y="50" rx="2" ry="2"/><rect class="c" x="18" y="66" rx="2" ry="2"/><rect class="c c4" x="18" y="82" rx="2" ry="2"/><rect class="c" x="18" y="98" rx="2" ry="2"/><rect class="c" x="34" y="2" rx="2" ry="2"/><rect class="c c5" x="34" y="18" rx="2" ry="2"/><rect class="c c6" x="34" y="34" rx="2" ry="2"/><rect class="c c7" x="34" y="50" rx="2" ry="2"/><rect class="c c8" x="34" y="66" rx="2" ry="2"/><rect class="c" x="34" y="82" rx="2" ry="2"/><rect class="c" x="34" y="98" rx="2" ry="2"/><rect class="c" x="50" y="2" rx="2" ry="2"/><rect class="c" x="50" y="18" rx="2" ry="2"/><rect class="c" x="50" y="34" rx="2" ry="2"/><rect class="c" x="50" y="50" rx="2" ry="2"/><rect class="c" x="50" y="66" rx="2" ry="2"/><rect class="c" x="50" y="82" rx="2" ry="2"/><rect class="c" x="50" y="98" rx="2" ry="2"/><rect class="c" x="66" y="2" rx="2" ry="2"/><rect class="c" x="66" y="18" rx="2" ry="2"/><rect class="c" x="66" y="34" rx="2" ry="2"/><rect class="c" x="66" y="50" rx="2" ry="2"/><rect class="c" x="66" y="66" rx="2" ry="2"/><rect class="c" x="66" y="82" rx="2" ry="2"/><rect class="c" x="66" y="98" rx="2" ry="2"/><rect class="c c9" x="82" y="2" rx="2" ry="2"/><rect class="c" x="82" y="18" rx="2" ry="2"/><rect class="c" x="82" y="34" rx="2" ry="2"/><rect class="c" x="82" y="50" rx="2" ry="2"/><rect class="c" x="82" y="66" rx="2" ry="2"/><rect class="c ca" x="82" y="82" rx="2" ry="2"/><rect class="c cb" x="82" y="98" rx="2" ry="2"/><rect class="c cc" x="98" y="2" rx="2" ry="2"/><rect class="c" x="98" y="18" rx="2" ry="2"/><rect class="c" x="98" y="34" rx="2" ry="2"/><rect class="c" x="98" y="50" rx="2" ry="2"/><rect class="c" x="98" y="66" rx="2" ry="2"/><rect class="c" x="98" y="82" rx="2" ry="2"/><rect class="c cd" x="98" y="98" rx="2" ry="2"/><rect class="c" x="114" y="2" rx="2" ry="2"/><rect class="c" x="114" y="18" rx="2" ry="2"/><rect class="c" x="114" y="34" rx="2" ry="2"/><rect class="c" x="114" y="50" rx="2" ry="2"/><rect class="c" x="114" y="66" rx="2" ry="2"/><rect class="c" x="114" y="82" rx="2" ry="2"/><rect class="c" x="114" y="98" rx="2" ry="2"/><rect class="c" x="130" y="2" rx="2" ry="2"/><rect class="c" x="130" y="18" rx="2" ry="2"/><rect class="c" x="130" y="34" rx="2" ry="2"/><rect class="c" x="130" y="50" rx="2" ry="2"/><rect class="c" x="130" y="66" rx="2" ry="2"/><rect class="c" x="130" y="82" rx="2" ry="2"/><rect class="c" x="130" y="98" rx="2" ry="2"/><rect class="c" x="146" y="2" rx="2" ry="2"/><rect class="c" x="146" y="18" rx="2" ry="2"/><rect class="c" x="146" y="34" rx="2" ry="2"/><rect class="c" x="146" y="50" rx="2" ry="2"/><rect class="c" x="146" y="66" rx="2" ry="2"/><rect class="c" x="146" y="82" rx="2" ry="2"/><rect class="c" x="146" y="98" rx="2" ry="2"/><rect class="c" x="162" y="2" rx="2" ry="2"/><rect class="c" x="162" y="18" rx="2" ry="2"/><rect class="c" x="162" y="34" rx="2" ry="2"/><rect class="c" x="162" y="50" rx="2" ry="2"/><rect class="c" x="162" y="66" rx="2" ry="2"/><rect class="c" x="162" y="82" rx="2" ry="2"/><rect class="c ce" x="162" y="98" rx="2" ry="2"/><rect class="c" x="178" y="2" rx="2" ry="2"/><rect class="c" x="178" y="18" rx="2" ry="2"/><rect class="c" x="178" y="34" rx="2" ry="2"/><rect class="c" x="178" y="50" rx="2" ry="2"/><rect class="c" x="178" y="66" rx="2" ry="2"/><rect class="c" x="178" y="82" rx="2" ry="2"/><rect class="c" x="178" y="98" rx="2" ry="2"/><rect class="c" x="194" y="2" rx="2" ry="2"/><rect class="c" x="194" y="18" rx="2" ry="2"/><rect class="c" x="194" y="34" rx="2" ry="2"/><rect class="c" x="194" y="50" rx="2" ry="2"/><rect class="c" x="194" y="66" rx="2" ry="2"/><rect class="c" x="194" y="82" rx="2" ry="2"/><rect class="c" x="194" y="98" rx="2" ry="2"/><rect class="c" x="210" y="2" rx="2" ry="2"/><rect class="c" x="210" y="18" rx="2" ry="2"/><rect class="c" x="210" y="34" rx="2" ry="2"/><rect class="c" x="210" y="50" rx="2" ry="2"/><rect class="c" x="210" y="66" rx="2" ry="2"/><rect class="c" x="210" y="82" rx="2" ry="2"/><rect class="c" x="210" y="98" rx="2" ry="2"/><rect class="c" x="226" y="2" rx="2" ry="2"/><rect class="c cf" x="226" y="18" rx="2" ry="2"/><rect class="c" x="226" y="34" rx="2" ry="2"/><rect class="c" x="226" y="50" rx="2" ry="2"/><rect class="c" x="226" y="66" rx="2" ry="2"/><rect class="c" x="226" y="82" rx="2" ry="2"/><rect class="c" x="226" y="98" rx="2" ry="2"/><rect class="c" x="242" y="2" rx="2" ry="2"/><rect class="c" x="242" y="18" rx="2" ry="2"/><rect class="c" x="242" y="34" rx="2" ry="2"/><rect class="c cg" x="242" y="50" rx="2" ry="2"/><rect class="c" x="242" y="66" rx="2" ry="2"/><rect class="c" x="242" y="82" rx="2" ry="2"/><rect class="c" x="242" y="98" rx="2" ry="2"/><rect class="c" x="258" y="2" rx="2" ry="2"/><rect class="c" x="258" y="18" rx="2" ry="2"/><rect class="c ch" x="258" y="34" rx="2" ry="2"/><rect class="c" x="258" y="50" rx="2" ry="2"/><rect class="c ci" x="258" y="66" rx="2" ry="2"/><rect class="c cj" x="258" y="82" rx="2" ry="2"/><rect class="c" x="258" y="98" rx="2" ry="2"/><rect class="c" x="274" y="2" rx="2" ry="2"/><rect class="c" x="274" y="18" rx="2" ry="2"/><rect class="c" x="274" y="34" rx="2" ry="2"/><rect class="c" x="274" y="50" rx="2" ry="2"/><rect class="c" x="274" y="66" rx="2" ry="2"/><rect class="c" x="274" y="82" rx="2" ry="2"/><rect class="c" x="274" y="98" rx="2" ry="2"/><rect class="c" x="290" y="2" rx="2" ry="2"/><rect class="c" x="290" y="18" rx="2" ry="2"/><rect class="c" x="290" y="34" rx="2" ry="2"/><rect class="c" x="290" y="50" rx="2" ry="2"/><rect class="c" x="290" y="66" rx="2" ry="2"/><rect class="c" x="290" y="82" rx="2" ry="2"/><rect class="c" x="290" y="98" rx="2" ry="2"/><rect class="c" x="306" y="2" rx="2" ry="2"/><rect class="c" x="306" y="18" rx="2" ry="2"/><rect class="c" x="306" y="34" rx="2" ry="2"/><rect class="c" x="306" y="50" rx="2" ry="2"/><rect class="c" x="306" y="66" rx="2" ry="2"/><rect class="c" x="306" y="82" rx="2" ry="2"/><rect class="c" x="306" y="98" rx="2" ry="2"/><rect class="c" x="322" y="2" rx="2" ry="2"/><rect class="c" x="322" y="18" rx="2" ry="2"/><rect class="c" x="322" y="34" rx="2" ry="2"/><rect class="c" x="322" y="50" rx="2" ry="2"/><rect class="c" x="322" y="66" rx="2" ry="2"/><rect class="c" x="322" y="82" rx="2" ry="2"/><rect class="c" x="322" y="98" rx="2" ry="2"/><rect class="c" x="338" y="2" rx="2" ry="2"/><rect class="c" x="338" y="18" rx="2" ry="2"/><rect class="c" x="338" y="34" rx="2" ry="2"/><rect class="c" x="338" y="50" rx="2" ry="2"/><rect class="c" x="338" y="66" rx="2" ry="2"/><rect class="c" x="338" y="82" rx="2" ry="2"/><rect class="c" x="338" y="98" rx="2" ry="2"/><rect class="c" x="354" y="2" rx="2" ry="2"/><rect class="c" x="354" y="18" rx="2" ry="2"/><rect class="c" x="354" y="34" rx="2" ry="2"/><rect class="c" x="354" y="50" rx="2" ry="2"/><rect class="c" x="354" y="66" rx="2" ry="2"/><rect class="c" x="354" y="82" rx="2" ry="2"/><rect class="c" x="354" y="98" rx="2" ry="2"/><rect class="c" x="370" y="2" rx="2" ry="2"/><rect class="c" x="370" y="18" rx="2" ry="2"/><rect class="c" x="370" y="34" rx="2" ry="2"/><rect class="c" x="370" y="50" rx="2" ry="2"/><rect class="c" x="370" y="66" rx="2" ry="2"/><rect class="c" x="370" y="82" rx="2" ry="2"/><rect class="c ck" x="370" y="98" rx="2" ry="2"/><rect class="c" x="386" y="2" rx="2" ry="2"/><rect class="c" x="386" y="18" rx="2" ry="2"/><rect class="c" x="386" y="34" rx="2" ry="2"/><rect class="c" x="386" y="50" rx="2" ry="2"/><rect class="c" x="386" y="66" rx="2" ry="2"/><rect class="c" x="386" y="82" rx="2" ry="2"/><rect class="c" x="386" y="98" rx="2" ry="2"/><rect class="c" x="402" y="2" rx="2" ry="2"/><rect class="c" x="402" y="18" rx="2" ry="2"/><rect class="c" x="402" y="34" rx="2" ry="2"/><rect class="c" x="402" y="50" rx="2" ry="2"/><rect class="c" x="402" y="66" rx="2" ry="2"/><rect class="c" x="402" y="82" rx="2" ry="2"/><rect class="c" x="402" y="98" rx="2" ry="2"/><rect class="c cl" x="418" y="2" rx="2" ry="2"/><rect class="c" x="418" y="18" rx="2" ry="2"/><rect class="c cm" x="418" y="34" rx="2" ry="2"/><rect class="c" x="418" y="50" rx="2" ry="2"/><rect class="c" x="418" y="66" rx="2" ry="2"/><rect class="c" x="418" y="82" rx="2" ry="2"/><rect class="c" x="418" y="98" rx="2" ry="2"/><rect class="c" x="434" y="2" rx="2" ry="2"/><rect class="c" x="434" y="18" rx="2" ry="2"/><rect class="c" x="434" y="34" rx="2" ry="2"/><rect class="c" x="434" y="50" rx="2" ry="2"/><rect class="c" x="434" y="66" rx="2" ry="2"/><rect class="c cn" x="434" y="82" rx="2" ry="2"/><rect class="c co" x="434" y="98" rx="2" ry="2"/><rect class="c cp" x="450" y="2" rx="2" ry="2"/><rect class="c cq" x="450" y="18" rx="2" ry="2"/><rect class="c" x="450" y="34" rx="2" ry="2"/><rect class="c" x="450" y="50" rx="2" ry="2"/><rect class="c" x="450" y="66" rx="2" ry="2"/><rect class="c" x="450" y="82" rx="2" ry="2"/><rect class="c" x="450" y="98" rx="2" ry="2"/><rect class="c" x="466" y="2" rx="2" ry="2"/><rect class="c" x="466" y="18" rx="2" ry="2"/><rect class="c" x="466" y="34" rx="2" ry="2"/><rect class="c" x="466" y="50" rx="2" ry="2"/><rect class="c" x="466" y="66" rx="2" ry="2"/><rect class="c" x="466" y="82" rx="2" ry="2"/><rect class="c" x="466" y="98" rx="2" ry="2"/><rect class="c cr" x="482" y="2" rx="2" ry="2"/><rect class="c cs" x="482" y="18" rx="2" ry="2"/><rect class="c" x="482" y="34" rx="2" ry="2"/><rect class="c ct" x="482" y="50" rx="2" ry="2"/><rect class="c cu" x="482" y="66" rx="2" ry="2"/><rect class="c" x="482" y="82" rx="2" ry="2"/><rect class="c" x="482" y="98" rx="2" ry="2"/><rect class="c" x="498" y="2" rx="2" ry="2"/><rect class="c" x="498" y="18" rx="2" ry="2"/><rect class="c" x="498" y="34" rx="2" ry="2"/><rect class="c" x="498" y="50" rx="2" ry="2"/><rect class="c" x="498" y="66" rx="2" ry="2"/><rect class="c" x="498" y="82" rx="2" ry="2"/><rect class="c" x="498" y="98" rx="2" ry="2"/><rect class="c" x="514" y="2" rx="2" ry="2"/><rect class="c" x="514" y="18" rx="2" ry="2"/><rect class="c" x="514" y="34" rx="2" ry="2"/><rect class="c" x="514" y="50" rx="2" ry="2"/><rect class="c" x="514" y="66" rx="2" ry="2"/><rect class="c" x="514" y="82" rx="2" ry="2"/><rect class="c" x="514" y="98" rx="2" ry="2"/><rect class="c" x="530" y="2" rx="2" ry="2"/><rect class="c" x="530" y="18" rx="2" ry="2"/><rect class="c" x="530" y="34" rx="2" ry="2"/><rect class="c" x="530" y="50" rx="2" ry="2"/><rect class="c cv" x="530" y="66" rx="2" ry="2"/><rect class="c cw" x="530" y="82" rx="2" ry="2"/><rect class="c" x="530" y="98" rx="2" ry="2"/><rect class="c" x="546" y="2" rx="2" ry="2"/><rect class="c" x="546" y="18" rx="2" ry="2"/><rect class="c" x="546" y="34" rx="2" ry="2"/><rect class="c" x="546" y="50" rx="2" ry="2"/><rect class="c" x="546" y="66" rx="2" ry="2"/><rect class="c" x="546" y="82" rx="2" ry="2"/><rect class="c" x="546" y="98" rx="2" ry="2"/><rect class="c" x="562" y="2" rx="2" ry="2"/><rect class="c" x="562" y="18" rx="2" ry="2"/><rect class="c" x="562" y="34" rx="2" ry="2"/><rect class="c" x="562" y="50" rx="2" ry="2"/><rect class="c" x="562" y="66" rx="2" ry="2"/><rect class="c" x="562" y="82" rx="2" ry="2"/><rect class="c" x="562" y="98" rx="2" ry="2"/><rect class="c" x="578" y="2" rx="2" ry="2"/><rect class="c" x="578" y="18" rx="2" ry="2"/><rect class="c" x="578" y="34" rx="2" ry="2"/><rect class="c" x="578" y="50" rx="2" ry="2"/><rect class="c" x="578" y="66" rx="2" ry="2"/><rect class="c" x="578" y="82" rx="2" ry="2"/><rect class="c" x="578" y="98" rx="2" ry="2"/><rect class="c" x="594" y="2" rx="2" ry="2"/><rect class="c" x="594" y="18" rx="2" ry="2"/><rect class="c" x="594" y="34" rx="2" ry="2"/><rect class="c" x="594" y="50" rx="2" ry="2"/><rect class="c" x="594" y="66" rx="2" ry="2"/><rect class="c" x="594" y="82" rx="2" ry="2"/><rect class="c" x="594" y="98" rx="2" ry="2"/><rect class="c" x="610" y="2" rx="2" ry="2"/><rect class="c" x="610" y="18" rx="2" ry="2"/><rect class="c" x="610" y="34" rx="2" ry="2"/><rect class="c" x="610" y="50" rx="2" ry="2"/><rect class="c" x="610" y="66" rx="2" ry="2"/><rect class="c" x="610" y="82" rx="2" ry="2"/><rect class="c" x="610" y="98" rx="2" ry="2"/><rect class="c" x="626" y="2" rx="2" ry="2"/><rect class="c" x="626" y="18" rx="2" ry="2"/><rect class="c" x="626" y="34" rx="2" ry="2"/><rect class="c" x="626" y="50" rx="2" ry="2"/><rect class="c" x="626" y="66" rx="2" ry="2"/><rect class="c" x="626" y="82" rx="2" ry="2"/><rect class="c" x="626" y="98" rx="2" ry="2"/><rect class="c" x="642" y="2" rx="2" ry="2"/><rect class="c" x="642" y="18" rx="2" ry="2"/><rect class="c" x="642" y="34" rx="2" ry="2"/><rect class="c cx" x="642" y="50" rx="2" ry="2"/><rect class="c" x="642" y="66" rx="2" ry="2"/><rect class="c" x="642" y="82" rx="2" ry="2"/><rect class="c" x="642" y="98" rx="2" ry="2"/><rect class="c" x="658" y="2" rx="2" ry="2"/><rect class="c" x="658" y="18" rx="2" ry="2"/><rect class="c cy" x="658" y="34" rx="2" ry="2"/><rect class="c cz" x="658" y="50" rx="2" ry="2"/><rect class="c" x="658" y="66" rx="2" ry="2"/><rect class="c" x="658" y="82" rx="2" ry="2"/><rect class="c" x="658" y="98" rx="2" ry="2"/><rect class="c" x="674" y="2" rx="2" ry="2"/><rect class="c" x="674" y="18" rx="2" ry="2"/><rect class="c" x="674" y="34" rx="2" ry="2"/><rect class="c" x="674" y="50" rx="2" ry="2"/><rect class="c" x="674" y="66" rx="2" ry="2"/><rect class="c c10" x="674" y="82" rx="2" ry="2"/><rect class="c" x="674" y="98" rx="2" ry="2"/><rect class="c" x="690" y="2" rx="2" ry="2"/><rect class="c" x="690" y="18" rx="2" ry="2"/><rect class="c" x="690" y="34" rx="2" ry="2"/><rect class="c" x="690" y="50" rx="2" ry="2"/><rect class="c" x="690" y="66" rx="2" ry="2"/><rect class="c" x="690" y="82" rx="2" ry="2"/><rect class="c" x="690" y="98" rx="2" ry="2"/><rect class="c" x="706" y="2" rx="2" ry="2"/><rect class="c" x="706" y="18" rx="2" ry="2"/><rect class="c" x="706" y="34" rx="2" ry="2"/><rect class="c" x="706" y="50" rx="2" ry="2"/><rect class="c" x="706" y="66" rx="2" ry="2"/><rect class="c c11" x="706" y="82" rx="2" ry="2"/><rect class="c" x="706" y="98" rx="2" ry="2"/><rect class="c c12" x="722" y="2" rx="2" ry="2"/><rect class="c" x="722" y="18" rx="2" ry="2"/><rect class="c" x="722" y="34" rx="2" ry="2"/><rect class="c" x="722" y="50" rx="2" ry="2"/><rect class="c" x="722" y="66" rx="2" ry="2"/><rect class="c c13" x="722" y="82" rx="2" ry="2"/><rect class="c" x="722" y="98" rx="2" ry="2"/><rect class="c c14" x="738" y="2" rx="2" ry="2"/><rect class="c c15" x="738" y="18" rx="2" ry="2"/><rect class="c" x="738" y="34" rx="2" ry="2"/><rect class="c c16" x="738" y="50" rx="2" ry="2"/><rect class="c" x="738" y="66" rx="2" ry="2"/><rect class="c" x="738" y="82" rx="2" ry="2"/><rect class="c" x="738" y="98" rx="2" ry="2"/><rect class="c" x="754" y="2" rx="2" ry="2"/><rect class="c" x="754" y="18" rx="2" ry="2"/><rect class="c" x="754" y="34" rx="2" ry="2"/><rect class="c" x="754" y="50" rx="2" ry="2"/><rect class="c" x="754" y="66" rx="2" ry="2"/><rect class="c" x="754" y="82" rx="2" ry="2"/><rect class="c" x="754" y="98" rx="2" ry="2"/><rect class="c" x="770" y="2" rx="2" ry="2"/><rect class="c" x="770" y="18" rx="2" ry="2"/><rect class="c" x="770" y="34" rx="2" ry="2"/><rect class="c" x="770" y="50" rx="2" ry="2"/><rect class="c c17" x="770" y="66" rx="2" ry="2"/><rect class="c" x="770" y="82" rx="2" ry="2"/><rect class="c c18" x="770" y="98" rx="2" ry="2"/><rect class="c" x="786" y="2" rx="2" ry="2"/><rect class="c" x="786" y="18" rx="2" ry="2"/><rect class="c" x="786" y="34" rx="2" ry="2"/><rect class="c" x="786" y="50" rx="2" ry="2"/><rect class="c c19" x="786" y="66" rx="2" ry="2"/><rect class="c" x="786" y="82" rx="2" ry="2"/><rect class="c" x="786" y="98" rx="2" ry="2"/><rect class="c" x="802" y="2" rx="2" ry="2"/><rect class="c" x="802" y="18" rx="2" ry="2"/><rect class="c c1a" x="802" y="34" rx="2" ry="2"/><rect class="c" x="802" y="50" rx="2" ry="2"/><rect class="c" x="802" y="66" rx="2" ry="2"/><rect class="c" x="802" y="82" rx="2" ry="2"/><rect class="c" x="802" y="98" rx="2" ry="2"/><rect class="c c1b" x="818" y="2" rx="2" ry="2"/><rect class="c c1c" x="818" y="18" rx="2" ry="2"/><rect class="c" x="818" y="34" rx="2" ry="2"/><rect class="c" x="818" y="50" rx="2" ry="2"/><rect class="c c1d" x="818" y="66" rx="2" ry="2"/><rect class="c" x="818" y="82" rx="2" ry="2"/><rect class="c" x="818" y="98" rx="2" ry="2"/><rect class="c" x="834" y="2" rx="2" ry="2"/><rect class="c" x="834" y="18" rx="2" ry="2"/><rect class="u u0" height="12" width="441.6" x="0.0" y="144"/><rect class="u u1" height="12" width="221.1" x="441.0" y="144"/><rect class="u u2" height="12" width="119.3" x="661.4" y="144"/><rect class="u u3" height="12" width="68.4" x="780.2" y="144"/><rect class="s s0" x="0.8" y="0.8" width="14.4" height="14.4" rx="4.5" ry="4.5"/><rect class="s s1" x="1.8" y="1.8" width="12.3" height="12.3" rx="4.1" ry="4.1"/><rect class="s s2" x="2.6" y="2.6" width="10.8" height="10.8" rx="3.6" ry="3.6"/><rect class="s s3" x="3.0" y="3.0" width="9.9" height="9.9" rx="3.3" ry="3.3"/></svg>