<svg viewBox="-16 -32 880 192" width="880" height="192" xmlns="http://www.w3.org/2000/svg"><desc>Generated with https://github.com/Platane/snk</desc><style>:root{--cb:#1b1f230a;--cs:white;--ce:#0a0e12;--c0:#0a0e12;--c1:#1445a2;--c2:#1d65ee;--c3:#1f4eff;--c4:#466dff}.c{shape-rendering:geometricPrecision;fill:var(--ce);stroke-width:1px;stroke:var(--cb);animation:none 36300ms linear infinite;width:12px;height:12px}@keyframes c0{9.63%{fill:var(--c1)}9.65%,100%{fill:var(--ce)}}.c.c0{fill:var(--c1);animation-name:c0}@keyframes c1{2.19%{fill:var(--c1)}2.21%,100%{fill:var(--ce)}}.c.c1{fill:var(--c1);animation-name:c1}@keyframes c2{7.7%{fill:var(--c1)}7.72%,100%{fill:var(--ce)}}.c.c2{fill:var(--c1);animation-name:c2}@keyframes c3{6.6%{fill:var(--c1)}6.62%,100%{fill:var(--ce)}}.c.c3{fill:var(--c1);animation-name:c3}@keyframes c4{69.69%{fill:var(--c2)}69.71%,100%{fill:var(--ce)}}.c.c4{fill:var(--c2);animation-name:c4}@keyframes c5{2.74%{fill:var(--c1)}2.76%,100%{fill:var(--ce)}}.c.c5{fill:var(--c1);animation-name:c5}@keyframes c6{3.02%{fill:var(--c1)}3.04%,100%{fill:var(--ce)}}.c.c6{fill:var(--c1);animation-name:c6}@keyframes c7{3.85%{fill:var(--c1)}3.87%,100%{fill:var(--ce)}}.c.c7{fill:var(--c1);animation-name:c7}@keyframes c8{3.57%{fill:var(--c1)}3.59%,100%{fill:var(--ce)}}.c.c8{fill:var(--c1);animation-name:c8}@keyframes c9{68.03%{fill:var(--c2)}68.05%,100%{fill:var(--ce)}}.c.c9{fill:var(--c2);animation-name:c9}@keyframes ca{5.5%{fill:var(--c1)}5.52%,100%{fill:var(--ce)}}.c.ca{fill:var(--c1);animation-name:ca}@keyframes cb{12.94%{fill:var(--c1)}12.96%,100%{fill:var(--ce)}}.c.cb{fill:var(--c1);animation-name:cb}@keyframes cc{12.66%{fill:var(--c1)}12.68%,100%{fill:var(--ce)}}.c.cc{fill:var(--c1);animation-name:cc}@keyframes cd{15.14%{fill:var(--c1)}15.16%,100%{fill:var(--ce)}}.c.cd{fill:var(--c1);animation-name:cd}@keyframes ce{64.73%{fill:var(--c2)}64.75%,100%{fill:var(--ce)}}.c.ce{fill:var(--c2);animation-name:ce}@keyframes cf{15.42%{fill:var(--c1)}15.44%,100%{fill:var(--ce)}}.c.cf{fill:var(--c1);animation-name:cf}@keyframes cg{16.24%{fill:var(--c1)}16.26%,100%{fill:var(--ce)}}.c.cg{fill:var(--c1);animation-name:cg}@keyframes ch{16.79%{fill:var(--c1)}16.81%,100%{fill:var(--ce)}}.c.ch{fill:var(--c1);animation-name:ch}@keyframes ci{19%{fill:var(--c1)}19.02%,100%{fill:var(--ce)}}.c.ci{fill:var(--c1);animation-name:ci}@keyframes cj{17.07%{fill:var(--c1)}17.09%,100%{fill:var(--ce)}}.c.cj{fill:var(--c1);animation-name:cj}@keyframes ck{18.72%{fill:var(--c1)}18.74%,100%{fill:var(--ce)}}.c.ck{fill:var(--c1);animation-name:ck}@keyframes cl{18.45%{fill:var(--c1)}18.47%,100%{fill:var(--ce)}}.c.cl{fill:var(--c1);animation-name:cl}@keyframes cm{17.9%{fill:var(--c1)}17.92%,100%{fill:var(--ce)}}.c.cm{fill:var(--c1);animation-name:cm}@keyframes cn{22.58%{fill:var(--c1)}22.6%,100%{fill:var(--ce)}}.c.cn{fill:var(--c1);animation-name:cn}@keyframes co{23.13%{fill:var(--c1)}23.15%,100%{fill:var(--ce)}}.c.co{fill:var(--c1);animation-name:co}@keyframes cp{22.3%{fill:var(--c1)}22.32%,100%{fill:var(--ce)}}.c.cp{fill:var(--c1);animation-name:cp}@keyframes cq{20.93%{fill:var(--c1)}20.95%,100%{fill:var(--ce)}}.c.cq{fill:var(--c1);animation-name:cq}@keyframes cr{28.36%{fill:var(--c1)}28.38%,100%{fill:var(--ce)}}.c.cr{fill:var(--c1);animation-name:cr}@keyframes cs{61.7%{fill:var(--c2)}61.72%,100%{fill:var(--ce)}}.c.cs{fill:var(--c2);animation-name:cs}@keyframes ct{21.75%{fill:var(--c1)}21.77%,100%{fill:var(--ce)}}.c.ct{fill:var(--c1);animation-name:ct}@keyframes cu{26.16%{fill:var(--c1)}26.18%,100%{fill:var(--ce)}}.c.cu{fill:var(--c1);animation-name:cu}@keyframes cv{25.61%{fill:var(--c1)}25.63%,100%{fill:var(--ce)}}.c.cv{fill:var(--c1);animation-name:cv}@keyframes cw{32.22%{fill:var(--c1)}32.24%,100%{fill:var(--ce)}}.c.cw{fill:var(--c1);animation-name:cw}@keyframes cx{44.62%{fill:var(--c1)}44.64%,100%{fill:var(--ce)}}.c.cx{fill:var(--c1);animation-name:cx}@keyframes cy{44.89%{fill:var(--c1)}44.91%,100%{fill:var(--ce)}}.c.cy{fill:var(--c1);animation-name:cy}@keyframes cz{32.5%{fill:var(--c1)}32.52%,100%{fill:var(--ce)}}.c.cz{fill:var(--c1);animation-name:cz}@keyframes c10{53.16%{fill:var(--c2)}53.18%,100%{fill:var(--ce)}}.c.c10{fill:var(--c2);animation-name:c10}@keyframes c11{32.77%{fill:var(--c1)}32.79%,100%{fill:var(--ce)}}.c.c11{fill:var(--c1);animation-name:c11}@keyframes c12{52.61%{fill:var(--c2)}52.63%,100%{fill:var(--ce)}}.c.c12{fill:var(--c2);animation-name:c12}@keyframes c13{44.07%{fill:var(--c1)}44.09%,100%{fill:var(--ce)}}.c.c13{fill:var(--c1);animation-name:c13}@keyframes c14{42.14%{fill:var(--c1)}42.16%,100%{fill:var(--ce)}}.c.c14{fill:var(--c1);animation-name:c14}@keyframes c15{42.41%{fill:var(--c1)}42.43%,100%{fill:var(--ce)}}.c.c15{fill:var(--c1);animation-name:c15}@keyframes c16{52.06%{fill:var(--c2)}52.08%,100%{fill:var(--ce)}}.c.c16{fill:var(--c2);animation-name:c16}@keyframes c17{43.52%{fill:var(--c1)}43.54%,100%{fill:var(--ce)}}.c.c17{fill:var(--c1);animation-name:c17}@keyframes c18{33.32%{fill:var(--c1)}33.34%,100%{fill:var(--ce)}}.c.c18{fill:var(--c1);animation-name:c18}@keyframes c19{41.86%{fill:var(--c1)}41.88%,100%{fill:var(--ce)}}.c.c19{fill:var(--c1);animation-name:c19}@keyframes c1a{41.59%{fill:var(--c1)}41.61%,100%{fill:var(--ce)}}.c.c1a{fill:var(--c1);animation-name:c1a}@keyframes c1b{43.24%{fill:var(--c1)}43.26%,100%{fill:var(--ce)}}.c.c1b{fill:var(--c1);animation-name:c1b}@keyframes c1c{49.85%{fill:var(--c1)}49.87%,100%{fill:var(--ce)}}.c.c1c{fill:var(--c1);animation-name:c1c}@keyframes c1d{33.6%{fill:var(--c1)}33.62%,100%{fill:var(--ce)}}.c.c1d{fill:var(--c1);animation-name:c1d}@keyframes c1e{81.81%{fill:var(--c3)}81.83%,100%{fill:var(--ce)}}.c.c1e{fill:var(--c3);animation-name:c1e}@keyframes c1f{51.23%{fill:var(--c2)}51.25%,100%{fill:var(--ce)}}.c.c1f{fill:var(--c2);animation-name:c1f}@keyframes c1g{41.04%{fill:var(--c1)}41.06%,100%{fill:var(--ce)}}.c.c1g{fill:var(--c1);animation-name:c1g}@keyframes c1h{80.98%{fill:var(--c3)}81%,100%{fill:var(--ce)}}.c.c1h{fill:var(--c3);animation-name:c1h}@keyframes c1i{55.36%{fill:var(--c2)}55.38%,100%{fill:var(--ce)}}.c.c1i{fill:var(--c2);animation-name:c1i}@keyframes c1j{82.63%{fill:var(--c4)}82.65%,100%{fill:var(--ce)}}.c.c1j{fill:var(--c4);animation-name:c1j}@keyframes c1k{33.87%{fill:var(--c1)}33.89%,100%{fill:var(--ce)}}.c.c1k{fill:var(--c1);animation-name:c1k}@keyframes c1l{37.46%{fill:var(--c1)}37.48%,100%{fill:var(--ce)}}.c.c1l{fill:var(--c1);animation-name:c1l}@keyframes c1m{37.18%{fill:var(--c1)}37.2%,100%{fill:var(--ce)}}.c.c1m{fill:var(--c1);animation-name:c1m}@keyframes c1n{40.76%{fill:var(--c1)}40.78%,100%{fill:var(--ce)}}.c.c1n{fill:var(--c1);animation-name:c1n}@keyframes c1o{84.56%{fill:var(--c4)}84.58%,100%{fill:var(--ce)}}.c.c1o{fill:var(--c4);animation-name:c1o}@keyframes c1p{47.37%{fill:var(--c1)}47.39%,100%{fill:var(--ce)}}.c.c1p{fill:var(--c1);animation-name:c1p}@keyframes c1q{35.53%{fill:var(--c1)}35.55%,100%{fill:var(--ce)}}.c.c1q{fill:var(--c1);animation-name:c1q}@keyframes c1r{34.15%{fill:var(--c1)}34.17%,100%{fill:var(--ce)}}.c.c1r{fill:var(--c1);animation-name:c1r}@keyframes c1s{36.08%{fill:var(--c1)}36.1%,100%{fill:var(--ce)}}.c.c1s{fill:var(--c1);animation-name:c1s}@keyframes c1t{36.9%{fill:var(--c1)}36.92%,100%{fill:var(--ce)}}.c.c1t{fill:var(--c1);animation-name:c1t}@keyframes c1u{38.28%{fill:var(--c1)}38.3%,100%{fill:var(--ce)}}.c.c1u{fill:var(--c1);animation-name:c1u}@keyframes c1v{39.11%{fill:var(--c1)}39.13%,100%{fill:var(--ce)}}.c.c1v{fill:var(--c1);animation-name:c1v}@keyframes c1w{39.38%{fill:var(--c1)}39.4%,100%{fill:var(--ce)}}.c.c1w{fill:var(--c1);animation-name:c1w}@keyframes c1x{35.25%{fill:var(--c1)}35.27%,100%{fill:var(--ce)}}.c.c1x{fill:var(--c1);animation-name:c1x}@keyframes c1y{34.43%{fill:var(--c1)}34.45%,100%{fill:var(--ce)}}.c.c1y{fill:var(--c1);animation-name:c1y}@keyframes c1z{36.35%{fill:var(--c1)}36.37%,100%{fill:var(--ce)}}.c.c1z{fill:var(--c1);animation-name:c1z}@keyframes c20{36.63%{fill:var(--c1)}36.65%,100%{fill:var(--ce)}}.c.c20{fill:var(--c1);animation-name:c20}@keyframes c21{38.56%{fill:var(--c1)}38.58%,100%{fill:var(--ce)}}.c.c21{fill:var(--c1);animation-name:c21}@keyframes c22{38.83%{fill:var(--c1)}38.85%,100%{fill:var(--ce)}}.c.c22{fill:var(--c1);animation-name:c22}@keyframes c23{39.66%{fill:var(--c1)}39.68%,100%{fill:var(--ce)}}.c.c23{fill:var(--c1);animation-name:c23}@keyframes c24{34.98%{fill:var(--c1)}35%,100%{fill:var(--ce)}}.c.c24{fill:var(--c1);animation-name:c24}@keyframes c25{34.7%{fill:var(--c1)}34.72%,100%{fill:var(--ce)}}.c.c25{fill:var(--c1);animation-name:c25}.u{transform-origin:0 0;transform:scale(0,1);animation:none linear 36300ms infinite}@keyframes u0{2.19%{transform:scale(0.000,1)}2.21%,2.74%{transform:scale(0.015,1)}2.76%,3.02%{transform:scale(0.031,1)}3.04%,3.57%{transform:scale(0.046,1)}3.59%,3.85%{transform:scale(0.062,1)}3.87%,5.5%{transform:scale(0.077,1)}5.52%,6.6%{transform:scale(0.092,1)}6.62%,7.7%{transform:scale(0.108,1)}7.72%,9.63%{transform:scale(0.123,1)}9.65%,12.66%{transform:scale(0.138,1)}12.68%,12.94%{transform:scale(0.154,1)}12.96%,15.14%{transform:scale(0.169,1)}15.16%,15.42%{transform:scale(0.185,1)}15.44%,16.24%{transform:scale(0.200,1)}16.26%,16.79%{transform:scale(0.215,1)}16.81%,17.07%{transform:scale(0.231,1)}17.09%,17.9%{transform:scale(0.246,1)}17.92%,18.45%{transform:scale(0.262,1)}18.47%,18.72%{transform:scale(0.277,1)}18.74%,19%{transform:scale(0.292,1)}19.02%,20.93%{transform:scale(0.308,1)}20.95%,21.75%{transform:scale(0.323,1)}21.77%,22.3%{transform:scale(0.338,1)}22.32%,22.58%{transform:scale(0.354,1)}22.6%,23.13%{transform:scale(0.369,1)}23.15%,25.61%{transform:scale(0.385,1)}25.63%,26.16%{transform:scale(0.400,1)}26.18%,28.36%{transform:scale(0.415,1)}28.38%,32.22%{transform:scale(0.431,1)}32.24%,32.5%{transform:scale(0.446,1)}32.52%,32.77%{transform:scale(0.462,1)}32.79%,33.32%{transform:scale(0.477,1)}33.34%,33.6%{transform:scale(0.492,1)}33.62%,33.87%{transform:scale(0.508,1)}33.89%,34.15%{transform:scale(0.523,1)}34.17%,34.43%{transform:scale(0.538,1)}34.45%,34.7%{transform:scale(0.554,1)}34.72%,34.98%{transform:scale(0.569,1)}35%,35.25%{transform:scale(0.585,1)}35.27%,35.53%{transform:scale(0.600,1)}35.55%,36.08%{transform:scale(0.615,1)}36.1%,36.35%{transform:scale(0.631,1)}36.37%,36.63%{transform:scale(0.646,1)}36.65%,36.9%{transform:scale(0.662,1)}36.92%,37.18%{transform:scale(0.677,1)}37.2%,37.46%{transform:scale(0.692,1)}37.48%,38.28%{transform:scale(0.708,1)}38.3%,38.56%{transform:scale(0.723,1)}38.58%,38.83%{transform:scale(0.738,1)}38.85%,39.11%{transform:scale(0.754,1)}39.13%,39.38%{transform:scale(0.769,1)}39.4%,39.66%{transform:scale(0.785,1)}39.68%,40.76%{transform:scale(0.800,1)}40.78%,41.04%{transform:scale(0.815,1)}41.06%,41.59%{transform:scale(0.831,1)}41.61%,41.86%{transform:scale(0.846,1)}41.88%,42.14%{transform:scale(0.862,1)}42.16%,42.41%{transform:scale(0.877,1)}42.43%,43.24%{transform:scale(0.892,1)}43.26%,43.52%{transform:scale(0.908,1)}43.54%,44.07%{transform:scale(0.923,1)}44.09%,44.62%{transform:scale(0.938,1)}44.64%,44.89%{transform:scale(0.954,1)}44.91%,47.37%{transform:scale(0.969,1)}47.39%,49.85%{transform:scale(0.985,1)}49.87%,100%{transform:scale(1.000,1)}}.u.u0{fill:var(--c1);animation-name:u0;transform-origin:0.0px 0}@keyframes u1{51.23%{transform:scale(0.000,1)}51.25%,52.06%{transform:scale(0.111,1)}52.08%,52.61%{transform:scale(0.222,1)}52.63%,53.16%{transform:scale(0.333,1)}53.18%,55.36%{transform:scale(0.444,1)}55.38%,61.7%{transform:scale(0.556,1)}61.72%,64.73%{transform:scale(0.667,1)}64.75%,68.03%{transform:scale(0.778,1)}68.05%,69.69%{transform:scale(0.889,1)}69.71%,100%{transform:scale(1.000,1)}}.u.u1{fill:var(--c2);animation-name:u1;transform-origin:706.7px 0}@keyframes u2{80.98%{transform:scale(0.000,1)}81%,81.81%{transform:scale(0.500,1)}81.83%,100%{transform:scale(1.000,1)}}.u.u2{fill:var(--c3);animation-name:u2;transform-origin:804.5px 0}@keyframes u3{82.63%{transform:scale(0.000,1)}82.65%,84.56%{transform:scale(0.500,1)}84.58%,100%{transform:scale(1.000,1)}}.u.u3{fill:var(--c4);animation-name:u3;transform-origin:826.3px 0}.s{shape-rendering:geometricPrecision;fill:var(--cs);animation:none linear 36300ms infinite}@keyframes s0{0%,99.72%{transform:translate(0px,-16px)}0.28%{transform:translate(0px,0px)}2.75%{transform:translate(144px,0px)}3.03%{transform:translate(144px,16px)}3.58%{transform:translate(176px,16px)}3.86%{transform:translate(176px,0px)}4.13%{transform:translate(192px,0px)}5.23%{transform:translate(192px,64px)}6.34%,96.14%{transform:translate(128px,64px)}6.61%{transform:translate(128px,80px)}6.89%,10.74%{transform:translate(112px,80px)}7.71%,96.97%{transform:translate(112px,32px)}8.54%{transform:translate(64px,32px)}9.64%{transform:translate(64px,96px)}10.47%{transform:translate(112px,96px)}12.67%{transform:translate(224px,80px)}12.95%{transform:translate(224px,64px)}14.88%{transform:translate(336px,64px)}15.15%{transform:translate(336px,48px)}15.7%{transform:translate(368px,48px)}16.25%{transform:translate(368px,80px)}17.36%{transform:translate(432px,80px)}18.73%{transform:translate(432px,0px)}19.01%{transform:translate(416px,0px)}19.28%{transform:translate(416px,16px)}20.66%{transform:translate(496px,16px)}20.94%{transform:translate(496px,32px)}21.21%{transform:translate(512px,32px)}21.76%{transform:translate(512px,64px)}22.59%{transform:translate(464px,64px)}23.14%{transform:translate(464px,96px)}25.34%{transform:translate(592px,96px)}25.9%{transform:translate(592px,64px)}26.17%{transform:translate(576px,64px)}27.27%{transform:translate(576px,0px)}28.37%{transform:translate(512px,0px)}28.65%{transform:translate(512px,-16px)}31.68%{transform:translate(688px,-16px)}32.23%{transform:translate(688px,16px)}34.71%{transform:translate(832px,16px)}34.99%{transform:translate(832px,0px)}35.54%,82.92%{transform:translate(800px,0px)}36.09%,37.74%{transform:translate(800px,32px)}36.36%{transform:translate(816px,32px)}36.64%{transform:translate(816px,48px)}37.19%{transform:translate(784px,48px)}37.47%,82.09%{transform:translate(784px,32px)}38.29%{transform:translate(800px,64px)}38.57%,40.22%{transform:translate(816px,64px)}38.84%{transform:translate(816px,80px)}39.12%{transform:translate(800px,80px)}39.39%,47.66%{transform:translate(800px,96px)}39.67%{transform:translate(816px,96px)}41.32%{transform:translate(752px,64px)}41.87%{transform:translate(752px,32px)}42.15%{transform:translate(736px,32px)}42.42%,52.34%{transform:translate(736px,48px)}42.7%,50.96%,54.27%{transform:translate(752px,48px)}43.25%,46.01%{transform:translate(752px,80px)}43.8%{transform:translate(720px,80px)}44.08%{transform:translate(720px,64px)}44.63%{transform:translate(688px,64px)}44.9%{transform:translate(688px,80px)}46.56%,55.92%{transform:translate(752px,112px)}47.11%{transform:translate(784px,112px)}47.38%{transform:translate(784px,96px)}49.04%,83.2%{transform:translate(800px,16px)}49.59%{transform:translate(768px,16px)}49.86%{transform:translate(768px,0px)}50.14%{transform:translate(752px,0px)}51.24%{transform:translate(768px,48px)}51.52%{transform:translate(768px,64px)}52.07%{transform:translate(736px,64px)}52.62%{transform:translate(720px,48px)}52.89%{transform:translate(720px,32px)}53.17%{transform:translate(704px,32px)}53.44%{transform:translate(704px,48px)}55.1%{transform:translate(752px,96px)}55.37%,80.72%{transform:translate(768px,96px)}55.65%{transform:translate(768px,112px)}57.58%{transform:translate(752px,16px)}64.46%{transform:translate(352px,16px)}64.74%{transform:translate(352px,32px)}67.77%{transform:translate(176px,32px)}68.04%{transform:translate(176px,48px)}68.87%,96.42%{transform:translate(128px,48px)}69.7%{transform:translate(128px,96px)}81.82%{transform:translate(768px,32px)}82.64%{transform:translate(784px,0px)}83.47%{transform:translate(784px,16px)}84.57%{transform:translate(784px,80px)}95.32%{transform:translate(160px,80px)}95.59%{transform:translate(160px,64px)}96.69%{transform:translate(112px,48px)}97.25%{transform:translate(96px,32px)}98.07%{transform:translate(96px,-16px)}}.s.s0{transform:translate(0px,-16px);animation-name:s0}@keyframes s1{0%,99.72%{transform:translate(16px,-16px)}0.28%{transform:translate(0px,-16px)}0.55%{transform:translate(0px,0px)}3.03%{transform:translate(144px,0px)}3.31%{transform:translate(144px,16px)}3.86%{transform:translate(176px,16px)}4.13%{transform:translate(176px,0px)}4.41%{transform:translate(192px,0px)}5.51%{transform:translate(192px,64px)}6.61%,96.42%{transform:translate(128px,64px)}6.89%{transform:translate(128px,80px)}7.16%,11.02%{transform:translate(112px,80px)}7.99%,97.25%{transform:translate(112px,32px)}8.82%{transform:translate(64px,32px)}9.92%{transform:translate(64px,96px)}10.74%{transform:translate(112px,96px)}12.95%{transform:translate(224px,80px)}13.22%{transform:translate(224px,64px)}15.15%{transform:translate(336px,64px)}15.43%{transform:translate(336px,48px)}15.98%{transform:translate(368px,48px)}16.53%{transform:translate(368px,80px)}17.63%{transform:translate(432px,80px)}19.01%{transform:translate(432px,0px)}19.28%{transform:translate(416px,0px)}19.56%{transform:translate(416px,16px)}20.94%{transform:translate(496px,16px)}21.21%{transform:translate(496px,32px)}21.49%{transform:translate(512px,32px)}22.04%{transform:translate(512px,64px)}22.87%{transform:translate(464px,64px)}23.42%{transform:translate(464px,96px)}25.62%{transform:translate(592px,96px)}26.17%{transform:translate(592px,64px)}26.45%{transform:translate(576px,64px)}27.55%{transform:translate(576px,0px)}28.65%{transform:translate(512px,0px)}28.93%{transform:translate(512px,-16px)}31.96%{transform:translate(688px,-16px)}32.51%{transform:translate(688px,16px)}34.99%{transform:translate(832px,16px)}35.26%{transform:translate(832px,0px)}35.81%,83.2%{transform:translate(800px,0px)}36.36%,38.02%{transform:translate(800px,32px)}36.64%{transform:translate(816px,32px)}36.91%{transform:translate(816px,48px)}37.47%{transform:translate(784px,48px)}37.74%,82.37%{transform:translate(784px,32px)}38.57%{transform:translate(800px,64px)}38.84%,40.5%{transform:translate(816px,64px)}39.12%{transform:translate(816px,80px)}39.39%{transform:translate(800px,80px)}39.67%,47.93%{transform:translate(800px,96px)}39.94%{transform:translate(816px,96px)}41.6%{transform:translate(752px,64px)}42.15%{transform:translate(752px,32px)}42.42%{transform:translate(736px,32px)}42.7%,52.62%{transform:translate(736px,48px)}42.98%,51.24%,54.55%{transform:translate(752px,48px)}43.53%,46.28%{transform:translate(752px,80px)}44.08%{transform:translate(720px,80px)}44.35%{transform:translate(720px,64px)}44.9%{transform:translate(688px,64px)}45.18%{transform:translate(688px,80px)}46.83%,56.2%{transform:translate(752px,112px)}47.38%{transform:translate(784px,112px)}47.66%{transform:translate(784px,96px)}49.31%,83.47%{transform:translate(800px,16px)}49.86%{transform:translate(768px,16px)}50.14%{transform:translate(768px,0px)}50.41%{transform:translate(752px,0px)}51.52%{transform:translate(768px,48px)}51.79%{transform:translate(768px,64px)}52.34%{transform:translate(736px,64px)}52.89%{transform:translate(720px,48px)}53.17%{transform:translate(720px,32px)}53.44%{transform:translate(704px,32px)}53.72%{transform:translate(704px,48px)}55.37%{transform:translate(752px,96px)}55.65%,80.99%{transform:translate(768px,96px)}55.92%{transform:translate(768px,112px)}57.85%{transform:translate(752px,16px)}64.74%{transform:translate(352px,16px)}65.01%{transform:translate(352px,32px)}68.04%{transform:translate(176px,32px)}68.32%{transform:translate(176px,48px)}69.15%,96.69%{transform:translate(128px,48px)}69.97%{transform:translate(128px,96px)}82.09%{transform:translate(768px,32px)}82.92%{transform:translate(784px,0px)}83.75%{transform:translate(784px,16px)}84.85%{transform:translate(784px,80px)}95.59%{transform:translate(160px,80px)}95.87%{transform:translate(160px,64px)}96.97%{transform:translate(112px,48px)}97.52%{transform:translate(96px,32px)}98.35%{transform:translate(96px,-16px)}}.s.s1{transform:translate(16px,-16px);animation-name:s1}@keyframes s2{0%,99.72%{transform:translate(32px,-16px)}0.55%{transform:translate(0px,-16px)}0.83%{transform:translate(0px,0px)}3.31%{transform:translate(144px,0px)}3.58%{transform:translate(144px,16px)}4.13%{transform:translate(176px,16px)}4.41%{transform:translate(176px,0px)}4.68%{transform:translate(192px,0px)}5.79%{transform:translate(192px,64px)}6.89%,96.69%{transform:translate(128px,64px)}7.16%{transform:translate(128px,80px)}7.44%,11.29%{transform:translate(112px,80px)}8.26%,97.52%{transform:translate(112px,32px)}9.09%{transform:translate(64px,32px)}10.19%{transform:translate(64px,96px)}11.02%{transform:translate(112px,96px)}13.22%{transform:translate(224px,80px)}13.5%{transform:translate(224px,64px)}15.43%{transform:translate(336px,64px)}15.7%{transform:translate(336px,48px)}16.25%{transform:translate(368px,48px)}16.8%{transform:translate(368px,80px)}17.91%{transform:translate(432px,80px)}19.28%{transform:translate(432px,0px)}19.56%{transform:translate(416px,0px)}19.83%{transform:translate(416px,16px)}21.21%{transform:translate(496px,16px)}21.49%{transform:translate(496px,32px)}21.76%{transform:translate(512px,32px)}22.31%{transform:translate(512px,64px)}23.14%{transform:translate(464px,64px)}23.69%{transform:translate(464px,96px)}25.9%{transform:translate(592px,96px)}26.45%{transform:translate(592px,64px)}26.72%{transform:translate(576px,64px)}27.82%{transform:translate(576px,0px)}28.93%{transform:translate(512px,0px)}29.2%{transform:translate(512px,-16px)}32.23%{transform:translate(688px,-16px)}32.78%{transform:translate(688px,16px)}35.26%{transform:translate(832px,16px)}35.54%{transform:translate(832px,0px)}36.09%,83.47%{transform:translate(800px,0px)}36.64%,38.29%{transform:translate(800px,32px)}36.91%{transform:translate(816px,32px)}37.19%{transform:translate(816px,48px)}37.74%{transform:translate(784px,48px)}38.02%,82.64%{transform:translate(784px,32px)}38.84%{transform:translate(800px,64px)}39.12%,40.77%{transform:translate(816px,64px)}39.39%{transform:translate(816px,80px)}39.67%{transform:translate(800px,80px)}39.94%,48.21%{transform:translate(800px,96px)}40.22%{transform:translate(816px,96px)}41.87%{transform:translate(752px,64px)}42.42%{transform:translate(752px,32px)}42.7%{transform:translate(736px,32px)}42.98%,52.89%{transform:translate(736px,48px)}43.25%,51.52%,54.82%{transform:translate(752px,48px)}43.8%,46.56%{transform:translate(752px,80px)}44.35%{transform:translate(720px,80px)}44.63%{transform:translate(720px,64px)}45.18%{transform:translate(688px,64px)}45.45%{transform:translate(688px,80px)}47.11%,56.47%{transform:translate(752px,112px)}47.66%{transform:translate(784px,112px)}47.93%{transform:translate(784px,96px)}49.59%,83.75%{transform:translate(800px,16px)}50.14%{transform:translate(768px,16px)}50.41%{transform:translate(768px,0px)}50.69%{transform:translate(752px,0px)}51.79%{transform:translate(768px,48px)}52.07%{transform:translate(768px,64px)}52.62%{transform:translate(736px,64px)}53.17%{transform:translate(720px,48px)}53.44%{transform:translate(720px,32px)}53.72%{transform:translate(704px,32px)}53.99%{transform:translate(704px,48px)}55.65%{transform:translate(752px,96px)}55.92%,81.27%{transform:translate(768px,96px)}56.2%{transform:translate(768px,112px)}58.13%{transform:translate(752px,16px)}65.01%{transform:translate(352px,16px)}65.29%{transform:translate(352px,32px)}68.32%{transform:translate(176px,32px)}68.6%{transform:translate(176px,48px)}69.42%,96.97%{transform:translate(128px,48px)}70.25%{transform:translate(128px,96px)}82.37%{transform:translate(768px,32px)}83.2%{transform:translate(784px,0px)}84.02%{transform:translate(784px,16px)}85.12%{transform:translate(784px,80px)}95.87%{transform:translate(160px,80px)}96.14%{transform:translate(160px,64px)}97.25%{transform:translate(112px,48px)}97.8%{transform:translate(96px,32px)}98.62%{transform:translate(96px,-16px)}}.s.s2{transform:translate(32px,-16px);animation-name:s2}@keyframes s3{0%,99.72%{transform:translate(48px,-16px)}0.83%{transform:translate(0px,-16px)}1.1%{transform:translate(0px,0px)}3.58%{transform:translate(144px,0px)}3.86%{transform:translate(144px,16px)}4.41%{transform:translate(176px,16px)}4.68%{transform:translate(176px,0px)}4.96%{transform:translate(192px,0px)}6.06%{transform:translate(192px,64px)}7.16%,96.97%{transform:translate(128px,64px)}7.44%{transform:translate(128px,80px)}7.71%,11.57%{transform:translate(112px,80px)}8.54%,97.8%{transform:translate(112px,32px)}9.37%{transform:translate(64px,32px)}10.47%{transform:translate(64px,96px)}11.29%{transform:translate(112px,96px)}13.5%{transform:translate(224px,80px)}13.77%{transform:translate(224px,64px)}15.7%{transform:translate(336px,64px)}15.98%{transform:translate(336px,48px)}16.53%{transform:translate(368px,48px)}17.08%{transform:translate(368px,80px)}18.18%{transform:translate(432px,80px)}19.56%{transform:translate(432px,0px)}19.83%{transform:translate(416px,0px)}20.11%{transform:translate(416px,16px)}21.49%{transform:translate(496px,16px)}21.76%{transform:translate(496px,32px)}22.04%{transform:translate(512px,32px)}22.59%{transform:translate(512px,64px)}23.42%{transform:translate(464px,64px)}23.97%{transform:translate(464px,96px)}26.17%{transform:translate(592px,96px)}26.72%{transform:translate(592px,64px)}27%{transform:translate(576px,64px)}28.1%{transform:translate(576px,0px)}29.2%{transform:translate(512px,0px)}29.48%{transform:translate(512px,-16px)}32.51%{transform:translate(688px,-16px)}33.06%{transform:translate(688px,16px)}35.54%{transform:translate(832px,16px)}35.81%{transform:translate(832px,0px)}36.36%,83.75%{transform:translate(800px,0px)}36.91%,38.57%{transform:translate(800px,32px)}37.19%{transform:translate(816px,32px)}37.47%{transform:translate(816px,48px)}38.02%{transform:translate(784px,48px)}38.29%,82.92%{transform:translate(784px,32px)}39.12%{transform:translate(800px,64px)}39.39%,41.05%{transform:translate(816px,64px)}39.67%{transform:translate(816px,80px)}39.94%{transform:translate(800px,80px)}40.22%,48.48%{transform:translate(800px,96px)}40.5%{transform:translate(816px,96px)}42.15%{transform:translate(752px,64px)}42.7%{transform:translate(752px,32px)}42.98%{transform:translate(736px,32px)}43.25%,53.17%{transform:translate(736px,48px)}43.53%,51.79%,55.1%{transform:translate(752px,48px)}44.08%,46.83%{transform:translate(752px,80px)}44.63%{transform:translate(720px,80px)}44.9%{transform:translate(720px,64px)}45.45%{transform:translate(688px,64px)}45.73%{transform:translate(688px,80px)}47.38%,56.75%{transform:translate(752px,112px)}47.93%{transform:translate(784px,112px)}48.21%{transform:translate(784px,96px)}49.86%,84.02%{transform:translate(800px,16px)}50.41%{transform:translate(768px,16px)}50.69%{transform:translate(768px,0px)}50.96%{transform:translate(752px,0px)}52.07%{transform:translate(768px,48px)}52.34%{transform:translate(768px,64px)}52.89%{transform:translate(736px,64px)}53.44%{transform:translate(720px,48px)}53.72%{transform:translate(720px,32px)}53.99%{transform:translate(704px,32px)}54.27%{transform:translate(704px,48px)}55.92%{transform:translate(752px,96px)}56.2%,81.54%{transform:translate(768px,96px)}56.47%{transform:translate(768px,112px)}58.4%{transform:translate(752px,16px)}65.29%{transform:translate(352px,16px)}65.56%{transform:translate(352px,32px)}68.6%{transform:translate(176px,32px)}68.87%{transform:translate(176px,48px)}69.7%,97.25%{transform:translate(128px,48px)}70.52%{transform:translate(128px,96px)}82.64%{transform:translate(768px,32px)}83.47%{transform:translate(784px,0px)}84.3%{transform:translate(784px,16px)}85.4%{transform:translate(784px,80px)}96.14%{transform:translate(160px,80px)}96.42%{transform:translate(160px,64px)}97.52%{transform:translate(112px,48px)}98.07%{transform:translate(96px,32px)}98.9%{transform:translate(96px,-16px)}}.s.s3{transform:translate(48px,-16px);animation-name:s3}</style><rect class="c" x="2" y="2" rx="2" ry="2"/><rect class="c" x="2" y="18" rx="2" ry="2"/><rect class="c" x="2" y="34" rx="2" ry="2"/><rect class="c" x="2" y="50" rx="2" ry="2"/><rect class="c" x="2" y="66" rx="2" ry="2"/><rect class="c" x="2" y="82" rx="2" ry="2"/><rect class="c" x="2" y="98" rx="2" ry="2"/><rect class="c" x="18" y="2" rx="2" ry="2"/><rect class="c" x="18" y="18" rx="2" ry="2"/><rect class="c" x="18" y="34" rx="2" ry="2"/><rect class="c" x="18" y="50" rx="2" ry="2"/><rect class="c" x="18" y="66" rx="2" ry="2"/><rect class="c" x="18" y="82" rx="2" ry="2"/><rect class="c" x="18" y="98" rx="2" ry="2"/><rect class="c" x="34" y="2" rx="2" ry="2"/><rect class="c" x="34" y="18" rx="2" ry="2"/><rect class="c" x="34" y="34" rx="2" ry="2"/><rect class="c" x="34" y="50" rx="2" ry="2"/><rect class="c" x="34" y="66" rx="2" ry="2"/><rect class="c" x="34" y="82" rx="2" ry="2"/><rect class="c" x="34" y="98" rx="2" ry="2"/><rect class="c" x="50" y="2" rx="2" ry="2"/><rect class="c" x="50" y="18" rx="2" ry="2"/><rect class="c" x="50" y="34" rx="2" ry="2"/><rect class="c" x="50" y="50" rx="2" ry="2"/><rect class="c" x="50" y="66" rx="2" ry="2"/><rect class="c" x="50" y="82" rx="2" ry="2"/><rect class="c" x="50" y="98" rx="2" ry="2"/><rect class="c" x="66" y="2" rx="2" ry="2"/><rect class="c" x="66" y="18" rx="2" ry="2"/><rect class="c" x="66" y="34" rx="2" ry="2"/><rect class="c" x="66" y="50" rx="2" ry="2"/><rect class="c" x="66" y="66" rx="2" ry="2"/><rect class="c" x="66" y="82" rx="2" ry="2"/><rect class="c c0" x="66" y="98" rx="2" ry="2"/><rect class="c" x="82" y="2" rx="2" ry="2"/><rect class="c" x="82" y="18" rx="2" ry="2"/><rect class="c" x="82" y="34" rx="2" ry="2"/><rect class="c" x="82" y="50" rx="2" ry="2"/><rect class="c" x="82" y="66" rx="2" ry="2"/><rect class="c" x="82" y="82" rx="2" ry="2"/><rect class="c" x="82" y="98" rx="2" ry="2"/><rect class="c" x="98" y="2" rx="2" ry="2"/><rect class="c" x="98" y="18" rx="2" ry="2"/><rect class="c" x="98" y="34" rx="2" ry="2"/><rect class="c" x="98" y="50" rx="2" ry="2"/><rect class="c" x="98" y="66" rx="2" ry="2"/><rect class="c" x="98" y="82" rx="2" ry="2"/><rect class="c" x="98" y="98" rx="2" ry="2"/><rect class="c c1" x="114" y="2" rx="2" ry="2"/><rect class="c" x="114" y="18" rx="2" ry="2"/><rect class="c c2" x="114" y="34" rx="2" ry="2"/><rect class="c" x="114" y="50" rx="2" ry="2"/><rect class="c" x="114" y="66" rx="2" ry="2"/><rect class="c" x="114" y="82" rx="2" ry="2"/><rect class="c" x="114" y="98" rx="2" ry="2"/><rect class="c" x="130" y="2" rx="2" ry="2"/><rect class="c" x="130" y="18" rx="2" ry="2"/><rect class="c" x="130" y="34" rx="2" ry="2"/><rect class="c" x="130" y="50" rx="2" ry="2"/><rect class="c" x="130" y="66" rx="2" ry="2"/><rect class="c c3" x="130" y="82" rx="2" ry="2"/><rect class="c c4" x="130" y="98" rx="2" ry="2"/><rect class="c c5" x="146" y="2" rx="2" ry="2"/><rect class="c c6" x="146" y="18" rx="2" ry="2"/><rect class="c" x="146" y="34" rx="2" ry="2"/><rect class="c" x="146" y="50" rx="2" ry="2"/><rect class="c" x="146" y="66" rx="2" ry="2"/><rect class="c" x="146" y="82" rx="2" ry="2"/><rect class="c" x="146" y="98" rx="2" ry="2"/><rect class="c" x="162" y="2" rx="2" ry="2"/><rect class="c" x="162" y="18" rx="2" ry="2"/><rect class="c" x="162" y="34" rx="2" ry="2"/><rect class="c" x="162" y="50" rx="2" ry="2"/><rect class="c" x="162" y="66" rx="2" ry="2"/><rect class="c" x="162" y="82" rx="2" ry="2"/><rect class="c" x="162" y="98" rx="2" ry="2"/><rect class="c c7" x="178" y="2" rx="2" ry="2"/><rect class="c c8" x="178" y="18" rx="2" ry="2"/><rect class="c" x="178" y="34" rx="2" ry="2"/><rect class="c c9" x="178" y="50" rx="2" ry="2"/><rect class="c ca" x="178" y="66" rx="2" ry="2"/><rect class="c" x="178" y="82" rx="2" ry="2"/><rect class="c" x="178" y="98" rx="2" ry="2"/><rect class="c" x="194" y="2" rx="2" ry="2"/><rect class="c" x="194" y="18" rx="2" ry="2"/><rect class="c" x="194" y="34" rx="2" ry="2"/><rect class="c" x="194" y="50" rx="2" ry="2"/><rect class="c" x="194" y="66" rx="2" ry="2"/><rect class="c" x="194" y="82" rx="2" ry="2"/><rect class="c" x="194" y="98" rx="2" ry="2"/><rect class="c" x="210" y="2" rx="2" ry="2"/><rect class="c" x="210" y="18" rx="2" ry="2"/><rect class="c" x="210" y="34" rx="2" ry="2"/><rect class="c" x="210" y="50" rx="2" ry="2"/><rect class="c" x="210" y="66" rx="2" ry="2"/><rect class="c" x="210" y="82" rx="2" ry="2"/><rect class="c" x="210" y="98" rx="2" ry="2"/><rect class="c" x="226" y="2" rx="2" ry="2"/><rect class="c" x="226" y="18" rx="2" ry="2"/><rect class="c" x="226" y="34" rx="2" ry="2"/><rect class="c" x="226" y="50" rx="2" ry="2"/><rect class="c cb" x="226" y="66" rx="2" ry="2"/><rect class="c cc" x="226" y="82" rx="2" ry="2"/><rect class="c" x="226" y="98" rx="2" ry="2"/><rect class="c" x="242" y="2" rx="2" ry="2"/><rect class="c" x="242" y="18" rx="2" ry="2"/><rect class="c" x="242" y="34" rx="2" ry="2"/><rect class="c" x="242" y="50" rx="2" ry="2"/><rect class="c" x="242" y="66" rx="2" ry="2"/><rect class="c" x="242" y="82" rx="2" ry="2"/><rect class="c" x="242" y="98" rx="2" ry="2"/><rect class="c" x="258" y="2" rx="2" ry="2"/><rect class="c" x="258" y="18" rx="2" ry="2"/><rect class="c" x="258" y="34" rx="2" ry="2"/><rect class="c" x="258" y="50" rx="2" ry="2"/><rect class="c" x="258" y="66" rx="2" ry="2"/><rect class="c" x="258" y="82" rx="2" ry="2"/><rect class="c" x="258" y="98" rx="2" ry="2"/><rect class="c" x="274" y="2" rx="2" ry="2"/><rect class="c" x="274" y="18" rx="2" ry="2"/><rect class="c" x="274" y="34" rx="2" ry="2"/><rect class="c" x="274" y="50" rx="2" ry="2"/><rect class="c" x="274" y="66" rx="2" ry="2"/><rect class="c" x="274" y="82" rx="2" ry="2"/><rect class="c" x="274" y="98" rx="2" ry="2"/><rect class="c" x="290" y="2" rx="2" ry="2"/><rect class="c" x="290" y="18" rx="2" ry="2"/><rect class="c" x="290" y="34" rx="2" ry="2"/><rect class="c" x="290" y="50" rx="2" ry="2"/><rect class="c" x="290" y="66" rx="2" ry="2"/><rect class="c" x="290" y="82" rx="2" ry="2"/><rect class="c" x="290" y="98" rx="2" ry="2"/><rect class="c" x="306" y="2" rx="2" ry="2"/><rect class="c" x="306" y="18" rx="2" ry="2"/><rect class="c" x="306" y="34" rx="2" ry="2"/><rect class="c" x="306" y="50" rx="2" ry="2"/><rect class="c" x="306" y="66" rx="2" ry="2"/><rect class="c" x="306" y="82" rx="2" ry="2"/><rect class="c" x="306" y="98" rx="2" ry="2"/><rect class="c" x="322" y="2" rx="2" ry="2"/><rect class="c" x="322" y="18" rx="2" ry="2"/><rect class="c" x="322" y="34" rx="2" ry="2"/><rect class="c" x="322" y="50" rx="2" ry="2"/><rect class="c" x="322" y="66" rx="2" ry="2"/><rect class="c" x="322" y="82" rx="2" ry="2"/><rect class="c" x="322" y="98" rx="2" ry="2"/><rect class="c" x="338" y="2" rx="2" ry="2"/><rect class="c" x="338" y="18" rx="2" ry="2"/><rect class="c" x="338" y="34" rx="2" ry="2"/><rect class="c cd" x="338" y="50" rx="2" ry="2"/><rect class="c" x="338" y="66" rx="2" ry="2"/><rect class="c" x="338" y="82" rx="2" ry="2"/><rect class="c" x="338" y="98" rx="2" ry="2"/><rect class="c" x="354" y="2" rx="2" ry="2"/><rect class="c" x="354" y="18" rx="2" ry="2"/><rect class="c ce" x="354" y="34" rx="2" ry="2"/><rect class="c cf" x="354" y="50" rx="2" ry="2"/><rect class="c" x="354" y="66" rx="2" ry="2"/><rect class="c" x="354" y="82" rx="2" ry="2"/><rect class="c" x="354" y="98" rx="2" ry="2"/><rect class="c" x="370" y="2" rx="2" ry="2"/><rect class="c" x="370" y="18" rx="2" ry="2"/><rect class="c" x="370" y="34" rx="2" ry="2"/><rect class="c" x="370" y="50" rx="2" ry="2"/><rect class="c" x="370" y="66" rx="2" ry="2"/><rect class="c cg" x="370" y="82" rx="2" ry="2"/><rect class="c" x="370" y="98" rx="2" ry="2"/><rect class="c" x="386" y="2" rx="2" ry="2"/><rect class="c" x="386" y="18" rx="2" ry="2"/><rect class="c" x="386" y="34" rx="2" ry="2"/><rect class="c" x="386" y="50" rx="2" ry="2"/><rect class="c" x="386" y="66" rx="2" ry="2"/><rect class="c" x="386" y="82" rx="2" ry="2"/><rect class="c" x="386" y="98" rx="2" ry="2"/><rect class="c" x="402" y="2" rx="2" ry="2"/><rect class="c" x="402" y="18" rx="2" ry="2"/><rect class="c" x="402" y="34" rx="2" ry="2"/><rect class="c" x="402" y="50" rx="2" ry="2"/><rect class="c" x="402" y="66" rx="2" ry="2"/><rect class="c ch" x="402" y="82" rx="2" ry="2"/><rect class="c" x="402" y="98" rx="2" ry="2"/><rect class="c ci" x="418" y="2" rx="2" ry="2"/><rect class="c" x="418" y="18" rx="2" ry="2"/><rect class="c" x="418" y="34" rx="2" ry="2"/><rect class="c" x="418" y="50" rx="2" ry="2"/><rect class="c" x="418" y="66" rx="2" ry="2"/><rect class="c cj" x="418" y="82" rx="2" ry="2"/><rect class="c" x="418" y="98" rx="2" ry="2"/><rect class="c ck" x="434" y="2" rx="2" ry="2"/><rect class="c cl" x="434" y="18" rx="2" ry="2"/><rect class="c" x="434" y="34" rx="2" ry="2"/><rect class="c cm" x="434" y="50" rx="2" ry="2"/><rect class="c" x="434" y="66" rx="2" ry="2"/><rect class="c" x="434" y="82" rx="2" ry="2"/><rect class="c" x="434" y="98" rx="2" ry="2"/><rect class="c" x="450" y="2" rx="2" ry="2"/><rect class="c" x="450" y="18" rx="2" ry="2"/><rect class="c" x="450" y="34" rx="2" ry="2"/><rect class="c" x="450" y="50" rx="2" ry="2"/><rect class="c" x="450" y="66" rx="2" ry="2"/><rect class="c" x="450" y="82" rx="2" ry="2"/><rect class="c" x="450" y="98" rx="2" ry="2"/><rect class="c" x="466" y="2" rx="2" ry="2"/><rect class="c" x="466" y="18" rx="2" ry="2"/><rect class="c" x="466" y="34" rx="2" ry="2"/><rect class="c" x="466" y="50" rx="2" ry="2"/><rect class="c cn" x="466" y="66" rx="2" ry="2"/><rect class="c" x="466" y="82" rx="2" ry="2"/><rect class="c co" x="466" y="98" rx="2" ry="2"/><rect class="c" x="482" y="2" rx="2" ry="2"/><rect class="c" x="482" y="18" rx="2" ry="2"/><rect class="c" x="482" y="34" rx="2" ry="2"/><rect class="c" x="482" y="50" rx="2" ry="2"/><rect class="c cp" x="482" y="66" rx="2" ry="2"/><rect class="c" x="482" y="82" rx="2" ry="2"/><rect class="c" x="482" y="98" rx="2" ry="2"/><rect class="c" x="498" y="2" rx="2" ry="2"/><rect class="c" x="498" y="18" rx="2" ry="2"/><rect class="c cq" x="498" y="34" rx="2" ry="2"/><rect class="c" x="498" y="50" rx="2" ry="2"/><rect class="c" x="498" y="66" rx="2" ry="2"/><rect class="c" x="498" y="82" rx="2" ry="2"/><rect class="c" x="498" y="98" rx="2" ry="2"/><rect class="c cr" x="514" y="2" rx="2" ry="2"/><rect class="c cs" x="514" y="18" rx="2" ry="2"/><rect class="c" x="514" y="34" rx="2" ry="2"/><rect class="c" x="514" y="50" rx="2" ry="2"/><rect class="c ct" x="514" y="66" rx="2" ry="2"/><rect class="c" x="514" y="82" rx="2" ry="2"/><rect class="c" x="514" y="98" rx="2" ry="2"/><rect class="c" x="530" y="2" rx="2" ry="2"/><rect class="c" x="530" y="18" rx="2" ry="2"/><rect class="c" x="530" y="34" rx="2" ry="2"/><rect class="c" x="530" y="50" rx="2" ry="2"/><rect class="c" x="530" y="66" rx="2" ry="2"/><rect class="c" x="530" y="82" rx="2" ry="2"/><rect class="c" x="530" y="98" rx="2" ry="2"/><rect class="c" x="546" y="2" rx="2" ry="2"/><rect class="c" x="546" y="18" rx="2" ry="2"/><rect class="c" x="546" y="34" rx="2" ry="2"/><rect class="c" x="546" y="50" rx="2" ry="2"/><rect class="c" x="546" y="66" rx="2" ry="2"/><rect class="c" x="546" y="82" rx="2" ry="2"/><rect class="c" x="546" y="98" rx="2" ry="2"/><rect class="c" x="562" y="2" rx="2" ry="2"/><rect class="c" x="562" y="18" rx="2" ry="2"/><rect class="c" x="562" y="34" rx="2" ry="2"/><rect class="c" x="562" y="50" rx="2" ry="2"/><rect class="c" x="562" y="66" rx="2" ry="2"/><rect class="c" x="562" y="82" rx="2" ry="2"/><rect class="c" x="562" y="98" rx="2" ry="2"/><rect class="c" x="578" y="2" rx="2" ry="2"/><rect class="c" x="578" y="18" rx="2" ry="2"/><rect class="c" x="578" y="34" rx="2" ry="2"/><rect class="c" x="578" y="50" rx="2" ry="2"/><rect class="c cu" x="578" y="66" rx="2" ry="2"/><rect class="c" x="578" y="82" rx="2" ry="2"/><rect class="c" x="578" y="98" rx="2" ry="2"/><rect class="c" x="594" y="2" rx="2" ry="2"/><rect class="c" x="594" y="18" rx="2" ry="2"/><rect class="c" x="594" y="34" rx="2" ry="2"/><rect class="c" x="594" y="50" rx="2" ry="2"/><rect class="c" x="594" y="66" rx="2" ry="2"/><rect class="c cv" x="594" y="82" rx="2" ry="2"/><rect class="c" x="594" y="98" rx="2" ry="2"/><rect class="c" x="610" y="2" rx="2" ry="2"/><rect class="c" x="610" y="18" rx="2" ry="2"/><rect class="c" x="610" y="34" rx="2" ry="2"/><rect class="c" x="610" y="50" rx="2" ry="2"/><rect class="c" x="610" y="66" rx="2" ry="2"/><rect class="c" x="610" y="82" rx="2" ry="2"/><rect class="c" x="610" y="98" rx="2" ry="2"/><rect class="c" x="626" y="2" rx="2" ry="2"/><rect class="c" x="626" y="18" rx="2" ry="2"/><rect class="c" x="626" y="34" rx="2" ry="2"/><rect class="c" x="626" y="50" rx="2" ry="2"/><rect class="c" x="626" y="66" rx="2" ry="2"/><rect class="c" x="626" y="82" rx="2" ry="2"/><rect class="c" x="626" y="98" rx="2" ry="2"/><rect class="c" x="642" y="2" rx="2" ry="2"/><rect class="c" x="642" y="18" rx="2" ry="2"/><rect class="c" x="642" y="34" rx="2" ry="2"/><rect class="c" x="642" y="50" rx="2" ry="2"/><rect class="c" x="642" y="66" rx="2" ry="2"/><rect class="c" x="642" y="82" rx="2" ry="2"/><rect class="c" x="642" y="98" rx="2" ry="2"/><rect class="c" x="658" y="2" rx="2" ry="2"/><rect class="c" x="658" y="18" rx="2" ry="2"/><rect class="c" x="658" y="34" rx="2" ry="2"/><rect class="c" x="658" y="50" rx="2" ry="2"/><rect class="c" x="658" y="66" rx="2" ry="2"/><rect class="c" x="658" y="82" rx="2" ry="2"/><rect class="c" x="658" y="98" rx="2" ry="2"/><rect class="c" x="674" y="2" rx="2" ry="2"/><rect class="c" x="674" y="18" rx="2" ry="2"/><rect class="c" x="674" y="34" rx="2" ry="2"/><rect class="c" x="674" y="50" rx="2" ry="2"/><rect class="c" x="674" y="66" rx="2" ry="2"/><rect class="c" x="674" y="82" rx="2" ry="2"/><rect class="c" x="674" y="98" rx="2" ry="2"/><rect class="c" x="690" y="2" rx="2" ry="2"/><rect class="c cw" x="690" y="18" rx="2" ry="2"/><rect class="c" x="690" y="34" rx="2" ry="2"/><rect class="c" x="690" y="50" rx="2" ry="2"/><rect class="c cx" x="690" y="66" rx="2" ry="2"/><rect class="c cy" x="690" y="82" rx="2" ry="2"/><rect class="c" x="690" y="98" rx="2" ry="2"/><rect class="c" x="706" y="2" rx="2" ry="2"/><rect class="c cz" x="706" y="18" rx="2" ry="2"/><rect class="c c10" x="706" y="34" rx="2" ry="2"/><rect class="c" x="706" y="50" rx="2" ry="2"/><rect class="c" x="706" y="66" rx="2" ry="2"/><rect class="c" x="706" y="82" rx="2" ry="2"/><rect class="c" x="706" y="98" rx="2" ry="2"/><rect class="c" x="722" y="2" rx="2" ry="2"/><rect class="c c11" x="722" y="18" rx="2" ry="2"/><rect class="c" x="722" y="34" rx="2" ry="2"/><rect class="c c12" x="722" y="50" rx="2" ry="2"/><rect class="c c13" x="722" y="66" rx="2" ry="2"/><rect class="c" x="722" y="82" rx="2" ry="2"/><rect class="c" x="722" y="98" rx="2" ry="2"/><rect class="c" x="738" y="2" rx="2" ry="2"/><rect class="c" x="738" y="18" rx="2" ry="2"/><rect class="c c14" x="738" y="34" rx="2" ry="2"/><rect class="c c15" x="738" y="50" rx="2" ry="2"/><rect class="c c16" x="738" y="66" rx="2" ry="2"/><rect class="c c17" x="738" y="82" rx="2" ry="2"/><rect class="c" x="738" y="98" rx="2" ry="2"/><rect class="c" x="754" y="2" rx="2" ry="2"/><rect class="c c18" x="754" y="18" rx="2" ry="2"/><rect class="c c19" x="754" y="34" rx="2" ry="2"/><rect class="c c1a" x="754" y="50" rx="2" ry="2"/><rect class="c" x="754" y="66" rx="2" ry="2"/><rect class="c c1b" x="754" y="82" rx="2" ry="2"/><rect class="c" x="754" y="98" rx="2" ry="2"/><rect class="c c1c" x="770" y="2" rx="2" ry="2"/><rect class="c c1d" x="770" y="18" rx="2" ry="2"/><rect class="c c1e" x="770" y="34" rx="2" ry="2"/><rect class="c c1f" x="770" y="50" rx="2" ry="2"/><rect class="c c1g" x="770" y="66" rx="2" ry="2"/><rect class="c c1h" x="770" y="82" rx="2" ry="2"/><rect class="c c1i" x="770" y="98" rx="2" ry="2"/><rect class="c c1j" x="786" y="2" rx="2" ry="2"/><rect class="c c1k" x="786" y="18" rx="2" ry="2"/><rect class="c c1l" x="786" y="34" rx="2" ry="2"/><rect class="c c1m" x="786" y="50" rx="2" ry="2"/><rect class="c c1n" x="786" y="66" rx="2" ry="2"/><rect class="c c1o" x="786" y="82" rx="2" ry="2"/><rect class="c c1p" x="786" y="98" rx="2" ry="2"/><rect class="c c1q" x="802" y="2" rx="2" ry="2"/><rect class="c c1r" x="802" y="18" rx="2" ry="2"/><rect class="c c1s" x="802" y="34" rx="2" ry="2"/><rect class="c c1t" x="802" y="50" rx="2" ry="2"/><rect class="c c1u" x="802" y="66" rx="2" ry="2"/><rect class="c c1v" x="802" y="82" rx="2" ry="2"/><rect class="c c1w" x="802" y="98" rx="2" ry="2"/><rect class="c c1x" x="818" y="2" rx="2" ry="2"/><rect class="c c1y" x="818" y="18" rx="2" ry="2"/><rect class="c c1z" x="818" y="34" rx="2" ry="2"/><rect class="c c20" x="818" y="50" rx="2" ry="2"/><rect class="c c21" x="818" y="66" rx="2" ry="2"/><rect class="c c22" x="818" y="82" rx="2" ry="2"/><rect class="c c23" x="818" y="98" rx="2" ry="2"/><rect class="c c24" x="834" y="2" rx="2" ry="2"/><rect class="c c25" x="834" y="18" rx="2" ry="2"/><rect class="u u0" height="12" width="707.3" x="0.0" y="144"/><rect class="u u1" height="12" width="98.4" x="706.7" y="144"/><rect class="u u2" height="12" width="22.3" x="804.5" y="144"/><rect class="u u3" height="12" width="22.3" x="826.3" y="144"/><rect class="s s0" x="0.8" y="0.8" width="14.4" height="14.4" rx="4.5" ry="4.5"/><rect class="s s1" x="1.8" y="1.8" width="12.3" height="12.3" rx="4.1" ry="4.1"/><rect class="s s2" x="2.6" y="2.6" width="10.8" height="10.8" rx="3.6" ry="3.6"/><rect class="s s3" x="3.0" y="3.0" width="9.9" height="9.9" rx="3.3" ry="3.3"/></svg>