<svg viewBox="-16 -32 880 192" width="880" height="192" xmlns="http://www.w3.org/2000/svg"><desc>Generated with https://github.com/Platane/snk</desc><style>:root{--cb:#1b1f230a;--cs:white;--ce:#0a0e12;--c0:#0a0e12;--c1:#1445a2;--c2:#1d65ee;--c3:#1f4eff;--c4:#466dff}.c{shape-rendering:geometricPrecision;fill:var(--ce);stroke-width:1px;stroke:var(--cb);animation:none 38100ms linear infinite;width:12px;height:12px}@keyframes c0{8.39%{fill:var(--c1)}8.41%,100%{fill:var(--ce)}}.c.c0{fill:var(--c1);animation-name:c0}@keyframes c1{1.3%{fill:var(--c1)}1.32%,100%{fill:var(--ce)}}.c.c1{fill:var(--c1);animation-name:c1}@keyframes c2{6.55%{fill:var(--c1)}6.57%,100%{fill:var(--ce)}}.c.c2{fill:var(--c1);animation-name:c2}@keyframes c3{5.5%{fill:var(--c1)}5.52%,100%{fill:var(--ce)}}.c.c3{fill:var(--c1);animation-name:c3}@keyframes c4{71.91%{fill:var(--c2)}71.93%,100%{fill:var(--ce)}}.c.c4{fill:var(--c2);animation-name:c4}@keyframes c5{1.83%{fill:var(--c1)}1.85%,100%{fill:var(--ce)}}.c.c5{fill:var(--c1);animation-name:c5}@keyframes c6{2.09%{fill:var(--c1)}2.11%,100%{fill:var(--ce)}}.c.c6{fill:var(--c1);animation-name:c6}@keyframes c7{2.88%{fill:var(--c1)}2.9%,100%{fill:var(--ce)}}.c.c7{fill:var(--c1);animation-name:c7}@keyframes c8{2.61%{fill:var(--c1)}2.63%,100%{fill:var(--ce)}}.c.c8{fill:var(--c1);animation-name:c8}@keyframes c9{70.33%{fill:var(--c2)}70.35%,100%{fill:var(--ce)}}.c.c9{fill:var(--c2);animation-name:c9}@keyframes ca{4.45%{fill:var(--c1)}4.47%,100%{fill:var(--ce)}}.c.ca{fill:var(--c1);animation-name:ca}@keyframes cb{11.54%{fill:var(--c1)}11.56%,100%{fill:var(--ce)}}.c.cb{fill:var(--c1);animation-name:cb}@keyframes cc{11.28%{fill:var(--c1)}11.3%,100%{fill:var(--ce)}}.c.cc{fill:var(--c1);animation-name:cc}@keyframes cd{13.64%{fill:var(--c1)}13.66%,100%{fill:var(--ce)}}.c.cd{fill:var(--c1);animation-name:cd}@keyframes ce{67.18%{fill:var(--c2)}67.2%,100%{fill:var(--ce)}}.c.ce{fill:var(--c2);animation-name:ce}@keyframes cf{13.9%{fill:var(--c1)}13.92%,100%{fill:var(--ce)}}.c.cf{fill:var(--c1);animation-name:cf}@keyframes cg{14.69%{fill:var(--c1)}14.71%,100%{fill:var(--ce)}}.c.cg{fill:var(--c1);animation-name:cg}@keyframes ch{15.21%{fill:var(--c1)}15.23%,100%{fill:var(--ce)}}.c.ch{fill:var(--c1);animation-name:ch}@keyframes ci{17.31%{fill:var(--c1)}17.33%,100%{fill:var(--ce)}}.c.ci{fill:var(--c1);animation-name:ci}@keyframes cj{15.48%{fill:var(--c1)}15.5%,100%{fill:var(--ce)}}.c.cj{fill:var(--c1);animation-name:cj}@keyframes ck{17.05%{fill:var(--c1)}17.07%,100%{fill:var(--ce)}}.c.ck{fill:var(--c1);animation-name:ck}@keyframes cl{16.79%{fill:var(--c1)}16.81%,100%{fill:var(--ce)}}.c.cl{fill:var(--c1);animation-name:cl}@keyframes cm{16.26%{fill:var(--c1)}16.28%,100%{fill:var(--ce)}}.c.cm{fill:var(--c1);animation-name:cm}@keyframes cn{20.72%{fill:var(--c1)}20.74%,100%{fill:var(--ce)}}.c.cn{fill:var(--c1);animation-name:cn}@keyframes co{21.25%{fill:var(--c1)}21.27%,100%{fill:var(--ce)}}.c.co{fill:var(--c1);animation-name:co}@keyframes cp{20.46%{fill:var(--c1)}20.48%,100%{fill:var(--ce)}}.c.cp{fill:var(--c1);animation-name:cp}@keyframes cq{19.15%{fill:var(--c1)}19.17%,100%{fill:var(--ce)}}.c.cq{fill:var(--c1);animation-name:cq}@keyframes cr{26.24%{fill:var(--c1)}26.26%,100%{fill:var(--ce)}}.c.cr{fill:var(--c1);animation-name:cr}@keyframes cs{64.29%{fill:var(--c2)}64.31%,100%{fill:var(--ce)}}.c.cs{fill:var(--c2);animation-name:cs}@keyframes ct{19.94%{fill:var(--c1)}19.96%,100%{fill:var(--ce)}}.c.ct{fill:var(--c1);animation-name:ct}@keyframes cu{24.14%{fill:var(--c1)}24.16%,100%{fill:var(--ce)}}.c.cu{fill:var(--c1);animation-name:cu}@keyframes cv{23.61%{fill:var(--c1)}23.63%,100%{fill:var(--ce)}}.c.cv{fill:var(--c1);animation-name:cv}@keyframes cw{29.91%{fill:var(--c1)}29.93%,100%{fill:var(--ce)}}.c.cw{fill:var(--c1);animation-name:cw}@keyframes cx{48.02%{fill:var(--c1)}48.04%,100%{fill:var(--ce)}}.c.cx{fill:var(--c1);animation-name:cx}@keyframes cy{48.28%{fill:var(--c1)}48.3%,100%{fill:var(--ce)}}.c.cy{fill:var(--c1);animation-name:cy}@keyframes cz{30.17%{fill:var(--c1)}30.19%,100%{fill:var(--ce)}}.c.cz{fill:var(--c1);animation-name:cz}@keyframes c10{56.16%{fill:var(--c2)}56.18%,100%{fill:var(--ce)}}.c.c10{fill:var(--c2);animation-name:c10}@keyframes c11{30.44%{fill:var(--c1)}30.46%,100%{fill:var(--ce)}}.c.c11{fill:var(--c1);animation-name:c11}@keyframes c12{55.63%{fill:var(--c2)}55.65%,100%{fill:var(--ce)}}.c.c12{fill:var(--c2);animation-name:c12}@keyframes c13{47.5%{fill:var(--c1)}47.52%,100%{fill:var(--ce)}}.c.c13{fill:var(--c1);animation-name:c13}@keyframes c14{45.66%{fill:var(--c1)}45.68%,100%{fill:var(--ce)}}.c.c14{fill:var(--c1);animation-name:c14}@keyframes c15{45.92%{fill:var(--c1)}45.94%,100%{fill:var(--ce)}}.c.c15{fill:var(--c1);animation-name:c15}@keyframes c16{55.11%{fill:var(--c2)}55.13%,100%{fill:var(--ce)}}.c.c16{fill:var(--c2);animation-name:c16}@keyframes c17{46.97%{fill:var(--c1)}46.99%,100%{fill:var(--ce)}}.c.c17{fill:var(--c1);animation-name:c17}@keyframes c18{30.96%{fill:var(--c1)}30.98%,100%{fill:var(--ce)}}.c.c18{fill:var(--c1);animation-name:c18}@keyframes c19{45.4%{fill:var(--c1)}45.42%,100%{fill:var(--ce)}}.c.c19{fill:var(--c1);animation-name:c19}@keyframes c1a{45.13%{fill:var(--c1)}45.15%,100%{fill:var(--ce)}}.c.c1a{fill:var(--c1);animation-name:c1a}@keyframes c1b{46.71%{fill:var(--c1)}46.73%,100%{fill:var(--ce)}}.c.c1b{fill:var(--c1);animation-name:c1b}@keyframes c1c{53.01%{fill:var(--c1)}53.03%,100%{fill:var(--ce)}}.c.c1c{fill:var(--c1);animation-name:c1c}@keyframes c1d{31.22%{fill:var(--c1)}31.24%,100%{fill:var(--ce)}}.c.c1d{fill:var(--c1);animation-name:c1d}@keyframes c1e{83.45%{fill:var(--c3)}83.47%,100%{fill:var(--ce)}}.c.c1e{fill:var(--c3);animation-name:c1e}@keyframes c1f{54.32%{fill:var(--c2)}54.34%,100%{fill:var(--ce)}}.c.c1f{fill:var(--c2);animation-name:c1f}@keyframes c1g{44.61%{fill:var(--c1)}44.63%,100%{fill:var(--ce)}}.c.c1g{fill:var(--c1);animation-name:c1g}@keyframes c1h{82.67%{fill:var(--c3)}82.69%,100%{fill:var(--ce)}}.c.c1h{fill:var(--c3);animation-name:c1h}@keyframes c1i{58.26%{fill:var(--c2)}58.28%,100%{fill:var(--ce)}}.c.c1i{fill:var(--c2);animation-name:c1i}@keyframes c1j{84.24%{fill:var(--c4)}84.26%,100%{fill:var(--ce)}}.c.c1j{fill:var(--c4);animation-name:c1j}@keyframes c1k{31.49%{fill:var(--c1)}31.51%,100%{fill:var(--ce)}}.c.c1k{fill:var(--c1);animation-name:c1k}@keyframes c1l{38.05%{fill:var(--c1)}38.07%,100%{fill:var(--ce)}}.c.c1l{fill:var(--c1);animation-name:c1l}@keyframes c1m{37.79%{fill:var(--c1)}37.81%,100%{fill:var(--ce)}}.c.c1m{fill:var(--c1);animation-name:c1m}@keyframes c1n{44.35%{fill:var(--c1)}44.37%,100%{fill:var(--ce)}}.c.c1n{fill:var(--c1);animation-name:c1n}@keyframes c1o{86.08%{fill:var(--c4)}86.1%,100%{fill:var(--ce)}}.c.c1o{fill:var(--c4);animation-name:c1o}@keyframes c1p{50.65%{fill:var(--c1)}50.67%,100%{fill:var(--ce)}}.c.c1p{fill:var(--c1);animation-name:c1p}@keyframes c1q{34.64%{fill:var(--c1)}34.66%,100%{fill:var(--ce)}}.c.c1q{fill:var(--c1);animation-name:c1q}@keyframes c1r{31.75%{fill:var(--c1)}31.77%,100%{fill:var(--ce)}}.c.c1r{fill:var(--c1);animation-name:c1r}@keyframes c1s{35.16%{fill:var(--c1)}35.18%,100%{fill:var(--ce)}}.c.c1s{fill:var(--c1);animation-name:c1s}@keyframes c1t{37.52%{fill:var(--c1)}37.54%,100%{fill:var(--ce)}}.c.c1t{fill:var(--c1);animation-name:c1t}@keyframes c1u{38.84%{fill:var(--c1)}38.86%,100%{fill:var(--ce)}}.c.c1u{fill:var(--c1);animation-name:c1u}@keyframes c1v{41.2%{fill:var(--c1)}41.22%,100%{fill:var(--ce)}}.c.c1v{fill:var(--c1);animation-name:c1v}@keyframes c1w{41.46%{fill:var(--c1)}41.48%,100%{fill:var(--ce)}}.c.c1w{fill:var(--c1);animation-name:c1w}@keyframes c1x{34.37%{fill:var(--c1)}34.39%,100%{fill:var(--ce)}}.c.c1x{fill:var(--c1);animation-name:c1x}@keyframes c1y{32.01%{fill:var(--c1)}32.03%,100%{fill:var(--ce)}}.c.c1y{fill:var(--c1);animation-name:c1y}@keyframes c1z{35.42%{fill:var(--c1)}35.44%,100%{fill:var(--ce)}}.c.c1z{fill:var(--c1);animation-name:c1z}@keyframes c20{37.26%{fill:var(--c1)}37.28%,100%{fill:var(--ce)}}.c.c20{fill:var(--c1);animation-name:c20}@keyframes c21{39.1%{fill:var(--c1)}39.12%,100%{fill:var(--ce)}}.c.c21{fill:var(--c1);animation-name:c21}@keyframes c22{40.93%{fill:var(--c1)}40.95%,100%{fill:var(--ce)}}.c.c22{fill:var(--c1);animation-name:c22}@keyframes c23{41.72%{fill:var(--c1)}41.74%,100%{fill:var(--ce)}}.c.c23{fill:var(--c1);animation-name:c23}@keyframes c24{34.11%{fill:var(--c1)}34.13%,100%{fill:var(--ce)}}.c.c24{fill:var(--c1);animation-name:c24}@keyframes c25{32.27%{fill:var(--c1)}32.29%,100%{fill:var(--ce)}}.c.c25{fill:var(--c1);animation-name:c25}@keyframes c26{35.69%{fill:var(--c1)}35.71%,100%{fill:var(--ce)}}.c.c26{fill:var(--c1);animation-name:c26}@keyframes c27{37%{fill:var(--c1)}37.02%,100%{fill:var(--ce)}}.c.c27{fill:var(--c1);animation-name:c27}@keyframes c28{39.36%{fill:var(--c1)}39.38%,100%{fill:var(--ce)}}.c.c28{fill:var(--c1);animation-name:c28}@keyframes c29{40.67%{fill:var(--c1)}40.69%,100%{fill:var(--ce)}}.c.c29{fill:var(--c1);animation-name:c29}@keyframes c2a{41.98%{fill:var(--c1)}42%,100%{fill:var(--ce)}}.c.c2a{fill:var(--c1);animation-name:c2a}@keyframes c2b{33.85%{fill:var(--c1)}33.87%,100%{fill:var(--ce)}}.c.c2b{fill:var(--c1);animation-name:c2b}@keyframes c2c{32.54%{fill:var(--c1)}32.56%,100%{fill:var(--ce)}}.c.c2c{fill:var(--c1);animation-name:c2c}@keyframes c2d{35.95%{fill:var(--c1)}35.97%,100%{fill:var(--ce)}}.c.c2d{fill:var(--c1);animation-name:c2d}@keyframes c2e{36.74%{fill:var(--c1)}36.76%,100%{fill:var(--ce)}}.c.c2e{fill:var(--c1);animation-name:c2e}@keyframes c2f{39.62%{fill:var(--c1)}39.64%,100%{fill:var(--ce)}}.c.c2f{fill:var(--c1);animation-name:c2f}@keyframes c2g{40.41%{fill:var(--c1)}40.43%,100%{fill:var(--ce)}}.c.c2g{fill:var(--c1);animation-name:c2g}@keyframes c2h{42.25%{fill:var(--c1)}42.27%,100%{fill:var(--ce)}}.c.c2h{fill:var(--c1);animation-name:c2h}@keyframes c2i{33.59%{fill:var(--c1)}33.61%,100%{fill:var(--ce)}}.c.c2i{fill:var(--c1);animation-name:c2i}@keyframes c2j{32.8%{fill:var(--c1)}32.82%,100%{fill:var(--ce)}}.c.c2j{fill:var(--c1);animation-name:c2j}@keyframes c2k{36.21%{fill:var(--c1)}36.23%,100%{fill:var(--ce)}}.c.c2k{fill:var(--c1);animation-name:c2k}@keyframes c2l{36.47%{fill:var(--c1)}36.49%,100%{fill:var(--ce)}}.c.c2l{fill:var(--c1);animation-name:c2l}@keyframes c2m{39.89%{fill:var(--c1)}39.91%,100%{fill:var(--ce)}}.c.c2m{fill:var(--c1);animation-name:c2m}@keyframes c2n{40.15%{fill:var(--c1)}40.17%,100%{fill:var(--ce)}}.c.c2n{fill:var(--c1);animation-name:c2n}@keyframes c2o{42.51%{fill:var(--c1)}42.53%,100%{fill:var(--ce)}}.c.c2o{fill:var(--c1);animation-name:c2o}@keyframes c2p{33.32%{fill:var(--c1)}33.34%,100%{fill:var(--ce)}}.c.c2p{fill:var(--c1);animation-name:c2p}@keyframes c2q{33.06%{fill:var(--c1)}33.08%,100%{fill:var(--ce)}}.c.c2q{fill:var(--c1);animation-name:c2q}.u{transform-origin:0 0;transform:scale(0,1);animation:none linear 38100ms infinite}@keyframes u0{1.3%{transform:scale(0.000,1)}1.32%,1.83%{transform:scale(0.012,1)}1.85%,2.09%{transform:scale(0.023,1)}2.11%,2.61%{transform:scale(0.035,1)}2.63%,2.88%{transform:scale(0.047,1)}2.9%,4.45%{transform:scale(0.058,1)}4.47%,5.5%{transform:scale(0.070,1)}5.52%,6.55%{transform:scale(0.081,1)}6.57%,8.39%{transform:scale(0.093,1)}8.41%,11.28%{transform:scale(0.105,1)}11.3%,11.54%{transform:scale(0.116,1)}11.56%,13.64%{transform:scale(0.128,1)}13.66%,13.9%{transform:scale(0.140,1)}13.92%,14.69%{transform:scale(0.151,1)}14.71%,15.21%{transform:scale(0.163,1)}15.23%,15.48%{transform:scale(0.174,1)}15.5%,16.26%{transform:scale(0.186,1)}16.28%,16.79%{transform:scale(0.198,1)}16.81%,17.05%{transform:scale(0.209,1)}17.07%,17.31%{transform:scale(0.221,1)}17.33%,19.15%{transform:scale(0.233,1)}19.17%,19.94%{transform:scale(0.244,1)}19.96%,20.46%{transform:scale(0.256,1)}20.48%,20.72%{transform:scale(0.267,1)}20.74%,21.25%{transform:scale(0.279,1)}21.27%,23.61%{transform:scale(0.291,1)}23.63%,24.14%{transform:scale(0.302,1)}24.16%,26.24%{transform:scale(0.314,1)}26.26%,29.91%{transform:scale(0.326,1)}29.93%,30.17%{transform:scale(0.337,1)}30.19%,30.44%{transform:scale(0.349,1)}30.46%,30.96%{transform:scale(0.360,1)}30.98%,31.22%{transform:scale(0.372,1)}31.24%,31.49%{transform:scale(0.384,1)}31.51%,31.75%{transform:scale(0.395,1)}31.77%,32.01%{transform:scale(0.407,1)}32.03%,32.27%{transform:scale(0.419,1)}32.29%,32.54%{transform:scale(0.430,1)}32.56%,32.8%{transform:scale(0.442,1)}32.82%,33.06%{transform:scale(0.453,1)}33.08%,33.32%{transform:scale(0.465,1)}33.34%,33.59%{transform:scale(0.477,1)}33.61%,33.85%{transform:scale(0.488,1)}33.87%,34.11%{transform:scale(0.500,1)}34.13%,34.37%{transform:scale(0.512,1)}34.39%,34.64%{transform:scale(0.523,1)}34.66%,35.16%{transform:scale(0.535,1)}35.18%,35.42%{transform:scale(0.547,1)}35.44%,35.69%{transform:scale(0.558,1)}35.71%,35.95%{transform:scale(0.570,1)}35.97%,36.21%{transform:scale(0.581,1)}36.23%,36.47%{transform:scale(0.593,1)}36.49%,36.74%{transform:scale(0.605,1)}36.76%,37%{transform:scale(0.616,1)}37.02%,37.26%{transform:scale(0.628,1)}37.28%,37.52%{transform:scale(0.640,1)}37.54%,37.79%{transform:scale(0.651,1)}37.81%,38.05%{transform:scale(0.663,1)}38.07%,38.84%{transform:scale(0.674,1)}38.86%,39.1%{transform:scale(0.686,1)}39.12%,39.36%{transform:scale(0.698,1)}39.38%,39.62%{transform:scale(0.709,1)}39.64%,39.89%{transform:scale(0.721,1)}39.91%,40.15%{transform:scale(0.733,1)}40.17%,40.41%{transform:scale(0.744,1)}40.43%,40.67%{transform:scale(0.756,1)}40.69%,40.93%{transform:scale(0.767,1)}40.95%,41.2%{transform:scale(0.779,1)}41.22%,41.46%{transform:scale(0.791,1)}41.48%,41.72%{transform:scale(0.802,1)}41.74%,41.98%{transform:scale(0.814,1)}42%,42.25%{transform:scale(0.826,1)}42.27%,42.51%{transform:scale(0.837,1)}42.53%,44.35%{transform:scale(0.849,1)}44.37%,44.61%{transform:scale(0.860,1)}44.63%,45.13%{transform:scale(0.872,1)}45.15%,45.4%{transform:scale(0.884,1)}45.42%,45.66%{transform:scale(0.895,1)}45.68%,45.92%{transform:scale(0.907,1)}45.94%,46.71%{transform:scale(0.919,1)}46.73%,46.97%{transform:scale(0.930,1)}46.99%,47.5%{transform:scale(0.942,1)}47.52%,48.02%{transform:scale(0.953,1)}48.04%,48.28%{transform:scale(0.965,1)}48.3%,50.65%{transform:scale(0.977,1)}50.67%,53.01%{transform:scale(0.988,1)}53.03%,100%{transform:scale(1.000,1)}}.u.u0{fill:var(--c1);animation-name:u0;transform-origin:0.0px 0}@keyframes u1{54.32%{transform:scale(0.000,1)}54.34%,55.11%{transform:scale(0.111,1)}55.13%,55.63%{transform:scale(0.222,1)}55.65%,56.16%{transform:scale(0.333,1)}56.18%,58.26%{transform:scale(0.444,1)}58.28%,64.29%{transform:scale(0.556,1)}64.31%,67.18%{transform:scale(0.667,1)}67.2%,70.33%{transform:scale(0.778,1)}70.35%,71.91%{transform:scale(0.889,1)}71.93%,100%{transform:scale(1.000,1)}}.u.u1{fill:var(--c2);animation-name:u1;transform-origin:736.6px 0}@keyframes u2{82.67%{transform:scale(0.000,1)}82.69%,83.45%{transform:scale(0.500,1)}83.47%,100%{transform:scale(1.000,1)}}.u.u2{fill:var(--c3);animation-name:u2;transform-origin:813.7px 0}@keyframes u3{84.24%{transform:scale(0.000,1)}84.26%,86.08%{transform:scale(0.500,1)}86.1%,100%{transform:scale(1.000,1)}}.u.u3{fill:var(--c4);animation-name:u3;transform-origin:830.9px 0}.s{shape-rendering:geometricPrecision;fill:var(--cs);animation:none linear 38100ms infinite}@keyframes s0{0%,99.74%{transform:translate(0px,-16px)}0.26%{transform:translate(0px,0px)}1.84%,97.9%{transform:translate(96px,0px)}2.1%{transform:translate(96px,16px)}2.62%{transform:translate(128px,16px)}2.89%{transform:translate(128px,0px)}3.15%{transform:translate(144px,0px)}4.2%{transform:translate(144px,64px)}5.25%{transform:translate(80px,64px)}5.51%{transform:translate(80px,80px)}5.77%,9.45%{transform:translate(64px,80px)}6.56%{transform:translate(64px,32px)}7.35%{transform:translate(16px,32px)}8.4%{transform:translate(16px,96px)}9.19%{transform:translate(64px,96px)}11.29%{transform:translate(176px,80px)}11.55%{transform:translate(176px,64px)}13.39%{transform:translate(288px,64px)}13.65%{transform:translate(288px,48px)}14.17%{transform:translate(320px,48px)}14.7%{transform:translate(320px,80px)}15.75%{transform:translate(384px,80px)}17.06%{transform:translate(384px,0px)}17.32%{transform:translate(368px,0px)}17.59%{transform:translate(368px,16px)}18.9%{transform:translate(448px,16px)}19.16%{transform:translate(448px,32px)}19.42%{transform:translate(464px,32px)}19.95%{transform:translate(464px,64px)}20.73%{transform:translate(416px,64px)}21.26%{transform:translate(416px,96px)}23.36%{transform:translate(544px,96px)}23.88%{transform:translate(544px,64px)}24.15%{transform:translate(528px,64px)}25.2%{transform:translate(528px,0px)}26.25%{transform:translate(464px,0px)}26.51%{transform:translate(464px,-16px)}29.4%{transform:translate(640px,-16px)}29.92%{transform:translate(640px,16px)}33.07%{transform:translate(832px,16px)}33.33%{transform:translate(832px,0px)}34.65%,84.51%{transform:translate(752px,0px)}35.17%,38.32%{transform:translate(752px,32px)}36.22%{transform:translate(816px,32px)}36.48%{transform:translate(816px,48px)}37.8%{transform:translate(736px,48px)}38.06%,83.73%{transform:translate(736px,32px)}38.85%{transform:translate(752px,64px)}39.9%,43.04%{transform:translate(816px,64px)}40.16%{transform:translate(816px,80px)}41.21%{transform:translate(752px,80px)}41.47%,50.92%{transform:translate(752px,96px)}42.52%{transform:translate(816px,96px)}44.88%{transform:translate(704px,64px)}45.41%{transform:translate(704px,32px)}45.67%{transform:translate(688px,32px)}45.93%,55.38%{transform:translate(688px,48px)}46.19%,54.07%,57.22%{transform:translate(704px,48px)}46.72%,49.34%{transform:translate(704px,80px)}47.24%{transform:translate(672px,80px)}47.51%{transform:translate(672px,64px)}48.03%{transform:translate(640px,64px)}48.29%{transform:translate(640px,80px)}49.87%,58.79%{transform:translate(704px,112px)}50.39%{transform:translate(736px,112px)}50.66%{transform:translate(736px,96px)}52.23%,84.78%{transform:translate(752px,16px)}52.76%{transform:translate(720px,16px)}53.02%{transform:translate(720px,0px)}53.28%{transform:translate(704px,0px)}54.33%{transform:translate(720px,48px)}54.59%{transform:translate(720px,64px)}55.12%{transform:translate(688px,64px)}55.64%{transform:translate(672px,48px)}55.91%{transform:translate(672px,32px)}56.17%{transform:translate(656px,32px)}56.43%{transform:translate(656px,48px)}58.01%{transform:translate(704px,96px)}58.27%,82.41%{transform:translate(720px,96px)}58.53%{transform:translate(720px,112px)}60.37%{transform:translate(704px,16px)}66.93%{transform:translate(304px,16px)}67.19%{transform:translate(304px,32px)}70.08%{transform:translate(128px,32px)}70.34%{transform:translate(128px,48px)}71.13%{transform:translate(80px,48px)}71.92%{transform:translate(80px,96px)}83.46%{transform:translate(720px,32px)}84.25%{transform:translate(736px,0px)}85.04%{transform:translate(736px,16px)}86.09%{transform:translate(736px,80px)}96.33%{transform:translate(112px,80px)}97.11%{transform:translate(112px,32px)}97.38%{transform:translate(96px,32px)}98.16%{transform:translate(80px,0px)}98.43%{transform:translate(80px,-16px)}}.s.s0{transform:translate(0px,-16px);animation-name:s0}@keyframes s1{0%,99.74%{transform:translate(16px,-16px)}0.26%{transform:translate(0px,-16px)}0.52%{transform:translate(0px,0px)}2.1%,98.16%{transform:translate(96px,0px)}2.36%{transform:translate(96px,16px)}2.89%{transform:translate(128px,16px)}3.15%{transform:translate(128px,0px)}3.41%{transform:translate(144px,0px)}4.46%{transform:translate(144px,64px)}5.51%{transform:translate(80px,64px)}5.77%{transform:translate(80px,80px)}6.04%,9.71%{transform:translate(64px,80px)}6.82%{transform:translate(64px,32px)}7.61%{transform:translate(16px,32px)}8.66%{transform:translate(16px,96px)}9.45%{transform:translate(64px,96px)}11.55%{transform:translate(176px,80px)}11.81%{transform:translate(176px,64px)}13.65%{transform:translate(288px,64px)}13.91%{transform:translate(288px,48px)}14.44%{transform:translate(320px,48px)}14.96%{transform:translate(320px,80px)}16.01%{transform:translate(384px,80px)}17.32%{transform:translate(384px,0px)}17.59%{transform:translate(368px,0px)}17.85%{transform:translate(368px,16px)}19.16%{transform:translate(448px,16px)}19.42%{transform:translate(448px,32px)}19.69%{transform:translate(464px,32px)}20.21%{transform:translate(464px,64px)}21%{transform:translate(416px,64px)}21.52%{transform:translate(416px,96px)}23.62%{transform:translate(544px,96px)}24.15%{transform:translate(544px,64px)}24.41%{transform:translate(528px,64px)}25.46%{transform:translate(528px,0px)}26.51%{transform:translate(464px,0px)}26.77%{transform:translate(464px,-16px)}29.66%{transform:translate(640px,-16px)}30.18%{transform:translate(640px,16px)}33.33%{transform:translate(832px,16px)}33.6%{transform:translate(832px,0px)}34.91%,84.78%{transform:translate(752px,0px)}35.43%,38.58%{transform:translate(752px,32px)}36.48%{transform:translate(816px,32px)}36.75%{transform:translate(816px,48px)}38.06%{transform:translate(736px,48px)}38.32%,83.99%{transform:translate(736px,32px)}39.11%{transform:translate(752px,64px)}40.16%,43.31%{transform:translate(816px,64px)}40.42%{transform:translate(816px,80px)}41.47%{transform:translate(752px,80px)}41.73%,51.18%{transform:translate(752px,96px)}42.78%{transform:translate(816px,96px)}45.14%{transform:translate(704px,64px)}45.67%{transform:translate(704px,32px)}45.93%{transform:translate(688px,32px)}46.19%,55.64%{transform:translate(688px,48px)}46.46%,54.33%,57.48%{transform:translate(704px,48px)}46.98%,49.61%{transform:translate(704px,80px)}47.51%{transform:translate(672px,80px)}47.77%{transform:translate(672px,64px)}48.29%{transform:translate(640px,64px)}48.56%{transform:translate(640px,80px)}50.13%,59.06%{transform:translate(704px,112px)}50.66%{transform:translate(736px,112px)}50.92%{transform:translate(736px,96px)}52.49%,85.04%{transform:translate(752px,16px)}53.02%{transform:translate(720px,16px)}53.28%{transform:translate(720px,0px)}53.54%{transform:translate(704px,0px)}54.59%{transform:translate(720px,48px)}54.86%{transform:translate(720px,64px)}55.38%{transform:translate(688px,64px)}55.91%{transform:translate(672px,48px)}56.17%{transform:translate(672px,32px)}56.43%{transform:translate(656px,32px)}56.69%{transform:translate(656px,48px)}58.27%{transform:translate(704px,96px)}58.53%,82.68%{transform:translate(720px,96px)}58.79%{transform:translate(720px,112px)}60.63%{transform:translate(704px,16px)}67.19%{transform:translate(304px,16px)}67.45%{transform:translate(304px,32px)}70.34%{transform:translate(128px,32px)}70.6%{transform:translate(128px,48px)}71.39%{transform:translate(80px,48px)}72.18%{transform:translate(80px,96px)}83.73%{transform:translate(720px,32px)}84.51%{transform:translate(736px,0px)}85.3%{transform:translate(736px,16px)}86.35%{transform:translate(736px,80px)}96.59%{transform:translate(112px,80px)}97.38%{transform:translate(112px,32px)}97.64%{transform:translate(96px,32px)}98.43%{transform:translate(80px,0px)}98.69%{transform:translate(80px,-16px)}}.s.s1{transform:translate(16px,-16px);animation-name:s1}@keyframes s2{0%,99.74%{transform:translate(32px,-16px)}0.52%{transform:translate(0px,-16px)}0.79%{transform:translate(0px,0px)}2.36%,98.43%{transform:translate(96px,0px)}2.62%{transform:translate(96px,16px)}3.15%{transform:translate(128px,16px)}3.41%{transform:translate(128px,0px)}3.67%{transform:translate(144px,0px)}4.72%{transform:translate(144px,64px)}5.77%{transform:translate(80px,64px)}6.04%{transform:translate(80px,80px)}6.3%,9.97%{transform:translate(64px,80px)}7.09%{transform:translate(64px,32px)}7.87%{transform:translate(16px,32px)}8.92%{transform:translate(16px,96px)}9.71%{transform:translate(64px,96px)}11.81%{transform:translate(176px,80px)}12.07%{transform:translate(176px,64px)}13.91%{transform:translate(288px,64px)}14.17%{transform:translate(288px,48px)}14.7%{transform:translate(320px,48px)}15.22%{transform:translate(320px,80px)}16.27%{transform:translate(384px,80px)}17.59%{transform:translate(384px,0px)}17.85%{transform:translate(368px,0px)}18.11%{transform:translate(368px,16px)}19.42%{transform:translate(448px,16px)}19.69%{transform:translate(448px,32px)}19.95%{transform:translate(464px,32px)}20.47%{transform:translate(464px,64px)}21.26%{transform:translate(416px,64px)}21.78%{transform:translate(416px,96px)}23.88%{transform:translate(544px,96px)}24.41%{transform:translate(544px,64px)}24.67%{transform:translate(528px,64px)}25.72%{transform:translate(528px,0px)}26.77%{transform:translate(464px,0px)}27.03%{transform:translate(464px,-16px)}29.92%{transform:translate(640px,-16px)}30.45%{transform:translate(640px,16px)}33.6%{transform:translate(832px,16px)}33.86%{transform:translate(832px,0px)}35.17%,85.04%{transform:translate(752px,0px)}35.7%,38.85%{transform:translate(752px,32px)}36.75%{transform:translate(816px,32px)}37.01%{transform:translate(816px,48px)}38.32%{transform:translate(736px,48px)}38.58%,84.25%{transform:translate(736px,32px)}39.37%{transform:translate(752px,64px)}40.42%,43.57%{transform:translate(816px,64px)}40.68%{transform:translate(816px,80px)}41.73%{transform:translate(752px,80px)}41.99%,51.44%{transform:translate(752px,96px)}43.04%{transform:translate(816px,96px)}45.41%{transform:translate(704px,64px)}45.93%{transform:translate(704px,32px)}46.19%{transform:translate(688px,32px)}46.46%,55.91%{transform:translate(688px,48px)}46.72%,54.59%,57.74%{transform:translate(704px,48px)}47.24%,49.87%{transform:translate(704px,80px)}47.77%{transform:translate(672px,80px)}48.03%{transform:translate(672px,64px)}48.56%{transform:translate(640px,64px)}48.82%{transform:translate(640px,80px)}50.39%,59.32%{transform:translate(704px,112px)}50.92%{transform:translate(736px,112px)}51.18%{transform:translate(736px,96px)}52.76%,85.3%{transform:translate(752px,16px)}53.28%{transform:translate(720px,16px)}53.54%{transform:translate(720px,0px)}53.81%{transform:translate(704px,0px)}54.86%{transform:translate(720px,48px)}55.12%{transform:translate(720px,64px)}55.64%{transform:translate(688px,64px)}56.17%{transform:translate(672px,48px)}56.43%{transform:translate(672px,32px)}56.69%{transform:translate(656px,32px)}56.96%{transform:translate(656px,48px)}58.53%{transform:translate(704px,96px)}58.79%,82.94%{transform:translate(720px,96px)}59.06%{transform:translate(720px,112px)}60.89%{transform:translate(704px,16px)}67.45%{transform:translate(304px,16px)}67.72%{transform:translate(304px,32px)}70.6%{transform:translate(128px,32px)}70.87%{transform:translate(128px,48px)}71.65%{transform:translate(80px,48px)}72.44%{transform:translate(80px,96px)}83.99%{transform:translate(720px,32px)}84.78%{transform:translate(736px,0px)}85.56%{transform:translate(736px,16px)}86.61%{transform:translate(736px,80px)}96.85%{transform:translate(112px,80px)}97.64%{transform:translate(112px,32px)}97.9%{transform:translate(96px,32px)}98.69%{transform:translate(80px,0px)}98.95%{transform:translate(80px,-16px)}}.s.s2{transform:translate(32px,-16px);animation-name:s2}@keyframes s3{0%,99.74%{transform:translate(48px,-16px)}0.79%{transform:translate(0px,-16px)}1.05%{transform:translate(0px,0px)}2.62%,98.69%{transform:translate(96px,0px)}2.89%{transform:translate(96px,16px)}3.41%{transform:translate(128px,16px)}3.67%{transform:translate(128px,0px)}3.94%{transform:translate(144px,0px)}4.99%{transform:translate(144px,64px)}6.04%{transform:translate(80px,64px)}6.3%{transform:translate(80px,80px)}6.56%,10.24%{transform:translate(64px,80px)}7.35%{transform:translate(64px,32px)}8.14%{transform:translate(16px,32px)}9.19%{transform:translate(16px,96px)}9.97%{transform:translate(64px,96px)}12.07%{transform:translate(176px,80px)}12.34%{transform:translate(176px,64px)}14.17%{transform:translate(288px,64px)}14.44%{transform:translate(288px,48px)}14.96%{transform:translate(320px,48px)}15.49%{transform:translate(320px,80px)}16.54%{transform:translate(384px,80px)}17.85%{transform:translate(384px,0px)}18.11%{transform:translate(368px,0px)}18.37%{transform:translate(368px,16px)}19.69%{transform:translate(448px,16px)}19.95%{transform:translate(448px,32px)}20.21%{transform:translate(464px,32px)}20.73%{transform:translate(464px,64px)}21.52%{transform:translate(416px,64px)}22.05%{transform:translate(416px,96px)}24.15%{transform:translate(544px,96px)}24.67%{transform:translate(544px,64px)}24.93%{transform:translate(528px,64px)}25.98%{transform:translate(528px,0px)}27.03%{transform:translate(464px,0px)}27.3%{transform:translate(464px,-16px)}30.18%{transform:translate(640px,-16px)}30.71%{transform:translate(640px,16px)}33.86%{transform:translate(832px,16px)}34.12%{transform:translate(832px,0px)}35.43%,85.3%{transform:translate(752px,0px)}35.96%,39.11%{transform:translate(752px,32px)}37.01%{transform:translate(816px,32px)}37.27%{transform:translate(816px,48px)}38.58%{transform:translate(736px,48px)}38.85%,84.51%{transform:translate(736px,32px)}39.63%{transform:translate(752px,64px)}40.68%,43.83%{transform:translate(816px,64px)}40.94%{transform:translate(816px,80px)}41.99%{transform:translate(752px,80px)}42.26%,51.71%{transform:translate(752px,96px)}43.31%{transform:translate(816px,96px)}45.67%{transform:translate(704px,64px)}46.19%{transform:translate(704px,32px)}46.46%{transform:translate(688px,32px)}46.72%,56.17%{transform:translate(688px,48px)}46.98%,54.86%,58.01%{transform:translate(704px,48px)}47.51%,50.13%{transform:translate(704px,80px)}48.03%{transform:translate(672px,80px)}48.29%{transform:translate(672px,64px)}48.82%{transform:translate(640px,64px)}49.08%{transform:translate(640px,80px)}50.66%,59.58%{transform:translate(704px,112px)}51.18%{transform:translate(736px,112px)}51.44%{transform:translate(736px,96px)}53.02%,85.56%{transform:translate(752px,16px)}53.54%{transform:translate(720px,16px)}53.81%{transform:translate(720px,0px)}54.07%{transform:translate(704px,0px)}55.12%{transform:translate(720px,48px)}55.38%{transform:translate(720px,64px)}55.91%{transform:translate(688px,64px)}56.43%{transform:translate(672px,48px)}56.69%{transform:translate(672px,32px)}56.96%{transform:translate(656px,32px)}57.22%{transform:translate(656px,48px)}58.79%{transform:translate(704px,96px)}59.06%,83.2%{transform:translate(720px,96px)}59.32%{transform:translate(720px,112px)}61.15%{transform:translate(704px,16px)}67.72%{transform:translate(304px,16px)}67.98%{transform:translate(304px,32px)}70.87%{transform:translate(128px,32px)}71.13%{transform:translate(128px,48px)}71.92%{transform:translate(80px,48px)}72.7%{transform:translate(80px,96px)}84.25%{transform:translate(720px,32px)}85.04%{transform:translate(736px,0px)}85.83%{transform:translate(736px,16px)}86.88%{transform:translate(736px,80px)}97.11%{transform:translate(112px,80px)}97.9%{transform:translate(112px,32px)}98.16%{transform:translate(96px,32px)}98.95%{transform:translate(80px,0px)}99.21%{transform:translate(80px,-16px)}}.s.s3{transform:translate(48px,-16px);animation-name:s3}</style><rect class="c" x="2" y="2" rx="2" ry="2"/><rect class="c" x="2" y="18" rx="2" ry="2"/><rect class="c" x="2" y="34" rx="2" ry="2"/><rect class="c" x="2" y="50" rx="2" ry="2"/><rect class="c" x="2" y="66" rx="2" ry="2"/><rect class="c" x="2" y="82" rx="2" ry="2"/><rect class="c" x="2" y="98" rx="2" ry="2"/><rect class="c" x="18" y="2" rx="2" ry="2"/><rect class="c" x="18" y="18" rx="2" ry="2"/><rect class="c" x="18" y="34" rx="2" ry="2"/><rect class="c" x="18" y="50" rx="2" ry="2"/><rect class="c" x="18" y="66" rx="2" ry="2"/><rect class="c" x="18" y="82" rx="2" ry="2"/><rect class="c c0" x="18" y="98" rx="2" ry="2"/><rect class="c" x="34" y="2" rx="2" ry="2"/><rect class="c" x="34" y="18" rx="2" ry="2"/><rect class="c" x="34" y="34" rx="2" ry="2"/><rect class="c" x="34" y="50" rx="2" ry="2"/><rect class="c" x="34" y="66" rx="2" ry="2"/><rect class="c" x="34" y="82" rx="2" ry="2"/><rect class="c" x="34" y="98" rx="2" ry="2"/><rect class="c" x="50" y="2" rx="2" ry="2"/><rect class="c" x="50" y="18" rx="2" ry="2"/><rect class="c" x="50" y="34" rx="2" ry="2"/><rect class="c" x="50" y="50" rx="2" ry="2"/><rect class="c" x="50" y="66" rx="2" ry="2"/><rect class="c" x="50" y="82" rx="2" ry="2"/><rect class="c" x="50" y="98" rx="2" ry="2"/><rect class="c c1" x="66" y="2" rx="2" ry="2"/><rect class="c" x="66" y="18" rx="2" ry="2"/><rect class="c c2" x="66" y="34" rx="2" ry="2"/><rect class="c" x="66" y="50" rx="2" ry="2"/><rect class="c" x="66" y="66" rx="2" ry="2"/><rect class="c" x="66" y="82" rx="2" ry="2"/><rect class="c" x="66" y="98" rx="2" ry="2"/><rect class="c" x="82" y="2" rx="2" ry="2"/><rect class="c" x="82" y="18" rx="2" ry="2"/><rect class="c" x="82" y="34" rx="2" ry="2"/><rect class="c" x="82" y="50" rx="2" ry="2"/><rect class="c" x="82" y="66" rx="2" ry="2"/><rect class="c c3" x="82" y="82" rx="2" ry="2"/><rect class="c c4" x="82" y="98" rx="2" ry="2"/><rect class="c c5" x="98" y="2" rx="2" ry="2"/><rect class="c c6" x="98" y="18" rx="2" ry="2"/><rect class="c" x="98" y="34" rx="2" ry="2"/><rect class="c" x="98" y="50" rx="2" ry="2"/><rect class="c" x="98" y="66" rx="2" ry="2"/><rect class="c" x="98" y="82" rx="2" ry="2"/><rect class="c" x="98" y="98" rx="2" ry="2"/><rect class="c" x="114" y="2" rx="2" ry="2"/><rect class="c" x="114" y="18" rx="2" ry="2"/><rect class="c" x="114" y="34" rx="2" ry="2"/><rect class="c" x="114" y="50" rx="2" ry="2"/><rect class="c" x="114" y="66" rx="2" ry="2"/><rect class="c" x="114" y="82" rx="2" ry="2"/><rect class="c" x="114" y="98" rx="2" ry="2"/><rect class="c c7" x="130" y="2" rx="2" ry="2"/><rect class="c c8" x="130" y="18" rx="2" ry="2"/><rect class="c" x="130" y="34" rx="2" ry="2"/><rect class="c c9" x="130" y="50" rx="2" ry="2"/><rect class="c ca" x="130" y="66" rx="2" ry="2"/><rect class="c" x="130" y="82" rx="2" ry="2"/><rect class="c" x="130" y="98" rx="2" ry="2"/><rect class="c" x="146" y="2" rx="2" ry="2"/><rect class="c" x="146" y="18" rx="2" ry="2"/><rect class="c" x="146" y="34" rx="2" ry="2"/><rect class="c" x="146" y="50" rx="2" ry="2"/><rect class="c" x="146" y="66" rx="2" ry="2"/><rect class="c" x="146" y="82" rx="2" ry="2"/><rect class="c" x="146" y="98" rx="2" ry="2"/><rect class="c" x="162" y="2" rx="2" ry="2"/><rect class="c" x="162" y="18" rx="2" ry="2"/><rect class="c" x="162" y="34" rx="2" ry="2"/><rect class="c" x="162" y="50" rx="2" ry="2"/><rect class="c" x="162" y="66" rx="2" ry="2"/><rect class="c" x="162" y="82" rx="2" ry="2"/><rect class="c" x="162" y="98" rx="2" ry="2"/><rect class="c" x="178" y="2" rx="2" ry="2"/><rect class="c" x="178" y="18" rx="2" ry="2"/><rect class="c" x="178" y="34" rx="2" ry="2"/><rect class="c" x="178" y="50" rx="2" ry="2"/><rect class="c cb" x="178" y="66" rx="2" ry="2"/><rect class="c cc" x="178" y="82" rx="2" ry="2"/><rect class="c" x="178" y="98" rx="2" ry="2"/><rect class="c" x="194" y="2" rx="2" ry="2"/><rect class="c" x="194" y="18" rx="2" ry="2"/><rect class="c" x="194" y="34" rx="2" ry="2"/><rect class="c" x="194" y="50" rx="2" ry="2"/><rect class="c" x="194" y="66" rx="2" ry="2"/><rect class="c" x="194" y="82" rx="2" ry="2"/><rect class="c" x="194" y="98" rx="2" ry="2"/><rect class="c" x="210" y="2" rx="2" ry="2"/><rect class="c" x="210" y="18" rx="2" ry="2"/><rect class="c" x="210" y="34" rx="2" ry="2"/><rect class="c" x="210" y="50" rx="2" ry="2"/><rect class="c" x="210" y="66" rx="2" ry="2"/><rect class="c" x="210" y="82" rx="2" ry="2"/><rect class="c" x="210" y="98" rx="2" ry="2"/><rect class="c" x="226" y="2" rx="2" ry="2"/><rect class="c" x="226" y="18" rx="2" ry="2"/><rect class="c" x="226" y="34" rx="2" ry="2"/><rect class="c" x="226" y="50" rx="2" ry="2"/><rect class="c" x="226" y="66" rx="2" ry="2"/><rect class="c" x="226" y="82" rx="2" ry="2"/><rect class="c" x="226" y="98" rx="2" ry="2"/><rect class="c" x="242" y="2" rx="2" ry="2"/><rect class="c" x="242" y="18" rx="2" ry="2"/><rect class="c" x="242" y="34" rx="2" ry="2"/><rect class="c" x="242" y="50" rx="2" ry="2"/><rect class="c" x="242" y="66" rx="2" ry="2"/><rect class="c" x="242" y="82" rx="2" ry="2"/><rect class="c" x="242" y="98" rx="2" ry="2"/><rect class="c" x="258" y="2" rx="2" ry="2"/><rect class="c" x="258" y="18" rx="2" ry="2"/><rect class="c" x="258" y="34" rx="2" ry="2"/><rect class="c" x="258" y="50" rx="2" ry="2"/><rect class="c" x="258" y="66" rx="2" ry="2"/><rect class="c" x="258" y="82" rx="2" ry="2"/><rect class="c" x="258" y="98" rx="2" ry="2"/><rect class="c" x="274" y="2" rx="2" ry="2"/><rect class="c" x="274" y="18" rx="2" ry="2"/><rect class="c" x="274" y="34" rx="2" ry="2"/><rect class="c" x="274" y="50" rx="2" ry="2"/><rect class="c" x="274" y="66" rx="2" ry="2"/><rect class="c" x="274" y="82" rx="2" ry="2"/><rect class="c" x="274" y="98" rx="2" ry="2"/><rect class="c" x="290" y="2" rx="2" ry="2"/><rect class="c" x="290" y="18" rx="2" ry="2"/><rect class="c" x="290" y="34" rx="2" ry="2"/><rect class="c cd" x="290" y="50" rx="2" ry="2"/><rect class="c" x="290" y="66" rx="2" ry="2"/><rect class="c" x="290" y="82" rx="2" ry="2"/><rect class="c" x="290" y="98" rx="2" ry="2"/><rect class="c" x="306" y="2" rx="2" ry="2"/><rect class="c" x="306" y="18" rx="2" ry="2"/><rect class="c ce" x="306" y="34" rx="2" ry="2"/><rect class="c cf" x="306" y="50" rx="2" ry="2"/><rect class="c" x="306" y="66" rx="2" ry="2"/><rect class="c" x="306" y="82" rx="2" ry="2"/><rect class="c" x="306" y="98" rx="2" ry="2"/><rect class="c" x="322" y="2" rx="2" ry="2"/><rect class="c" x="322" y="18" rx="2" ry="2"/><rect class="c" x="322" y="34" rx="2" ry="2"/><rect class="c" x="322" y="50" rx="2" ry="2"/><rect class="c" x="322" y="66" rx="2" ry="2"/><rect class="c cg" x="322" y="82" rx="2" ry="2"/><rect class="c" x="322" y="98" rx="2" ry="2"/><rect class="c" x="338" y="2" rx="2" ry="2"/><rect class="c" x="338" y="18" rx="2" ry="2"/><rect class="c" x="338" y="34" rx="2" ry="2"/><rect class="c" x="338" y="50" rx="2" ry="2"/><rect class="c" x="338" y="66" rx="2" ry="2"/><rect class="c" x="338" y="82" rx="2" ry="2"/><rect class="c" x="338" y="98" rx="2" ry="2"/><rect class="c" x="354" y="2" rx="2" ry="2"/><rect class="c" x="354" y="18" rx="2" ry="2"/><rect class="c" x="354" y="34" rx="2" ry="2"/><rect class="c" x="354" y="50" rx="2" ry="2"/><rect class="c" x="354" y="66" rx="2" ry="2"/><rect class="c ch" x="354" y="82" rx="2" ry="2"/><rect class="c" x="354" y="98" rx="2" ry="2"/><rect class="c ci" x="370" y="2" rx="2" ry="2"/><rect class="c" x="370" y="18" rx="2" ry="2"/><rect class="c" x="370" y="34" rx="2" ry="2"/><rect class="c" x="370" y="50" rx="2" ry="2"/><rect class="c" x="370" y="66" rx="2" ry="2"/><rect class="c cj" x="370" y="82" rx="2" ry="2"/><rect class="c" x="370" y="98" rx="2" ry="2"/><rect class="c ck" x="386" y="2" rx="2" ry="2"/><rect class="c cl" x="386" y="18" rx="2" ry="2"/><rect class="c" x="386" y="34" rx="2" ry="2"/><rect class="c cm" x="386" y="50" rx="2" ry="2"/><rect class="c" x="386" y="66" rx="2" ry="2"/><rect class="c" x="386" y="82" rx="2" ry="2"/><rect class="c" x="386" y="98" rx="2" ry="2"/><rect class="c" x="402" y="2" rx="2" ry="2"/><rect class="c" x="402" y="18" rx="2" ry="2"/><rect class="c" x="402" y="34" rx="2" ry="2"/><rect class="c" x="402" y="50" rx="2" ry="2"/><rect class="c" x="402" y="66" rx="2" ry="2"/><rect class="c" x="402" y="82" rx="2" ry="2"/><rect class="c" x="402" y="98" rx="2" ry="2"/><rect class="c" x="418" y="2" rx="2" ry="2"/><rect class="c" x="418" y="18" rx="2" ry="2"/><rect class="c" x="418" y="34" rx="2" ry="2"/><rect class="c" x="418" y="50" rx="2" ry="2"/><rect class="c cn" x="418" y="66" rx="2" ry="2"/><rect class="c" x="418" y="82" rx="2" ry="2"/><rect class="c co" x="418" y="98" rx="2" ry="2"/><rect class="c" x="434" y="2" rx="2" ry="2"/><rect class="c" x="434" y="18" rx="2" ry="2"/><rect class="c" x="434" y="34" rx="2" ry="2"/><rect class="c" x="434" y="50" rx="2" ry="2"/><rect class="c cp" x="434" y="66" rx="2" ry="2"/><rect class="c" x="434" y="82" rx="2" ry="2"/><rect class="c" x="434" y="98" rx="2" ry="2"/><rect class="c" x="450" y="2" rx="2" ry="2"/><rect class="c" x="450" y="18" rx="2" ry="2"/><rect class="c cq" x="450" y="34" rx="2" ry="2"/><rect class="c" x="450" y="50" rx="2" ry="2"/><rect class="c" x="450" y="66" rx="2" ry="2"/><rect class="c" x="450" y="82" rx="2" ry="2"/><rect class="c" x="450" y="98" rx="2" ry="2"/><rect class="c cr" x="466" y="2" rx="2" ry="2"/><rect class="c cs" x="466" y="18" rx="2" ry="2"/><rect class="c" x="466" y="34" rx="2" ry="2"/><rect class="c" x="466" y="50" rx="2" ry="2"/><rect class="c ct" x="466" y="66" rx="2" ry="2"/><rect class="c" x="466" y="82" rx="2" ry="2"/><rect class="c" x="466" y="98" rx="2" ry="2"/><rect class="c" x="482" y="2" rx="2" ry="2"/><rect class="c" x="482" y="18" rx="2" ry="2"/><rect class="c" x="482" y="34" rx="2" ry="2"/><rect class="c" x="482" y="50" rx="2" ry="2"/><rect class="c" x="482" y="66" rx="2" ry="2"/><rect class="c" x="482" y="82" rx="2" ry="2"/><rect class="c" x="482" y="98" rx="2" ry="2"/><rect class="c" x="498" y="2" rx="2" ry="2"/><rect class="c" x="498" y="18" rx="2" ry="2"/><rect class="c" x="498" y="34" rx="2" ry="2"/><rect class="c" x="498" y="50" rx="2" ry="2"/><rect class="c" x="498" y="66" rx="2" ry="2"/><rect class="c" x="498" y="82" rx="2" ry="2"/><rect class="c" x="498" y="98" rx="2" ry="2"/><rect class="c" x="514" y="2" rx="2" ry="2"/><rect class="c" x="514" y="18" rx="2" ry="2"/><rect class="c" x="514" y="34" rx="2" ry="2"/><rect class="c" x="514" y="50" rx="2" ry="2"/><rect class="c" x="514" y="66" rx="2" ry="2"/><rect class="c" x="514" y="82" rx="2" ry="2"/><rect class="c" x="514" y="98" rx="2" ry="2"/><rect class="c" x="530" y="2" rx="2" ry="2"/><rect class="c" x="530" y="18" rx="2" ry="2"/><rect class="c" x="530" y="34" rx="2" ry="2"/><rect class="c" x="530" y="50" rx="2" ry="2"/><rect class="c cu" x="530" y="66" rx="2" ry="2"/><rect class="c" x="530" y="82" rx="2" ry="2"/><rect class="c" x="530" y="98" rx="2" ry="2"/><rect class="c" x="546" y="2" rx="2" ry="2"/><rect class="c" x="546" y="18" rx="2" ry="2"/><rect class="c" x="546" y="34" rx="2" ry="2"/><rect class="c" x="546" y="50" rx="2" ry="2"/><rect class="c" x="546" y="66" rx="2" ry="2"/><rect class="c cv" x="546" y="82" rx="2" ry="2"/><rect class="c" x="546" y="98" rx="2" ry="2"/><rect class="c" x="562" y="2" rx="2" ry="2"/><rect class="c" x="562" y="18" rx="2" ry="2"/><rect class="c" x="562" y="34" rx="2" ry="2"/><rect class="c" x="562" y="50" rx="2" ry="2"/><rect class="c" x="562" y="66" rx="2" ry="2"/><rect class="c" x="562" y="82" rx="2" ry="2"/><rect class="c" x="562" y="98" rx="2" ry="2"/><rect class="c" x="578" y="2" rx="2" ry="2"/><rect class="c" x="578" y="18" rx="2" ry="2"/><rect class="c" x="578" y="34" rx="2" ry="2"/><rect class="c" x="578" y="50" rx="2" ry="2"/><rect class="c" x="578" y="66" rx="2" ry="2"/><rect class="c" x="578" y="82" rx="2" ry="2"/><rect class="c" x="578" y="98" rx="2" ry="2"/><rect class="c" x="594" y="2" rx="2" ry="2"/><rect class="c" x="594" y="18" rx="2" ry="2"/><rect class="c" x="594" y="34" rx="2" ry="2"/><rect class="c" x="594" y="50" rx="2" ry="2"/><rect class="c" x="594" y="66" rx="2" ry="2"/><rect class="c" x="594" y="82" rx="2" ry="2"/><rect class="c" x="594" y="98" rx="2" ry="2"/><rect class="c" x="610" y="2" rx="2" ry="2"/><rect class="c" x="610" y="18" rx="2" ry="2"/><rect class="c" x="610" y="34" rx="2" ry="2"/><rect class="c" x="610" y="50" rx="2" ry="2"/><rect class="c" x="610" y="66" rx="2" ry="2"/><rect class="c" x="610" y="82" rx="2" ry="2"/><rect class="c" x="610" y="98" rx="2" ry="2"/><rect class="c" x="626" y="2" rx="2" ry="2"/><rect class="c" x="626" y="18" rx="2" ry="2"/><rect class="c" x="626" y="34" rx="2" ry="2"/><rect class="c" x="626" y="50" rx="2" ry="2"/><rect class="c" x="626" y="66" rx="2" ry="2"/><rect class="c" x="626" y="82" rx="2" ry="2"/><rect class="c" x="626" y="98" rx="2" ry="2"/><rect class="c" x="642" y="2" rx="2" ry="2"/><rect class="c cw" x="642" y="18" rx="2" ry="2"/><rect class="c" x="642" y="34" rx="2" ry="2"/><rect class="c" x="642" y="50" rx="2" ry="2"/><rect class="c cx" x="642" y="66" rx="2" ry="2"/><rect class="c cy" x="642" y="82" rx="2" ry="2"/><rect class="c" x="642" y="98" rx="2" ry="2"/><rect class="c" x="658" y="2" rx="2" ry="2"/><rect class="c cz" x="658" y="18" rx="2" ry="2"/><rect class="c c10" x="658" y="34" rx="2" ry="2"/><rect class="c" x="658" y="50" rx="2" ry="2"/><rect class="c" x="658" y="66" rx="2" ry="2"/><rect class="c" x="658" y="82" rx="2" ry="2"/><rect class="c" x="658" y="98" rx="2" ry="2"/><rect class="c" x="674" y="2" rx="2" ry="2"/><rect class="c c11" x="674" y="18" rx="2" ry="2"/><rect class="c" x="674" y="34" rx="2" ry="2"/><rect class="c c12" x="674" y="50" rx="2" ry="2"/><rect class="c c13" x="674" y="66" rx="2" ry="2"/><rect class="c" x="674" y="82" rx="2" ry="2"/><rect class="c" x="674" y="98" rx="2" ry="2"/><rect class="c" x="690" y="2" rx="2" ry="2"/><rect class="c" x="690" y="18" rx="2" ry="2"/><rect class="c c14" x="690" y="34" rx="2" ry="2"/><rect class="c c15" x="690" y="50" rx="2" ry="2"/><rect class="c c16" x="690" y="66" rx="2" ry="2"/><rect class="c c17" x="690" y="82" rx="2" ry="2"/><rect class="c" x="690" y="98" rx="2" ry="2"/><rect class="c" x="706" y="2" rx="2" ry="2"/><rect class="c c18" x="706" y="18" rx="2" ry="2"/><rect class="c c19" x="706" y="34" rx="2" ry="2"/><rect class="c c1a" x="706" y="50" rx="2" ry="2"/><rect class="c" x="706" y="66" rx="2" ry="2"/><rect class="c c1b" x="706" y="82" rx="2" ry="2"/><rect class="c" x="706" y="98" rx="2" ry="2"/><rect class="c c1c" x="722" y="2" rx="2" ry="2"/><rect class="c c1d" x="722" y="18" rx="2" ry="2"/><rect class="c c1e" x="722" y="34" rx="2" ry="2"/><rect class="c c1f" x="722" y="50" rx="2" ry="2"/><rect class="c c1g" x="722" y="66" rx="2" ry="2"/><rect class="c c1h" x="722" y="82" rx="2" ry="2"/><rect class="c c1i" x="722" y="98" rx="2" ry="2"/><rect class="c c1j" x="738" y="2" rx="2" ry="2"/><rect class="c c1k" x="738" y="18" rx="2" ry="2"/><rect class="c c1l" x="738" y="34" rx="2" ry="2"/><rect class="c c1m" x="738" y="50" rx="2" ry="2"/><rect class="c c1n" x="738" y="66" rx="2" ry="2"/><rect class="c c1o" x="738" y="82" rx="2" ry="2"/><rect class="c c1p" x="738" y="98" rx="2" ry="2"/><rect class="c c1q" x="754" y="2" rx="2" ry="2"/><rect class="c c1r" x="754" y="18" rx="2" ry="2"/><rect class="c c1s" x="754" y="34" rx="2" ry="2"/><rect class="c c1t" x="754" y="50" rx="2" ry="2"/><rect class="c c1u" x="754" y="66" rx="2" ry="2"/><rect class="c c1v" x="754" y="82" rx="2" ry="2"/><rect class="c c1w" x="754" y="98" rx="2" ry="2"/><rect class="c c1x" x="770" y="2" rx="2" ry="2"/><rect class="c c1y" x="770" y="18" rx="2" ry="2"/><rect class="c c1z" x="770" y="34" rx="2" ry="2"/><rect class="c c20" x="770" y="50" rx="2" ry="2"/><rect class="c c21" x="770" y="66" rx="2" ry="2"/><rect class="c c22" x="770" y="82" rx="2" ry="2"/><rect class="c c23" x="770" y="98" rx="2" ry="2"/><rect class="c c24" x="786" y="2" rx="2" ry="2"/><rect class="c c25" x="786" y="18" rx="2" ry="2"/><rect class="c c26" x="786" y="34" rx="2" ry="2"/><rect class="c c27" x="786" y="50" rx="2" ry="2"/><rect class="c c28" x="786" y="66" rx="2" ry="2"/><rect class="c c29" x="786" y="82" rx="2" ry="2"/><rect class="c c2a" x="786" y="98" rx="2" ry="2"/><rect class="c c2b" x="802" y="2" rx="2" ry="2"/><rect class="c c2c" x="802" y="18" rx="2" ry="2"/><rect class="c c2d" x="802" y="34" rx="2" ry="2"/><rect class="c c2e" x="802" y="50" rx="2" ry="2"/><rect class="c c2f" x="802" y="66" rx="2" ry="2"/><rect class="c c2g" x="802" y="82" rx="2" ry="2"/><rect class="c c2h" x="802" y="98" rx="2" ry="2"/><rect class="c c2i" x="818" y="2" rx="2" ry="2"/><rect class="c c2j" x="818" y="18" rx="2" ry="2"/><rect class="c c2k" x="818" y="34" rx="2" ry="2"/><rect class="c c2l" x="818" y="50" rx="2" ry="2"/><rect class="c c2m" x="818" y="66" rx="2" ry="2"/><rect class="c c2n" x="818" y="82" rx="2" ry="2"/><rect class="c c2o" x="818" y="98" rx="2" ry="2"/><rect class="c c2p" x="834" y="2" rx="2" ry="2"/><rect class="c c2q" x="834" y="18" rx="2" ry="2"/><rect class="u u0" height="12" width="737.2" x="0.0" y="144"/><rect class="u u1" height="12" width="77.7" x="736.6" y="144"/><rect class="u u2" height="12" width="17.7" x="813.7" y="144"/><rect class="u u3" height="12" width="17.7" x="830.9" y="144"/><rect class="s s0" x="0.8" y="0.8" width="14.4" height="14.4" rx="4.5" ry="4.5"/><rect class="s s1" x="1.8" y="1.8" width="12.3" height="12.3" rx="4.1" ry="4.1"/><rect class="s s2" x="2.6" y="2.6" width="10.8" height="10.8" rx="3.6" ry="3.6"/><rect class="s s3" x="3.0" y="3.0" width="9.9" height="9.9" rx="3.3" ry="3.3"/></svg>