<svg viewBox="-16 -32 880 192" width="880" height="192" xmlns="http://www.w3.org/2000/svg"><desc>Generated with https://github.com/Platane/snk</desc><style>:root{--cb:#1b1f230a;--cs:white;--ce:#0a0e12;--c0:#0a0e12;--c1:#1445a2;--c2:#1d65ee;--c3:#1f4eff;--c4:#466dff}.c{shape-rendering:geometricPrecision;fill:var(--ce);stroke-width:1px;stroke:var(--cb);animation:none 37900ms linear infinite;width:12px;height:12px}@keyframes c0{8.7%{fill:var(--c1)}8.72%,100%{fill:var(--ce)}}.c.c0{fill:var(--c1);animation-name:c0}@keyframes c1{1.57%{fill:var(--c1)}1.59%,100%{fill:var(--ce)}}.c.c1{fill:var(--c1);animation-name:c1}@keyframes c2{6.85%{fill:var(--c1)}6.87%,100%{fill:var(--ce)}}.c.c2{fill:var(--c1);animation-name:c2}@keyframes c3{5.79%{fill:var(--c1)}5.81%,100%{fill:var(--ce)}}.c.c3{fill:var(--c1);animation-name:c3}@keyframes c4{71.49%{fill:var(--c2)}71.51%,100%{fill:var(--ce)}}.c.c4{fill:var(--c2);animation-name:c4}@keyframes c5{2.1%{fill:var(--c1)}2.12%,100%{fill:var(--ce)}}.c.c5{fill:var(--c1);animation-name:c5}@keyframes c6{2.36%{fill:var(--c1)}2.38%,100%{fill:var(--ce)}}.c.c6{fill:var(--c1);animation-name:c6}@keyframes c7{3.16%{fill:var(--c1)}3.18%,100%{fill:var(--ce)}}.c.c7{fill:var(--c1);animation-name:c7}@keyframes c8{2.89%{fill:var(--c1)}2.91%,100%{fill:var(--ce)}}.c.c8{fill:var(--c1);animation-name:c8}@keyframes c9{69.91%{fill:var(--c2)}69.93%,100%{fill:var(--ce)}}.c.c9{fill:var(--c2);animation-name:c9}@keyframes ca{4.74%{fill:var(--c1)}4.76%,100%{fill:var(--ce)}}.c.ca{fill:var(--c1);animation-name:ca}@keyframes cb{11.86%{fill:var(--c1)}11.88%,100%{fill:var(--ce)}}.c.cb{fill:var(--c1);animation-name:cb}@keyframes cc{11.6%{fill:var(--c1)}11.62%,100%{fill:var(--ce)}}.c.cc{fill:var(--c1);animation-name:cc}@keyframes cd{13.97%{fill:var(--c1)}13.99%,100%{fill:var(--ce)}}.c.cd{fill:var(--c1);animation-name:cd}@keyframes ce{66.74%{fill:var(--c2)}66.76%,100%{fill:var(--ce)}}.c.ce{fill:var(--c2);animation-name:ce}@keyframes cf{14.24%{fill:var(--c1)}14.26%,100%{fill:var(--ce)}}.c.cf{fill:var(--c1);animation-name:cf}@keyframes cg{15.03%{fill:var(--c1)}15.05%,100%{fill:var(--ce)}}.c.cg{fill:var(--c1);animation-name:cg}@keyframes ch{15.56%{fill:var(--c1)}15.58%,100%{fill:var(--ce)}}.c.ch{fill:var(--c1);animation-name:ch}@keyframes ci{17.67%{fill:var(--c1)}17.69%,100%{fill:var(--ce)}}.c.ci{fill:var(--c1);animation-name:ci}@keyframes cj{15.82%{fill:var(--c1)}15.84%,100%{fill:var(--ce)}}.c.cj{fill:var(--c1);animation-name:cj}@keyframes ck{17.4%{fill:var(--c1)}17.42%,100%{fill:var(--ce)}}.c.ck{fill:var(--c1);animation-name:ck}@keyframes cl{17.14%{fill:var(--c1)}17.16%,100%{fill:var(--ce)}}.c.cl{fill:var(--c1);animation-name:cl}@keyframes cm{16.61%{fill:var(--c1)}16.63%,100%{fill:var(--ce)}}.c.cm{fill:var(--c1);animation-name:cm}@keyframes cn{21.1%{fill:var(--c1)}21.12%,100%{fill:var(--ce)}}.c.cn{fill:var(--c1);animation-name:cn}@keyframes co{21.63%{fill:var(--c1)}21.65%,100%{fill:var(--ce)}}.c.co{fill:var(--c1);animation-name:co}@keyframes cp{20.83%{fill:var(--c1)}20.85%,100%{fill:var(--ce)}}.c.cp{fill:var(--c1);animation-name:cp}@keyframes cq{19.52%{fill:var(--c1)}19.54%,100%{fill:var(--ce)}}.c.cq{fill:var(--c1);animation-name:cq}@keyframes cr{26.64%{fill:var(--c1)}26.66%,100%{fill:var(--ce)}}.c.cr{fill:var(--c1);animation-name:cr}@keyframes cs{63.84%{fill:var(--c2)}63.86%,100%{fill:var(--ce)}}.c.cs{fill:var(--c2);animation-name:cs}@keyframes ct{20.31%{fill:var(--c1)}20.33%,100%{fill:var(--ce)}}.c.ct{fill:var(--c1);animation-name:ct}@keyframes cu{24.53%{fill:var(--c1)}24.55%,100%{fill:var(--ce)}}.c.cu{fill:var(--c1);animation-name:cu}@keyframes cv{24%{fill:var(--c1)}24.02%,100%{fill:var(--ce)}}.c.cv{fill:var(--c1);animation-name:cv}@keyframes cw{30.33%{fill:var(--c1)}30.35%,100%{fill:var(--ce)}}.c.cw{fill:var(--c1);animation-name:cw}@keyframes cx{47.48%{fill:var(--c1)}47.5%,100%{fill:var(--ce)}}.c.cx{fill:var(--c1);animation-name:cx}@keyframes cy{47.75%{fill:var(--c1)}47.77%,100%{fill:var(--ce)}}.c.cy{fill:var(--c1);animation-name:cy}@keyframes cz{30.6%{fill:var(--c1)}30.62%,100%{fill:var(--ce)}}.c.cz{fill:var(--c1);animation-name:cz}@keyframes c10{55.66%{fill:var(--c2)}55.68%,100%{fill:var(--ce)}}.c.c10{fill:var(--c2);animation-name:c10}@keyframes c11{30.86%{fill:var(--c1)}30.88%,100%{fill:var(--ce)}}.c.c11{fill:var(--c1);animation-name:c11}@keyframes c12{55.14%{fill:var(--c2)}55.16%,100%{fill:var(--ce)}}.c.c12{fill:var(--c2);animation-name:c12}@keyframes c13{46.96%{fill:var(--c1)}46.98%,100%{fill:var(--ce)}}.c.c13{fill:var(--c1);animation-name:c13}@keyframes c14{45.11%{fill:var(--c1)}45.13%,100%{fill:var(--ce)}}.c.c14{fill:var(--c1);animation-name:c14}@keyframes c15{45.37%{fill:var(--c1)}45.39%,100%{fill:var(--ce)}}.c.c15{fill:var(--c1);animation-name:c15}@keyframes c16{54.61%{fill:var(--c2)}54.63%,100%{fill:var(--ce)}}.c.c16{fill:var(--c2);animation-name:c16}@keyframes c17{46.43%{fill:var(--c1)}46.45%,100%{fill:var(--ce)}}.c.c17{fill:var(--c1);animation-name:c17}@keyframes c18{31.39%{fill:var(--c1)}31.41%,100%{fill:var(--ce)}}.c.c18{fill:var(--c1);animation-name:c18}@keyframes c19{44.84%{fill:var(--c1)}44.86%,100%{fill:var(--ce)}}.c.c19{fill:var(--c1);animation-name:c19}@keyframes c1a{44.58%{fill:var(--c1)}44.6%,100%{fill:var(--ce)}}.c.c1a{fill:var(--c1);animation-name:c1a}@keyframes c1b{46.16%{fill:var(--c1)}46.18%,100%{fill:var(--ce)}}.c.c1b{fill:var(--c1);animation-name:c1b}@keyframes c1c{52.5%{fill:var(--c1)}52.52%,100%{fill:var(--ce)}}.c.c1c{fill:var(--c1);animation-name:c1c}@keyframes c1d{31.65%{fill:var(--c1)}31.67%,100%{fill:var(--ce)}}.c.c1d{fill:var(--c1);animation-name:c1d}@keyframes c1e{83.1%{fill:var(--c3)}83.12%,100%{fill:var(--ce)}}.c.c1e{fill:var(--c3);animation-name:c1e}@keyframes c1f{53.82%{fill:var(--c2)}53.84%,100%{fill:var(--ce)}}.c.c1f{fill:var(--c2);animation-name:c1f}@keyframes c1g{44.05%{fill:var(--c1)}44.07%,100%{fill:var(--ce)}}.c.c1g{fill:var(--c1);animation-name:c1g}@keyframes c1h{82.31%{fill:var(--c3)}82.33%,100%{fill:var(--ce)}}.c.c1h{fill:var(--c3);animation-name:c1h}@keyframes c1i{57.77%{fill:var(--c2)}57.79%,100%{fill:var(--ce)}}.c.c1i{fill:var(--c2);animation-name:c1i}@keyframes c1j{83.9%{fill:var(--c4)}83.92%,100%{fill:var(--ce)}}.c.c1j{fill:var(--c4);animation-name:c1j}@keyframes c1k{31.92%{fill:var(--c1)}31.94%,100%{fill:var(--ce)}}.c.c1k{fill:var(--c1);animation-name:c1k}@keyframes c1l{37.98%{fill:var(--c1)}38%,100%{fill:var(--ce)}}.c.c1l{fill:var(--c1);animation-name:c1l}@keyframes c1m{37.72%{fill:var(--c1)}37.74%,100%{fill:var(--ce)}}.c.c1m{fill:var(--c1);animation-name:c1m}@keyframes c1n{43.79%{fill:var(--c1)}43.81%,100%{fill:var(--ce)}}.c.c1n{fill:var(--c1);animation-name:c1n}@keyframes c1o{85.74%{fill:var(--c4)}85.76%,100%{fill:var(--ce)}}.c.c1o{fill:var(--c4);animation-name:c1o}@keyframes c1p{50.12%{fill:var(--c1)}50.14%,100%{fill:var(--ce)}}.c.c1p{fill:var(--c1);animation-name:c1p}@keyframes c1q{34.55%{fill:var(--c1)}34.57%,100%{fill:var(--ce)}}.c.c1q{fill:var(--c1);animation-name:c1q}@keyframes c1r{32.18%{fill:var(--c1)}32.2%,100%{fill:var(--ce)}}.c.c1r{fill:var(--c1);animation-name:c1r}@keyframes c1s{35.08%{fill:var(--c1)}35.1%,100%{fill:var(--ce)}}.c.c1s{fill:var(--c1);animation-name:c1s}@keyframes c1t{37.46%{fill:var(--c1)}37.48%,100%{fill:var(--ce)}}.c.c1t{fill:var(--c1);animation-name:c1t}@keyframes c1u{38.78%{fill:var(--c1)}38.8%,100%{fill:var(--ce)}}.c.c1u{fill:var(--c1);animation-name:c1u}@keyframes c1v{41.15%{fill:var(--c1)}41.17%,100%{fill:var(--ce)}}.c.c1v{fill:var(--c1);animation-name:c1v}@keyframes c1w{41.41%{fill:var(--c1)}41.43%,100%{fill:var(--ce)}}.c.c1w{fill:var(--c1);animation-name:c1w}@keyframes c1x{34.29%{fill:var(--c1)}34.31%,100%{fill:var(--ce)}}.c.c1x{fill:var(--c1);animation-name:c1x}@keyframes c1y{32.44%{fill:var(--c1)}32.46%,100%{fill:var(--ce)}}.c.c1y{fill:var(--c1);animation-name:c1y}@keyframes c1z{35.35%{fill:var(--c1)}35.37%,100%{fill:var(--ce)}}.c.c1z{fill:var(--c1);animation-name:c1z}@keyframes c20{37.19%{fill:var(--c1)}37.21%,100%{fill:var(--ce)}}.c.c20{fill:var(--c1);animation-name:c20}@keyframes c21{39.04%{fill:var(--c1)}39.06%,100%{fill:var(--ce)}}.c.c21{fill:var(--c1);animation-name:c21}@keyframes c22{40.89%{fill:var(--c1)}40.91%,100%{fill:var(--ce)}}.c.c22{fill:var(--c1);animation-name:c22}@keyframes c23{41.68%{fill:var(--c1)}41.7%,100%{fill:var(--ce)}}.c.c23{fill:var(--c1);animation-name:c23}@keyframes c24{34.03%{fill:var(--c1)}34.05%,100%{fill:var(--ce)}}.c.c24{fill:var(--c1);animation-name:c24}@keyframes c25{32.71%{fill:var(--c1)}32.73%,100%{fill:var(--ce)}}.c.c25{fill:var(--c1);animation-name:c25}@keyframes c26{35.61%{fill:var(--c1)}35.63%,100%{fill:var(--ce)}}.c.c26{fill:var(--c1);animation-name:c26}@keyframes c27{36.93%{fill:var(--c1)}36.95%,100%{fill:var(--ce)}}.c.c27{fill:var(--c1);animation-name:c27}@keyframes c28{39.3%{fill:var(--c1)}39.32%,100%{fill:var(--ce)}}.c.c28{fill:var(--c1);animation-name:c28}@keyframes c29{40.62%{fill:var(--c1)}40.64%,100%{fill:var(--ce)}}.c.c29{fill:var(--c1);animation-name:c29}@keyframes c2a{41.94%{fill:var(--c1)}41.96%,100%{fill:var(--ce)}}.c.c2a{fill:var(--c1);animation-name:c2a}@keyframes c2b{33.76%{fill:var(--c1)}33.78%,100%{fill:var(--ce)}}.c.c2b{fill:var(--c1);animation-name:c2b}@keyframes c2c{32.97%{fill:var(--c1)}32.99%,100%{fill:var(--ce)}}.c.c2c{fill:var(--c1);animation-name:c2c}@keyframes c2d{35.87%{fill:var(--c1)}35.89%,100%{fill:var(--ce)}}.c.c2d{fill:var(--c1);animation-name:c2d}@keyframes c2e{36.67%{fill:var(--c1)}36.69%,100%{fill:var(--ce)}}.c.c2e{fill:var(--c1);animation-name:c2e}@keyframes c2f{39.57%{fill:var(--c1)}39.59%,100%{fill:var(--ce)}}.c.c2f{fill:var(--c1);animation-name:c2f}@keyframes c2g{40.36%{fill:var(--c1)}40.38%,100%{fill:var(--ce)}}.c.c2g{fill:var(--c1);animation-name:c2g}@keyframes c2h{42.21%{fill:var(--c1)}42.23%,100%{fill:var(--ce)}}.c.c2h{fill:var(--c1);animation-name:c2h}@keyframes c2i{33.5%{fill:var(--c1)}33.52%,100%{fill:var(--ce)}}.c.c2i{fill:var(--c1);animation-name:c2i}@keyframes c2j{33.24%{fill:var(--c1)}33.26%,100%{fill:var(--ce)}}.c.c2j{fill:var(--c1);animation-name:c2j}@keyframes c2k{36.14%{fill:var(--c1)}36.16%,100%{fill:var(--ce)}}.c.c2k{fill:var(--c1);animation-name:c2k}@keyframes c2l{36.4%{fill:var(--c1)}36.42%,100%{fill:var(--ce)}}.c.c2l{fill:var(--c1);animation-name:c2l}@keyframes c2m{39.83%{fill:var(--c1)}39.85%,100%{fill:var(--ce)}}.c.c2m{fill:var(--c1);animation-name:c2m}.u{transform-origin:0 0;transform:scale(0,1);animation:none linear 37900ms infinite}@keyframes u0{1.57%{transform:scale(0.000,1)}1.59%,2.1%{transform:scale(0.012,1)}2.12%,2.36%{transform:scale(0.024,1)}2.38%,2.89%{transform:scale(0.037,1)}2.91%,3.16%{transform:scale(0.049,1)}3.18%,4.74%{transform:scale(0.061,1)}4.76%,5.79%{transform:scale(0.073,1)}5.81%,6.85%{transform:scale(0.085,1)}6.87%,8.7%{transform:scale(0.098,1)}8.72%,11.6%{transform:scale(0.110,1)}11.62%,11.86%{transform:scale(0.122,1)}11.88%,13.97%{transform:scale(0.134,1)}13.99%,14.24%{transform:scale(0.146,1)}14.26%,15.03%{transform:scale(0.159,1)}15.05%,15.56%{transform:scale(0.171,1)}15.58%,15.82%{transform:scale(0.183,1)}15.84%,16.61%{transform:scale(0.195,1)}16.63%,17.14%{transform:scale(0.207,1)}17.16%,17.4%{transform:scale(0.220,1)}17.42%,17.67%{transform:scale(0.232,1)}17.69%,19.52%{transform:scale(0.244,1)}19.54%,20.31%{transform:scale(0.256,1)}20.33%,20.83%{transform:scale(0.268,1)}20.85%,21.1%{transform:scale(0.280,1)}21.12%,21.63%{transform:scale(0.293,1)}21.65%,24%{transform:scale(0.305,1)}24.02%,24.53%{transform:scale(0.317,1)}24.55%,26.64%{transform:scale(0.329,1)}26.66%,30.33%{transform:scale(0.341,1)}30.35%,30.6%{transform:scale(0.354,1)}30.62%,30.86%{transform:scale(0.366,1)}30.88%,31.39%{transform:scale(0.378,1)}31.41%,31.65%{transform:scale(0.390,1)}31.67%,31.92%{transform:scale(0.402,1)}31.94%,32.18%{transform:scale(0.415,1)}32.2%,32.44%{transform:scale(0.427,1)}32.46%,32.71%{transform:scale(0.439,1)}32.73%,32.97%{transform:scale(0.451,1)}32.99%,33.24%{transform:scale(0.463,1)}33.26%,33.5%{transform:scale(0.476,1)}33.52%,33.76%{transform:scale(0.488,1)}33.78%,34.03%{transform:scale(0.500,1)}34.05%,34.29%{transform:scale(0.512,1)}34.31%,34.55%{transform:scale(0.524,1)}34.57%,35.08%{transform:scale(0.537,1)}35.1%,35.35%{transform:scale(0.549,1)}35.37%,35.61%{transform:scale(0.561,1)}35.63%,35.87%{transform:scale(0.573,1)}35.89%,36.14%{transform:scale(0.585,1)}36.16%,36.4%{transform:scale(0.598,1)}36.42%,36.67%{transform:scale(0.610,1)}36.69%,36.93%{transform:scale(0.622,1)}36.95%,37.19%{transform:scale(0.634,1)}37.21%,37.46%{transform:scale(0.646,1)}37.48%,37.72%{transform:scale(0.659,1)}37.74%,37.98%{transform:scale(0.671,1)}38%,38.78%{transform:scale(0.683,1)}38.8%,39.04%{transform:scale(0.695,1)}39.06%,39.3%{transform:scale(0.707,1)}39.32%,39.57%{transform:scale(0.720,1)}39.59%,39.83%{transform:scale(0.732,1)}39.85%,40.36%{transform:scale(0.744,1)}40.38%,40.62%{transform:scale(0.756,1)}40.64%,40.89%{transform:scale(0.768,1)}40.91%,41.15%{transform:scale(0.780,1)}41.17%,41.41%{transform:scale(0.793,1)}41.43%,41.68%{transform:scale(0.805,1)}41.7%,41.94%{transform:scale(0.817,1)}41.96%,42.21%{transform:scale(0.829,1)}42.23%,43.79%{transform:scale(0.841,1)}43.81%,44.05%{transform:scale(0.854,1)}44.07%,44.58%{transform:scale(0.866,1)}44.6%,44.84%{transform:scale(0.878,1)}44.86%,45.11%{transform:scale(0.890,1)}45.13%,45.37%{transform:scale(0.902,1)}45.39%,46.16%{transform:scale(0.915,1)}46.18%,46.43%{transform:scale(0.927,1)}46.45%,46.96%{transform:scale(0.939,1)}46.98%,47.48%{transform:scale(0.951,1)}47.5%,47.75%{transform:scale(0.963,1)}47.77%,50.12%{transform:scale(0.976,1)}50.14%,52.5%{transform:scale(0.988,1)}52.52%,100%{transform:scale(1.000,1)}}.u.u0{fill:var(--c1);animation-name:u0;transform-origin:0.0px 0}@keyframes u1{53.82%{transform:scale(0.000,1)}53.84%,54.61%{transform:scale(0.111,1)}54.63%,55.14%{transform:scale(0.222,1)}55.16%,55.66%{transform:scale(0.333,1)}55.68%,57.77%{transform:scale(0.444,1)}57.79%,63.84%{transform:scale(0.556,1)}63.86%,66.74%{transform:scale(0.667,1)}66.76%,69.91%{transform:scale(0.778,1)}69.93%,71.49%{transform:scale(0.889,1)}71.51%,100%{transform:scale(1.000,1)}}.u.u1{fill:var(--c2);animation-name:u1;transform-origin:732.0px 0}@keyframes u2{82.31%{transform:scale(0.000,1)}82.33%,83.1%{transform:scale(0.500,1)}83.12%,100%{transform:scale(1.000,1)}}.u.u2{fill:var(--c3);animation-name:u2;transform-origin:812.3px 0}@keyframes u3{83.9%{transform:scale(0.000,1)}83.92%,85.74%{transform:scale(0.500,1)}85.76%,100%{transform:scale(1.000,1)}}.u.u3{fill:var(--c4);animation-name:u3;transform-origin:830.1px 0}.s{shape-rendering:geometricPrecision;fill:var(--cs);animation:none linear 37900ms infinite}@keyframes s0{0%,99.74%{transform:translate(0px,-16px)}0.26%{transform:translate(0px,0px)}2.11%{transform:translate(112px,0px)}2.37%{transform:translate(112px,16px)}2.9%{transform:translate(144px,16px)}3.17%{transform:translate(144px,0px)}3.43%{transform:translate(160px,0px)}4.49%{transform:translate(160px,64px)}5.54%,96.83%{transform:translate(96px,64px)}5.8%{transform:translate(96px,80px)}6.07%,9.76%{transform:translate(80px,80px)}6.86%,97.63%{transform:translate(80px,32px)}7.65%{transform:translate(32px,32px)}8.71%{transform:translate(32px,96px)}9.5%{transform:translate(80px,96px)}11.61%{transform:translate(192px,80px)}11.87%{transform:translate(192px,64px)}13.72%{transform:translate(304px,64px)}13.98%{transform:translate(304px,48px)}14.51%{transform:translate(336px,48px)}15.04%{transform:translate(336px,80px)}16.09%{transform:translate(400px,80px)}17.41%{transform:translate(400px,0px)}17.68%{transform:translate(384px,0px)}17.94%{transform:translate(384px,16px)}19.26%{transform:translate(464px,16px)}19.53%{transform:translate(464px,32px)}19.79%{transform:translate(480px,32px)}20.32%{transform:translate(480px,64px)}21.11%{transform:translate(432px,64px)}21.64%{transform:translate(432px,96px)}23.75%{transform:translate(560px,96px)}24.27%{transform:translate(560px,64px)}24.54%{transform:translate(544px,64px)}25.59%{transform:translate(544px,0px)}26.65%{transform:translate(480px,0px)}26.91%{transform:translate(480px,-16px)}29.82%{transform:translate(656px,-16px)}30.34%{transform:translate(656px,16px)}33.25%{transform:translate(832px,16px)}33.51%{transform:translate(832px,0px)}34.56%,84.17%{transform:translate(768px,0px)}35.09%,38.26%{transform:translate(768px,32px)}36.15%{transform:translate(832px,32px)}36.41%{transform:translate(832px,48px)}37.73%{transform:translate(752px,48px)}37.99%,83.38%{transform:translate(752px,32px)}38.79%{transform:translate(768px,64px)}39.84%{transform:translate(832px,64px)}40.11%{transform:translate(832px,80px)}41.16%{transform:translate(768px,80px)}41.42%,50.4%{transform:translate(768px,96px)}42.22%{transform:translate(816px,96px)}42.74%{transform:translate(816px,64px)}44.33%{transform:translate(720px,64px)}44.85%{transform:translate(720px,32px)}45.12%{transform:translate(704px,32px)}45.38%,54.88%{transform:translate(704px,48px)}45.65%,53.56%,56.73%{transform:translate(720px,48px)}46.17%,48.81%{transform:translate(720px,80px)}46.7%{transform:translate(688px,80px)}46.97%{transform:translate(688px,64px)}47.49%{transform:translate(656px,64px)}47.76%{transform:translate(656px,80px)}49.34%,58.31%{transform:translate(720px,112px)}49.87%{transform:translate(752px,112px)}50.13%{transform:translate(752px,96px)}51.72%,84.43%{transform:translate(768px,16px)}52.24%{transform:translate(736px,16px)}52.51%{transform:translate(736px,0px)}52.77%{transform:translate(720px,0px)}53.83%{transform:translate(736px,48px)}54.09%{transform:translate(736px,64px)}54.62%{transform:translate(704px,64px)}55.15%{transform:translate(688px,48px)}55.41%{transform:translate(688px,32px)}55.67%{transform:translate(672px,32px)}55.94%{transform:translate(672px,48px)}57.52%{transform:translate(720px,96px)}57.78%,82.06%{transform:translate(736px,96px)}58.05%{transform:translate(736px,112px)}59.89%{transform:translate(720px,16px)}66.49%{transform:translate(320px,16px)}66.75%{transform:translate(320px,32px)}69.66%{transform:translate(144px,32px)}69.92%{transform:translate(144px,48px)}70.71%,97.1%{transform:translate(96px,48px)}71.5%{transform:translate(96px,96px)}83.11%{transform:translate(736px,32px)}83.91%{transform:translate(752px,0px)}84.7%{transform:translate(752px,16px)}85.75%{transform:translate(752px,80px)}96.04%{transform:translate(128px,80px)}96.31%{transform:translate(128px,64px)}97.36%{transform:translate(80px,48px)}97.89%{transform:translate(64px,32px)}98.68%{transform:translate(64px,-16px)}}.s.s0{transform:translate(0px,-16px);animation-name:s0}@keyframes s1{0%,99.74%{transform:translate(16px,-16px)}0.26%{transform:translate(0px,-16px)}0.53%{transform:translate(0px,0px)}2.37%{transform:translate(112px,0px)}2.64%{transform:translate(112px,16px)}3.17%{transform:translate(144px,16px)}3.43%{transform:translate(144px,0px)}3.69%{transform:translate(160px,0px)}4.75%{transform:translate(160px,64px)}5.8%,97.1%{transform:translate(96px,64px)}6.07%{transform:translate(96px,80px)}6.33%,10.03%{transform:translate(80px,80px)}7.12%,97.89%{transform:translate(80px,32px)}7.92%{transform:translate(32px,32px)}8.97%{transform:translate(32px,96px)}9.76%{transform:translate(80px,96px)}11.87%{transform:translate(192px,80px)}12.14%{transform:translate(192px,64px)}13.98%{transform:translate(304px,64px)}14.25%{transform:translate(304px,48px)}14.78%{transform:translate(336px,48px)}15.3%{transform:translate(336px,80px)}16.36%{transform:translate(400px,80px)}17.68%{transform:translate(400px,0px)}17.94%{transform:translate(384px,0px)}18.21%{transform:translate(384px,16px)}19.53%{transform:translate(464px,16px)}19.79%{transform:translate(464px,32px)}20.05%{transform:translate(480px,32px)}20.58%{transform:translate(480px,64px)}21.37%{transform:translate(432px,64px)}21.9%{transform:translate(432px,96px)}24.01%{transform:translate(560px,96px)}24.54%{transform:translate(560px,64px)}24.8%{transform:translate(544px,64px)}25.86%{transform:translate(544px,0px)}26.91%{transform:translate(480px,0px)}27.18%{transform:translate(480px,-16px)}30.08%{transform:translate(656px,-16px)}30.61%{transform:translate(656px,16px)}33.51%{transform:translate(832px,16px)}33.77%{transform:translate(832px,0px)}34.83%,84.43%{transform:translate(768px,0px)}35.36%,38.52%{transform:translate(768px,32px)}36.41%{transform:translate(832px,32px)}36.68%{transform:translate(832px,48px)}37.99%{transform:translate(752px,48px)}38.26%,83.64%{transform:translate(752px,32px)}39.05%{transform:translate(768px,64px)}40.11%{transform:translate(832px,64px)}40.37%{transform:translate(832px,80px)}41.42%{transform:translate(768px,80px)}41.69%,50.66%{transform:translate(768px,96px)}42.48%{transform:translate(816px,96px)}43.01%{transform:translate(816px,64px)}44.59%{transform:translate(720px,64px)}45.12%{transform:translate(720px,32px)}45.38%{transform:translate(704px,32px)}45.65%,55.15%{transform:translate(704px,48px)}45.91%,53.83%,56.99%{transform:translate(720px,48px)}46.44%,49.08%{transform:translate(720px,80px)}46.97%{transform:translate(688px,80px)}47.23%{transform:translate(688px,64px)}47.76%{transform:translate(656px,64px)}48.02%{transform:translate(656px,80px)}49.6%,58.58%{transform:translate(720px,112px)}50.13%{transform:translate(752px,112px)}50.4%{transform:translate(752px,96px)}51.98%,84.7%{transform:translate(768px,16px)}52.51%{transform:translate(736px,16px)}52.77%{transform:translate(736px,0px)}53.03%{transform:translate(720px,0px)}54.09%{transform:translate(736px,48px)}54.35%{transform:translate(736px,64px)}54.88%{transform:translate(704px,64px)}55.41%{transform:translate(688px,48px)}55.67%{transform:translate(688px,32px)}55.94%{transform:translate(672px,32px)}56.2%{transform:translate(672px,48px)}57.78%{transform:translate(720px,96px)}58.05%,82.32%{transform:translate(736px,96px)}58.31%{transform:translate(736px,112px)}60.16%{transform:translate(720px,16px)}66.75%{transform:translate(320px,16px)}67.02%{transform:translate(320px,32px)}69.92%{transform:translate(144px,32px)}70.18%{transform:translate(144px,48px)}70.98%,97.36%{transform:translate(96px,48px)}71.77%{transform:translate(96px,96px)}83.38%{transform:translate(736px,32px)}84.17%{transform:translate(752px,0px)}84.96%{transform:translate(752px,16px)}86.02%{transform:translate(752px,80px)}96.31%{transform:translate(128px,80px)}96.57%{transform:translate(128px,64px)}97.63%{transform:translate(80px,48px)}98.15%{transform:translate(64px,32px)}98.94%{transform:translate(64px,-16px)}}.s.s1{transform:translate(16px,-16px);animation-name:s1}@keyframes s2{0%,99.74%{transform:translate(32px,-16px)}0.53%{transform:translate(0px,-16px)}0.79%{transform:translate(0px,0px)}2.64%{transform:translate(112px,0px)}2.9%{transform:translate(112px,16px)}3.43%{transform:translate(144px,16px)}3.69%{transform:translate(144px,0px)}3.96%{transform:translate(160px,0px)}5.01%{transform:translate(160px,64px)}6.07%,97.36%{transform:translate(96px,64px)}6.33%{transform:translate(96px,80px)}6.6%,10.29%{transform:translate(80px,80px)}7.39%,98.15%{transform:translate(80px,32px)}8.18%{transform:translate(32px,32px)}9.23%{transform:translate(32px,96px)}10.03%{transform:translate(80px,96px)}12.14%{transform:translate(192px,80px)}12.4%{transform:translate(192px,64px)}14.25%{transform:translate(304px,64px)}14.51%{transform:translate(304px,48px)}15.04%{transform:translate(336px,48px)}15.57%{transform:translate(336px,80px)}16.62%{transform:translate(400px,80px)}17.94%{transform:translate(400px,0px)}18.21%{transform:translate(384px,0px)}18.47%{transform:translate(384px,16px)}19.79%{transform:translate(464px,16px)}20.05%{transform:translate(464px,32px)}20.32%{transform:translate(480px,32px)}20.84%{transform:translate(480px,64px)}21.64%{transform:translate(432px,64px)}22.16%{transform:translate(432px,96px)}24.27%{transform:translate(560px,96px)}24.8%{transform:translate(560px,64px)}25.07%{transform:translate(544px,64px)}26.12%{transform:translate(544px,0px)}27.18%{transform:translate(480px,0px)}27.44%{transform:translate(480px,-16px)}30.34%{transform:translate(656px,-16px)}30.87%{transform:translate(656px,16px)}33.77%{transform:translate(832px,16px)}34.04%{transform:translate(832px,0px)}35.09%,84.7%{transform:translate(768px,0px)}35.62%,38.79%{transform:translate(768px,32px)}36.68%{transform:translate(832px,32px)}36.94%{transform:translate(832px,48px)}38.26%{transform:translate(752px,48px)}38.52%,83.91%{transform:translate(752px,32px)}39.31%{transform:translate(768px,64px)}40.37%{transform:translate(832px,64px)}40.63%{transform:translate(832px,80px)}41.69%{transform:translate(768px,80px)}41.95%,50.92%{transform:translate(768px,96px)}42.74%{transform:translate(816px,96px)}43.27%{transform:translate(816px,64px)}44.85%{transform:translate(720px,64px)}45.38%{transform:translate(720px,32px)}45.65%{transform:translate(704px,32px)}45.91%,55.41%{transform:translate(704px,48px)}46.17%,54.09%,57.26%{transform:translate(720px,48px)}46.7%,49.34%{transform:translate(720px,80px)}47.23%{transform:translate(688px,80px)}47.49%{transform:translate(688px,64px)}48.02%{transform:translate(656px,64px)}48.28%{transform:translate(656px,80px)}49.87%,58.84%{transform:translate(720px,112px)}50.4%{transform:translate(752px,112px)}50.66%{transform:translate(752px,96px)}52.24%,84.96%{transform:translate(768px,16px)}52.77%{transform:translate(736px,16px)}53.03%{transform:translate(736px,0px)}53.3%{transform:translate(720px,0px)}54.35%{transform:translate(736px,48px)}54.62%{transform:translate(736px,64px)}55.15%{transform:translate(704px,64px)}55.67%{transform:translate(688px,48px)}55.94%{transform:translate(688px,32px)}56.2%{transform:translate(672px,32px)}56.46%{transform:translate(672px,48px)}58.05%{transform:translate(720px,96px)}58.31%,82.59%{transform:translate(736px,96px)}58.58%{transform:translate(736px,112px)}60.42%{transform:translate(720px,16px)}67.02%{transform:translate(320px,16px)}67.28%{transform:translate(320px,32px)}70.18%{transform:translate(144px,32px)}70.45%{transform:translate(144px,48px)}71.24%,97.63%{transform:translate(96px,48px)}72.03%{transform:translate(96px,96px)}83.64%{transform:translate(736px,32px)}84.43%{transform:translate(752px,0px)}85.22%{transform:translate(752px,16px)}86.28%{transform:translate(752px,80px)}96.57%{transform:translate(128px,80px)}96.83%{transform:translate(128px,64px)}97.89%{transform:translate(80px,48px)}98.42%{transform:translate(64px,32px)}99.21%{transform:translate(64px,-16px)}}.s.s2{transform:translate(32px,-16px);animation-name:s2}@keyframes s3{0%,99.74%{transform:translate(48px,-16px)}0.79%{transform:translate(0px,-16px)}1.06%{transform:translate(0px,0px)}2.9%{transform:translate(112px,0px)}3.17%{transform:translate(112px,16px)}3.69%{transform:translate(144px,16px)}3.96%{transform:translate(144px,0px)}4.22%{transform:translate(160px,0px)}5.28%{transform:translate(160px,64px)}6.33%,97.63%{transform:translate(96px,64px)}6.6%{transform:translate(96px,80px)}6.86%,10.55%{transform:translate(80px,80px)}7.65%,98.42%{transform:translate(80px,32px)}8.44%{transform:translate(32px,32px)}9.5%{transform:translate(32px,96px)}10.29%{transform:translate(80px,96px)}12.4%{transform:translate(192px,80px)}12.66%{transform:translate(192px,64px)}14.51%{transform:translate(304px,64px)}14.78%{transform:translate(304px,48px)}15.3%{transform:translate(336px,48px)}15.83%{transform:translate(336px,80px)}16.89%{transform:translate(400px,80px)}18.21%{transform:translate(400px,0px)}18.47%{transform:translate(384px,0px)}18.73%{transform:translate(384px,16px)}20.05%{transform:translate(464px,16px)}20.32%{transform:translate(464px,32px)}20.58%{transform:translate(480px,32px)}21.11%{transform:translate(480px,64px)}21.9%{transform:translate(432px,64px)}22.43%{transform:translate(432px,96px)}24.54%{transform:translate(560px,96px)}25.07%{transform:translate(560px,64px)}25.33%{transform:translate(544px,64px)}26.39%{transform:translate(544px,0px)}27.44%{transform:translate(480px,0px)}27.7%{transform:translate(480px,-16px)}30.61%{transform:translate(656px,-16px)}31.13%{transform:translate(656px,16px)}34.04%{transform:translate(832px,16px)}34.3%{transform:translate(832px,0px)}35.36%,84.96%{transform:translate(768px,0px)}35.88%,39.05%{transform:translate(768px,32px)}36.94%{transform:translate(832px,32px)}37.2%{transform:translate(832px,48px)}38.52%{transform:translate(752px,48px)}38.79%,84.17%{transform:translate(752px,32px)}39.58%{transform:translate(768px,64px)}40.63%{transform:translate(832px,64px)}40.9%{transform:translate(832px,80px)}41.95%{transform:translate(768px,80px)}42.22%,51.19%{transform:translate(768px,96px)}43.01%{transform:translate(816px,96px)}43.54%{transform:translate(816px,64px)}45.12%{transform:translate(720px,64px)}45.65%{transform:translate(720px,32px)}45.91%{transform:translate(704px,32px)}46.17%,55.67%{transform:translate(704px,48px)}46.44%,54.35%,57.52%{transform:translate(720px,48px)}46.97%,49.6%{transform:translate(720px,80px)}47.49%{transform:translate(688px,80px)}47.76%{transform:translate(688px,64px)}48.28%{transform:translate(656px,64px)}48.55%{transform:translate(656px,80px)}50.13%,59.1%{transform:translate(720px,112px)}50.66%{transform:translate(752px,112px)}50.92%{transform:translate(752px,96px)}52.51%,85.22%{transform:translate(768px,16px)}53.03%{transform:translate(736px,16px)}53.3%{transform:translate(736px,0px)}53.56%{transform:translate(720px,0px)}54.62%{transform:translate(736px,48px)}54.88%{transform:translate(736px,64px)}55.41%{transform:translate(704px,64px)}55.94%{transform:translate(688px,48px)}56.2%{transform:translate(688px,32px)}56.46%{transform:translate(672px,32px)}56.73%{transform:translate(672px,48px)}58.31%{transform:translate(720px,96px)}58.58%,82.85%{transform:translate(736px,96px)}58.84%{transform:translate(736px,112px)}60.69%{transform:translate(720px,16px)}67.28%{transform:translate(320px,16px)}67.55%{transform:translate(320px,32px)}70.45%{transform:translate(144px,32px)}70.71%{transform:translate(144px,48px)}71.5%,97.89%{transform:translate(96px,48px)}72.3%{transform:translate(96px,96px)}83.91%{transform:translate(736px,32px)}84.7%{transform:translate(752px,0px)}85.49%{transform:translate(752px,16px)}86.54%{transform:translate(752px,80px)}96.83%{transform:translate(128px,80px)}97.1%{transform:translate(128px,64px)}98.15%{transform:translate(80px,48px)}98.68%{transform:translate(64px,32px)}99.47%{transform:translate(64px,-16px)}}.s.s3{transform:translate(48px,-16px);animation-name:s3}</style><rect class="c" x="2" y="2" rx="2" ry="2"/><rect class="c" x="2" y="18" rx="2" ry="2"/><rect class="c" x="2" y="34" rx="2" ry="2"/><rect class="c" x="2" y="50" rx="2" ry="2"/><rect class="c" x="2" y="66" rx="2" ry="2"/><rect class="c" x="2" y="82" rx="2" ry="2"/><rect class="c" x="2" y="98" rx="2" ry="2"/><rect class="c" x="18" y="2" rx="2" ry="2"/><rect class="c" x="18" y="18" rx="2" ry="2"/><rect class="c" x="18" y="34" rx="2" ry="2"/><rect class="c" x="18" y="50" rx="2" ry="2"/><rect class="c" x="18" y="66" rx="2" ry="2"/><rect class="c" x="18" y="82" rx="2" ry="2"/><rect class="c" x="18" y="98" rx="2" ry="2"/><rect class="c" x="34" y="2" rx="2" ry="2"/><rect class="c" x="34" y="18" rx="2" ry="2"/><rect class="c" x="34" y="34" rx="2" ry="2"/><rect class="c" x="34" y="50" rx="2" ry="2"/><rect class="c" x="34" y="66" rx="2" ry="2"/><rect class="c" x="34" y="82" rx="2" ry="2"/><rect class="c c0" x="34" y="98" rx="2" ry="2"/><rect class="c" x="50" y="2" rx="2" ry="2"/><rect class="c" x="50" y="18" rx="2" ry="2"/><rect class="c" x="50" y="34" rx="2" ry="2"/><rect class="c" x="50" y="50" rx="2" ry="2"/><rect class="c" x="50" y="66" rx="2" ry="2"/><rect class="c" x="50" y="82" rx="2" ry="2"/><rect class="c" x="50" y="98" rx="2" ry="2"/><rect class="c" x="66" y="2" rx="2" ry="2"/><rect class="c" x="66" y="18" rx="2" ry="2"/><rect class="c" x="66" y="34" rx="2" ry="2"/><rect class="c" x="66" y="50" rx="2" ry="2"/><rect class="c" x="66" y="66" rx="2" ry="2"/><rect class="c" x="66" y="82" rx="2" ry="2"/><rect class="c" x="66" y="98" rx="2" ry="2"/><rect class="c c1" x="82" y="2" rx="2" ry="2"/><rect class="c" x="82" y="18" rx="2" ry="2"/><rect class="c c2" x="82" y="34" rx="2" ry="2"/><rect class="c" x="82" y="50" rx="2" ry="2"/><rect class="c" x="82" y="66" rx="2" ry="2"/><rect class="c" x="82" y="82" rx="2" ry="2"/><rect class="c" x="82" y="98" rx="2" ry="2"/><rect class="c" x="98" y="2" rx="2" ry="2"/><rect class="c" x="98" y="18" rx="2" ry="2"/><rect class="c" x="98" y="34" rx="2" ry="2"/><rect class="c" x="98" y="50" rx="2" ry="2"/><rect class="c" x="98" y="66" rx="2" ry="2"/><rect class="c c3" x="98" y="82" rx="2" ry="2"/><rect class="c c4" x="98" y="98" rx="2" ry="2"/><rect class="c c5" x="114" y="2" rx="2" ry="2"/><rect class="c c6" x="114" y="18" rx="2" ry="2"/><rect class="c" x="114" y="34" rx="2" ry="2"/><rect class="c" x="114" y="50" rx="2" ry="2"/><rect class="c" x="114" y="66" rx="2" ry="2"/><rect class="c" x="114" y="82" rx="2" ry="2"/><rect class="c" x="114" y="98" rx="2" ry="2"/><rect class="c" x="130" y="2" rx="2" ry="2"/><rect class="c" x="130" y="18" rx="2" ry="2"/><rect class="c" x="130" y="34" rx="2" ry="2"/><rect class="c" x="130" y="50" rx="2" ry="2"/><rect class="c" x="130" y="66" rx="2" ry="2"/><rect class="c" x="130" y="82" rx="2" ry="2"/><rect class="c" x="130" y="98" rx="2" ry="2"/><rect class="c c7" x="146" y="2" rx="2" ry="2"/><rect class="c c8" x="146" y="18" rx="2" ry="2"/><rect class="c" x="146" y="34" rx="2" ry="2"/><rect class="c c9" x="146" y="50" rx="2" ry="2"/><rect class="c ca" x="146" y="66" rx="2" ry="2"/><rect class="c" x="146" y="82" rx="2" ry="2"/><rect class="c" x="146" y="98" rx="2" ry="2"/><rect class="c" x="162" y="2" rx="2" ry="2"/><rect class="c" x="162" y="18" rx="2" ry="2"/><rect class="c" x="162" y="34" rx="2" ry="2"/><rect class="c" x="162" y="50" rx="2" ry="2"/><rect class="c" x="162" y="66" rx="2" ry="2"/><rect class="c" x="162" y="82" rx="2" ry="2"/><rect class="c" x="162" y="98" rx="2" ry="2"/><rect class="c" x="178" y="2" rx="2" ry="2"/><rect class="c" x="178" y="18" rx="2" ry="2"/><rect class="c" x="178" y="34" rx="2" ry="2"/><rect class="c" x="178" y="50" rx="2" ry="2"/><rect class="c" x="178" y="66" rx="2" ry="2"/><rect class="c" x="178" y="82" rx="2" ry="2"/><rect class="c" x="178" y="98" rx="2" ry="2"/><rect class="c" x="194" y="2" rx="2" ry="2"/><rect class="c" x="194" y="18" rx="2" ry="2"/><rect class="c" x="194" y="34" rx="2" ry="2"/><rect class="c" x="194" y="50" rx="2" ry="2"/><rect class="c cb" x="194" y="66" rx="2" ry="2"/><rect class="c cc" x="194" y="82" rx="2" ry="2"/><rect class="c" x="194" y="98" rx="2" ry="2"/><rect class="c" x="210" y="2" rx="2" ry="2"/><rect class="c" x="210" y="18" rx="2" ry="2"/><rect class="c" x="210" y="34" rx="2" ry="2"/><rect class="c" x="210" y="50" rx="2" ry="2"/><rect class="c" x="210" y="66" rx="2" ry="2"/><rect class="c" x="210" y="82" rx="2" ry="2"/><rect class="c" x="210" y="98" rx="2" ry="2"/><rect class="c" x="226" y="2" rx="2" ry="2"/><rect class="c" x="226" y="18" rx="2" ry="2"/><rect class="c" x="226" y="34" rx="2" ry="2"/><rect class="c" x="226" y="50" rx="2" ry="2"/><rect class="c" x="226" y="66" rx="2" ry="2"/><rect class="c" x="226" y="82" rx="2" ry="2"/><rect class="c" x="226" y="98" rx="2" ry="2"/><rect class="c" x="242" y="2" rx="2" ry="2"/><rect class="c" x="242" y="18" rx="2" ry="2"/><rect class="c" x="242" y="34" rx="2" ry="2"/><rect class="c" x="242" y="50" rx="2" ry="2"/><rect class="c" x="242" y="66" rx="2" ry="2"/><rect class="c" x="242" y="82" rx="2" ry="2"/><rect class="c" x="242" y="98" rx="2" ry="2"/><rect class="c" x="258" y="2" rx="2" ry="2"/><rect class="c" x="258" y="18" rx="2" ry="2"/><rect class="c" x="258" y="34" rx="2" ry="2"/><rect class="c" x="258" y="50" rx="2" ry="2"/><rect class="c" x="258" y="66" rx="2" ry="2"/><rect class="c" x="258" y="82" rx="2" ry="2"/><rect class="c" x="258" y="98" rx="2" ry="2"/><rect class="c" x="274" y="2" rx="2" ry="2"/><rect class="c" x="274" y="18" rx="2" ry="2"/><rect class="c" x="274" y="34" rx="2" ry="2"/><rect class="c" x="274" y="50" rx="2" ry="2"/><rect class="c" x="274" y="66" rx="2" ry="2"/><rect class="c" x="274" y="82" rx="2" ry="2"/><rect class="c" x="274" y="98" rx="2" ry="2"/><rect class="c" x="290" y="2" rx="2" ry="2"/><rect class="c" x="290" y="18" rx="2" ry="2"/><rect class="c" x="290" y="34" rx="2" ry="2"/><rect class="c" x="290" y="50" rx="2" ry="2"/><rect class="c" x="290" y="66" rx="2" ry="2"/><rect class="c" x="290" y="82" rx="2" ry="2"/><rect class="c" x="290" y="98" rx="2" ry="2"/><rect class="c" x="306" y="2" rx="2" ry="2"/><rect class="c" x="306" y="18" rx="2" ry="2"/><rect class="c" x="306" y="34" rx="2" ry="2"/><rect class="c cd" x="306" y="50" rx="2" ry="2"/><rect class="c" x="306" y="66" rx="2" ry="2"/><rect class="c" x="306" y="82" rx="2" ry="2"/><rect class="c" x="306" y="98" rx="2" ry="2"/><rect class="c" x="322" y="2" rx="2" ry="2"/><rect class="c" x="322" y="18" rx="2" ry="2"/><rect class="c ce" x="322" y="34" rx="2" ry="2"/><rect class="c cf" x="322" y="50" rx="2" ry="2"/><rect class="c" x="322" y="66" rx="2" ry="2"/><rect class="c" x="322" y="82" rx="2" ry="2"/><rect class="c" x="322" y="98" rx="2" ry="2"/><rect class="c" x="338" y="2" rx="2" ry="2"/><rect class="c" x="338" y="18" rx="2" ry="2"/><rect class="c" x="338" y="34" rx="2" ry="2"/><rect class="c" x="338" y="50" rx="2" ry="2"/><rect class="c" x="338" y="66" rx="2" ry="2"/><rect class="c cg" x="338" y="82" rx="2" ry="2"/><rect class="c" x="338" y="98" rx="2" ry="2"/><rect class="c" x="354" y="2" rx="2" ry="2"/><rect class="c" x="354" y="18" rx="2" ry="2"/><rect class="c" x="354" y="34" rx="2" ry="2"/><rect class="c" x="354" y="50" rx="2" ry="2"/><rect class="c" x="354" y="66" rx="2" ry="2"/><rect class="c" x="354" y="82" rx="2" ry="2"/><rect class="c" x="354" y="98" rx="2" ry="2"/><rect class="c" x="370" y="2" rx="2" ry="2"/><rect class="c" x="370" y="18" rx="2" ry="2"/><rect class="c" x="370" y="34" rx="2" ry="2"/><rect class="c" x="370" y="50" rx="2" ry="2"/><rect class="c" x="370" y="66" rx="2" ry="2"/><rect class="c ch" x="370" y="82" rx="2" ry="2"/><rect class="c" x="370" y="98" rx="2" ry="2"/><rect class="c ci" x="386" y="2" rx="2" ry="2"/><rect class="c" x="386" y="18" rx="2" ry="2"/><rect class="c" x="386" y="34" rx="2" ry="2"/><rect class="c" x="386" y="50" rx="2" ry="2"/><rect class="c" x="386" y="66" rx="2" ry="2"/><rect class="c cj" x="386" y="82" rx="2" ry="2"/><rect class="c" x="386" y="98" rx="2" ry="2"/><rect class="c ck" x="402" y="2" rx="2" ry="2"/><rect class="c cl" x="402" y="18" rx="2" ry="2"/><rect class="c" x="402" y="34" rx="2" ry="2"/><rect class="c cm" x="402" y="50" rx="2" ry="2"/><rect class="c" x="402" y="66" rx="2" ry="2"/><rect class="c" x="402" y="82" rx="2" ry="2"/><rect class="c" x="402" y="98" rx="2" ry="2"/><rect class="c" x="418" y="2" rx="2" ry="2"/><rect class="c" x="418" y="18" rx="2" ry="2"/><rect class="c" x="418" y="34" rx="2" ry="2"/><rect class="c" x="418" y="50" rx="2" ry="2"/><rect class="c" x="418" y="66" rx="2" ry="2"/><rect class="c" x="418" y="82" rx="2" ry="2"/><rect class="c" x="418" y="98" rx="2" ry="2"/><rect class="c" x="434" y="2" rx="2" ry="2"/><rect class="c" x="434" y="18" rx="2" ry="2"/><rect class="c" x="434" y="34" rx="2" ry="2"/><rect class="c" x="434" y="50" rx="2" ry="2"/><rect class="c cn" x="434" y="66" rx="2" ry="2"/><rect class="c" x="434" y="82" rx="2" ry="2"/><rect class="c co" x="434" y="98" rx="2" ry="2"/><rect class="c" x="450" y="2" rx="2" ry="2"/><rect class="c" x="450" y="18" rx="2" ry="2"/><rect class="c" x="450" y="34" rx="2" ry="2"/><rect class="c" x="450" y="50" rx="2" ry="2"/><rect class="c cp" x="450" y="66" rx="2" ry="2"/><rect class="c" x="450" y="82" rx="2" ry="2"/><rect class="c" x="450" y="98" rx="2" ry="2"/><rect class="c" x="466" y="2" rx="2" ry="2"/><rect class="c" x="466" y="18" rx="2" ry="2"/><rect class="c cq" x="466" y="34" rx="2" ry="2"/><rect class="c" x="466" y="50" rx="2" ry="2"/><rect class="c" x="466" y="66" rx="2" ry="2"/><rect class="c" x="466" y="82" rx="2" ry="2"/><rect class="c" x="466" y="98" rx="2" ry="2"/><rect class="c cr" x="482" y="2" rx="2" ry="2"/><rect class="c cs" x="482" y="18" rx="2" ry="2"/><rect class="c" x="482" y="34" rx="2" ry="2"/><rect class="c" x="482" y="50" rx="2" ry="2"/><rect class="c ct" x="482" y="66" rx="2" ry="2"/><rect class="c" x="482" y="82" rx="2" ry="2"/><rect class="c" x="482" y="98" rx="2" ry="2"/><rect class="c" x="498" y="2" rx="2" ry="2"/><rect class="c" x="498" y="18" rx="2" ry="2"/><rect class="c" x="498" y="34" rx="2" ry="2"/><rect class="c" x="498" y="50" rx="2" ry="2"/><rect class="c" x="498" y="66" rx="2" ry="2"/><rect class="c" x="498" y="82" rx="2" ry="2"/><rect class="c" x="498" y="98" rx="2" ry="2"/><rect class="c" x="514" y="2" rx="2" ry="2"/><rect class="c" x="514" y="18" rx="2" ry="2"/><rect class="c" x="514" y="34" rx="2" ry="2"/><rect class="c" x="514" y="50" rx="2" ry="2"/><rect class="c" x="514" y="66" rx="2" ry="2"/><rect class="c" x="514" y="82" rx="2" ry="2"/><rect class="c" x="514" y="98" rx="2" ry="2"/><rect class="c" x="530" y="2" rx="2" ry="2"/><rect class="c" x="530" y="18" rx="2" ry="2"/><rect class="c" x="530" y="34" rx="2" ry="2"/><rect class="c" x="530" y="50" rx="2" ry="2"/><rect class="c" x="530" y="66" rx="2" ry="2"/><rect class="c" x="530" y="82" rx="2" ry="2"/><rect class="c" x="530" y="98" rx="2" ry="2"/><rect class="c" x="546" y="2" rx="2" ry="2"/><rect class="c" x="546" y="18" rx="2" ry="2"/><rect class="c" x="546" y="34" rx="2" ry="2"/><rect class="c" x="546" y="50" rx="2" ry="2"/><rect class="c cu" x="546" y="66" rx="2" ry="2"/><rect class="c" x="546" y="82" rx="2" ry="2"/><rect class="c" x="546" y="98" rx="2" ry="2"/><rect class="c" x="562" y="2" rx="2" ry="2"/><rect class="c" x="562" y="18" rx="2" ry="2"/><rect class="c" x="562" y="34" rx="2" ry="2"/><rect class="c" x="562" y="50" rx="2" ry="2"/><rect class="c" x="562" y="66" rx="2" ry="2"/><rect class="c cv" x="562" y="82" rx="2" ry="2"/><rect class="c" x="562" y="98" rx="2" ry="2"/><rect class="c" x="578" y="2" rx="2" ry="2"/><rect class="c" x="578" y="18" rx="2" ry="2"/><rect class="c" x="578" y="34" rx="2" ry="2"/><rect class="c" x="578" y="50" rx="2" ry="2"/><rect class="c" x="578" y="66" rx="2" ry="2"/><rect class="c" x="578" y="82" rx="2" ry="2"/><rect class="c" x="578" y="98" rx="2" ry="2"/><rect class="c" x="594" y="2" rx="2" ry="2"/><rect class="c" x="594" y="18" rx="2" ry="2"/><rect class="c" x="594" y="34" rx="2" ry="2"/><rect class="c" x="594" y="50" rx="2" ry="2"/><rect class="c" x="594" y="66" rx="2" ry="2"/><rect class="c" x="594" y="82" rx="2" ry="2"/><rect class="c" x="594" y="98" rx="2" ry="2"/><rect class="c" x="610" y="2" rx="2" ry="2"/><rect class="c" x="610" y="18" rx="2" ry="2"/><rect class="c" x="610" y="34" rx="2" ry="2"/><rect class="c" x="610" y="50" rx="2" ry="2"/><rect class="c" x="610" y="66" rx="2" ry="2"/><rect class="c" x="610" y="82" rx="2" ry="2"/><rect class="c" x="610" y="98" rx="2" ry="2"/><rect class="c" x="626" y="2" rx="2" ry="2"/><rect class="c" x="626" y="18" rx="2" ry="2"/><rect class="c" x="626" y="34" rx="2" ry="2"/><rect class="c" x="626" y="50" rx="2" ry="2"/><rect class="c" x="626" y="66" rx="2" ry="2"/><rect class="c" x="626" y="82" rx="2" ry="2"/><rect class="c" x="626" y="98" rx="2" ry="2"/><rect class="c" x="642" y="2" rx="2" ry="2"/><rect class="c" x="642" y="18" rx="2" ry="2"/><rect class="c" x="642" y="34" rx="2" ry="2"/><rect class="c" x="642" y="50" rx="2" ry="2"/><rect class="c" x="642" y="66" rx="2" ry="2"/><rect class="c" x="642" y="82" rx="2" ry="2"/><rect class="c" x="642" y="98" rx="2" ry="2"/><rect class="c" x="658" y="2" rx="2" ry="2"/><rect class="c cw" x="658" y="18" rx="2" ry="2"/><rect class="c" x="658" y="34" rx="2" ry="2"/><rect class="c" x="658" y="50" rx="2" ry="2"/><rect class="c cx" x="658" y="66" rx="2" ry="2"/><rect class="c cy" x="658" y="82" rx="2" ry="2"/><rect class="c" x="658" y="98" rx="2" ry="2"/><rect class="c" x="674" y="2" rx="2" ry="2"/><rect class="c cz" x="674" y="18" rx="2" ry="2"/><rect class="c c10" x="674" y="34" rx="2" ry="2"/><rect class="c" x="674" y="50" rx="2" ry="2"/><rect class="c" x="674" y="66" rx="2" ry="2"/><rect class="c" x="674" y="82" rx="2" ry="2"/><rect class="c" x="674" y="98" rx="2" ry="2"/><rect class="c" x="690" y="2" rx="2" ry="2"/><rect class="c c11" x="690" y="18" rx="2" ry="2"/><rect class="c" x="690" y="34" rx="2" ry="2"/><rect class="c c12" x="690" y="50" rx="2" ry="2"/><rect class="c c13" x="690" y="66" rx="2" ry="2"/><rect class="c" x="690" y="82" rx="2" ry="2"/><rect class="c" x="690" y="98" rx="2" ry="2"/><rect class="c" x="706" y="2" rx="2" ry="2"/><rect class="c" x="706" y="18" rx="2" ry="2"/><rect class="c c14" x="706" y="34" rx="2" ry="2"/><rect class="c c15" x="706" y="50" rx="2" ry="2"/><rect class="c c16" x="706" y="66" rx="2" ry="2"/><rect class="c c17" x="706" y="82" rx="2" ry="2"/><rect class="c" x="706" y="98" rx="2" ry="2"/><rect class="c" x="722" y="2" rx="2" ry="2"/><rect class="c c18" x="722" y="18" rx="2" ry="2"/><rect class="c c19" x="722" y="34" rx="2" ry="2"/><rect class="c c1a" x="722" y="50" rx="2" ry="2"/><rect class="c" x="722" y="66" rx="2" ry="2"/><rect class="c c1b" x="722" y="82" rx="2" ry="2"/><rect class="c" x="722" y="98" rx="2" ry="2"/><rect class="c c1c" x="738" y="2" rx="2" ry="2"/><rect class="c c1d" x="738" y="18" rx="2" ry="2"/><rect class="c c1e" x="738" y="34" rx="2" ry="2"/><rect class="c c1f" x="738" y="50" rx="2" ry="2"/><rect class="c c1g" x="738" y="66" rx="2" ry="2"/><rect class="c c1h" x="738" y="82" rx="2" ry="2"/><rect class="c c1i" x="738" y="98" rx="2" ry="2"/><rect class="c c1j" x="754" y="2" rx="2" ry="2"/><rect class="c c1k" x="754" y="18" rx="2" ry="2"/><rect class="c c1l" x="754" y="34" rx="2" ry="2"/><rect class="c c1m" x="754" y="50" rx="2" ry="2"/><rect class="c c1n" x="754" y="66" rx="2" ry="2"/><rect class="c c1o" x="754" y="82" rx="2" ry="2"/><rect class="c c1p" x="754" y="98" rx="2" ry="2"/><rect class="c c1q" x="770" y="2" rx="2" ry="2"/><rect class="c c1r" x="770" y="18" rx="2" ry="2"/><rect class="c c1s" x="770" y="34" rx="2" ry="2"/><rect class="c c1t" x="770" y="50" rx="2" ry="2"/><rect class="c c1u" x="770" y="66" rx="2" ry="2"/><rect class="c c1v" x="770" y="82" rx="2" ry="2"/><rect class="c c1w" x="770" y="98" rx="2" ry="2"/><rect class="c c1x" x="786" y="2" rx="2" ry="2"/><rect class="c c1y" x="786" y="18" rx="2" ry="2"/><rect class="c c1z" x="786" y="34" rx="2" ry="2"/><rect class="c c20" x="786" y="50" rx="2" ry="2"/><rect class="c c21" x="786" y="66" rx="2" ry="2"/><rect class="c c22" x="786" y="82" rx="2" ry="2"/><rect class="c c23" x="786" y="98" rx="2" ry="2"/><rect class="c c24" x="802" y="2" rx="2" ry="2"/><rect class="c c25" x="802" y="18" rx="2" ry="2"/><rect class="c c26" x="802" y="34" rx="2" ry="2"/><rect class="c c27" x="802" y="50" rx="2" ry="2"/><rect class="c c28" x="802" y="66" rx="2" ry="2"/><rect class="c c29" x="802" y="82" rx="2" ry="2"/><rect class="c c2a" x="802" y="98" rx="2" ry="2"/><rect class="c c2b" x="818" y="2" rx="2" ry="2"/><rect class="c c2c" x="818" y="18" rx="2" ry="2"/><rect class="c c2d" x="818" y="34" rx="2" ry="2"/><rect class="c c2e" x="818" y="50" rx="2" ry="2"/><rect class="c c2f" x="818" y="66" rx="2" ry="2"/><rect class="c c2g" x="818" y="82" rx="2" ry="2"/><rect class="c c2h" x="818" y="98" rx="2" ry="2"/><rect class="c c2i" x="834" y="2" rx="2" ry="2"/><rect class="c c2j" x="834" y="18" rx="2" ry="2"/><rect class="c c2k" x="834" y="34" rx="2" ry="2"/><rect class="c c2l" x="834" y="50" rx="2" ry="2"/><rect class="c c2m" x="834" y="66" rx="2" ry="2"/><rect class="u u0" height="12" width="732.6" x="0.0" y="144"/><rect class="u u1" height="12" width="80.9" x="732.0" y="144"/><rect class="u u2" height="12" width="18.5" x="812.3" y="144"/><rect class="u u3" height="12" width="18.5" x="830.1" y="144"/><rect class="s s0" x="0.8" y="0.8" width="14.4" height="14.4" rx="4.5" ry="4.5"/><rect class="s s1" x="1.8" y="1.8" width="12.3" height="12.3" rx="4.1" ry="4.1"/><rect class="s s2" x="2.6" y="2.6" width="10.8" height="10.8" rx="3.6" ry="3.6"/><rect class="s s3" x="3.0" y="3.0" width="9.9" height="9.9" rx="3.3" ry="3.3"/></svg>