<svg viewBox="-16 -32 880 192" width="880" height="192" xmlns="http://www.w3.org/2000/svg"><desc>Generated with https://github.com/Platane/snk</desc><style>:root{--cb:#1b1f230a;--cs:white;--ce:#0a0e12;--c0:#0a0e12;--c1:#1445a2;--c2:#1d65ee;--c3:#1f4eff;--c4:#466dff}.c{shape-rendering:geometricPrecision;fill:var(--ce);stroke-width:1px;stroke:var(--cb);animation:none 36500ms linear infinite;width:12px;height:12px}@keyframes c0{7.11%{fill:var(--c1)}7.13%,100%{fill:var(--ce)}}.c.c0{fill:var(--c1);animation-name:c0}@keyframes c1{0.81%{fill:var(--c1)}0.83%,100%{fill:var(--ce)}}.c.c1{fill:var(--c1);animation-name:c1}@keyframes c2{1.09%{fill:var(--c1)}1.11%,100%{fill:var(--ce)}}.c.c2{fill:var(--c1);animation-name:c2}@keyframes c3{6.84%{fill:var(--c1)}6.86%,100%{fill:var(--ce)}}.c.c3{fill:var(--c1);animation-name:c3}@keyframes c4{1.36%{fill:var(--c1)}1.38%,100%{fill:var(--ce)}}.c.c4{fill:var(--c1);animation-name:c4}@keyframes c5{6.02%{fill:var(--c1)}6.04%,100%{fill:var(--ce)}}.c.c5{fill:var(--c1);animation-name:c5}@keyframes c6{6.57%{fill:var(--c1)}6.59%,100%{fill:var(--ce)}}.c.c6{fill:var(--c1);animation-name:c6}@keyframes c7{2.46%{fill:var(--c1)}2.48%,100%{fill:var(--ce)}}.c.c7{fill:var(--c1);animation-name:c7}@keyframes c8{5.47%{fill:var(--c1)}5.49%,100%{fill:var(--ce)}}.c.c8{fill:var(--c1);animation-name:c8}@keyframes c9{1.91%{fill:var(--c1)}1.93%,100%{fill:var(--ce)}}.c.c9{fill:var(--c1);animation-name:c9}@keyframes ca{3%{fill:var(--c1)}3.02%,100%{fill:var(--ce)}}.c.ca{fill:var(--c1);animation-name:ca}@keyframes cb{78.35%{fill:var(--c2)}78.37%,100%{fill:var(--ce)}}.c.cb{fill:var(--c2);animation-name:cb}@keyframes cc{5.2%{fill:var(--c1)}5.22%,100%{fill:var(--ce)}}.c.cc{fill:var(--c1);animation-name:cc}@keyframes cd{3.28%{fill:var(--c1)}3.3%,100%{fill:var(--ce)}}.c.cd{fill:var(--c1);animation-name:cd}@keyframes ce{4.1%{fill:var(--c1)}4.12%,100%{fill:var(--ce)}}.c.ce{fill:var(--c1);animation-name:ce}@keyframes cf{4.37%{fill:var(--c1)}4.39%,100%{fill:var(--ce)}}.c.cf{fill:var(--c1);animation-name:cf}@keyframes cg{50.67%{fill:var(--c1)}50.69%,100%{fill:var(--ce)}}.c.cg{fill:var(--c1);animation-name:cg}@keyframes ch{50.4%{fill:var(--c1)}50.42%,100%{fill:var(--ce)}}.c.ch{fill:var(--c1);animation-name:ch}@keyframes ci{51.5%{fill:var(--c1)}51.52%,100%{fill:var(--ce)}}.c.ci{fill:var(--c1);animation-name:ci}@keyframes cj{51.77%{fill:var(--c1)}51.79%,100%{fill:var(--ce)}}.c.cj{fill:var(--c1);animation-name:cj}@keyframes ck{49.85%{fill:var(--c1)}49.87%,100%{fill:var(--ce)}}.c.ck{fill:var(--c1);animation-name:ck}@keyframes cl{10.13%{fill:var(--c1)}10.15%,100%{fill:var(--ce)}}.c.cl{fill:var(--c1);animation-name:cl}@keyframes cm{10.4%{fill:var(--c1)}10.42%,100%{fill:var(--ce)}}.c.cm{fill:var(--c1);animation-name:cm}@keyframes cn{48.76%{fill:var(--c1)}48.78%,100%{fill:var(--ce)}}.c.cn{fill:var(--c1);animation-name:cn}@keyframes co{49.03%{fill:var(--c1)}49.05%,100%{fill:var(--ce)}}.c.co{fill:var(--c1);animation-name:co}@keyframes cp{48.48%{fill:var(--c1)}48.5%,100%{fill:var(--ce)}}.c.cp{fill:var(--c1);animation-name:cp}@keyframes cq{53.14%{fill:var(--c2)}53.16%,100%{fill:var(--ce)}}.c.cq{fill:var(--c2);animation-name:cq}@keyframes cr{12.04%{fill:var(--c1)}12.06%,100%{fill:var(--ce)}}.c.cr{fill:var(--c1);animation-name:cr}@keyframes cs{11.5%{fill:var(--c1)}11.52%,100%{fill:var(--ce)}}.c.cs{fill:var(--c1);animation-name:cs}@keyframes ct{12.87%{fill:var(--c1)}12.89%,100%{fill:var(--ce)}}.c.ct{fill:var(--c1);animation-name:ct}@keyframes cu{12.59%{fill:var(--c1)}12.61%,100%{fill:var(--ce)}}.c.cu{fill:var(--c1);animation-name:cu}@keyframes cv{13.14%{fill:var(--c1)}13.16%,100%{fill:var(--ce)}}.c.cv{fill:var(--c1);animation-name:cv}@keyframes cw{54.78%{fill:var(--c2)}54.8%,100%{fill:var(--ce)}}.c.cw{fill:var(--c2);animation-name:cw}@keyframes cx{46.29%{fill:var(--c1)}46.31%,100%{fill:var(--ce)}}.c.cx{fill:var(--c1);animation-name:cx}@keyframes cy{45.74%{fill:var(--c1)}45.76%,100%{fill:var(--ce)}}.c.cy{fill:var(--c1);animation-name:cy}@keyframes cz{13.96%{fill:var(--c1)}13.98%,100%{fill:var(--ce)}}.c.cz{fill:var(--c1);animation-name:cz}@keyframes c10{45.47%{fill:var(--c1)}45.49%,100%{fill:var(--ce)}}.c.c10{fill:var(--c1);animation-name:c10}@keyframes c11{16.43%{fill:var(--c1)}16.45%,100%{fill:var(--ce)}}.c.c11{fill:var(--c1);animation-name:c11}@keyframes c12{16.7%{fill:var(--c1)}16.72%,100%{fill:var(--ce)}}.c.c12{fill:var(--c1);animation-name:c12}@keyframes c13{87.39%{fill:var(--c3)}87.41%,100%{fill:var(--ce)}}.c.c13{fill:var(--c3);animation-name:c13}@keyframes c14{14.78%{fill:var(--c1)}14.8%,100%{fill:var(--ce)}}.c.c14{fill:var(--c1);animation-name:c14}@keyframes c15{16.15%{fill:var(--c1)}16.17%,100%{fill:var(--ce)}}.c.c15{fill:var(--c1);animation-name:c15}@keyframes c16{16.98%{fill:var(--c1)}17%,100%{fill:var(--ce)}}.c.c16{fill:var(--c1);animation-name:c16}@keyframes c17{83.55%{fill:var(--c3)}83.57%,100%{fill:var(--ce)}}.c.c17{fill:var(--c3);animation-name:c17}@keyframes c18{15.61%{fill:var(--c1)}15.63%,100%{fill:var(--ce)}}.c.c18{fill:var(--c1);animation-name:c18}@keyframes c19{17.52%{fill:var(--c1)}17.54%,100%{fill:var(--ce)}}.c.c19{fill:var(--c1);animation-name:c19}@keyframes c1a{83.83%{fill:var(--c3)}83.85%,100%{fill:var(--ce)}}.c.c1a{fill:var(--c3);animation-name:c1a}@keyframes c1b{43.83%{fill:var(--c1)}43.85%,100%{fill:var(--ce)}}.c.c1b{fill:var(--c1);animation-name:c1b}@keyframes c1c{56.7%{fill:var(--c2)}56.72%,100%{fill:var(--ce)}}.c.c1c{fill:var(--c2);animation-name:c1c}@keyframes c1d{18.07%{fill:var(--c1)}18.09%,100%{fill:var(--ce)}}.c.c1d{fill:var(--c1);animation-name:c1d}@keyframes c1e{41.91%{fill:var(--c1)}41.93%,100%{fill:var(--ce)}}.c.c1e{fill:var(--c1);animation-name:c1e}@keyframes c1f{84.65%{fill:var(--c3)}84.67%,100%{fill:var(--ce)}}.c.c1f{fill:var(--c3);animation-name:c1f}@keyframes c1g{57.25%{fill:var(--c2)}57.27%,100%{fill:var(--ce)}}.c.c1g{fill:var(--c2);animation-name:c1g}@keyframes c1h{90.67%{fill:var(--c4)}90.69%,100%{fill:var(--ce)}}.c.c1h{fill:var(--c4);animation-name:c1h}@keyframes c1i{42.46%{fill:var(--c1)}42.48%,100%{fill:var(--ce)}}.c.c1i{fill:var(--c1);animation-name:c1i}@keyframes c1j{61.91%{fill:var(--c2)}61.93%,100%{fill:var(--ce)}}.c.c1j{fill:var(--c2);animation-name:c1j}@keyframes c1k{91.77%{fill:var(--c4)}91.79%,100%{fill:var(--ce)}}.c.c1k{fill:var(--c4);animation-name:c1k}@keyframes c1l{20.26%{fill:var(--c1)}20.28%,100%{fill:var(--ce)}}.c.c1l{fill:var(--c1);animation-name:c1l}@keyframes c1m{19.99%{fill:var(--c1)}20.01%,100%{fill:var(--ce)}}.c.c1m{fill:var(--c1);animation-name:c1m}@keyframes c1n{90.4%{fill:var(--c3)}90.42%,100%{fill:var(--ce)}}.c.c1n{fill:var(--c3);animation-name:c1n}@keyframes c1o{85.74%{fill:var(--c3)}85.76%,100%{fill:var(--ce)}}.c.c1o{fill:var(--c3);animation-name:c1o}@keyframes c1p{61.36%{fill:var(--c2)}61.38%,100%{fill:var(--ce)}}.c.c1p{fill:var(--c2);animation-name:c1p}@keyframes c1q{19.44%{fill:var(--c1)}19.46%,100%{fill:var(--ce)}}.c.c1q{fill:var(--c1);animation-name:c1q}@keyframes c1r{60.26%{fill:var(--c2)}60.28%,100%{fill:var(--ce)}}.c.c1r{fill:var(--c2);animation-name:c1r}@keyframes c1s{59.99%{fill:var(--c2)}60.01%,100%{fill:var(--ce)}}.c.c1s{fill:var(--c2);animation-name:c1s}@keyframes c1t{58.35%{fill:var(--c2)}58.37%,100%{fill:var(--ce)}}.c.c1t{fill:var(--c2);animation-name:c1t}@keyframes c1u{58.07%{fill:var(--c2)}58.09%,100%{fill:var(--ce)}}.c.c1u{fill:var(--c2);animation-name:c1u}@keyframes c1v{63.55%{fill:var(--c2)}63.57%,100%{fill:var(--ce)}}.c.c1v{fill:var(--c2);animation-name:c1v}@keyframes c1w{59.44%{fill:var(--c2)}59.46%,100%{fill:var(--ce)}}.c.c1w{fill:var(--c2);animation-name:c1w}@keyframes c1x{59.17%{fill:var(--c2)}59.19%,100%{fill:var(--ce)}}.c.c1x{fill:var(--c2);animation-name:c1x}@keyframes c1y{58.89%{fill:var(--c2)}58.91%,100%{fill:var(--ce)}}.c.c1y{fill:var(--c2);animation-name:c1y}@keyframes c1z{22.46%{fill:var(--c1)}22.48%,100%{fill:var(--ce)}}.c.c1z{fill:var(--c1);animation-name:c1z}@keyframes c20{39.17%{fill:var(--c1)}39.19%,100%{fill:var(--ce)}}.c.c20{fill:var(--c1);animation-name:c20}@keyframes c21{23.55%{fill:var(--c1)}23.57%,100%{fill:var(--ce)}}.c.c21{fill:var(--c1);animation-name:c21}@keyframes c22{23.83%{fill:var(--c1)}23.85%,100%{fill:var(--ce)}}.c.c22{fill:var(--c1);animation-name:c22}@keyframes c23{38.89%{fill:var(--c1)}38.91%,100%{fill:var(--ce)}}.c.c23{fill:var(--c1);animation-name:c23}@keyframes c24{24.1%{fill:var(--c1)}24.12%,100%{fill:var(--ce)}}.c.c24{fill:var(--c1);animation-name:c24}@keyframes c25{25.2%{fill:var(--c1)}25.22%,100%{fill:var(--ce)}}.c.c25{fill:var(--c1);animation-name:c25}@keyframes c26{26.02%{fill:var(--c1)}26.04%,100%{fill:var(--ce)}}.c.c26{fill:var(--c1);animation-name:c26}@keyframes c27{28.76%{fill:var(--c1)}28.78%,100%{fill:var(--ce)}}.c.c27{fill:var(--c1);animation-name:c27}@keyframes c28{27.39%{fill:var(--c1)}27.41%,100%{fill:var(--ce)}}.c.c28{fill:var(--c1);animation-name:c28}@keyframes c29{27.94%{fill:var(--c1)}27.96%,100%{fill:var(--ce)}}.c.c29{fill:var(--c1);animation-name:c29}@keyframes c2a{67.94%{fill:var(--c2)}67.96%,100%{fill:var(--ce)}}.c.c2a{fill:var(--c2);animation-name:c2a}@keyframes c2b{67.66%{fill:var(--c2)}67.68%,100%{fill:var(--ce)}}.c.c2b{fill:var(--c2);animation-name:c2b}@keyframes c2c{30.95%{fill:var(--c1)}30.97%,100%{fill:var(--ce)}}.c.c2c{fill:var(--c1);animation-name:c2c}@keyframes c2d{31.77%{fill:var(--c1)}31.79%,100%{fill:var(--ce)}}.c.c2d{fill:var(--c1);animation-name:c2d}@keyframes c2e{33.14%{fill:var(--c1)}33.16%,100%{fill:var(--ce)}}.c.c2e{fill:var(--c1);animation-name:c2e}@keyframes c2f{32.59%{fill:var(--c1)}32.61%,100%{fill:var(--ce)}}.c.c2f{fill:var(--c1);animation-name:c2f}.u{transform-origin:0 0;transform:scale(0,1);animation:none linear 36500ms infinite}@keyframes u0{0.81%{transform:scale(0.000,1)}0.83%,1.09%{transform:scale(0.016,1)}1.11%,1.36%{transform:scale(0.032,1)}1.38%,1.91%{transform:scale(0.048,1)}1.93%,2.46%{transform:scale(0.063,1)}2.48%,3%{transform:scale(0.079,1)}3.02%,3.28%{transform:scale(0.095,1)}3.3%,4.1%{transform:scale(0.111,1)}4.12%,4.37%{transform:scale(0.127,1)}4.39%,5.2%{transform:scale(0.143,1)}5.22%,5.47%{transform:scale(0.159,1)}5.49%,6.02%{transform:scale(0.175,1)}6.04%,6.57%{transform:scale(0.190,1)}6.59%,6.84%{transform:scale(0.206,1)}6.86%,7.11%{transform:scale(0.222,1)}7.13%,10.13%{transform:scale(0.238,1)}10.15%,10.4%{transform:scale(0.254,1)}10.42%,11.5%{transform:scale(0.270,1)}11.52%,12.04%{transform:scale(0.286,1)}12.06%,12.59%{transform:scale(0.302,1)}12.61%,12.87%{transform:scale(0.317,1)}12.89%,13.14%{transform:scale(0.333,1)}13.16%,13.96%{transform:scale(0.349,1)}13.98%,14.78%{transform:scale(0.365,1)}14.8%,15.61%{transform:scale(0.381,1)}15.63%,16.15%{transform:scale(0.397,1)}16.17%,16.43%{transform:scale(0.413,1)}16.45%,16.7%{transform:scale(0.429,1)}16.72%,16.98%{transform:scale(0.444,1)}17%,17.52%{transform:scale(0.460,1)}17.54%,18.07%{transform:scale(0.476,1)}18.09%,19.44%{transform:scale(0.492,1)}19.46%,19.99%{transform:scale(0.508,1)}20.01%,20.26%{transform:scale(0.524,1)}20.28%,22.46%{transform:scale(0.540,1)}22.48%,23.55%{transform:scale(0.556,1)}23.57%,23.83%{transform:scale(0.571,1)}23.85%,24.1%{transform:scale(0.587,1)}24.12%,25.2%{transform:scale(0.603,1)}25.22%,26.02%{transform:scale(0.619,1)}26.04%,27.39%{transform:scale(0.635,1)}27.41%,27.94%{transform:scale(0.651,1)}27.96%,28.76%{transform:scale(0.667,1)}28.78%,30.95%{transform:scale(0.683,1)}30.97%,31.77%{transform:scale(0.698,1)}31.79%,32.59%{transform:scale(0.714,1)}32.61%,33.14%{transform:scale(0.730,1)}33.16%,38.89%{transform:scale(0.746,1)}38.91%,39.17%{transform:scale(0.762,1)}39.19%,41.91%{transform:scale(0.778,1)}41.93%,42.46%{transform:scale(0.794,1)}42.48%,43.83%{transform:scale(0.810,1)}43.85%,45.47%{transform:scale(0.825,1)}45.49%,45.74%{transform:scale(0.841,1)}45.76%,46.29%{transform:scale(0.857,1)}46.31%,48.48%{transform:scale(0.873,1)}48.5%,48.76%{transform:scale(0.889,1)}48.78%,49.03%{transform:scale(0.905,1)}49.05%,49.85%{transform:scale(0.921,1)}49.87%,50.4%{transform:scale(0.937,1)}50.42%,50.67%{transform:scale(0.952,1)}50.69%,51.5%{transform:scale(0.968,1)}51.52%,51.77%{transform:scale(0.984,1)}51.79%,100%{transform:scale(1.000,1)}}.u.u0{fill:var(--c1);animation-name:u0;transform-origin:0.0px 0}@keyframes u1{53.14%{transform:scale(0.000,1)}53.16%,54.78%{transform:scale(0.059,1)}54.8%,56.7%{transform:scale(0.118,1)}56.72%,57.25%{transform:scale(0.176,1)}57.27%,58.07%{transform:scale(0.235,1)}58.09%,58.35%{transform:scale(0.294,1)}58.37%,58.89%{transform:scale(0.353,1)}58.91%,59.17%{transform:scale(0.412,1)}59.19%,59.44%{transform:scale(0.471,1)}59.46%,59.99%{transform:scale(0.529,1)}60.01%,60.26%{transform:scale(0.588,1)}60.28%,61.36%{transform:scale(0.647,1)}61.38%,61.91%{transform:scale(0.706,1)}61.93%,63.55%{transform:scale(0.765,1)}63.57%,67.66%{transform:scale(0.824,1)}67.68%,67.94%{transform:scale(0.882,1)}67.96%,78.35%{transform:scale(0.941,1)}78.37%,100%{transform:scale(1.000,1)}}.u.u1{fill:var(--c2);animation-name:u1;transform-origin:607.1px 0}@keyframes u2{83.55%{transform:scale(0.000,1)}83.57%,83.83%{transform:scale(0.167,1)}83.85%,84.65%{transform:scale(0.333,1)}84.67%,85.74%{transform:scale(0.500,1)}85.76%,87.39%{transform:scale(0.667,1)}87.41%,90.4%{transform:scale(0.833,1)}90.42%,100%{transform:scale(1.000,1)}}.u.u2{fill:var(--c3);animation-name:u2;transform-origin:770.9px 0}@keyframes u3{90.67%{transform:scale(0.000,1)}90.69%,91.77%{transform:scale(0.500,1)}91.79%,100%{transform:scale(1.000,1)}}.u.u3{fill:var(--c4);animation-name:u3;transform-origin:828.7px 0}.s{shape-rendering:geometricPrecision;fill:var(--cs);animation:none linear 36500ms infinite}@keyframes s0{0%,99.73%{transform:translate(0px,-16px)}0.27%{transform:translate(0px,0px)}0.82%{transform:translate(32px,0px)}1.1%{transform:translate(32px,16px)}1.92%{transform:translate(80px,16px)}2.19%{transform:translate(80px,32px)}2.47%{transform:translate(64px,32px)}2.74%{transform:translate(64px,48px)}3.56%{transform:translate(112px,48px)}4.38%{transform:translate(112px,96px)}4.66%{transform:translate(96px,96px)}4.93%{transform:translate(96px,80px)}5.48%{transform:translate(64px,80px)}5.75%{transform:translate(64px,64px)}6.03%{transform:translate(48px,64px)}6.58%{transform:translate(48px,96px)}7.12%{transform:translate(16px,96px)}7.4%{transform:translate(16px,80px)}10.14%{transform:translate(176px,80px)}10.41%{transform:translate(176px,96px)}11.23%{transform:translate(224px,96px)}12.05%{transform:translate(224px,48px)}12.33%{transform:translate(240px,48px)}12.88%{transform:translate(240px,16px)}13.7%{transform:translate(288px,16px)}13.97%{transform:translate(288px,0px)}14.25%{transform:translate(304px,0px)}14.52%{transform:translate(304px,16px)}14.79%,87.67%{transform:translate(320px,16px)}15.07%{transform:translate(320px,32px)}15.34%{transform:translate(336px,32px)}15.62%,83.01%{transform:translate(336px,48px)}15.89%{transform:translate(320px,48px)}16.16%{transform:translate(320px,64px)}16.44%{transform:translate(304px,64px)}16.71%{transform:translate(304px,80px)}17.26%{transform:translate(336px,80px)}17.53%{transform:translate(336px,96px)}18.08%{transform:translate(368px,96px)}18.36%{transform:translate(368px,112px)}19.18%{transform:translate(416px,112px)}19.73%{transform:translate(416px,80px)}20%,91.23%{transform:translate(400px,80px)}20.27%,89.86%{transform:translate(400px,64px)}20.55%{transform:translate(416px,64px)}21.1%,85.21%{transform:translate(416px,32px)}21.64%,62.74%{transform:translate(448px,32px)}22.19%{transform:translate(448px,64px)}23.29%{transform:translate(512px,64px)}23.84%{transform:translate(512px,96px)}26.58%{transform:translate(672px,96px)}27.4%{transform:translate(672px,48px)}27.67%{transform:translate(688px,48px)}28.22%{transform:translate(688px,16px)}28.77%{transform:translate(656px,16px)}29.04%{transform:translate(656px,32px)}30.14%{transform:translate(720px,32px)}30.96%{transform:translate(720px,80px)}31.51%{transform:translate(752px,80px)}31.78%{transform:translate(752px,96px)}32.6%{transform:translate(800px,96px)}32.88%{transform:translate(800px,80px)}33.15%{transform:translate(784px,80px)}34.52%{transform:translate(784px,0px)}39.18%{transform:translate(512px,0px)}39.45%{transform:translate(512px,-16px)}41.64%{transform:translate(384px,-16px)}41.92%{transform:translate(384px,0px)}42.19%{transform:translate(400px,0px)}42.47%,61.64%{transform:translate(400px,16px)}43.01%{transform:translate(368px,16px)}43.84%{transform:translate(368px,64px)}45.21%{transform:translate(288px,64px)}45.48%{transform:translate(288px,80px)}45.75%{transform:translate(272px,80px)}46.03%{transform:translate(272px,96px)}46.58%{transform:translate(240px,96px)}48.22%{transform:translate(240px,0px)}48.77%{transform:translate(208px,0px)}49.04%{transform:translate(208px,16px)}49.32%{transform:translate(192px,16px)}49.59%{transform:translate(192px,0px)}50.68%{transform:translate(128px,0px)}50.96%{transform:translate(128px,16px)}51.51%{transform:translate(160px,16px)}51.78%{transform:translate(160px,32px)}52.88%{transform:translate(224px,32px)}53.15%{transform:translate(224px,16px)}53.7%{transform:translate(256px,16px)}54.79%{transform:translate(256px,80px)}56.99%,90.96%{transform:translate(384px,80px)}57.26%,89.59%{transform:translate(384px,64px)}58.08%{transform:translate(432px,64px)}58.36%{transform:translate(432px,48px)}58.9%{transform:translate(464px,48px)}59.45%{transform:translate(464px,16px)}60%{transform:translate(432px,16px)}60.27%{transform:translate(432px,0px)}60.55%{transform:translate(448px,0px)}60.82%{transform:translate(448px,16px)}61.92%{transform:translate(400px,32px)}63.56%{transform:translate(448px,80px)}67.67%{transform:translate(688px,80px)}67.95%{transform:translate(688px,64px)}78.36%{transform:translate(80px,64px)}78.63%{transform:translate(80px,48px)}83.56%{transform:translate(336px,16px)}84.38%,88.77%{transform:translate(384px,16px)}84.66%{transform:translate(384px,32px)}85.75%{transform:translate(416px,0px)}87.4%{transform:translate(320px,0px)}90.41%{transform:translate(400px,96px)}90.68%{transform:translate(384px,96px)}91.78%{transform:translate(400px,48px)}97.81%{transform:translate(48px,48px)}98.9%{transform:translate(48px,-16px)}}.s.s0{transform:translate(0px,-16px);animation-name:s0}@keyframes s1{0%,99.73%{transform:translate(16px,-16px)}0.27%{transform:translate(0px,-16px)}0.55%{transform:translate(0px,0px)}1.1%{transform:translate(32px,0px)}1.37%{transform:translate(32px,16px)}2.19%{transform:translate(80px,16px)}2.47%{transform:translate(80px,32px)}2.74%{transform:translate(64px,32px)}3.01%{transform:translate(64px,48px)}3.84%{transform:translate(112px,48px)}4.66%{transform:translate(112px,96px)}4.93%{transform:translate(96px,96px)}5.21%{transform:translate(96px,80px)}5.75%{transform:translate(64px,80px)}6.03%{transform:translate(64px,64px)}6.3%{transform:translate(48px,64px)}6.85%{transform:translate(48px,96px)}7.4%{transform:translate(16px,96px)}7.67%{transform:translate(16px,80px)}10.41%{transform:translate(176px,80px)}10.68%{transform:translate(176px,96px)}11.51%{transform:translate(224px,96px)}12.33%{transform:translate(224px,48px)}12.6%{transform:translate(240px,48px)}13.15%{transform:translate(240px,16px)}13.97%{transform:translate(288px,16px)}14.25%{transform:translate(288px,0px)}14.52%{transform:translate(304px,0px)}14.79%{transform:translate(304px,16px)}15.07%,87.95%{transform:translate(320px,16px)}15.34%{transform:translate(320px,32px)}15.62%{transform:translate(336px,32px)}15.89%,83.29%{transform:translate(336px,48px)}16.16%{transform:translate(320px,48px)}16.44%{transform:translate(320px,64px)}16.71%{transform:translate(304px,64px)}16.99%{transform:translate(304px,80px)}17.53%{transform:translate(336px,80px)}17.81%{transform:translate(336px,96px)}18.36%{transform:translate(368px,96px)}18.63%{transform:translate(368px,112px)}19.45%{transform:translate(416px,112px)}20%{transform:translate(416px,80px)}20.27%,91.51%{transform:translate(400px,80px)}20.55%,90.14%{transform:translate(400px,64px)}20.82%{transform:translate(416px,64px)}21.37%,85.48%{transform:translate(416px,32px)}21.92%,63.01%{transform:translate(448px,32px)}22.47%{transform:translate(448px,64px)}23.56%{transform:translate(512px,64px)}24.11%{transform:translate(512px,96px)}26.85%{transform:translate(672px,96px)}27.67%{transform:translate(672px,48px)}27.95%{transform:translate(688px,48px)}28.49%{transform:translate(688px,16px)}29.04%{transform:translate(656px,16px)}29.32%{transform:translate(656px,32px)}30.41%{transform:translate(720px,32px)}31.23%{transform:translate(720px,80px)}31.78%{transform:translate(752px,80px)}32.05%{transform:translate(752px,96px)}32.88%{transform:translate(800px,96px)}33.15%{transform:translate(800px,80px)}33.42%{transform:translate(784px,80px)}34.79%{transform:translate(784px,0px)}39.45%{transform:translate(512px,0px)}39.73%{transform:translate(512px,-16px)}41.92%{transform:translate(384px,-16px)}42.19%{transform:translate(384px,0px)}42.47%{transform:translate(400px,0px)}42.74%,61.92%{transform:translate(400px,16px)}43.29%{transform:translate(368px,16px)}44.11%{transform:translate(368px,64px)}45.48%{transform:translate(288px,64px)}45.75%{transform:translate(288px,80px)}46.03%{transform:translate(272px,80px)}46.3%{transform:translate(272px,96px)}46.85%{transform:translate(240px,96px)}48.49%{transform:translate(240px,0px)}49.04%{transform:translate(208px,0px)}49.32%{transform:translate(208px,16px)}49.59%{transform:translate(192px,16px)}49.86%{transform:translate(192px,0px)}50.96%{transform:translate(128px,0px)}51.23%{transform:translate(128px,16px)}51.78%{transform:translate(160px,16px)}52.05%{transform:translate(160px,32px)}53.15%{transform:translate(224px,32px)}53.42%{transform:translate(224px,16px)}53.97%{transform:translate(256px,16px)}55.07%{transform:translate(256px,80px)}57.26%,91.23%{transform:translate(384px,80px)}57.53%,89.86%{transform:translate(384px,64px)}58.36%{transform:translate(432px,64px)}58.63%{transform:translate(432px,48px)}59.18%{transform:translate(464px,48px)}59.73%{transform:translate(464px,16px)}60.27%{transform:translate(432px,16px)}60.55%{transform:translate(432px,0px)}60.82%{transform:translate(448px,0px)}61.1%{transform:translate(448px,16px)}62.19%{transform:translate(400px,32px)}63.84%{transform:translate(448px,80px)}67.95%{transform:translate(688px,80px)}68.22%{transform:translate(688px,64px)}78.63%{transform:translate(80px,64px)}78.9%{transform:translate(80px,48px)}83.84%{transform:translate(336px,16px)}84.66%,89.04%{transform:translate(384px,16px)}84.93%{transform:translate(384px,32px)}86.03%{transform:translate(416px,0px)}87.67%{transform:translate(320px,0px)}90.68%{transform:translate(400px,96px)}90.96%{transform:translate(384px,96px)}92.05%{transform:translate(400px,48px)}98.08%{transform:translate(48px,48px)}99.18%{transform:translate(48px,-16px)}}.s.s1{transform:translate(16px,-16px);animation-name:s1}@keyframes s2{0%,99.73%{transform:translate(32px,-16px)}0.55%{transform:translate(0px,-16px)}0.82%{transform:translate(0px,0px)}1.37%{transform:translate(32px,0px)}1.64%{transform:translate(32px,16px)}2.47%{transform:translate(80px,16px)}2.74%{transform:translate(80px,32px)}3.01%{transform:translate(64px,32px)}3.29%{transform:translate(64px,48px)}4.11%{transform:translate(112px,48px)}4.93%{transform:translate(112px,96px)}5.21%{transform:translate(96px,96px)}5.48%{transform:translate(96px,80px)}6.03%{transform:translate(64px,80px)}6.3%{transform:translate(64px,64px)}6.58%{transform:translate(48px,64px)}7.12%{transform:translate(48px,96px)}7.67%{transform:translate(16px,96px)}7.95%{transform:translate(16px,80px)}10.68%{transform:translate(176px,80px)}10.96%{transform:translate(176px,96px)}11.78%{transform:translate(224px,96px)}12.6%{transform:translate(224px,48px)}12.88%{transform:translate(240px,48px)}13.42%{transform:translate(240px,16px)}14.25%{transform:translate(288px,16px)}14.52%{transform:translate(288px,0px)}14.79%{transform:translate(304px,0px)}15.07%{transform:translate(304px,16px)}15.34%,88.22%{transform:translate(320px,16px)}15.62%{transform:translate(320px,32px)}15.89%{transform:translate(336px,32px)}16.16%,83.56%{transform:translate(336px,48px)}16.44%{transform:translate(320px,48px)}16.71%{transform:translate(320px,64px)}16.99%{transform:translate(304px,64px)}17.26%{transform:translate(304px,80px)}17.81%{transform:translate(336px,80px)}18.08%{transform:translate(336px,96px)}18.63%{transform:translate(368px,96px)}18.9%{transform:translate(368px,112px)}19.73%{transform:translate(416px,112px)}20.27%{transform:translate(416px,80px)}20.55%,91.78%{transform:translate(400px,80px)}20.82%,90.41%{transform:translate(400px,64px)}21.1%{transform:translate(416px,64px)}21.64%,85.75%{transform:translate(416px,32px)}22.19%,63.29%{transform:translate(448px,32px)}22.74%{transform:translate(448px,64px)}23.84%{transform:translate(512px,64px)}24.38%{transform:translate(512px,96px)}27.12%{transform:translate(672px,96px)}27.95%{transform:translate(672px,48px)}28.22%{transform:translate(688px,48px)}28.77%{transform:translate(688px,16px)}29.32%{transform:translate(656px,16px)}29.59%{transform:translate(656px,32px)}30.68%{transform:translate(720px,32px)}31.51%{transform:translate(720px,80px)}32.05%{transform:translate(752px,80px)}32.33%{transform:translate(752px,96px)}33.15%{transform:translate(800px,96px)}33.42%{transform:translate(800px,80px)}33.7%{transform:translate(784px,80px)}35.07%{transform:translate(784px,0px)}39.73%{transform:translate(512px,0px)}40%{transform:translate(512px,-16px)}42.19%{transform:translate(384px,-16px)}42.47%{transform:translate(384px,0px)}42.74%{transform:translate(400px,0px)}43.01%,62.19%{transform:translate(400px,16px)}43.56%{transform:translate(368px,16px)}44.38%{transform:translate(368px,64px)}45.75%{transform:translate(288px,64px)}46.03%{transform:translate(288px,80px)}46.3%{transform:translate(272px,80px)}46.58%{transform:translate(272px,96px)}47.12%{transform:translate(240px,96px)}48.77%{transform:translate(240px,0px)}49.32%{transform:translate(208px,0px)}49.59%{transform:translate(208px,16px)}49.86%{transform:translate(192px,16px)}50.14%{transform:translate(192px,0px)}51.23%{transform:translate(128px,0px)}51.51%{transform:translate(128px,16px)}52.05%{transform:translate(160px,16px)}52.33%{transform:translate(160px,32px)}53.42%{transform:translate(224px,32px)}53.7%{transform:translate(224px,16px)}54.25%{transform:translate(256px,16px)}55.34%{transform:translate(256px,80px)}57.53%,91.51%{transform:translate(384px,80px)}57.81%,90.14%{transform:translate(384px,64px)}58.63%{transform:translate(432px,64px)}58.9%{transform:translate(432px,48px)}59.45%{transform:translate(464px,48px)}60%{transform:translate(464px,16px)}60.55%{transform:translate(432px,16px)}60.82%{transform:translate(432px,0px)}61.1%{transform:translate(448px,0px)}61.37%{transform:translate(448px,16px)}62.47%{transform:translate(400px,32px)}64.11%{transform:translate(448px,80px)}68.22%{transform:translate(688px,80px)}68.49%{transform:translate(688px,64px)}78.9%{transform:translate(80px,64px)}79.18%{transform:translate(80px,48px)}84.11%{transform:translate(336px,16px)}84.93%,89.32%{transform:translate(384px,16px)}85.21%{transform:translate(384px,32px)}86.3%{transform:translate(416px,0px)}87.95%{transform:translate(320px,0px)}90.96%{transform:translate(400px,96px)}91.23%{transform:translate(384px,96px)}92.33%{transform:translate(400px,48px)}98.36%{transform:translate(48px,48px)}99.45%{transform:translate(48px,-16px)}}.s.s2{transform:translate(32px,-16px);animation-name:s2}@keyframes s3{0%,99.73%{transform:translate(48px,-16px)}0.82%{transform:translate(0px,-16px)}1.1%{transform:translate(0px,0px)}1.64%{transform:translate(32px,0px)}1.92%{transform:translate(32px,16px)}2.74%{transform:translate(80px,16px)}3.01%{transform:translate(80px,32px)}3.29%{transform:translate(64px,32px)}3.56%{transform:translate(64px,48px)}4.38%{transform:translate(112px,48px)}5.21%{transform:translate(112px,96px)}5.48%{transform:translate(96px,96px)}5.75%{transform:translate(96px,80px)}6.3%{transform:translate(64px,80px)}6.58%{transform:translate(64px,64px)}6.85%{transform:translate(48px,64px)}7.4%{transform:translate(48px,96px)}7.95%{transform:translate(16px,96px)}8.22%{transform:translate(16px,80px)}10.96%{transform:translate(176px,80px)}11.23%{transform:translate(176px,96px)}12.05%{transform:translate(224px,96px)}12.88%{transform:translate(224px,48px)}13.15%{transform:translate(240px,48px)}13.7%{transform:translate(240px,16px)}14.52%{transform:translate(288px,16px)}14.79%{transform:translate(288px,0px)}15.07%{transform:translate(304px,0px)}15.34%{transform:translate(304px,16px)}15.62%,88.49%{transform:translate(320px,16px)}15.89%{transform:translate(320px,32px)}16.16%{transform:translate(336px,32px)}16.44%,83.84%{transform:translate(336px,48px)}16.71%{transform:translate(320px,48px)}16.99%{transform:translate(320px,64px)}17.26%{transform:translate(304px,64px)}17.53%{transform:translate(304px,80px)}18.08%{transform:translate(336px,80px)}18.36%{transform:translate(336px,96px)}18.9%{transform:translate(368px,96px)}19.18%{transform:translate(368px,112px)}20%{transform:translate(416px,112px)}20.55%{transform:translate(416px,80px)}20.82%,92.05%{transform:translate(400px,80px)}21.1%,90.68%{transform:translate(400px,64px)}21.37%{transform:translate(416px,64px)}21.92%,86.03%{transform:translate(416px,32px)}22.47%,63.56%{transform:translate(448px,32px)}23.01%{transform:translate(448px,64px)}24.11%{transform:translate(512px,64px)}24.66%{transform:translate(512px,96px)}27.4%{transform:translate(672px,96px)}28.22%{transform:translate(672px,48px)}28.49%{transform:translate(688px,48px)}29.04%{transform:translate(688px,16px)}29.59%{transform:translate(656px,16px)}29.86%{transform:translate(656px,32px)}30.96%{transform:translate(720px,32px)}31.78%{transform:translate(720px,80px)}32.33%{transform:translate(752px,80px)}32.6%{transform:translate(752px,96px)}33.42%{transform:translate(800px,96px)}33.7%{transform:translate(800px,80px)}33.97%{transform:translate(784px,80px)}35.34%{transform:translate(784px,0px)}40%{transform:translate(512px,0px)}40.27%{transform:translate(512px,-16px)}42.47%{transform:translate(384px,-16px)}42.74%{transform:translate(384px,0px)}43.01%{transform:translate(400px,0px)}43.29%,62.47%{transform:translate(400px,16px)}43.84%{transform:translate(368px,16px)}44.66%{transform:translate(368px,64px)}46.03%{transform:translate(288px,64px)}46.3%{transform:translate(288px,80px)}46.58%{transform:translate(272px,80px)}46.85%{transform:translate(272px,96px)}47.4%{transform:translate(240px,96px)}49.04%{transform:translate(240px,0px)}49.59%{transform:translate(208px,0px)}49.86%{transform:translate(208px,16px)}50.14%{transform:translate(192px,16px)}50.41%{transform:translate(192px,0px)}51.51%{transform:translate(128px,0px)}51.78%{transform:translate(128px,16px)}52.33%{transform:translate(160px,16px)}52.6%{transform:translate(160px,32px)}53.7%{transform:translate(224px,32px)}53.97%{transform:translate(224px,16px)}54.52%{transform:translate(256px,16px)}55.62%{transform:translate(256px,80px)}57.81%,91.78%{transform:translate(384px,80px)}58.08%,90.41%{transform:translate(384px,64px)}58.9%{transform:translate(432px,64px)}59.18%{transform:translate(432px,48px)}59.73%{transform:translate(464px,48px)}60.27%{transform:translate(464px,16px)}60.82%{transform:translate(432px,16px)}61.1%{transform:translate(432px,0px)}61.37%{transform:translate(448px,0px)}61.64%{transform:translate(448px,16px)}62.74%{transform:translate(400px,32px)}64.38%{transform:translate(448px,80px)}68.49%{transform:translate(688px,80px)}68.77%{transform:translate(688px,64px)}79.18%{transform:translate(80px,64px)}79.45%{transform:translate(80px,48px)}84.38%{transform:translate(336px,16px)}85.21%,89.59%{transform:translate(384px,16px)}85.48%{transform:translate(384px,32px)}86.58%{transform:translate(416px,0px)}88.22%{transform:translate(320px,0px)}91.23%{transform:translate(400px,96px)}91.51%{transform:translate(384px,96px)}92.6%{transform:translate(400px,48px)}98.63%{transform:translate(48px,48px)}}.s.s3{transform:translate(48px,-16px);animation-name:s3}</style><rect class="c" x="2" y="2" rx="2" ry="2"/><rect class="c" x="2" y="18" rx="2" ry="2"/><rect class="c" x="2" y="34" rx="2" ry="2"/><rect class="c" x="2" y="50" rx="2" ry="2"/><rect class="c" x="2" y="66" rx="2" ry="2"/><rect class="c" x="2" y="82" rx="2" ry="2"/><rect class="c" x="2" y="98" rx="2" ry="2"/><rect class="c" x="18" y="2" rx="2" ry="2"/><rect class="c" x="18" y="18" rx="2" ry="2"/><rect class="c" x="18" y="34" rx="2" ry="2"/><rect class="c" x="18" y="50" rx="2" ry="2"/><rect class="c" x="18" y="66" rx="2" ry="2"/><rect class="c" x="18" y="82" rx="2" ry="2"/><rect class="c c0" x="18" y="98" rx="2" ry="2"/><rect class="c c1" x="34" y="2" rx="2" ry="2"/><rect class="c c2" x="34" y="18" rx="2" ry="2"/><rect class="c" x="34" y="34" rx="2" ry="2"/><rect class="c" x="34" y="50" rx="2" ry="2"/><rect class="c" x="34" y="66" rx="2" ry="2"/><rect class="c" x="34" y="82" rx="2" ry="2"/><rect class="c c3" x="34" y="98" rx="2" ry="2"/><rect class="c" x="50" y="2" rx="2" ry="2"/><rect class="c c4" x="50" y="18" rx="2" ry="2"/><rect class="c" x="50" y="34" rx="2" ry="2"/><rect class="c" x="50" y="50" rx="2" ry="2"/><rect class="c c5" x="50" y="66" rx="2" ry="2"/><rect class="c" x="50" y="82" rx="2" ry="2"/><rect class="c c6" x="50" y="98" rx="2" ry="2"/><rect class="c" x="66" y="2" rx="2" ry="2"/><rect class="c" x="66" y="18" rx="2" ry="2"/><rect class="c c7" x="66" y="34" rx="2" ry="2"/><rect class="c" x="66" y="50" rx="2" ry="2"/><rect class="c" x="66" y="66" rx="2" ry="2"/><rect class="c c8" x="66" y="82" rx="2" ry="2"/><rect class="c" x="66" y="98" rx="2" ry="2"/><rect class="c" x="82" y="2" rx="2" ry="2"/><rect class="c c9" x="82" y="18" rx="2" ry="2"/><rect class="c" x="82" y="34" rx="2" ry="2"/><rect class="c ca" x="82" y="50" rx="2" ry="2"/><rect class="c cb" x="82" y="66" rx="2" ry="2"/><rect class="c cc" x="82" y="82" rx="2" ry="2"/><rect class="c" x="82" y="98" rx="2" ry="2"/><rect class="c" x="98" y="2" rx="2" ry="2"/><rect class="c" x="98" y="18" rx="2" ry="2"/><rect class="c" x="98" y="34" rx="2" ry="2"/><rect class="c cd" x="98" y="50" rx="2" ry="2"/><rect class="c" x="98" y="66" rx="2" ry="2"/><rect class="c" x="98" y="82" rx="2" ry="2"/><rect class="c" x="98" y="98" rx="2" ry="2"/><rect class="c" x="114" y="2" rx="2" ry="2"/><rect class="c" x="114" y="18" rx="2" ry="2"/><rect class="c" x="114" y="34" rx="2" ry="2"/><rect class="c" x="114" y="50" rx="2" ry="2"/><rect class="c" x="114" y="66" rx="2" ry="2"/><rect class="c ce" x="114" y="82" rx="2" ry="2"/><rect class="c cf" x="114" y="98" rx="2" ry="2"/><rect class="c cg" x="130" y="2" rx="2" ry="2"/><rect class="c" x="130" y="18" rx="2" ry="2"/><rect class="c" x="130" y="34" rx="2" ry="2"/><rect class="c" x="130" y="50" rx="2" ry="2"/><rect class="c" x="130" y="66" rx="2" ry="2"/><rect class="c" x="130" y="82" rx="2" ry="2"/><rect class="c" x="130" y="98" rx="2" ry="2"/><rect class="c ch" x="146" y="2" rx="2" ry="2"/><rect class="c" x="146" y="18" rx="2" ry="2"/><rect class="c" x="146" y="34" rx="2" ry="2"/><rect class="c" x="146" y="50" rx="2" ry="2"/><rect class="c" x="146" y="66" rx="2" ry="2"/><rect class="c" x="146" y="82" rx="2" ry="2"/><rect class="c" x="146" y="98" rx="2" ry="2"/><rect class="c" x="162" y="2" rx="2" ry="2"/><rect class="c ci" x="162" y="18" rx="2" ry="2"/><rect class="c cj" x="162" y="34" rx="2" ry="2"/><rect class="c" x="162" y="50" rx="2" ry="2"/><rect class="c" x="162" y="66" rx="2" ry="2"/><rect class="c" x="162" y="82" rx="2" ry="2"/><rect class="c" x="162" y="98" rx="2" ry="2"/><rect class="c ck" x="178" y="2" rx="2" ry="2"/><rect class="c" x="178" y="18" rx="2" ry="2"/><rect class="c" x="178" y="34" rx="2" ry="2"/><rect class="c" x="178" y="50" rx="2" ry="2"/><rect class="c" x="178" y="66" rx="2" ry="2"/><rect class="c cl" x="178" y="82" rx="2" ry="2"/><rect class="c cm" x="178" y="98" rx="2" ry="2"/><rect class="c" x="194" y="2" rx="2" ry="2"/><rect class="c" x="194" y="18" rx="2" ry="2"/><rect class="c" x="194" y="34" rx="2" ry="2"/><rect class="c" x="194" y="50" rx="2" ry="2"/><rect class="c" x="194" y="66" rx="2" ry="2"/><rect class="c" x="194" y="82" rx="2" ry="2"/><rect class="c" x="194" y="98" rx="2" ry="2"/><rect class="c cn" x="210" y="2" rx="2" ry="2"/><rect class="c co" x="210" y="18" rx="2" ry="2"/><rect class="c" x="210" y="34" rx="2" ry="2"/><rect class="c" x="210" y="50" rx="2" ry="2"/><rect class="c" x="210" y="66" rx="2" ry="2"/><rect class="c" x="210" y="82" rx="2" ry="2"/><rect class="c" x="210" y="98" rx="2" ry="2"/><rect class="c cp" x="226" y="2" rx="2" ry="2"/><rect class="c cq" x="226" y="18" rx="2" ry="2"/><rect class="c" x="226" y="34" rx="2" ry="2"/><rect class="c cr" x="226" y="50" rx="2" ry="2"/><rect class="c" x="226" y="66" rx="2" ry="2"/><rect class="c cs" x="226" y="82" rx="2" ry="2"/><rect class="c" x="226" y="98" rx="2" ry="2"/><rect class="c" x="242" y="2" rx="2" ry="2"/><rect class="c ct" x="242" y="18" rx="2" ry="2"/><rect class="c cu" x="242" y="34" rx="2" ry="2"/><rect class="c" x="242" y="50" rx="2" ry="2"/><rect class="c" x="242" y="66" rx="2" ry="2"/><rect class="c" x="242" y="82" rx="2" ry="2"/><rect class="c" x="242" y="98" rx="2" ry="2"/><rect class="c" x="258" y="2" rx="2" ry="2"/><rect class="c cv" x="258" y="18" rx="2" ry="2"/><rect class="c" x="258" y="34" rx="2" ry="2"/><rect class="c" x="258" y="50" rx="2" ry="2"/><rect class="c" x="258" y="66" rx="2" ry="2"/><rect class="c cw" x="258" y="82" rx="2" ry="2"/><rect class="c cx" x="258" y="98" rx="2" ry="2"/><rect class="c" x="274" y="2" rx="2" ry="2"/><rect class="c" x="274" y="18" rx="2" ry="2"/><rect class="c" x="274" y="34" rx="2" ry="2"/><rect class="c" x="274" y="50" rx="2" ry="2"/><rect class="c" x="274" y="66" rx="2" ry="2"/><rect class="c cy" x="274" y="82" rx="2" ry="2"/><rect class="c" x="274" y="98" rx="2" ry="2"/><rect class="c cz" x="290" y="2" rx="2" ry="2"/><rect class="c" x="290" y="18" rx="2" ry="2"/><rect class="c" x="290" y="34" rx="2" ry="2"/><rect class="c" x="290" y="50" rx="2" ry="2"/><rect class="c" x="290" y="66" rx="2" ry="2"/><rect class="c c10" x="290" y="82" rx="2" ry="2"/><rect class="c" x="290" y="98" rx="2" ry="2"/><rect class="c" x="306" y="2" rx="2" ry="2"/><rect class="c" x="306" y="18" rx="2" ry="2"/><rect class="c" x="306" y="34" rx="2" ry="2"/><rect class="c" x="306" y="50" rx="2" ry="2"/><rect class="c c11" x="306" y="66" rx="2" ry="2"/><rect class="c c12" x="306" y="82" rx="2" ry="2"/><rect class="c" x="306" y="98" rx="2" ry="2"/><rect class="c c13" x="322" y="2" rx="2" ry="2"/><rect class="c c14" x="322" y="18" rx="2" ry="2"/><rect class="c" x="322" y="34" rx="2" ry="2"/><rect class="c" x="322" y="50" rx="2" ry="2"/><rect class="c c15" x="322" y="66" rx="2" ry="2"/><rect class="c c16" x="322" y="82" rx="2" ry="2"/><rect class="c" x="322" y="98" rx="2" ry="2"/><rect class="c" x="338" y="2" rx="2" ry="2"/><rect class="c c17" x="338" y="18" rx="2" ry="2"/><rect class="c" x="338" y="34" rx="2" ry="2"/><rect class="c c18" x="338" y="50" rx="2" ry="2"/><rect class="c" x="338" y="66" rx="2" ry="2"/><rect class="c" x="338" y="82" rx="2" ry="2"/><rect class="c c19" x="338" y="98" rx="2" ry="2"/><rect class="c" x="354" y="2" rx="2" ry="2"/><rect class="c c1a" x="354" y="18" rx="2" ry="2"/><rect class="c" x="354" y="34" rx="2" ry="2"/><rect class="c" x="354" y="50" rx="2" ry="2"/><rect class="c" x="354" y="66" rx="2" ry="2"/><rect class="c" x="354" y="82" rx="2" ry="2"/><rect class="c" x="354" y="98" rx="2" ry="2"/><rect class="c" x="370" y="2" rx="2" ry="2"/><rect class="c" x="370" y="18" rx="2" ry="2"/><rect class="c" x="370" y="34" rx="2" ry="2"/><rect class="c" x="370" y="50" rx="2" ry="2"/><rect class="c c1b" x="370" y="66" rx="2" ry="2"/><rect class="c c1c" x="370" y="82" rx="2" ry="2"/><rect class="c c1d" x="370" y="98" rx="2" ry="2"/><rect class="c c1e" x="386" y="2" rx="2" ry="2"/><rect class="c" x="386" y="18" rx="2" ry="2"/><rect class="c c1f" x="386" y="34" rx="2" ry="2"/><rect class="c" x="386" y="50" rx="2" ry="2"/><rect class="c c1g" x="386" y="66" rx="2" ry="2"/><rect class="c" x="386" y="82" rx="2" ry="2"/><rect class="c c1h" x="386" y="98" rx="2" ry="2"/><rect class="c" x="402" y="2" rx="2" ry="2"/><rect class="c c1i" x="402" y="18" rx="2" ry="2"/><rect class="c c1j" x="402" y="34" rx="2" ry="2"/><rect class="c c1k" x="402" y="50" rx="2" ry="2"/><rect class="c c1l" x="402" y="66" rx="2" ry="2"/><rect class="c c1m" x="402" y="82" rx="2" ry="2"/><rect class="c c1n" x="402" y="98" rx="2" ry="2"/><rect class="c c1o" x="418" y="2" rx="2" ry="2"/><rect class="c c1p" x="418" y="18" rx="2" ry="2"/><rect class="c" x="418" y="34" rx="2" ry="2"/><rect class="c" x="418" y="50" rx="2" ry="2"/><rect class="c" x="418" y="66" rx="2" ry="2"/><rect class="c" x="418" y="82" rx="2" ry="2"/><rect class="c c1q" x="418" y="98" rx="2" ry="2"/><rect class="c c1r" x="434" y="2" rx="2" ry="2"/><rect class="c c1s" x="434" y="18" rx="2" ry="2"/><rect class="c" x="434" y="34" rx="2" ry="2"/><rect class="c c1t" x="434" y="50" rx="2" ry="2"/><rect class="c c1u" x="434" y="66" rx="2" ry="2"/><rect class="c" x="434" y="82" rx="2" ry="2"/><rect class="c" x="434" y="98" rx="2" ry="2"/><rect class="c" x="450" y="2" rx="2" ry="2"/><rect class="c" x="450" y="18" rx="2" ry="2"/><rect class="c" x="450" y="34" rx="2" ry="2"/><rect class="c" x="450" y="50" rx="2" ry="2"/><rect class="c" x="450" y="66" rx="2" ry="2"/><rect class="c c1v" x="450" y="82" rx="2" ry="2"/><rect class="c" x="450" y="98" rx="2" ry="2"/><rect class="c" x="466" y="2" rx="2" ry="2"/><rect class="c c1w" x="466" y="18" rx="2" ry="2"/><rect class="c c1x" x="466" y="34" rx="2" ry="2"/><rect class="c c1y" x="466" y="50" rx="2" ry="2"/><rect class="c c1z" x="466" y="66" rx="2" ry="2"/><rect class="c" x="466" y="82" rx="2" ry="2"/><rect class="c" x="466" y="98" rx="2" ry="2"/><rect class="c" x="482" y="2" rx="2" ry="2"/><rect class="c" x="482" y="18" rx="2" ry="2"/><rect class="c" x="482" y="34" rx="2" ry="2"/><rect class="c" x="482" y="50" rx="2" ry="2"/><rect class="c" x="482" y="66" rx="2" ry="2"/><rect class="c" x="482" y="82" rx="2" ry="2"/><rect class="c" x="482" y="98" rx="2" ry="2"/><rect class="c" x="498" y="2" rx="2" ry="2"/><rect class="c" x="498" y="18" rx="2" ry="2"/><rect class="c" x="498" y="34" rx="2" ry="2"/><rect class="c" x="498" y="50" rx="2" ry="2"/><rect class="c" x="498" y="66" rx="2" ry="2"/><rect class="c" x="498" y="82" rx="2" ry="2"/><rect class="c" x="498" y="98" rx="2" ry="2"/><rect class="c c20" x="514" y="2" rx="2" ry="2"/><rect class="c" x="514" y="18" rx="2" ry="2"/><rect class="c" x="514" y="34" rx="2" ry="2"/><rect class="c" x="514" y="50" rx="2" ry="2"/><rect class="c" x="514" y="66" rx="2" ry="2"/><rect class="c c21" x="514" y="82" rx="2" ry="2"/><rect class="c c22" x="514" y="98" rx="2" ry="2"/><rect class="c c23" x="530" y="2" rx="2" ry="2"/><rect class="c" x="530" y="18" rx="2" ry="2"/><rect class="c" x="530" y="34" rx="2" ry="2"/><rect class="c" x="530" y="50" rx="2" ry="2"/><rect class="c" x="530" y="66" rx="2" ry="2"/><rect class="c" x="530" y="82" rx="2" ry="2"/><rect class="c c24" x="530" y="98" rx="2" ry="2"/><rect class="c" x="546" y="2" rx="2" ry="2"/><rect class="c" x="546" y="18" rx="2" ry="2"/><rect class="c" x="546" y="34" rx="2" ry="2"/><rect class="c" x="546" y="50" rx="2" ry="2"/><rect class="c" x="546" y="66" rx="2" ry="2"/><rect class="c" x="546" y="82" rx="2" ry="2"/><rect class="c" x="546" y="98" rx="2" ry="2"/><rect class="c" x="562" y="2" rx="2" ry="2"/><rect class="c" x="562" y="18" rx="2" ry="2"/><rect class="c" x="562" y="34" rx="2" ry="2"/><rect class="c" x="562" y="50" rx="2" ry="2"/><rect class="c" x="562" y="66" rx="2" ry="2"/><rect class="c" x="562" y="82" rx="2" ry="2"/><rect class="c" x="562" y="98" rx="2" ry="2"/><rect class="c" x="578" y="2" rx="2" ry="2"/><rect class="c" x="578" y="18" rx="2" ry="2"/><rect class="c" x="578" y="34" rx="2" ry="2"/><rect class="c" x="578" y="50" rx="2" ry="2"/><rect class="c" x="578" y="66" rx="2" ry="2"/><rect class="c" x="578" y="82" rx="2" ry="2"/><rect class="c" x="578" y="98" rx="2" ry="2"/><rect class="c" x="594" y="2" rx="2" ry="2"/><rect class="c" x="594" y="18" rx="2" ry="2"/><rect class="c" x="594" y="34" rx="2" ry="2"/><rect class="c" x="594" y="50" rx="2" ry="2"/><rect class="c" x="594" y="66" rx="2" ry="2"/><rect class="c" x="594" y="82" rx="2" ry="2"/><rect class="c c25" x="594" y="98" rx="2" ry="2"/><rect class="c" x="610" y="2" rx="2" ry="2"/><rect class="c" x="610" y="18" rx="2" ry="2"/><rect class="c" x="610" y="34" rx="2" ry="2"/><rect class="c" x="610" y="50" rx="2" ry="2"/><rect class="c" x="610" y="66" rx="2" ry="2"/><rect class="c" x="610" y="82" rx="2" ry="2"/><rect class="c" x="610" y="98" rx="2" ry="2"/><rect class="c" x="626" y="2" rx="2" ry="2"/><rect class="c" x="626" y="18" rx="2" ry="2"/><rect class="c" x="626" y="34" rx="2" ry="2"/><rect class="c" x="626" y="50" rx="2" ry="2"/><rect class="c" x="626" y="66" rx="2" ry="2"/><rect class="c" x="626" y="82" rx="2" ry="2"/><rect class="c" x="626" y="98" rx="2" ry="2"/><rect class="c" x="642" y="2" rx="2" ry="2"/><rect class="c" x="642" y="18" rx="2" ry="2"/><rect class="c" x="642" y="34" rx="2" ry="2"/><rect class="c" x="642" y="50" rx="2" ry="2"/><rect class="c" x="642" y="66" rx="2" ry="2"/><rect class="c" x="642" y="82" rx="2" ry="2"/><rect class="c c26" x="642" y="98" rx="2" ry="2"/><rect class="c" x="658" y="2" rx="2" ry="2"/><rect class="c c27" x="658" y="18" rx="2" ry="2"/><rect class="c" x="658" y="34" rx="2" ry="2"/><rect class="c" x="658" y="50" rx="2" ry="2"/><rect class="c" x="658" y="66" rx="2" ry="2"/><rect class="c" x="658" y="82" rx="2" ry="2"/><rect class="c" x="658" y="98" rx="2" ry="2"/><rect class="c" x="674" y="2" rx="2" ry="2"/><rect class="c" x="674" y="18" rx="2" ry="2"/><rect class="c" x="674" y="34" rx="2" ry="2"/><rect class="c c28" x="674" y="50" rx="2" ry="2"/><rect class="c" x="674" y="66" rx="2" ry="2"/><rect class="c" x="674" y="82" rx="2" ry="2"/><rect class="c" x="674" y="98" rx="2" ry="2"/><rect class="c" x="690" y="2" rx="2" ry="2"/><rect class="c" x="690" y="18" rx="2" ry="2"/><rect class="c c29" x="690" y="34" rx="2" ry="2"/><rect class="c" x="690" y="50" rx="2" ry="2"/><rect class="c c2a" x="690" y="66" rx="2" ry="2"/><rect class="c c2b" x="690" y="82" rx="2" ry="2"/><rect class="c" x="690" y="98" rx="2" ry="2"/><rect class="c" x="706" y="2" rx="2" ry="2"/><rect class="c" x="706" y="18" rx="2" ry="2"/><rect class="c" x="706" y="34" rx="2" ry="2"/><rect class="c" x="706" y="50" rx="2" ry="2"/><rect class="c" x="706" y="66" rx="2" ry="2"/><rect class="c" x="706" y="82" rx="2" ry="2"/><rect class="c" x="706" y="98" rx="2" ry="2"/><rect class="c" x="722" y="2" rx="2" ry="2"/><rect class="c" x="722" y="18" rx="2" ry="2"/><rect class="c" x="722" y="34" rx="2" ry="2"/><rect class="c" x="722" y="50" rx="2" ry="2"/><rect class="c" x="722" y="66" rx="2" ry="2"/><rect class="c c2c" x="722" y="82" rx="2" ry="2"/><rect class="c" x="722" y="98" rx="2" ry="2"/><rect class="c" x="738" y="2" rx="2" ry="2"/><rect class="c" x="738" y="18" rx="2" ry="2"/><rect class="c" x="738" y="34" rx="2" ry="2"/><rect class="c" x="738" y="50" rx="2" ry="2"/><rect class="c" x="738" y="66" rx="2" ry="2"/><rect class="c" x="738" y="82" rx="2" ry="2"/><rect class="c" x="738" y="98" rx="2" ry="2"/><rect class="c" x="754" y="2" rx="2" ry="2"/><rect class="c" x="754" y="18" rx="2" ry="2"/><rect class="c" x="754" y="34" rx="2" ry="2"/><rect class="c" x="754" y="50" rx="2" ry="2"/><rect class="c" x="754" y="66" rx="2" ry="2"/><rect class="c" x="754" y="82" rx="2" ry="2"/><rect class="c c2d" x="754" y="98" rx="2" ry="2"/><rect class="c" x="770" y="2" rx="2" ry="2"/><rect class="c" x="770" y="18" rx="2" ry="2"/><rect class="c" x="770" y="34" rx="2" ry="2"/><rect class="c" x="770" y="50" rx="2" ry="2"/><rect class="c" x="770" y="66" rx="2" ry="2"/><rect class="c" x="770" y="82" rx="2" ry="2"/><rect class="c" x="770" y="98" rx="2" ry="2"/><rect class="c" x="786" y="2" rx="2" ry="2"/><rect class="c" x="786" y="18" rx="2" ry="2"/><rect class="c" x="786" y="34" rx="2" ry="2"/><rect class="c" x="786" y="50" rx="2" ry="2"/><rect class="c" x="786" y="66" rx="2" ry="2"/><rect class="c c2e" x="786" y="82" rx="2" ry="2"/><rect class="c" x="786" y="98" rx="2" ry="2"/><rect class="c" x="802" y="2" rx="2" ry="2"/><rect class="c" x="802" y="18" rx="2" ry="2"/><rect class="c" x="802" y="34" rx="2" ry="2"/><rect class="c" x="802" y="50" rx="2" ry="2"/><rect class="c" x="802" y="66" rx="2" ry="2"/><rect class="c" x="802" y="82" rx="2" ry="2"/><rect class="c c2f" x="802" y="98" rx="2" ry="2"/><rect class="c" x="818" y="2" rx="2" ry="2"/><rect class="c" x="818" y="18" rx="2" ry="2"/><rect class="c" x="818" y="34" rx="2" ry="2"/><rect class="c" x="818" y="50" rx="2" ry="2"/><rect class="c" x="818" y="66" rx="2" ry="2"/><rect class="c" x="818" y="82" rx="2" ry="2"/><rect class="c" x="818" y="98" rx="2" ry="2"/><rect class="c" x="834" y="2" rx="2" ry="2"/><rect class="c" x="834" y="18" rx="2" ry="2"/><rect class="u u0" height="12" width="607.7" x="0.0" y="144"/><rect class="u u1" height="12" width="164.4" x="607.1" y="144"/><rect class="u u2" height="12" width="58.4" x="770.9" y="144"/><rect class="u u3" height="12" width="19.9" x="828.7" y="144"/><rect class="s s0" x="0.8" y="0.8" width="14.4" height="14.4" rx="4.5" ry="4.5"/><rect class="s s1" x="1.8" y="1.8" width="12.3" height="12.3" rx="4.1" ry="4.1"/><rect class="s s2" x="2.6" y="2.6" width="10.8" height="10.8" rx="3.6" ry="3.6"/><rect class="s s3" x="3.0" y="3.0" width="9.9" height="9.9" rx="3.3" ry="3.3"/></svg>