<svg viewBox="-16 -32 880 192" width="880" height="192" xmlns="http://www.w3.org/2000/svg"><desc>Generated with https://github.com/Platane/snk</desc><style>:root{--cb:#1b1f230a;--cs:white;--ce:#0a0e12;--c0:#0a0e12;--c1:#1445a2;--c2:#1d65ee;--c3:#1f4eff;--c4:#466dff}.c{shape-rendering:geometricPrecision;fill:var(--ce);stroke-width:1px;stroke:var(--cb);animation:none 38300ms linear infinite;width:12px;height:12px}@keyframes c0{0.25%{fill:var(--c1)}0.27%,100%{fill:var(--ce)}}.c.c0{fill:var(--c1);animation-name:c0}@keyframes c1{30.02%{fill:var(--c1)}30.04%,100%{fill:var(--ce)}}.c.c1{fill:var(--c1);animation-name:c1}@keyframes c2{30.28%{fill:var(--c1)}30.3%,100%{fill:var(--ce)}}.c.c2{fill:var(--c1);animation-name:c2}@keyframes c3{0.77%{fill:var(--c1)}0.79%,100%{fill:var(--ce)}}.c.c3{fill:var(--c1);animation-name:c3}@keyframes c4{31.32%{fill:var(--c1)}31.34%,100%{fill:var(--ce)}}.c.c4{fill:var(--c1);animation-name:c4}@keyframes c5{31.58%{fill:var(--c1)}31.6%,100%{fill:var(--ce)}}.c.c5{fill:var(--c1);animation-name:c5}@keyframes c6{1.3%{fill:var(--c1)}1.32%,100%{fill:var(--ce)}}.c.c6{fill:var(--c1);animation-name:c6}@keyframes c7{29.23%{fill:var(--c1)}29.25%,100%{fill:var(--ce)}}.c.c7{fill:var(--c1);animation-name:c7}@keyframes c8{1.56%{fill:var(--c1)}1.58%,100%{fill:var(--ce)}}.c.c8{fill:var(--c1);animation-name:c8}@keyframes c9{69.18%{fill:var(--c2)}69.2%,100%{fill:var(--ce)}}.c.c9{fill:var(--c2);animation-name:c9}@keyframes ca{3.38%{fill:var(--c1)}3.4%,100%{fill:var(--ce)}}.c.ca{fill:var(--c1);animation-name:ca}@keyframes cb{3.91%{fill:var(--c1)}3.93%,100%{fill:var(--ce)}}.c.cb{fill:var(--c1);animation-name:cb}@keyframes cc{2.08%{fill:var(--c1)}2.1%,100%{fill:var(--ce)}}.c.cc{fill:var(--c1);animation-name:cc}@keyframes cd{2.86%{fill:var(--c1)}2.88%,100%{fill:var(--ce)}}.c.cd{fill:var(--c1);animation-name:cd}@keyframes ce{2.34%{fill:var(--c1)}2.36%,100%{fill:var(--ce)}}.c.ce{fill:var(--c1);animation-name:ce}@keyframes cf{67.61%{fill:var(--c2)}67.63%,100%{fill:var(--ce)}}.c.cf{fill:var(--c2);animation-name:cf}@keyframes cg{4.69%{fill:var(--c1)}4.71%,100%{fill:var(--ce)}}.c.cg{fill:var(--c1);animation-name:cg}@keyframes ch{5.21%{fill:var(--c1)}5.23%,100%{fill:var(--ce)}}.c.ch{fill:var(--c1);animation-name:ch}@keyframes ci{27.67%{fill:var(--c1)}27.69%,100%{fill:var(--ce)}}.c.ci{fill:var(--c1);animation-name:ci}@keyframes cj{5.47%{fill:var(--c1)}5.49%,100%{fill:var(--ce)}}.c.cj{fill:var(--c1);animation-name:cj}@keyframes ck{6.52%{fill:var(--c1)}6.54%,100%{fill:var(--ce)}}.c.ck{fill:var(--c1);animation-name:ck}@keyframes cl{5.73%{fill:var(--c1)}5.75%,100%{fill:var(--ce)}}.c.cl{fill:var(--c1);animation-name:cl}@keyframes cm{96.6%{fill:var(--c4)}96.62%,100%{fill:var(--ce)}}.c.cm{fill:var(--c4);animation-name:cm}@keyframes cn{26.88%{fill:var(--c1)}26.9%,100%{fill:var(--ce)}}.c.cn{fill:var(--c1);animation-name:cn}@keyframes co{6.26%{fill:var(--c1)}6.28%,100%{fill:var(--ce)}}.c.co{fill:var(--c1);animation-name:co}@keyframes cp{6%{fill:var(--c1)}6.02%,100%{fill:var(--ce)}}.c.cp{fill:var(--c1);animation-name:cp}@keyframes cq{71.53%{fill:var(--c3)}71.55%,100%{fill:var(--ce)}}.c.cq{fill:var(--c3);animation-name:cq}@keyframes cr{7.3%{fill:var(--c1)}7.32%,100%{fill:var(--ce)}}.c.cr{fill:var(--c1);animation-name:cr}@keyframes cs{9.13%{fill:var(--c1)}9.15%,100%{fill:var(--ce)}}.c.cs{fill:var(--c1);animation-name:cs}@keyframes ct{95.81%{fill:var(--c4)}95.83%,100%{fill:var(--ce)}}.c.ct{fill:var(--c4);animation-name:ct}@keyframes cu{8.08%{fill:var(--c1)}8.1%,100%{fill:var(--ce)}}.c.cu{fill:var(--c1);animation-name:cu}@keyframes cv{65.79%{fill:var(--c2)}65.81%,100%{fill:var(--ce)}}.c.cv{fill:var(--c2);animation-name:cv}@keyframes cw{9.65%{fill:var(--c1)}9.67%,100%{fill:var(--ce)}}.c.cw{fill:var(--c1);animation-name:cw}@keyframes cx{72.57%{fill:var(--c3)}72.59%,100%{fill:var(--ce)}}.c.cx{fill:var(--c3);animation-name:cx}@keyframes cy{65.26%{fill:var(--c2)}65.28%,100%{fill:var(--ce)}}.c.cy{fill:var(--c2);animation-name:cy}@keyframes cz{93.98%{fill:var(--c4)}94%,100%{fill:var(--ce)}}.c.cz{fill:var(--c4);animation-name:cz}@keyframes c10{25.06%{fill:var(--c1)}25.08%,100%{fill:var(--ce)}}.c.c10{fill:var(--c1);animation-name:c10}@keyframes c11{63.96%{fill:var(--c2)}63.98%,100%{fill:var(--ce)}}.c.c11{fill:var(--c2);animation-name:c11}@keyframes c12{92.94%{fill:var(--c4)}92.96%,100%{fill:var(--ce)}}.c.c12{fill:var(--c4);animation-name:c12}@keyframes c13{11.74%{fill:var(--c1)}11.76%,100%{fill:var(--ce)}}.c.c13{fill:var(--c1);animation-name:c13}@keyframes c14{11.48%{fill:var(--c1)}11.5%,100%{fill:var(--ce)}}.c.c14{fill:var(--c1);animation-name:c14}@keyframes c15{77.01%{fill:var(--c3)}77.03%,100%{fill:var(--ce)}}.c.c15{fill:var(--c3);animation-name:c15}@keyframes c16{73.62%{fill:var(--c3)}73.64%,100%{fill:var(--ce)}}.c.c16{fill:var(--c3);animation-name:c16}@keyframes c17{63.44%{fill:var(--c2)}63.46%,100%{fill:var(--ce)}}.c.c17{fill:var(--c2);animation-name:c17}@keyframes c18{10.96%{fill:var(--c1)}10.98%,100%{fill:var(--ce)}}.c.c18{fill:var(--c1);animation-name:c18}@keyframes c19{61.87%{fill:var(--c2)}61.89%,100%{fill:var(--ce)}}.c.c19{fill:var(--c2);animation-name:c19}@keyframes c1a{61.61%{fill:var(--c2)}61.63%,100%{fill:var(--ce)}}.c.c1a{fill:var(--c2);animation-name:c1a}@keyframes c1b{61.09%{fill:var(--c2)}61.11%,100%{fill:var(--ce)}}.c.c1b{fill:var(--c2);animation-name:c1b}@keyframes c1c{60.83%{fill:var(--c2)}60.85%,100%{fill:var(--ce)}}.c.c1c{fill:var(--c2);animation-name:c1c}@keyframes c1d{60.3%{fill:var(--c2)}60.32%,100%{fill:var(--ce)}}.c.c1d{fill:var(--c2);animation-name:c1d}@keyframes c1e{62.65%{fill:var(--c2)}62.67%,100%{fill:var(--ce)}}.c.c1e{fill:var(--c2);animation-name:c1e}@keyframes c1f{74.92%{fill:var(--c3)}74.94%,100%{fill:var(--ce)}}.c.c1f{fill:var(--c3);animation-name:c1f}@keyframes c1g{75.19%{fill:var(--c3)}75.21%,100%{fill:var(--ce)}}.c.c1g{fill:var(--c3);animation-name:c1g}@keyframes c1h{13.83%{fill:var(--c1)}13.85%,100%{fill:var(--ce)}}.c.c1h{fill:var(--c1);animation-name:c1h}@keyframes c1i{22.44%{fill:var(--c1)}22.46%,100%{fill:var(--ce)}}.c.c1i{fill:var(--c1);animation-name:c1i}@keyframes c1j{14.87%{fill:var(--c1)}14.89%,100%{fill:var(--ce)}}.c.c1j{fill:var(--c1);animation-name:c1j}@keyframes c1k{15.13%{fill:var(--c1)}15.15%,100%{fill:var(--ce)}}.c.c1k{fill:var(--c1);animation-name:c1k}@keyframes c1l{22.18%{fill:var(--c1)}22.2%,100%{fill:var(--ce)}}.c.c1l{fill:var(--c1);animation-name:c1l}@keyframes c1m{15.39%{fill:var(--c1)}15.41%,100%{fill:var(--ce)}}.c.c1m{fill:var(--c1);animation-name:c1m}@keyframes c1n{16.44%{fill:var(--c1)}16.46%,100%{fill:var(--ce)}}.c.c1n{fill:var(--c1);animation-name:c1n}@keyframes c1o{19.83%{fill:var(--c1)}19.85%,100%{fill:var(--ce)}}.c.c1o{fill:var(--c1);animation-name:c1o}@keyframes c1p{18.53%{fill:var(--c1)}18.55%,100%{fill:var(--ce)}}.c.c1p{fill:var(--c1);animation-name:c1p}@keyframes c1q{19.05%{fill:var(--c1)}19.07%,100%{fill:var(--ce)}}.c.c1q{fill:var(--c1);animation-name:c1q}@keyframes c1r{56.13%{fill:var(--c2)}56.15%,100%{fill:var(--ce)}}.c.c1r{fill:var(--c2);animation-name:c1r}@keyframes c1s{56.39%{fill:var(--c2)}56.41%,100%{fill:var(--ce)}}.c.c1s{fill:var(--c2);animation-name:c1s}@keyframes c1t{42.29%{fill:var(--c1)}42.31%,100%{fill:var(--ce)}}.c.c1t{fill:var(--c1);animation-name:c1t}@keyframes c1u{50.38%{fill:var(--c2)}50.4%,100%{fill:var(--ce)}}.c.c1u{fill:var(--c2);animation-name:c1u}@keyframes c1v{49.34%{fill:var(--c1)}49.36%,100%{fill:var(--ce)}}.c.c1v{fill:var(--c1);animation-name:c1v}@keyframes c1w{43.59%{fill:var(--c1)}43.61%,100%{fill:var(--ce)}}.c.c1w{fill:var(--c1);animation-name:c1w}@keyframes c1x{84.59%{fill:var(--c3)}84.61%,100%{fill:var(--ce)}}.c.c1x{fill:var(--c3);animation-name:c1x}@keyframes c1y{48.29%{fill:var(--c1)}48.31%,100%{fill:var(--ce)}}.c.c1y{fill:var(--c1);animation-name:c1y}@keyframes c1z{48.55%{fill:var(--c1)}48.57%,100%{fill:var(--ce)}}.c.c1z{fill:var(--c1);animation-name:c1z}@keyframes c20{47.77%{fill:var(--c1)}47.79%,100%{fill:var(--ce)}}.c.c20{fill:var(--c1);animation-name:c20}@keyframes c21{47.51%{fill:var(--c1)}47.53%,100%{fill:var(--ce)}}.c.c21{fill:var(--c1);animation-name:c21}@keyframes c22{52.21%{fill:var(--c2)}52.23%,100%{fill:var(--ce)}}.c.c22{fill:var(--c2);animation-name:c22}@keyframes c23{44.64%{fill:var(--c1)}44.66%,100%{fill:var(--ce)}}.c.c23{fill:var(--c1);animation-name:c23}@keyframes c24{45.42%{fill:var(--c1)}45.44%,100%{fill:var(--ce)}}.c.c24{fill:var(--c1);animation-name:c24}@keyframes c25{45.68%{fill:var(--c1)}45.7%,100%{fill:var(--ce)}}.c.c25{fill:var(--c1);animation-name:c25}.u{transform-origin:0 0;transform:scale(0,1);animation:none linear 38300ms infinite}@keyframes u0{0.25%{transform:scale(0.000,1)}0.27%,0.77%{transform:scale(0.020,1)}0.79%,1.3%{transform:scale(0.039,1)}1.32%,1.56%{transform:scale(0.059,1)}1.58%,2.08%{transform:scale(0.078,1)}2.1%,2.34%{transform:scale(0.098,1)}2.36%,2.86%{transform:scale(0.118,1)}2.88%,3.38%{transform:scale(0.137,1)}3.4%,3.91%{transform:scale(0.157,1)}3.93%,4.69%{transform:scale(0.176,1)}4.71%,5.21%{transform:scale(0.196,1)}5.23%,5.47%{transform:scale(0.216,1)}5.49%,5.73%{transform:scale(0.235,1)}5.75%,6%{transform:scale(0.255,1)}6.02%,6.26%{transform:scale(0.275,1)}6.28%,6.52%{transform:scale(0.294,1)}6.54%,7.3%{transform:scale(0.314,1)}7.32%,8.08%{transform:scale(0.333,1)}8.1%,9.13%{transform:scale(0.353,1)}9.15%,9.65%{transform:scale(0.373,1)}9.67%,10.96%{transform:scale(0.392,1)}10.98%,11.48%{transform:scale(0.412,1)}11.5%,11.74%{transform:scale(0.431,1)}11.76%,13.83%{transform:scale(0.451,1)}13.85%,14.87%{transform:scale(0.471,1)}14.89%,15.13%{transform:scale(0.490,1)}15.15%,15.39%{transform:scale(0.510,1)}15.41%,16.44%{transform:scale(0.529,1)}16.46%,18.53%{transform:scale(0.549,1)}18.55%,19.05%{transform:scale(0.569,1)}19.07%,19.83%{transform:scale(0.588,1)}19.85%,22.18%{transform:scale(0.608,1)}22.2%,22.44%{transform:scale(0.627,1)}22.46%,25.06%{transform:scale(0.647,1)}25.08%,26.88%{transform:scale(0.667,1)}26.9%,27.67%{transform:scale(0.686,1)}27.69%,29.23%{transform:scale(0.706,1)}29.25%,30.02%{transform:scale(0.725,1)}30.04%,30.28%{transform:scale(0.745,1)}30.3%,31.32%{transform:scale(0.765,1)}31.34%,31.58%{transform:scale(0.784,1)}31.6%,42.29%{transform:scale(0.804,1)}42.31%,43.59%{transform:scale(0.824,1)}43.61%,44.64%{transform:scale(0.843,1)}44.66%,45.42%{transform:scale(0.863,1)}45.44%,45.68%{transform:scale(0.882,1)}45.7%,47.51%{transform:scale(0.902,1)}47.53%,47.77%{transform:scale(0.922,1)}47.79%,48.29%{transform:scale(0.941,1)}48.31%,48.55%{transform:scale(0.961,1)}48.57%,49.34%{transform:scale(0.980,1)}49.36%,100%{transform:scale(1.000,1)}}.u.u0{fill:var(--c1);animation-name:u0;transform-origin:0.0px 0}@keyframes u1{50.38%{transform:scale(0.000,1)}50.4%,52.21%{transform:scale(0.063,1)}52.23%,56.13%{transform:scale(0.125,1)}56.15%,56.39%{transform:scale(0.188,1)}56.41%,60.3%{transform:scale(0.250,1)}60.32%,60.83%{transform:scale(0.313,1)}60.85%,61.09%{transform:scale(0.375,1)}61.11%,61.61%{transform:scale(0.438,1)}61.63%,61.87%{transform:scale(0.500,1)}61.89%,62.65%{transform:scale(0.563,1)}62.67%,63.44%{transform:scale(0.625,1)}63.46%,63.96%{transform:scale(0.688,1)}63.98%,65.26%{transform:scale(0.750,1)}65.28%,65.79%{transform:scale(0.813,1)}65.81%,67.61%{transform:scale(0.875,1)}67.63%,69.18%{transform:scale(0.938,1)}69.2%,100%{transform:scale(1.000,1)}}.u.u1{fill:var(--c2);animation-name:u1;transform-origin:554.5px 0}@keyframes u2{71.53%{transform:scale(0.000,1)}71.55%,72.57%{transform:scale(0.143,1)}72.59%,73.62%{transform:scale(0.286,1)}73.64%,74.92%{transform:scale(0.429,1)}74.94%,75.19%{transform:scale(0.571,1)}75.21%,77.01%{transform:scale(0.714,1)}77.03%,84.59%{transform:scale(0.857,1)}84.61%,100%{transform:scale(1.000,1)}}.u.u2{fill:var(--c3);animation-name:u2;transform-origin:728.4px 0}@keyframes u3{92.94%{transform:scale(0.000,1)}92.96%,93.98%{transform:scale(0.250,1)}94%,95.81%{transform:scale(0.500,1)}95.83%,96.6%{transform:scale(0.750,1)}96.62%,100%{transform:scale(1.000,1)}}.u.u3{fill:var(--c4);animation-name:u3;transform-origin:804.5px 0}.s{shape-rendering:geometricPrecision;fill:var(--cs);animation:none linear 38300ms infinite}@keyframes s0{0%,99.74%{transform:translate(0px,-16px)}0.26%{transform:translate(0px,0px)}1.83%{transform:translate(96px,0px)}2.09%{transform:translate(96px,16px)}2.35%,68.67%{transform:translate(112px,16px)}2.61%{transform:translate(112px,32px)}3.13%{transform:translate(80px,32px)}3.92%{transform:translate(80px,80px)}4.18%{transform:translate(96px,80px)}4.44%{transform:translate(96px,96px)}4.96%{transform:translate(128px,96px)}5.22%{transform:translate(128px,80px)}6.01%{transform:translate(176px,80px)}6.27%{transform:translate(176px,64px)}6.53%{transform:translate(160px,64px)}6.79%{transform:translate(160px,48px)}7.83%{transform:translate(224px,48px)}8.09%,65.54%{transform:translate(224px,64px)}8.62%{transform:translate(192px,64px)}9.14%{transform:translate(192px,96px)}9.66%,34.73%,94.26%{transform:translate(224px,96px)}9.92%,34.99%{transform:translate(224px,112px)}10.7%{transform:translate(272px,112px)}11.23%{transform:translate(272px,80px)}11.49%{transform:translate(256px,80px)}11.75%,76.5%{transform:translate(256px,64px)}12.01%,64.75%,76.24%{transform:translate(272px,64px)}12.53%,64.23%,73.11%{transform:translate(272px,32px)}13.05%{transform:translate(304px,32px)}13.58%,60.57%{transform:translate(304px,64px)}14.62%{transform:translate(368px,64px)}15.14%{transform:translate(368px,96px)}17.75%{transform:translate(528px,96px)}18.54%{transform:translate(528px,48px)}18.8%,55.87%{transform:translate(544px,48px)}19.32%{transform:translate(544px,16px)}19.84%{transform:translate(512px,16px)}20.1%{transform:translate(512px,0px)}22.45%{transform:translate(368px,0px)}22.72%{transform:translate(368px,-16px)}24.54%{transform:translate(256px,-16px)}25.07%,63.71%{transform:translate(256px,16px)}25.59%,95.56%{transform:translate(224px,16px)}25.85%{transform:translate(224px,32px)}26.63%{transform:translate(176px,32px)}26.89%{transform:translate(176px,16px)}27.15%,71.02%{transform:translate(160px,16px)}27.42%,70.76%{transform:translate(160px,0px)}28.98%{transform:translate(64px,0px)}29.24%{transform:translate(64px,16px)}30.03%{transform:translate(16px,16px)}30.29%{transform:translate(16px,32px)}30.55%{transform:translate(32px,32px)}31.59%{transform:translate(32px,96px)}42.04%{transform:translate(656px,112px)}42.3%{transform:translate(656px,96px)}43.08%{transform:translate(704px,96px)}43.34%{transform:translate(704px,80px)}44.39%{transform:translate(768px,80px)}44.65%{transform:translate(768px,64px)}45.43%{transform:translate(816px,64px)}45.69%{transform:translate(816px,80px)}45.95%{transform:translate(800px,80px)}47%{transform:translate(800px,16px)}47.52%,51.7%{transform:translate(768px,16px)}47.78%{transform:translate(768px,0px)}48.3%{transform:translate(736px,0px)}48.56%{transform:translate(736px,16px)}49.09%,50.65%{transform:translate(704px,16px)}49.35%{transform:translate(704px,32px)}49.61%{transform:translate(720px,32px)}50.13%{transform:translate(720px,0px)}50.39%{transform:translate(704px,0px)}52.22%{transform:translate(768px,48px)}56.4%{transform:translate(544px,80px)}60.31%{transform:translate(304px,80px)}60.84%{transform:translate(288px,64px)}61.88%{transform:translate(288px,0px)}62.4%,74.41%{transform:translate(320px,0px)}62.66%{transform:translate(320px,16px)}63.97%{transform:translate(256px,32px)}65.8%{transform:translate(224px,80px)}67.62%{transform:translate(112px,80px)}69.19%{transform:translate(80px,16px)}69.45%,98.17%{transform:translate(80px,0px)}71.54%{transform:translate(192px,16px)}71.8%{transform:translate(192px,32px)}73.63%{transform:translate(272px,0px)}75.2%{transform:translate(320px,48px)}75.98%{transform:translate(272px,48px)}77.02%{transform:translate(256px,96px)}84.6%{transform:translate(720px,96px)}85.38%{transform:translate(720px,48px)}93.21%{transform:translate(240px,48px)}93.99%{transform:translate(240px,96px)}95.82%{transform:translate(208px,16px)}96.08%{transform:translate(208px,0px)}98.43%{transform:translate(80px,-16px)}}.s.s0{transform:translate(0px,-16px);animation-name:s0}@keyframes s1{0%,99.74%{transform:translate(16px,-16px)}0.26%{transform:translate(0px,-16px)}0.52%{transform:translate(0px,0px)}2.09%{transform:translate(96px,0px)}2.35%{transform:translate(96px,16px)}2.61%,68.93%{transform:translate(112px,16px)}2.87%{transform:translate(112px,32px)}3.39%{transform:translate(80px,32px)}4.18%{transform:translate(80px,80px)}4.44%{transform:translate(96px,80px)}4.7%{transform:translate(96px,96px)}5.22%{transform:translate(128px,96px)}5.48%{transform:translate(128px,80px)}6.27%{transform:translate(176px,80px)}6.53%{transform:translate(176px,64px)}6.79%{transform:translate(160px,64px)}7.05%{transform:translate(160px,48px)}8.09%{transform:translate(224px,48px)}8.36%,65.8%{transform:translate(224px,64px)}8.88%{transform:translate(192px,64px)}9.4%{transform:translate(192px,96px)}9.92%,34.99%,94.52%{transform:translate(224px,96px)}10.18%,35.25%{transform:translate(224px,112px)}10.97%{transform:translate(272px,112px)}11.49%{transform:translate(272px,80px)}11.75%{transform:translate(256px,80px)}12.01%,76.76%{transform:translate(256px,64px)}12.27%,65.01%,76.5%{transform:translate(272px,64px)}12.79%,64.49%,73.37%{transform:translate(272px,32px)}13.32%{transform:translate(304px,32px)}13.84%,60.84%{transform:translate(304px,64px)}14.88%{transform:translate(368px,64px)}15.4%{transform:translate(368px,96px)}18.02%{transform:translate(528px,96px)}18.8%{transform:translate(528px,48px)}19.06%,56.14%{transform:translate(544px,48px)}19.58%{transform:translate(544px,16px)}20.1%{transform:translate(512px,16px)}20.37%{transform:translate(512px,0px)}22.72%{transform:translate(368px,0px)}22.98%{transform:translate(368px,-16px)}24.8%{transform:translate(256px,-16px)}25.33%,63.97%{transform:translate(256px,16px)}25.85%,95.82%{transform:translate(224px,16px)}26.11%{transform:translate(224px,32px)}26.89%{transform:translate(176px,32px)}27.15%{transform:translate(176px,16px)}27.42%,71.28%{transform:translate(160px,16px)}27.68%,71.02%{transform:translate(160px,0px)}29.24%{transform:translate(64px,0px)}29.5%{transform:translate(64px,16px)}30.29%{transform:translate(16px,16px)}30.55%{transform:translate(16px,32px)}30.81%{transform:translate(32px,32px)}31.85%{transform:translate(32px,96px)}42.3%{transform:translate(656px,112px)}42.56%{transform:translate(656px,96px)}43.34%{transform:translate(704px,96px)}43.6%{transform:translate(704px,80px)}44.65%{transform:translate(768px,80px)}44.91%{transform:translate(768px,64px)}45.69%{transform:translate(816px,64px)}45.95%{transform:translate(816px,80px)}46.21%{transform:translate(800px,80px)}47.26%{transform:translate(800px,16px)}47.78%,51.96%{transform:translate(768px,16px)}48.04%{transform:translate(768px,0px)}48.56%{transform:translate(736px,0px)}48.83%{transform:translate(736px,16px)}49.35%,50.91%{transform:translate(704px,16px)}49.61%{transform:translate(704px,32px)}49.87%{transform:translate(720px,32px)}50.39%{transform:translate(720px,0px)}50.65%{transform:translate(704px,0px)}52.48%{transform:translate(768px,48px)}56.66%{transform:translate(544px,80px)}60.57%{transform:translate(304px,80px)}61.1%{transform:translate(288px,64px)}62.14%{transform:translate(288px,0px)}62.66%,74.67%{transform:translate(320px,0px)}62.92%{transform:translate(320px,16px)}64.23%{transform:translate(256px,32px)}66.06%{transform:translate(224px,80px)}67.89%{transform:translate(112px,80px)}69.45%{transform:translate(80px,16px)}69.71%,98.43%{transform:translate(80px,0px)}71.8%{transform:translate(192px,16px)}72.06%{transform:translate(192px,32px)}73.89%{transform:translate(272px,0px)}75.46%{transform:translate(320px,48px)}76.24%{transform:translate(272px,48px)}77.28%{transform:translate(256px,96px)}84.86%{transform:translate(720px,96px)}85.64%{transform:translate(720px,48px)}93.47%{transform:translate(240px,48px)}94.26%{transform:translate(240px,96px)}96.08%{transform:translate(208px,16px)}96.34%{transform:translate(208px,0px)}98.69%{transform:translate(80px,-16px)}}.s.s1{transform:translate(16px,-16px);animation-name:s1}@keyframes s2{0%,99.74%{transform:translate(32px,-16px)}0.52%{transform:translate(0px,-16px)}0.78%{transform:translate(0px,0px)}2.35%{transform:translate(96px,0px)}2.61%{transform:translate(96px,16px)}2.87%,69.19%{transform:translate(112px,16px)}3.13%{transform:translate(112px,32px)}3.66%{transform:translate(80px,32px)}4.44%{transform:translate(80px,80px)}4.7%{transform:translate(96px,80px)}4.96%{transform:translate(96px,96px)}5.48%{transform:translate(128px,96px)}5.74%{transform:translate(128px,80px)}6.53%{transform:translate(176px,80px)}6.79%{transform:translate(176px,64px)}7.05%{transform:translate(160px,64px)}7.31%{transform:translate(160px,48px)}8.36%{transform:translate(224px,48px)}8.62%,66.06%{transform:translate(224px,64px)}9.14%{transform:translate(192px,64px)}9.66%{transform:translate(192px,96px)}10.18%,35.25%,94.78%{transform:translate(224px,96px)}10.44%,35.51%{transform:translate(224px,112px)}11.23%{transform:translate(272px,112px)}11.75%{transform:translate(272px,80px)}12.01%{transform:translate(256px,80px)}12.27%,77.02%{transform:translate(256px,64px)}12.53%,65.27%,76.76%{transform:translate(272px,64px)}13.05%,64.75%,73.63%{transform:translate(272px,32px)}13.58%{transform:translate(304px,32px)}14.1%,61.1%{transform:translate(304px,64px)}15.14%{transform:translate(368px,64px)}15.67%{transform:translate(368px,96px)}18.28%{transform:translate(528px,96px)}19.06%{transform:translate(528px,48px)}19.32%,56.4%{transform:translate(544px,48px)}19.84%{transform:translate(544px,16px)}20.37%{transform:translate(512px,16px)}20.63%{transform:translate(512px,0px)}22.98%{transform:translate(368px,0px)}23.24%{transform:translate(368px,-16px)}25.07%{transform:translate(256px,-16px)}25.59%,64.23%{transform:translate(256px,16px)}26.11%,96.08%{transform:translate(224px,16px)}26.37%{transform:translate(224px,32px)}27.15%{transform:translate(176px,32px)}27.42%{transform:translate(176px,16px)}27.68%,71.54%{transform:translate(160px,16px)}27.94%,71.28%{transform:translate(160px,0px)}29.5%{transform:translate(64px,0px)}29.77%{transform:translate(64px,16px)}30.55%{transform:translate(16px,16px)}30.81%{transform:translate(16px,32px)}31.07%{transform:translate(32px,32px)}32.11%{transform:translate(32px,96px)}42.56%{transform:translate(656px,112px)}42.82%{transform:translate(656px,96px)}43.6%{transform:translate(704px,96px)}43.86%{transform:translate(704px,80px)}44.91%{transform:translate(768px,80px)}45.17%{transform:translate(768px,64px)}45.95%{transform:translate(816px,64px)}46.21%{transform:translate(816px,80px)}46.48%{transform:translate(800px,80px)}47.52%{transform:translate(800px,16px)}48.04%,52.22%{transform:translate(768px,16px)}48.3%{transform:translate(768px,0px)}48.83%{transform:translate(736px,0px)}49.09%{transform:translate(736px,16px)}49.61%,51.17%{transform:translate(704px,16px)}49.87%{transform:translate(704px,32px)}50.13%{transform:translate(720px,32px)}50.65%{transform:translate(720px,0px)}50.91%{transform:translate(704px,0px)}52.74%{transform:translate(768px,48px)}56.92%{transform:translate(544px,80px)}60.84%{transform:translate(304px,80px)}61.36%{transform:translate(288px,64px)}62.4%{transform:translate(288px,0px)}62.92%,74.93%{transform:translate(320px,0px)}63.19%{transform:translate(320px,16px)}64.49%{transform:translate(256px,32px)}66.32%{transform:translate(224px,80px)}68.15%{transform:translate(112px,80px)}69.71%{transform:translate(80px,16px)}69.97%,98.69%{transform:translate(80px,0px)}72.06%{transform:translate(192px,16px)}72.32%{transform:translate(192px,32px)}74.15%{transform:translate(272px,0px)}75.72%{transform:translate(320px,48px)}76.5%{transform:translate(272px,48px)}77.55%{transform:translate(256px,96px)}85.12%{transform:translate(720px,96px)}85.9%{transform:translate(720px,48px)}93.73%{transform:translate(240px,48px)}94.52%{transform:translate(240px,96px)}96.34%{transform:translate(208px,16px)}96.61%{transform:translate(208px,0px)}98.96%{transform:translate(80px,-16px)}}.s.s2{transform:translate(32px,-16px);animation-name:s2}@keyframes s3{0%,99.74%{transform:translate(48px,-16px)}0.78%{transform:translate(0px,-16px)}1.04%{transform:translate(0px,0px)}2.61%{transform:translate(96px,0px)}2.87%{transform:translate(96px,16px)}3.13%,69.45%{transform:translate(112px,16px)}3.39%{transform:translate(112px,32px)}3.92%{transform:translate(80px,32px)}4.7%{transform:translate(80px,80px)}4.96%{transform:translate(96px,80px)}5.22%{transform:translate(96px,96px)}5.74%{transform:translate(128px,96px)}6.01%{transform:translate(128px,80px)}6.79%{transform:translate(176px,80px)}7.05%{transform:translate(176px,64px)}7.31%{transform:translate(160px,64px)}7.57%{transform:translate(160px,48px)}8.62%{transform:translate(224px,48px)}8.88%,66.32%{transform:translate(224px,64px)}9.4%{transform:translate(192px,64px)}9.92%{transform:translate(192px,96px)}10.44%,35.51%,95.04%{transform:translate(224px,96px)}10.7%,35.77%{transform:translate(224px,112px)}11.49%{transform:translate(272px,112px)}12.01%{transform:translate(272px,80px)}12.27%{transform:translate(256px,80px)}12.53%,77.28%{transform:translate(256px,64px)}12.79%,65.54%,77.02%{transform:translate(272px,64px)}13.32%,65.01%,73.89%{transform:translate(272px,32px)}13.84%{transform:translate(304px,32px)}14.36%,61.36%{transform:translate(304px,64px)}15.4%{transform:translate(368px,64px)}15.93%{transform:translate(368px,96px)}18.54%{transform:translate(528px,96px)}19.32%{transform:translate(528px,48px)}19.58%,56.66%{transform:translate(544px,48px)}20.1%{transform:translate(544px,16px)}20.63%{transform:translate(512px,16px)}20.89%{transform:translate(512px,0px)}23.24%{transform:translate(368px,0px)}23.5%{transform:translate(368px,-16px)}25.33%{transform:translate(256px,-16px)}25.85%,64.49%{transform:translate(256px,16px)}26.37%,96.34%{transform:translate(224px,16px)}26.63%{transform:translate(224px,32px)}27.42%{transform:translate(176px,32px)}27.68%{transform:translate(176px,16px)}27.94%,71.8%{transform:translate(160px,16px)}28.2%,71.54%{transform:translate(160px,0px)}29.77%{transform:translate(64px,0px)}30.03%{transform:translate(64px,16px)}30.81%{transform:translate(16px,16px)}31.07%{transform:translate(16px,32px)}31.33%{transform:translate(32px,32px)}32.38%{transform:translate(32px,96px)}42.82%{transform:translate(656px,112px)}43.08%{transform:translate(656px,96px)}43.86%{transform:translate(704px,96px)}44.13%{transform:translate(704px,80px)}45.17%{transform:translate(768px,80px)}45.43%{transform:translate(768px,64px)}46.21%{transform:translate(816px,64px)}46.48%{transform:translate(816px,80px)}46.74%{transform:translate(800px,80px)}47.78%{transform:translate(800px,16px)}48.3%,52.48%{transform:translate(768px,16px)}48.56%{transform:translate(768px,0px)}49.09%{transform:translate(736px,0px)}49.35%{transform:translate(736px,16px)}49.87%,51.44%{transform:translate(704px,16px)}50.13%{transform:translate(704px,32px)}50.39%{transform:translate(720px,32px)}50.91%{transform:translate(720px,0px)}51.17%{transform:translate(704px,0px)}53%{transform:translate(768px,48px)}57.18%{transform:translate(544px,80px)}61.1%{transform:translate(304px,80px)}61.62%{transform:translate(288px,64px)}62.66%{transform:translate(288px,0px)}63.19%,75.2%{transform:translate(320px,0px)}63.45%{transform:translate(320px,16px)}64.75%{transform:translate(256px,32px)}66.58%{transform:translate(224px,80px)}68.41%{transform:translate(112px,80px)}69.97%{transform:translate(80px,16px)}70.23%,98.96%{transform:translate(80px,0px)}72.32%{transform:translate(192px,16px)}72.58%{transform:translate(192px,32px)}74.41%{transform:translate(272px,0px)}75.98%{transform:translate(320px,48px)}76.76%{transform:translate(272px,48px)}77.81%{transform:translate(256px,96px)}85.38%{transform:translate(720px,96px)}86.16%{transform:translate(720px,48px)}93.99%{transform:translate(240px,48px)}94.78%{transform:translate(240px,96px)}96.61%{transform:translate(208px,16px)}96.87%{transform:translate(208px,0px)}99.22%{transform:translate(80px,-16px)}}.s.s3{transform:translate(48px,-16px);animation-name:s3}</style><rect class="c c0" x="2" y="2" rx="2" ry="2"/><rect class="c" x="2" y="18" rx="2" ry="2"/><rect class="c" x="2" y="34" rx="2" ry="2"/><rect class="c" x="2" y="50" rx="2" ry="2"/><rect class="c" x="2" y="66" rx="2" ry="2"/><rect class="c" x="2" y="82" rx="2" ry="2"/><rect class="c" x="2" y="98" rx="2" ry="2"/><rect class="c" x="18" y="2" rx="2" ry="2"/><rect class="c c1" x="18" y="18" rx="2" ry="2"/><rect class="c c2" x="18" y="34" rx="2" ry="2"/><rect class="c" x="18" y="50" rx="2" ry="2"/><rect class="c" x="18" y="66" rx="2" ry="2"/><rect class="c" x="18" y="82" rx="2" ry="2"/><rect class="c" x="18" y="98" rx="2" ry="2"/><rect class="c c3" x="34" y="2" rx="2" ry="2"/><rect class="c" x="34" y="18" rx="2" ry="2"/><rect class="c" x="34" y="34" rx="2" ry="2"/><rect class="c" x="34" y="50" rx="2" ry="2"/><rect class="c" x="34" y="66" rx="2" ry="2"/><rect class="c c4" x="34" y="82" rx="2" ry="2"/><rect class="c c5" x="34" y="98" rx="2" ry="2"/><rect class="c" x="50" y="2" rx="2" ry="2"/><rect class="c" x="50" y="18" rx="2" ry="2"/><rect class="c" x="50" y="34" rx="2" ry="2"/><rect class="c" x="50" y="50" rx="2" ry="2"/><rect class="c" x="50" y="66" rx="2" ry="2"/><rect class="c" x="50" y="82" rx="2" ry="2"/><rect class="c" x="50" y="98" rx="2" ry="2"/><rect class="c c6" x="66" y="2" rx="2" ry="2"/><rect class="c c7" x="66" y="18" rx="2" ry="2"/><rect class="c" x="66" y="34" rx="2" ry="2"/><rect class="c" x="66" y="50" rx="2" ry="2"/><rect class="c" x="66" y="66" rx="2" ry="2"/><rect class="c" x="66" y="82" rx="2" ry="2"/><rect class="c" x="66" y="98" rx="2" ry="2"/><rect class="c c8" x="82" y="2" rx="2" ry="2"/><rect class="c c9" x="82" y="18" rx="2" ry="2"/><rect class="c" x="82" y="34" rx="2" ry="2"/><rect class="c ca" x="82" y="50" rx="2" ry="2"/><rect class="c" x="82" y="66" rx="2" ry="2"/><rect class="c cb" x="82" y="82" rx="2" ry="2"/><rect class="c" x="82" y="98" rx="2" ry="2"/><rect class="c" x="98" y="2" rx="2" ry="2"/><rect class="c cc" x="98" y="18" rx="2" ry="2"/><rect class="c cd" x="98" y="34" rx="2" ry="2"/><rect class="c" x="98" y="50" rx="2" ry="2"/><rect class="c" x="98" y="66" rx="2" ry="2"/><rect class="c" x="98" y="82" rx="2" ry="2"/><rect class="c" x="98" y="98" rx="2" ry="2"/><rect class="c" x="114" y="2" rx="2" ry="2"/><rect class="c ce" x="114" y="18" rx="2" ry="2"/><rect class="c" x="114" y="34" rx="2" ry="2"/><rect class="c" x="114" y="50" rx="2" ry="2"/><rect class="c" x="114" y="66" rx="2" ry="2"/><rect class="c cf" x="114" y="82" rx="2" ry="2"/><rect class="c cg" x="114" y="98" rx="2" ry="2"/><rect class="c" x="130" y="2" rx="2" ry="2"/><rect class="c" x="130" y="18" rx="2" ry="2"/><rect class="c" x="130" y="34" rx="2" ry="2"/><rect class="c" x="130" y="50" rx="2" ry="2"/><rect class="c" x="130" y="66" rx="2" ry="2"/><rect class="c ch" x="130" y="82" rx="2" ry="2"/><rect class="c" x="130" y="98" rx="2" ry="2"/><rect class="c ci" x="146" y="2" rx="2" ry="2"/><rect class="c" x="146" y="18" rx="2" ry="2"/><rect class="c" x="146" y="34" rx="2" ry="2"/><rect class="c" x="146" y="50" rx="2" ry="2"/><rect class="c" x="146" y="66" rx="2" ry="2"/><rect class="c cj" x="146" y="82" rx="2" ry="2"/><rect class="c" x="146" y="98" rx="2" ry="2"/><rect class="c" x="162" y="2" rx="2" ry="2"/><rect class="c" x="162" y="18" rx="2" ry="2"/><rect class="c" x="162" y="34" rx="2" ry="2"/><rect class="c" x="162" y="50" rx="2" ry="2"/><rect class="c ck" x="162" y="66" rx="2" ry="2"/><rect class="c cl" x="162" y="82" rx="2" ry="2"/><rect class="c" x="162" y="98" rx="2" ry="2"/><rect class="c cm" x="178" y="2" rx="2" ry="2"/><rect class="c cn" x="178" y="18" rx="2" ry="2"/><rect class="c" x="178" y="34" rx="2" ry="2"/><rect class="c" x="178" y="50" rx="2" ry="2"/><rect class="c co" x="178" y="66" rx="2" ry="2"/><rect class="c cp" x="178" y="82" rx="2" ry="2"/><rect class="c" x="178" y="98" rx="2" ry="2"/><rect class="c" x="194" y="2" rx="2" ry="2"/><rect class="c cq" x="194" y="18" rx="2" ry="2"/><rect class="c" x="194" y="34" rx="2" ry="2"/><rect class="c cr" x="194" y="50" rx="2" ry="2"/><rect class="c" x="194" y="66" rx="2" ry="2"/><rect class="c" x="194" y="82" rx="2" ry="2"/><rect class="c cs" x="194" y="98" rx="2" ry="2"/><rect class="c" x="210" y="2" rx="2" ry="2"/><rect class="c ct" x="210" y="18" rx="2" ry="2"/><rect class="c" x="210" y="34" rx="2" ry="2"/><rect class="c" x="210" y="50" rx="2" ry="2"/><rect class="c" x="210" y="66" rx="2" ry="2"/><rect class="c" x="210" y="82" rx="2" ry="2"/><rect class="c" x="210" y="98" rx="2" ry="2"/><rect class="c" x="226" y="2" rx="2" ry="2"/><rect class="c" x="226" y="18" rx="2" ry="2"/><rect class="c" x="226" y="34" rx="2" ry="2"/><rect class="c" x="226" y="50" rx="2" ry="2"/><rect class="c cu" x="226" y="66" rx="2" ry="2"/><rect class="c cv" x="226" y="82" rx="2" ry="2"/><rect class="c cw" x="226" y="98" rx="2" ry="2"/><rect class="c" x="242" y="2" rx="2" ry="2"/><rect class="c" x="242" y="18" rx="2" ry="2"/><rect class="c cx" x="242" y="34" rx="2" ry="2"/><rect class="c" x="242" y="50" rx="2" ry="2"/><rect class="c cy" x="242" y="66" rx="2" ry="2"/><rect class="c" x="242" y="82" rx="2" ry="2"/><rect class="c cz" x="242" y="98" rx="2" ry="2"/><rect class="c" x="258" y="2" rx="2" ry="2"/><rect class="c c10" x="258" y="18" rx="2" ry="2"/><rect class="c c11" x="258" y="34" rx="2" ry="2"/><rect class="c c12" x="258" y="50" rx="2" ry="2"/><rect class="c c13" x="258" y="66" rx="2" ry="2"/><rect class="c c14" x="258" y="82" rx="2" ry="2"/><rect class="c c15" x="258" y="98" rx="2" ry="2"/><rect class="c c16" x="274" y="2" rx="2" ry="2"/><rect class="c c17" x="274" y="18" rx="2" ry="2"/><rect class="c" x="274" y="34" rx="2" ry="2"/><rect class="c" x="274" y="50" rx="2" ry="2"/><rect class="c" x="274" y="66" rx="2" ry="2"/><rect class="c" x="274" y="82" rx="2" ry="2"/><rect class="c c18" x="274" y="98" rx="2" ry="2"/><rect class="c c19" x="290" y="2" rx="2" ry="2"/><rect class="c c1a" x="290" y="18" rx="2" ry="2"/><rect class="c" x="290" y="34" rx="2" ry="2"/><rect class="c c1b" x="290" y="50" rx="2" ry="2"/><rect class="c c1c" x="290" y="66" rx="2" ry="2"/><rect class="c" x="290" y="82" rx="2" ry="2"/><rect class="c" x="290" y="98" rx="2" ry="2"/><rect class="c" x="306" y="2" rx="2" ry="2"/><rect class="c" x="306" y="18" rx="2" ry="2"/><rect class="c" x="306" y="34" rx="2" ry="2"/><rect class="c" x="306" y="50" rx="2" ry="2"/><rect class="c" x="306" y="66" rx="2" ry="2"/><rect class="c c1d" x="306" y="82" rx="2" ry="2"/><rect class="c" x="306" y="98" rx="2" ry="2"/><rect class="c" x="322" y="2" rx="2" ry="2"/><rect class="c c1e" x="322" y="18" rx="2" ry="2"/><rect class="c c1f" x="322" y="34" rx="2" ry="2"/><rect class="c c1g" x="322" y="50" rx="2" ry="2"/><rect class="c c1h" x="322" y="66" rx="2" ry="2"/><rect class="c" x="322" y="82" rx="2" ry="2"/><rect class="c" x="322" y="98" rx="2" ry="2"/><rect class="c" x="338" y="2" rx="2" ry="2"/><rect class="c" x="338" y="18" rx="2" ry="2"/><rect class="c" x="338" y="34" rx="2" ry="2"/><rect class="c" x="338" y="50" rx="2" ry="2"/><rect class="c" x="338" y="66" rx="2" ry="2"/><rect class="c" x="338" y="82" rx="2" ry="2"/><rect class="c" x="338" y="98" rx="2" ry="2"/><rect class="c" x="354" y="2" rx="2" ry="2"/><rect class="c" x="354" y="18" rx="2" ry="2"/><rect class="c" x="354" y="34" rx="2" ry="2"/><rect class="c" x="354" y="50" rx="2" ry="2"/><rect class="c" x="354" y="66" rx="2" ry="2"/><rect class="c" x="354" y="82" rx="2" ry="2"/><rect class="c" x="354" y="98" rx="2" ry="2"/><rect class="c c1i" x="370" y="2" rx="2" ry="2"/><rect class="c" x="370" y="18" rx="2" ry="2"/><rect class="c" x="370" y="34" rx="2" ry="2"/><rect class="c" x="370" y="50" rx="2" ry="2"/><rect class="c" x="370" y="66" rx="2" ry="2"/><rect class="c c1j" x="370" y="82" rx="2" ry="2"/><rect class="c c1k" x="370" y="98" rx="2" ry="2"/><rect class="c c1l" x="386" y="2" rx="2" ry="2"/><rect class="c" x="386" y="18" rx="2" ry="2"/><rect class="c" x="386" y="34" rx="2" ry="2"/><rect class="c" x="386" y="50" rx="2" ry="2"/><rect class="c" x="386" y="66" rx="2" ry="2"/><rect class="c" x="386" y="82" rx="2" ry="2"/><rect class="c c1m" x="386" y="98" rx="2" ry="2"/><rect class="c" x="402" y="2" rx="2" ry="2"/><rect class="c" x="402" y="18" rx="2" ry="2"/><rect class="c" x="402" y="34" rx="2" ry="2"/><rect class="c" x="402" y="50" rx="2" ry="2"/><rect class="c" x="402" y="66" rx="2" ry="2"/><rect class="c" x="402" y="82" rx="2" ry="2"/><rect class="c" x="402" y="98" rx="2" ry="2"/><rect class="c" x="418" y="2" rx="2" ry="2"/><rect class="c" x="418" y="18" rx="2" ry="2"/><rect class="c" x="418" y="34" rx="2" ry="2"/><rect class="c" x="418" y="50" rx="2" ry="2"/><rect class="c" x="418" y="66" rx="2" ry="2"/><rect class="c" x="418" y="82" rx="2" ry="2"/><rect class="c" x="418" y="98" rx="2" ry="2"/><rect class="c" x="434" y="2" rx="2" ry="2"/><rect class="c" x="434" y="18" rx="2" ry="2"/><rect class="c" x="434" y="34" rx="2" ry="2"/><rect class="c" x="434" y="50" rx="2" ry="2"/><rect class="c" x="434" y="66" rx="2" ry="2"/><rect class="c" x="434" y="82" rx="2" ry="2"/><rect class="c" x="434" y="98" rx="2" ry="2"/><rect class="c" x="450" y="2" rx="2" ry="2"/><rect class="c" x="450" y="18" rx="2" ry="2"/><rect class="c" x="450" y="34" rx="2" ry="2"/><rect class="c" x="450" y="50" rx="2" ry="2"/><rect class="c" x="450" y="66" rx="2" ry="2"/><rect class="c" x="450" y="82" rx="2" ry="2"/><rect class="c c1n" x="450" y="98" rx="2" ry="2"/><rect class="c" x="466" y="2" rx="2" ry="2"/><rect class="c" x="466" y="18" rx="2" ry="2"/><rect class="c" x="466" y="34" rx="2" ry="2"/><rect class="c" x="466" y="50" rx="2" ry="2"/><rect class="c" x="466" y="66" rx="2" ry="2"/><rect class="c" x="466" y="82" rx="2" ry="2"/><rect class="c" x="466" y="98" rx="2" ry="2"/><rect class="c" x="482" y="2" rx="2" ry="2"/><rect class="c" x="482" y="18" rx="2" ry="2"/><rect class="c" x="482" y="34" rx="2" ry="2"/><rect class="c" x="482" y="50" rx="2" ry="2"/><rect class="c" x="482" y="66" rx="2" ry="2"/><rect class="c" x="482" y="82" rx="2" ry="2"/><rect class="c" x="482" y="98" rx="2" ry="2"/><rect class="c" x="498" y="2" rx="2" ry="2"/><rect class="c" x="498" y="18" rx="2" ry="2"/><rect class="c" x="498" y="34" rx="2" ry="2"/><rect class="c" x="498" y="50" rx="2" ry="2"/><rect class="c" x="498" y="66" rx="2" ry="2"/><rect class="c" x="498" y="82" rx="2" ry="2"/><rect class="c" x="498" y="98" rx="2" ry="2"/><rect class="c" x="514" y="2" rx="2" ry="2"/><rect class="c c1o" x="514" y="18" rx="2" ry="2"/><rect class="c" x="514" y="34" rx="2" ry="2"/><rect class="c" x="514" y="50" rx="2" ry="2"/><rect class="c" x="514" y="66" rx="2" ry="2"/><rect class="c" x="514" y="82" rx="2" ry="2"/><rect class="c" x="514" y="98" rx="2" ry="2"/><rect class="c" x="530" y="2" rx="2" ry="2"/><rect class="c" x="530" y="18" rx="2" ry="2"/><rect class="c" x="530" y="34" rx="2" ry="2"/><rect class="c c1p" x="530" y="50" rx="2" ry="2"/><rect class="c" x="530" y="66" rx="2" ry="2"/><rect class="c" x="530" y="82" rx="2" ry="2"/><rect class="c" x="530" y="98" rx="2" ry="2"/><rect class="c" x="546" y="2" rx="2" ry="2"/><rect class="c" x="546" y="18" rx="2" ry="2"/><rect class="c c1q" x="546" y="34" rx="2" ry="2"/><rect class="c" x="546" y="50" rx="2" ry="2"/><rect class="c c1r" x="546" y="66" rx="2" ry="2"/><rect class="c c1s" x="546" y="82" rx="2" ry="2"/><rect class="c" x="546" y="98" rx="2" ry="2"/><rect class="c" x="562" y="2" rx="2" ry="2"/><rect class="c" x="562" y="18" rx="2" ry="2"/><rect class="c" x="562" y="34" rx="2" ry="2"/><rect class="c" x="562" y="50" rx="2" ry="2"/><rect class="c" x="562" y="66" rx="2" ry="2"/><rect class="c" x="562" y="82" rx="2" ry="2"/><rect class="c" x="562" y="98" rx="2" ry="2"/><rect class="c" x="578" y="2" rx="2" ry="2"/><rect class="c" x="578" y="18" rx="2" ry="2"/><rect class="c" x="578" y="34" rx="2" ry="2"/><rect class="c" x="578" y="50" rx="2" ry="2"/><rect class="c" x="578" y="66" rx="2" ry="2"/><rect class="c" x="578" y="82" rx="2" ry="2"/><rect class="c" x="578" y="98" rx="2" ry="2"/><rect class="c" x="594" y="2" rx="2" ry="2"/><rect class="c" x="594" y="18" rx="2" ry="2"/><rect class="c" x="594" y="34" rx="2" ry="2"/><rect class="c" x="594" y="50" rx="2" ry="2"/><rect class="c" x="594" y="66" rx="2" ry="2"/><rect class="c" x="594" y="82" rx="2" ry="2"/><rect class="c" x="594" y="98" rx="2" ry="2"/><rect class="c" x="610" y="2" rx="2" ry="2"/><rect class="c" x="610" y="18" rx="2" ry="2"/><rect class="c" x="610" y="34" rx="2" ry="2"/><rect class="c" x="610" y="50" rx="2" ry="2"/><rect class="c" x="610" y="66" rx="2" ry="2"/><rect class="c" x="610" y="82" rx="2" ry="2"/><rect class="c" x="610" y="98" rx="2" ry="2"/><rect class="c" x="626" y="2" rx="2" ry="2"/><rect class="c" x="626" y="18" rx="2" ry="2"/><rect class="c" x="626" y="34" rx="2" ry="2"/><rect class="c" x="626" y="50" rx="2" ry="2"/><rect class="c" x="626" y="66" rx="2" ry="2"/><rect class="c" x="626" y="82" rx="2" ry="2"/><rect class="c" x="626" y="98" rx="2" ry="2"/><rect class="c" x="642" y="2" rx="2" ry="2"/><rect class="c" x="642" y="18" rx="2" ry="2"/><rect class="c" x="642" y="34" rx="2" ry="2"/><rect class="c" x="642" y="50" rx="2" ry="2"/><rect class="c" x="642" y="66" rx="2" ry="2"/><rect class="c" x="642" y="82" rx="2" ry="2"/><rect class="c" x="642" y="98" rx="2" ry="2"/><rect class="c" x="658" y="2" rx="2" ry="2"/><rect class="c" x="658" y="18" rx="2" ry="2"/><rect class="c" x="658" y="34" rx="2" ry="2"/><rect class="c" x="658" y="50" rx="2" ry="2"/><rect class="c" x="658" y="66" rx="2" ry="2"/><rect class="c" x="658" y="82" rx="2" ry="2"/><rect class="c c1t" x="658" y="98" rx="2" ry="2"/><rect class="c" x="674" y="2" rx="2" ry="2"/><rect class="c" x="674" y="18" rx="2" ry="2"/><rect class="c" x="674" y="34" rx="2" ry="2"/><rect class="c" x="674" y="50" rx="2" ry="2"/><rect class="c" x="674" y="66" rx="2" ry="2"/><rect class="c" x="674" y="82" rx="2" ry="2"/><rect class="c" x="674" y="98" rx="2" ry="2"/><rect class="c" x="690" y="2" rx="2" ry="2"/><rect class="c" x="690" y="18" rx="2" ry="2"/><rect class="c" x="690" y="34" rx="2" ry="2"/><rect class="c" x="690" y="50" rx="2" ry="2"/><rect class="c" x="690" y="66" rx="2" ry="2"/><rect class="c" x="690" y="82" rx="2" ry="2"/><rect class="c" x="690" y="98" rx="2" ry="2"/><rect class="c c1u" x="706" y="2" rx="2" ry="2"/><rect class="c" x="706" y="18" rx="2" ry="2"/><rect class="c c1v" x="706" y="34" rx="2" ry="2"/><rect class="c" x="706" y="50" rx="2" ry="2"/><rect class="c" x="706" y="66" rx="2" ry="2"/><rect class="c" x="706" y="82" rx="2" ry="2"/><rect class="c" x="706" y="98" rx="2" ry="2"/><rect class="c" x="722" y="2" rx="2" ry="2"/><rect class="c" x="722" y="18" rx="2" ry="2"/><rect class="c" x="722" y="34" rx="2" ry="2"/><rect class="c" x="722" y="50" rx="2" ry="2"/><rect class="c" x="722" y="66" rx="2" ry="2"/><rect class="c c1w" x="722" y="82" rx="2" ry="2"/><rect class="c c1x" x="722" y="98" rx="2" ry="2"/><rect class="c c1y" x="738" y="2" rx="2" ry="2"/><rect class="c c1z" x="738" y="18" rx="2" ry="2"/><rect class="c" x="738" y="34" rx="2" ry="2"/><rect class="c" x="738" y="50" rx="2" ry="2"/><rect class="c" x="738" y="66" rx="2" ry="2"/><rect class="c" x="738" y="82" rx="2" ry="2"/><rect class="c" x="738" y="98" rx="2" ry="2"/><rect class="c" x="754" y="2" rx="2" ry="2"/><rect class="c" x="754" y="18" rx="2" ry="2"/><rect class="c" x="754" y="34" rx="2" ry="2"/><rect class="c" x="754" y="50" rx="2" ry="2"/><rect class="c" x="754" y="66" rx="2" ry="2"/><rect class="c" x="754" y="82" rx="2" ry="2"/><rect class="c" x="754" y="98" rx="2" ry="2"/><rect class="c c20" x="770" y="2" rx="2" ry="2"/><rect class="c c21" x="770" y="18" rx="2" ry="2"/><rect class="c" x="770" y="34" rx="2" ry="2"/><rect class="c c22" x="770" y="50" rx="2" ry="2"/><rect class="c c23" x="770" y="66" rx="2" ry="2"/><rect class="c" x="770" y="82" rx="2" ry="2"/><rect class="c" x="770" y="98" rx="2" ry="2"/><rect class="c" x="786" y="2" rx="2" ry="2"/><rect class="c" x="786" y="18" rx="2" ry="2"/><rect class="c" x="786" y="34" rx="2" ry="2"/><rect class="c" x="786" y="50" rx="2" ry="2"/><rect class="c" x="786" y="66" rx="2" ry="2"/><rect class="c" x="786" y="82" rx="2" ry="2"/><rect class="c" x="786" y="98" rx="2" ry="2"/><rect class="c" x="802" y="2" rx="2" ry="2"/><rect class="c" x="802" y="18" rx="2" ry="2"/><rect class="c" x="802" y="34" rx="2" ry="2"/><rect class="c" x="802" y="50" rx="2" ry="2"/><rect class="c" x="802" y="66" rx="2" ry="2"/><rect class="c" x="802" y="82" rx="2" ry="2"/><rect class="c" x="802" y="98" rx="2" ry="2"/><rect class="c" x="818" y="2" rx="2" ry="2"/><rect class="c" x="818" y="18" rx="2" ry="2"/><rect class="c" x="818" y="34" rx="2" ry="2"/><rect class="c" x="818" y="50" rx="2" ry="2"/><rect class="c c24" x="818" y="66" rx="2" ry="2"/><rect class="c c25" x="818" y="82" rx="2" ry="2"/><rect class="c" x="818" y="98" rx="2" ry="2"/><rect class="c" x="834" y="2" rx="2" ry="2"/><rect class="c" x="834" y="18" rx="2" ry="2"/><rect class="u u0" height="12" width="555.1" x="0.0" y="144"/><rect class="u u1" height="12" width="174.5" x="554.5" y="144"/><rect class="u u2" height="12" width="76.7" x="728.4" y="144"/><rect class="u u3" height="12" width="44.1" x="804.5" y="144"/><rect class="s s0" x="0.8" y="0.8" width="14.4" height="14.4" rx="4.5" ry="4.5"/><rect class="s s1" x="1.8" y="1.8" width="12.3" height="12.3" rx="4.1" ry="4.1"/><rect class="s s2" x="2.6" y="2.6" width="10.8" height="10.8" rx="3.6" ry="3.6"/><rect class="s s3" x="3.0" y="3.0" width="9.9" height="9.9" rx="3.3" ry="3.3"/></svg>