<svg viewBox="-16 -32 880 192" width="880" height="192" xmlns="http://www.w3.org/2000/svg"><desc>Generated with https://github.com/Platane/snk</desc><style>:root{--cb:#1b1f230a;--cs:white;--ce:#0a0e12;--c0:#0a0e12;--c1:#1445a2;--c2:#1d65ee;--c3:#1f4eff;--c4:#466dff}.c{shape-rendering:geometricPrecision;fill:var(--ce);stroke-width:1px;stroke:var(--cb);animation:none 27100ms linear infinite;width:12px;height:12px}@keyframes c0{1.84%{fill:var(--c1)}1.86%,100%{fill:var(--ce)}}.c.c0{fill:var(--c1);animation-name:c0}@keyframes c1{3.68%{fill:var(--c1)}3.7%,100%{fill:var(--ce)}}.c.c1{fill:var(--c1);animation-name:c1}@keyframes c2{2.94%{fill:var(--c1)}2.96%,100%{fill:var(--ce)}}.c.c2{fill:var(--c1);animation-name:c2}@keyframes c3{65.67%{fill:var(--c2)}65.69%,100%{fill:var(--ce)}}.c.c3{fill:var(--c2);animation-name:c3}@keyframes c4{66.04%{fill:var(--c3)}66.06%,100%{fill:var(--ce)}}.c.c4{fill:var(--c3);animation-name:c4}@keyframes c5{62.35%{fill:var(--c2)}62.37%,100%{fill:var(--ce)}}.c.c5{fill:var(--c2);animation-name:c5}@keyframes c6{58.29%{fill:var(--c2)}58.31%,100%{fill:var(--ce)}}.c.c6{fill:var(--c2);animation-name:c6}@keyframes c7{8.11%{fill:var(--c1)}8.13%,100%{fill:var(--ce)}}.c.c7{fill:var(--c1);animation-name:c7}@keyframes c8{60.51%{fill:var(--c2)}60.53%,100%{fill:var(--ce)}}.c.c8{fill:var(--c2);animation-name:c8}@keyframes c9{91.13%{fill:var(--c4)}91.15%,100%{fill:var(--ce)}}.c.c9{fill:var(--c4);animation-name:c9}@keyframes ca{9.58%{fill:var(--c1)}9.6%,100%{fill:var(--ce)}}.c.ca{fill:var(--c1);animation-name:ca}@keyframes cb{9.22%{fill:var(--c1)}9.24%,100%{fill:var(--ce)}}.c.cb{fill:var(--c1);animation-name:cb}@keyframes cc{10.32%{fill:var(--c1)}10.34%,100%{fill:var(--ce)}}.c.cc{fill:var(--c1);animation-name:cc}@keyframes cd{10.69%{fill:var(--c1)}10.71%,100%{fill:var(--ce)}}.c.cd{fill:var(--c1);animation-name:cd}@keyframes ce{71.95%{fill:var(--c3)}71.97%,100%{fill:var(--ce)}}.c.ce{fill:var(--c3);animation-name:ce}@keyframes cf{12.54%{fill:var(--c1)}12.56%,100%{fill:var(--ce)}}.c.cf{fill:var(--c1);animation-name:cf}@keyframes cg{14.38%{fill:var(--c1)}14.4%,100%{fill:var(--ce)}}.c.cg{fill:var(--c1);animation-name:cg}@keyframes ch{14.01%{fill:var(--c1)}14.03%,100%{fill:var(--ce)}}.c.ch{fill:var(--c1);animation-name:ch}@keyframes ci{17.33%{fill:var(--c1)}17.35%,100%{fill:var(--ce)}}.c.ci{fill:var(--c1);animation-name:ci}@keyframes cj{76.37%{fill:var(--c3)}76.39%,100%{fill:var(--ce)}}.c.cj{fill:var(--c3);animation-name:cj}@keyframes ck{17.7%{fill:var(--c1)}17.72%,100%{fill:var(--ce)}}.c.ck{fill:var(--c1);animation-name:ck}@keyframes cl{18.81%{fill:var(--c1)}18.83%,100%{fill:var(--ce)}}.c.cl{fill:var(--c1);animation-name:cl}@keyframes cm{19.55%{fill:var(--c1)}19.57%,100%{fill:var(--ce)}}.c.cm{fill:var(--c1);animation-name:cm}@keyframes cn{46.12%{fill:var(--c2)}46.14%,100%{fill:var(--ce)}}.c.cn{fill:var(--c2);animation-name:cn}@keyframes co{44.27%{fill:var(--c2)}44.29%,100%{fill:var(--ce)}}.c.co{fill:var(--c2);animation-name:co}@keyframes cp{22.13%{fill:var(--c1)}22.15%,100%{fill:var(--ce)}}.c.cp{fill:var(--c1);animation-name:cp}@keyframes cq{21.76%{fill:var(--c1)}21.78%,100%{fill:var(--ce)}}.c.cq{fill:var(--c1);animation-name:cq}@keyframes cr{21.02%{fill:var(--c1)}21.04%,100%{fill:var(--ce)}}.c.cr{fill:var(--c1);animation-name:cr}@keyframes cs{25.82%{fill:var(--c1)}25.84%,100%{fill:var(--ce)}}.c.cs{fill:var(--c1);animation-name:cs}@keyframes ct{42.79%{fill:var(--c2)}42.81%,100%{fill:var(--ce)}}.c.ct{fill:var(--c2);animation-name:ct}@keyframes cu{41.69%{fill:var(--c2)}41.71%,100%{fill:var(--ce)}}.c.cu{fill:var(--c2);animation-name:cu}@keyframes cv{24.34%{fill:var(--c1)}24.36%,100%{fill:var(--ce)}}.c.cv{fill:var(--c1);animation-name:cv}@keyframes cw{48.33%{fill:var(--c2)}48.35%,100%{fill:var(--ce)}}.c.cw{fill:var(--c2);animation-name:cw}@keyframes cx{80.43%{fill:var(--c4)}80.45%,100%{fill:var(--ce)}}.c.cx{fill:var(--c4);animation-name:cx}@keyframes cy{40.95%{fill:var(--c2)}40.97%,100%{fill:var(--ce)}}.c.cy{fill:var(--c2);animation-name:cy}@keyframes cz{29.14%{fill:var(--c1)}29.16%,100%{fill:var(--ce)}}.c.cz{fill:var(--c1);animation-name:cz}@keyframes c10{38.74%{fill:var(--c2)}38.76%,100%{fill:var(--ce)}}.c.c10{fill:var(--c2);animation-name:c10}@keyframes c11{34.31%{fill:var(--c1)}34.33%,100%{fill:var(--ce)}}.c.c11{fill:var(--c1);animation-name:c11}@keyframes c12{36.15%{fill:var(--c2)}36.17%,100%{fill:var(--ce)}}.c.c12{fill:var(--c2);animation-name:c12}@keyframes c13{32.09%{fill:var(--c1)}32.11%,100%{fill:var(--ce)}}.c.c13{fill:var(--c1);animation-name:c13}@keyframes c14{34.68%{fill:var(--c2)}34.7%,100%{fill:var(--ce)}}.c.c14{fill:var(--c2);animation-name:c14}.u{transform-origin:0 0;transform:scale(0,1);animation:none linear 27100ms infinite}@keyframes u0{1.84%{transform:scale(0.000,1)}1.86%,2.94%{transform:scale(0.043,1)}2.96%,3.68%{transform:scale(0.087,1)}3.7%,8.11%{transform:scale(0.130,1)}8.13%,9.22%{transform:scale(0.174,1)}9.24%,9.58%{transform:scale(0.217,1)}9.6%,10.32%{transform:scale(0.261,1)}10.34%,10.69%{transform:scale(0.304,1)}10.71%,12.54%{transform:scale(0.348,1)}12.56%,14.01%{transform:scale(0.391,1)}14.03%,14.38%{transform:scale(0.435,1)}14.4%,17.33%{transform:scale(0.478,1)}17.35%,17.7%{transform:scale(0.522,1)}17.72%,18.81%{transform:scale(0.565,1)}18.83%,19.55%{transform:scale(0.609,1)}19.57%,21.02%{transform:scale(0.652,1)}21.04%,21.76%{transform:scale(0.696,1)}21.78%,22.13%{transform:scale(0.739,1)}22.15%,24.34%{transform:scale(0.783,1)}24.36%,25.82%{transform:scale(0.826,1)}25.84%,29.14%{transform:scale(0.870,1)}29.16%,32.09%{transform:scale(0.913,1)}32.11%,34.31%{transform:scale(0.957,1)}34.33%,100%{transform:scale(1.000,1)}}.u.u0{fill:var(--c1);animation-name:u0;transform-origin:0.0px 0}@keyframes u1{34.68%{transform:scale(0.000,1)}34.7%,36.15%{transform:scale(0.077,1)}36.17%,38.74%{transform:scale(0.154,1)}38.76%,40.95%{transform:scale(0.231,1)}40.97%,41.69%{transform:scale(0.308,1)}41.71%,42.79%{transform:scale(0.385,1)}42.81%,44.27%{transform:scale(0.462,1)}44.29%,46.12%{transform:scale(0.538,1)}46.14%,48.33%{transform:scale(0.615,1)}48.35%,58.29%{transform:scale(0.692,1)}58.31%,60.51%{transform:scale(0.769,1)}60.53%,62.35%{transform:scale(0.846,1)}62.37%,65.67%{transform:scale(0.923,1)}65.69%,100%{transform:scale(1.000,1)}}.u.u1{fill:var(--c2);animation-name:u1;transform-origin:475.7px 0}@keyframes u2{66.04%{transform:scale(0.000,1)}66.06%,71.95%{transform:scale(0.333,1)}71.97%,76.37%{transform:scale(0.667,1)}76.39%,100%{transform:scale(1.000,1)}}.u.u2{fill:var(--c3);animation-name:u2;transform-origin:744.6px 0}@keyframes u3{80.43%{transform:scale(0.000,1)}80.45%,91.13%{transform:scale(0.500,1)}91.15%,100%{transform:scale(1.000,1)}}.u.u3{fill:var(--c4);animation-name:u3;transform-origin:806.6px 0}.s{shape-rendering:geometricPrecision;fill:var(--cs);animation:none linear 27100ms infinite}@keyframes s0{0%,99.63%{transform:translate(0px,-16px)}0.37%{transform:translate(0px,0px)}1.48%{transform:translate(48px,0px)}1.85%{transform:translate(48px,16px)}2.58%{transform:translate(80px,16px)}2.95%{transform:translate(80px,32px)}3.32%{transform:translate(64px,32px)}3.69%{transform:translate(64px,48px)}7.75%{transform:translate(240px,48px)}8.12%{transform:translate(240px,32px)}8.86%{transform:translate(272px,32px)}9.59%{transform:translate(272px,0px)}10.33%{transform:translate(304px,0px)}10.7%{transform:translate(304px,16px)}11.07%{transform:translate(320px,16px)}12.18%{transform:translate(320px,64px)}12.55%{transform:translate(304px,64px)}12.92%,71.22%{transform:translate(304px,80px)}14.02%{transform:translate(352px,80px)}14.39%{transform:translate(352px,64px)}16.97%{transform:translate(464px,64px)}17.34%{transform:translate(464px,48px)}18.08%{transform:translate(496px,48px)}18.82%{transform:translate(496px,80px)}19.56%{transform:translate(528px,80px)}19.93%{transform:translate(528px,64px)}20.66%{transform:translate(560px,64px)}22.14%{transform:translate(560px,0px)}23.62%{transform:translate(624px,0px)}24.35%{transform:translate(624px,32px)}25.09%{transform:translate(592px,32px)}26.2%{transform:translate(592px,80px)}28.78%,39.11%{transform:translate(704px,80px)}29.15%,39.48%{transform:translate(704px,64px)}31.37%{transform:translate(800px,64px)}31.73%{transform:translate(800px,80px)}32.47%{transform:translate(832px,80px)}33.58%,35.06%{transform:translate(832px,32px)}33.95%,35.42%{transform:translate(816px,32px)}34.32%{transform:translate(816px,16px)}34.69%{transform:translate(832px,16px)}36.16%{transform:translate(816px,64px)}38.38%{transform:translate(720px,64px)}38.75%{transform:translate(720px,80px)}42.07%{transform:translate(592px,64px)}42.8%{transform:translate(592px,96px)}43.17%{transform:translate(576px,96px)}43.54%{transform:translate(576px,80px)}44.28%{transform:translate(544px,80px)}46.13%{transform:translate(544px,0px)}48.34%{transform:translate(640px,0px)}48.71%{transform:translate(640px,-16px)}57.93%{transform:translate(240px,-16px)}58.3%{transform:translate(240px,0px)}58.67%{transform:translate(256px,0px)}60.52%{transform:translate(256px,80px)}61.99%{transform:translate(192px,80px)}62.36%{transform:translate(192px,96px)}62.73%{transform:translate(176px,96px)}63.47%{transform:translate(176px,64px)}65.68%{transform:translate(80px,64px)}66.05%{transform:translate(80px,80px)}71.96%{transform:translate(304px,48px)}76.01%{transform:translate(480px,48px)}76.38%{transform:translate(480px,32px)}80.07%{transform:translate(640px,32px)}80.44%{transform:translate(640px,16px)}89.3%{transform:translate(256px,16px)}91.14%{transform:translate(256px,96px)}92.25%{transform:translate(208px,96px)}93.36%{transform:translate(208px,48px)}94.83%{transform:translate(144px,48px)}95.57%{transform:translate(144px,16px)}95.94%{transform:translate(128px,16px)}96.31%{transform:translate(128px,0px)}97.42%{transform:translate(80px,0px)}97.79%{transform:translate(80px,-16px)}}.s.s0{transform:translate(0px,-16px);animation-name:s0}@keyframes s1{0%,99.63%{transform:translate(16px,-16px)}0.37%{transform:translate(0px,-16px)}0.74%{transform:translate(0px,0px)}1.85%{transform:translate(48px,0px)}2.21%{transform:translate(48px,16px)}2.95%{transform:translate(80px,16px)}3.32%{transform:translate(80px,32px)}3.69%{transform:translate(64px,32px)}4.06%{transform:translate(64px,48px)}8.12%{transform:translate(240px,48px)}8.49%{transform:translate(240px,32px)}9.23%{transform:translate(272px,32px)}9.96%{transform:translate(272px,0px)}10.7%{transform:translate(304px,0px)}11.07%{transform:translate(304px,16px)}11.44%{transform:translate(320px,16px)}12.55%{transform:translate(320px,64px)}12.92%{transform:translate(304px,64px)}13.28%,71.59%{transform:translate(304px,80px)}14.39%{transform:translate(352px,80px)}14.76%{transform:translate(352px,64px)}17.34%{transform:translate(464px,64px)}17.71%{transform:translate(464px,48px)}18.45%{transform:translate(496px,48px)}19.19%{transform:translate(496px,80px)}19.93%{transform:translate(528px,80px)}20.3%{transform:translate(528px,64px)}21.03%{transform:translate(560px,64px)}22.51%{transform:translate(560px,0px)}23.99%{transform:translate(624px,0px)}24.72%{transform:translate(624px,32px)}25.46%{transform:translate(592px,32px)}26.57%{transform:translate(592px,80px)}29.15%,39.48%{transform:translate(704px,80px)}29.52%,39.85%{transform:translate(704px,64px)}31.73%{transform:translate(800px,64px)}32.1%{transform:translate(800px,80px)}32.84%{transform:translate(832px,80px)}33.95%,35.42%{transform:translate(832px,32px)}34.32%,35.79%{transform:translate(816px,32px)}34.69%{transform:translate(816px,16px)}35.06%{transform:translate(832px,16px)}36.53%{transform:translate(816px,64px)}38.75%{transform:translate(720px,64px)}39.11%{transform:translate(720px,80px)}42.44%{transform:translate(592px,64px)}43.17%{transform:translate(592px,96px)}43.54%{transform:translate(576px,96px)}43.91%{transform:translate(576px,80px)}44.65%{transform:translate(544px,80px)}46.49%{transform:translate(544px,0px)}48.71%{transform:translate(640px,0px)}49.08%{transform:translate(640px,-16px)}58.3%{transform:translate(240px,-16px)}58.67%{transform:translate(240px,0px)}59.04%{transform:translate(256px,0px)}60.89%{transform:translate(256px,80px)}62.36%{transform:translate(192px,80px)}62.73%{transform:translate(192px,96px)}63.1%{transform:translate(176px,96px)}63.84%{transform:translate(176px,64px)}66.05%{transform:translate(80px,64px)}66.42%{transform:translate(80px,80px)}72.32%{transform:translate(304px,48px)}76.38%{transform:translate(480px,48px)}76.75%{transform:translate(480px,32px)}80.44%{transform:translate(640px,32px)}80.81%{transform:translate(640px,16px)}89.67%{transform:translate(256px,16px)}91.51%{transform:translate(256px,96px)}92.62%{transform:translate(208px,96px)}93.73%{transform:translate(208px,48px)}95.2%{transform:translate(144px,48px)}95.94%{transform:translate(144px,16px)}96.31%{transform:translate(128px,16px)}96.68%{transform:translate(128px,0px)}97.79%{transform:translate(80px,0px)}98.15%{transform:translate(80px,-16px)}}.s.s1{transform:translate(16px,-16px);animation-name:s1}@keyframes s2{0%,99.63%{transform:translate(32px,-16px)}0.74%{transform:translate(0px,-16px)}1.11%{transform:translate(0px,0px)}2.21%{transform:translate(48px,0px)}2.58%{transform:translate(48px,16px)}3.32%{transform:translate(80px,16px)}3.69%{transform:translate(80px,32px)}4.06%{transform:translate(64px,32px)}4.43%{transform:translate(64px,48px)}8.49%{transform:translate(240px,48px)}8.86%{transform:translate(240px,32px)}9.59%{transform:translate(272px,32px)}10.33%{transform:translate(272px,0px)}11.07%{transform:translate(304px,0px)}11.44%{transform:translate(304px,16px)}11.81%{transform:translate(320px,16px)}12.92%{transform:translate(320px,64px)}13.28%{transform:translate(304px,64px)}13.65%,71.96%{transform:translate(304px,80px)}14.76%{transform:translate(352px,80px)}15.13%{transform:translate(352px,64px)}17.71%{transform:translate(464px,64px)}18.08%{transform:translate(464px,48px)}18.82%{transform:translate(496px,48px)}19.56%{transform:translate(496px,80px)}20.3%{transform:translate(528px,80px)}20.66%{transform:translate(528px,64px)}21.4%{transform:translate(560px,64px)}22.88%{transform:translate(560px,0px)}24.35%{transform:translate(624px,0px)}25.09%{transform:translate(624px,32px)}25.83%{transform:translate(592px,32px)}26.94%{transform:translate(592px,80px)}29.52%,39.85%{transform:translate(704px,80px)}29.89%,40.22%{transform:translate(704px,64px)}32.1%{transform:translate(800px,64px)}32.47%{transform:translate(800px,80px)}33.21%{transform:translate(832px,80px)}34.32%,35.79%{transform:translate(832px,32px)}34.69%,36.16%{transform:translate(816px,32px)}35.06%{transform:translate(816px,16px)}35.42%{transform:translate(832px,16px)}36.9%{transform:translate(816px,64px)}39.11%{transform:translate(720px,64px)}39.48%{transform:translate(720px,80px)}42.8%{transform:translate(592px,64px)}43.54%{transform:translate(592px,96px)}43.91%{transform:translate(576px,96px)}44.28%{transform:translate(576px,80px)}45.02%{transform:translate(544px,80px)}46.86%{transform:translate(544px,0px)}49.08%{transform:translate(640px,0px)}49.45%{transform:translate(640px,-16px)}58.67%{transform:translate(240px,-16px)}59.04%{transform:translate(240px,0px)}59.41%{transform:translate(256px,0px)}61.25%{transform:translate(256px,80px)}62.73%{transform:translate(192px,80px)}63.1%{transform:translate(192px,96px)}63.47%{transform:translate(176px,96px)}64.21%{transform:translate(176px,64px)}66.42%{transform:translate(80px,64px)}66.79%{transform:translate(80px,80px)}72.69%{transform:translate(304px,48px)}76.75%{transform:translate(480px,48px)}77.12%{transform:translate(480px,32px)}80.81%{transform:translate(640px,32px)}81.18%{transform:translate(640px,16px)}90.04%{transform:translate(256px,16px)}91.88%{transform:translate(256px,96px)}92.99%{transform:translate(208px,96px)}94.1%{transform:translate(208px,48px)}95.57%{transform:translate(144px,48px)}96.31%{transform:translate(144px,16px)}96.68%{transform:translate(128px,16px)}97.05%{transform:translate(128px,0px)}98.15%{transform:translate(80px,0px)}98.52%{transform:translate(80px,-16px)}}.s.s2{transform:translate(32px,-16px);animation-name:s2}@keyframes s3{0%,99.63%{transform:translate(48px,-16px)}1.11%{transform:translate(0px,-16px)}1.48%{transform:translate(0px,0px)}2.58%{transform:translate(48px,0px)}2.95%{transform:translate(48px,16px)}3.69%{transform:translate(80px,16px)}4.06%{transform:translate(80px,32px)}4.43%{transform:translate(64px,32px)}4.8%{transform:translate(64px,48px)}8.86%{transform:translate(240px,48px)}9.23%{transform:translate(240px,32px)}9.96%{transform:translate(272px,32px)}10.7%{transform:translate(272px,0px)}11.44%{transform:translate(304px,0px)}11.81%{transform:translate(304px,16px)}12.18%{transform:translate(320px,16px)}13.28%{transform:translate(320px,64px)}13.65%{transform:translate(304px,64px)}14.02%,72.32%{transform:translate(304px,80px)}15.13%{transform:translate(352px,80px)}15.5%{transform:translate(352px,64px)}18.08%{transform:translate(464px,64px)}18.45%{transform:translate(464px,48px)}19.19%{transform:translate(496px,48px)}19.93%{transform:translate(496px,80px)}20.66%{transform:translate(528px,80px)}21.03%{transform:translate(528px,64px)}21.77%{transform:translate(560px,64px)}23.25%{transform:translate(560px,0px)}24.72%{transform:translate(624px,0px)}25.46%{transform:translate(624px,32px)}26.2%{transform:translate(592px,32px)}27.31%{transform:translate(592px,80px)}29.89%,40.22%{transform:translate(704px,80px)}30.26%,40.59%{transform:translate(704px,64px)}32.47%{transform:translate(800px,64px)}32.84%{transform:translate(800px,80px)}33.58%{transform:translate(832px,80px)}34.69%,36.16%{transform:translate(832px,32px)}35.06%,36.53%{transform:translate(816px,32px)}35.42%{transform:translate(816px,16px)}35.79%{transform:translate(832px,16px)}37.27%{transform:translate(816px,64px)}39.48%{transform:translate(720px,64px)}39.85%{transform:translate(720px,80px)}43.17%{transform:translate(592px,64px)}43.91%{transform:translate(592px,96px)}44.28%{transform:translate(576px,96px)}44.65%{transform:translate(576px,80px)}45.39%{transform:translate(544px,80px)}47.23%{transform:translate(544px,0px)}49.45%{transform:translate(640px,0px)}49.82%{transform:translate(640px,-16px)}59.04%{transform:translate(240px,-16px)}59.41%{transform:translate(240px,0px)}59.78%{transform:translate(256px,0px)}61.62%{transform:translate(256px,80px)}63.1%{transform:translate(192px,80px)}63.47%{transform:translate(192px,96px)}63.84%{transform:translate(176px,96px)}64.58%{transform:translate(176px,64px)}66.79%{transform:translate(80px,64px)}67.16%{transform:translate(80px,80px)}73.06%{transform:translate(304px,48px)}77.12%{transform:translate(480px,48px)}77.49%{transform:translate(480px,32px)}81.18%{transform:translate(640px,32px)}81.55%{transform:translate(640px,16px)}90.41%{transform:translate(256px,16px)}92.25%{transform:translate(256px,96px)}93.36%{transform:translate(208px,96px)}94.46%{transform:translate(208px,48px)}95.94%{transform:translate(144px,48px)}96.68%{transform:translate(144px,16px)}97.05%{transform:translate(128px,16px)}97.42%{transform:translate(128px,0px)}98.52%{transform:translate(80px,0px)}98.89%{transform:translate(80px,-16px)}}.s.s3{transform:translate(48px,-16px);animation-name:s3}</style><rect class="c" x="2" y="2" rx="2" ry="2"/><rect class="c" x="2" y="18" rx="2" ry="2"/><rect class="c" x="2" y="34" rx="2" ry="2"/><rect class="c" x="2" y="50" rx="2" ry="2"/><rect class="c" x="2" y="66" rx="2" ry="2"/><rect class="c" x="2" y="82" rx="2" ry="2"/><rect class="c" x="2" y="98" rx="2" ry="2"/><rect class="c" x="18" y="2" rx="2" ry="2"/><rect class="c" x="18" y="18" rx="2" ry="2"/><rect class="c" x="18" y="34" rx="2" ry="2"/><rect class="c" x="18" y="50" rx="2" ry="2"/><rect class="c" x="18" y="66" rx="2" ry="2"/><rect class="c" x="18" y="82" rx="2" ry="2"/><rect class="c" x="18" y="98" rx="2" ry="2"/><rect class="c" x="34" y="2" rx="2" ry="2"/><rect class="c" x="34" y="18" rx="2" ry="2"/><rect class="c" x="34" y="34" rx="2" ry="2"/><rect class="c" x="34" y="50" rx="2" ry="2"/><rect class="c" x="34" y="66" rx="2" ry="2"/><rect class="c" x="34" y="82" rx="2" ry="2"/><rect class="c" x="34" y="98" rx="2" ry="2"/><rect class="c" x="50" y="2" rx="2" ry="2"/><rect class="c c0" x="50" y="18" rx="2" ry="2"/><rect class="c" x="50" y="34" rx="2" ry="2"/><rect class="c" x="50" y="50" rx="2" ry="2"/><rect class="c" x="50" y="66" rx="2" ry="2"/><rect class="c" x="50" y="82" rx="2" ry="2"/><rect class="c" x="50" y="98" rx="2" ry="2"/><rect class="c" x="66" y="2" rx="2" ry="2"/><rect class="c" x="66" y="18" rx="2" ry="2"/><rect class="c" x="66" y="34" rx="2" ry="2"/><rect class="c c1" x="66" y="50" rx="2" ry="2"/><rect class="c" x="66" y="66" rx="2" ry="2"/><rect class="c" x="66" y="82" rx="2" ry="2"/><rect class="c" x="66" y="98" rx="2" ry="2"/><rect class="c" x="82" y="2" rx="2" ry="2"/><rect class="c" x="82" y="18" rx="2" ry="2"/><rect class="c c2" x="82" y="34" rx="2" ry="2"/><rect class="c" x="82" y="50" rx="2" ry="2"/><rect class="c c3" x="82" y="66" rx="2" ry="2"/><rect class="c c4" x="82" y="82" rx="2" ry="2"/><rect class="c" x="82" y="98" rx="2" ry="2"/><rect class="c" x="98" y="2" rx="2" ry="2"/><rect class="c" x="98" y="18" rx="2" ry="2"/><rect class="c" x="98" y="34" rx="2" ry="2"/><rect class="c" x="98" y="50" rx="2" ry="2"/><rect class="c" x="98" y="66" rx="2" ry="2"/><rect class="c" x="98" y="82" rx="2" ry="2"/><rect class="c" x="98" y="98" rx="2" ry="2"/><rect class="c" x="114" y="2" rx="2" ry="2"/><rect class="c" x="114" y="18" rx="2" ry="2"/><rect class="c" x="114" y="34" rx="2" ry="2"/><rect class="c" x="114" y="50" rx="2" ry="2"/><rect class="c" x="114" y="66" rx="2" ry="2"/><rect class="c" x="114" y="82" rx="2" ry="2"/><rect class="c" x="114" y="98" rx="2" ry="2"/><rect class="c" x="130" y="2" rx="2" ry="2"/><rect class="c" x="130" y="18" rx="2" ry="2"/><rect class="c" x="130" y="34" rx="2" ry="2"/><rect class="c" x="130" y="50" rx="2" ry="2"/><rect class="c" x="130" y="66" rx="2" ry="2"/><rect class="c" x="130" y="82" rx="2" ry="2"/><rect class="c" x="130" y="98" rx="2" ry="2"/><rect class="c" x="146" y="2" rx="2" ry="2"/><rect class="c" x="146" y="18" rx="2" ry="2"/><rect class="c" x="146" y="34" rx="2" ry="2"/><rect class="c" x="146" y="50" rx="2" ry="2"/><rect class="c" x="146" y="66" rx="2" ry="2"/><rect class="c" x="146" y="82" rx="2" ry="2"/><rect class="c" x="146" y="98" rx="2" ry="2"/><rect class="c" x="162" y="2" rx="2" ry="2"/><rect class="c" x="162" y="18" rx="2" ry="2"/><rect class="c" x="162" y="34" rx="2" ry="2"/><rect class="c" x="162" y="50" rx="2" ry="2"/><rect class="c" x="162" y="66" rx="2" ry="2"/><rect class="c" x="162" y="82" rx="2" ry="2"/><rect class="c" x="162" y="98" rx="2" ry="2"/><rect class="c" x="178" y="2" rx="2" ry="2"/><rect class="c" x="178" y="18" rx="2" ry="2"/><rect class="c" x="178" y="34" rx="2" ry="2"/><rect class="c" x="178" y="50" rx="2" ry="2"/><rect class="c" x="178" y="66" rx="2" ry="2"/><rect class="c" x="178" y="82" rx="2" ry="2"/><rect class="c" x="178" y="98" rx="2" ry="2"/><rect class="c" x="194" y="2" rx="2" ry="2"/><rect class="c" x="194" y="18" rx="2" ry="2"/><rect class="c" x="194" y="34" rx="2" ry="2"/><rect class="c" x="194" y="50" rx="2" ry="2"/><rect class="c" x="194" y="66" rx="2" ry="2"/><rect class="c" x="194" y="82" rx="2" ry="2"/><rect class="c c5" x="194" y="98" rx="2" ry="2"/><rect class="c" x="210" y="2" rx="2" ry="2"/><rect class="c" x="210" y="18" rx="2" ry="2"/><rect class="c" x="210" y="34" rx="2" ry="2"/><rect class="c" x="210" y="50" rx="2" ry="2"/><rect class="c" x="210" y="66" rx="2" ry="2"/><rect class="c" x="210" y="82" rx="2" ry="2"/><rect class="c" x="210" y="98" rx="2" ry="2"/><rect class="c" x="226" y="2" rx="2" ry="2"/><rect class="c" x="226" y="18" rx="2" ry="2"/><rect class="c" x="226" y="34" rx="2" ry="2"/><rect class="c" x="226" y="50" rx="2" ry="2"/><rect class="c" x="226" y="66" rx="2" ry="2"/><rect class="c" x="226" y="82" rx="2" ry="2"/><rect class="c" x="226" y="98" rx="2" ry="2"/><rect class="c c6" x="242" y="2" rx="2" ry="2"/><rect class="c" x="242" y="18" rx="2" ry="2"/><rect class="c c7" x="242" y="34" rx="2" ry="2"/><rect class="c" x="242" y="50" rx="2" ry="2"/><rect class="c" x="242" y="66" rx="2" ry="2"/><rect class="c" x="242" y="82" rx="2" ry="2"/><rect class="c" x="242" y="98" rx="2" ry="2"/><rect class="c" x="258" y="2" rx="2" ry="2"/><rect class="c" x="258" y="18" rx="2" ry="2"/><rect class="c" x="258" y="34" rx="2" ry="2"/><rect class="c" x="258" y="50" rx="2" ry="2"/><rect class="c" x="258" y="66" rx="2" ry="2"/><rect class="c c8" x="258" y="82" rx="2" ry="2"/><rect class="c c9" x="258" y="98" rx="2" ry="2"/><rect class="c ca" x="274" y="2" rx="2" ry="2"/><rect class="c cb" x="274" y="18" rx="2" ry="2"/><rect class="c" x="274" y="34" rx="2" ry="2"/><rect class="c" x="274" y="50" rx="2" ry="2"/><rect class="c" x="274" y="66" rx="2" ry="2"/><rect class="c" x="274" y="82" rx="2" ry="2"/><rect class="c" x="274" y="98" rx="2" ry="2"/><rect class="c" x="290" y="2" rx="2" ry="2"/><rect class="c" x="290" y="18" rx="2" ry="2"/><rect class="c" x="290" y="34" rx="2" ry="2"/><rect class="c" x="290" y="50" rx="2" ry="2"/><rect class="c" x="290" y="66" rx="2" ry="2"/><rect class="c" x="290" y="82" rx="2" ry="2"/><rect class="c" x="290" y="98" rx="2" ry="2"/><rect class="c cc" x="306" y="2" rx="2" ry="2"/><rect class="c cd" x="306" y="18" rx="2" ry="2"/><rect class="c" x="306" y="34" rx="2" ry="2"/><rect class="c ce" x="306" y="50" rx="2" ry="2"/><rect class="c cf" x="306" y="66" rx="2" ry="2"/><rect class="c" x="306" y="82" rx="2" ry="2"/><rect class="c" x="306" y="98" rx="2" ry="2"/><rect class="c" x="322" y="2" rx="2" ry="2"/><rect class="c" x="322" y="18" rx="2" ry="2"/><rect class="c" x="322" y="34" rx="2" ry="2"/><rect class="c" x="322" y="50" rx="2" ry="2"/><rect class="c" x="322" y="66" rx="2" ry="2"/><rect class="c" x="322" y="82" rx="2" ry="2"/><rect class="c" x="322" y="98" rx="2" ry="2"/><rect class="c" x="338" y="2" rx="2" ry="2"/><rect class="c" x="338" y="18" rx="2" ry="2"/><rect class="c" x="338" y="34" rx="2" ry="2"/><rect class="c" x="338" y="50" rx="2" ry="2"/><rect class="c" x="338" y="66" rx="2" ry="2"/><rect class="c" x="338" y="82" rx="2" ry="2"/><rect class="c" x="338" y="98" rx="2" ry="2"/><rect class="c" x="354" y="2" rx="2" ry="2"/><rect class="c" x="354" y="18" rx="2" ry="2"/><rect class="c" x="354" y="34" rx="2" ry="2"/><rect class="c" x="354" y="50" rx="2" ry="2"/><rect class="c cg" x="354" y="66" rx="2" ry="2"/><rect class="c ch" x="354" y="82" rx="2" ry="2"/><rect class="c" x="354" y="98" rx="2" ry="2"/><rect class="c" x="370" y="2" rx="2" ry="2"/><rect class="c" x="370" y="18" rx="2" ry="2"/><rect class="c" x="370" y="34" rx="2" ry="2"/><rect class="c" x="370" y="50" rx="2" ry="2"/><rect class="c" x="370" y="66" rx="2" ry="2"/><rect class="c" x="370" y="82" rx="2" ry="2"/><rect class="c" x="370" y="98" rx="2" ry="2"/><rect class="c" x="386" y="2" rx="2" ry="2"/><rect class="c" x="386" y="18" rx="2" ry="2"/><rect class="c" x="386" y="34" rx="2" ry="2"/><rect class="c" x="386" y="50" rx="2" ry="2"/><rect class="c" x="386" y="66" rx="2" ry="2"/><rect class="c" x="386" y="82" rx="2" ry="2"/><rect class="c" x="386" y="98" rx="2" ry="2"/><rect class="c" x="402" y="2" rx="2" ry="2"/><rect class="c" x="402" y="18" rx="2" ry="2"/><rect class="c" x="402" y="34" rx="2" ry="2"/><rect class="c" x="402" y="50" rx="2" ry="2"/><rect class="c" x="402" y="66" rx="2" ry="2"/><rect class="c" x="402" y="82" rx="2" ry="2"/><rect class="c" x="402" y="98" rx="2" ry="2"/><rect class="c" x="418" y="2" rx="2" ry="2"/><rect class="c" x="418" y="18" rx="2" ry="2"/><rect class="c" x="418" y="34" rx="2" ry="2"/><rect class="c" x="418" y="50" rx="2" ry="2"/><rect class="c" x="418" y="66" rx="2" ry="2"/><rect class="c" x="418" y="82" rx="2" ry="2"/><rect class="c" x="418" y="98" rx="2" ry="2"/><rect class="c" x="434" y="2" rx="2" ry="2"/><rect class="c" x="434" y="18" rx="2" ry="2"/><rect class="c" x="434" y="34" rx="2" ry="2"/><rect class="c" x="434" y="50" rx="2" ry="2"/><rect class="c" x="434" y="66" rx="2" ry="2"/><rect class="c" x="434" y="82" rx="2" ry="2"/><rect class="c" x="434" y="98" rx="2" ry="2"/><rect class="c" x="450" y="2" rx="2" ry="2"/><rect class="c" x="450" y="18" rx="2" ry="2"/><rect class="c" x="450" y="34" rx="2" ry="2"/><rect class="c" x="450" y="50" rx="2" ry="2"/><rect class="c" x="450" y="66" rx="2" ry="2"/><rect class="c" x="450" y="82" rx="2" ry="2"/><rect class="c" x="450" y="98" rx="2" ry="2"/><rect class="c" x="466" y="2" rx="2" ry="2"/><rect class="c" x="466" y="18" rx="2" ry="2"/><rect class="c" x="466" y="34" rx="2" ry="2"/><rect class="c ci" x="466" y="50" rx="2" ry="2"/><rect class="c" x="466" y="66" rx="2" ry="2"/><rect class="c" x="466" y="82" rx="2" ry="2"/><rect class="c" x="466" y="98" rx="2" ry="2"/><rect class="c" x="482" y="2" rx="2" ry="2"/><rect class="c" x="482" y="18" rx="2" ry="2"/><rect class="c cj" x="482" y="34" rx="2" ry="2"/><rect class="c ck" x="482" y="50" rx="2" ry="2"/><rect class="c" x="482" y="66" rx="2" ry="2"/><rect class="c" x="482" y="82" rx="2" ry="2"/><rect class="c" x="482" y="98" rx="2" ry="2"/><rect class="c" x="498" y="2" rx="2" ry="2"/><rect class="c" x="498" y="18" rx="2" ry="2"/><rect class="c" x="498" y="34" rx="2" ry="2"/><rect class="c" x="498" y="50" rx="2" ry="2"/><rect class="c" x="498" y="66" rx="2" ry="2"/><rect class="c cl" x="498" y="82" rx="2" ry="2"/><rect class="c" x="498" y="98" rx="2" ry="2"/><rect class="c" x="514" y="2" rx="2" ry="2"/><rect class="c" x="514" y="18" rx="2" ry="2"/><rect class="c" x="514" y="34" rx="2" ry="2"/><rect class="c" x="514" y="50" rx="2" ry="2"/><rect class="c" x="514" y="66" rx="2" ry="2"/><rect class="c" x="514" y="82" rx="2" ry="2"/><rect class="c" x="514" y="98" rx="2" ry="2"/><rect class="c" x="530" y="2" rx="2" ry="2"/><rect class="c" x="530" y="18" rx="2" ry="2"/><rect class="c" x="530" y="34" rx="2" ry="2"/><rect class="c" x="530" y="50" rx="2" ry="2"/><rect class="c" x="530" y="66" rx="2" ry="2"/><rect class="c cm" x="530" y="82" rx="2" ry="2"/><rect class="c" x="530" y="98" rx="2" ry="2"/><rect class="c cn" x="546" y="2" rx="2" ry="2"/><rect class="c" x="546" y="18" rx="2" ry="2"/><rect class="c" x="546" y="34" rx="2" ry="2"/><rect class="c" x="546" y="50" rx="2" ry="2"/><rect class="c" x="546" y="66" rx="2" ry="2"/><rect class="c co" x="546" y="82" rx="2" ry="2"/><rect class="c" x="546" y="98" rx="2" ry="2"/><rect class="c cp" x="562" y="2" rx="2" ry="2"/><rect class="c cq" x="562" y="18" rx="2" ry="2"/><rect class="c" x="562" y="34" rx="2" ry="2"/><rect class="c cr" x="562" y="50" rx="2" ry="2"/><rect class="c" x="562" y="66" rx="2" ry="2"/><rect class="c" x="562" y="82" rx="2" ry="2"/><rect class="c" x="562" y="98" rx="2" ry="2"/><rect class="c" x="578" y="2" rx="2" ry="2"/><rect class="c" x="578" y="18" rx="2" ry="2"/><rect class="c" x="578" y="34" rx="2" ry="2"/><rect class="c" x="578" y="50" rx="2" ry="2"/><rect class="c" x="578" y="66" rx="2" ry="2"/><rect class="c" x="578" y="82" rx="2" ry="2"/><rect class="c" x="578" y="98" rx="2" ry="2"/><rect class="c" x="594" y="2" rx="2" ry="2"/><rect class="c" x="594" y="18" rx="2" ry="2"/><rect class="c" x="594" y="34" rx="2" ry="2"/><rect class="c" x="594" y="50" rx="2" ry="2"/><rect class="c cs" x="594" y="66" rx="2" ry="2"/><rect class="c" x="594" y="82" rx="2" ry="2"/><rect class="c ct" x="594" y="98" rx="2" ry="2"/><rect class="c" x="610" y="2" rx="2" ry="2"/><rect class="c" x="610" y="18" rx="2" ry="2"/><rect class="c" x="610" y="34" rx="2" ry="2"/><rect class="c" x="610" y="50" rx="2" ry="2"/><rect class="c cu" x="610" y="66" rx="2" ry="2"/><rect class="c" x="610" y="82" rx="2" ry="2"/><rect class="c" x="610" y="98" rx="2" ry="2"/><rect class="c" x="626" y="2" rx="2" ry="2"/><rect class="c" x="626" y="18" rx="2" ry="2"/><rect class="c cv" x="626" y="34" rx="2" ry="2"/><rect class="c" x="626" y="50" rx="2" ry="2"/><rect class="c" x="626" y="66" rx="2" ry="2"/><rect class="c" x="626" y="82" rx="2" ry="2"/><rect class="c" x="626" y="98" rx="2" ry="2"/><rect class="c cw" x="642" y="2" rx="2" ry="2"/><rect class="c cx" x="642" y="18" rx="2" ry="2"/><rect class="c" x="642" y="34" rx="2" ry="2"/><rect class="c" x="642" y="50" rx="2" ry="2"/><rect class="c cy" x="642" y="66" rx="2" ry="2"/><rect class="c" x="642" y="82" rx="2" ry="2"/><rect class="c" x="642" y="98" rx="2" ry="2"/><rect class="c" x="658" y="2" rx="2" ry="2"/><rect class="c" x="658" y="18" rx="2" ry="2"/><rect class="c" x="658" y="34" rx="2" ry="2"/><rect class="c" x="658" y="50" rx="2" ry="2"/><rect class="c" x="658" y="66" rx="2" ry="2"/><rect class="c" x="658" y="82" rx="2" ry="2"/><rect class="c" x="658" y="98" rx="2" ry="2"/><rect class="c" x="674" y="2" rx="2" ry="2"/><rect class="c" x="674" y="18" rx="2" ry="2"/><rect class="c" x="674" y="34" rx="2" ry="2"/><rect class="c" x="674" y="50" rx="2" ry="2"/><rect class="c" x="674" y="66" rx="2" ry="2"/><rect class="c" x="674" y="82" rx="2" ry="2"/><rect class="c" x="674" y="98" rx="2" ry="2"/><rect class="c" x="690" y="2" rx="2" ry="2"/><rect class="c" x="690" y="18" rx="2" ry="2"/><rect class="c" x="690" y="34" rx="2" ry="2"/><rect class="c" x="690" y="50" rx="2" ry="2"/><rect class="c" x="690" y="66" rx="2" ry="2"/><rect class="c" x="690" y="82" rx="2" ry="2"/><rect class="c" x="690" y="98" rx="2" ry="2"/><rect class="c" x="706" y="2" rx="2" ry="2"/><rect class="c" x="706" y="18" rx="2" ry="2"/><rect class="c" x="706" y="34" rx="2" ry="2"/><rect class="c" x="706" y="50" rx="2" ry="2"/><rect class="c cz" x="706" y="66" rx="2" ry="2"/><rect class="c" x="706" y="82" rx="2" ry="2"/><rect class="c" x="706" y="98" rx="2" ry="2"/><rect class="c" x="722" y="2" rx="2" ry="2"/><rect class="c" x="722" y="18" rx="2" ry="2"/><rect class="c" x="722" y="34" rx="2" ry="2"/><rect class="c" x="722" y="50" rx="2" ry="2"/><rect class="c" x="722" y="66" rx="2" ry="2"/><rect class="c c10" x="722" y="82" rx="2" ry="2"/><rect class="c" x="722" y="98" rx="2" ry="2"/><rect class="c" x="738" y="2" rx="2" ry="2"/><rect class="c" x="738" y="18" rx="2" ry="2"/><rect class="c" x="738" y="34" rx="2" ry="2"/><rect class="c" x="738" y="50" rx="2" ry="2"/><rect class="c" x="738" y="66" rx="2" ry="2"/><rect class="c" x="738" y="82" rx="2" ry="2"/><rect class="c" x="738" y="98" rx="2" ry="2"/><rect class="c" x="754" y="2" rx="2" ry="2"/><rect class="c" x="754" y="18" rx="2" ry="2"/><rect class="c" x="754" y="34" rx="2" ry="2"/><rect class="c" x="754" y="50" rx="2" ry="2"/><rect class="c" x="754" y="66" rx="2" ry="2"/><rect class="c" x="754" y="82" rx="2" ry="2"/><rect class="c" x="754" y="98" rx="2" ry="2"/><rect class="c" x="770" y="2" rx="2" ry="2"/><rect class="c" x="770" y="18" rx="2" ry="2"/><rect class="c" x="770" y="34" rx="2" ry="2"/><rect class="c" x="770" y="50" rx="2" ry="2"/><rect class="c" x="770" y="66" rx="2" ry="2"/><rect class="c" x="770" y="82" rx="2" ry="2"/><rect class="c" x="770" y="98" rx="2" ry="2"/><rect class="c" x="786" y="2" rx="2" ry="2"/><rect class="c" x="786" y="18" rx="2" ry="2"/><rect class="c" x="786" y="34" rx="2" ry="2"/><rect class="c" x="786" y="50" rx="2" ry="2"/><rect class="c" x="786" y="66" rx="2" ry="2"/><rect class="c" x="786" y="82" rx="2" ry="2"/><rect class="c" x="786" y="98" rx="2" ry="2"/><rect class="c" x="802" y="2" rx="2" ry="2"/><rect class="c" x="802" y="18" rx="2" ry="2"/><rect class="c" x="802" y="34" rx="2" ry="2"/><rect class="c" x="802" y="50" rx="2" ry="2"/><rect class="c" x="802" y="66" rx="2" ry="2"/><rect class="c" x="802" y="82" rx="2" ry="2"/><rect class="c" x="802" y="98" rx="2" ry="2"/><rect class="c" x="818" y="2" rx="2" ry="2"/><rect class="c c11" x="818" y="18" rx="2" ry="2"/><rect class="c" x="818" y="34" rx="2" ry="2"/><rect class="c" x="818" y="50" rx="2" ry="2"/><rect class="c c12" x="818" y="66" rx="2" ry="2"/><rect class="c c13" x="818" y="82" rx="2" ry="2"/><rect class="c" x="818" y="98" rx="2" ry="2"/><rect class="c" x="834" y="2" rx="2" ry="2"/><rect class="c c14" x="834" y="18" rx="2" ry="2"/><rect class="c" x="834" y="34" rx="2" ry="2"/><rect class="u u0" height="12" width="476.3" x="0.0" y="144"/><rect class="u u1" height="12" width="269.5" x="475.7" y="144"/><rect class="u u2" height="12" width="62.6" x="744.6" y="144"/><rect class="u u3" height="12" width="42.0" x="806.6" y="144"/><rect class="s s0" x="0.8" y="0.8" width="14.4" height="14.4" rx="4.5" ry="4.5"/><rect class="s s1" x="1.8" y="1.8" width="12.3" height="12.3" rx="4.1" ry="4.1"/><rect class="s s2" x="2.6" y="2.6" width="10.8" height="10.8" rx="3.6" ry="3.6"/><rect class="s s3" x="3.0" y="3.0" width="9.9" height="9.9" rx="3.3" ry="3.3"/></svg>