<svg viewBox="-16 -32 880 192" width="880" height="192" xmlns="http://www.w3.org/2000/svg"><desc>Generated with https://github.com/Platane/snk</desc><style>:root{--cb:#1b1f230a;--cs:white;--ce:#0a0e12;--c0:#0a0e12;--c1:#1445a2;--c2:#1d65ee;--c3:#1f4eff;--c4:#466dff}.c{shape-rendering:geometricPrecision;fill:var(--ce);stroke-width:1px;stroke:var(--cb);animation:none 34700ms linear infinite;width:12px;height:12px}@keyframes c0{97.11%{fill:var(--c4)}97.13%,100%{fill:var(--ce)}}.c.c0{fill:var(--c4);animation-name:c0}@keyframes c1{61.66%{fill:var(--c3)}61.68%,100%{fill:var(--ce)}}.c.c1{fill:var(--c3);animation-name:c1}@keyframes c2{2.58%{fill:var(--c1)}2.6%,100%{fill:var(--ce)}}.c.c2{fill:var(--c1);animation-name:c2}@keyframes c3{96.82%{fill:var(--c4)}96.84%,100%{fill:var(--ce)}}.c.c3{fill:var(--c4);animation-name:c3}@keyframes c4{61.37%{fill:var(--c3)}61.39%,100%{fill:var(--ce)}}.c.c4{fill:var(--c3);animation-name:c4}@keyframes c5{59.07%{fill:var(--c2)}59.09%,100%{fill:var(--ce)}}.c.c5{fill:var(--c2);animation-name:c5}@keyframes c6{59.36%{fill:var(--c3)}59.38%,100%{fill:var(--ce)}}.c.c6{fill:var(--c3);animation-name:c6}@keyframes c7{59.93%{fill:var(--c3)}59.95%,100%{fill:var(--ce)}}.c.c7{fill:var(--c3);animation-name:c7}@keyframes c8{57.92%{fill:var(--c2)}57.94%,100%{fill:var(--ce)}}.c.c8{fill:var(--c2);animation-name:c8}@keyframes c9{95.67%{fill:var(--c4)}95.69%,100%{fill:var(--ce)}}.c.c9{fill:var(--c4);animation-name:c9}@keyframes ca{95.38%{fill:var(--c4)}95.4%,100%{fill:var(--ce)}}.c.ca{fill:var(--c4);animation-name:ca}@keyframes cb{4.02%{fill:var(--c1)}4.04%,100%{fill:var(--ce)}}.c.cb{fill:var(--c1);animation-name:cb}@keyframes cc{56.76%{fill:var(--c2)}56.78%,100%{fill:var(--ce)}}.c.cc{fill:var(--c2);animation-name:cc}@keyframes cd{5.18%{fill:var(--c1)}5.2%,100%{fill:var(--ce)}}.c.cd{fill:var(--c1);animation-name:cd}@keyframes ce{5.47%{fill:var(--c1)}5.49%,100%{fill:var(--ce)}}.c.ce{fill:var(--c1);animation-name:ce}@keyframes cf{13.25%{fill:var(--c1)}13.27%,100%{fill:var(--ce)}}.c.cf{fill:var(--c1);animation-name:cf}@keyframes cg{5.75%{fill:var(--c1)}5.77%,100%{fill:var(--ce)}}.c.cg{fill:var(--c1);animation-name:cg}@keyframes ch{6.91%{fill:var(--c1)}6.93%,100%{fill:var(--ce)}}.c.ch{fill:var(--c1);animation-name:ch}@keyframes ci{10.65%{fill:var(--c1)}10.67%,100%{fill:var(--ce)}}.c.ci{fill:var(--c1);animation-name:ci}@keyframes cj{9.21%{fill:var(--c1)}9.23%,100%{fill:var(--ce)}}.c.cj{fill:var(--c1);animation-name:cj}@keyframes ck{9.79%{fill:var(--c1)}9.81%,100%{fill:var(--ce)}}.c.ck{fill:var(--c1);animation-name:ck}@keyframes cl{52.44%{fill:var(--c2)}52.46%,100%{fill:var(--ce)}}.c.cl{fill:var(--c2);animation-name:cl}@keyframes cm{67.71%{fill:var(--c3)}67.73%,100%{fill:var(--ce)}}.c.cm{fill:var(--c3);animation-name:cm}@keyframes cn{49.85%{fill:var(--c2)}49.87%,100%{fill:var(--ce)}}.c.cn{fill:var(--c2);animation-name:cn}@keyframes co{46.68%{fill:var(--c2)}46.7%,100%{fill:var(--ce)}}.c.co{fill:var(--c2);animation-name:co}@keyframes cp{19.59%{fill:var(--c1)}19.61%,100%{fill:var(--ce)}}.c.cp{fill:var(--c1);animation-name:cp}@keyframes cq{48.4%{fill:var(--c2)}48.42%,100%{fill:var(--ce)}}.c.cq{fill:var(--c2);animation-name:cq}@keyframes cr{87.31%{fill:var(--c4)}87.33%,100%{fill:var(--ce)}}.c.cr{fill:var(--c4);animation-name:cr}@keyframes cs{20.74%{fill:var(--c1)}20.76%,100%{fill:var(--ce)}}.c.cs{fill:var(--c1);animation-name:cs}@keyframes ct{20.45%{fill:var(--c1)}20.47%,100%{fill:var(--ce)}}.c.ct{fill:var(--c1);animation-name:ct}@keyframes cu{21.32%{fill:var(--c1)}21.34%,100%{fill:var(--ce)}}.c.cu{fill:var(--c1);animation-name:cu}@keyframes cv{21.6%{fill:var(--c1)}21.62%,100%{fill:var(--ce)}}.c.cv{fill:var(--c1);animation-name:cv}@keyframes cw{85.58%{fill:var(--c4)}85.6%,100%{fill:var(--ce)}}.c.cw{fill:var(--c4);animation-name:cw}@keyframes cx{23.04%{fill:var(--c1)}23.06%,100%{fill:var(--ce)}}.c.cx{fill:var(--c1);animation-name:cx}@keyframes cy{24.49%{fill:var(--c1)}24.51%,100%{fill:var(--ce)}}.c.cy{fill:var(--c1);animation-name:cy}@keyframes cz{24.2%{fill:var(--c1)}24.22%,100%{fill:var(--ce)}}.c.cz{fill:var(--c1);animation-name:cz}@keyframes c10{26.79%{fill:var(--c1)}26.81%,100%{fill:var(--ce)}}.c.c10{fill:var(--c1);animation-name:c10}@keyframes c11{75.78%{fill:var(--c3)}75.8%,100%{fill:var(--ce)}}.c.c11{fill:var(--c3);animation-name:c11}@keyframes c12{27.08%{fill:var(--c1)}27.1%,100%{fill:var(--ce)}}.c.c12{fill:var(--c1);animation-name:c12}@keyframes c13{27.94%{fill:var(--c1)}27.96%,100%{fill:var(--ce)}}.c.c13{fill:var(--c1);animation-name:c13}@keyframes c14{28.52%{fill:var(--c1)}28.54%,100%{fill:var(--ce)}}.c.c14{fill:var(--c1);animation-name:c14}@keyframes c15{37.17%{fill:var(--c2)}37.19%,100%{fill:var(--ce)}}.c.c15{fill:var(--c2);animation-name:c15}@keyframes c16{35.72%{fill:var(--c2)}35.74%,100%{fill:var(--ce)}}.c.c16{fill:var(--c2);animation-name:c16}@keyframes c17{30.54%{fill:var(--c1)}30.56%,100%{fill:var(--ce)}}.c.c17{fill:var(--c1);animation-name:c17}@keyframes c18{30.25%{fill:var(--c1)}30.27%,100%{fill:var(--ce)}}.c.c18{fill:var(--c1);animation-name:c18}@keyframes c19{29.67%{fill:var(--c1)}29.69%,100%{fill:var(--ce)}}.c.c19{fill:var(--c1);animation-name:c19}@keyframes c1a{33.42%{fill:var(--c1)}33.44%,100%{fill:var(--ce)}}.c.c1a{fill:var(--c1);animation-name:c1a}@keyframes c1b{34.57%{fill:var(--c2)}34.59%,100%{fill:var(--ce)}}.c.c1b{fill:var(--c2);animation-name:c1b}@keyframes c1c{33.71%{fill:var(--c2)}33.73%,100%{fill:var(--ce)}}.c.c1c{fill:var(--c2);animation-name:c1c}@keyframes c1d{32.27%{fill:var(--c1)}32.29%,100%{fill:var(--ce)}}.c.c1d{fill:var(--c1);animation-name:c1d}@keyframes c1e{38.89%{fill:var(--c2)}38.91%,100%{fill:var(--ce)}}.c.c1e{fill:var(--c2);animation-name:c1e}@keyframes c1f{78.95%{fill:var(--c4)}78.97%,100%{fill:var(--ce)}}.c.c1f{fill:var(--c4);animation-name:c1f}.u{transform-origin:0 0;transform:scale(0,1);animation:none linear 34700ms infinite}@keyframes u0{2.58%{transform:scale(0.000,1)}2.6%,4.02%{transform:scale(0.037,1)}4.04%,5.18%{transform:scale(0.074,1)}5.2%,5.47%{transform:scale(0.111,1)}5.49%,5.75%{transform:scale(0.148,1)}5.77%,6.91%{transform:scale(0.185,1)}6.93%,9.21%{transform:scale(0.222,1)}9.23%,9.79%{transform:scale(0.259,1)}9.81%,10.65%{transform:scale(0.296,1)}10.67%,13.25%{transform:scale(0.333,1)}13.27%,19.59%{transform:scale(0.370,1)}19.61%,20.45%{transform:scale(0.407,1)}20.47%,20.74%{transform:scale(0.444,1)}20.76%,21.32%{transform:scale(0.481,1)}21.34%,21.6%{transform:scale(0.519,1)}21.62%,23.04%{transform:scale(0.556,1)}23.06%,24.2%{transform:scale(0.593,1)}24.22%,24.49%{transform:scale(0.630,1)}24.51%,26.79%{transform:scale(0.667,1)}26.81%,27.08%{transform:scale(0.704,1)}27.1%,27.94%{transform:scale(0.741,1)}27.96%,28.52%{transform:scale(0.778,1)}28.54%,29.67%{transform:scale(0.815,1)}29.69%,30.25%{transform:scale(0.852,1)}30.27%,30.54%{transform:scale(0.889,1)}30.56%,32.27%{transform:scale(0.926,1)}32.29%,33.42%{transform:scale(0.963,1)}33.44%,100%{transform:scale(1.000,1)}}.u.u0{fill:var(--c1);animation-name:u0;transform-origin:0.0px 0}@keyframes u1{33.71%{transform:scale(0.000,1)}33.73%,34.57%{transform:scale(0.083,1)}34.59%,35.72%{transform:scale(0.167,1)}35.74%,37.17%{transform:scale(0.250,1)}37.19%,38.89%{transform:scale(0.333,1)}38.91%,46.68%{transform:scale(0.417,1)}46.7%,48.4%{transform:scale(0.500,1)}48.42%,49.85%{transform:scale(0.583,1)}49.87%,52.44%{transform:scale(0.667,1)}52.46%,56.76%{transform:scale(0.750,1)}56.78%,57.92%{transform:scale(0.833,1)}57.94%,59.07%{transform:scale(0.917,1)}59.09%,100%{transform:scale(1.000,1)}}.u.u1{fill:var(--c2);animation-name:u1;transform-origin:440.3px 0}@keyframes u2{59.36%{transform:scale(0.000,1)}59.38%,59.93%{transform:scale(0.167,1)}59.95%,61.37%{transform:scale(0.333,1)}61.39%,61.66%{transform:scale(0.500,1)}61.68%,67.71%{transform:scale(0.667,1)}67.73%,75.78%{transform:scale(0.833,1)}75.8%,100%{transform:scale(1.000,1)}}.u.u2{fill:var(--c3);animation-name:u2;transform-origin:636.0px 0}@keyframes u3{78.95%{transform:scale(0.000,1)}78.97%,85.58%{transform:scale(0.143,1)}85.6%,87.31%{transform:scale(0.286,1)}87.33%,95.38%{transform:scale(0.429,1)}95.4%,95.67%{transform:scale(0.571,1)}95.69%,96.82%{transform:scale(0.714,1)}96.84%,97.11%{transform:scale(0.857,1)}97.13%,100%{transform:scale(1.000,1)}}.u.u3{fill:var(--c4);animation-name:u3;transform-origin:733.8px 0}.s{shape-rendering:geometricPrecision;fill:var(--cs);animation:none linear 34700ms infinite}@keyframes s0{0%,99.71%{transform:translate(0px,-16px)}0.29%{transform:translate(-16px,-16px)}1.15%{transform:translate(-16px,32px)}1.44%,61.96%{transform:translate(0px,32px)}2.59%{transform:translate(0px,96px)}3.46%{transform:translate(48px,96px)}4.03%{transform:translate(48px,64px)}4.9%{transform:translate(96px,64px)}5.48%{transform:translate(96px,96px)}8.36%{transform:translate(256px,96px)}9.22%{transform:translate(256px,48px)}9.51%{transform:translate(272px,48px)}10.09%{transform:translate(272px,16px)}10.66%{transform:translate(240px,16px)}10.95%{transform:translate(240px,0px)}13.26%{transform:translate(112px,0px)}13.54%{transform:translate(112px,16px)}19.31%{transform:translate(432px,16px)}19.6%{transform:translate(432px,32px)}20.17%{transform:translate(464px,32px)}20.75%{transform:translate(464px,0px)}21.33%{transform:translate(496px,0px)}21.61%,85.01%{transform:translate(496px,16px)}21.9%{transform:translate(512px,16px)}22.77%{transform:translate(512px,64px)}23.05%{transform:translate(496px,64px)}23.34%{transform:translate(496px,80px)}24.21%{transform:translate(544px,80px)}24.5%{transform:translate(544px,64px)}26.51%{transform:translate(656px,64px)}26.8%{transform:translate(656px,48px)}27.38%{transform:translate(688px,48px)}27.95%{transform:translate(688px,80px)}28.53%{transform:translate(720px,80px)}28.82%{transform:translate(720px,64px)}29.39%{transform:translate(752px,64px)}30.55%{transform:translate(752px,0px)}31.7%{transform:translate(816px,0px)}32.28%{transform:translate(816px,32px)}32.85%{transform:translate(784px,32px)}33.43%{transform:translate(784px,64px)}33.72%{transform:translate(800px,64px)}34.01%{transform:translate(800px,80px)}34.29%{transform:translate(784px,80px)}34.58%{transform:translate(784px,96px)}34.87%{transform:translate(768px,96px)}35.16%{transform:translate(768px,80px)}35.73%{transform:translate(736px,80px)}37.18%{transform:translate(736px,0px)}38.9%{transform:translate(832px,0px)}39.19%{transform:translate(832px,-16px)}46.4%{transform:translate(432px,-16px)}46.69%{transform:translate(432px,0px)}46.97%{transform:translate(448px,0px)}48.41%{transform:translate(448px,80px)}49.57%{transform:translate(384px,80px)}49.86%{transform:translate(384px,96px)}50.14%{transform:translate(368px,96px)}50.72%{transform:translate(368px,64px)}52.45%,67.44%{transform:translate(272px,64px)}53.6%{transform:translate(272px,0px)}57.64%,96.25%,98.56%{transform:translate(48px,0px)}57.93%{transform:translate(48px,16px)}58.21%{transform:translate(32px,16px)}58.5%,62.54%{transform:translate(32px,32px)}58.79%{transform:translate(16px,32px)}59.37%{transform:translate(16px,64px)}59.65%,63.11%{transform:translate(32px,64px)}59.94%{transform:translate(32px,80px)}60.23%{transform:translate(16px,80px)}61.38%,97.69%{transform:translate(16px,16px)}61.67%,97.41%{transform:translate(0px,16px)}67.72%{transform:translate(272px,80px)}74.93%{transform:translate(672px,80px)}75.79%{transform:translate(672px,32px)}78.67%{transform:translate(832px,32px)}78.96%{transform:translate(832px,16px)}85.59%{transform:translate(496px,48px)}86.46%{transform:translate(448px,48px)}87.32%{transform:translate(448px,96px)}87.61%{transform:translate(432px,96px)}88.47%{transform:translate(432px,48px)}95.39%{transform:translate(48px,48px)}97.12%{transform:translate(0px,0px)}97.98%{transform:translate(16px,0px)}98.85%{transform:translate(48px,-16px)}}.s.s0{transform:translate(0px,-16px);animation-name:s0}@keyframes s1{0%,99.71%{transform:translate(16px,-16px)}0.58%{transform:translate(-16px,-16px)}1.44%{transform:translate(-16px,32px)}1.73%,62.25%{transform:translate(0px,32px)}2.88%{transform:translate(0px,96px)}3.75%{transform:translate(48px,96px)}4.32%{transform:translate(48px,64px)}5.19%{transform:translate(96px,64px)}5.76%{transform:translate(96px,96px)}8.65%{transform:translate(256px,96px)}9.51%{transform:translate(256px,48px)}9.8%{transform:translate(272px,48px)}10.37%{transform:translate(272px,16px)}10.95%{transform:translate(240px,16px)}11.24%{transform:translate(240px,0px)}13.54%{transform:translate(112px,0px)}13.83%{transform:translate(112px,16px)}19.6%{transform:translate(432px,16px)}19.88%{transform:translate(432px,32px)}20.46%{transform:translate(464px,32px)}21.04%{transform:translate(464px,0px)}21.61%{transform:translate(496px,0px)}21.9%,85.3%{transform:translate(496px,16px)}22.19%{transform:translate(512px,16px)}23.05%{transform:translate(512px,64px)}23.34%{transform:translate(496px,64px)}23.63%{transform:translate(496px,80px)}24.5%{transform:translate(544px,80px)}24.78%{transform:translate(544px,64px)}26.8%{transform:translate(656px,64px)}27.09%{transform:translate(656px,48px)}27.67%{transform:translate(688px,48px)}28.24%{transform:translate(688px,80px)}28.82%{transform:translate(720px,80px)}29.11%{transform:translate(720px,64px)}29.68%{transform:translate(752px,64px)}30.84%{transform:translate(752px,0px)}31.99%{transform:translate(816px,0px)}32.56%{transform:translate(816px,32px)}33.14%{transform:translate(784px,32px)}33.72%{transform:translate(784px,64px)}34.01%{transform:translate(800px,64px)}34.29%{transform:translate(800px,80px)}34.58%{transform:translate(784px,80px)}34.87%{transform:translate(784px,96px)}35.16%{transform:translate(768px,96px)}35.45%{transform:translate(768px,80px)}36.02%{transform:translate(736px,80px)}37.46%{transform:translate(736px,0px)}39.19%{transform:translate(832px,0px)}39.48%{transform:translate(832px,-16px)}46.69%{transform:translate(432px,-16px)}46.97%{transform:translate(432px,0px)}47.26%{transform:translate(448px,0px)}48.7%{transform:translate(448px,80px)}49.86%{transform:translate(384px,80px)}50.14%{transform:translate(384px,96px)}50.43%{transform:translate(368px,96px)}51.01%{transform:translate(368px,64px)}52.74%,67.72%{transform:translate(272px,64px)}53.89%{transform:translate(272px,0px)}57.93%,96.54%,98.85%{transform:translate(48px,0px)}58.21%{transform:translate(48px,16px)}58.5%{transform:translate(32px,16px)}58.79%,62.82%{transform:translate(32px,32px)}59.08%{transform:translate(16px,32px)}59.65%{transform:translate(16px,64px)}59.94%,63.4%{transform:translate(32px,64px)}60.23%{transform:translate(32px,80px)}60.52%{transform:translate(16px,80px)}61.67%,97.98%{transform:translate(16px,16px)}61.96%,97.69%{transform:translate(0px,16px)}68.01%{transform:translate(272px,80px)}75.22%{transform:translate(672px,80px)}76.08%{transform:translate(672px,32px)}78.96%{transform:translate(832px,32px)}79.25%{transform:translate(832px,16px)}85.88%{transform:translate(496px,48px)}86.74%{transform:translate(448px,48px)}87.61%{transform:translate(448px,96px)}87.9%{transform:translate(432px,96px)}88.76%{transform:translate(432px,48px)}95.68%{transform:translate(48px,48px)}97.41%{transform:translate(0px,0px)}98.27%{transform:translate(16px,0px)}99.14%{transform:translate(48px,-16px)}}.s.s1{transform:translate(16px,-16px);animation-name:s1}@keyframes s2{0%,99.71%{transform:translate(32px,-16px)}0.86%{transform:translate(-16px,-16px)}1.73%{transform:translate(-16px,32px)}2.02%,62.54%{transform:translate(0px,32px)}3.17%{transform:translate(0px,96px)}4.03%{transform:translate(48px,96px)}4.61%{transform:translate(48px,64px)}5.48%{transform:translate(96px,64px)}6.05%{transform:translate(96px,96px)}8.93%{transform:translate(256px,96px)}9.8%{transform:translate(256px,48px)}10.09%{transform:translate(272px,48px)}10.66%{transform:translate(272px,16px)}11.24%{transform:translate(240px,16px)}11.53%{transform:translate(240px,0px)}13.83%{transform:translate(112px,0px)}14.12%{transform:translate(112px,16px)}19.88%{transform:translate(432px,16px)}20.17%{transform:translate(432px,32px)}20.75%{transform:translate(464px,32px)}21.33%{transform:translate(464px,0px)}21.9%{transform:translate(496px,0px)}22.19%,85.59%{transform:translate(496px,16px)}22.48%{transform:translate(512px,16px)}23.34%{transform:translate(512px,64px)}23.63%{transform:translate(496px,64px)}23.92%{transform:translate(496px,80px)}24.78%{transform:translate(544px,80px)}25.07%{transform:translate(544px,64px)}27.09%{transform:translate(656px,64px)}27.38%{transform:translate(656px,48px)}27.95%{transform:translate(688px,48px)}28.53%{transform:translate(688px,80px)}29.11%{transform:translate(720px,80px)}29.39%{transform:translate(720px,64px)}29.97%{transform:translate(752px,64px)}31.12%{transform:translate(752px,0px)}32.28%{transform:translate(816px,0px)}32.85%{transform:translate(816px,32px)}33.43%{transform:translate(784px,32px)}34.01%{transform:translate(784px,64px)}34.29%{transform:translate(800px,64px)}34.58%{transform:translate(800px,80px)}34.87%{transform:translate(784px,80px)}35.16%{transform:translate(784px,96px)}35.45%{transform:translate(768px,96px)}35.73%{transform:translate(768px,80px)}36.31%{transform:translate(736px,80px)}37.75%{transform:translate(736px,0px)}39.48%{transform:translate(832px,0px)}39.77%{transform:translate(832px,-16px)}46.97%{transform:translate(432px,-16px)}47.26%{transform:translate(432px,0px)}47.55%{transform:translate(448px,0px)}48.99%{transform:translate(448px,80px)}50.14%{transform:translate(384px,80px)}50.43%{transform:translate(384px,96px)}50.72%{transform:translate(368px,96px)}51.3%{transform:translate(368px,64px)}53.03%,68.01%{transform:translate(272px,64px)}54.18%{transform:translate(272px,0px)}58.21%,96.83%,99.14%{transform:translate(48px,0px)}58.5%{transform:translate(48px,16px)}58.79%{transform:translate(32px,16px)}59.08%,63.11%{transform:translate(32px,32px)}59.37%{transform:translate(16px,32px)}59.94%{transform:translate(16px,64px)}60.23%,63.69%{transform:translate(32px,64px)}60.52%{transform:translate(32px,80px)}60.81%{transform:translate(16px,80px)}61.96%,98.27%{transform:translate(16px,16px)}62.25%,97.98%{transform:translate(0px,16px)}68.3%{transform:translate(272px,80px)}75.5%{transform:translate(672px,80px)}76.37%{transform:translate(672px,32px)}79.25%{transform:translate(832px,32px)}79.54%{transform:translate(832px,16px)}86.17%{transform:translate(496px,48px)}87.03%{transform:translate(448px,48px)}87.9%{transform:translate(448px,96px)}88.18%{transform:translate(432px,96px)}89.05%{transform:translate(432px,48px)}95.97%{transform:translate(48px,48px)}97.69%{transform:translate(0px,0px)}98.56%{transform:translate(16px,0px)}99.42%{transform:translate(48px,-16px)}}.s.s2{transform:translate(32px,-16px);animation-name:s2}@keyframes s3{0%,99.71%{transform:translate(48px,-16px)}1.15%{transform:translate(-16px,-16px)}2.02%{transform:translate(-16px,32px)}2.31%,62.82%{transform:translate(0px,32px)}3.46%{transform:translate(0px,96px)}4.32%{transform:translate(48px,96px)}4.9%{transform:translate(48px,64px)}5.76%{transform:translate(96px,64px)}6.34%{transform:translate(96px,96px)}9.22%{transform:translate(256px,96px)}10.09%{transform:translate(256px,48px)}10.37%{transform:translate(272px,48px)}10.95%{transform:translate(272px,16px)}11.53%{transform:translate(240px,16px)}11.82%{transform:translate(240px,0px)}14.12%{transform:translate(112px,0px)}14.41%{transform:translate(112px,16px)}20.17%{transform:translate(432px,16px)}20.46%{transform:translate(432px,32px)}21.04%{transform:translate(464px,32px)}21.61%{transform:translate(464px,0px)}22.19%{transform:translate(496px,0px)}22.48%,85.88%{transform:translate(496px,16px)}22.77%{transform:translate(512px,16px)}23.63%{transform:translate(512px,64px)}23.92%{transform:translate(496px,64px)}24.21%{transform:translate(496px,80px)}25.07%{transform:translate(544px,80px)}25.36%{transform:translate(544px,64px)}27.38%{transform:translate(656px,64px)}27.67%{transform:translate(656px,48px)}28.24%{transform:translate(688px,48px)}28.82%{transform:translate(688px,80px)}29.39%{transform:translate(720px,80px)}29.68%{transform:translate(720px,64px)}30.26%{transform:translate(752px,64px)}31.41%{transform:translate(752px,0px)}32.56%{transform:translate(816px,0px)}33.14%{transform:translate(816px,32px)}33.72%{transform:translate(784px,32px)}34.29%{transform:translate(784px,64px)}34.58%{transform:translate(800px,64px)}34.87%{transform:translate(800px,80px)}35.16%{transform:translate(784px,80px)}35.45%{transform:translate(784px,96px)}35.73%{transform:translate(768px,96px)}36.02%{transform:translate(768px,80px)}36.6%{transform:translate(736px,80px)}38.04%{transform:translate(736px,0px)}39.77%{transform:translate(832px,0px)}40.06%{transform:translate(832px,-16px)}47.26%{transform:translate(432px,-16px)}47.55%{transform:translate(432px,0px)}47.84%{transform:translate(448px,0px)}49.28%{transform:translate(448px,80px)}50.43%{transform:translate(384px,80px)}50.72%{transform:translate(384px,96px)}51.01%{transform:translate(368px,96px)}51.59%{transform:translate(368px,64px)}53.31%,68.3%{transform:translate(272px,64px)}54.47%{transform:translate(272px,0px)}58.5%,97.12%,99.42%{transform:translate(48px,0px)}58.79%{transform:translate(48px,16px)}59.08%{transform:translate(32px,16px)}59.37%,63.4%{transform:translate(32px,32px)}59.65%{transform:translate(16px,32px)}60.23%{transform:translate(16px,64px)}60.52%,63.98%{transform:translate(32px,64px)}60.81%{transform:translate(32px,80px)}61.1%{transform:translate(16px,80px)}62.25%,98.56%{transform:translate(16px,16px)}62.54%,98.27%{transform:translate(0px,16px)}68.59%{transform:translate(272px,80px)}75.79%{transform:translate(672px,80px)}76.66%{transform:translate(672px,32px)}79.54%{transform:translate(832px,32px)}79.83%{transform:translate(832px,16px)}86.46%{transform:translate(496px,48px)}87.32%{transform:translate(448px,48px)}88.18%{transform:translate(448px,96px)}88.47%{transform:translate(432px,96px)}89.34%{transform:translate(432px,48px)}96.25%{transform:translate(48px,48px)}97.98%{transform:translate(0px,0px)}98.85%{transform:translate(16px,0px)}}.s.s3{transform:translate(48px,-16px);animation-name:s3}</style><rect class="c c0" x="2" y="2" rx="2" ry="2"/><rect class="c c1" x="2" y="18" rx="2" ry="2"/><rect class="c" x="2" y="34" rx="2" ry="2"/><rect class="c" x="2" y="50" rx="2" ry="2"/><rect class="c" x="2" y="66" rx="2" ry="2"/><rect class="c" x="2" y="82" rx="2" ry="2"/><rect class="c c2" x="2" y="98" rx="2" ry="2"/><rect class="c c3" x="18" y="2" rx="2" ry="2"/><rect class="c c4" x="18" y="18" rx="2" ry="2"/><rect class="c" x="18" y="34" rx="2" ry="2"/><rect class="c c5" x="18" y="50" rx="2" ry="2"/><rect class="c c6" x="18" y="66" rx="2" ry="2"/><rect class="c" x="18" y="82" rx="2" ry="2"/><rect class="c" x="18" y="98" rx="2" ry="2"/><rect class="c" x="34" y="2" rx="2" ry="2"/><rect class="c" x="34" y="18" rx="2" ry="2"/><rect class="c" x="34" y="34" rx="2" ry="2"/><rect class="c" x="34" y="50" rx="2" ry="2"/><rect class="c" x="34" y="66" rx="2" ry="2"/><rect class="c c7" x="34" y="82" rx="2" ry="2"/><rect class="c" x="34" y="98" rx="2" ry="2"/><rect class="c" x="50" y="2" rx="2" ry="2"/><rect class="c c8" x="50" y="18" rx="2" ry="2"/><rect class="c c9" x="50" y="34" rx="2" ry="2"/><rect class="c ca" x="50" y="50" rx="2" ry="2"/><rect class="c cb" x="50" y="66" rx="2" ry="2"/><rect class="c" x="50" y="82" rx="2" ry="2"/><rect class="c" x="50" y="98" rx="2" ry="2"/><rect class="c" x="66" y="2" rx="2" ry="2"/><rect class="c" x="66" y="18" rx="2" ry="2"/><rect class="c" x="66" y="34" rx="2" ry="2"/><rect class="c" x="66" y="50" rx="2" ry="2"/><rect class="c" x="66" y="66" rx="2" ry="2"/><rect class="c" x="66" y="82" rx="2" ry="2"/><rect class="c" x="66" y="98" rx="2" ry="2"/><rect class="c" x="82" y="2" rx="2" ry="2"/><rect class="c" x="82" y="18" rx="2" ry="2"/><rect class="c" x="82" y="34" rx="2" ry="2"/><rect class="c" x="82" y="50" rx="2" ry="2"/><rect class="c" x="82" y="66" rx="2" ry="2"/><rect class="c" x="82" y="82" rx="2" ry="2"/><rect class="c" x="82" y="98" rx="2" ry="2"/><rect class="c cc" x="98" y="2" rx="2" ry="2"/><rect class="c" x="98" y="18" rx="2" ry="2"/><rect class="c" x="98" y="34" rx="2" ry="2"/><rect class="c" x="98" y="50" rx="2" ry="2"/><rect class="c" x="98" y="66" rx="2" ry="2"/><rect class="c cd" x="98" y="82" rx="2" ry="2"/><rect class="c ce" x="98" y="98" rx="2" ry="2"/><rect class="c cf" x="114" y="2" rx="2" ry="2"/><rect class="c" x="114" y="18" rx="2" ry="2"/><rect class="c" x="114" y="34" rx="2" ry="2"/><rect class="c" x="114" y="50" rx="2" ry="2"/><rect class="c" x="114" y="66" rx="2" ry="2"/><rect class="c" x="114" y="82" rx="2" ry="2"/><rect class="c cg" x="114" y="98" rx="2" ry="2"/><rect class="c" x="130" y="2" rx="2" ry="2"/><rect class="c" x="130" y="18" rx="2" ry="2"/><rect class="c" x="130" y="34" rx="2" ry="2"/><rect class="c" x="130" y="50" rx="2" ry="2"/><rect class="c" x="130" y="66" rx="2" ry="2"/><rect class="c" x="130" y="82" rx="2" ry="2"/><rect class="c" x="130" y="98" rx="2" ry="2"/><rect class="c" x="146" y="2" rx="2" ry="2"/><rect class="c" x="146" y="18" rx="2" ry="2"/><rect class="c" x="146" y="34" rx="2" ry="2"/><rect class="c" x="146" y="50" rx="2" ry="2"/><rect class="c" x="146" y="66" rx="2" ry="2"/><rect class="c" x="146" y="82" rx="2" ry="2"/><rect class="c" x="146" y="98" rx="2" ry="2"/><rect class="c" x="162" y="2" rx="2" ry="2"/><rect class="c" x="162" y="18" rx="2" ry="2"/><rect class="c" x="162" y="34" rx="2" ry="2"/><rect class="c" x="162" y="50" rx="2" ry="2"/><rect class="c" x="162" y="66" rx="2" ry="2"/><rect class="c" x="162" y="82" rx="2" ry="2"/><rect class="c" x="162" y="98" rx="2" ry="2"/><rect class="c" x="178" y="2" rx="2" ry="2"/><rect class="c" x="178" y="18" rx="2" ry="2"/><rect class="c" x="178" y="34" rx="2" ry="2"/><rect class="c" x="178" y="50" rx="2" ry="2"/><rect class="c" x="178" y="66" rx="2" ry="2"/><rect class="c" x="178" y="82" rx="2" ry="2"/><rect class="c ch" x="178" y="98" rx="2" ry="2"/><rect class="c" x="194" y="2" rx="2" ry="2"/><rect class="c" x="194" y="18" rx="2" ry="2"/><rect class="c" x="194" y="34" rx="2" ry="2"/><rect class="c" x="194" y="50" rx="2" ry="2"/><rect class="c" x="194" y="66" rx="2" ry="2"/><rect class="c" x="194" y="82" rx="2" ry="2"/><rect class="c" x="194" y="98" rx="2" ry="2"/><rect class="c" x="210" y="2" rx="2" ry="2"/><rect class="c" x="210" y="18" rx="2" ry="2"/><rect class="c" x="210" y="34" rx="2" ry="2"/><rect class="c" x="210" y="50" rx="2" ry="2"/><rect class="c" x="210" y="66" rx="2" ry="2"/><rect class="c" x="210" y="82" rx="2" ry="2"/><rect class="c" x="210" y="98" rx="2" ry="2"/><rect class="c" x="226" y="2" rx="2" ry="2"/><rect class="c" x="226" y="18" rx="2" ry="2"/><rect class="c" x="226" y="34" rx="2" ry="2"/><rect class="c" x="226" y="50" rx="2" ry="2"/><rect class="c" x="226" y="66" rx="2" ry="2"/><rect class="c" x="226" y="82" rx="2" ry="2"/><rect class="c" x="226" y="98" rx="2" ry="2"/><rect class="c" x="242" y="2" rx="2" ry="2"/><rect class="c ci" x="242" y="18" rx="2" ry="2"/><rect class="c" x="242" y="34" rx="2" ry="2"/><rect class="c" x="242" y="50" rx="2" ry="2"/><rect class="c" x="242" y="66" rx="2" ry="2"/><rect class="c" x="242" y="82" rx="2" ry="2"/><rect class="c" x="242" y="98" rx="2" ry="2"/><rect class="c" x="258" y="2" rx="2" ry="2"/><rect class="c" x="258" y="18" rx="2" ry="2"/><rect class="c" x="258" y="34" rx="2" ry="2"/><rect class="c cj" x="258" y="50" rx="2" ry="2"/><rect class="c" x="258" y="66" rx="2" ry="2"/><rect class="c" x="258" y="82" rx="2" ry="2"/><rect class="c" x="258" y="98" rx="2" ry="2"/><rect class="c" x="274" y="2" rx="2" ry="2"/><rect class="c" x="274" y="18" rx="2" ry="2"/><rect class="c ck" x="274" y="34" rx="2" ry="2"/><rect class="c" x="274" y="50" rx="2" ry="2"/><rect class="c cl" x="274" y="66" rx="2" ry="2"/><rect class="c cm" x="274" y="82" rx="2" ry="2"/><rect class="c" x="274" y="98" rx="2" ry="2"/><rect class="c" x="290" y="2" rx="2" ry="2"/><rect class="c" x="290" y="18" rx="2" ry="2"/><rect class="c" x="290" y="34" rx="2" ry="2"/><rect class="c" x="290" y="50" rx="2" ry="2"/><rect class="c" x="290" y="66" rx="2" ry="2"/><rect class="c" x="290" y="82" rx="2" ry="2"/><rect class="c" x="290" y="98" rx="2" ry="2"/><rect class="c" x="306" y="2" rx="2" ry="2"/><rect class="c" x="306" y="18" rx="2" ry="2"/><rect class="c" x="306" y="34" rx="2" ry="2"/><rect class="c" x="306" y="50" rx="2" ry="2"/><rect class="c" x="306" y="66" rx="2" ry="2"/><rect class="c" x="306" y="82" rx="2" ry="2"/><rect class="c" x="306" y="98" rx="2" ry="2"/><rect class="c" x="322" y="2" rx="2" ry="2"/><rect class="c" x="322" y="18" rx="2" ry="2"/><rect class="c" x="322" y="34" rx="2" ry="2"/><rect class="c" x="322" y="50" rx="2" ry="2"/><rect class="c" x="322" y="66" rx="2" ry="2"/><rect class="c" x="322" y="82" rx="2" ry="2"/><rect class="c" x="322" y="98" rx="2" ry="2"/><rect class="c" x="338" y="2" rx="2" ry="2"/><rect class="c" x="338" y="18" rx="2" ry="2"/><rect class="c" x="338" y="34" rx="2" ry="2"/><rect class="c" x="338" y="50" rx="2" ry="2"/><rect class="c" x="338" y="66" rx="2" ry="2"/><rect class="c" x="338" y="82" rx="2" ry="2"/><rect class="c" x="338" y="98" rx="2" ry="2"/><rect class="c" x="354" y="2" rx="2" ry="2"/><rect class="c" x="354" y="18" rx="2" ry="2"/><rect class="c" x="354" y="34" rx="2" ry="2"/><rect class="c" x="354" y="50" rx="2" ry="2"/><rect class="c" x="354" y="66" rx="2" ry="2"/><rect class="c" x="354" y="82" rx="2" ry="2"/><rect class="c" x="354" y="98" rx="2" ry="2"/><rect class="c" x="370" y="2" rx="2" ry="2"/><rect class="c" x="370" y="18" rx="2" ry="2"/><rect class="c" x="370" y="34" rx="2" ry="2"/><rect class="c" x="370" y="50" rx="2" ry="2"/><rect class="c" x="370" y="66" rx="2" ry="2"/><rect class="c" x="370" y="82" rx="2" ry="2"/><rect class="c" x="370" y="98" rx="2" ry="2"/><rect class="c" x="386" y="2" rx="2" ry="2"/><rect class="c" x="386" y="18" rx="2" ry="2"/><rect class="c" x="386" y="34" rx="2" ry="2"/><rect class="c" x="386" y="50" rx="2" ry="2"/><rect class="c" x="386" y="66" rx="2" ry="2"/><rect class="c" x="386" y="82" rx="2" ry="2"/><rect class="c cn" x="386" y="98" rx="2" ry="2"/><rect class="c" x="402" y="2" rx="2" ry="2"/><rect class="c" x="402" y="18" rx="2" ry="2"/><rect class="c" x="402" y="34" rx="2" ry="2"/><rect class="c" x="402" y="50" rx="2" ry="2"/><rect class="c" x="402" y="66" rx="2" ry="2"/><rect class="c" x="402" y="82" rx="2" ry="2"/><rect class="c" x="402" y="98" rx="2" ry="2"/><rect class="c" x="418" y="2" rx="2" ry="2"/><rect class="c" x="418" y="18" rx="2" ry="2"/><rect class="c" x="418" y="34" rx="2" ry="2"/><rect class="c" x="418" y="50" rx="2" ry="2"/><rect class="c" x="418" y="66" rx="2" ry="2"/><rect class="c" x="418" y="82" rx="2" ry="2"/><rect class="c" x="418" y="98" rx="2" ry="2"/><rect class="c co" x="434" y="2" rx="2" ry="2"/><rect class="c" x="434" y="18" rx="2" ry="2"/><rect class="c cp" x="434" y="34" rx="2" ry="2"/><rect class="c" x="434" y="50" rx="2" ry="2"/><rect class="c" x="434" y="66" rx="2" ry="2"/><rect class="c" x="434" y="82" rx="2" ry="2"/><rect class="c" x="434" y="98" rx="2" ry="2"/><rect class="c" x="450" y="2" rx="2" ry="2"/><rect class="c" x="450" y="18" rx="2" ry="2"/><rect class="c" x="450" y="34" rx="2" ry="2"/><rect class="c" x="450" y="50" rx="2" ry="2"/><rect class="c" x="450" y="66" rx="2" ry="2"/><rect class="c cq" x="450" y="82" rx="2" ry="2"/><rect class="c cr" x="450" y="98" rx="2" ry="2"/><rect class="c cs" x="466" y="2" rx="2" ry="2"/><rect class="c ct" x="466" y="18" rx="2" ry="2"/><rect class="c" x="466" y="34" rx="2" ry="2"/><rect class="c" x="466" y="50" rx="2" ry="2"/><rect class="c" x="466" y="66" rx="2" ry="2"/><rect class="c" x="466" y="82" rx="2" ry="2"/><rect class="c" x="466" y="98" rx="2" ry="2"/><rect class="c" x="482" y="2" rx="2" ry="2"/><rect class="c" x="482" y="18" rx="2" ry="2"/><rect class="c" x="482" y="34" rx="2" ry="2"/><rect class="c" x="482" y="50" rx="2" ry="2"/><rect class="c" x="482" y="66" rx="2" ry="2"/><rect class="c" x="482" y="82" rx="2" ry="2"/><rect class="c" x="482" y="98" rx="2" ry="2"/><rect class="c cu" x="498" y="2" rx="2" ry="2"/><rect class="c cv" x="498" y="18" rx="2" ry="2"/><rect class="c" x="498" y="34" rx="2" ry="2"/><rect class="c cw" x="498" y="50" rx="2" ry="2"/><rect class="c cx" x="498" y="66" rx="2" ry="2"/><rect class="c" x="498" y="82" rx="2" ry="2"/><rect class="c" x="498" y="98" rx="2" ry="2"/><rect class="c" x="514" y="2" rx="2" ry="2"/><rect class="c" x="514" y="18" rx="2" ry="2"/><rect class="c" x="514" y="34" rx="2" ry="2"/><rect class="c" x="514" y="50" rx="2" ry="2"/><rect class="c" x="514" y="66" rx="2" ry="2"/><rect class="c" x="514" y="82" rx="2" ry="2"/><rect class="c" x="514" y="98" rx="2" ry="2"/><rect class="c" x="530" y="2" rx="2" ry="2"/><rect class="c" x="530" y="18" rx="2" ry="2"/><rect class="c" x="530" y="34" rx="2" ry="2"/><rect class="c" x="530" y="50" rx="2" ry="2"/><rect class="c" x="530" y="66" rx="2" ry="2"/><rect class="c" x="530" y="82" rx="2" ry="2"/><rect class="c" x="530" y="98" rx="2" ry="2"/><rect class="c" x="546" y="2" rx="2" ry="2"/><rect class="c" x="546" y="18" rx="2" ry="2"/><rect class="c" x="546" y="34" rx="2" ry="2"/><rect class="c" x="546" y="50" rx="2" ry="2"/><rect class="c cy" x="546" y="66" rx="2" ry="2"/><rect class="c cz" x="546" y="82" rx="2" ry="2"/><rect class="c" x="546" y="98" rx="2" ry="2"/><rect class="c" x="562" y="2" rx="2" ry="2"/><rect class="c" x="562" y="18" rx="2" ry="2"/><rect class="c" x="562" y="34" rx="2" ry="2"/><rect class="c" x="562" y="50" rx="2" ry="2"/><rect class="c" x="562" y="66" rx="2" ry="2"/><rect class="c" x="562" y="82" rx="2" ry="2"/><rect class="c" x="562" y="98" rx="2" ry="2"/><rect class="c" x="578" y="2" rx="2" ry="2"/><rect class="c" x="578" y="18" rx="2" ry="2"/><rect class="c" x="578" y="34" rx="2" ry="2"/><rect class="c" x="578" y="50" rx="2" ry="2"/><rect class="c" x="578" y="66" rx="2" ry="2"/><rect class="c" x="578" y="82" rx="2" ry="2"/><rect class="c" x="578" y="98" rx="2" ry="2"/><rect class="c" x="594" y="2" rx="2" ry="2"/><rect class="c" x="594" y="18" rx="2" ry="2"/><rect class="c" x="594" y="34" rx="2" ry="2"/><rect class="c" x="594" y="50" rx="2" ry="2"/><rect class="c" x="594" y="66" rx="2" ry="2"/><rect class="c" x="594" y="82" rx="2" ry="2"/><rect class="c" x="594" y="98" rx="2" ry="2"/><rect class="c" x="610" y="2" rx="2" ry="2"/><rect class="c" x="610" y="18" rx="2" ry="2"/><rect class="c" x="610" y="34" rx="2" ry="2"/><rect class="c" x="610" y="50" rx="2" ry="2"/><rect class="c" x="610" y="66" rx="2" ry="2"/><rect class="c" x="610" y="82" rx="2" ry="2"/><rect class="c" x="610" y="98" rx="2" ry="2"/><rect class="c" x="626" y="2" rx="2" ry="2"/><rect class="c" x="626" y="18" rx="2" ry="2"/><rect class="c" x="626" y="34" rx="2" ry="2"/><rect class="c" x="626" y="50" rx="2" ry="2"/><rect class="c" x="626" y="66" rx="2" ry="2"/><rect class="c" x="626" y="82" rx="2" ry="2"/><rect class="c" x="626" y="98" rx="2" ry="2"/><rect class="c" x="642" y="2" rx="2" ry="2"/><rect class="c" x="642" y="18" rx="2" ry="2"/><rect class="c" x="642" y="34" rx="2" ry="2"/><rect class="c" x="642" y="50" rx="2" ry="2"/><rect class="c" x="642" y="66" rx="2" ry="2"/><rect class="c" x="642" y="82" rx="2" ry="2"/><rect class="c" x="642" y="98" rx="2" ry="2"/><rect class="c" x="658" y="2" rx="2" ry="2"/><rect class="c" x="658" y="18" rx="2" ry="2"/><rect class="c" x="658" y="34" rx="2" ry="2"/><rect class="c c10" x="658" y="50" rx="2" ry="2"/><rect class="c" x="658" y="66" rx="2" ry="2"/><rect class="c" x="658" y="82" rx="2" ry="2"/><rect class="c" x="658" y="98" rx="2" ry="2"/><rect class="c" x="674" y="2" rx="2" ry="2"/><rect class="c" x="674" y="18" rx="2" ry="2"/><rect class="c c11" x="674" y="34" rx="2" ry="2"/><rect class="c c12" x="674" y="50" rx="2" ry="2"/><rect class="c" x="674" y="66" rx="2" ry="2"/><rect class="c" x="674" y="82" rx="2" ry="2"/><rect class="c" x="674" y="98" rx="2" ry="2"/><rect class="c" x="690" y="2" rx="2" ry="2"/><rect class="c" x="690" y="18" rx="2" ry="2"/><rect class="c" x="690" y="34" rx="2" ry="2"/><rect class="c" x="690" y="50" rx="2" ry="2"/><rect class="c" x="690" y="66" rx="2" ry="2"/><rect class="c c13" x="690" y="82" rx="2" ry="2"/><rect class="c" x="690" y="98" rx="2" ry="2"/><rect class="c" x="706" y="2" rx="2" ry="2"/><rect class="c" x="706" y="18" rx="2" ry="2"/><rect class="c" x="706" y="34" rx="2" ry="2"/><rect class="c" x="706" y="50" rx="2" ry="2"/><rect class="c" x="706" y="66" rx="2" ry="2"/><rect class="c" x="706" y="82" rx="2" ry="2"/><rect class="c" x="706" y="98" rx="2" ry="2"/><rect class="c" x="722" y="2" rx="2" ry="2"/><rect class="c" x="722" y="18" rx="2" ry="2"/><rect class="c" x="722" y="34" rx="2" ry="2"/><rect class="c" x="722" y="50" rx="2" ry="2"/><rect class="c" x="722" y="66" rx="2" ry="2"/><rect class="c c14" x="722" y="82" rx="2" ry="2"/><rect class="c" x="722" y="98" rx="2" ry="2"/><rect class="c c15" x="738" y="2" rx="2" ry="2"/><rect class="c" x="738" y="18" rx="2" ry="2"/><rect class="c" x="738" y="34" rx="2" ry="2"/><rect class="c" x="738" y="50" rx="2" ry="2"/><rect class="c" x="738" y="66" rx="2" ry="2"/><rect class="c c16" x="738" y="82" rx="2" ry="2"/><rect class="c" x="738" y="98" rx="2" ry="2"/><rect class="c c17" x="754" y="2" rx="2" ry="2"/><rect class="c c18" x="754" y="18" rx="2" ry="2"/><rect class="c" x="754" y="34" rx="2" ry="2"/><rect class="c c19" x="754" y="50" rx="2" ry="2"/><rect class="c" x="754" y="66" rx="2" ry="2"/><rect class="c" x="754" y="82" rx="2" ry="2"/><rect class="c" x="754" y="98" rx="2" ry="2"/><rect class="c" x="770" y="2" rx="2" ry="2"/><rect class="c" x="770" y="18" rx="2" ry="2"/><rect class="c" x="770" y="34" rx="2" ry="2"/><rect class="c" x="770" y="50" rx="2" ry="2"/><rect class="c" x="770" y="66" rx="2" ry="2"/><rect class="c" x="770" y="82" rx="2" ry="2"/><rect class="c" x="770" y="98" rx="2" ry="2"/><rect class="c" x="786" y="2" rx="2" ry="2"/><rect class="c" x="786" y="18" rx="2" ry="2"/><rect class="c" x="786" y="34" rx="2" ry="2"/><rect class="c" x="786" y="50" rx="2" ry="2"/><rect class="c c1a" x="786" y="66" rx="2" ry="2"/><rect class="c" x="786" y="82" rx="2" ry="2"/><rect class="c c1b" x="786" y="98" rx="2" ry="2"/><rect class="c" x="802" y="2" rx="2" ry="2"/><rect class="c" x="802" y="18" rx="2" ry="2"/><rect class="c" x="802" y="34" rx="2" ry="2"/><rect class="c" x="802" y="50" rx="2" ry="2"/><rect class="c c1c" x="802" y="66" rx="2" ry="2"/><rect class="c" x="802" y="82" rx="2" ry="2"/><rect class="c" x="802" y="98" rx="2" ry="2"/><rect class="c" x="818" y="2" rx="2" ry="2"/><rect class="c" x="818" y="18" rx="2" ry="2"/><rect class="c c1d" x="818" y="34" rx="2" ry="2"/><rect class="c" x="818" y="50" rx="2" ry="2"/><rect class="c" x="818" y="66" rx="2" ry="2"/><rect class="c" x="818" y="82" rx="2" ry="2"/><rect class="c" x="818" y="98" rx="2" ry="2"/><rect class="c c1e" x="834" y="2" rx="2" ry="2"/><rect class="c c1f" x="834" y="18" rx="2" ry="2"/><rect class="u u0" height="12" width="440.9" x="0.0" y="144"/><rect class="u u1" height="12" width="196.3" x="440.3" y="144"/><rect class="u u2" height="12" width="98.4" x="636.0" y="144"/><rect class="u u3" height="12" width="114.8" x="733.8" y="144"/><rect class="s s0" x="0.8" y="0.8" width="14.4" height="14.4" rx="4.5" ry="4.5"/><rect class="s s1" x="1.8" y="1.8" width="12.3" height="12.3" rx="4.1" ry="4.1"/><rect class="s s2" x="2.6" y="2.6" width="10.8" height="10.8" rx="3.6" ry="3.6"/><rect class="s s3" x="3.0" y="3.0" width="9.9" height="9.9" rx="3.3" ry="3.3"/></svg>