<svg viewBox="-16 -32 880 192" width="880" height="192" xmlns="http://www.w3.org/2000/svg"><desc>Generated with https://github.com/Platane/snk</desc><style>:root{--cb:#1b1f230a;--cs:white;--ce:#0a0e12;--c0:#0a0e12;--c1:#1445a2;--c2:#1d65ee;--c3:#1f4eff;--c4:#466dff}.c{shape-rendering:geometricPrecision;fill:var(--ce);stroke-width:1px;stroke:var(--cb);animation:none 36900ms linear infinite;width:12px;height:12px}@keyframes c0{0.26%{fill:var(--c1)}0.28%,100%{fill:var(--ce)}}.c.c0{fill:var(--c1);animation-name:c0}@keyframes c1{29.26%{fill:var(--c1)}29.28%,100%{fill:var(--ce)}}.c.c1{fill:var(--c1);animation-name:c1}@keyframes c2{0.53%{fill:var(--c1)}0.55%,100%{fill:var(--ce)}}.c.c2{fill:var(--c1);animation-name:c2}@keyframes c3{69.1%{fill:var(--c2)}69.12%,100%{fill:var(--ce)}}.c.c3{fill:var(--c2);animation-name:c3}@keyframes c4{2.43%{fill:var(--c1)}2.45%,100%{fill:var(--ce)}}.c.c4{fill:var(--c1);animation-name:c4}@keyframes c5{2.97%{fill:var(--c1)}2.99%,100%{fill:var(--ce)}}.c.c5{fill:var(--c1);animation-name:c5}@keyframes c6{1.07%{fill:var(--c1)}1.09%,100%{fill:var(--ce)}}.c.c6{fill:var(--c1);animation-name:c6}@keyframes c7{1.89%{fill:var(--c1)}1.91%,100%{fill:var(--ce)}}.c.c7{fill:var(--c1);animation-name:c7}@keyframes c8{1.35%{fill:var(--c1)}1.37%,100%{fill:var(--ce)}}.c.c8{fill:var(--c1);animation-name:c8}@keyframes c9{67.47%{fill:var(--c2)}67.49%,100%{fill:var(--ce)}}.c.c9{fill:var(--c2);animation-name:c9}@keyframes ca{3.78%{fill:var(--c1)}3.8%,100%{fill:var(--ce)}}.c.ca{fill:var(--c1);animation-name:ca}@keyframes cb{4.33%{fill:var(--c1)}4.35%,100%{fill:var(--ce)}}.c.cb{fill:var(--c1);animation-name:cb}@keyframes cc{27.63%{fill:var(--c1)}27.65%,100%{fill:var(--ce)}}.c.cc{fill:var(--c1);animation-name:cc}@keyframes cd{4.6%{fill:var(--c1)}4.62%,100%{fill:var(--ce)}}.c.cd{fill:var(--c1);animation-name:cd}@keyframes ce{5.68%{fill:var(--c1)}5.7%,100%{fill:var(--ce)}}.c.ce{fill:var(--c1);animation-name:ce}@keyframes cf{4.87%{fill:var(--c1)}4.89%,100%{fill:var(--ce)}}.c.cf{fill:var(--c1);animation-name:cf}@keyframes cg{97.55%{fill:var(--c4)}97.57%,100%{fill:var(--ce)}}.c.cg{fill:var(--c4);animation-name:cg}@keyframes ch{26.82%{fill:var(--c1)}26.84%,100%{fill:var(--ce)}}.c.ch{fill:var(--c1);animation-name:ch}@keyframes ci{5.41%{fill:var(--c1)}5.43%,100%{fill:var(--ce)}}.c.ci{fill:var(--c1);animation-name:ci}@keyframes cj{5.14%{fill:var(--c1)}5.16%,100%{fill:var(--ce)}}.c.cj{fill:var(--c1);animation-name:cj}@keyframes ck{71.53%{fill:var(--c3)}71.55%,100%{fill:var(--ce)}}.c.ck{fill:var(--c3);animation-name:ck}@keyframes cl{6.49%{fill:var(--c1)}6.51%,100%{fill:var(--ce)}}.c.cl{fill:var(--c1);animation-name:cl}@keyframes cm{8.39%{fill:var(--c1)}8.41%,100%{fill:var(--ce)}}.c.cm{fill:var(--c1);animation-name:cm}@keyframes cn{96.74%{fill:var(--c4)}96.76%,100%{fill:var(--ce)}}.c.cn{fill:var(--c4);animation-name:cn}@keyframes co{7.31%{fill:var(--c1)}7.33%,100%{fill:var(--ce)}}.c.co{fill:var(--c1);animation-name:co}@keyframes cp{65.57%{fill:var(--c2)}65.59%,100%{fill:var(--ce)}}.c.cp{fill:var(--c2);animation-name:cp}@keyframes cq{8.93%{fill:var(--c1)}8.95%,100%{fill:var(--ce)}}.c.cq{fill:var(--c1);animation-name:cq}@keyframes cr{72.62%{fill:var(--c3)}72.64%,100%{fill:var(--ce)}}.c.cr{fill:var(--c3);animation-name:cr}@keyframes cs{65.03%{fill:var(--c2)}65.05%,100%{fill:var(--ce)}}.c.cs{fill:var(--c2);animation-name:cs}@keyframes ct{94.84%{fill:var(--c4)}94.86%,100%{fill:var(--ce)}}.c.ct{fill:var(--c4);animation-name:ct}@keyframes cu{24.92%{fill:var(--c1)}24.94%,100%{fill:var(--ce)}}.c.cu{fill:var(--c1);animation-name:cu}@keyframes cv{63.68%{fill:var(--c2)}63.7%,100%{fill:var(--ce)}}.c.cv{fill:var(--c2);animation-name:cv}@keyframes cw{93.76%{fill:var(--c4)}93.78%,100%{fill:var(--ce)}}.c.cw{fill:var(--c4);animation-name:cw}@keyframes cx{11.1%{fill:var(--c1)}11.12%,100%{fill:var(--ce)}}.c.cx{fill:var(--c1);animation-name:cx}@keyframes cy{10.83%{fill:var(--c1)}10.85%,100%{fill:var(--ce)}}.c.cy{fill:var(--c1);animation-name:cy}@keyframes cz{77.23%{fill:var(--c3)}77.25%,100%{fill:var(--ce)}}.c.cz{fill:var(--c3);animation-name:cz}@keyframes c10{73.7%{fill:var(--c3)}73.72%,100%{fill:var(--ce)}}.c.c10{fill:var(--c3);animation-name:c10}@keyframes c11{63.13%{fill:var(--c2)}63.15%,100%{fill:var(--ce)}}.c.c11{fill:var(--c2);animation-name:c11}@keyframes c12{10.29%{fill:var(--c1)}10.31%,100%{fill:var(--ce)}}.c.c12{fill:var(--c1);animation-name:c12}@keyframes c13{61.51%{fill:var(--c2)}61.53%,100%{fill:var(--ce)}}.c.c13{fill:var(--c2);animation-name:c13}@keyframes c14{61.24%{fill:var(--c2)}61.26%,100%{fill:var(--ce)}}.c.c14{fill:var(--c2);animation-name:c14}@keyframes c15{60.69%{fill:var(--c2)}60.71%,100%{fill:var(--ce)}}.c.c15{fill:var(--c2);animation-name:c15}@keyframes c16{60.42%{fill:var(--c2)}60.44%,100%{fill:var(--ce)}}.c.c16{fill:var(--c2);animation-name:c16}@keyframes c17{59.88%{fill:var(--c2)}59.9%,100%{fill:var(--ce)}}.c.c17{fill:var(--c2);animation-name:c17}@keyframes c18{62.32%{fill:var(--c2)}62.34%,100%{fill:var(--ce)}}.c.c18{fill:var(--c2);animation-name:c18}@keyframes c19{75.06%{fill:var(--c3)}75.08%,100%{fill:var(--ce)}}.c.c19{fill:var(--c3);animation-name:c19}@keyframes c1a{75.33%{fill:var(--c3)}75.35%,100%{fill:var(--ce)}}.c.c1a{fill:var(--c3);animation-name:c1a}@keyframes c1b{13.27%{fill:var(--c1)}13.29%,100%{fill:var(--ce)}}.c.c1b{fill:var(--c1);animation-name:c1b}@keyframes c1c{22.21%{fill:var(--c1)}22.23%,100%{fill:var(--ce)}}.c.c1c{fill:var(--c1);animation-name:c1c}@keyframes c1d{14.35%{fill:var(--c1)}14.37%,100%{fill:var(--ce)}}.c.c1d{fill:var(--c1);animation-name:c1d}@keyframes c1e{14.62%{fill:var(--c1)}14.64%,100%{fill:var(--ce)}}.c.c1e{fill:var(--c1);animation-name:c1e}@keyframes c1f{21.94%{fill:var(--c1)}21.96%,100%{fill:var(--ce)}}.c.c1f{fill:var(--c1);animation-name:c1f}@keyframes c1g{14.9%{fill:var(--c1)}14.92%,100%{fill:var(--ce)}}.c.c1g{fill:var(--c1);animation-name:c1g}@keyframes c1h{15.98%{fill:var(--c1)}16%,100%{fill:var(--ce)}}.c.c1h{fill:var(--c1);animation-name:c1h}@keyframes c1i{19.5%{fill:var(--c1)}19.52%,100%{fill:var(--ce)}}.c.c1i{fill:var(--c1);animation-name:c1i}@keyframes c1j{18.15%{fill:var(--c1)}18.17%,100%{fill:var(--ce)}}.c.c1j{fill:var(--c1);animation-name:c1j}@keyframes c1k{18.69%{fill:var(--c1)}18.71%,100%{fill:var(--ce)}}.c.c1k{fill:var(--c1);animation-name:c1k}@keyframes c1l{55.55%{fill:var(--c2)}55.57%,100%{fill:var(--ce)}}.c.c1l{fill:var(--c2);animation-name:c1l}@keyframes c1m{55.82%{fill:var(--c2)}55.84%,100%{fill:var(--ce)}}.c.c1m{fill:var(--c2);animation-name:c1m}@keyframes c1n{41.18%{fill:var(--c1)}41.2%,100%{fill:var(--ce)}}.c.c1n{fill:var(--c1);animation-name:c1n}@keyframes c1o{49.58%{fill:var(--c2)}49.6%,100%{fill:var(--ce)}}.c.c1o{fill:var(--c2);animation-name:c1o}@keyframes c1p{48.5%{fill:var(--c1)}48.52%,100%{fill:var(--ce)}}.c.c1p{fill:var(--c1);animation-name:c1p}@keyframes c1q{42.54%{fill:var(--c1)}42.56%,100%{fill:var(--ce)}}.c.c1q{fill:var(--c1);animation-name:c1q}@keyframes c1r{85.08%{fill:var(--c3)}85.1%,100%{fill:var(--ce)}}.c.c1r{fill:var(--c3);animation-name:c1r}@keyframes c1s{47.42%{fill:var(--c1)}47.44%,100%{fill:var(--ce)}}.c.c1s{fill:var(--c1);animation-name:c1s}@keyframes c1t{47.69%{fill:var(--c1)}47.71%,100%{fill:var(--ce)}}.c.c1t{fill:var(--c1);animation-name:c1t}@keyframes c1u{46.87%{fill:var(--c1)}46.89%,100%{fill:var(--ce)}}.c.c1u{fill:var(--c1);animation-name:c1u}@keyframes c1v{46.6%{fill:var(--c1)}46.62%,100%{fill:var(--ce)}}.c.c1v{fill:var(--c1);animation-name:c1v}@keyframes c1w{51.48%{fill:var(--c2)}51.5%,100%{fill:var(--ce)}}.c.c1w{fill:var(--c2);animation-name:c1w}@keyframes c1x{43.62%{fill:var(--c1)}43.64%,100%{fill:var(--ce)}}.c.c1x{fill:var(--c1);animation-name:c1x}@keyframes c1y{44.43%{fill:var(--c1)}44.45%,100%{fill:var(--ce)}}.c.c1y{fill:var(--c1);animation-name:c1y}@keyframes c1z{44.71%{fill:var(--c1)}44.73%,100%{fill:var(--ce)}}.c.c1z{fill:var(--c1);animation-name:c1z}.u{transform-origin:0 0;transform:scale(0,1);animation:none linear 36900ms infinite}@keyframes u0{0.26%{transform:scale(0.000,1)}0.28%,0.53%{transform:scale(0.022,1)}0.55%,1.07%{transform:scale(0.044,1)}1.09%,1.35%{transform:scale(0.067,1)}1.37%,1.89%{transform:scale(0.089,1)}1.91%,2.43%{transform:scale(0.111,1)}2.45%,2.97%{transform:scale(0.133,1)}2.99%,3.78%{transform:scale(0.156,1)}3.8%,4.33%{transform:scale(0.178,1)}4.35%,4.6%{transform:scale(0.200,1)}4.62%,4.87%{transform:scale(0.222,1)}4.89%,5.14%{transform:scale(0.244,1)}5.16%,5.41%{transform:scale(0.267,1)}5.43%,5.68%{transform:scale(0.289,1)}5.7%,6.49%{transform:scale(0.311,1)}6.51%,7.31%{transform:scale(0.333,1)}7.33%,8.39%{transform:scale(0.356,1)}8.41%,8.93%{transform:scale(0.378,1)}8.95%,10.29%{transform:scale(0.400,1)}10.31%,10.83%{transform:scale(0.422,1)}10.85%,11.1%{transform:scale(0.444,1)}11.12%,13.27%{transform:scale(0.467,1)}13.29%,14.35%{transform:scale(0.489,1)}14.37%,14.62%{transform:scale(0.511,1)}14.64%,14.9%{transform:scale(0.533,1)}14.92%,15.98%{transform:scale(0.556,1)}16%,18.15%{transform:scale(0.578,1)}18.17%,18.69%{transform:scale(0.600,1)}18.71%,19.5%{transform:scale(0.622,1)}19.52%,21.94%{transform:scale(0.644,1)}21.96%,22.21%{transform:scale(0.667,1)}22.23%,24.92%{transform:scale(0.689,1)}24.94%,26.82%{transform:scale(0.711,1)}26.84%,27.63%{transform:scale(0.733,1)}27.65%,29.26%{transform:scale(0.756,1)}29.28%,41.18%{transform:scale(0.778,1)}41.2%,42.54%{transform:scale(0.800,1)}42.56%,43.62%{transform:scale(0.822,1)}43.64%,44.43%{transform:scale(0.844,1)}44.45%,44.71%{transform:scale(0.867,1)}44.73%,46.6%{transform:scale(0.889,1)}46.62%,46.87%{transform:scale(0.911,1)}46.89%,47.42%{transform:scale(0.933,1)}47.44%,47.69%{transform:scale(0.956,1)}47.71%,48.5%{transform:scale(0.978,1)}48.52%,100%{transform:scale(1.000,1)}}.u.u0{fill:var(--c1);animation-name:u0;transform-origin:0.0px 0}@keyframes u1{49.58%{transform:scale(0.000,1)}49.6%,51.48%{transform:scale(0.063,1)}51.5%,55.55%{transform:scale(0.125,1)}55.57%,55.82%{transform:scale(0.188,1)}55.84%,59.88%{transform:scale(0.250,1)}59.9%,60.42%{transform:scale(0.313,1)}60.44%,60.69%{transform:scale(0.375,1)}60.71%,61.24%{transform:scale(0.438,1)}61.26%,61.51%{transform:scale(0.500,1)}61.53%,62.32%{transform:scale(0.563,1)}62.34%,63.13%{transform:scale(0.625,1)}63.15%,63.68%{transform:scale(0.688,1)}63.7%,65.03%{transform:scale(0.750,1)}65.05%,65.57%{transform:scale(0.813,1)}65.59%,67.47%{transform:scale(0.875,1)}67.49%,69.1%{transform:scale(0.938,1)}69.12%,100%{transform:scale(1.000,1)}}.u.u1{fill:var(--c2);animation-name:u1;transform-origin:530.0px 0}@keyframes u2{71.53%{transform:scale(0.000,1)}71.55%,72.62%{transform:scale(0.143,1)}72.64%,73.7%{transform:scale(0.286,1)}73.72%,75.06%{transform:scale(0.429,1)}75.08%,75.33%{transform:scale(0.571,1)}75.35%,77.23%{transform:scale(0.714,1)}77.25%,85.08%{transform:scale(0.857,1)}85.1%,100%{transform:scale(1.000,1)}}.u.u2{fill:var(--c3);animation-name:u2;transform-origin:718.4px 0}@keyframes u3{93.76%{transform:scale(0.000,1)}93.78%,94.84%{transform:scale(0.250,1)}94.86%,96.74%{transform:scale(0.500,1)}96.76%,97.55%{transform:scale(0.750,1)}97.57%,100%{transform:scale(1.000,1)}}.u.u3{fill:var(--c4);animation-name:u3;transform-origin:800.9px 0}.s{shape-rendering:geometricPrecision;fill:var(--cs);animation:none linear 36900ms infinite}@keyframes s0{0%,99.73%{transform:translate(0px,-16px)}0.27%,29%{transform:translate(0px,0px)}0.81%{transform:translate(32px,0px)}1.08%{transform:translate(32px,16px)}1.36%,68.56%{transform:translate(48px,16px)}1.63%{transform:translate(48px,32px)}2.17%{transform:translate(16px,32px)}2.98%{transform:translate(16px,80px)}3.25%{transform:translate(32px,80px)}3.52%{transform:translate(32px,96px)}4.07%{transform:translate(64px,96px)}4.34%{transform:translate(64px,80px)}5.15%{transform:translate(112px,80px)}5.42%{transform:translate(112px,64px)}5.69%{transform:translate(96px,64px)}5.96%{transform:translate(96px,48px)}7.05%{transform:translate(160px,48px)}7.32%,65.31%{transform:translate(160px,64px)}7.86%{transform:translate(128px,64px)}8.4%{transform:translate(128px,96px)}8.94%,33.33%,95.12%{transform:translate(160px,96px)}9.21%,33.6%{transform:translate(160px,112px)}10.03%{transform:translate(208px,112px)}10.57%{transform:translate(208px,80px)}10.84%{transform:translate(192px,80px)}11.11%,76.69%{transform:translate(192px,64px)}11.38%,64.5%,76.42%{transform:translate(208px,64px)}11.92%,63.96%,73.17%{transform:translate(208px,32px)}12.47%{transform:translate(240px,32px)}13.01%,60.16%{transform:translate(240px,64px)}14.09%{transform:translate(304px,64px)}14.63%{transform:translate(304px,96px)}17.34%{transform:translate(464px,96px)}18.16%{transform:translate(464px,48px)}18.43%,55.28%{transform:translate(480px,48px)}18.97%{transform:translate(480px,16px)}19.51%{transform:translate(448px,16px)}19.78%{transform:translate(448px,0px)}22.22%{transform:translate(304px,0px)}22.49%{transform:translate(304px,-16px)}24.39%{transform:translate(192px,-16px)}24.93%,63.41%{transform:translate(192px,16px)}25.47%,96.48%{transform:translate(160px,16px)}25.75%{transform:translate(160px,32px)}26.56%{transform:translate(112px,32px)}26.83%{transform:translate(112px,16px)}27.1%,71%{transform:translate(96px,16px)}27.37%,70.73%{transform:translate(96px,0px)}29.54%{transform:translate(0px,32px)}31.98%{transform:translate(144px,32px)}33.06%{transform:translate(144px,96px)}40.92%{transform:translate(592px,112px)}41.19%{transform:translate(592px,96px)}42.01%{transform:translate(640px,96px)}42.28%{transform:translate(640px,80px)}43.36%{transform:translate(704px,80px)}43.63%{transform:translate(704px,64px)}44.44%{transform:translate(752px,64px)}44.72%{transform:translate(752px,80px)}44.99%{transform:translate(736px,80px)}46.07%{transform:translate(736px,16px)}46.61%,50.95%{transform:translate(704px,16px)}46.88%{transform:translate(704px,0px)}47.43%{transform:translate(672px,0px)}47.7%{transform:translate(672px,16px)}48.24%,49.86%{transform:translate(640px,16px)}48.51%{transform:translate(640px,32px)}48.78%{transform:translate(656px,32px)}49.32%{transform:translate(656px,0px)}49.59%{transform:translate(640px,0px)}51.49%{transform:translate(704px,48px)}55.83%{transform:translate(480px,80px)}59.89%{transform:translate(240px,80px)}60.43%{transform:translate(224px,64px)}61.52%{transform:translate(224px,0px)}62.06%,74.53%{transform:translate(256px,0px)}62.33%{transform:translate(256px,16px)}63.69%{transform:translate(192px,32px)}65.58%{transform:translate(160px,80px)}67.48%{transform:translate(48px,80px)}69.11%{transform:translate(16px,16px)}69.38%{transform:translate(16px,0px)}71.54%{transform:translate(128px,16px)}71.82%{transform:translate(128px,32px)}73.71%{transform:translate(208px,0px)}75.34%{transform:translate(256px,48px)}76.15%{transform:translate(208px,48px)}77.24%{transform:translate(192px,96px)}85.09%{transform:translate(656px,96px)}85.91%{transform:translate(656px,48px)}94.04%{transform:translate(176px,48px)}94.85%{transform:translate(176px,96px)}96.75%{transform:translate(144px,16px)}97.02%{transform:translate(144px,0px)}98.37%{transform:translate(64px,0px)}98.64%{transform:translate(64px,-16px)}}.s.s0{transform:translate(0px,-16px);animation-name:s0}@keyframes s1{0%,99.73%{transform:translate(16px,-16px)}0.27%{transform:translate(0px,-16px)}0.54%,29.27%{transform:translate(0px,0px)}1.08%{transform:translate(32px,0px)}1.36%{transform:translate(32px,16px)}1.63%,68.83%{transform:translate(48px,16px)}1.9%{transform:translate(48px,32px)}2.44%{transform:translate(16px,32px)}3.25%{transform:translate(16px,80px)}3.52%{transform:translate(32px,80px)}3.79%{transform:translate(32px,96px)}4.34%{transform:translate(64px,96px)}4.61%{transform:translate(64px,80px)}5.42%{transform:translate(112px,80px)}5.69%{transform:translate(112px,64px)}5.96%{transform:translate(96px,64px)}6.23%{transform:translate(96px,48px)}7.32%{transform:translate(160px,48px)}7.59%,65.58%{transform:translate(160px,64px)}8.13%{transform:translate(128px,64px)}8.67%{transform:translate(128px,96px)}9.21%,33.6%,95.39%{transform:translate(160px,96px)}9.49%,33.88%{transform:translate(160px,112px)}10.3%{transform:translate(208px,112px)}10.84%{transform:translate(208px,80px)}11.11%{transform:translate(192px,80px)}11.38%,76.96%{transform:translate(192px,64px)}11.65%,64.77%,76.69%{transform:translate(208px,64px)}12.2%,64.23%,73.44%{transform:translate(208px,32px)}12.74%{transform:translate(240px,32px)}13.28%,60.43%{transform:translate(240px,64px)}14.36%{transform:translate(304px,64px)}14.91%{transform:translate(304px,96px)}17.62%{transform:translate(464px,96px)}18.43%{transform:translate(464px,48px)}18.7%,55.56%{transform:translate(480px,48px)}19.24%{transform:translate(480px,16px)}19.78%{transform:translate(448px,16px)}20.05%{transform:translate(448px,0px)}22.49%{transform:translate(304px,0px)}22.76%{transform:translate(304px,-16px)}24.66%{transform:translate(192px,-16px)}25.2%,63.69%{transform:translate(192px,16px)}25.75%,96.75%{transform:translate(160px,16px)}26.02%{transform:translate(160px,32px)}26.83%{transform:translate(112px,32px)}27.1%{transform:translate(112px,16px)}27.37%,71.27%{transform:translate(96px,16px)}27.64%,71%{transform:translate(96px,0px)}29.81%{transform:translate(0px,32px)}32.25%{transform:translate(144px,32px)}33.33%{transform:translate(144px,96px)}41.19%{transform:translate(592px,112px)}41.46%{transform:translate(592px,96px)}42.28%{transform:translate(640px,96px)}42.55%{transform:translate(640px,80px)}43.63%{transform:translate(704px,80px)}43.9%{transform:translate(704px,64px)}44.72%{transform:translate(752px,64px)}44.99%{transform:translate(752px,80px)}45.26%{transform:translate(736px,80px)}46.34%{transform:translate(736px,16px)}46.88%,51.22%{transform:translate(704px,16px)}47.15%{transform:translate(704px,0px)}47.7%{transform:translate(672px,0px)}47.97%{transform:translate(672px,16px)}48.51%,50.14%{transform:translate(640px,16px)}48.78%{transform:translate(640px,32px)}49.05%{transform:translate(656px,32px)}49.59%{transform:translate(656px,0px)}49.86%{transform:translate(640px,0px)}51.76%{transform:translate(704px,48px)}56.1%{transform:translate(480px,80px)}60.16%{transform:translate(240px,80px)}60.7%{transform:translate(224px,64px)}61.79%{transform:translate(224px,0px)}62.33%,74.8%{transform:translate(256px,0px)}62.6%{transform:translate(256px,16px)}63.96%{transform:translate(192px,32px)}65.85%{transform:translate(160px,80px)}67.75%{transform:translate(48px,80px)}69.38%{transform:translate(16px,16px)}69.65%{transform:translate(16px,0px)}71.82%{transform:translate(128px,16px)}72.09%{transform:translate(128px,32px)}73.98%{transform:translate(208px,0px)}75.61%{transform:translate(256px,48px)}76.42%{transform:translate(208px,48px)}77.51%{transform:translate(192px,96px)}85.37%{transform:translate(656px,96px)}86.18%{transform:translate(656px,48px)}94.31%{transform:translate(176px,48px)}95.12%{transform:translate(176px,96px)}97.02%{transform:translate(144px,16px)}97.29%{transform:translate(144px,0px)}98.64%{transform:translate(64px,0px)}98.92%{transform:translate(64px,-16px)}}.s.s1{transform:translate(16px,-16px);animation-name:s1}@keyframes s2{0%,99.73%{transform:translate(32px,-16px)}0.54%{transform:translate(0px,-16px)}0.81%,29.54%{transform:translate(0px,0px)}1.36%{transform:translate(32px,0px)}1.63%{transform:translate(32px,16px)}1.9%,69.11%{transform:translate(48px,16px)}2.17%{transform:translate(48px,32px)}2.71%{transform:translate(16px,32px)}3.52%{transform:translate(16px,80px)}3.79%{transform:translate(32px,80px)}4.07%{transform:translate(32px,96px)}4.61%{transform:translate(64px,96px)}4.88%{transform:translate(64px,80px)}5.69%{transform:translate(112px,80px)}5.96%{transform:translate(112px,64px)}6.23%{transform:translate(96px,64px)}6.5%{transform:translate(96px,48px)}7.59%{transform:translate(160px,48px)}7.86%,65.85%{transform:translate(160px,64px)}8.4%{transform:translate(128px,64px)}8.94%{transform:translate(128px,96px)}9.49%,33.88%,95.66%{transform:translate(160px,96px)}9.76%,34.15%{transform:translate(160px,112px)}10.57%{transform:translate(208px,112px)}11.11%{transform:translate(208px,80px)}11.38%{transform:translate(192px,80px)}11.65%,77.24%{transform:translate(192px,64px)}11.92%,65.04%,76.96%{transform:translate(208px,64px)}12.47%,64.5%,73.71%{transform:translate(208px,32px)}13.01%{transform:translate(240px,32px)}13.55%,60.7%{transform:translate(240px,64px)}14.63%{transform:translate(304px,64px)}15.18%{transform:translate(304px,96px)}17.89%{transform:translate(464px,96px)}18.7%{transform:translate(464px,48px)}18.97%,55.83%{transform:translate(480px,48px)}19.51%{transform:translate(480px,16px)}20.05%{transform:translate(448px,16px)}20.33%{transform:translate(448px,0px)}22.76%{transform:translate(304px,0px)}23.04%{transform:translate(304px,-16px)}24.93%{transform:translate(192px,-16px)}25.47%,63.96%{transform:translate(192px,16px)}26.02%,97.02%{transform:translate(160px,16px)}26.29%{transform:translate(160px,32px)}27.1%{transform:translate(112px,32px)}27.37%{transform:translate(112px,16px)}27.64%,71.54%{transform:translate(96px,16px)}27.91%,71.27%{transform:translate(96px,0px)}30.08%{transform:translate(0px,32px)}32.52%{transform:translate(144px,32px)}33.6%{transform:translate(144px,96px)}41.46%{transform:translate(592px,112px)}41.73%{transform:translate(592px,96px)}42.55%{transform:translate(640px,96px)}42.82%{transform:translate(640px,80px)}43.9%{transform:translate(704px,80px)}44.17%{transform:translate(704px,64px)}44.99%{transform:translate(752px,64px)}45.26%{transform:translate(752px,80px)}45.53%{transform:translate(736px,80px)}46.61%{transform:translate(736px,16px)}47.15%,51.49%{transform:translate(704px,16px)}47.43%{transform:translate(704px,0px)}47.97%{transform:translate(672px,0px)}48.24%{transform:translate(672px,16px)}48.78%,50.41%{transform:translate(640px,16px)}49.05%{transform:translate(640px,32px)}49.32%{transform:translate(656px,32px)}49.86%{transform:translate(656px,0px)}50.14%{transform:translate(640px,0px)}52.03%{transform:translate(704px,48px)}56.37%{transform:translate(480px,80px)}60.43%{transform:translate(240px,80px)}60.98%{transform:translate(224px,64px)}62.06%{transform:translate(224px,0px)}62.6%,75.07%{transform:translate(256px,0px)}62.87%{transform:translate(256px,16px)}64.23%{transform:translate(192px,32px)}66.12%{transform:translate(160px,80px)}68.02%{transform:translate(48px,80px)}69.65%{transform:translate(16px,16px)}69.92%{transform:translate(16px,0px)}72.09%{transform:translate(128px,16px)}72.36%{transform:translate(128px,32px)}74.25%{transform:translate(208px,0px)}75.88%{transform:translate(256px,48px)}76.69%{transform:translate(208px,48px)}77.78%{transform:translate(192px,96px)}85.64%{transform:translate(656px,96px)}86.45%{transform:translate(656px,48px)}94.58%{transform:translate(176px,48px)}95.39%{transform:translate(176px,96px)}97.29%{transform:translate(144px,16px)}97.56%{transform:translate(144px,0px)}98.92%{transform:translate(64px,0px)}99.19%{transform:translate(64px,-16px)}}.s.s2{transform:translate(32px,-16px);animation-name:s2}@keyframes s3{0%,99.73%{transform:translate(48px,-16px)}0.81%{transform:translate(0px,-16px)}1.08%,29.81%{transform:translate(0px,0px)}1.63%{transform:translate(32px,0px)}1.9%{transform:translate(32px,16px)}2.17%,69.38%{transform:translate(48px,16px)}2.44%{transform:translate(48px,32px)}2.98%{transform:translate(16px,32px)}3.79%{transform:translate(16px,80px)}4.07%{transform:translate(32px,80px)}4.34%{transform:translate(32px,96px)}4.88%{transform:translate(64px,96px)}5.15%{transform:translate(64px,80px)}5.96%{transform:translate(112px,80px)}6.23%{transform:translate(112px,64px)}6.5%{transform:translate(96px,64px)}6.78%{transform:translate(96px,48px)}7.86%{transform:translate(160px,48px)}8.13%,66.12%{transform:translate(160px,64px)}8.67%{transform:translate(128px,64px)}9.21%{transform:translate(128px,96px)}9.76%,34.15%,95.93%{transform:translate(160px,96px)}10.03%,34.42%{transform:translate(160px,112px)}10.84%{transform:translate(208px,112px)}11.38%{transform:translate(208px,80px)}11.65%{transform:translate(192px,80px)}11.92%,77.51%{transform:translate(192px,64px)}12.2%,65.31%,77.24%{transform:translate(208px,64px)}12.74%,64.77%,73.98%{transform:translate(208px,32px)}13.28%{transform:translate(240px,32px)}13.82%,60.98%{transform:translate(240px,64px)}14.91%{transform:translate(304px,64px)}15.45%{transform:translate(304px,96px)}18.16%{transform:translate(464px,96px)}18.97%{transform:translate(464px,48px)}19.24%,56.1%{transform:translate(480px,48px)}19.78%{transform:translate(480px,16px)}20.33%{transform:translate(448px,16px)}20.6%{transform:translate(448px,0px)}23.04%{transform:translate(304px,0px)}23.31%{transform:translate(304px,-16px)}25.2%{transform:translate(192px,-16px)}25.75%,64.23%{transform:translate(192px,16px)}26.29%,97.29%{transform:translate(160px,16px)}26.56%{transform:translate(160px,32px)}27.37%{transform:translate(112px,32px)}27.64%{transform:translate(112px,16px)}27.91%,71.82%{transform:translate(96px,16px)}28.18%,71.54%{transform:translate(96px,0px)}30.35%{transform:translate(0px,32px)}32.79%{transform:translate(144px,32px)}33.88%{transform:translate(144px,96px)}41.73%{transform:translate(592px,112px)}42.01%{transform:translate(592px,96px)}42.82%{transform:translate(640px,96px)}43.09%{transform:translate(640px,80px)}44.17%{transform:translate(704px,80px)}44.44%{transform:translate(704px,64px)}45.26%{transform:translate(752px,64px)}45.53%{transform:translate(752px,80px)}45.8%{transform:translate(736px,80px)}46.88%{transform:translate(736px,16px)}47.43%,51.76%{transform:translate(704px,16px)}47.7%{transform:translate(704px,0px)}48.24%{transform:translate(672px,0px)}48.51%{transform:translate(672px,16px)}49.05%,50.68%{transform:translate(640px,16px)}49.32%{transform:translate(640px,32px)}49.59%{transform:translate(656px,32px)}50.14%{transform:translate(656px,0px)}50.41%{transform:translate(640px,0px)}52.3%{transform:translate(704px,48px)}56.64%{transform:translate(480px,80px)}60.7%{transform:translate(240px,80px)}61.25%{transform:translate(224px,64px)}62.33%{transform:translate(224px,0px)}62.87%,75.34%{transform:translate(256px,0px)}63.14%{transform:translate(256px,16px)}64.5%{transform:translate(192px,32px)}66.4%{transform:translate(160px,80px)}68.29%{transform:translate(48px,80px)}69.92%{transform:translate(16px,16px)}70.19%{transform:translate(16px,0px)}72.36%{transform:translate(128px,16px)}72.63%{transform:translate(128px,32px)}74.53%{transform:translate(208px,0px)}76.15%{transform:translate(256px,48px)}76.96%{transform:translate(208px,48px)}78.05%{transform:translate(192px,96px)}85.91%{transform:translate(656px,96px)}86.72%{transform:translate(656px,48px)}94.85%{transform:translate(176px,48px)}95.66%{transform:translate(176px,96px)}97.56%{transform:translate(144px,16px)}97.83%{transform:translate(144px,0px)}99.19%{transform:translate(64px,0px)}99.46%{transform:translate(64px,-16px)}}.s.s3{transform:translate(48px,-16px);animation-name:s3}</style><rect class="c c0" x="2" y="2" rx="2" ry="2"/><rect class="c c1" x="2" y="18" rx="2" ry="2"/><rect class="c" x="2" y="34" rx="2" ry="2"/><rect class="c" x="2" y="50" rx="2" ry="2"/><rect class="c" x="2" y="66" rx="2" ry="2"/><rect class="c" x="2" y="82" rx="2" ry="2"/><rect class="c" x="2" y="98" rx="2" ry="2"/><rect class="c c2" x="18" y="2" rx="2" ry="2"/><rect class="c c3" x="18" y="18" rx="2" ry="2"/><rect class="c" x="18" y="34" rx="2" ry="2"/><rect class="c c4" x="18" y="50" rx="2" ry="2"/><rect class="c" x="18" y="66" rx="2" ry="2"/><rect class="c c5" x="18" y="82" rx="2" ry="2"/><rect class="c" x="18" y="98" rx="2" ry="2"/><rect class="c" x="34" y="2" rx="2" ry="2"/><rect class="c c6" x="34" y="18" rx="2" ry="2"/><rect class="c c7" x="34" y="34" rx="2" ry="2"/><rect class="c" x="34" y="50" rx="2" ry="2"/><rect class="c" x="34" y="66" rx="2" ry="2"/><rect class="c" x="34" y="82" rx="2" ry="2"/><rect class="c" x="34" y="98" rx="2" ry="2"/><rect class="c" x="50" y="2" rx="2" ry="2"/><rect class="c c8" x="50" y="18" rx="2" ry="2"/><rect class="c" x="50" y="34" rx="2" ry="2"/><rect class="c" x="50" y="50" rx="2" ry="2"/><rect class="c" x="50" y="66" rx="2" ry="2"/><rect class="c c9" x="50" y="82" rx="2" ry="2"/><rect class="c ca" x="50" y="98" rx="2" ry="2"/><rect class="c" x="66" y="2" rx="2" ry="2"/><rect class="c" x="66" y="18" rx="2" ry="2"/><rect class="c" x="66" y="34" rx="2" ry="2"/><rect class="c" x="66" y="50" rx="2" ry="2"/><rect class="c" x="66" y="66" rx="2" ry="2"/><rect class="c cb" x="66" y="82" rx="2" ry="2"/><rect class="c" x="66" y="98" rx="2" ry="2"/><rect class="c cc" x="82" y="2" rx="2" ry="2"/><rect class="c" x="82" y="18" rx="2" ry="2"/><rect class="c" x="82" y="34" rx="2" ry="2"/><rect class="c" x="82" y="50" rx="2" ry="2"/><rect class="c" x="82" y="66" rx="2" ry="2"/><rect class="c cd" x="82" y="82" rx="2" ry="2"/><rect class="c" x="82" y="98" rx="2" ry="2"/><rect class="c" x="98" y="2" rx="2" ry="2"/><rect class="c" x="98" y="18" rx="2" ry="2"/><rect class="c" x="98" y="34" rx="2" ry="2"/><rect class="c" x="98" y="50" rx="2" ry="2"/><rect class="c ce" x="98" y="66" rx="2" ry="2"/><rect class="c cf" x="98" y="82" rx="2" ry="2"/><rect class="c" x="98" y="98" rx="2" ry="2"/><rect class="c cg" x="114" y="2" rx="2" ry="2"/><rect class="c ch" x="114" y="18" rx="2" ry="2"/><rect class="c" x="114" y="34" rx="2" ry="2"/><rect class="c" x="114" y="50" rx="2" ry="2"/><rect class="c ci" x="114" y="66" rx="2" ry="2"/><rect class="c cj" x="114" y="82" rx="2" ry="2"/><rect class="c" x="114" y="98" rx="2" ry="2"/><rect class="c" x="130" y="2" rx="2" ry="2"/><rect class="c ck" x="130" y="18" rx="2" ry="2"/><rect class="c" x="130" y="34" rx="2" ry="2"/><rect class="c cl" x="130" y="50" rx="2" ry="2"/><rect class="c" x="130" y="66" rx="2" ry="2"/><rect class="c" x="130" y="82" rx="2" ry="2"/><rect class="c cm" x="130" y="98" rx="2" ry="2"/><rect class="c" x="146" y="2" rx="2" ry="2"/><rect class="c cn" x="146" y="18" rx="2" ry="2"/><rect class="c" x="146" y="34" rx="2" ry="2"/><rect class="c" x="146" y="50" rx="2" ry="2"/><rect class="c" x="146" y="66" rx="2" ry="2"/><rect class="c" x="146" y="82" rx="2" ry="2"/><rect class="c" x="146" y="98" rx="2" ry="2"/><rect class="c" x="162" y="2" rx="2" ry="2"/><rect class="c" x="162" y="18" rx="2" ry="2"/><rect class="c" x="162" y="34" rx="2" ry="2"/><rect class="c" x="162" y="50" rx="2" ry="2"/><rect class="c co" x="162" y="66" rx="2" ry="2"/><rect class="c cp" x="162" y="82" rx="2" ry="2"/><rect class="c cq" x="162" y="98" rx="2" ry="2"/><rect class="c" x="178" y="2" rx="2" ry="2"/><rect class="c" x="178" y="18" rx="2" ry="2"/><rect class="c cr" x="178" y="34" rx="2" ry="2"/><rect class="c" x="178" y="50" rx="2" ry="2"/><rect class="c cs" x="178" y="66" rx="2" ry="2"/><rect class="c" x="178" y="82" rx="2" ry="2"/><rect class="c ct" x="178" y="98" rx="2" ry="2"/><rect class="c" x="194" y="2" rx="2" ry="2"/><rect class="c cu" x="194" y="18" rx="2" ry="2"/><rect class="c cv" x="194" y="34" rx="2" ry="2"/><rect class="c cw" x="194" y="50" rx="2" ry="2"/><rect class="c cx" x="194" y="66" rx="2" ry="2"/><rect class="c cy" x="194" y="82" rx="2" ry="2"/><rect class="c cz" x="194" y="98" rx="2" ry="2"/><rect class="c c10" x="210" y="2" rx="2" ry="2"/><rect class="c c11" x="210" y="18" rx="2" ry="2"/><rect class="c" x="210" y="34" rx="2" ry="2"/><rect class="c" x="210" y="50" rx="2" ry="2"/><rect class="c" x="210" y="66" rx="2" ry="2"/><rect class="c" x="210" y="82" rx="2" ry="2"/><rect class="c c12" x="210" y="98" rx="2" ry="2"/><rect class="c c13" x="226" y="2" rx="2" ry="2"/><rect class="c c14" x="226" y="18" rx="2" ry="2"/><rect class="c" x="226" y="34" rx="2" ry="2"/><rect class="c c15" x="226" y="50" rx="2" ry="2"/><rect class="c c16" x="226" y="66" rx="2" ry="2"/><rect class="c" x="226" y="82" rx="2" ry="2"/><rect class="c" x="226" y="98" rx="2" ry="2"/><rect class="c" x="242" y="2" rx="2" ry="2"/><rect class="c" x="242" y="18" rx="2" ry="2"/><rect class="c" x="242" y="34" rx="2" ry="2"/><rect class="c" x="242" y="50" rx="2" ry="2"/><rect class="c" x="242" y="66" rx="2" ry="2"/><rect class="c c17" x="242" y="82" rx="2" ry="2"/><rect class="c" x="242" y="98" rx="2" ry="2"/><rect class="c" x="258" y="2" rx="2" ry="2"/><rect class="c c18" x="258" y="18" rx="2" ry="2"/><rect class="c c19" x="258" y="34" rx="2" ry="2"/><rect class="c c1a" x="258" y="50" rx="2" ry="2"/><rect class="c c1b" x="258" y="66" rx="2" ry="2"/><rect class="c" x="258" y="82" rx="2" ry="2"/><rect class="c" x="258" y="98" rx="2" ry="2"/><rect class="c" x="274" y="2" rx="2" ry="2"/><rect class="c" x="274" y="18" rx="2" ry="2"/><rect class="c" x="274" y="34" rx="2" ry="2"/><rect class="c" x="274" y="50" rx="2" ry="2"/><rect class="c" x="274" y="66" rx="2" ry="2"/><rect class="c" x="274" y="82" rx="2" ry="2"/><rect class="c" x="274" y="98" rx="2" ry="2"/><rect class="c" x="290" y="2" rx="2" ry="2"/><rect class="c" x="290" y="18" rx="2" ry="2"/><rect class="c" x="290" y="34" rx="2" ry="2"/><rect class="c" x="290" y="50" rx="2" ry="2"/><rect class="c" x="290" y="66" rx="2" ry="2"/><rect class="c" x="290" y="82" rx="2" ry="2"/><rect class="c" x="290" y="98" rx="2" ry="2"/><rect class="c c1c" x="306" y="2" rx="2" ry="2"/><rect class="c" x="306" y="18" rx="2" ry="2"/><rect class="c" x="306" y="34" rx="2" ry="2"/><rect class="c" x="306" y="50" rx="2" ry="2"/><rect class="c" x="306" y="66" rx="2" ry="2"/><rect class="c c1d" x="306" y="82" rx="2" ry="2"/><rect class="c c1e" x="306" y="98" rx="2" ry="2"/><rect class="c c1f" x="322" y="2" rx="2" ry="2"/><rect class="c" x="322" y="18" rx="2" ry="2"/><rect class="c" x="322" y="34" rx="2" ry="2"/><rect class="c" x="322" y="50" rx="2" ry="2"/><rect class="c" x="322" y="66" rx="2" ry="2"/><rect class="c" x="322" y="82" rx="2" ry="2"/><rect class="c c1g" x="322" y="98" rx="2" ry="2"/><rect class="c" x="338" y="2" rx="2" ry="2"/><rect class="c" x="338" y="18" rx="2" ry="2"/><rect class="c" x="338" y="34" rx="2" ry="2"/><rect class="c" x="338" y="50" rx="2" ry="2"/><rect class="c" x="338" y="66" rx="2" ry="2"/><rect class="c" x="338" y="82" rx="2" ry="2"/><rect class="c" x="338" y="98" rx="2" ry="2"/><rect class="c" x="354" y="2" rx="2" ry="2"/><rect class="c" x="354" y="18" rx="2" ry="2"/><rect class="c" x="354" y="34" rx="2" ry="2"/><rect class="c" x="354" y="50" rx="2" ry="2"/><rect class="c" x="354" y="66" rx="2" ry="2"/><rect class="c" x="354" y="82" rx="2" ry="2"/><rect class="c" x="354" y="98" rx="2" ry="2"/><rect class="c" x="370" y="2" rx="2" ry="2"/><rect class="c" x="370" y="18" rx="2" ry="2"/><rect class="c" x="370" y="34" rx="2" ry="2"/><rect class="c" x="370" y="50" rx="2" ry="2"/><rect class="c" x="370" y="66" rx="2" ry="2"/><rect class="c" x="370" y="82" rx="2" ry="2"/><rect class="c" x="370" y="98" rx="2" ry="2"/><rect class="c" x="386" y="2" rx="2" ry="2"/><rect class="c" x="386" y="18" rx="2" ry="2"/><rect class="c" x="386" y="34" rx="2" ry="2"/><rect class="c" x="386" y="50" rx="2" ry="2"/><rect class="c" x="386" y="66" rx="2" ry="2"/><rect class="c" x="386" y="82" rx="2" ry="2"/><rect class="c c1h" x="386" y="98" rx="2" ry="2"/><rect class="c" x="402" y="2" rx="2" ry="2"/><rect class="c" x="402" y="18" rx="2" ry="2"/><rect class="c" x="402" y="34" rx="2" ry="2"/><rect class="c" x="402" y="50" rx="2" ry="2"/><rect class="c" x="402" y="66" rx="2" ry="2"/><rect class="c" x="402" y="82" rx="2" ry="2"/><rect class="c" x="402" y="98" rx="2" ry="2"/><rect class="c" x="418" y="2" rx="2" ry="2"/><rect class="c" x="418" y="18" rx="2" ry="2"/><rect class="c" x="418" y="34" rx="2" ry="2"/><rect class="c" x="418" y="50" rx="2" ry="2"/><rect class="c" x="418" y="66" rx="2" ry="2"/><rect class="c" x="418" y="82" rx="2" ry="2"/><rect class="c" x="418" y="98" rx="2" ry="2"/><rect class="c" x="434" y="2" rx="2" ry="2"/><rect class="c" x="434" y="18" rx="2" ry="2"/><rect class="c" x="434" y="34" rx="2" ry="2"/><rect class="c" x="434" y="50" rx="2" ry="2"/><rect class="c" x="434" y="66" rx="2" ry="2"/><rect class="c" x="434" y="82" rx="2" ry="2"/><rect class="c" x="434" y="98" rx="2" ry="2"/><rect class="c" x="450" y="2" rx="2" ry="2"/><rect class="c c1i" x="450" y="18" rx="2" ry="2"/><rect class="c" x="450" y="34" rx="2" ry="2"/><rect class="c" x="450" y="50" rx="2" ry="2"/><rect class="c" x="450" y="66" rx="2" ry="2"/><rect class="c" x="450" y="82" rx="2" ry="2"/><rect class="c" x="450" y="98" rx="2" ry="2"/><rect class="c" x="466" y="2" rx="2" ry="2"/><rect class="c" x="466" y="18" rx="2" ry="2"/><rect class="c" x="466" y="34" rx="2" ry="2"/><rect class="c c1j" x="466" y="50" rx="2" ry="2"/><rect class="c" x="466" y="66" rx="2" ry="2"/><rect class="c" x="466" y="82" rx="2" ry="2"/><rect class="c" x="466" y="98" rx="2" ry="2"/><rect class="c" x="482" y="2" rx="2" ry="2"/><rect class="c" x="482" y="18" rx="2" ry="2"/><rect class="c c1k" x="482" y="34" rx="2" ry="2"/><rect class="c" x="482" y="50" rx="2" ry="2"/><rect class="c c1l" x="482" y="66" rx="2" ry="2"/><rect class="c c1m" x="482" y="82" rx="2" ry="2"/><rect class="c" x="482" y="98" rx="2" ry="2"/><rect class="c" x="498" y="2" rx="2" ry="2"/><rect class="c" x="498" y="18" rx="2" ry="2"/><rect class="c" x="498" y="34" rx="2" ry="2"/><rect class="c" x="498" y="50" rx="2" ry="2"/><rect class="c" x="498" y="66" rx="2" ry="2"/><rect class="c" x="498" y="82" rx="2" ry="2"/><rect class="c" x="498" y="98" rx="2" ry="2"/><rect class="c" x="514" y="2" rx="2" ry="2"/><rect class="c" x="514" y="18" rx="2" ry="2"/><rect class="c" x="514" y="34" rx="2" ry="2"/><rect class="c" x="514" y="50" rx="2" ry="2"/><rect class="c" x="514" y="66" rx="2" ry="2"/><rect class="c" x="514" y="82" rx="2" ry="2"/><rect class="c" x="514" y="98" rx="2" ry="2"/><rect class="c" x="530" y="2" rx="2" ry="2"/><rect class="c" x="530" y="18" rx="2" ry="2"/><rect class="c" x="530" y="34" rx="2" ry="2"/><rect class="c" x="530" y="50" rx="2" ry="2"/><rect class="c" x="530" y="66" rx="2" ry="2"/><rect class="c" x="530" y="82" rx="2" ry="2"/><rect class="c" x="530" y="98" rx="2" ry="2"/><rect class="c" x="546" y="2" rx="2" ry="2"/><rect class="c" x="546" y="18" rx="2" ry="2"/><rect class="c" x="546" y="34" rx="2" ry="2"/><rect class="c" x="546" y="50" rx="2" ry="2"/><rect class="c" x="546" y="66" rx="2" ry="2"/><rect class="c" x="546" y="82" rx="2" ry="2"/><rect class="c" x="546" y="98" rx="2" ry="2"/><rect class="c" x="562" y="2" rx="2" ry="2"/><rect class="c" x="562" y="18" rx="2" ry="2"/><rect class="c" x="562" y="34" rx="2" ry="2"/><rect class="c" x="562" y="50" rx="2" ry="2"/><rect class="c" x="562" y="66" rx="2" ry="2"/><rect class="c" x="562" y="82" rx="2" ry="2"/><rect class="c" x="562" y="98" rx="2" ry="2"/><rect class="c" x="578" y="2" rx="2" ry="2"/><rect class="c" x="578" y="18" rx="2" ry="2"/><rect class="c" x="578" y="34" rx="2" ry="2"/><rect class="c" x="578" y="50" rx="2" ry="2"/><rect class="c" x="578" y="66" rx="2" ry="2"/><rect class="c" x="578" y="82" rx="2" ry="2"/><rect class="c" x="578" y="98" rx="2" ry="2"/><rect class="c" x="594" y="2" rx="2" ry="2"/><rect class="c" x="594" y="18" rx="2" ry="2"/><rect class="c" x="594" y="34" rx="2" ry="2"/><rect class="c" x="594" y="50" rx="2" ry="2"/><rect class="c" x="594" y="66" rx="2" ry="2"/><rect class="c" x="594" y="82" rx="2" ry="2"/><rect class="c c1n" x="594" y="98" rx="2" ry="2"/><rect class="c" x="610" y="2" rx="2" ry="2"/><rect class="c" x="610" y="18" rx="2" ry="2"/><rect class="c" x="610" y="34" rx="2" ry="2"/><rect class="c" x="610" y="50" rx="2" ry="2"/><rect class="c" x="610" y="66" rx="2" ry="2"/><rect class="c" x="610" y="82" rx="2" ry="2"/><rect class="c" x="610" y="98" rx="2" ry="2"/><rect class="c" x="626" y="2" rx="2" ry="2"/><rect class="c" x="626" y="18" rx="2" ry="2"/><rect class="c" x="626" y="34" rx="2" ry="2"/><rect class="c" x="626" y="50" rx="2" ry="2"/><rect class="c" x="626" y="66" rx="2" ry="2"/><rect class="c" x="626" y="82" rx="2" ry="2"/><rect class="c" x="626" y="98" rx="2" ry="2"/><rect class="c c1o" x="642" y="2" rx="2" ry="2"/><rect class="c" x="642" y="18" rx="2" ry="2"/><rect class="c c1p" x="642" y="34" rx="2" ry="2"/><rect class="c" x="642" y="50" rx="2" ry="2"/><rect class="c" x="642" y="66" rx="2" ry="2"/><rect class="c" x="642" y="82" rx="2" ry="2"/><rect class="c" x="642" y="98" rx="2" ry="2"/><rect class="c" x="658" y="2" rx="2" ry="2"/><rect class="c" x="658" y="18" rx="2" ry="2"/><rect class="c" x="658" y="34" rx="2" ry="2"/><rect class="c" x="658" y="50" rx="2" ry="2"/><rect class="c" x="658" y="66" rx="2" ry="2"/><rect class="c c1q" x="658" y="82" rx="2" ry="2"/><rect class="c c1r" x="658" y="98" rx="2" ry="2"/><rect class="c c1s" x="674" y="2" rx="2" ry="2"/><rect class="c c1t" x="674" y="18" rx="2" ry="2"/><rect class="c" x="674" y="34" rx="2" ry="2"/><rect class="c" x="674" y="50" rx="2" ry="2"/><rect class="c" x="674" y="66" rx="2" ry="2"/><rect class="c" x="674" y="82" rx="2" ry="2"/><rect class="c" x="674" y="98" rx="2" ry="2"/><rect class="c" x="690" y="2" rx="2" ry="2"/><rect class="c" x="690" y="18" rx="2" ry="2"/><rect class="c" x="690" y="34" rx="2" ry="2"/><rect class="c" x="690" y="50" rx="2" ry="2"/><rect class="c" x="690" y="66" rx="2" ry="2"/><rect class="c" x="690" y="82" rx="2" ry="2"/><rect class="c" x="690" y="98" rx="2" ry="2"/><rect class="c c1u" x="706" y="2" rx="2" ry="2"/><rect class="c c1v" x="706" y="18" rx="2" ry="2"/><rect class="c" x="706" y="34" rx="2" ry="2"/><rect class="c c1w" x="706" y="50" rx="2" ry="2"/><rect class="c c1x" x="706" y="66" rx="2" ry="2"/><rect class="c" x="706" y="82" rx="2" ry="2"/><rect class="c" x="706" y="98" rx="2" ry="2"/><rect class="c" x="722" y="2" rx="2" ry="2"/><rect class="c" x="722" y="18" rx="2" ry="2"/><rect class="c" x="722" y="34" rx="2" ry="2"/><rect class="c" x="722" y="50" rx="2" ry="2"/><rect class="c" x="722" y="66" rx="2" ry="2"/><rect class="c" x="722" y="82" rx="2" ry="2"/><rect class="c" x="722" y="98" rx="2" ry="2"/><rect class="c" x="738" y="2" rx="2" ry="2"/><rect class="c" x="738" y="18" rx="2" ry="2"/><rect class="c" x="738" y="34" rx="2" ry="2"/><rect class="c" x="738" y="50" rx="2" ry="2"/><rect class="c" x="738" y="66" rx="2" ry="2"/><rect class="c" x="738" y="82" rx="2" ry="2"/><rect class="c" x="738" y="98" rx="2" ry="2"/><rect class="c" x="754" y="2" rx="2" ry="2"/><rect class="c" x="754" y="18" rx="2" ry="2"/><rect class="c" x="754" y="34" rx="2" ry="2"/><rect class="c" x="754" y="50" rx="2" ry="2"/><rect class="c c1y" x="754" y="66" rx="2" ry="2"/><rect class="c c1z" x="754" y="82" rx="2" ry="2"/><rect class="c" x="754" y="98" rx="2" ry="2"/><rect class="c" x="770" y="2" rx="2" ry="2"/><rect class="c" x="770" y="18" rx="2" ry="2"/><rect class="c" x="770" y="34" rx="2" ry="2"/><rect class="c" x="770" y="50" rx="2" ry="2"/><rect class="c" x="770" y="66" rx="2" ry="2"/><rect class="c" x="770" y="82" rx="2" ry="2"/><rect class="c" x="770" y="98" rx="2" ry="2"/><rect class="c" x="786" y="2" rx="2" ry="2"/><rect class="c" x="786" y="18" rx="2" ry="2"/><rect class="c" x="786" y="34" rx="2" ry="2"/><rect class="c" x="786" y="50" rx="2" ry="2"/><rect class="c" x="786" y="66" rx="2" ry="2"/><rect class="c" x="786" y="82" rx="2" ry="2"/><rect class="c" x="786" y="98" rx="2" ry="2"/><rect class="c" x="802" y="2" rx="2" ry="2"/><rect class="c" x="802" y="18" rx="2" ry="2"/><rect class="c" x="802" y="34" rx="2" ry="2"/><rect class="c" x="802" y="50" rx="2" ry="2"/><rect class="c" x="802" y="66" rx="2" ry="2"/><rect class="c" x="802" y="82" rx="2" ry="2"/><rect class="c" x="802" y="98" rx="2" ry="2"/><rect class="c" x="818" y="2" rx="2" ry="2"/><rect class="c" x="818" y="18" rx="2" ry="2"/><rect class="c" x="818" y="34" rx="2" ry="2"/><rect class="c" x="818" y="50" rx="2" ry="2"/><rect class="c" x="818" y="66" rx="2" ry="2"/><rect class="c" x="818" y="82" rx="2" ry="2"/><rect class="c" x="818" y="98" rx="2" ry="2"/><rect class="c" x="834" y="2" rx="2" ry="2"/><rect class="c" x="834" y="18" rx="2" ry="2"/><rect class="u u0" height="12" width="530.6" x="0.0" y="144"/><rect class="u u1" height="12" width="189.0" x="530.0" y="144"/><rect class="u u2" height="12" width="83.0" x="718.4" y="144"/><rect class="u u3" height="12" width="47.7" x="800.9" y="144"/><rect class="s s0" x="0.8" y="0.8" width="14.4" height="14.4" rx="4.5" ry="4.5"/><rect class="s s1" x="1.8" y="1.8" width="12.3" height="12.3" rx="4.1" ry="4.1"/><rect class="s s2" x="2.6" y="2.6" width="10.8" height="10.8" rx="3.6" ry="3.6"/><rect class="s s3" x="3.0" y="3.0" width="9.9" height="9.9" rx="3.3" ry="3.3"/></svg>