<svg viewBox="-16 -32 880 192" width="880" height="192" xmlns="http://www.w3.org/2000/svg"><desc>Generated with https://github.com/Platane/snk</desc><style>:root{--cb:#1b1f230a;--cs:white;--ce:#0a0e12;--c0:#0a0e12;--c1:#1445a2;--c2:#1d65ee;--c3:#1f4eff;--c4:#466dff}.c{shape-rendering:geometricPrecision;fill:var(--ce);stroke-width:1px;stroke:var(--cb);animation:none 34100ms linear infinite;width:12px;height:12px}@keyframes c0{10.84%{fill:var(--c1)}10.86%,100%{fill:var(--ce)}}.c.c0{fill:var(--c1);animation-name:c0}@keyframes c1{2.92%{fill:var(--c1)}2.94%,100%{fill:var(--ce)}}.c.c1{fill:var(--c1);animation-name:c1}@keyframes c2{8.79%{fill:var(--c1)}8.81%,100%{fill:var(--ce)}}.c.c2{fill:var(--c1);animation-name:c2}@keyframes c3{7.61%{fill:var(--c1)}7.63%,100%{fill:var(--ce)}}.c.c3{fill:var(--c1);animation-name:c3}@keyframes c4{67.15%{fill:var(--c2)}67.17%,100%{fill:var(--ce)}}.c.c4{fill:var(--c2);animation-name:c4}@keyframes c5{3.51%{fill:var(--c1)}3.53%,100%{fill:var(--ce)}}.c.c5{fill:var(--c1);animation-name:c5}@keyframes c6{3.8%{fill:var(--c1)}3.82%,100%{fill:var(--ce)}}.c.c6{fill:var(--c1);animation-name:c6}@keyframes c7{4.68%{fill:var(--c1)}4.7%,100%{fill:var(--ce)}}.c.c7{fill:var(--c1);animation-name:c7}@keyframes c8{4.39%{fill:var(--c1)}4.41%,100%{fill:var(--ce)}}.c.c8{fill:var(--c1);animation-name:c8}@keyframes c9{65.39%{fill:var(--c2)}65.41%,100%{fill:var(--ce)}}.c.c9{fill:var(--c2);animation-name:c9}@keyframes ca{6.44%{fill:var(--c1)}6.46%,100%{fill:var(--ce)}}.c.ca{fill:var(--c1);animation-name:ca}@keyframes cb{14.36%{fill:var(--c1)}14.38%,100%{fill:var(--ce)}}.c.cb{fill:var(--c1);animation-name:cb}@keyframes cc{14.07%{fill:var(--c1)}14.09%,100%{fill:var(--ce)}}.c.cc{fill:var(--c1);animation-name:cc}@keyframes cd{16.71%{fill:var(--c1)}16.73%,100%{fill:var(--ce)}}.c.cd{fill:var(--c1);animation-name:cd}@keyframes ce{61.87%{fill:var(--c2)}61.89%,100%{fill:var(--ce)}}.c.ce{fill:var(--c2);animation-name:ce}@keyframes cf{17%{fill:var(--c1)}17.02%,100%{fill:var(--ce)}}.c.cf{fill:var(--c1);animation-name:cf}@keyframes cg{17.88%{fill:var(--c1)}17.9%,100%{fill:var(--ce)}}.c.cg{fill:var(--c1);animation-name:cg}@keyframes ch{18.47%{fill:var(--c1)}18.49%,100%{fill:var(--ce)}}.c.ch{fill:var(--c1);animation-name:ch}@keyframes ci{20.81%{fill:var(--c1)}20.83%,100%{fill:var(--ce)}}.c.ci{fill:var(--c1);animation-name:ci}@keyframes cj{18.76%{fill:var(--c1)}18.78%,100%{fill:var(--ce)}}.c.cj{fill:var(--c1);animation-name:cj}@keyframes ck{20.52%{fill:var(--c1)}20.54%,100%{fill:var(--ce)}}.c.ck{fill:var(--c1);animation-name:ck}@keyframes cl{20.22%{fill:var(--c1)}20.24%,100%{fill:var(--ce)}}.c.cl{fill:var(--c1);animation-name:cl}@keyframes cm{19.64%{fill:var(--c1)}19.66%,100%{fill:var(--ce)}}.c.cm{fill:var(--c1);animation-name:cm}@keyframes cn{24.62%{fill:var(--c1)}24.64%,100%{fill:var(--ce)}}.c.cn{fill:var(--c1);animation-name:cn}@keyframes co{25.21%{fill:var(--c1)}25.23%,100%{fill:var(--ce)}}.c.co{fill:var(--c1);animation-name:co}@keyframes cp{24.33%{fill:var(--c1)}24.35%,100%{fill:var(--ce)}}.c.cp{fill:var(--c1);animation-name:cp}@keyframes cq{22.86%{fill:var(--c1)}22.88%,100%{fill:var(--ce)}}.c.cq{fill:var(--c1);animation-name:cq}@keyframes cr{30.78%{fill:var(--c1)}30.8%,100%{fill:var(--ce)}}.c.cr{fill:var(--c1);animation-name:cr}@keyframes cs{58.64%{fill:var(--c2)}58.66%,100%{fill:var(--ce)}}.c.cs{fill:var(--c2);animation-name:cs}@keyframes ct{23.74%{fill:var(--c1)}23.76%,100%{fill:var(--ce)}}.c.ct{fill:var(--c1);animation-name:ct}@keyframes cu{28.44%{fill:var(--c1)}28.46%,100%{fill:var(--ce)}}.c.cu{fill:var(--c1);animation-name:cu}@keyframes cv{27.85%{fill:var(--c1)}27.87%,100%{fill:var(--ce)}}.c.cv{fill:var(--c1);animation-name:cv}@keyframes cw{34.89%{fill:var(--c1)}34.91%,100%{fill:var(--ce)}}.c.cw{fill:var(--c1);animation-name:cw}@keyframes cx{46.32%{fill:var(--c1)}46.34%,100%{fill:var(--ce)}}.c.cx{fill:var(--c1);animation-name:cx}@keyframes cy{46.62%{fill:var(--c1)}46.64%,100%{fill:var(--ce)}}.c.cy{fill:var(--c1);animation-name:cy}@keyframes cz{35.18%{fill:var(--c1)}35.2%,100%{fill:var(--ce)}}.c.cz{fill:var(--c1);animation-name:cz}@keyframes c10{48.96%{fill:var(--c2)}48.98%,100%{fill:var(--ce)}}.c.c10{fill:var(--c2);animation-name:c10}@keyframes c11{35.47%{fill:var(--c1)}35.49%,100%{fill:var(--ce)}}.c.c11{fill:var(--c1);animation-name:c11}@keyframes c12{48.38%{fill:var(--c2)}48.4%,100%{fill:var(--ce)}}.c.c12{fill:var(--c2);animation-name:c12}@keyframes c13{45.74%{fill:var(--c1)}45.76%,100%{fill:var(--ce)}}.c.c13{fill:var(--c1);animation-name:c13}@keyframes c14{39.58%{fill:var(--c1)}39.6%,100%{fill:var(--ce)}}.c.c14{fill:var(--c1);animation-name:c14}@keyframes c15{39.87%{fill:var(--c1)}39.89%,100%{fill:var(--ce)}}.c.c15{fill:var(--c1);animation-name:c15}@keyframes c16{47.79%{fill:var(--c2)}47.81%,100%{fill:var(--ce)}}.c.c16{fill:var(--c2);animation-name:c16}@keyframes c17{45.15%{fill:var(--c1)}45.17%,100%{fill:var(--ce)}}.c.c17{fill:var(--c1);animation-name:c17}@keyframes c18{36.06%{fill:var(--c1)}36.08%,100%{fill:var(--ce)}}.c.c18{fill:var(--c1);animation-name:c18}@keyframes c19{39.29%{fill:var(--c1)}39.31%,100%{fill:var(--ce)}}.c.c19{fill:var(--c1);animation-name:c19}@keyframes c1a{40.17%{fill:var(--c1)}40.19%,100%{fill:var(--ce)}}.c.c1a{fill:var(--c1);animation-name:c1a}@keyframes c1b{44.86%{fill:var(--c1)}44.88%,100%{fill:var(--ce)}}.c.c1b{fill:var(--c1);animation-name:c1b}@keyframes c1c{38.41%{fill:var(--c1)}38.43%,100%{fill:var(--ce)}}.c.c1c{fill:var(--c1);animation-name:c1c}@keyframes c1d{36.35%{fill:var(--c1)}36.37%,100%{fill:var(--ce)}}.c.c1d{fill:var(--c1);animation-name:c1d}@keyframes c1e{80.05%{fill:var(--c3)}80.07%,100%{fill:var(--ce)}}.c.c1e{fill:var(--c3);animation-name:c1e}@keyframes c1f{50.43%{fill:var(--c2)}50.45%,100%{fill:var(--ce)}}.c.c1f{fill:var(--c2);animation-name:c1f}@keyframes c1g{40.75%{fill:var(--c1)}40.77%,100%{fill:var(--ce)}}.c.c1g{fill:var(--c1);animation-name:c1g}@keyframes c1h{79.17%{fill:var(--c3)}79.19%,100%{fill:var(--ce)}}.c.c1h{fill:var(--c3);animation-name:c1h}@keyframes c1i{51.9%{fill:var(--c2)}51.92%,100%{fill:var(--ce)}}.c.c1i{fill:var(--c2);animation-name:c1i}@keyframes c1j{80.93%{fill:var(--c4)}80.95%,100%{fill:var(--ce)}}.c.c1j{fill:var(--c4);animation-name:c1j}@keyframes c1k{36.65%{fill:var(--c1)}36.67%,100%{fill:var(--ce)}}.c.c1k{fill:var(--c1);animation-name:c1k}@keyframes c1l{41.63%{fill:var(--c1)}41.65%,100%{fill:var(--ce)}}.c.c1l{fill:var(--c1);animation-name:c1l}@keyframes c1m{41.34%{fill:var(--c1)}41.36%,100%{fill:var(--ce)}}.c.c1m{fill:var(--c1);animation-name:c1m}@keyframes c1n{41.05%{fill:var(--c1)}41.07%,100%{fill:var(--ce)}}.c.c1n{fill:var(--c1);animation-name:c1n}@keyframes c1o{82.98%{fill:var(--c4)}83%,100%{fill:var(--ce)}}.c.c1o{fill:var(--c4);animation-name:c1o}@keyframes c1p{43.39%{fill:var(--c1)}43.41%,100%{fill:var(--ce)}}.c.c1p{fill:var(--c1);animation-name:c1p}@keyframes c1q{37.23%{fill:var(--c1)}37.25%,100%{fill:var(--ce)}}.c.c1q{fill:var(--c1);animation-name:c1q}@keyframes c1r{36.94%{fill:var(--c1)}36.96%,100%{fill:var(--ce)}}.c.c1r{fill:var(--c1);animation-name:c1r}.u{transform-origin:0 0;transform:scale(0,1);animation:none linear 34100ms infinite}@keyframes u0{2.92%{transform:scale(0.000,1)}2.94%,3.51%{transform:scale(0.020,1)}3.53%,3.8%{transform:scale(0.039,1)}3.82%,4.39%{transform:scale(0.059,1)}4.41%,4.68%{transform:scale(0.078,1)}4.7%,6.44%{transform:scale(0.098,1)}6.46%,7.61%{transform:scale(0.118,1)}7.63%,8.79%{transform:scale(0.137,1)}8.81%,10.84%{transform:scale(0.157,1)}10.86%,14.07%{transform:scale(0.176,1)}14.09%,14.36%{transform:scale(0.196,1)}14.38%,16.71%{transform:scale(0.216,1)}16.73%,17%{transform:scale(0.235,1)}17.02%,17.88%{transform:scale(0.255,1)}17.9%,18.47%{transform:scale(0.275,1)}18.49%,18.76%{transform:scale(0.294,1)}18.78%,19.64%{transform:scale(0.314,1)}19.66%,20.22%{transform:scale(0.333,1)}20.24%,20.52%{transform:scale(0.353,1)}20.54%,20.81%{transform:scale(0.373,1)}20.83%,22.86%{transform:scale(0.392,1)}22.88%,23.74%{transform:scale(0.412,1)}23.76%,24.33%{transform:scale(0.431,1)}24.35%,24.62%{transform:scale(0.451,1)}24.64%,25.21%{transform:scale(0.471,1)}25.23%,27.85%{transform:scale(0.490,1)}27.87%,28.44%{transform:scale(0.510,1)}28.46%,30.78%{transform:scale(0.529,1)}30.8%,34.89%{transform:scale(0.549,1)}34.91%,35.18%{transform:scale(0.569,1)}35.2%,35.47%{transform:scale(0.588,1)}35.49%,36.06%{transform:scale(0.608,1)}36.08%,36.35%{transform:scale(0.627,1)}36.37%,36.65%{transform:scale(0.647,1)}36.67%,36.94%{transform:scale(0.667,1)}36.96%,37.23%{transform:scale(0.686,1)}37.25%,38.41%{transform:scale(0.706,1)}38.43%,39.29%{transform:scale(0.725,1)}39.31%,39.58%{transform:scale(0.745,1)}39.6%,39.87%{transform:scale(0.765,1)}39.89%,40.17%{transform:scale(0.784,1)}40.19%,40.75%{transform:scale(0.804,1)}40.77%,41.05%{transform:scale(0.824,1)}41.07%,41.34%{transform:scale(0.843,1)}41.36%,41.63%{transform:scale(0.863,1)}41.65%,43.39%{transform:scale(0.882,1)}43.41%,44.86%{transform:scale(0.902,1)}44.88%,45.15%{transform:scale(0.922,1)}45.17%,45.74%{transform:scale(0.941,1)}45.76%,46.32%{transform:scale(0.961,1)}46.34%,46.62%{transform:scale(0.980,1)}46.64%,100%{transform:scale(1.000,1)}}.u.u0{fill:var(--c1);animation-name:u0;transform-origin:0.0px 0}@keyframes u1{47.79%{transform:scale(0.000,1)}47.81%,48.38%{transform:scale(0.111,1)}48.4%,48.96%{transform:scale(0.222,1)}48.98%,50.43%{transform:scale(0.333,1)}50.45%,51.9%{transform:scale(0.444,1)}51.92%,58.64%{transform:scale(0.556,1)}58.66%,61.87%{transform:scale(0.667,1)}61.89%,65.39%{transform:scale(0.778,1)}65.41%,67.15%{transform:scale(0.889,1)}67.17%,100%{transform:scale(1.000,1)}}.u.u1{fill:var(--c2);animation-name:u1;transform-origin:675.8px 0}@keyframes u2{79.17%{transform:scale(0.000,1)}79.19%,80.05%{transform:scale(0.500,1)}80.07%,100%{transform:scale(1.000,1)}}.u.u2{fill:var(--c3);animation-name:u2;transform-origin:795.0px 0}@keyframes u3{80.93%{transform:scale(0.000,1)}80.95%,82.98%{transform:scale(0.500,1)}83%,100%{transform:scale(1.000,1)}}.u.u3{fill:var(--c4);animation-name:u3;transform-origin:821.5px 0}.s{shape-rendering:geometricPrecision;fill:var(--cs);animation:none linear 34100ms infinite}@keyframes s0{0%,99.71%{transform:translate(0px,-16px)}0.29%{transform:translate(0px,0px)}3.52%{transform:translate(176px,0px)}3.81%{transform:translate(176px,16px)}4.4%{transform:translate(208px,16px)}4.69%{transform:translate(208px,0px)}4.99%{transform:translate(224px,0px)}6.16%{transform:translate(224px,64px)}7.33%{transform:translate(160px,64px)}7.62%{transform:translate(160px,80px)}7.92%,12.02%{transform:translate(144px,80px)}8.8%{transform:translate(144px,32px)}9.68%{transform:translate(96px,32px)}10.85%{transform:translate(96px,96px)}11.73%{transform:translate(144px,96px)}14.08%{transform:translate(256px,80px)}14.37%{transform:translate(256px,64px)}16.42%{transform:translate(368px,64px)}16.72%{transform:translate(368px,48px)}17.3%{transform:translate(400px,48px)}17.89%{transform:translate(400px,80px)}19.06%{transform:translate(464px,80px)}20.53%{transform:translate(464px,0px)}20.82%{transform:translate(448px,0px)}21.11%{transform:translate(448px,16px)}22.58%{transform:translate(528px,16px)}22.87%{transform:translate(528px,32px)}23.17%{transform:translate(544px,32px)}23.75%{transform:translate(544px,64px)}24.63%{transform:translate(496px,64px)}25.22%{transform:translate(496px,96px)}27.57%{transform:translate(624px,96px)}28.15%{transform:translate(624px,64px)}28.45%{transform:translate(608px,64px)}29.62%{transform:translate(608px,0px)}30.79%{transform:translate(544px,0px)}31.09%{transform:translate(544px,-16px)}34.31%{transform:translate(720px,-16px)}34.9%{transform:translate(720px,16px)}36.95%,81.52%{transform:translate(832px,16px)}37.54%{transform:translate(832px,-16px)}38.12%{transform:translate(800px,-16px)}38.42%{transform:translate(800px,0px)}38.71%{transform:translate(784px,0px)}39.3%{transform:translate(784px,32px)}39.59%{transform:translate(768px,32px)}39.88%,48.09%{transform:translate(768px,48px)}40.18%{transform:translate(784px,48px)}40.47%,51.03%{transform:translate(784px,64px)}41.06%{transform:translate(816px,64px)}41.64%,80.35%{transform:translate(816px,32px)}41.94%{transform:translate(832px,32px)}43.11%{transform:translate(832px,96px)}43.4%{transform:translate(816px,96px)}43.7%{transform:translate(816px,112px)}44.28%,52.49%{transform:translate(784px,112px)}44.87%{transform:translate(784px,80px)}45.45%{transform:translate(752px,80px)}45.75%{transform:translate(752px,64px)}46.33%{transform:translate(720px,64px)}46.63%{transform:translate(720px,80px)}47.51%{transform:translate(768px,80px)}48.39%{transform:translate(752px,48px)}48.68%{transform:translate(752px,32px)}48.97%{transform:translate(736px,32px)}49.27%{transform:translate(736px,48px)}50.44%{transform:translate(800px,48px)}50.73%{transform:translate(800px,64px)}51.61%{transform:translate(784px,96px)}51.91%,78.89%{transform:translate(800px,96px)}52.2%{transform:translate(800px,112px)}54.25%{transform:translate(784px,16px)}61.58%{transform:translate(384px,16px)}61.88%{transform:translate(384px,32px)}65.1%{transform:translate(208px,32px)}65.4%{transform:translate(208px,48px)}66.28%{transform:translate(160px,48px)}67.16%{transform:translate(160px,96px)}80.06%{transform:translate(800px,32px)}80.94%{transform:translate(816px,0px)}81.23%{transform:translate(832px,0px)}81.82%{transform:translate(816px,16px)}82.99%{transform:translate(816px,80px)}96.48%{transform:translate(80px,80px)}97.07%{transform:translate(80px,48px)}97.65%{transform:translate(48px,48px)}98.83%{transform:translate(48px,-16px)}}.s.s0{transform:translate(0px,-16px);animation-name:s0}@keyframes s1{0%,99.71%{transform:translate(16px,-16px)}0.29%{transform:translate(0px,-16px)}0.59%{transform:translate(0px,0px)}3.81%{transform:translate(176px,0px)}4.11%{transform:translate(176px,16px)}4.69%{transform:translate(208px,16px)}4.99%{transform:translate(208px,0px)}5.28%{transform:translate(224px,0px)}6.45%{transform:translate(224px,64px)}7.62%{transform:translate(160px,64px)}7.92%{transform:translate(160px,80px)}8.21%,12.32%{transform:translate(144px,80px)}9.09%{transform:translate(144px,32px)}9.97%{transform:translate(96px,32px)}11.14%{transform:translate(96px,96px)}12.02%{transform:translate(144px,96px)}14.37%{transform:translate(256px,80px)}14.66%{transform:translate(256px,64px)}16.72%{transform:translate(368px,64px)}17.01%{transform:translate(368px,48px)}17.6%{transform:translate(400px,48px)}18.18%{transform:translate(400px,80px)}19.35%{transform:translate(464px,80px)}20.82%{transform:translate(464px,0px)}21.11%{transform:translate(448px,0px)}21.41%{transform:translate(448px,16px)}22.87%{transform:translate(528px,16px)}23.17%{transform:translate(528px,32px)}23.46%{transform:translate(544px,32px)}24.05%{transform:translate(544px,64px)}24.93%{transform:translate(496px,64px)}25.51%{transform:translate(496px,96px)}27.86%{transform:translate(624px,96px)}28.45%{transform:translate(624px,64px)}28.74%{transform:translate(608px,64px)}29.91%{transform:translate(608px,0px)}31.09%{transform:translate(544px,0px)}31.38%{transform:translate(544px,-16px)}34.6%{transform:translate(720px,-16px)}35.19%{transform:translate(720px,16px)}37.24%,81.82%{transform:translate(832px,16px)}37.83%{transform:translate(832px,-16px)}38.42%{transform:translate(800px,-16px)}38.71%{transform:translate(800px,0px)}39%{transform:translate(784px,0px)}39.59%{transform:translate(784px,32px)}39.88%{transform:translate(768px,32px)}40.18%,48.39%{transform:translate(768px,48px)}40.47%{transform:translate(784px,48px)}40.76%,51.32%{transform:translate(784px,64px)}41.35%{transform:translate(816px,64px)}41.94%,80.65%{transform:translate(816px,32px)}42.23%{transform:translate(832px,32px)}43.4%{transform:translate(832px,96px)}43.7%{transform:translate(816px,96px)}43.99%{transform:translate(816px,112px)}44.57%,52.79%{transform:translate(784px,112px)}45.16%{transform:translate(784px,80px)}45.75%{transform:translate(752px,80px)}46.04%{transform:translate(752px,64px)}46.63%{transform:translate(720px,64px)}46.92%{transform:translate(720px,80px)}47.8%{transform:translate(768px,80px)}48.68%{transform:translate(752px,48px)}48.97%{transform:translate(752px,32px)}49.27%{transform:translate(736px,32px)}49.56%{transform:translate(736px,48px)}50.73%{transform:translate(800px,48px)}51.03%{transform:translate(800px,64px)}51.91%{transform:translate(784px,96px)}52.2%,79.18%{transform:translate(800px,96px)}52.49%{transform:translate(800px,112px)}54.55%{transform:translate(784px,16px)}61.88%{transform:translate(384px,16px)}62.17%{transform:translate(384px,32px)}65.4%{transform:translate(208px,32px)}65.69%{transform:translate(208px,48px)}66.57%{transform:translate(160px,48px)}67.45%{transform:translate(160px,96px)}80.35%{transform:translate(800px,32px)}81.23%{transform:translate(816px,0px)}81.52%{transform:translate(832px,0px)}82.11%{transform:translate(816px,16px)}83.28%{transform:translate(816px,80px)}96.77%{transform:translate(80px,80px)}97.36%{transform:translate(80px,48px)}97.95%{transform:translate(48px,48px)}99.12%{transform:translate(48px,-16px)}}.s.s1{transform:translate(16px,-16px);animation-name:s1}@keyframes s2{0%,99.71%{transform:translate(32px,-16px)}0.59%{transform:translate(0px,-16px)}0.88%{transform:translate(0px,0px)}4.11%{transform:translate(176px,0px)}4.4%{transform:translate(176px,16px)}4.99%{transform:translate(208px,16px)}5.28%{transform:translate(208px,0px)}5.57%{transform:translate(224px,0px)}6.74%{transform:translate(224px,64px)}7.92%{transform:translate(160px,64px)}8.21%{transform:translate(160px,80px)}8.5%,12.61%{transform:translate(144px,80px)}9.38%{transform:translate(144px,32px)}10.26%{transform:translate(96px,32px)}11.44%{transform:translate(96px,96px)}12.32%{transform:translate(144px,96px)}14.66%{transform:translate(256px,80px)}14.96%{transform:translate(256px,64px)}17.01%{transform:translate(368px,64px)}17.3%{transform:translate(368px,48px)}17.89%{transform:translate(400px,48px)}18.48%{transform:translate(400px,80px)}19.65%{transform:translate(464px,80px)}21.11%{transform:translate(464px,0px)}21.41%{transform:translate(448px,0px)}21.7%{transform:translate(448px,16px)}23.17%{transform:translate(528px,16px)}23.46%{transform:translate(528px,32px)}23.75%{transform:translate(544px,32px)}24.34%{transform:translate(544px,64px)}25.22%{transform:translate(496px,64px)}25.81%{transform:translate(496px,96px)}28.15%{transform:translate(624px,96px)}28.74%{transform:translate(624px,64px)}29.03%{transform:translate(608px,64px)}30.21%{transform:translate(608px,0px)}31.38%{transform:translate(544px,0px)}31.67%{transform:translate(544px,-16px)}34.9%{transform:translate(720px,-16px)}35.48%{transform:translate(720px,16px)}37.54%,82.11%{transform:translate(832px,16px)}38.12%{transform:translate(832px,-16px)}38.71%{transform:translate(800px,-16px)}39%{transform:translate(800px,0px)}39.3%{transform:translate(784px,0px)}39.88%{transform:translate(784px,32px)}40.18%{transform:translate(768px,32px)}40.47%,48.68%{transform:translate(768px,48px)}40.76%{transform:translate(784px,48px)}41.06%,51.61%{transform:translate(784px,64px)}41.64%{transform:translate(816px,64px)}42.23%,80.94%{transform:translate(816px,32px)}42.52%{transform:translate(832px,32px)}43.7%{transform:translate(832px,96px)}43.99%{transform:translate(816px,96px)}44.28%{transform:translate(816px,112px)}44.87%,53.08%{transform:translate(784px,112px)}45.45%{transform:translate(784px,80px)}46.04%{transform:translate(752px,80px)}46.33%{transform:translate(752px,64px)}46.92%{transform:translate(720px,64px)}47.21%{transform:translate(720px,80px)}48.09%{transform:translate(768px,80px)}48.97%{transform:translate(752px,48px)}49.27%{transform:translate(752px,32px)}49.56%{transform:translate(736px,32px)}49.85%{transform:translate(736px,48px)}51.03%{transform:translate(800px,48px)}51.32%{transform:translate(800px,64px)}52.2%{transform:translate(784px,96px)}52.49%,79.47%{transform:translate(800px,96px)}52.79%{transform:translate(800px,112px)}54.84%{transform:translate(784px,16px)}62.17%{transform:translate(384px,16px)}62.46%{transform:translate(384px,32px)}65.69%{transform:translate(208px,32px)}65.98%{transform:translate(208px,48px)}66.86%{transform:translate(160px,48px)}67.74%{transform:translate(160px,96px)}80.65%{transform:translate(800px,32px)}81.52%{transform:translate(816px,0px)}81.82%{transform:translate(832px,0px)}82.4%{transform:translate(816px,16px)}83.58%{transform:translate(816px,80px)}97.07%{transform:translate(80px,80px)}97.65%{transform:translate(80px,48px)}98.24%{transform:translate(48px,48px)}99.41%{transform:translate(48px,-16px)}}.s.s2{transform:translate(32px,-16px);animation-name:s2}@keyframes s3{0%,99.71%{transform:translate(48px,-16px)}0.88%{transform:translate(0px,-16px)}1.17%{transform:translate(0px,0px)}4.4%{transform:translate(176px,0px)}4.69%{transform:translate(176px,16px)}5.28%{transform:translate(208px,16px)}5.57%{transform:translate(208px,0px)}5.87%{transform:translate(224px,0px)}7.04%{transform:translate(224px,64px)}8.21%{transform:translate(160px,64px)}8.5%{transform:translate(160px,80px)}8.8%,12.9%{transform:translate(144px,80px)}9.68%{transform:translate(144px,32px)}10.56%{transform:translate(96px,32px)}11.73%{transform:translate(96px,96px)}12.61%{transform:translate(144px,96px)}14.96%{transform:translate(256px,80px)}15.25%{transform:translate(256px,64px)}17.3%{transform:translate(368px,64px)}17.6%{transform:translate(368px,48px)}18.18%{transform:translate(400px,48px)}18.77%{transform:translate(400px,80px)}19.94%{transform:translate(464px,80px)}21.41%{transform:translate(464px,0px)}21.7%{transform:translate(448px,0px)}21.99%{transform:translate(448px,16px)}23.46%{transform:translate(528px,16px)}23.75%{transform:translate(528px,32px)}24.05%{transform:translate(544px,32px)}24.63%{transform:translate(544px,64px)}25.51%{transform:translate(496px,64px)}26.1%{transform:translate(496px,96px)}28.45%{transform:translate(624px,96px)}29.03%{transform:translate(624px,64px)}29.33%{transform:translate(608px,64px)}30.5%{transform:translate(608px,0px)}31.67%{transform:translate(544px,0px)}31.96%{transform:translate(544px,-16px)}35.19%{transform:translate(720px,-16px)}35.78%{transform:translate(720px,16px)}37.83%,82.4%{transform:translate(832px,16px)}38.42%{transform:translate(832px,-16px)}39%{transform:translate(800px,-16px)}39.3%{transform:translate(800px,0px)}39.59%{transform:translate(784px,0px)}40.18%{transform:translate(784px,32px)}40.47%{transform:translate(768px,32px)}40.76%,48.97%{transform:translate(768px,48px)}41.06%{transform:translate(784px,48px)}41.35%,51.91%{transform:translate(784px,64px)}41.94%{transform:translate(816px,64px)}42.52%,81.23%{transform:translate(816px,32px)}42.82%{transform:translate(832px,32px)}43.99%{transform:translate(832px,96px)}44.28%{transform:translate(816px,96px)}44.57%{transform:translate(816px,112px)}45.16%,53.37%{transform:translate(784px,112px)}45.75%{transform:translate(784px,80px)}46.33%{transform:translate(752px,80px)}46.63%{transform:translate(752px,64px)}47.21%{transform:translate(720px,64px)}47.51%{transform:translate(720px,80px)}48.39%{transform:translate(768px,80px)}49.27%{transform:translate(752px,48px)}49.56%{transform:translate(752px,32px)}49.85%{transform:translate(736px,32px)}50.15%{transform:translate(736px,48px)}51.32%{transform:translate(800px,48px)}51.61%{transform:translate(800px,64px)}52.49%{transform:translate(784px,96px)}52.79%,79.77%{transform:translate(800px,96px)}53.08%{transform:translate(800px,112px)}55.13%{transform:translate(784px,16px)}62.46%{transform:translate(384px,16px)}62.76%{transform:translate(384px,32px)}65.98%{transform:translate(208px,32px)}66.28%{transform:translate(208px,48px)}67.16%{transform:translate(160px,48px)}68.04%{transform:translate(160px,96px)}80.94%{transform:translate(800px,32px)}81.82%{transform:translate(816px,0px)}82.11%{transform:translate(832px,0px)}82.7%{transform:translate(816px,16px)}83.87%{transform:translate(816px,80px)}97.36%{transform:translate(80px,80px)}97.95%{transform:translate(80px,48px)}98.53%{transform:translate(48px,48px)}}.s.s3{transform:translate(48px,-16px);animation-name:s3}</style><rect class="c" x="2" y="2" rx="2" ry="2"/><rect class="c" x="2" y="18" rx="2" ry="2"/><rect class="c" x="2" y="34" rx="2" ry="2"/><rect class="c" x="2" y="50" rx="2" ry="2"/><rect class="c" x="2" y="66" rx="2" ry="2"/><rect class="c" x="2" y="82" rx="2" ry="2"/><rect class="c" x="2" y="98" rx="2" ry="2"/><rect class="c" x="18" y="2" rx="2" ry="2"/><rect class="c" x="18" y="18" rx="2" ry="2"/><rect class="c" x="18" y="34" rx="2" ry="2"/><rect class="c" x="18" y="50" rx="2" ry="2"/><rect class="c" x="18" y="66" rx="2" ry="2"/><rect class="c" x="18" y="82" rx="2" ry="2"/><rect class="c" x="18" y="98" rx="2" ry="2"/><rect class="c" x="34" y="2" rx="2" ry="2"/><rect class="c" x="34" y="18" rx="2" ry="2"/><rect class="c" x="34" y="34" rx="2" ry="2"/><rect class="c" x="34" y="50" rx="2" ry="2"/><rect class="c" x="34" y="66" rx="2" ry="2"/><rect class="c" x="34" y="82" rx="2" ry="2"/><rect class="c" x="34" y="98" rx="2" ry="2"/><rect class="c" x="50" y="2" rx="2" ry="2"/><rect class="c" x="50" y="18" rx="2" ry="2"/><rect class="c" x="50" y="34" rx="2" ry="2"/><rect class="c" x="50" y="50" rx="2" ry="2"/><rect class="c" x="50" y="66" rx="2" ry="2"/><rect class="c" x="50" y="82" rx="2" ry="2"/><rect class="c" x="50" y="98" rx="2" ry="2"/><rect class="c" x="66" y="2" rx="2" ry="2"/><rect class="c" x="66" y="18" rx="2" ry="2"/><rect class="c" x="66" y="34" rx="2" ry="2"/><rect class="c" x="66" y="50" rx="2" ry="2"/><rect class="c" x="66" y="66" rx="2" ry="2"/><rect class="c" x="66" y="82" rx="2" ry="2"/><rect class="c" x="66" y="98" rx="2" ry="2"/><rect class="c" x="82" y="2" rx="2" ry="2"/><rect class="c" x="82" y="18" rx="2" ry="2"/><rect class="c" x="82" y="34" rx="2" ry="2"/><rect class="c" x="82" y="50" rx="2" ry="2"/><rect class="c" x="82" y="66" rx="2" ry="2"/><rect class="c" x="82" y="82" rx="2" ry="2"/><rect class="c" x="82" y="98" rx="2" ry="2"/><rect class="c" x="98" y="2" rx="2" ry="2"/><rect class="c" x="98" y="18" rx="2" ry="2"/><rect class="c" x="98" y="34" rx="2" ry="2"/><rect class="c" x="98" y="50" rx="2" ry="2"/><rect class="c" x="98" y="66" rx="2" ry="2"/><rect class="c" x="98" y="82" rx="2" ry="2"/><rect class="c c0" x="98" y="98" rx="2" ry="2"/><rect class="c" x="114" y="2" rx="2" ry="2"/><rect class="c" x="114" y="18" rx="2" ry="2"/><rect class="c" x="114" y="34" rx="2" ry="2"/><rect class="c" x="114" y="50" rx="2" ry="2"/><rect class="c" x="114" y="66" rx="2" ry="2"/><rect class="c" x="114" y="82" rx="2" ry="2"/><rect class="c" x="114" y="98" rx="2" ry="2"/><rect class="c" x="130" y="2" rx="2" ry="2"/><rect class="c" x="130" y="18" rx="2" ry="2"/><rect class="c" x="130" y="34" rx="2" ry="2"/><rect class="c" x="130" y="50" rx="2" ry="2"/><rect class="c" x="130" y="66" rx="2" ry="2"/><rect class="c" x="130" y="82" rx="2" ry="2"/><rect class="c" x="130" y="98" rx="2" ry="2"/><rect class="c c1" x="146" y="2" rx="2" ry="2"/><rect class="c" x="146" y="18" rx="2" ry="2"/><rect class="c c2" x="146" y="34" rx="2" ry="2"/><rect class="c" x="146" y="50" rx="2" ry="2"/><rect class="c" x="146" y="66" rx="2" ry="2"/><rect class="c" x="146" y="82" rx="2" ry="2"/><rect class="c" x="146" y="98" rx="2" ry="2"/><rect class="c" x="162" y="2" rx="2" ry="2"/><rect class="c" x="162" y="18" rx="2" ry="2"/><rect class="c" x="162" y="34" rx="2" ry="2"/><rect class="c" x="162" y="50" rx="2" ry="2"/><rect class="c" x="162" y="66" rx="2" ry="2"/><rect class="c c3" x="162" y="82" rx="2" ry="2"/><rect class="c c4" x="162" y="98" rx="2" ry="2"/><rect class="c c5" x="178" y="2" rx="2" ry="2"/><rect class="c c6" x="178" y="18" rx="2" ry="2"/><rect class="c" x="178" y="34" rx="2" ry="2"/><rect class="c" x="178" y="50" rx="2" ry="2"/><rect class="c" x="178" y="66" rx="2" ry="2"/><rect class="c" x="178" y="82" rx="2" ry="2"/><rect class="c" x="178" y="98" rx="2" ry="2"/><rect class="c" x="194" y="2" rx="2" ry="2"/><rect class="c" x="194" y="18" rx="2" ry="2"/><rect class="c" x="194" y="34" rx="2" ry="2"/><rect class="c" x="194" y="50" rx="2" ry="2"/><rect class="c" x="194" y="66" rx="2" ry="2"/><rect class="c" x="194" y="82" rx="2" ry="2"/><rect class="c" x="194" y="98" rx="2" ry="2"/><rect class="c c7" x="210" y="2" rx="2" ry="2"/><rect class="c c8" x="210" y="18" rx="2" ry="2"/><rect class="c" x="210" y="34" rx="2" ry="2"/><rect class="c c9" x="210" y="50" rx="2" ry="2"/><rect class="c ca" x="210" y="66" rx="2" ry="2"/><rect class="c" x="210" y="82" rx="2" ry="2"/><rect class="c" x="210" y="98" rx="2" ry="2"/><rect class="c" x="226" y="2" rx="2" ry="2"/><rect class="c" x="226" y="18" rx="2" ry="2"/><rect class="c" x="226" y="34" rx="2" ry="2"/><rect class="c" x="226" y="50" rx="2" ry="2"/><rect class="c" x="226" y="66" rx="2" ry="2"/><rect class="c" x="226" y="82" rx="2" ry="2"/><rect class="c" x="226" y="98" rx="2" ry="2"/><rect class="c" x="242" y="2" rx="2" ry="2"/><rect class="c" x="242" y="18" rx="2" ry="2"/><rect class="c" x="242" y="34" rx="2" ry="2"/><rect class="c" x="242" y="50" rx="2" ry="2"/><rect class="c" x="242" y="66" rx="2" ry="2"/><rect class="c" x="242" y="82" rx="2" ry="2"/><rect class="c" x="242" y="98" rx="2" ry="2"/><rect class="c" x="258" y="2" rx="2" ry="2"/><rect class="c" x="258" y="18" rx="2" ry="2"/><rect class="c" x="258" y="34" rx="2" ry="2"/><rect class="c" x="258" y="50" rx="2" ry="2"/><rect class="c cb" x="258" y="66" rx="2" ry="2"/><rect class="c cc" x="258" y="82" rx="2" ry="2"/><rect class="c" x="258" y="98" rx="2" ry="2"/><rect class="c" x="274" y="2" rx="2" ry="2"/><rect class="c" x="274" y="18" rx="2" ry="2"/><rect class="c" x="274" y="34" rx="2" ry="2"/><rect class="c" x="274" y="50" rx="2" ry="2"/><rect class="c" x="274" y="66" rx="2" ry="2"/><rect class="c" x="274" y="82" rx="2" ry="2"/><rect class="c" x="274" y="98" rx="2" ry="2"/><rect class="c" x="290" y="2" rx="2" ry="2"/><rect class="c" x="290" y="18" rx="2" ry="2"/><rect class="c" x="290" y="34" rx="2" ry="2"/><rect class="c" x="290" y="50" rx="2" ry="2"/><rect class="c" x="290" y="66" rx="2" ry="2"/><rect class="c" x="290" y="82" rx="2" ry="2"/><rect class="c" x="290" y="98" rx="2" ry="2"/><rect class="c" x="306" y="2" rx="2" ry="2"/><rect class="c" x="306" y="18" rx="2" ry="2"/><rect class="c" x="306" y="34" rx="2" ry="2"/><rect class="c" x="306" y="50" rx="2" ry="2"/><rect class="c" x="306" y="66" rx="2" ry="2"/><rect class="c" x="306" y="82" rx="2" ry="2"/><rect class="c" x="306" y="98" rx="2" ry="2"/><rect class="c" x="322" y="2" rx="2" ry="2"/><rect class="c" x="322" y="18" rx="2" ry="2"/><rect class="c" x="322" y="34" rx="2" ry="2"/><rect class="c" x="322" y="50" rx="2" ry="2"/><rect class="c" x="322" y="66" rx="2" ry="2"/><rect class="c" x="322" y="82" rx="2" ry="2"/><rect class="c" x="322" y="98" rx="2" ry="2"/><rect class="c" x="338" y="2" rx="2" ry="2"/><rect class="c" x="338" y="18" rx="2" ry="2"/><rect class="c" x="338" y="34" rx="2" ry="2"/><rect class="c" x="338" y="50" rx="2" ry="2"/><rect class="c" x="338" y="66" rx="2" ry="2"/><rect class="c" x="338" y="82" rx="2" ry="2"/><rect class="c" x="338" y="98" rx="2" ry="2"/><rect class="c" x="354" y="2" rx="2" ry="2"/><rect class="c" x="354" y="18" rx="2" ry="2"/><rect class="c" x="354" y="34" rx="2" ry="2"/><rect class="c" x="354" y="50" rx="2" ry="2"/><rect class="c" x="354" y="66" rx="2" ry="2"/><rect class="c" x="354" y="82" rx="2" ry="2"/><rect class="c" x="354" y="98" rx="2" ry="2"/><rect class="c" x="370" y="2" rx="2" ry="2"/><rect class="c" x="370" y="18" rx="2" ry="2"/><rect class="c" x="370" y="34" rx="2" ry="2"/><rect class="c cd" x="370" y="50" rx="2" ry="2"/><rect class="c" x="370" y="66" rx="2" ry="2"/><rect class="c" x="370" y="82" rx="2" ry="2"/><rect class="c" x="370" y="98" rx="2" ry="2"/><rect class="c" x="386" y="2" rx="2" ry="2"/><rect class="c" x="386" y="18" rx="2" ry="2"/><rect class="c ce" x="386" y="34" rx="2" ry="2"/><rect class="c cf" x="386" y="50" rx="2" ry="2"/><rect class="c" x="386" y="66" rx="2" ry="2"/><rect class="c" x="386" y="82" rx="2" ry="2"/><rect class="c" x="386" y="98" rx="2" ry="2"/><rect class="c" x="402" y="2" rx="2" ry="2"/><rect class="c" x="402" y="18" rx="2" ry="2"/><rect class="c" x="402" y="34" rx="2" ry="2"/><rect class="c" x="402" y="50" rx="2" ry="2"/><rect class="c" x="402" y="66" rx="2" ry="2"/><rect class="c cg" x="402" y="82" rx="2" ry="2"/><rect class="c" x="402" y="98" rx="2" ry="2"/><rect class="c" x="418" y="2" rx="2" ry="2"/><rect class="c" x="418" y="18" rx="2" ry="2"/><rect class="c" x="418" y="34" rx="2" ry="2"/><rect class="c" x="418" y="50" rx="2" ry="2"/><rect class="c" x="418" y="66" rx="2" ry="2"/><rect class="c" x="418" y="82" rx="2" ry="2"/><rect class="c" x="418" y="98" rx="2" ry="2"/><rect class="c" x="434" y="2" rx="2" ry="2"/><rect class="c" x="434" y="18" rx="2" ry="2"/><rect class="c" x="434" y="34" rx="2" ry="2"/><rect class="c" x="434" y="50" rx="2" ry="2"/><rect class="c" x="434" y="66" rx="2" ry="2"/><rect class="c ch" x="434" y="82" rx="2" ry="2"/><rect class="c" x="434" y="98" rx="2" ry="2"/><rect class="c ci" x="450" y="2" rx="2" ry="2"/><rect class="c" x="450" y="18" rx="2" ry="2"/><rect class="c" x="450" y="34" rx="2" ry="2"/><rect class="c" x="450" y="50" rx="2" ry="2"/><rect class="c" x="450" y="66" rx="2" ry="2"/><rect class="c cj" x="450" y="82" rx="2" ry="2"/><rect class="c" x="450" y="98" rx="2" ry="2"/><rect class="c ck" x="466" y="2" rx="2" ry="2"/><rect class="c cl" x="466" y="18" rx="2" ry="2"/><rect class="c" x="466" y="34" rx="2" ry="2"/><rect class="c cm" x="466" y="50" rx="2" ry="2"/><rect class="c" x="466" y="66" rx="2" ry="2"/><rect class="c" x="466" y="82" rx="2" ry="2"/><rect class="c" x="466" y="98" rx="2" ry="2"/><rect class="c" x="482" y="2" rx="2" ry="2"/><rect class="c" x="482" y="18" rx="2" ry="2"/><rect class="c" x="482" y="34" rx="2" ry="2"/><rect class="c" x="482" y="50" rx="2" ry="2"/><rect class="c" x="482" y="66" rx="2" ry="2"/><rect class="c" x="482" y="82" rx="2" ry="2"/><rect class="c" x="482" y="98" rx="2" ry="2"/><rect class="c" x="498" y="2" rx="2" ry="2"/><rect class="c" x="498" y="18" rx="2" ry="2"/><rect class="c" x="498" y="34" rx="2" ry="2"/><rect class="c" x="498" y="50" rx="2" ry="2"/><rect class="c cn" x="498" y="66" rx="2" ry="2"/><rect class="c" x="498" y="82" rx="2" ry="2"/><rect class="c co" x="498" y="98" rx="2" ry="2"/><rect class="c" x="514" y="2" rx="2" ry="2"/><rect class="c" x="514" y="18" rx="2" ry="2"/><rect class="c" x="514" y="34" rx="2" ry="2"/><rect class="c" x="514" y="50" rx="2" ry="2"/><rect class="c cp" x="514" y="66" rx="2" ry="2"/><rect class="c" x="514" y="82" rx="2" ry="2"/><rect class="c" x="514" y="98" rx="2" ry="2"/><rect class="c" x="530" y="2" rx="2" ry="2"/><rect class="c" x="530" y="18" rx="2" ry="2"/><rect class="c cq" x="530" y="34" rx="2" ry="2"/><rect class="c" x="530" y="50" rx="2" ry="2"/><rect class="c" x="530" y="66" rx="2" ry="2"/><rect class="c" x="530" y="82" rx="2" ry="2"/><rect class="c" x="530" y="98" rx="2" ry="2"/><rect class="c cr" x="546" y="2" rx="2" ry="2"/><rect class="c cs" x="546" y="18" rx="2" ry="2"/><rect class="c" x="546" y="34" rx="2" ry="2"/><rect class="c" x="546" y="50" rx="2" ry="2"/><rect class="c ct" x="546" y="66" rx="2" ry="2"/><rect class="c" x="546" y="82" rx="2" ry="2"/><rect class="c" x="546" y="98" rx="2" ry="2"/><rect class="c" x="562" y="2" rx="2" ry="2"/><rect class="c" x="562" y="18" rx="2" ry="2"/><rect class="c" x="562" y="34" rx="2" ry="2"/><rect class="c" x="562" y="50" rx="2" ry="2"/><rect class="c" x="562" y="66" rx="2" ry="2"/><rect class="c" x="562" y="82" rx="2" ry="2"/><rect class="c" x="562" y="98" rx="2" ry="2"/><rect class="c" x="578" y="2" rx="2" ry="2"/><rect class="c" x="578" y="18" rx="2" ry="2"/><rect class="c" x="578" y="34" rx="2" ry="2"/><rect class="c" x="578" y="50" rx="2" ry="2"/><rect class="c" x="578" y="66" rx="2" ry="2"/><rect class="c" x="578" y="82" rx="2" ry="2"/><rect class="c" x="578" y="98" rx="2" ry="2"/><rect class="c" x="594" y="2" rx="2" ry="2"/><rect class="c" x="594" y="18" rx="2" ry="2"/><rect class="c" x="594" y="34" rx="2" ry="2"/><rect class="c" x="594" y="50" rx="2" ry="2"/><rect class="c" x="594" y="66" rx="2" ry="2"/><rect class="c" x="594" y="82" rx="2" ry="2"/><rect class="c" x="594" y="98" rx="2" ry="2"/><rect class="c" x="610" y="2" rx="2" ry="2"/><rect class="c" x="610" y="18" rx="2" ry="2"/><rect class="c" x="610" y="34" rx="2" ry="2"/><rect class="c" x="610" y="50" rx="2" ry="2"/><rect class="c cu" x="610" y="66" rx="2" ry="2"/><rect class="c" x="610" y="82" rx="2" ry="2"/><rect class="c" x="610" y="98" rx="2" ry="2"/><rect class="c" x="626" y="2" rx="2" ry="2"/><rect class="c" x="626" y="18" rx="2" ry="2"/><rect class="c" x="626" y="34" rx="2" ry="2"/><rect class="c" x="626" y="50" rx="2" ry="2"/><rect class="c" x="626" y="66" rx="2" ry="2"/><rect class="c cv" x="626" y="82" rx="2" ry="2"/><rect class="c" x="626" y="98" rx="2" ry="2"/><rect class="c" x="642" y="2" rx="2" ry="2"/><rect class="c" x="642" y="18" rx="2" ry="2"/><rect class="c" x="642" y="34" rx="2" ry="2"/><rect class="c" x="642" y="50" rx="2" ry="2"/><rect class="c" x="642" y="66" rx="2" ry="2"/><rect class="c" x="642" y="82" rx="2" ry="2"/><rect class="c" x="642" y="98" rx="2" ry="2"/><rect class="c" x="658" y="2" rx="2" ry="2"/><rect class="c" x="658" y="18" rx="2" ry="2"/><rect class="c" x="658" y="34" rx="2" ry="2"/><rect class="c" x="658" y="50" rx="2" ry="2"/><rect class="c" x="658" y="66" rx="2" ry="2"/><rect class="c" x="658" y="82" rx="2" ry="2"/><rect class="c" x="658" y="98" rx="2" ry="2"/><rect class="c" x="674" y="2" rx="2" ry="2"/><rect class="c" x="674" y="18" rx="2" ry="2"/><rect class="c" x="674" y="34" rx="2" ry="2"/><rect class="c" x="674" y="50" rx="2" ry="2"/><rect class="c" x="674" y="66" rx="2" ry="2"/><rect class="c" x="674" y="82" rx="2" ry="2"/><rect class="c" x="674" y="98" rx="2" ry="2"/><rect class="c" x="690" y="2" rx="2" ry="2"/><rect class="c" x="690" y="18" rx="2" ry="2"/><rect class="c" x="690" y="34" rx="2" ry="2"/><rect class="c" x="690" y="50" rx="2" ry="2"/><rect class="c" x="690" y="66" rx="2" ry="2"/><rect class="c" x="690" y="82" rx="2" ry="2"/><rect class="c" x="690" y="98" rx="2" ry="2"/><rect class="c" x="706" y="2" rx="2" ry="2"/><rect class="c" x="706" y="18" rx="2" ry="2"/><rect class="c" x="706" y="34" rx="2" ry="2"/><rect class="c" x="706" y="50" rx="2" ry="2"/><rect class="c" x="706" y="66" rx="2" ry="2"/><rect class="c" x="706" y="82" rx="2" ry="2"/><rect class="c" x="706" y="98" rx="2" ry="2"/><rect class="c" x="722" y="2" rx="2" ry="2"/><rect class="c cw" x="722" y="18" rx="2" ry="2"/><rect class="c" x="722" y="34" rx="2" ry="2"/><rect class="c" x="722" y="50" rx="2" ry="2"/><rect class="c cx" x="722" y="66" rx="2" ry="2"/><rect class="c cy" x="722" y="82" rx="2" ry="2"/><rect class="c" x="722" y="98" rx="2" ry="2"/><rect class="c" x="738" y="2" rx="2" ry="2"/><rect class="c cz" x="738" y="18" rx="2" ry="2"/><rect class="c c10" x="738" y="34" rx="2" ry="2"/><rect class="c" x="738" y="50" rx="2" ry="2"/><rect class="c" x="738" y="66" rx="2" ry="2"/><rect class="c" x="738" y="82" rx="2" ry="2"/><rect class="c" x="738" y="98" rx="2" ry="2"/><rect class="c" x="754" y="2" rx="2" ry="2"/><rect class="c c11" x="754" y="18" rx="2" ry="2"/><rect class="c" x="754" y="34" rx="2" ry="2"/><rect class="c c12" x="754" y="50" rx="2" ry="2"/><rect class="c c13" x="754" y="66" rx="2" ry="2"/><rect class="c" x="754" y="82" rx="2" ry="2"/><rect class="c" x="754" y="98" rx="2" ry="2"/><rect class="c" x="770" y="2" rx="2" ry="2"/><rect class="c" x="770" y="18" rx="2" ry="2"/><rect class="c c14" x="770" y="34" rx="2" ry="2"/><rect class="c c15" x="770" y="50" rx="2" ry="2"/><rect class="c c16" x="770" y="66" rx="2" ry="2"/><rect class="c c17" x="770" y="82" rx="2" ry="2"/><rect class="c" x="770" y="98" rx="2" ry="2"/><rect class="c" x="786" y="2" rx="2" ry="2"/><rect class="c c18" x="786" y="18" rx="2" ry="2"/><rect class="c c19" x="786" y="34" rx="2" ry="2"/><rect class="c c1a" x="786" y="50" rx="2" ry="2"/><rect class="c" x="786" y="66" rx="2" ry="2"/><rect class="c c1b" x="786" y="82" rx="2" ry="2"/><rect class="c" x="786" y="98" rx="2" ry="2"/><rect class="c c1c" x="802" y="2" rx="2" ry="2"/><rect class="c c1d" x="802" y="18" rx="2" ry="2"/><rect class="c c1e" x="802" y="34" rx="2" ry="2"/><rect class="c c1f" x="802" y="50" rx="2" ry="2"/><rect class="c c1g" x="802" y="66" rx="2" ry="2"/><rect class="c c1h" x="802" y="82" rx="2" ry="2"/><rect class="c c1i" x="802" y="98" rx="2" ry="2"/><rect class="c c1j" x="818" y="2" rx="2" ry="2"/><rect class="c c1k" x="818" y="18" rx="2" ry="2"/><rect class="c c1l" x="818" y="34" rx="2" ry="2"/><rect class="c c1m" x="818" y="50" rx="2" ry="2"/><rect class="c c1n" x="818" y="66" rx="2" ry="2"/><rect class="c c1o" x="818" y="82" rx="2" ry="2"/><rect class="c c1p" x="818" y="98" rx="2" ry="2"/><rect class="c c1q" x="834" y="2" rx="2" ry="2"/><rect class="c c1r" x="834" y="18" rx="2" ry="2"/><rect class="u u0" height="12" width="676.4" x="0.0" y="144"/><rect class="u u1" height="12" width="119.8" x="675.8" y="144"/><rect class="u u2" height="12" width="27.1" x="795.0" y="144"/><rect class="u u3" height="12" width="27.1" x="821.5" y="144"/><rect class="s s0" x="0.8" y="0.8" width="14.4" height="14.4" rx="4.5" ry="4.5"/><rect class="s s1" x="1.8" y="1.8" width="12.3" height="12.3" rx="4.1" ry="4.1"/><rect class="s s2" x="2.6" y="2.6" width="10.8" height="10.8" rx="3.6" ry="3.6"/><rect class="s s3" x="3.0" y="3.0" width="9.9" height="9.9" rx="3.3" ry="3.3"/></svg>